<?xml version="1.0" encoding="utf-8"?>
<!-- Generator: Adobe Illustrator 24.1.2, SVG Export Plug-In . SVG Version: 6.00 Build 0)  -->
<svg version="1.1" id="Layer_1" xmlns="http://www.w3.org/2000/svg" xmlns:xlink="http://www.w3.org/1999/xlink" x="0px" y="0px"
	 viewBox="0 0 2500 639" style="enable-background:new 0 0 2500 639;" xml:space="preserve">
<style type="text/css">
	.st0{fill:#159BD7;}
</style>
<g>
	<path class="st0" d="M677.5,7H0v104.1h643.6v0.1c18.4-0.1,33.4,14.8,33.5,33.3c0,0.1,0,0.2,0,0.2v349.6l-0.1,0.3
		c-0.1,18.4-15.1,33.3-33.6,33.3H137.7c-18.6,0-33.7-15-33.7-33.6c0,0,0,0,0,0V353.1c0-18.6,15.1-33.6,33.7-33.6h435.2v-104h-469
		C46.5,215.5,0,261.9,0,319.2v209C0,585.5,46.5,632,103.8,632h573.6c57.4,0,103.8-46.5,103.8-103.8V110.8
		C781.3,53.5,734.8,7,677.5,7"/>
	<path d="M1063.2,331.4h70.5l-34.9-104.6h-1L1063.2,331.4z M1165.8,154.6l81.2,242.8c9.6,29.6,16.4,36.5,33.4,36.5h16.5v42.7h-177.2
		v-42.7h14.5c14.6,0,26.7-1.9,26.7-7.2c0-5-0.5-10.3-2.4-17.6l-10.1-34.9h-99.1l-5.9,19.4c-5.3,16.9-7.3,24.1-7.3,31
		c0,7.8,17.1,9.3,30.3,9.3h14v42.7H937.5v-42.7H954c17,0,23.7-6.9,33.5-36.5l81.1-242.8L1165.8,154.6z M1405.7,362.9
		c0,49.6,11.1,79.2,38.3,79.2c27.3,0,38.4-29.6,38.4-79.2c0-49.5-11-79.1-38.4-79.1C1416.9,283.8,1405.7,313.4,1405.7,362.9
		 M1325,214.4c0-13.7-3.4-20.9-17.5-20.9h-22.3v-38.8h120.5v120.9c17.9-20.4,40.8-33.5,62.6-33.5c72.9,0,100,56.9,100,120.9
		c0,64.1-27.2,120.9-100,120.9c-30.6,0-57.8-10.7-74.7-37.4l-14,30.2H1325L1325,214.4z M1678.2,362.9c0,49.6,11.3,79.2,38.4,79.2
		c27.2,0,38.3-29.6,38.3-79.2c0-49.5-11.1-79.1-38.3-79.1C1689.4,283.8,1678.2,313.4,1678.2,362.9 M1597.5,214.4
		c0-13.7-3.4-20.9-17.4-20.9h-22.4v-38.8h120.4v120.9c18-20.4,40.8-33.5,62.7-33.5c72.9,0,100.1,56.9,100.1,120.9
		c0,64.1-27.2,120.9-100.1,120.9c-30.6,0-57.8-10.7-74.8-37.4l-14.1,30.2h-54.4L1597.5,214.4z M1950.2,362.9
		c0,57.3,10.2,82.1,39.3,82.1c29.1,0,39.3-24.8,39.3-82.1s-10.2-82-39.3-82C1960.4,280.8,1950.2,305.6,1950.2,362.9 M2114.8,362.9
		c0,77.7-53,120.9-125.3,120.9c-72.5,0-125.3-43.2-125.3-120.9c0-77.7,52.9-120.9,125.3-120.9C2061.8,242,2114.8,285.2,2114.8,362.9
		 M2461.1,366.8v37.9c0,22.3-4.8,35.5-23.3,35.5c-11.1,0-16.4-8.3-16.4-18.6V288.1h59.6v-38.9h-59.6V159h-48.2
		c-3.9,40.2-16.5,90.2-65.1,90.2h-75.7V159h-48c-3.9,40.2-16.6,90.2-65.1,90.2v38.9h32.5V410c0,49.6,27.7,73.8,77.6,73.8
		c58.4,0,81.6-26.1,81.6-73.8v-43.2h-38.7v37.9c0,22.3-4.9,35.5-23.3,35.5c-11.3,0-16.6-8.3-16.6-18.6V288.1h108.4V410
		c0,49.6,27.5,73.8,77.6,73.8c58.3,0,81.6-26.1,81.6-73.8v-43.2H2461.1L2461.1,366.8z"/>
</g>
</svg>
