<?xml version="1.0" encoding="utf-8"?>
<!-- Generator: Adobe Illustrator 24.1.2, SVG Export Plug-In . SVG Version: 6.00 Build 0)  -->
<svg version="1.1" id="Camada_1" xmlns="http://www.w3.org/2000/svg" xmlns:xlink="http://www.w3.org/1999/xlink" x="0px" y="0px"
	 viewBox="0 0 595.3 244.4" style="enable-background:new 0 0 595.3 244.4;" xml:space="preserve">
<style type="text/css">
	.st0{fill:#232B54;}
	.st1{fill:#1969AE;}
	.st2{fill:#0B9739;}
	.st3{fill:#EED600;}
</style>
<path class="st0" d="M438.2,171.2c-24.6,0-49.2,0-74,0c-3.2-6.3-6.6-12.8-9.9-19.2c-25.8,0-51.5,0-77.4,0c-0.8,1.7-1.7,3.6-2.5,5.4
	c-1.9,4.3-3.9,8.5-5.8,12.8c-0.3,0.8-0.8,1.1-1.7,1.1c-9,0-18.1,0-27.1,0c-0.1,0-0.2,0-0.5-0.1c0.2-0.4,0.3-0.9,0.5-1.3
	c3.8-7.7,7.6-15.3,11.4-23c3.7-7.5,7.4-15.1,11.1-22.6c4.5-9.1,9-18.2,13.5-27.3c6.4-13.1,12.9-26.1,19.3-39.2
	c6.7-13.5,13.3-27.1,20-40.6c0.2-0.4,0.4-0.7,0.8-1.4c8.2,16.3,16,32.4,24,48.5c8,16.1,15.9,32.2,23.8,48.2c0.1,0,0.3-0.1,0.4-0.1
	c0-32.1,0-64.3,0-96.6c0.8,0,1.3,0,1.9,0c9.5,0,19.1,0,28.6,0c13.8-0.1,27.7-0.2,41.5-0.2c0.7,0,1.4,0,2.2,0
	c0.5,3.1,0.2,6.2,0.3,9.2c0.1,3.1,0.1,6.2,0.2,9.2c0.1,3,0.2,6.1,0.3,9.3c-0.7,0-1.3,0.1-1.9,0.1c-14.3,0-28.6,0-42.9,0
	c-0.7,0-1.4,0-2.1,0c0,10.7,0,21.2,0,31.8c10.4,0,20.8,0,31.3,0c0.4-1.3,0.7-2.6,1.1-3.9c3.1-10.8,8.7-20.1,16.2-28.4
	c5.9-6.6,12.7-12.1,20.4-16.5c8.6-5,17.7-8.1,27.5-9.6c5.6-0.9,11.2-1.3,16.8-1.1c9,0.4,17.7,1.8,26.2,4.9c10.1,3.7,19,9.2,27,16.3
	c7.4,6.6,13.4,14.3,17.9,23.2c3.1,6.3,5.2,12.9,6.4,19.8c0.5,2.7,0.5,5.5,0.8,8.2c0.5,4.9,0.2,9.9-0.4,14.8
	c-0.7,5.9-2.1,11.7-4.2,17.3c-4.8,12.6-12.8,22.8-23,31.5c-6.7,5.7-14.1,10.4-22.4,13.7c-7.1,2.9-14.6,4.6-22.2,5.4
	c-4.5,0.5-8.9,0.6-13.4,0.4c-6.4-0.3-12.7-1.3-18.8-3c-14.8-4.1-27.3-12.2-37.8-23.3c-7-7.4-12.4-15.9-15.8-25.6
	c-1.6-4.5-2.7-9.2-3.4-13.9c-0.1-0.9-0.3-1.9-0.4-2.9c-9.9,0-19.8,0-29.8,0c0,13.3,0,26.6,0,40.1c3.8,0.1,7.7,0,11.5,0
	c3.9,0,7.9,0,11.8,0c3.9,0,7.8,0,11.7,0c3.9,0,7.8,0,11.6,0C439.1,144,438.6,168.7,438.2,171.2z M503.3,146.5
	c7.6,0.1,15.7-1.6,23.3-5.3c7.6-3.7,14-9,19.4-15.6c7-8.6,10.7-18.5,11.3-29.5c0.2-4.2,0-8.4-0.8-12.5c-1.3-7.9-4.3-15-9.1-21.4
	c-7.4-9.8-16.9-16.8-28.8-20.3c-4.3-1.3-8.7-1.9-13.2-2.1c-3.4-0.2-6.8,0-10.2,0.4c-7.3,0.8-14.1,3-20.4,6.6
	c-8.3,4.8-15.1,11.3-20.1,19.6c-3.6,6-5.7,12.4-6.6,19.3c-0.6,4.1-0.6,8.3-0.2,12.4c0.4,4.9,1.4,9.6,3.2,14.2
	c3.3,8.4,8.6,15.4,15.4,21.2C476.9,142.2,488.8,146.6,503.3,146.5z M343,128.5c-9.1-19-18-37.8-27.1-56.9
	c-9.6,18.8-19.1,37.3-28.6,55.7c-0.1,0.2-0.2,0.5-0.3,0.7c0,0,0,0.1,0,0.1c0,0,0.1,0.1,0.1,0.2C305.6,128.5,324.1,128.5,343,128.5z"
	/>
<path class="st1" d="M10.9,123.8c7.2-1.8,14.3-3.7,21.5-5.4c62.9-15.1,126.4-27.5,190.3-37.8c0.3,0,0.5,0,0.9,0
	c1.5,3.3,2.6,6.8,3.6,10.3c-0.4,0.1-0.7,0.3-1,0.4c-9.9,1.8-19.8,3.5-29.6,5.3c-7.2,1.3-14.3,2.7-21.4,4c-7.5,1.4-15,2.8-22.5,4.3
	c-7,1.4-14.1,2.8-21.1,4.2c-3.4,0.7-6.8,1.3-10.1,2.1c-2.5,0.6-4.9,1.5-6.9,3.1c-0.8,0.7-1.6,1.6-2.2,2.5c-0.4,0.5-0.6,1.3-0.5,1.9
	c0.3,2.2-0.7,3.7-2.3,5c-1.8,1.5-3.9,2.6-6.2,3.1c-3.2,0.8-6.4,1.4-9.6,2.1c-8.8,1.8-17.6,3.6-26.4,5.4C52.8,137.1,38.4,140,24,143
	c-3.5,0.7-6.9,1.5-10.4,2.2C12.4,141.2,10.6,127.8,10.9,123.8z"/>
<path class="st1" d="M15.5,153.6c72-13.7,143.8-28.1,215.6-43c0.6,3.7,0.6,7.4,0.7,11.1c-0.6,0.2-1,0.3-1.5,0.4
	c-13,2.9-26,5.8-39,8.6c-10.9,2.4-21.8,4.7-32.7,6.9c-10.4,2.1-20.7,4.1-31.1,6.2c-3.1,0.6-6.2,1-9.1,2.4c-1.3,0.6-2.5,1.4-3.7,2.2
	c-1.5,1.1-2.4,2.6-2.1,4.7c0.2,1.7-0.9,3-2.2,4c-2.2,1.8-4.8,2.9-7.6,3.4c-7.9,1.5-15.9,2.9-23.8,4.3c-6.8,1.2-13.6,2.4-20.4,3.6
	c-6.4,1.1-12.9,2.1-19.3,3.1c-4.9,0.8-9.8,1.4-14.6,2.2c-0.9,0.1-1.3-0.1-1.6-0.8c-3.1-6-5.5-12.2-7.4-18.6
	C15.5,154.3,15.5,154,15.5,153.6z"/>
<path class="st2" d="M214,62.2c-4.8,0.7-9.3,1.3-13.8,2c-10.4,1.6-20.9,3.2-31.3,4.9c-7.8,1.3-15.6,2.6-23.4,4
	c-6.4,1.2-12.8,2.4-19.2,3.6c-2.3,0.5-4.7,0.9-7,1.5c-2.3,0.6-4.4,1.7-6.2,3.3c-1.2,1.1-2,2.3-1.9,4c0.1,1.4-0.4,2.5-1.3,3.4
	c-2.1,2.2-4.8,3.5-7.7,4.2c-5.3,1.2-10.7,2.3-16,3.5c-12,2.7-24.1,5.3-36,8.3c-12.4,3-24.7,6.4-37,9.7c-0.6,0.2-1.3,0.3-2.2,0.5
	c0.2-2.5,0.3-4.8,0.6-7.1c0.6-4.7,1.5-9.4,2.7-14.1c0.3-1,0.7-1.5,1.7-1.8c9.4-2.7,18.7-5.6,28.1-8.2c13.6-3.7,27.4-7,41.2-10
	c8.6-1.9,17.1-3.7,25.7-5.4c10.5-2.1,21-4,31.5-5.9c9.7-1.7,19.4-3.3,29.1-4.8c8.3-1.3,16.7-2.5,25-3.7c3.1-0.5,6.3-0.8,9.5-1.2
	c0.4,0,1,0.1,1.2,0.4C209.6,56,211.8,58.9,214,62.2z"/>
<path class="st3" d="M28.4,182.2c67.8-9.7,134.7-22.6,201-39.2c0,0.4,0,0.7-0.1,1c-0.8,3.1-1.7,6.2-2.4,9.4c-0.3,1.1-0.9,1.7-2,1.9
	c-8.3,2.1-16.6,4.2-24.8,6.2c-6.4,1.6-12.8,3.1-19.2,4.5c-8.3,1.9-16.7,3.7-25,5.4c-7.3,1.5-14.7,2.9-22,4.4
	c-3.3,0.7-6.7,1.3-10,1.9c-2.8,0.5-5.5,1.4-7.9,3.2c-0.5,0.4-1,0.9-1.5,1.4c-0.6,0.6-0.9,1.4-0.8,2.3c0.3,2.4-1,3.9-2.9,5.1
	c-1.9,1.1-3.9,2-6,2.4c-5.8,0.9-11.6,1.9-17.5,2.7c-9.3,1.4-18.6,2.7-28,4c-4.4,0.6-8.7,1.2-13.1,1.8c-1.1,0.2-1.9-0.1-2.7-0.9
	c-2.3-2.4-4.7-4.8-7-7.2c-1.4-1.5-2.9-3-4.3-4.5c-0.1-0.1-0.3-0.2-0.3-0.3c-0.3-1.1-0.9-2-1.6-2.9C29.7,184.2,29.1,183.3,28.4,182.2
	z"/>
<path class="st2" d="M189.4,37c-1.7,0.2-3.2,0.5-4.6,0.7c-6.2,0.8-12.3,1.6-18.5,2.5c-5.9,0.8-11.8,1.7-17.6,2.6
	c-6.2,1-12.4,2-18.5,3.1c-3.7,0.6-7.3,1.3-11,2.1c-2.1,0.4-4,1.4-5.7,2.7c-1.4,1-2.4,2.2-2.2,4.2c0.1,1.3-0.7,2.2-1.6,3
	c-1.7,1.6-3.7,2.7-6,3.2c-3.6,0.9-7.2,1.7-10.9,2.5c-12.4,2.9-24.9,5.6-37.2,8.8c-10.1,2.5-20.1,5.5-30.1,8.4
	c-2.3,0.7-4.6,1.4-6.8,2.2c-0.2,0.1-0.5,0.1-0.9,0.2c0.2-0.6,0.3-1,0.4-1.3c3.1-7.7,6.9-15.1,11.7-21.9c0.7-0.9,1.4-1.5,2.5-1.8
	c6.2-1.7,12.3-3.7,18.6-5.2c9.8-2.5,19.7-4.9,29.6-7.1c10.4-2.3,20.9-4.4,31.4-6.3c12-2.2,24-4.1,36-6c8.3-1.3,16.7-2.3,25.1-3.4
	c0.6-0.1,1.3-0.1,1.9-0.3c1.7-0.5,3.2,0,4.7,0.9c2.8,1.8,5.7,3.5,8.5,5.3C188.4,36.1,188.7,36.5,189.4,37z"/>
<path class="st3" d="M53.9,208.2c0.2-0.2,0.2-0.3,0.3-0.3c54.4-6.7,108.3-16.2,161.3-30.3c0.1,0.1,0.1,0.2,0.2,0.3
	c-0.9,1.3-1.7,2.7-2.6,4c-1.9,2.6-3.8,5.1-5.7,7.7c-0.5,0.6-1.1,1-1.8,1.2c-8,1.9-16.1,3.9-24.1,5.7c-6.1,1.4-12.3,2.8-18.5,4.1
	c-6.9,1.4-13.7,2.7-20.6,3.9c-6.5,1.2-12.9,2.3-19.4,3.5c-2.1,0.4-4.1,1.2-5.8,2.5c-1.3,0.9-2.3,2-2.1,3.8c0.2,1.1-0.5,1.9-1.2,2.6
	c-1.4,1.3-3.2,2-5.1,2.5c-3.3,0.9-6.7,1.1-10,1.6c-3.1,0.5-6.3,0.9-9.5,1.3c-1.5,0.2-3,0.3-4.4,0.6c-0.9,0.2-1.8,0.1-2.6-0.2
	c-6.5-2.3-12.8-5-18.7-8.4c-2.9-1.7-5.7-3.5-8.5-5.3C54.6,208.8,54.3,208.5,53.9,208.2z"/>
<path class="st2" d="M39.6,47.6c2.4-2.3,4.8-4.6,7.3-6.8c12.2-10.6,26.2-17.7,42-21.2c4.6-1,9.2-1.6,13.8-2.4
	c5.6-1,11.2-1.3,16.8-1.5c3.6-0.1,7.1,0.1,10.7,0.4c4,0.3,8,0.9,12,1.4c1.1,0.1,2.2,0.4,3.2,0.9c-2.3,0.3-4.5,0.6-6.8,1
	c-5.9,0.8-11.8,1.6-17.6,2.6c-2.1,0.4-4.2,1.2-6.2,1.9c-0.9,0.3-1.6,1-2.3,1.6c-0.4,0.4-0.8,1.1-0.8,1.6c0.1,2.1-1.3,3.1-2.7,4
	c-2.3,1.4-4.7,2.1-7.3,2.6c-12.6,2.3-25.1,5-37.6,8c-7.6,1.8-15.1,3.9-22.7,5.9c-0.5,0.1-1,0.2-1.5,0.4
	C39.8,47.9,39.7,47.8,39.6,47.6z"/>
<path class="st3" d="M103.1,227.6c24.3-3.3,48.5-7.3,72.7-12c-0.2,0.2-0.4,0.4-0.6,0.5c-4.8,2.7-9.9,4.7-15,6.5
	c-6.7,2.3-13.7,3.7-20.8,4.7c-2.8,0.4-5.5,0.9-8.3,1.2c-3,0.3-5.9,0.4-8.9,0.4C115.8,229,109.4,228.7,103.1,227.6z"/>
<image style="overflow:visible;" width="3125" height="1763" xlink:href="CFD72CA7.jpg"  transform="matrix(1 0 0 1 2604.7778 -3433.5613)">
</image>
<g>
	<g>
		<path class="st0" d="M244.5,191.6l-1.9,5.9H240l6.4-18.8h2.9l6.4,18.8h-2.6l-2-5.9H244.5z M250.7,189.7l-1.9-5.4
			c-0.4-1.2-0.7-2.3-1-3.4h-0.1c-0.3,1.1-0.6,2.3-0.9,3.4l-1.8,5.4H250.7z"/>
		<path class="st0" d="M268.8,193.8c0,1.4,0,2.6,0.1,3.7h-2.2l-0.1-2.2h-0.1c-0.6,1.1-2.1,2.5-4.5,2.5c-2.1,0-4.6-1.2-4.6-5.9V184
			h2.4v7.4c0,2.6,0.8,4.3,3,4.3c1.6,0,2.8-1.1,3.2-2.3c0.1-0.3,0.2-0.8,0.2-1.3V184h2.4V193.8z"/>
		<path class="st0" d="M275.2,180.8v3.2h3.5v1.9h-3.5v7.3c0,1.7,0.5,2.6,1.8,2.6c0.7,0,1.1-0.1,1.4-0.2l0.1,1.9
			c-0.5,0.2-1.2,0.3-2.2,0.3c-1.1,0-2.1-0.4-2.6-1c-0.7-0.8-0.9-1.9-0.9-3.5v-7.3h-2.1V184h2.1v-2.5L275.2,180.8z"/>
		<path class="st0" d="M281,177.7h2.4v8.4h0.1c0.4-0.7,1-1.3,1.8-1.8c0.7-0.4,1.6-0.7,2.5-0.7c1.8,0,4.7,1.1,4.7,5.7v8H290v-7.7
			c0-2.2-0.8-4-3.1-4c-1.6,0-2.8,1.1-3.3,2.4c-0.1,0.4-0.2,0.7-0.2,1.2v8.1H281V177.7z"/>
		<path class="st0" d="M308,190.7c0,5-3.5,7.2-6.7,7.2c-3.6,0-6.5-2.7-6.5-6.9c0-4.5,3-7.1,6.7-7.1C305.4,183.8,308,186.6,308,190.7
			z M297.4,190.8c0,3,1.7,5.2,4.1,5.2c2.3,0,4.1-2.2,4.1-5.2c0-2.3-1.1-5.1-4-5.1C298.6,185.6,297.4,188.3,297.4,190.8z"/>
		<path class="st0" d="M310.6,188.2c0-1.6,0-3-0.1-4.2h2.1l0.1,2.7h0.1c0.6-1.8,2.1-3,3.8-3c0.3,0,0.4,0,0.7,0.1v2.3
			c-0.3-0.1-0.5-0.1-0.8-0.1c-1.7,0-3,1.3-3.3,3.1c-0.1,0.3-0.1,0.8-0.1,1.1v7.2h-2.4V188.2z"/>
		<path class="st0" d="M321.9,180.2c0,0.8-0.6,1.5-1.6,1.5c-0.9,0-1.5-0.7-1.5-1.5c0-0.8,0.6-1.5,1.5-1.5
			C321.3,178.7,321.9,179.4,321.9,180.2z M319.2,197.5V184h2.4v13.5H319.2z"/>
		<path class="st0" d="M323.6,196.1l6.1-7.9c0.6-0.8,1.2-1.4,1.8-2.1V186h-7.3V184h10.2v1.5l-6,7.8c-0.6,0.8-1.1,1.4-1.7,2.1v0.1
			h7.8v1.9h-10.9V196.1z"/>
		<path class="st0" d="M337.7,191.2c0.1,3.3,2.1,4.7,4.6,4.7c1.8,0,2.8-0.3,3.7-0.7l0.4,1.8c-0.9,0.4-2.4,0.9-4.5,0.9
			c-4.1,0-6.6-2.8-6.6-6.8c0-4.1,2.4-7.2,6.3-7.2c4.4,0,5.6,3.8,5.6,6.3c0,0.5,0,0.9-0.1,1.1H337.7z M344.9,189.5c0-1.5-0.6-4-3.4-4
			c-2.5,0-3.6,2.3-3.8,4H344.9z"/>
		<path class="st0" d="M361.3,177.7V194c0,1.2,0.1,2.6,0.1,3.5h-2.2l-0.1-2.3h-0.1c-0.7,1.5-2.3,2.6-4.5,2.6c-3.3,0-5.8-2.8-5.8-6.8
			c0-4.5,2.8-7.2,6-7.2c2.1,0,3.5,1,4.1,2h0.1v-8H361.3z M358.9,189.5c0-0.3,0-0.7-0.1-1c-0.4-1.5-1.7-2.8-3.5-2.8
			c-2.5,0-4,2.2-4,5.2c0,2.7,1.4,5,4,5c1.6,0,3.1-1.1,3.6-2.9c0.1-0.3,0.1-0.7,0.1-1.1V189.5z"/>
		<path class="st0" d="M380,188.7h-7.3v6.8h8.1v2h-10.6v-18.8h10.2v2h-7.7v5.9h7.3V188.7z"/>
		<path class="st0" d="M392.8,197c-0.6,0.3-2.1,0.8-3.9,0.8c-4.1,0-6.7-2.8-6.7-6.9c0-4.1,2.8-7.2,7.2-7.2c1.4,0,2.7,0.4,3.4,0.7
			l-0.6,1.9c-0.6-0.3-1.5-0.6-2.8-0.6c-3.1,0-4.8,2.3-4.8,5.1c0,3.1,2,5,4.7,5c1.4,0,2.3-0.3,3-0.6L392.8,197z"/>
		<path class="st0" d="M407.2,190.7c0,5-3.5,7.2-6.7,7.2c-3.6,0-6.5-2.7-6.5-6.9c0-4.5,3-7.1,6.7-7.1
			C404.6,183.8,407.2,186.6,407.2,190.7z M396.5,190.8c0,3,1.7,5.2,4.1,5.2c2.3,0,4.1-2.2,4.1-5.2c0-2.3-1.1-5.1-4-5.1
			C397.8,185.6,396.5,188.3,396.5,190.8z"/>
		<path class="st0" d="M409.7,187.7c0-1.4,0-2.5-0.1-3.6h2.2l0.1,2.2h0.1c0.7-1.3,2.2-2.5,4.5-2.5c1.9,0,4.8,1.1,4.8,5.7v8h-2.4
			v-7.8c0-2.2-0.8-4-3.1-4c-1.6,0-2.8,1.1-3.3,2.5c-0.1,0.3-0.2,0.7-0.2,1.1v8.1h-2.4V187.7z"/>
		<path class="st0" d="M436.8,190.7c0,5-3.5,7.2-6.7,7.2c-3.6,0-6.5-2.7-6.5-6.9c0-4.5,3-7.1,6.7-7.1
			C434.2,183.8,436.8,186.6,436.8,190.7z M426.1,190.8c0,3,1.7,5.2,4.1,5.2c2.3,0,4.1-2.2,4.1-5.2c0-2.3-1.1-5.1-4-5.1
			C427.4,185.6,426.1,188.3,426.1,190.8z"/>
		<path class="st0" d="M439.3,187.7c0-1.4-0.1-2.5-0.1-3.6h2.1l0.1,2.2h0.1c0.8-1.3,2-2.5,4.3-2.5c1.8,0,3.2,1.1,3.8,2.7h0.1
			c0.4-0.8,1-1.3,1.5-1.8c0.8-0.6,1.7-0.9,3-0.9c1.8,0,4.5,1.2,4.5,5.8v7.9h-2.4v-7.6c0-2.6-1-4.1-2.9-4.1c-1.4,0-2.5,1-2.9,2.2
			c-0.1,0.4-0.2,0.8-0.2,1.2v8.3h-2.4v-8.1c0-2.1-0.9-3.7-2.8-3.7c-1.5,0-2.6,1.2-3,2.4c-0.1,0.3-0.2,0.8-0.2,1.2v8.1h-2.4V187.7z"
			/>
		<path class="st0" d="M464.7,180.2c0,0.8-0.6,1.5-1.6,1.5c-0.9,0-1.5-0.7-1.5-1.5c0-0.8,0.6-1.5,1.5-1.5
			C464.1,178.7,464.7,179.4,464.7,180.2z M462,197.5V184h2.4v13.5H462z"/>
		<path class="st0" d="M477.5,197c-0.6,0.3-2.1,0.8-3.9,0.8c-4.1,0-6.7-2.8-6.7-6.9c0-4.1,2.8-7.2,7.2-7.2c1.4,0,2.7,0.4,3.4,0.7
			l-0.6,1.9c-0.6-0.3-1.5-0.6-2.8-0.6c-3.1,0-4.8,2.3-4.8,5.1c0,3.1,2,5,4.7,5c1.4,0,2.3-0.3,3-0.6L477.5,197z"/>
		<path class="st0" d="M501.3,187.9c0,6.4-3.9,9.9-8.7,9.9c-5,0-8.4-3.9-8.4-9.5c0-6,3.7-9.9,8.7-9.9
			C498,178.4,501.3,182.3,501.3,187.9z M486.7,188.2c0,4,2.2,7.6,6,7.6c3.8,0,6-3.5,6-7.8c0-3.8-1.9-7.7-6-7.7
			C488.7,180.4,486.7,184.1,486.7,188.2z"/>
		<path class="st0" d="M503.8,188.4c0-1.7-0.1-3.1-0.1-4.4h2.2l0.1,2.3h0.1c1-1.6,2.6-2.6,4.8-2.6c3.3,0,5.7,2.8,5.7,6.8
			c0,4.8-3,7.2-6.2,7.2c-1.8,0-3.3-0.8-4.1-2.1h-0.1v7.3h-2.4V188.4z M506.2,192c0,0.4,0,0.7,0.1,1c0.4,1.7,1.9,2.9,3.7,2.9
			c2.6,0,4.1-2.1,4.1-5.2c0-2.7-1.4-5-4-5c-1.7,0-3.3,1.2-3.7,3c-0.1,0.3-0.2,0.7-0.2,1V192z"/>
		<path class="st0" d="M520.4,191.2c0.1,3.3,2.1,4.7,4.6,4.7c1.8,0,2.8-0.3,3.7-0.7l0.4,1.8c-0.9,0.4-2.4,0.9-4.5,0.9
			c-4.1,0-6.6-2.8-6.6-6.8c0-4.1,2.4-7.2,6.3-7.2c4.4,0,5.6,3.8,5.6,6.3c0,0.5,0,0.9-0.1,1.1H520.4z M527.6,189.5c0-1.5-0.6-4-3.4-4
			c-2.5,0-3.6,2.3-3.8,4H527.6z"/>
		<path class="st0" d="M532.5,188.2c0-1.6,0-3-0.1-4.2h2.1l0.1,2.7h0.1c0.6-1.8,2.1-3,3.8-3c0.3,0,0.4,0,0.7,0.1v2.3
			c-0.3-0.1-0.5-0.1-0.8-0.1c-1.7,0-3,1.3-3.3,3.1c-0.1,0.3-0.1,0.8-0.1,1.1v7.2h-2.4V188.2z"/>
		<path class="st0" d="M550.3,194.3c0,1.2,0.1,2.3,0.2,3.2h-2.2l-0.2-1.7H548c-0.8,1.1-2.2,2-4.1,2c-2.7,0-4.1-1.9-4.1-3.9
			c0-3.3,2.9-5,8.1-5v-0.3c0-1.1-0.3-3.1-3.1-3.1c-1.3,0-2.6,0.4-3.5,1l-0.6-1.6c1.1-0.7,2.8-1.2,4.5-1.2c4.1,0,5.1,2.8,5.1,5.5
			V194.3z M548,190.6c-2.7-0.1-5.7,0.4-5.7,3c0,1.6,1.1,2.3,2.3,2.3c1.8,0,2.9-1.1,3.3-2.3c0.1-0.3,0.1-0.6,0.1-0.8V190.6z"/>
		<path class="st0" d="M556.6,180.8v3.2h3.5v1.9h-3.5v7.3c0,1.7,0.5,2.6,1.8,2.6c0.7,0,1.1-0.1,1.4-0.2l0.1,1.9
			c-0.5,0.2-1.2,0.3-2.2,0.3c-1.1,0-2.1-0.4-2.6-1c-0.7-0.8-0.9-1.9-0.9-3.5v-7.3h-2.1V184h2.1v-2.5L556.6,180.8z"/>
		<path class="st0" d="M574.3,190.7c0,5-3.5,7.2-6.7,7.2c-3.6,0-6.5-2.7-6.5-6.9c0-4.5,3-7.1,6.7-7.1
			C571.7,183.8,574.3,186.6,574.3,190.7z M563.6,190.8c0,3,1.7,5.2,4.1,5.2c2.3,0,4.1-2.2,4.1-5.2c0-2.3-1.1-5.1-4-5.1
			C564.9,185.6,563.6,188.3,563.6,190.8z"/>
		<path class="st0" d="M576.8,188.2c0-1.6,0-3-0.1-4.2h2.1l0.1,2.7h0.1c0.6-1.8,2.1-3,3.8-3c0.3,0,0.4,0,0.7,0.1v2.3
			c-0.3-0.1-0.5-0.1-0.8-0.1c-1.7,0-3,1.3-3.3,3.1c-0.1,0.3-0.1,0.8-0.1,1.1v7.2h-2.4V188.2z"/>
	</g>
	<g>
		<path class="st2" d="M240.3,213.1c0.7-0.1,1.5-0.2,2.6-0.2c1.3,0,2.3,0.3,2.9,0.9c0.6,0.5,0.9,1.3,0.9,2.2c0,0.9-0.3,1.7-0.8,2.2
			c-0.7,0.8-1.9,1.2-3.2,1.2c-0.4,0-0.8,0-1.1-0.1v4.2h-1.4V213.1z M241.6,218.2c0.3,0.1,0.7,0.1,1.1,0.1c1.6,0,2.6-0.8,2.6-2.2
			c0-1.4-1-2.1-2.5-2.1c-0.6,0-1,0-1.3,0.1V218.2z"/>
		<path class="st2" d="M248,218.3c0-0.9,0-1.6-0.1-2.3h1.2l0.1,1.5h0c0.3-1,1.2-1.6,2.1-1.6c0.1,0,0.2,0,0.4,0v1.3
			c-0.1,0-0.3,0-0.5,0c-1,0-1.6,0.7-1.8,1.7c0,0.2,0,0.4,0,0.6v4H248V218.3z"/>
		<path class="st2" d="M259.4,219.6c0,2.8-1.9,4-3.7,4c-2,0-3.6-1.5-3.6-3.9c0-2.5,1.7-4,3.7-4C257.9,215.8,259.4,217.3,259.4,219.6
			z M253.4,219.7c0,1.6,0.9,2.9,2.3,2.9c1.3,0,2.3-1.2,2.3-2.9c0-1.3-0.6-2.9-2.3-2.9C254.1,216.8,253.4,218.3,253.4,219.7z"/>
		<path class="st2" d="M267.2,222.3c0,1.7-0.4,2.8-1.1,3.5c-0.7,0.7-1.8,0.9-2.8,0.9c-0.9,0-1.9-0.2-2.5-0.6l0.3-1.1
			c0.5,0.3,1.3,0.6,2.2,0.6c1.4,0,2.4-0.7,2.4-2.6v-0.8h0c-0.4,0.7-1.2,1.3-2.4,1.3c-1.9,0-3.2-1.6-3.2-3.7c0-2.6,1.7-4,3.4-4
			c1.3,0,2,0.7,2.3,1.3h0l0-1.1h1.2c0,0.5-0.1,1.2-0.1,2.1V222.3z M265.9,218.9c0-0.2,0-0.4-0.1-0.6c-0.2-0.8-0.9-1.5-1.9-1.5
			c-1.3,0-2.2,1.1-2.2,2.8c0,1.5,0.8,2.7,2.2,2.7c0.9,0,1.6-0.5,1.9-1.4c0.1-0.2,0.1-0.5,0.1-0.7V218.9z"/>
		<path class="st2" d="M269.1,218.3c0-0.9,0-1.6-0.1-2.3h1.2l0.1,1.5h0c0.3-1,1.2-1.6,2.1-1.6c0.1,0,0.2,0,0.4,0v1.3
			c-0.1,0-0.3,0-0.5,0c-1,0-1.6,0.7-1.8,1.7c0,0.2,0,0.4,0,0.6v4h-1.4V218.3z"/>
		<path class="st2" d="M279.1,221.6c0,0.7,0,1.3,0.1,1.8H278l-0.1-0.9h0c-0.4,0.6-1.2,1.1-2.3,1.1c-1.5,0-2.3-1.1-2.3-2.2
			c0-1.8,1.6-2.8,4.5-2.8v-0.2c0-0.6-0.2-1.7-1.7-1.7c-0.7,0-1.4,0.2-2,0.6l-0.3-0.9c0.6-0.4,1.5-0.7,2.5-0.7c2.3,0,2.9,1.6,2.9,3.1
			V221.6z M277.7,219.6c-1.5,0-3.2,0.2-3.2,1.7c0,0.9,0.6,1.3,1.3,1.3c1,0,1.6-0.6,1.9-1.3c0-0.2,0.1-0.3,0.1-0.4V219.6z"/>
		<path class="st2" d="M281,218c0-0.8,0-1.4-0.1-2h1.2l0.1,1.2h0c0.4-0.7,1.1-1.4,2.4-1.4c1,0,1.8,0.6,2.1,1.5h0
			c0.2-0.4,0.5-0.7,0.9-1c0.5-0.3,0.9-0.5,1.6-0.5c1,0,2.5,0.7,2.5,3.3v4.4h-1.3v-4.2c0-1.5-0.5-2.3-1.6-2.3c-0.8,0-1.4,0.6-1.6,1.2
			c-0.1,0.2-0.1,0.4-0.1,0.7v4.7h-1.3v-4.5c0-1.2-0.5-2.1-1.6-2.1c-0.8,0-1.5,0.7-1.7,1.4c-0.1,0.2-0.1,0.4-0.1,0.7v4.5H281V218z"/>
		<path class="st2" d="M298.9,221.6c0,0.7,0,1.3,0.1,1.8h-1.2l-0.1-0.9h0c-0.4,0.6-1.2,1.1-2.3,1.1c-1.5,0-2.3-1.1-2.3-2.2
			c0-1.8,1.6-2.8,4.5-2.8v-0.2c0-0.6-0.2-1.7-1.7-1.7c-0.7,0-1.4,0.2-2,0.6l-0.3-0.9c0.6-0.4,1.5-0.7,2.5-0.7c2.3,0,2.9,1.6,2.9,3.1
			V221.6z M297.6,219.6c-1.5,0-3.2,0.2-3.2,1.7c0,0.9,0.6,1.3,1.3,1.3c1,0,1.6-0.6,1.9-1.3c0-0.2,0.1-0.3,0.1-0.4V219.6z"/>
		<path class="st2" d="M303.8,213.1c0.6-0.1,1.5-0.2,2.5-0.2c1.4,0,2.2,0.2,2.9,0.8c0.5,0.4,0.9,1,0.9,1.9c0,1-0.7,1.9-1.8,2.3v0
			c1,0.2,2.2,1.1,2.2,2.6c0,0.9-0.4,1.6-0.9,2.1c-0.7,0.7-1.9,1-3.6,1c-0.9,0-1.6-0.1-2.1-0.1V213.1z M305.2,217.4h1.2
			c1.4,0,2.3-0.8,2.3-1.8c0-1.2-0.9-1.7-2.3-1.7c-0.6,0-1,0-1.2,0.1V217.4z M305.2,222.4c0.3,0,0.7,0.1,1.1,0.1c1.4,0,2.7-0.5,2.7-2
			c0-1.4-1.2-2-2.7-2h-1.1V222.4z"/>
		<path class="st2" d="M311.9,218.3c0-0.9,0-1.6-0.1-2.3h1.2l0.1,1.5h0c0.3-1,1.2-1.6,2.1-1.6c0.1,0,0.2,0,0.4,0v1.3
			c-0.1,0-0.3,0-0.5,0c-1,0-1.6,0.7-1.8,1.7c0,0.2,0,0.4,0,0.6v4h-1.4V218.3z"/>
		<path class="st2" d="M321.9,221.6c0,0.7,0,1.3,0.1,1.8h-1.2l-0.1-0.9h0c-0.4,0.6-1.2,1.1-2.3,1.1c-1.5,0-2.3-1.1-2.3-2.2
			c0-1.8,1.6-2.8,4.5-2.8v-0.2c0-0.6-0.2-1.7-1.7-1.7c-0.7,0-1.4,0.2-2,0.6l-0.3-0.9c0.6-0.4,1.5-0.7,2.5-0.7c2.3,0,2.9,1.6,2.9,3.1
			V221.6z M320.6,219.6c-1.5,0-3.2,0.2-3.2,1.7c0,0.9,0.6,1.3,1.3,1.3c1,0,1.6-0.6,1.9-1.3c0-0.2,0.1-0.3,0.1-0.4V219.6z"/>
		<path class="st2" d="M323.6,222.1c0.4,0.2,1.1,0.5,1.8,0.5c1,0,1.4-0.5,1.4-1.1c0-0.7-0.4-1-1.4-1.4c-1.4-0.5-2-1.2-2-2.1
			c0-1.2,1-2.2,2.6-2.2c0.8,0,1.4,0.2,1.8,0.5l-0.3,1c-0.3-0.2-0.8-0.5-1.5-0.5c-0.8,0-1.2,0.5-1.2,1c0,0.6,0.4,0.9,1.4,1.3
			c1.3,0.5,2,1.1,2,2.3c0,1.3-1,2.3-2.8,2.3c-0.8,0-1.6-0.2-2.1-0.5L323.6,222.1z"/>
		<path class="st2" d="M331.2,213.8c0,0.5-0.3,0.8-0.9,0.8c-0.5,0-0.8-0.4-0.8-0.8s0.3-0.9,0.9-0.9
			C330.8,213,331.2,213.3,331.2,213.8z M329.6,223.5v-7.5h1.4v7.5H329.6z"/>
		<path class="st2" d="M333,212.4h1.4v11H333V212.4z"/>
		<path class="st2" d="M337.1,219.9c0,1.9,1.2,2.6,2.6,2.6c1,0,1.6-0.2,2.1-0.4l0.2,1c-0.5,0.2-1.3,0.5-2.5,0.5
			c-2.3,0-3.7-1.5-3.7-3.8c0-2.3,1.3-4,3.5-4c2.5,0,3.1,2.1,3.1,3.5c0,0.3,0,0.5,0,0.6H337.1z M341.1,219c0-0.9-0.4-2.2-1.9-2.2
			c-1.4,0-2,1.3-2.1,2.2H341.1z"/>
		<path class="st2" d="M345.3,213.8c0,0.5-0.3,0.8-0.9,0.8c-0.5,0-0.8-0.4-0.8-0.8s0.3-0.9,0.9-0.9C345,213,345.3,213.3,345.3,213.8
			z M343.8,223.5v-7.5h1.4v7.5H343.8z"/>
		<path class="st2" d="M347.1,218.3c0-0.9,0-1.6-0.1-2.3h1.2l0.1,1.5h0c0.3-1,1.2-1.6,2.1-1.6c0.1,0,0.2,0,0.4,0v1.3
			c-0.1,0-0.3,0-0.5,0c-1,0-1.6,0.7-1.8,1.7c0,0.2,0,0.4,0,0.6v4h-1.4V218.3z"/>
		<path class="st2" d="M358.6,219.6c0,2.8-1.9,4-3.7,4c-2,0-3.6-1.5-3.6-3.9c0-2.5,1.7-4,3.7-4C357.1,215.8,358.6,217.3,358.6,219.6
			z M352.6,219.7c0,1.6,0.9,2.9,2.3,2.9c1.3,0,2.3-1.2,2.3-2.9c0-1.3-0.6-2.9-2.3-2.9C353.3,216.8,352.6,218.3,352.6,219.7z"/>
		<path class="st2" d="M369.5,212.4v9.1c0,0.7,0,1.4,0.1,1.9h-1.2l-0.1-1.3h0c-0.4,0.8-1.3,1.5-2.5,1.5c-1.8,0-3.2-1.5-3.2-3.8
			c0-2.5,1.6-4,3.4-4c1.2,0,1.9,0.5,2.3,1.1h0v-4.5H369.5z M368.1,219c0-0.2,0-0.4-0.1-0.6c-0.2-0.9-0.9-1.6-2-1.6
			c-1.4,0-2.3,1.2-2.3,2.9c0,1.5,0.8,2.8,2.2,2.8c0.9,0,1.8-0.6,2-1.6c0-0.2,0.1-0.4,0.1-0.6V219z"/>
		<path class="st2" d="M372.2,219.9c0,1.9,1.2,2.6,2.6,2.6c1,0,1.6-0.2,2.1-0.4l0.2,1c-0.5,0.2-1.3,0.5-2.5,0.5
			c-2.3,0-3.7-1.5-3.7-3.8c0-2.3,1.3-4,3.5-4c2.5,0,3.1,2.1,3.1,3.5c0,0.3,0,0.5,0,0.6H372.2z M376.2,219c0-0.9-0.4-2.2-1.9-2.2
			c-1.4,0-2,1.3-2.1,2.2H376.2z"/>
		<path class="st2" d="M390.9,218.1c0,3.6-2.2,5.5-4.9,5.5c-2.8,0-4.7-2.2-4.7-5.3c0-3.3,2.1-5.5,4.9-5.5
			C389,212.8,390.9,215,390.9,218.1z M382.7,218.3c0,2.3,1.2,4.3,3.4,4.3s3.4-2,3.4-4.4c0-2.1-1.1-4.3-3.3-4.3
			C383.9,213.9,382.7,216,382.7,218.3z"/>
		<path class="st2" d="M392.3,218.4c0-1,0-1.7-0.1-2.5h1.2l0.1,1.3h0c0.5-0.9,1.4-1.4,2.7-1.4c1.8,0,3.2,1.5,3.2,3.8
			c0,2.7-1.7,4-3.4,4c-1,0-1.9-0.4-2.3-1.2h0v4.1h-1.4V218.4z M393.6,220.4c0,0.2,0,0.4,0.1,0.6c0.2,0.9,1.1,1.6,2.1,1.6
			c1.4,0,2.3-1.2,2.3-2.9c0-1.5-0.8-2.8-2.2-2.8c-0.9,0-1.8,0.7-2.1,1.7c0,0.2-0.1,0.4-0.1,0.5V220.4z"/>
		<path class="st2" d="M401.6,219.9c0,1.9,1.2,2.6,2.6,2.6c1,0,1.6-0.2,2.1-0.4l0.2,1c-0.5,0.2-1.3,0.5-2.5,0.5
			c-2.3,0-3.7-1.5-3.7-3.8c0-2.3,1.3-4,3.5-4c2.5,0,3.1,2.1,3.1,3.5c0,0.3,0,0.5,0,0.6H401.6z M405.6,219c0-0.9-0.4-2.2-1.9-2.2
			c-1.4,0-2,1.3-2.1,2.2H405.6z"/>
		<path class="st2" d="M408.3,218.3c0-0.9,0-1.6-0.1-2.3h1.2l0.1,1.5h0c0.3-1,1.2-1.6,2.1-1.6c0.1,0,0.2,0,0.4,0v1.3
			c-0.1,0-0.3,0-0.5,0c-1,0-1.6,0.7-1.8,1.7c0,0.2,0,0.4,0,0.6v4h-1.4V218.3z"/>
		<path class="st2" d="M418.3,221.6c0,0.7,0,1.3,0.1,1.8h-1.2l-0.1-0.9h0c-0.4,0.6-1.2,1.1-2.3,1.1c-1.5,0-2.3-1.1-2.3-2.2
			c0-1.8,1.6-2.8,4.5-2.8v-0.2c0-0.6-0.2-1.7-1.7-1.7c-0.7,0-1.4,0.2-2,0.6l-0.3-0.9c0.6-0.4,1.5-0.7,2.5-0.7c2.3,0,2.9,1.6,2.9,3.1
			V221.6z M417,219.6c-1.5,0-3.2,0.2-3.2,1.7c0,0.9,0.6,1.3,1.3,1.3c1,0,1.6-0.6,1.9-1.3c0-0.2,0.1-0.3,0.1-0.4V219.6z"/>
		<path class="st2" d="M426.7,212.4v9.1c0,0.7,0,1.4,0.1,1.9h-1.2l-0.1-1.3h0c-0.4,0.8-1.3,1.5-2.5,1.5c-1.8,0-3.2-1.5-3.2-3.8
			c0-2.5,1.6-4,3.4-4c1.2,0,1.9,0.5,2.3,1.1h0v-4.5H426.7z M425.3,219c0-0.2,0-0.4-0.1-0.6c-0.2-0.9-0.9-1.6-2-1.6
			c-1.4,0-2.3,1.2-2.3,2.9c0,1.5,0.8,2.8,2.2,2.8c0.9,0,1.8-0.6,2-1.6c0-0.2,0.1-0.4,0.1-0.6V219z"/>
		<path class="st2" d="M435.5,219.6c0,2.8-1.9,4-3.7,4c-2,0-3.6-1.5-3.6-3.9c0-2.5,1.7-4,3.7-4C434,215.8,435.5,217.3,435.5,219.6z
			 M429.5,219.7c0,1.6,0.9,2.9,2.3,2.9c1.3,0,2.3-1.2,2.3-2.9c0-1.3-0.6-2.9-2.3-2.9C430.2,216.8,429.5,218.3,429.5,219.7z"/>
		<path class="st2" d="M436.9,218.3c0-0.9,0-1.6-0.1-2.3h1.2l0.1,1.5h0c0.3-1,1.2-1.6,2.1-1.6c0.1,0,0.2,0,0.4,0v1.3
			c-0.1,0-0.3,0-0.5,0c-1,0-1.6,0.7-1.8,1.7c0,0.2,0,0.4,0,0.6v4h-1.4V218.3z"/>
		<path class="st2" d="M450.1,218.5H446v3.8h4.5v1.1h-5.9V213h5.7v1.1H446v3.3h4.1V218.5z"/>
		<path class="st2" d="M457.3,223.2c-0.4,0.2-1.2,0.4-2.2,0.4c-2.3,0-3.7-1.5-3.7-3.8c0-2.3,1.6-4,4-4c0.8,0,1.5,0.2,1.9,0.4l-0.3,1
			c-0.3-0.2-0.8-0.4-1.6-0.4c-1.7,0-2.7,1.3-2.7,2.8c0,1.7,1.1,2.8,2.6,2.8c0.8,0,1.3-0.2,1.7-0.4L457.3,223.2z"/>
		<path class="st2" d="M465.3,219.6c0,2.8-1.9,4-3.7,4c-2,0-3.6-1.5-3.6-3.9c0-2.5,1.7-4,3.7-4C463.8,215.8,465.3,217.3,465.3,219.6
			z M459.3,219.7c0,1.6,0.9,2.9,2.3,2.9c1.3,0,2.3-1.2,2.3-2.9c0-1.3-0.6-2.9-2.3-2.9C460,216.8,459.3,218.3,459.3,219.7z"/>
		<path class="st2" d="M466.7,218c0-0.8,0-1.4-0.1-2h1.2l0.1,1.2h0c0.4-0.7,1.2-1.4,2.5-1.4c1,0,2.7,0.6,2.7,3.2v4.5h-1.4v-4.3
			c0-1.2-0.5-2.2-1.7-2.2c-0.9,0-1.6,0.6-1.8,1.4c-0.1,0.2-0.1,0.4-0.1,0.6v4.5h-1.4V218z"/>
		<path class="st2" d="M481.8,219.6c0,2.8-1.9,4-3.7,4c-2,0-3.6-1.5-3.6-3.9c0-2.5,1.7-4,3.7-4C480.4,215.8,481.8,217.3,481.8,219.6
			z M475.9,219.7c0,1.6,0.9,2.9,2.3,2.9c1.3,0,2.3-1.2,2.3-2.9c0-1.3-0.6-2.9-2.3-2.9C476.6,216.8,475.9,218.3,475.9,219.7z
			 M478.6,212.7l1.5,2.2h-1l-0.9-1.5h0l-0.9,1.5h-1l1.5-2.2H478.6z"/>
		<path class="st2" d="M483.3,218c0-0.8,0-1.4-0.1-2h1.2l0.1,1.2h0c0.4-0.7,1.1-1.4,2.4-1.4c1,0,1.8,0.6,2.1,1.5h0
			c0.2-0.4,0.5-0.7,0.9-1c0.5-0.3,0.9-0.5,1.6-0.5c1,0,2.5,0.7,2.5,3.3v4.4h-1.3v-4.2c0-1.5-0.5-2.3-1.6-2.3c-0.8,0-1.4,0.6-1.6,1.2
			c-0.1,0.2-0.1,0.4-0.1,0.7v4.7H488v-4.5c0-1.2-0.5-2.1-1.6-2.1c-0.8,0-1.5,0.7-1.7,1.4c-0.1,0.2-0.1,0.4-0.1,0.7v4.5h-1.3V218z"/>
		<path class="st2" d="M497.4,213.8c0,0.5-0.3,0.8-0.9,0.8c-0.5,0-0.8-0.4-0.8-0.8s0.3-0.9,0.9-0.9
			C497.1,213,497.4,213.3,497.4,213.8z M495.9,223.5v-7.5h1.4v7.5H495.9z"/>
		<path class="st2" d="M504.6,223.2c-0.4,0.2-1.2,0.4-2.2,0.4c-2.3,0-3.7-1.5-3.7-3.8c0-2.3,1.6-4,4-4c0.8,0,1.5,0.2,1.9,0.4l-0.3,1
			c-0.3-0.2-0.8-0.4-1.6-0.4c-1.7,0-2.7,1.3-2.7,2.8c0,1.7,1.1,2.8,2.6,2.8c0.8,0,1.3-0.2,1.7-0.4L504.6,223.2z"/>
		<path class="st2" d="M512.6,219.6c0,2.8-1.9,4-3.7,4c-2,0-3.6-1.5-3.6-3.9c0-2.5,1.7-4,3.7-4C511.1,215.8,512.6,217.3,512.6,219.6
			z M506.7,219.7c0,1.6,0.9,2.9,2.3,2.9c1.3,0,2.3-1.2,2.3-2.9c0-1.3-0.6-2.9-2.3-2.9C507.4,216.8,506.7,218.3,506.7,219.7z"/>
		<path class="st2" d="M518.8,220.2l-1.1,3.3h-1.4l3.6-10.5h1.6l3.6,10.5h-1.4l-1.1-3.3H518.8z M522.2,219.1l-1-3
			c-0.2-0.7-0.4-1.3-0.5-1.9h0c-0.2,0.6-0.3,1.3-0.5,1.9l-1,3H522.2z"/>
		<path class="st2" d="M532.3,221.4c0,0.8,0,1.5,0.1,2.1h-1.2l-0.1-1.2h0c-0.3,0.6-1.2,1.4-2.5,1.4c-1.2,0-2.6-0.7-2.6-3.3v-4.4h1.4
			v4.2c0,1.4,0.5,2.4,1.7,2.4c0.9,0,1.6-0.6,1.8-1.3c0.1-0.2,0.1-0.4,0.1-0.7v-4.6h1.4V221.4z"/>
		<path class="st2" d="M535.9,214.1v1.8h2v1h-2v4.1c0,0.9,0.3,1.5,1,1.5c0.4,0,0.6,0,0.8-0.1l0.1,1c-0.3,0.1-0.7,0.2-1.2,0.2
			c-0.6,0-1.2-0.2-1.5-0.6c-0.4-0.4-0.5-1.1-0.5-2V217h-1.2v-1h1.2v-1.4L535.9,214.1z"/>
		<path class="st2" d="M545.8,219.6c0,2.8-1.9,4-3.7,4c-2,0-3.6-1.5-3.6-3.9c0-2.5,1.7-4,3.7-4C544.4,215.8,545.8,217.3,545.8,219.6
			z M539.9,219.7c0,1.6,0.9,2.9,2.3,2.9c1.3,0,2.3-1.2,2.3-2.9c0-1.3-0.6-2.9-2.3-2.9C540.6,216.8,539.9,218.3,539.9,219.7z"/>
		<path class="st2" d="M547.3,218.3c0-0.9,0-1.6-0.1-2.3h1.2l0.1,1.5h0c0.3-1,1.2-1.6,2.1-1.6c0.1,0,0.2,0,0.4,0v1.3
			c-0.1,0-0.3,0-0.5,0c-1,0-1.6,0.7-1.8,1.7c0,0.2,0,0.4,0,0.6v4h-1.4V218.3z"/>
		<path class="st2" d="M553.6,213.8c0,0.5-0.3,0.8-0.9,0.8c-0.5,0-0.8-0.4-0.8-0.8s0.3-0.9,0.9-0.9
			C553.3,213,553.6,213.3,553.6,213.8z M552.1,223.5v-7.5h1.4v7.5H552.1z"/>
		<path class="st2" d="M554.6,222.7l3.4-4.4c0.3-0.4,0.7-0.8,1-1.2v0h-4.1v-1.1h5.7v0.9l-3.4,4.4c-0.3,0.4-0.6,0.8-1,1.2v0h4.4v1.1
			h-6.1V222.7z"/>
		<path class="st2" d="M567.1,221.6c0,0.7,0,1.3,0.1,1.8h-1.2l-0.1-0.9h0c-0.4,0.6-1.2,1.1-2.3,1.1c-1.5,0-2.3-1.1-2.3-2.2
			c0-1.8,1.6-2.8,4.5-2.8v-0.2c0-0.6-0.2-1.7-1.7-1.7c-0.7,0-1.4,0.2-2,0.6l-0.3-0.9c0.6-0.4,1.5-0.7,2.5-0.7c2.3,0,2.9,1.6,2.9,3.1
			V221.6z M565.7,219.6c-1.5,0-3.2,0.2-3.2,1.7c0,0.9,0.6,1.3,1.3,1.3c1,0,1.6-0.6,1.9-1.3c0-0.2,0.1-0.3,0.1-0.4V219.6z"/>
		<path class="st2" d="M575.4,212.4v9.1c0,0.7,0,1.4,0.1,1.9h-1.2l-0.1-1.3h0c-0.4,0.8-1.3,1.5-2.5,1.5c-1.8,0-3.2-1.5-3.2-3.8
			c0-2.5,1.6-4,3.4-4c1.2,0,1.9,0.5,2.3,1.1h0v-4.5H575.4z M574.1,219c0-0.2,0-0.4-0.1-0.6c-0.2-0.9-0.9-1.6-2-1.6
			c-1.4,0-2.3,1.2-2.3,2.9c0,1.5,0.8,2.8,2.2,2.8c0.9,0,1.8-0.6,2-1.6c0-0.2,0.1-0.4,0.1-0.6V219z"/>
		<path class="st2" d="M584.2,219.6c0,2.8-1.9,4-3.7,4c-2,0-3.6-1.5-3.6-3.9c0-2.5,1.7-4,3.7-4C582.8,215.8,584.2,217.3,584.2,219.6
			z M578.3,219.7c0,1.6,0.9,2.9,2.3,2.9c1.3,0,2.3-1.2,2.3-2.9c0-1.3-0.6-2.9-2.3-2.9C579,216.8,578.3,218.3,578.3,219.7z"/>
	</g>
	<g>
		<rect x="240.5" y="206.7" class="st0" width="343.2" height="1.6"/>
	</g>
</g>
</svg>
