<?xml version="1.0" encoding="utf-8"?>
<!-- Generator: Adobe Illustrator 24.1.2, SVG Export Plug-In . SVG Version: 6.00 Build 0)  -->
<svg version="1.1" id="Camada_1" xmlns="http://www.w3.org/2000/svg" xmlns:xlink="http://www.w3.org/1999/xlink" x="0px" y="0px"
	 viewBox="0 0 414.6 414.5" style="enable-background:new 0 0 414.6 414.5;" xml:space="preserve">
<style type="text/css">
	.st0{fill:#FFFFFF;}
</style>
<g>
	<path class="st0" d="M142.9,387.3c3.4,0,6.6,0,10,0c0.1-0.9,0.2-1.8,0.2-2.6c0-18.8,0-37.6,0-56.4c0-0.7-0.1-1.4-0.2-2.4
		c-2.4,0.5-4.6,1-6.8,1.6c-0.4,0.1-0.7,0.4-1.1,0.4c-4.9,0-9.6,1.3-14.6,0.5c-5.9-0.9-11.7-2.1-17.1-4.9c-2-1-2.1-0.9-3.7,0.7
		c-5.5,5.5-11,11.1-16.6,16.5c-5.8,5.6-14.2,5.3-19.6-0.7c-4.8-5.3-5-12.4,0-18c4-4.5,8.5-8.6,12.8-12.9c1.6-1.6,3.1-3.2,4.7-4.7
		c0.9-0.8,0.9-1.6,0.5-2.5c-1.2-3-2.5-6-3.6-9.1c-0.5-1.3-0.6-2.6-0.9-4c-1.4-6.8-1.3-13.7,0.2-20.5c0.5-2.1,1-4.3,1.5-6.4
		c-2.3-0.6-58.9-0.6-61.3,0c-0.1,2.9-0.2,5.9,0,8.9c0,0.6,0.9,1.3,1.6,1.5c6.8,2.5,13.6,4.9,20.4,7.3c5.1,1.8,10.1,3.7,15.2,5.5
		c2.3,0.8,4.6,1.7,6.9,2.5c6.3,2.3,11.1,11.2,6.4,19c-2.7,4.4-6.5,6.6-11.5,6.9c-1.6,0.1-3.4-0.3-4.9-0.8c-5.5-1.9-10.9-4-16.4-5.9
		c-7-2.5-14-4.9-20.9-7.4c-5.2-1.9-10.5-3.7-15.6-5.8c-3.9-1.5-6.6-4.5-7.9-8.5C0.2,284.3,0,283,0,281.9c0-11.8-0.1-23.5,0-35.3
		c0-5.6,5.2-11,10.3-12c2.7-0.5,5.4-0.7,8.1-0.7c28.5,0,57.1,0,85.6,0c2.3,0,4-0.7,5.6-2.4c11.5-11.7,23.2-23.3,34.8-34.9
		c14.8-14.8,29.6-29.5,44.3-44.3c17-17,34-34.1,51.1-51.1c1.3-1.3,2.8-2.6,4.5-4.2c-1.1-0.6-1.8-1-2.6-1.3
		c-3.9-1.2-7.8-2.3-11.6-3.5c-5.8-1.8-11.6-3.5-17.3-5.4c-6.6-2.1-13.1-4.3-19.7-6.4c-5.5-1.7-11.1-3.3-16.7-5.1
		c-7.1-2.2-14.3-4.5-21.4-6.7c-5.6-1.8-11.2-3.5-16.8-5.2c-5.7-1.8-11.3-3.6-17-5.4c-2.8-0.9-5.6-1.8-8.4-2.6
		c-3.2-1-6.5-2.1-9.7-3.1c-4.6-1.4-9.1-2.7-13.7-4.1c-5.8-1.8-11.5-3.7-17.3-5.5c-1.6-0.5-3.2-1-4.8-1.4c-1.7-0.5-1.7-0.4-2.5,1.2
		c-1.7,3.5-3.3,7.1-4.9,10.6c-1.4,3-2.8,6.1-4.2,9.1c-0.2,0.3-0.2,0.7-0.3,1.3c2.2,1.2,4.3,2.4,6.5,3.5c8.1,4.2,16.2,8.5,24.4,12.7
		c7.9,4.1,15.8,8.2,23.7,12.3c11.9,6.2,23.7,12.3,35.5,18.5c8.3,4.3,16.6,8.7,25,13c2.5,1.3,5,2.4,7.4,3.8c5.1,2.9,7.8,8.3,6.9,14.1
		c-0.8,4.9-5.6,10.5-11.5,10.9c-3.7,0.3-7-0.5-10.3-2.2c-9.4-5-18.9-9.8-28.4-14.7c-8.8-4.5-17.5-9.2-26.2-13.7
		c-9.3-4.8-18.7-9.6-28-14.5c-7.2-3.7-14.4-7.5-21.6-11.3C50.9,92,43,87.9,35.1,83.8c-2-1.1-4.1-2.1-6-3.4
		c-3.9-2.9-5.8-7.1-5.3-11.9c0.3-2.5,1.4-5.1,2.5-7.4C32,48.5,37.9,35.9,43.7,23.3c0.8-1.7,1.6-3.5,2.5-5.2
		c2.5-4.8,7.7-8.2,13.8-7.4c2.1,0.3,4.2,1,6.2,1.6c3.4,1,6.8,2.1,10.2,3.2c4.5,1.4,8.9,2.9,13.4,4.3c5.5,1.7,11.1,3.5,16.6,5.2
		c5.8,1.8,11.5,3.7,17.3,5.5c5.6,1.7,11.3,3.4,16.9,5.2c5.7,1.8,11.3,3.7,17,5.5c5.5,1.7,11.1,3.3,16.7,5.1c5.7,1.8,11.3,3.7,17,5.5
		c4.5,1.4,9.2,2.7,13.7,4.1c5.7,1.8,11.3,3.7,17,5.5c5.3,1.7,10.6,3.3,15.9,5c5.8,1.8,11.7,3.7,17.5,5.5c3,0.9,6,1.7,8.9,2.7
		c1.4,0.4,2.4,0.1,3.4-0.9c6.5-6.6,13.1-13.1,19.6-19.6c7.7-7.7,15.3-15.4,23-23c5-5,10-10.1,15.1-15c5.1-4.9,11-8.7,17.5-11.5
		c4-1.7,8.1-2.8,12.3-3.7c4.9-1,9.9-0.9,14.8-0.6c5.3,0.3,10.4,1.7,15.2,3.8c6.9,3,12.9,7.3,17.7,13.1c4.8,5.7,8.1,12.1,10,19.4
		c1.9,7.2,2,14.5,0.9,21.8c-1.7,11.3-6.5,21.3-14.3,29.7c-7.7,8.2-15.8,16.1-23.7,24c-11.6,11.6-23.2,23.2-34.9,34.8
		c-1.1,1.1-1.4,2.1-0.9,3.6c2.2,6.6,4.3,13.2,6.3,19.8c2.5,8.1,5,16.3,7.5,24.4c1.8,5.6,3.7,11.2,5.4,16.8
		c1.8,5.6,3.4,11.3,5.1,16.9c1.8,5.6,3.7,11.2,5.4,16.8c1.4,4.5,2.7,9,4.1,13.5c1.8,5.7,3.6,11.3,5.4,17c1.7,5.5,3.4,11.1,5.1,16.7
		c1.8,5.7,3.6,11.4,5.4,17c1.4,4.5,2.7,9,4.2,13.4c2.1,6.7,4.2,13.3,6.3,20c1.2,3.7,2.4,7.4,3.3,11.2c1.2,5-1.3,11.3-7,14.2
		c-4,2-8,3.8-12.1,5.7c-6.4,3-12.8,6-19.3,8.9c-4.6,2.1-9.3,4.2-13.9,6.4c-7.5,3.6-15.3,0.8-19.1-6.4c-4.2-8.1-8.5-16.2-12.7-24.4
		c-7-13.5-14.1-27-21.1-40.5c-8.1-15.7-16.2-31.4-24.4-47.1c-3.6-6.9-7.2-13.9-10.8-20.8c-3.6-6.8-1.6-13.6,3.6-17.6
		c6.4-4.9,16.1-3.4,20.4,4.8c8.4,16.1,16.7,32.2,25.1,48.4c6.8,13.1,13.6,26.1,20.4,39.2c5.6,10.8,11.2,21.6,16.9,32.4
		c1.1,2.2,1.2,2.2,3.5,1.1c6.3-2.9,12.5-5.8,18.8-8.7c1.7-0.8,1.6-0.8,1.1-2.5c-1.8-5.7-3.5-11.4-5.3-17.1
		c-1.8-5.6-3.6-11.2-5.4-16.8c-1.4-4.5-2.8-9-4.1-13.5c-1.7-5.5-3.4-11-5.1-16.4c-1.8-5.6-3.6-11.2-5.4-16.8
		c-1.9-5.9-3.8-11.8-5.6-17.7c-1.4-4.4-2.7-8.8-4.1-13.2c-2.1-6.8-4.3-13.6-6.5-20.5c-2.2-7.1-4.3-14.2-6.5-21.2
		c-2.1-6.7-4.3-13.3-6.4-20c-0.4-1.1-0.6-2.3-1.1-3.8c-1.9,1.9-3.6,3.4-5.2,5c-21.1,21.1-42.2,42.2-63.3,63.3
		c-18.4,18.4-36.9,36.9-55.4,55.3c-3.9,3.9-7.7,7.9-11.7,11.7c-1.3,1.3-1.8,2.6-1.8,4.4c0,29.7,0,59.3,0,89c0,2.7-0.2,5.3-1.4,7.7
		c-2.5,4.8-6.2,7.8-11.9,7.8c-11.3,0-22.6-0.1-33.8,0.1c-6.1,0.1-11.1-3.9-13.1-9c-1.6-4.2-3.1-8.5-4.7-12.8
		c-2.3-6.3-4.5-12.6-6.8-18.9c-2.5-7-5.2-13.9-7.5-20.9c-2.7-8.2,2.1-16,10.2-17.7c5.7-1.2,11.6,1.4,14.3,6.7
		c1.4,2.7,2.4,5.7,3.5,8.6c2.7,7.3,5.3,14.7,7.9,22c1.5,4.2,3.1,8.4,4.6,12.6C142.3,385.8,142.5,386.4,142.9,387.3z M387.4,48.7
		c-0.2-1.2-0.4-3.4-0.8-5.5c-0.1-0.8-0.5-1.7-0.9-2.5c-4-9.9-13.6-14.6-23.5-13.5c-7.8,0.8-14.2,4.5-19.7,9.8
		c-6,5.9-11.9,12-17.9,18c-14.1,14.1-28.2,28.2-42.3,42.3c-9.9,9.9-19.9,19.8-29.8,29.7c-13.7,13.6-27.3,27.3-41,40.9
		c-10.3,10.3-20.5,20.5-30.8,30.8c-15.2,15.2-30.5,30.4-45.6,45.7c-5.2,5.3-10.8,10.2-15.4,16c-4,5-6.3,10.8-6.6,17.1
		c-0.3,6.3,1.5,12.2,6,16.9c3.2,3.4,7.1,5.5,11.6,6.2c4.9,0.8,9.8,0.5,14.6-1.3c3.2-1.2,6.4-2.7,8.9-5c5.1-4.8,10.2-9.7,15.2-14.6
		c15.9-15.9,31.8-31.8,47.8-47.7c12.5-12.5,24.9-24.9,37.4-37.4c11.5-11.5,23-23,34.5-34.5c12.4-12.4,24.8-24.8,37.2-37.2
		c13.2-13.2,26.4-26.4,39.6-39.6c4.5-4.5,9-8.9,13.2-13.5C384.4,64.3,387.2,57.5,387.4,48.7z"/>
	<path class="st0" d="M294.3,323.7c0.3,6.2-4.9,13.4-13.5,13.6c-4.3,0.1-8.3-1.5-10.7-5.3c-2.3-3.5-4.2-7.3-6.3-11
		c-1.2-2.2-2.3-4.3-2.6-6.9c-0.9-7.1,3.6-13.3,10-14.9c5.9-1.4,11.8,0.7,14.9,5.8c2.6,4.3,4.9,8.8,7.1,13.3
		C293.8,320,293.9,321.9,294.3,323.7z"/>
	<path class="st0" d="M102.9,153.5c-2.7,0.2-5.2-0.4-7.6-1.7c-3.6-1.9-7.2-3.8-10.7-5.7c-6.2-3.5-8.6-9.4-6.7-16
		c1.6-5.7,7.1-9.4,12.2-9.5c2.9-0.1,5.5,0.6,8,1.9c3.8,2.1,7.6,4,11.3,6.2c8.7,5.2,8.7,17.9-0.5,23.3
		C107.2,152.8,105.4,153.3,102.9,153.5z"/>
</g>
</svg>
