<?xml version="1.0" encoding="utf-8"?>
<!-- Generator: Adobe Illustrator 24.1.2, SVG Export Plug-In . SVG Version: 6.00 Build 0)  -->
<svg version="1.1" id="Camada_1" xmlns="http://www.w3.org/2000/svg" xmlns:xlink="http://www.w3.org/1999/xlink" x="0px" y="0px"
	 viewBox="0 0 600 195" style="enable-background:new 0 0 600 195;" xml:space="preserve">
<style type="text/css">
	.st0{fill:#1BAB8F;}
	.st1{fill:#646463;}
</style>
<g>
	<g>
		<path class="st0" d="M133.6,121.9c-19.7-12.4-39.2-24.6-58.7-36.8c0-25.5,0-51,0-76.5c0.3,0,0.7,0,1,0
			C89.2,33.5,134.9,118.5,133.6,121.9z"/>
		<path class="st0" d="M68.8,9.3c0.4,0,0.8,0.1,1.1,0.1c0,25.3,0,50.5,0,75.8c-0.4,0.4-37.2,22.8-53.6,33.6c-1.7,1.1-3.4,2.7-6,1.1
			C12.2,114.8,56.4,32.3,68.8,9.3z"/>
		<path class="st0" d="M132.9,128.6c-39.1,0-78.2,0.1-117.3,0.1c-1.3,0-2.8,0.4-3.7-1c19.8-12.4,39.9-24.5,59.2-37.7
			c0.8,0,1.6-0.1,2.4-0.1c9.3,6,18.7,12,28,18.1C112,114.9,123.2,120.7,132.9,128.6z"/>
	</g>
	<g>
		<g>
			<path class="st1" d="M216.6,98.1C216.6,98.1,216.6,98.1,216.6,98.1l-19-45.7c-0.7-1.7-2.4-2.9-4.3-2.9c0,0,0,0,0,0
				c-1.9,0-3.6,1.2-4.3,2.9L160,123.1c-1,2.4,0.2,5.1,2.6,6.1c0.6,0.2,1.2,0.3,1.8,0.3c1.8,0,3.6-1.1,4.3-2.9l9-22.1h31.5l8.9,21.4
				c1,2.4,3.7,3.5,6.1,2.5c2.4-1,3.5-3.7,2.5-6.1L216.6,98.1z M181.6,95.2l11.8-28.8l12,28.8H181.6z"/>
			<path class="st1" d="M274.3,119.4h-33.8V55.1c0-2.6-2.1-4.7-4.7-4.7s-4.7,2.1-4.7,4.7v69c0,2.6,2.1,4.7,4.7,4.7h38.5
				c2.6,0,4.7-2.1,4.7-4.7S276.9,119.4,274.3,119.4z"/>
			<path class="st1" d="M321.4,89.6c0-2.6-2.1-4.7-4.7-4.7h-24.4v-25H324c2.6,0,4.7-2.1,4.7-4.7s-2.1-4.7-4.7-4.7h-36.4
				c-2.6,0-4.7,2.1-4.7,4.7V124c0,2.6,2.1,4.7,4.7,4.7c2.6,0,4.7-2.1,4.7-4.7V94.2h24.4C319.3,94.2,321.4,92.1,321.4,89.6z"/>
			<path class="st1" d="M376.3,96.7C376.3,96.7,376.3,96.7,376.3,96.7l-19-45.7c-0.7-1.7-2.4-2.9-4.3-2.9c0,0,0,0,0,0
				c-1.9,0-3.6,1.2-4.3,2.9l-28.9,70.7c-1,2.4,0.2,5.1,2.6,6.1c0.6,0.2,1.2,0.3,1.8,0.3c1.8,0,3.6-1.1,4.3-2.9l9-22.1h31.5l8.9,21.4
				c1,2.4,3.7,3.5,6.1,2.5c2.4-1,3.5-3.7,2.5-6.1L376.3,96.7z M341.2,93.9L353,65.1l12,28.8H341.2z"/>
			<path class="st1" d="M520.2,117.9h-34.6v-25H510c2.6,0,4.7-2.1,4.7-4.7c0-2.6-2.1-4.7-4.7-4.7h-24.4v-25h31.7
				c2.6,0,4.7-2.1,4.7-4.7s-2.1-4.7-4.7-4.7h-36.4c-2.6,0-4.7,2.1-4.7,4.7v68.8c0,2.6,2.1,4.7,4.7,4.7h39.3c2.6,0,4.7-2.1,4.7-4.7
				S522.7,117.9,520.2,117.9z"/>
			<path class="st1" d="M559.7,50.4c-0.2,0-0.4,0-0.6,0h-24.4c-2.6,0-4.7,2.1-4.7,4.7v66.3c0,2.6,2.1,4.7,4.7,4.7h27.3
				c0.2,0,0.5,0,0.7-0.1c0.3,0,25.8-4.4,25.5-37.9C587.9,61.1,569.4,51.7,559.7,50.4z M561.5,116.7h-22.2V59.7h19.4
				c2.5,0.4,19.9,4.4,20.1,28.4C579,111.9,563.8,116.1,561.5,116.7z"/>
			<path class="st1" d="M462.1,48.3c-2.1-0.5-4.2,0.4-5.3,2.2L431,96.3l-27.7-44.5c-1.1-1.8-3.3-2.6-5.3-2c-2,0.6-3.4,2.4-3.4,4.5
				v69.3c0,2.6,2.1,4.7,4.7,4.7c2.6,0,4.7-2.1,4.7-4.7v-53l23.3,37.3c0.9,1.4,2.4,2.3,4.1,2.2c1.7,0,3.2-0.9,4-2.4l21-37.1v51
				c0,2.6,2.1,4.7,4.7,4.7c2.6,0,4.7-2.1,4.7-4.7V52.8C465.6,50.7,464.1,48.8,462.1,48.3z"/>
		</g>
	</g>
	<g>
		<path class="st1" d="M12.6,180.8c1,0.6,2.5,1.1,4.2,1.1c2,0,3.1-0.9,3.1-2.3c0-1.3-0.9-2.1-3.1-2.9c-2.8-1-4.6-2.5-4.6-5
			c0-2.8,2.3-4.9,6.1-4.9c1.9,0,3.2,0.4,4.1,0.9l-0.8,2.5c-0.6-0.3-1.8-0.8-3.4-0.8c-2,0-2.9,1.1-2.9,2.1c0,1.3,1,1.9,3.3,2.8
			c3,1.1,4.4,2.6,4.4,5.1c0,2.8-2.1,5.1-6.5,5.1c-1.8,0-3.7-0.5-4.6-1.1L12.6,180.8z"/>
		<path class="st1" d="M53,167v17.2h-3.1V167H53z"/>
		<path class="st1" d="M80.5,180.8c1,0.6,2.5,1.1,4.2,1.1c2,0,3.1-0.9,3.1-2.3c0-1.3-0.9-2.1-3.1-2.9c-2.8-1-4.6-2.5-4.6-5
			c0-2.8,2.3-4.9,6.1-4.9c1.9,0,3.2,0.4,4.1,0.9l-0.8,2.5c-0.6-0.3-1.8-0.8-3.4-0.8c-2,0-2.9,1.1-2.9,2.1c0,1.3,1,1.9,3.3,2.8
			c3,1.1,4.4,2.6,4.4,5.1c0,2.8-2.1,5.1-6.5,5.1c-1.8,0-3.7-0.5-4.6-1.1L80.5,180.8z"/>
		<path class="st1" d="M121,169.6h-4.9V167h13v2.6h-4.9v14.5H121V169.6z"/>
		<path class="st1" d="M164.6,176.6h-6.5v5h7.2v2.6H155V167h10v2.6h-6.8v4.4h6.5V176.6z"/>
		<path class="st1" d="M206.6,177.2c-0.1-2.2-0.2-4.9-0.2-7.2h-0.1c-0.6,2.1-1.3,4.4-2,6.6l-2.5,7.4h-2.4l-2.3-7.3
			c-0.7-2.2-1.3-4.5-1.7-6.7h-0.1c-0.1,2.2-0.2,5-0.3,7.3l-0.4,6.9h-2.9l1.1-17.2h4.1l2.2,6.9c0.6,2,1.1,4,1.6,6h0.1
			c0.5-1.9,1-4,1.7-6l2.4-6.9h4.1l1,17.2h-3.1L206.6,177.2z"/>
		<path class="st1" d="M240.4,179.3l-1.5,4.9h-3.2l5.5-17.2h4l5.6,17.2h-3.4l-1.6-4.9H240.4z M245.3,176.9l-1.3-4.2
			c-0.3-1-0.6-2.2-0.9-3.2h-0.1c-0.3,1-0.5,2.2-0.8,3.2l-1.3,4.2H245.3z"/>
		<path class="st1" d="M277.1,180.8c1,0.6,2.5,1.1,4.2,1.1c2,0,3.1-0.9,3.1-2.3c0-1.3-0.9-2.1-3.1-2.9c-2.8-1-4.6-2.5-4.6-5
			c0-2.8,2.3-4.9,6.1-4.9c1.9,0,3.2,0.4,4.1,0.9l-0.8,2.5c-0.6-0.3-1.8-0.8-3.4-0.8c-2,0-2.9,1.1-2.9,2.1c0,1.3,1,1.9,3.3,2.8
			c3,1.1,4.4,2.6,4.4,5.1c0,2.8-2.1,5.1-6.5,5.1c-1.8,0-3.7-0.5-4.6-1.1L277.1,180.8z"/>
		<path class="st1" d="M358,177.2c-0.1-2.2-0.2-4.9-0.2-7.2h-0.1c-0.6,2.1-1.3,4.4-2,6.6l-2.5,7.4h-2.4l-2.3-7.3
			c-0.7-2.2-1.3-4.5-1.7-6.7h-0.1c-0.1,2.2-0.2,5-0.3,7.3l-0.4,6.9h-2.9l1.1-17.2h4.1l2.2,6.9c0.6,2,1.1,4,1.6,6h0.1
			c0.5-1.9,1-4,1.7-6l2.4-6.9h4.1l1,17.2h-3.1L358,177.2z"/>
		<path class="st1" d="M398.1,176.6h-6.5v5h7.2v2.6h-10.4V167h10v2.6h-6.9v4.4h6.5V176.6z M397.7,163l-3.2,3.1H392l2.2-3.1H397.7z"
			/>
		<path class="st1" d="M425.6,167.2c1.4-0.2,3.1-0.4,5-0.4c3.2,0,5.4,0.7,7,2c1.7,1.3,2.7,3.4,2.7,6.3c0,3.1-1,5.3-2.7,6.8
			c-1.7,1.6-4.4,2.3-7.8,2.3c-1.8,0-3.2-0.1-4.2-0.2V167.2z M428.7,181.8c0.4,0.1,1.1,0.1,1.7,0.1c4.1,0,6.5-2.2,6.5-6.6
			c0-3.8-2.2-6-6.1-6c-1,0-1.7,0.1-2.1,0.2V181.8z"/>
		<path class="st1" d="M470.1,167v17.2H467V167H470.1z"/>
		<path class="st1" d="M509.9,183.7c-0.7,0.4-2.4,0.8-4.4,0.8c-5.4,0-8.8-3.4-8.8-8.6c0-5.7,3.9-9.1,9.2-9.1c2.1,0,3.5,0.4,4.2,0.8
			l-0.7,2.5c-0.8-0.4-1.9-0.7-3.4-0.7c-3.5,0-6,2.2-6,6.3c0,3.8,2.2,6.2,6,6.2c1.3,0,2.6-0.3,3.4-0.6L509.9,183.7z"/>
		<path class="st1" d="M551.1,175.4c0,5.8-3.5,9-8.2,9c-4.8,0-7.9-3.7-7.9-8.7c0-5.3,3.3-9,8.1-9
			C548.2,166.7,551.1,170.5,551.1,175.4z M538.3,175.7c0,3.5,1.8,6.3,4.8,6.3c3,0,4.7-2.8,4.7-6.4c0-3.2-1.6-6.3-4.7-6.3
			C540,169.2,538.3,172.1,538.3,175.7z"/>
		<path class="st1" d="M577.7,180.8c1,0.6,2.5,1.1,4.1,1.1c2,0,3.1-0.9,3.1-2.3c0-1.3-0.9-2.1-3.1-2.9c-2.8-1-4.6-2.5-4.6-5
			c0-2.8,2.3-4.9,6.1-4.9c1.9,0,3.2,0.4,4.1,0.9l-0.8,2.5c-0.6-0.3-1.8-0.8-3.4-0.8c-2,0-2.9,1.1-2.9,2.1c0,1.3,1,1.9,3.3,2.8
			c3,1.1,4.4,2.6,4.4,5.1c0,2.8-2.1,5.1-6.5,5.1c-1.8,0-3.7-0.5-4.6-1.1L577.7,180.8z"/>
	</g>
</g>
</svg>
