<?xml version="1.0" encoding="utf-8"?>
<!-- Generator: Adobe Illustrator 24.1.2, SVG Export Plug-In . SVG Version: 6.00 Build 0)  -->
<svg version="1.1" id="Camada_1" xmlns="http://www.w3.org/2000/svg" xmlns:xlink="http://www.w3.org/1999/xlink" x="0px" y="0px"
	 viewBox="0 0 595.3 348.7" style="enable-background:new 0 0 595.3 348.7;" xml:space="preserve">
<style type="text/css">
	.st0{fill:#019039;}
	.st1{fill:#EF7C0A;}
	.st2{fill:#FFFFFF;}
</style>
<g>
	<path class="st0" d="M315,67.3c-23.9,0-45.7,9.7-61.9,25.5l29.3,67.9h123.2C404.9,109,364.6,67.3,315,67.3z"/>
	<rect x="286.6" y="10.2" class="st0" width="53.9" height="42.7"/>
	
		<rect x="208.9" y="37.2" transform="matrix(0.7938 -0.6082 0.6082 0.7938 13.015 155.5637)" class="st0" width="53.9" height="42.7"/>
	
		<rect x="365" y="37.7" transform="matrix(0.7646 0.6446 -0.6446 0.7646 130.3079 -238.7226)" class="st0" width="53.9" height="42.7"/>
	
		<rect x="406.8" y="105.4" transform="matrix(0.2787 0.9604 -0.9604 0.2787 434.6113 -325.0836)" class="st0" width="53.9" height="42.7"/>
	<rect x="169" y="78.8" class="st0" width="60.5" height="8.5"/>
	<rect x="162.9" y="97.8" class="st0" width="62.2" height="8.5"/>
	<rect x="151.7" y="116.8" class="st0" width="62.2" height="8.5"/>
	<rect x="146.1" y="134.9" class="st0" width="62.2" height="8.5"/>
	<rect x="139.2" y="152.9" class="st0" width="62.2" height="8.5"/>
	<path class="st1" d="M491.5,192.2c0,0-177.7-52.8-363.8,62.5c0,0,71.4-36.8,140-32.9c0,0,30.2-23.6,81.8-6.6
		c0,0,52.7-24.2,84.3-9.9C433.7,205.3,443.6,190.7,491.5,192.2z"/>
	<g>
		<path class="st0" d="M26.5,317.9L21.9,333h-10L29,279.8h12.4L58.7,333H48.3l-4.8-15.1H26.5z M41.8,310.6l-4.2-13.1
			c-1-3.2-1.9-6.9-2.7-10h-0.2c-0.8,3.1-1.6,6.8-2.5,10l-4.1,13.1H41.8z"/>
		<path class="st0" d="M65.3,306c0-4.4-0.1-8.1-0.3-11.5h8.4l0.4,5.7H74c1.9-3,5.4-6.6,11.9-6.6c5.1,0,9,2.8,10.7,7.1h0.2
			c1.3-2.1,2.9-3.7,4.7-4.8c2.1-1.5,4.6-2.3,7.7-2.3c6.4,0,12.9,4.3,12.9,16.7V333h-9.5v-21.3c0-6.4-2.2-10.2-6.9-10.2
			c-3.3,0-5.8,2.4-6.8,5.1c-0.2,0.9-0.5,2.1-0.5,3.2V333H89v-22.3c0-5.4-2.1-9.2-6.6-9.2c-3.6,0-6.1,2.8-7,5.5
			c-0.4,0.9-0.6,2.1-0.6,3.2V333h-9.5V306z"/>
		<path class="st0" d="M139.2,316.5c0.2,7,5.7,10,11.9,10c4.5,0,7.7-0.6,10.7-1.7l1.4,6.7c-3.3,1.3-7.9,2.4-13.4,2.4
			c-12.5,0-19.8-7.7-19.8-19.4c0-10.7,6.5-20.7,18.8-20.7c12.5,0,16.6,10.3,16.6,18.7c0,1.8-0.2,3.2-0.3,4.1H139.2z M156.2,309.7
			c0.1-3.6-1.5-9.4-8-9.4c-6,0-8.5,5.5-8.9,9.4H156.2z"/>
		<path class="st0" d="M173.2,306.9c0-5.2-0.1-8.9-0.3-12.4h8.5l0.3,7.4h0.3c1.9-5.5,6.4-8.2,10.5-8.2c0.9,0,1.5,0.1,2.3,0.2v9.2
			c-0.8-0.2-1.7-0.3-2.8-0.3c-4.7,0-7.8,3-8.7,7.4c-0.2,0.9-0.3,1.9-0.3,3V333h-9.7V306.9z"/>
		<path class="st0" d="M211.6,283.8c0,2.9-2.1,5.2-5.5,5.2c-3.2,0-5.4-2.3-5.4-5.2c0-3,2.2-5.3,5.5-5.3
			C209.5,278.5,211.6,280.8,211.6,283.8z M201.3,333v-38.5h9.8V333H201.3z"/>
		<path class="st0" d="M221.1,324.1c2.2,1.3,6.4,2.8,9.9,2.8c4.3,0,6.2-1.7,6.2-4.3c0-2.6-1.6-4-6.3-5.6
			c-7.5-2.6-10.7-6.7-10.6-11.2c0-6.8,5.6-12.1,14.5-12.1c4.3,0,8,1.1,10.2,2.3l-1.9,6.9c-1.7-0.9-4.7-2.2-8.1-2.2
			c-3.5,0-5.4,1.7-5.4,4c0,2.5,1.8,3.6,6.7,5.4c7,2.5,10.2,6.1,10.3,11.8c0,7-5.5,12-15.7,12c-4.7,0-8.9-1.1-11.7-2.7L221.1,324.1z"
			/>
		<path class="st0" d="M291.1,313.4c0,14.1-10,20.5-19.8,20.5c-10.9,0-19.3-7.5-19.3-19.8c0-12.6,8.3-20.4,19.9-20.4
			C283.4,293.7,291.1,301.7,291.1,313.4z M262.1,313.8c0,7.4,3.6,13,9.6,13c5.5,0,9.4-5.5,9.4-13.2c0-6-2.7-12.9-9.3-12.9
			C264.8,300.8,262.1,307.4,262.1,313.8z"/>
		<path class="st0" d="M299.1,276.9h9.8V333h-9.8V276.9z"/>
		<path class="st0" d="M341.1,333l-0.6-4.3h-0.2c-2.4,3-6.4,5.1-11.4,5.1c-7.7,0-12.1-5.6-12.1-11.5c0-9.7,8.6-14.6,22.8-14.5v-0.6
			c0-2.5-1-6.7-7.8-6.7c-3.8,0-7.7,1.2-10.4,2.8l-1.9-6.3c2.8-1.7,7.8-3.4,13.9-3.4c12.3,0,15.9,7.8,15.9,16.2v13.9
			c0,3.5,0.2,6.9,0.6,9.2H341.1z M339.8,314.2c-6.9-0.2-13.4,1.3-13.4,7.2c0,3.8,2.5,5.5,5.5,5.5c3.9,0,6.7-2.5,7.6-5.3
			c0.2-0.7,0.3-1.5,0.3-2.1V314.2z"/>
		<path class="st0" d="M359.6,306.9c0-5.2-0.1-8.9-0.3-12.4h8.5l0.3,7.4h0.3c1.9-5.5,6.4-8.2,10.5-8.2c0.9,0,1.5,0.1,2.3,0.2v9.2
			c-0.8-0.2-1.7-0.3-2.8-0.3c-4.7,0-7.8,3-8.7,7.4c-0.2,0.9-0.3,1.9-0.3,3V333h-9.7V306.9z"/>
		<path class="st0" d="M404.4,280.5c3.1-0.6,8.7-1.1,14.1-1.1c7.2,0,11.6,0.9,15.3,3.4c3.3,2,5.5,5.5,5.5,10c0,4.9-3.1,9.4-8.9,11.5
			v0.2c5.6,1.4,10.8,5.8,10.8,13.2c0,4.7-2.1,8.5-5.1,11c-3.8,3.3-10,5-19.8,5c-5.4,0-9.5-0.4-11.9-0.7V280.5z M414.1,301.5h5
			c6.7,0,10.5-3.2,10.5-7.7c0-5-3.8-7.3-10-7.3c-2.8,0-4.5,0.2-5.5,0.4V301.5z M414.1,326c1.3,0.2,2.9,0.2,5.1,0.2
			c6.2,0,11.8-2.4,11.8-8.9c0-6.2-5.4-8.7-12.1-8.7h-4.8V326z"/>
		<path class="st0" d="M449.6,306.9c0-5.2-0.1-8.9-0.3-12.4h8.5l0.3,7.4h0.3c1.9-5.5,6.4-8.2,10.5-8.2c0.9,0,1.5,0.1,2.3,0.2v9.2
			c-0.8-0.2-1.7-0.3-2.8-0.3c-4.7,0-7.8,3-8.7,7.4c-0.2,0.9-0.3,1.9-0.3,3V333h-9.7V306.9z"/>
		<path class="st0" d="M498.7,333l-0.6-4.3h-0.2c-2.4,3-6.4,5.1-11.4,5.1c-7.7,0-12.1-5.6-12.1-11.5c0-9.7,8.6-14.6,22.8-14.5v-0.6
			c0-2.5-1-6.7-7.8-6.7c-3.8,0-7.7,1.2-10.4,2.8l-1.9-6.3c2.8-1.7,7.8-3.4,13.9-3.4c12.3,0,15.9,7.8,15.9,16.2v13.9
			c0,3.5,0.2,6.9,0.6,9.2H498.7z M497.4,314.2c-6.9-0.2-13.4,1.3-13.4,7.2c0,3.8,2.5,5.5,5.5,5.5c3.9,0,6.7-2.5,7.6-5.3
			c0.2-0.7,0.3-1.5,0.3-2.1V314.2z"/>
		<path class="st0" d="M516.7,324.1c2.2,1.3,6.4,2.8,9.9,2.8c4.3,0,6.2-1.7,6.2-4.3c0-2.6-1.6-4-6.3-5.6
			c-7.5-2.6-10.7-6.7-10.6-11.2c0-6.8,5.6-12.1,14.5-12.1c4.3,0,8,1.1,10.2,2.3l-1.9,6.9c-1.7-0.9-4.7-2.2-8.1-2.2
			c-3.5,0-5.4,1.7-5.4,4c0,2.5,1.8,3.6,6.7,5.4c7,2.5,10.2,6.1,10.3,11.8c0,7-5.5,12-15.7,12c-4.7,0-8.9-1.1-11.7-2.7L516.7,324.1z"
			/>
		<path class="st0" d="M560.5,283.8c0,2.9-2.1,5.2-5.5,5.2c-3.2,0-5.4-2.3-5.4-5.2c0-3,2.2-5.3,5.5-5.3
			C558.4,278.5,560.4,280.8,560.5,283.8z M550.1,333v-38.5h9.8V333H550.1z"/>
		<path class="st0" d="M570.4,276.9h9.8V333h-9.8V276.9z"/>
	</g>
	<polygon class="st0" points="253.1,160.7 240.2,132.3 226.5,160.7 	"/>
	<path class="st2" d="M275.5,144.7c0.1-5.7,0.2-12.2,0.3-17.6h0c0.4,5.3,1,11.1,1.7,16.5l1,8l3.7,8.7l2.2-16.9
		c0.7-5.4,1.4-11.1,2-16.2h0.1c0,5.7,0.1,12.3,0.2,17.8l0.3,15.8h2.9l-0.9-40.9H285l-2.3,17c-0.6,5-1.2,10.2-1.6,14.8H281
		c-0.4-4.7-0.9-9.8-1.5-14.7l-2.1-17.1h-4l-0.5,18.9L275.5,144.7z"/>
	<polygon class="st2" points="302.8,160.7 302.8,155.9 295.9,155.9 295.9,143.4 302.1,143.4 302.1,137.1 295.9,137.1 295.9,126.2 
		302.5,126.2 302.5,119.8 292.9,119.8 292.9,160.7 	"/>
	<path class="st2" d="M308.4,160.7v-15.9h1.5c1.7,0.1,2.5,1.9,3,7.4c0.3,3.8,0.6,6.7,0.9,8.5h3.1c-0.3-2.3-0.7-6.2-1.1-10.3
		c-0.4-4.1-1.1-7.1-2.3-8.2v-0.2c1.5-1.4,3-5.2,3-10.6c0-3.6-0.5-6.5-1.4-8.5c-1.1-2.4-2.7-3.4-5.1-3.4c-1.7,0-3.4,0.4-4.5,0.9v40.3
		H308.4z M308.4,125.7c0.3-0.2,0.9-0.4,1.9-0.4c2,0,3.2,2.1,3.2,6.8c0,4.2-1.3,7-3.3,7h-1.8V125.7z"/>
	<rect x="319.3" y="119.8" class="st2" width="3" height="40.9"/>
	<path class="st2" d="M329.7,156.5c-1.5,0-3-1.3-4-2.7l-0.7,6.4c0.1,0.2,0.2,0.3,0.4,0.5h7.9c1.7-2.3,2.5-6.3,2.5-10.6
		c0-6.1-1.4-9.8-4.2-12.6c-2.2-2.2-3.1-3.7-3.1-7c0-2.5,0.8-5.1,2.7-5.1c1.5,0,2.7,1.2,3.3,2l0.7-6.2c-0.9-1.1-2.2-2.1-4-2.1
		c-3.6,0-5.8,5.3-5.8,12.2c0,6.1,1.7,9.8,4.4,12.3c2.1,2,2.9,3.8,2.9,7.1C332.7,154.2,331.6,156.5,329.7,156.5z"/>
	<path class="st2" d="M348.9,160.7c2.5-3.3,4.1-10.2,4.1-20.1c0-12.1-2.8-21.5-7.6-21.5c-4.6,0-7.8,9.2-7.8,22.2
		c0,8.8,1.5,15.9,4,19.4H348.9z M345.3,125.4c3,0,4.5,7.6,4.5,15.5c0,8.9-1.6,15.8-4.5,15.8c-2.9,0-4.6-6.9-4.6-15.5
		C340.8,132.5,342.3,125.4,345.3,125.4z"/>
	<polygon class="st2" points="365.4,160.7 365.4,155.8 358.6,155.8 358.6,119.8 355.6,119.8 355.6,160.7 	"/>
	<path class="st2" d="M369.8,160.7l1.2-10.5h5.2l1.3,10.5h3.2l-5.1-40.9h-3.8l-5.1,40.9H369.8z M372.8,133.9
		c0.3-2.5,0.5-5.5,0.8-7.9h0c0.2,2.5,0.5,5.4,0.8,7.9l1.3,10.5h-4.2L372.8,133.9z"/>
	<path class="st2" d="M386.2,160.7v-15.9h1.5c1.7,0.1,2.5,1.9,3,7.4c0.3,3.8,0.6,6.7,0.9,8.5h3.1c-0.3-2.3-0.7-6.2-1.1-10.3
		c-0.4-4.1-1.1-7.1-2.3-8.2v-0.2c1.5-1.4,3-5.2,3-10.6c0-3.6-0.5-6.5-1.4-8.5c-1.1-2.4-2.7-3.4-5.1-3.4c-1.7,0-3.4,0.4-4.5,0.9v40.3
		H386.2z M386.2,125.7c0.3-0.2,0.9-0.4,1.9-0.4c2,0,3.2,2.1,3.2,6.8c0,4.2-1.3,7-3.3,7h-1.8V125.7z"/>
</g>
</svg>
