<?xml version="1.0" encoding="utf-8"?>
<!-- Generator: Adobe Illustrator 24.1.2, SVG Export Plug-In . SVG Version: 6.00 Build 0)  -->
<svg version="1.1" id="Camada_1" xmlns="http://www.w3.org/2000/svg" xmlns:xlink="http://www.w3.org/1999/xlink" x="0px" y="0px"
	 viewBox="0 0 587 162.8" style="enable-background:new 0 0 587 162.8;" xml:space="preserve">
<style type="text/css">
	.st0{fill:#1A4082;}
	.st1{fill:#007C3D;}
	.st2{fill:#FCC109;}
</style>
<g>
	<path class="st0" d="M42.1,124.5c0.8,0,1.4,0,2.1,0c1.8,0,3.6,0,5.4,0c0.5,0,0.9,0.1,1.1,0.7c0.3,0.5,0.7,1,1.1,1.5
		c0.8,1.1,1.6,2.2,2.5,3.3c0.9,1.2,1.9,2.5,2.8,3.7c0.7,1,1.4,2,2.1,3c0.6,0.8,1.2,1.6,1.9,2.4c1.2,1.6,2.2,3.4,3,5.2
		c0.1,0.1,0.1,0.2,0.2,0.5c0.1-0.2,0.2-0.4,0.2-0.5c-0.1-0.7,0.1-1.4-0.3-2c-0.1-0.1,0-0.3,0-0.5c0-5.6,0-11.2,0-16.8
		c0-0.1,0-0.2,0-0.3c0.6-0.2,7.1-0.2,8.1-0.1c0.2,0.7,0.3,29.8,0,30.7c-0.2,0-0.4,0.1-0.5,0.1c-2.3,0-4.7,0-7,0
		c-0.5,0-0.8-0.1-1.1-0.5c-0.7-1-1.4-2-2.1-3c-0.4-0.6-0.9-1.1-1.3-1.7c-0.7-1-1.4-2-2.1-3c-0.4-0.5-0.8-1-1.1-1.5
		c-1.3-1.7-2.5-3.5-3.8-5.2c-1.3-1.7-2.1-3.6-3-5.5c0,0-0.1-0.1-0.2-0.1c-0.2,0.4-0.2,0.8,0,1.1c0.3,0.4,0.2,0.7,0.2,1.1
		c0,5.7,0,11.4-0.1,17c0,0.4,0,0.7,0,1.1c-0.5,0.2-7.2,0.3-8.2,0c0-0.2-0.1-0.4-0.1-0.6c0-9.2,0-18.3,0-27.5c0-0.6,0-1.2,0-1.8
		C41.8,125,41.9,124.7,42.1,124.5z"/>
	<path class="st0" d="M18.7,124.5c2.9,0,5.7,0,8.5,0c0.6,0,1.2,0,1.8-0.1c0.3,0,0.5,0.1,0.6,0.4c0.3,1,0.6,1.9,0.9,2.9
		c0.2,0.6,0.5,1.2,0.7,1.8c0.4,1.1,0.7,2.2,1.1,3.2c0.3,0.9,0.6,1.8,1,2.7c0.4,1.2,0.9,2.3,1.3,3.5c0.5,1.3,0.8,2.7,1.3,4
		c0.4,1.3,0.9,2.6,1.4,3.9c0.4,1.2,0.8,2.5,1.2,3.7c0.4,1.2,0.8,2.4,1.2,3.6c0.1,0.4,0.4,0.7,0.2,1.1c-0.6,0.2-7.8,0.2-8.4,0
		c-0.5-1.7-1-3.5-1.4-5.2c-4,0-7.9,0-12,0c-0.5,1.7-1,3.5-1.5,5.3c-2.8,0-5.7,0-8.7,0c0.4-0.9,0.7-1.9,1.1-2.8
		c0.5-1.4,1.1-2.8,1.5-4.2c0.4-1.5,1-3,1.5-4.5c0.5-1.5,1-2.9,1.5-4.4c0.3-0.9,0.6-1.8,0.9-2.6c0.2-0.7,0.4-1.4,0.7-2.1
		c0.3-0.7,0.5-1.4,0.8-2.1c0.2-0.7,0.5-1.4,0.7-2.1c0.3-0.7,0.5-1.5,0.8-2.2c0.2-0.7,0.5-1.5,0.7-2.2
		C18.3,125.6,18.5,125.1,18.7,124.5z M24.3,130.2c-0.1,0-0.1,0-0.2,0c-1.1,4.5-2.6,9-3.9,13.5c0.6,0.2,7.2,0.2,8,0
		c-0.3-0.9-0.5-1.7-0.8-2.6c-0.3-0.8-0.5-1.7-0.8-2.5c-0.2-0.8-0.4-1.5-0.6-2.3c-0.4-1.2-0.8-2.3-1.1-3.5c-0.1-0.4-0.3-0.7-0.3-1.1
		C24.5,131.2,24.4,130.7,24.3,130.2z"/>
	<path class="st0" d="M152.9,124.6c3.5,0,7.1,0,10.8,0c0.2,0.5,0.5,1.1,0.7,1.7c0.3,0.7,0.5,1.4,0.7,2.1c0.4,1,0.7,2,1.1,3.1
		c0.4,1.1,0.8,2.2,1.2,3.4c0.3,0.9,0.6,1.7,0.9,2.6c0.4,1.2,0.8,2.4,1.2,3.5c0.3,0.8,0.6,1.6,0.9,2.4c0.3,0.9,0.6,1.9,0.9,2.8
		c0.4,1.2,0.9,2.4,1.2,3.5c0.3,0.9,0.5,1.8,0.8,2.7c0.2,0.6,0.5,1.2,0.7,1.8c0.1,0.4,0.3,0.8,0.4,1.2c-0.1,0-0.3,0.1-0.4,0.1
		c-2.4,0-4.8,0-7.3,0c-0.9,0-1-0.1-1.1-1c-0.1-0.5-0.3-1-0.5-1.5c-0.3-0.9-0.5-1.8-0.8-2.8c-0.2,0-0.4,0-0.6,0c-3.5,0-7,0-10.4,0
		c-0.8,0-0.8,0-1,0.8c-0.2,0.9-0.6,1.7-0.8,2.5c-0.2,0.6-0.3,1.2-0.4,1.8c-0.6,0.2-6.4,0.3-8.5,0.1c0-0.2-0.1-0.4,0-0.6
		c0.3-0.9,0.7-1.8,1-2.7c0.2-0.6,0.4-1.3,0.7-1.9c0.4-0.7,0.5-1.5,0.8-2.3c0.4-1.3,0.9-2.6,1.3-3.9c0.4-1.1,0.8-2.1,1.1-3.2
		c0.4-1.3,0.8-2.6,1.3-3.9c0.4-1.2,0.9-2.4,1.3-3.7c0.3-0.8,0.5-1.6,0.8-2.4c0.2-0.5,0.4-1.1,0.6-1.6c0.4-1.1,0.8-2.2,1.2-3.3
		C152.6,125.5,152.8,125,152.9,124.6z M158.3,130.4c-1.2,4.5-2.6,8.9-4,13.2c0.6,0.2,7.2,0.3,7.9,0c0.2-0.5-0.1-1-0.2-1.4
		c-0.2-0.8-0.4-1.6-0.7-2.4c-0.3-1.1-0.7-2.1-1.1-3.2c-0.2-0.6-0.4-1.2-0.5-1.8c-0.1-0.9-0.6-1.6-0.7-2.5c-0.1-0.5-0.3-1-0.3-1.5
		C158.7,130.7,158.5,130.6,158.3,130.4z"/>
	<path class="st0" d="M106,124.7c-0.2,0.6-0.3,1.1-0.5,1.6c-0.6,1.3-1.2,2.6-1.7,4c-0.4,1.1-1,2.2-1.5,3.3c-0.3,0.7-0.7,1.4-0.9,2.2
		c-0.1,0.4-0.4,0.7-0.5,1.1c-0.6,1.3-1.2,2.6-1.7,4c-0.5,1.2-1,2.4-1.5,3.6c-0.5,1.1-0.9,2.3-1.4,3.4c-0.7,1.5-1.3,3.1-1.9,4.7
		c-0.3,0.7-0.6,1.5-0.9,2.2c-0.2,0.4-0.5,0.6-1,0.6c-1.8,0-3.5,0-5.3,0c-0.5,0-0.7-0.1-0.9-0.6c-0.6-1.5-1.3-3-1.9-4.5
		c-0.6-1.4-1.3-2.8-1.8-4.3c-0.4-1.2-1-2.3-1.5-3.5c-0.6-1.4-1.1-2.8-1.6-4.2c-0.7-1.6-1.4-3.2-2.1-4.8c-0.6-1.4-1.2-2.9-1.8-4.3
		c-0.5-1.2-1-2.3-1.5-3.5c-0.2-0.3-0.3-0.7-0.4-1.1c3,0,6,0,9,0c0.3,0.8,0.7,1.6,1,2.4c0.4,1.2,0.8,2.4,1.2,3.6
		c0.5,1.3,0.9,2.6,1.4,3.9c0.5,1.3,1,2.5,1.4,3.8c0.3,0.7,0.5,1.4,0.7,2.1c0.1,0.2,0.1,0.4,0.2,0.5c0.3,0.8,0.6,1.6,0.7,2.5
		c0.1,0.4,0.4,0.8,0.3,1.3c0,0.1,0.1,0.2,0.2,0.2c0.1,0,0.2-0.1,0.3-0.1c0.1,0,0.1-0.2,0.1-0.2c0-0.8,0.3-1.5,0.6-2.3
		c0.3-1,0.6-2,1-3c0.3-0.9,0.7-1.8,1-2.7c0.3-0.8,0.5-1.6,0.7-2.3c0.2-0.6,0.5-1.1,0.7-1.7c0.4-1.1,0.8-2.2,1.1-3.3
		c0.3-0.8,0.6-1.6,0.9-2.3c0.2-0.6,0.4-1.3,0.6-1.9c0.1-0.4,0.4-0.6,0.8-0.6c2.7,0,5.5,0,8.2,0C105.8,124.5,105.9,124.6,106,124.7z"
		/>
	<path class="st0" d="M138.4,132.6c-0.4-0.2-0.8-0.3-1-0.5c-0.7-0.7-1.6-1.1-2.6-1.4c-0.9-0.3-1.9-0.6-2.9-0.5
		c-1.2,0.1-2.2,0.5-2.7,1.7c-0.4,0.8-0.2,1.6,0.4,2.3c0.6,0.7,1.4,1.1,2.3,1.4c1.1,0.3,2.3,0.6,3.4,0.9c0.4,0.1,0.9,0.4,1.3,0.5
		c0.9,0.3,1.7,0.7,2.5,1.2c1.3,0.9,2.2,2,2.8,3.5c0.2,0.6,0.1,1.3,0.5,1.8c0.1,0.1,0,0.3,0,0.5c0,0.8,0,1.6,0,2.4c0,0.5,0,1-0.3,1.5
		c-0.2,0.4-0.2,0.8-0.3,1.2c-0.4,1.2-1,2.2-1.7,3.2c-0.6,0.9-1.4,1.5-2.2,2.1c-0.6,0.5-1.5,0.8-2.3,1.1c-0.4,0.2-0.9,0.3-1.4,0.5
		c-0.1,0-0.2,0.1-0.2,0.1c-1,0.1-1.9,0.2-2.9,0.3c-0.6,0-1.2,0-1.8,0c-0.5,0-1,0-1.5-0.2c-0.6-0.2-1.3-0.2-2-0.4
		c-0.7-0.2-1.3-0.5-2-0.8c-1.3-0.6-2.5-1.3-3.5-2.3c-0.2-0.2-0.4-0.3-0.6-0.4c-0.4-0.2-0.4-0.5-0.2-0.9c0.6-1,1.2-2,1.8-3
		c0.6-1,1.2-2,1.8-3c0.4,0.4,0.8,0.8,1.2,1.2c0.7,0.8,1.5,1.3,2.4,1.8c0.6,0.4,1.2,0.8,2,1c0.1,0,0.3,0.1,0.4,0.1
		c0.7-0.1,1.5,0.1,2.2,0.1c1.2,0,2.7-1.3,2.9-2.4c0.2-0.9,0.1-1.9-0.6-2.7c-0.8-0.9-1.8-1.2-2.8-1.5c-2.2-0.7-4.4-1.2-6.4-2.4
		c-0.9-0.6-1.8-1.2-2.4-2.2c-0.5-0.8-0.6-1.7-1-2.5c-0.1-0.1,0-0.3,0-0.4c0-0.9,0-1.8,0-2.7c0-2.3,0.9-4.1,2.4-5.8
		c1.1-1.2,2.5-2.1,4-2.7c0.6-0.2,1.2-0.5,1.8-0.4c1.3-0.6,2.6-0.2,3.9-0.3c0.3,0,0.5,0.1,0.8,0.1c0.2,0,0.3,0.1,0.5,0.1
		c1.4,0.1,2.6,0.5,3.9,1.1c0.8,0.3,1.5,0.8,2.2,1.2c0.5,0.3,0.5,0.4,0.3,0.9c-0.7,1.6-1.4,3.2-2.1,4.7
		C138.6,132,138.5,132.3,138.4,132.6z"/>
	<path class="st0" d="M116.2,155.4c-2.8,0-5.6,0-8.4,0c0-10.3,0-20.5,0-30.8c2.8,0,5.6,0,8.4,0C116.4,125.4,116.4,154.4,116.2,155.4
		z"/>
	<polygon class="st1" points="65.1,8 65.1,34.1 28.1,34.1 28.1,41.2 72.2,41.2 72.2,41.2 72.2,34.1 72.2,8 	"/>
	<polygon class="st1" points="119.4,8 119.4,34.1 156.5,34.1 156.5,41.2 112.4,41.2 112.4,41.2 112.4,34.1 112.4,8 	"/>
	<polygon class="st1" points="65.1,116.7 65.1,81.3 28.1,81.3 28.1,74.2 72.2,74.2 72.2,74.3 72.2,81.3 72.2,116.7 	"/>
	<polygon class="st1" points="119.4,116.7 119.4,81.3 156.5,81.3 156.5,74.2 112.4,74.2 112.4,74.3 112.4,81.3 112.4,116.7 	"/>
	<circle class="st0" cx="92.1" cy="58.1" r="9.6"/>
	<path class="st2" d="M163.8,63.5c0,0-4.9,32.9-45.2,23.7S60.8,58.6,61,54.7c0,0-4.3,23.6,26.7,34.2s57.9,3.5,67.3-5.8
		C164.4,73.8,164.6,68.5,163.8,63.5z"/>
	<path class="st2" d="M18.4,51.6c0,0,4.9-32.9,45.2-23.7s57.7,28.6,57.5,32.5c0,0,4.3-23.6-26.7-34.2S36.6,22.8,27.2,32
		S17.6,46.6,18.4,51.6z"/>
</g>
<g>
	<path class="st0" d="M245.4,76.2c-1.5-0.8-2.6-1.9-3.4-3.3c-0.8-1.4-1.2-3-1.2-4.7c0-1.8,0.4-3.3,1.2-4.7c0.8-1.4,2-2.5,3.4-3.3
		c1.5-0.8,3.1-1.2,4.9-1.2c1.5,0,2.8,0.3,4,0.8c1.2,0.5,2.2,1.2,3.1,2.2l-2.1,2c-1.3-1.4-2.9-2.1-4.8-2.1c-1.2,0-2.3,0.3-3.3,0.8
		c-1,0.5-1.7,1.3-2.3,2.2s-0.8,2-0.8,3.2c0,1.2,0.3,2.3,0.8,3.2c0.5,1,1.3,1.7,2.3,2.2c1,0.5,2.1,0.8,3.3,0.8c1.9,0,3.5-0.7,4.8-2.1
		l2.1,2c-0.8,1-1.9,1.7-3.1,2.2c-1.2,0.5-2.6,0.8-4,0.8C248.5,77.3,246.9,77,245.4,76.2z"/>
	<path class="st0" d="M273.5,74.3v2.8h-13.4V59.2h13V62h-9.7v4.6h8.6v2.7h-8.6v4.9H273.5z"/>
	<path class="st0" d="M288.3,77.1l-3.6-5.2c-0.2,0-0.4,0-0.7,0h-4v5.2h-3.3V59.2h7.3c1.5,0,2.9,0.3,4,0.8c1.1,0.5,2,1.2,2.6,2.2
		s0.9,2.1,0.9,3.4c0,1.3-0.3,2.5-1,3.5c-0.7,1-1.6,1.7-2.8,2.2l4.1,5.9H288.3z M287.1,63c-0.7-0.6-1.8-0.9-3.3-0.9H280v7.1h3.9
		c1.4,0,2.5-0.3,3.3-0.9c0.7-0.6,1.1-1.5,1.1-2.6C288.3,64.5,287.9,63.6,287.1,63z"/>
	<path class="st0" d="M298.2,62.1h-5.9v-2.8h15.1v2.8h-5.9v15h-3.3V62.1z"/>
	<path class="st0" d="M309.4,59.2h3.3v17.8h-3.3V59.2z"/>
	<path class="st0" d="M320.3,62v5.4h8.6v2.8h-8.6v6.8H317V59.2h13V62H320.3z"/>
	<path class="st0" d="M332.7,59.2h3.3v17.8h-3.3V59.2z"/>
	<path class="st0" d="M343.7,76.2c-1.5-0.8-2.6-1.9-3.4-3.3c-0.8-1.4-1.2-3-1.2-4.7c0-1.8,0.4-3.3,1.3-4.7c0.8-1.4,2-2.5,3.4-3.3
		c1.5-0.8,3.1-1.2,4.9-1.2c1.5,0,2.8,0.3,4,0.8c1.2,0.5,2.2,1.2,3.1,2.2l-2.1,2c-1.3-1.4-2.9-2.1-4.8-2.1c-1.2,0-2.3,0.3-3.3,0.8
		c-1,0.5-1.7,1.3-2.3,2.2s-0.8,2-0.8,3.2c0,1.2,0.3,2.3,0.8,3.2c0.5,1,1.3,1.7,2.3,2.2c1,0.5,2.1,0.8,3.3,0.8c1.9,0,3.5-0.7,4.8-2.1
		l2.1,2c-0.8,1-1.9,1.7-3.1,2.2c-1.2,0.5-2.6,0.8-4,0.8C346.8,77.3,345.2,77,343.7,76.2z"/>
	<path class="st0" d="M369.5,73h-8.9l-1.8,4.1h-3.4l8-17.8h3.3l8.1,17.8h-3.5L369.5,73z M368.5,70.4l-3.4-7.8l-3.3,7.8H368.5z"/>
	<path class="st0" d="M379.7,76.2c-1.5-0.8-2.6-1.9-3.4-3.3c-0.8-1.4-1.2-3-1.2-4.7c0-1.8,0.4-3.3,1.3-4.7c0.8-1.4,2-2.5,3.4-3.3
		c1.5-0.8,3.1-1.2,4.9-1.2c1.5,0,2.8,0.3,4,0.8c1.2,0.5,2.2,1.2,3.1,2.2l-2.1,2c-1.3-1.4-2.9-2.1-4.8-2.1c-1.2,0-2.3,0.3-3.3,0.8
		c-1,0.5-1.7,1.3-2.3,2.2s-0.8,2-0.8,3.2c0,1.2,0.3,2.3,0.8,3.2c0.5,1,1.3,1.7,2.3,2.2c1,0.5,2.1,0.8,3.3,0.8c1.9,0,3.5-0.7,4.8-2.1
		l2.1,2c-0.8,1-1.9,1.7-3.1,2.2c-1.2,0.5-2.6,0.8-4,0.8C382.8,77.3,381.1,77,379.7,76.2z M381,82.4l0.6-1.5c0.5,0.3,1.1,0.4,1.7,0.4
		c0.9,0,1.4-0.3,1.4-0.9c0-0.3-0.1-0.5-0.3-0.6s-0.6-0.2-1-0.2h-0.8l0.7-2.6h1.7l-0.4,1.4c0.7,0.1,1.3,0.3,1.7,0.7
		c0.4,0.4,0.6,0.9,0.6,1.4c0,0.7-0.3,1.3-0.9,1.8s-1.5,0.7-2.5,0.7C382.4,82.9,381.7,82.7,381,82.4z"/>
	<path class="st0" d="M405.5,73h-8.9l-1.8,4.1h-3.4l8-17.8h3.3l8.1,17.8h-3.5L405.5,73z M401.8,57.5c-0.3-0.2-0.7-0.4-1.2-0.8
		c-0.3-0.2-0.5-0.4-0.7-0.5c-0.2-0.1-0.4-0.2-0.5-0.2c-0.4,0-0.7,0.1-0.9,0.4c-0.2,0.3-0.4,0.6-0.4,1.1h-1.7c0-1,0.3-1.9,0.8-2.5
		c0.5-0.6,1.2-0.9,2-0.9c0.4,0,0.8,0.1,1.1,0.3s0.7,0.4,1.2,0.8c0.3,0.2,0.5,0.4,0.7,0.5c0.2,0.1,0.4,0.2,0.5,0.2
		c0.4,0,0.6-0.1,0.9-0.4s0.4-0.6,0.4-1.1h1.7c0,1-0.3,1.8-0.8,2.4c-0.5,0.6-1.1,0.9-2,0.9C402.5,57.8,402.1,57.7,401.8,57.5z
		 M404.4,70.4l-3.4-7.8l-3.3,7.8H404.4z"/>
	<path class="st0" d="M415.7,76.2c-1.5-0.8-2.6-1.9-3.4-3.3c-0.8-1.4-1.3-3-1.3-4.7c0-1.7,0.4-3.3,1.3-4.7c0.8-1.4,2-2.5,3.4-3.3
		c1.5-0.8,3.1-1.2,4.9-1.2s3.5,0.4,4.9,1.2c1.5,0.8,2.6,1.9,3.4,3.3c0.8,1.4,1.2,3,1.2,4.7c0,1.8-0.4,3.3-1.2,4.7
		c-0.8,1.4-2,2.5-3.4,3.3c-1.5,0.8-3.1,1.2-4.9,1.2S417.1,77,415.7,76.2z M423.8,73.6c1-0.5,1.7-1.3,2.2-2.2c0.5-1,0.8-2,0.8-3.2
		c0-1.2-0.3-2.3-0.8-3.2s-1.3-1.7-2.2-2.2c-1-0.5-2-0.8-3.2-0.8s-2.3,0.3-3.2,0.8c-1,0.5-1.7,1.3-2.2,2.2s-0.8,2-0.8,3.2
		c0,1.2,0.3,2.3,0.8,3.2c0.5,1,1.3,1.7,2.2,2.2c1,0.5,2,0.8,3.2,0.8S422.9,74.2,423.8,73.6z"/>
	<path class="st0" d="M451.3,73h-8.9l-1.8,4.1h-3.4l8-17.8h3.3l8.1,17.8h-3.5L451.3,73z M450.2,70.4l-3.4-7.8l-3.3,7.8H450.2z"/>
	<path class="st0" d="M474.2,59.2v17.8h-2.7L461.6,65v12.1h-3.3V59.2h2.7l9.8,12.1V59.2H474.2z"/>
	<path class="st0" d="M494.7,59.2l-7.8,17.8h-3.3l-7.8-17.8h3.6l5.9,13.8l6-13.8H494.7z"/>
	<path class="st0" d="M496,59.2h3.3v17.8H496V59.2z"/>
	<path class="st0" d="M505.2,76.8c-1.3-0.4-2.3-0.9-3-1.6l1.1-2.6c0.7,0.6,1.6,1,2.7,1.4c1.1,0.4,2.1,0.5,3.2,0.5
		c1.3,0,2.3-0.2,3-0.6c0.7-0.4,1-1,1-1.7c0-0.5-0.2-0.9-0.5-1.3c-0.4-0.3-0.8-0.6-1.4-0.8s-1.3-0.4-2.3-0.6c-1.4-0.3-2.5-0.6-3.3-1
		c-0.8-0.3-1.6-0.8-2.2-1.5c-0.6-0.7-0.9-1.6-0.9-2.8c0-1,0.3-1.9,0.8-2.7s1.3-1.4,2.4-1.9s2.4-0.7,4-0.7c1.1,0,2.2,0.1,3.2,0.4
		c1.1,0.3,2,0.7,2.7,1.2l-1,2.6c-0.8-0.5-1.6-0.8-2.4-1c-0.9-0.2-1.7-0.4-2.5-0.4c-1.3,0-2.3,0.2-2.9,0.7c-0.6,0.4-1,1-1,1.8
		c0,0.5,0.2,0.9,0.5,1.2c0.4,0.3,0.8,0.6,1.4,0.8s1.3,0.4,2.3,0.6c1.3,0.3,2.4,0.6,3.3,1c0.8,0.3,1.6,0.8,2.2,1.5
		c0.6,0.7,0.9,1.6,0.9,2.8c0,1-0.3,1.9-0.8,2.7c-0.5,0.8-1.3,1.4-2.4,1.9c-1.1,0.5-2.4,0.7-4,0.7C507.8,77.3,506.5,77.2,505.2,76.8z
		"/>
	<path class="st0" d="M530.7,73h-8.9l-1.8,4.1h-3.4l8-17.8h3.3l8.1,17.8h-3.5L530.7,73z M529.7,70.4l-3.4-7.8l-3.3,7.8H529.7z"/>
	<path class="st0" d="M544.3,59.2h7.8c1.9,0,3.6,0.4,5.1,1.1s2.6,1.8,3.4,3.1s1.2,2.9,1.2,4.7c0,1.8-0.4,3.3-1.2,4.7s-2,2.4-3.4,3.1
		s-3.2,1.1-5.1,1.1h-7.8V59.2z M551.9,74.3c1.3,0,2.5-0.3,3.5-0.8c1-0.5,1.8-1.2,2.3-2.1c0.5-0.9,0.8-2,0.8-3.2
		c0-1.2-0.3-2.3-0.8-3.2s-1.3-1.6-2.3-2.1c-1-0.5-2.1-0.8-3.5-0.8h-4.3v12.2H551.9z"/>
	<path class="st0" d="M578.2,74.3v2.8h-13.4V59.2h13V62h-9.7v4.6h8.6v2.7h-8.6v4.9H578.2z"/>
	<path class="st0" d="M257.1,100c0.6,0.8,0.9,1.7,0.9,2.8c0,1.5-0.6,2.7-1.8,3.6s-2.9,1.3-5.2,1.3h-8.9V89.8h8.4
		c2.1,0,3.7,0.4,4.9,1.2s1.7,2,1.7,3.4c0,0.9-0.2,1.7-0.6,2.3s-1,1.2-1.7,1.6C255.7,98.7,256.5,99.3,257.1,100z M245.4,92.4v4.9h4.7
		c1.2,0,2-0.2,2.7-0.6c0.6-0.4,0.9-1,0.9-1.8c0-0.8-0.3-1.4-0.9-1.8c-0.6-0.4-1.5-0.6-2.7-0.6H245.4z M254.6,102.5
		c0-1.7-1.3-2.6-3.8-2.6h-5.4v5.1h5.4C253.3,105.1,254.6,104.2,254.6,102.5z"/>
	<path class="st0" d="M264.4,106.7c-1.5-0.8-2.6-1.9-3.4-3.3c-0.8-1.4-1.2-3-1.2-4.7c0-1.7,0.4-3.3,1.2-4.7c0.8-1.4,2-2.5,3.4-3.3
		c1.5-0.8,3.1-1.2,4.9-1.2s3.5,0.4,4.9,1.2c1.5,0.8,2.6,1.9,3.4,3.3c0.8,1.4,1.2,3,1.2,4.7c0,1.8-0.4,3.3-1.2,4.7
		c-0.8,1.4-2,2.5-3.4,3.3c-1.5,0.8-3.1,1.2-4.9,1.2S265.8,107.5,264.4,106.7z M272.5,104.2c1-0.5,1.7-1.3,2.2-2.2
		c0.5-1,0.8-2,0.8-3.2c0-1.2-0.3-2.3-0.8-3.2c-0.5-1-1.3-1.7-2.2-2.2c-1-0.5-2-0.8-3.2-0.8s-2.3,0.3-3.2,0.8c-1,0.5-1.7,1.3-2.2,2.2
		s-0.8,2-0.8,3.2c0,1.2,0.3,2.3,0.8,3.2c0.5,1,1.3,1.7,2.2,2.2c1,0.5,2,0.8,3.2,0.8S271.6,104.8,272.5,104.2z"/>
	<path class="st0" d="M293.2,103.6h-8.9l-1.8,4.1h-3.4l8-17.8h3.3l8.1,17.8H295L293.2,103.6z M292.1,100.9l-3.4-7.8l-3.3,7.8H292.1z
		"/>
	<path class="st0" d="M301.8,107.3c-1.3-0.4-2.3-0.9-3-1.6l1.1-2.6c0.7,0.6,1.6,1,2.7,1.4s2.1,0.5,3.2,0.5c1.3,0,2.3-0.2,3-0.6
		c0.7-0.4,1-1,1-1.7c0-0.5-0.2-0.9-0.5-1.3c-0.4-0.3-0.8-0.6-1.4-0.8s-1.3-0.4-2.3-0.6c-1.4-0.3-2.5-0.6-3.3-1
		c-0.8-0.3-1.6-0.8-2.2-1.5c-0.6-0.7-0.9-1.6-0.9-2.8c0-1,0.3-1.9,0.8-2.7s1.3-1.4,2.4-1.9c1.1-0.5,2.4-0.7,4-0.7
		c1.1,0,2.2,0.1,3.2,0.4c1.1,0.3,2,0.7,2.7,1.2l-1,2.6c-0.8-0.5-1.6-0.8-2.4-1c-0.8-0.2-1.7-0.4-2.5-0.4c-1.3,0-2.3,0.2-2.9,0.7
		c-0.6,0.4-1,1-1,1.8c0,0.5,0.2,0.9,0.5,1.2c0.4,0.3,0.8,0.6,1.4,0.8s1.3,0.4,2.3,0.6c1.3,0.3,2.4,0.6,3.3,1
		c0.8,0.3,1.6,0.8,2.2,1.5c0.6,0.7,0.9,1.6,0.9,2.8c0,1-0.3,1.9-0.8,2.7c-0.5,0.8-1.3,1.4-2.4,1.9s-2.4,0.7-4,0.7
		C304.4,107.9,303.1,107.7,301.8,107.3z"/>
	<path class="st0" d="M333.7,90.6c1.1,0.5,2,1.2,2.6,2.2c0.6,1,0.9,2.1,0.9,3.4c0,1.3-0.3,2.4-0.9,3.4c-0.6,1-1.5,1.7-2.6,2.2
		c-1.1,0.5-2.5,0.8-4,0.8h-4v5.1h-3.3V89.8h7.3C331.2,89.8,332.5,90.1,333.7,90.6z M332.8,98.8c0.7-0.6,1.1-1.5,1.1-2.6
		c0-1.1-0.4-2-1.1-2.6c-0.7-0.6-1.8-0.9-3.3-0.9h-3.9v7.1h3.9C330.9,99.7,332,99.4,332.8,98.8z"/>
	<path class="st0" d="M351.7,107.7l-3.6-5.2c-0.2,0-0.4,0-0.7,0h-4v5.2H340V89.8h7.3c1.5,0,2.9,0.3,4,0.8c1.1,0.5,2,1.2,2.6,2.2
		c0.6,1,0.9,2.1,0.9,3.4c0,1.3-0.3,2.5-1,3.5c-0.7,1-1.6,1.7-2.8,2.2l4.1,5.9H351.7z M350.5,93.6c-0.7-0.6-1.8-0.9-3.3-0.9h-3.9v7.1
		h3.9c1.4,0,2.5-0.3,3.3-0.9c0.7-0.6,1.1-1.5,1.1-2.6C351.6,95,351.3,94.2,350.5,93.6z"/>
	<path class="st0" d="M369.7,103.6h-8.9l-1.8,4.1h-3.4l8-17.8h3.3l8.1,17.8h-3.5L369.7,103.6z M368.6,100.9l-3.4-7.8l-3.3,7.8H368.6
		z M366.6,84.9h3.7l-4.4,3.5h-2.8L366.6,84.9z"/>
	<path class="st0" d="M379.5,92.6h-5.9v-2.8h15.1v2.8h-5.9v15h-3.3V92.6z"/>
	<path class="st0" d="M390.7,89.8h3.3v17.8h-3.3V89.8z"/>
	<path class="st0" d="M401.7,106.7c-1.5-0.8-2.6-1.9-3.4-3.3c-0.8-1.4-1.2-3-1.2-4.7c0-1.8,0.4-3.3,1.3-4.7c0.8-1.4,2-2.5,3.4-3.3
		c1.5-0.8,3.1-1.2,4.9-1.2c1.5,0,2.8,0.3,4,0.8c1.2,0.5,2.2,1.2,3.1,2.2l-2.1,2c-1.3-1.4-2.9-2.1-4.8-2.1c-1.2,0-2.3,0.3-3.3,0.8
		c-1,0.5-1.7,1.3-2.3,2.2s-0.8,2-0.8,3.2c0,1.2,0.3,2.3,0.8,3.2c0.5,1,1.3,1.7,2.3,2.2c1,0.5,2.1,0.8,3.3,0.8c1.9,0,3.5-0.7,4.8-2.1
		l2.1,2c-0.8,1-1.9,1.7-3.1,2.2c-1.2,0.5-2.6,0.8-4,0.8C404.8,107.9,403.1,107.5,401.7,106.7z"/>
	<path class="st0" d="M427.5,103.6h-8.9l-1.8,4.1h-3.4l8-17.8h3.3l8.1,17.8h-3.5L427.5,103.6z M426.4,100.9l-3.4-7.8l-3.3,7.8H426.4
		z"/>
	<path class="st0" d="M436.1,107.3c-1.3-0.4-2.3-0.9-3-1.6l1.1-2.6c0.7,0.6,1.6,1,2.7,1.4c1.1,0.4,2.1,0.5,3.2,0.5
		c1.3,0,2.3-0.2,3-0.6c0.7-0.4,1-1,1-1.7c0-0.5-0.2-0.9-0.5-1.3c-0.4-0.3-0.8-0.6-1.4-0.8s-1.3-0.4-2.3-0.6c-1.4-0.3-2.5-0.6-3.3-1
		c-0.8-0.3-1.6-0.8-2.2-1.5c-0.6-0.7-0.9-1.6-0.9-2.8c0-1,0.3-1.9,0.8-2.7s1.3-1.4,2.4-1.9s2.4-0.7,4-0.7c1.1,0,2.2,0.1,3.2,0.4
		c1.1,0.3,2,0.7,2.7,1.2l-1,2.6c-0.8-0.5-1.6-0.8-2.4-1c-0.9-0.2-1.7-0.4-2.5-0.4c-1.3,0-2.3,0.2-2.9,0.7c-0.6,0.4-1,1-1,1.8
		c0,0.5,0.2,0.9,0.5,1.2c0.4,0.3,0.8,0.6,1.4,0.8s1.3,0.4,2.3,0.6c1.3,0.3,2.4,0.6,3.3,1c0.8,0.3,1.6,0.8,2.2,1.5
		c0.6,0.7,0.9,1.6,0.9,2.8c0,1-0.3,1.9-0.8,2.7c-0.5,0.8-1.3,1.4-2.4,1.9c-1.1,0.5-2.4,0.7-4,0.7
		C438.7,107.9,437.3,107.7,436.1,107.3z"/>
	<path class="st0" d="M449.8,107.3c-0.4-0.4-0.6-0.9-0.6-1.5c0-0.6,0.2-1.1,0.6-1.5c0.4-0.4,0.9-0.6,1.5-0.6s1.1,0.2,1.5,0.6
		c0.4,0.4,0.6,0.9,0.6,1.5c0,0.6-0.2,1.1-0.6,1.5c-0.4,0.4-0.9,0.6-1.5,0.6C450.7,107.9,450.2,107.7,449.8,107.3z"/>
</g>
</svg>
