<?xml version="1.0" encoding="utf-8"?>
<!-- Generator: Adobe Illustrator 24.1.2, SVG Export Plug-In . SVG Version: 6.00 Build 0)  -->
<svg version="1.1" id="Camada_1" xmlns="http://www.w3.org/2000/svg" xmlns:xlink="http://www.w3.org/1999/xlink" x="0px" y="0px"
	 viewBox="0 0 245 141.2" style="enable-background:new 0 0 245 141.2;" xml:space="preserve">
<style type="text/css">
	.st0{fill:#007AC0;}
</style>
<path class="st0" d="M123.1,141.2c-4.6,0-9.3-1-12-2.4L6.4,78.5c-3.5-2-6.4-4.1-6.4-9.1V58.9h3.6v10.5c0,3,1.5,4.2,4.6,6l104.6,60.2
	c4.5,2.4,14.6,2.8,18.8,0.1l0.1-0.1l105.6-61c1.5-0.9,4-2.8,4-5.5V58.5h3.6v10.6c0,3.3-2.1,6.4-5.8,8.6l-105.6,61
	C130.9,140.5,127,141.2,123.1,141.2L123.1,141.2z"/>
<path class="st0" d="M138.9,46.1c-1.2,0-2.4-0.3-3.3-0.8l-1.1-0.6c-1.8-1-3.5-2.1-5.3-3.1c-3.4-2-6.5-3.9-9.9-5.6l-0.2-0.1
	c-0.6-0.4-2.2-1.6-2.2-3.9v-9.8h3.6v9.8c0,0.2,0,0.4,0.7,1c3.4,1.8,6.7,3.7,9.9,5.6c1.7,1,3.4,2,5.2,3l1,0.6c0.8,0.5,2.4,0.5,3.2,0
	c0.5-0.3,0.5-0.6,0.5-0.9V36l0.9-1.6l13.1-7.4c4-2,8.8-2,12.5,0l19.7,11.4l-1.8,3.1l-19.6-11.3c-2.6-1.4-6.2-1.4-9.1,0L144.7,37v4.2
	c0,1.7-0.8,3.1-2.3,4C141.3,45.8,140.1,46.1,138.9,46.1L138.9,46.1z"/>
<polygon class="st0" points="168.5,70.8 166.7,67.7 201.5,47.6 203.3,47.6 228.7,62.2 226.9,65.4 202.4,51.2 168.5,70.8 "/>
<path class="st0" d="M165,71.6c-0.2,0-0.4,0-0.6,0c-3-0.2-5-2.1-5.2-4.7v-0.1V59l-8.7-5.1c-1.5-0.8-2.4-2.2-2.4-4V39.8h3.6v10.1
	c0,0.5,0.1,0.7,0.5,0.9l9.7,5.6l0.9,1.6v8.8c0.1,1.1,1.4,1.3,1.9,1.3c0.8,0.1,1.6-0.1,2.3-0.5l33.6-19.4v-9.6h3.6v10.6l-0.9,1.6
	l-34.5,20C167.6,71.3,166.3,71.6,165,71.6L165,71.6z"/>
<polygon class="st0" points="168.4,60.2 165.6,58.8 167.4,58.7 166.4,57.3 166.7,57.1 192.3,42.3 194.1,45.4 168.4,60.2 "/>
<path class="st0" d="M166.1,100.4l-0.9-0.5c-9.8-5.8-19.9-11.9-30.2-17.5l-2.6-1.4c-1.5-0.9-2.3-2-2.6-3.7l0-0.3V66.3h3.6v10.4
	c0.1,0.6,0.3,0.8,0.8,1.1l2.5,1.4c10.4,5.6,20.5,11.7,30.3,17.6l0.9,0.5L166.1,100.4L166.1,100.4z"/>
<path class="st0" d="M71,96.2l-1.8-3.1L114,67.3l1.8,0l3.4,1.9c0.9,0.5,2.4,0.5,3.2,0c0.5-0.3,0.5-0.6,0.5-0.9v-9.9h3.6v9.9
	c0,1.7-0.8,3.1-2.3,4c-1.9,1.1-4.7,1.2-6.8,0l-2.5-1.4L71,96.2L71,96.2z"/>
<path class="st0" d="M78.7,30.6l-1.8-3.1l16.6-9.5l1.8,0l7.7,4.5c0.9,0.5,2.4,0.5,3.2,0c0.4-0.3,0.7-0.6,0.7-1.1l3.6,0.2
	c-0.1,1.7-1,3.1-2.5,3.9c-1.9,1.1-4.7,1.1-6.7,0l-6.9-4L78.7,30.6L78.7,30.6z"/>
<path class="st0" d="M106.4,15.5l-0.4-3.6c0,0,0,0,0,0l0.7-0.4c0,0-0.1,0-0.1,0.1l2.8,2.3c-0.4,0.5-0.8,0.8-1.3,1
	C107.6,15.2,107.1,15.4,106.4,15.5L106.4,15.5z"/>
<path class="st0" d="M17.9,65.7l-1.8-3.1l45-25.9h1.8l29.4,17.1c0.9,0.5,2.4,0.5,3.2,0c0.5-0.3,0.7-0.7,0.7-1V42.2h3.6l0,10.8
	c-0.1,1.7-1,3.1-2.5,3.9c-1.9,1.1-4.7,1.1-6.7,0L62,40.3L17.9,65.7L17.9,65.7z"/>
<polygon class="st0" points="71,96.2 69.2,93.1 113.1,67.8 113.1,58.1 116.7,58.1 116.7,68.8 115.8,70.4 71,96.2 "/>
<polygon class="st0" points="78.7,30.6 76.9,27.4 92.6,18.4 92.6,8.8 96.2,8.8 96.2,19.5 95.3,21 78.7,30.6 "/>
<polygon class="st0" points="18.1,65.7 16.3,62.6 60.2,37.2 60.2,27.6 63.8,27.6 63.8,38.2 62.9,39.8 18.1,65.7 "/>
<polygon class="st0" points="143.8,37.6 141.1,36 141.1,31.2 144.7,31.2 144.7,32.9 155,27 156.8,30.2 143.8,37.6 "/>
<polygon class="st0" points="152.5,70.1 152,69.8 152.5,69.5 152.5,70.1 "/>
<polygon class="st0" points="2.2,64.4 2,64.2 4.2,61.4 4.5,61.6 2.2,64.4 "/>
<path class="st0" d="M117.9,27.2c-1.2-0.7-2.3-1.3-3.4-2c-2.3-1.3-4.5-2.6-6.6-3.8l1.8-3.1c2.1,1.3,4.3,2.5,6.5,3.8
	c1.2,0.7,2.3,1.3,3.5,2L117.9,27.2L117.9,27.2z"/>
<polygon class="st0" points="166.5,52.5 150.5,43.3 152.3,40.2 168.3,49.4 166.5,52.5 "/>
<polygon class="st0" points="106.9,56.1 102.9,56.1 102.9,51.3 106.9,51.3 106.9,56.1 "/>
<polygon class="st0" points="110.6,21.4 106.9,21.4 106.9,11.2 110.6,11.2 110.6,21.4 "/>
<polygon class="st0" points="156,73.1 152.4,73.1 152.4,64.8 156,64.8 156,73.1 "/>
<polygon class="st0" points="162.8,27.3 159.2,27.3 159.2,16.7 162.8,16.7 162.8,27.3 "/>
<polygon class="st0" points="169,69.4 165.4,69.4 165.4,58.8 169,58.8 169,69.4 "/>
<polygon class="st0" points="130.2,65.1 130.2,65 133.8,65 130.2,65.1 "/>
<polygon class="st0" points="125.9,139.6 122.3,139.6 122.3,129 125.9,129 125.9,139.6 "/>
<polygon class="st0" points="169.2,58.8 165.6,58.8 169.2,58.7 169.2,58.8 "/>
<polygon class="st0" points="159.6,57.5 159.6,57.4 163.2,57.4 159.6,57.5 "/>
<polygon class="st0" points="163.2,55 159.6,55 159.6,54.8 163.2,54.8 163.2,55 "/>
<path class="st0" d="M122.4,130.7c-4,0-8.1-0.9-11.3-2.6C76.7,108.3,43.1,89,9.7,69.6l-4.1-2.2C2,65.3,0,62.1,0,58.7
	c0-3.3,2-6.4,5.6-8.5L91,0.9c2-1.2,4.7-1.2,6.7,0l10.2,5.9c2.3,1.2,2.7,2.9,2.7,3.8c0,1.7-1,3.4-2.8,4.4c-2.1,1.2-4.6,1.1-6.6-0.2
	l-6.7-3.9L72.2,23.7c7.2,4.2,14.4,8.4,21.6,12.5l3.4,2c2.4,1.3,3.2,3.8,2,6.1c-1.2,2.4-4.7,3.9-8.6,2l-0.1-0.1
	c-3.1-1.8-6.2-3.6-9.3-5.4c-6.3-3.7-12.8-7.4-19.2-11.2L12.5,58.2c-0.4,0.3-0.7,0.5-0.9,0.6c0.5,0.4,1.4,0.9,2.2,1.3
	c0.5,0.3,1,0.6,1.6,0.9l38.8,22.3l50.5-29.2c-1.5-1.3-2-3.4-1-5.3c1.3-2.5,4.7-4,8.7-2.2l0.1,0.1l11.9,6.9c2.9,2.2,2.6,4.8,1.5,6.4
	c-1.6,2.3-5.6,3.4-8.4,1.6l-2.5-1.5c-9.6,5.5-19.1,11-28.6,16.5c-7.3,4.2-14.6,8.5-22,12.7c9.8,5.7,19.7,11.4,29.4,16.9
	c8,4.6,16,9.2,24.1,13.8c2.3,1.4,6.8,1.4,9.1,0l39.3-22.8l6.5-3.7c-11.6-6.8-24.1-14-40.1-23.3c-1.7-0.8-2.6-2.2-2.7-3.7
	c0-1.8,1.2-3.6,3.1-4.6c2.1-1.1,4.4-1,6.2,0.3l2.4,1.4l5.3-3c1.9-1.2,4.2-1.2,6.6-0.1l0.1,0c1.5,0.8,2.4,2.1,2.5,3.6
	c0.1,1.6-0.8,3.3-2.3,4.4l-0.1,0.1l-1.6,0.9l31,17.9L232.4,59c0.5-0.3,0.6-0.5,0.7-0.6c-0.1-0.1-0.3-0.3-0.7-0.5l-30.1-17.3
	l-34,19.6c-1.8,1-4.2,1-6.3-0.2c-1.8-1-2.8-2.6-2.8-4.2c0-0.9,0.3-2.5,2.5-3.7l2-1.1l-13.3-7.6c-2-1-3-2.9-2.5-4.8
	c0.6-2.4,3-4.1,5.9-4.1c1.1,0,2.3,0.3,3.2,0.8L174,45c1.8-1,3.7-2.1,5.5-3.1c4.1-2.3,8.3-4.7,12.5-7.2l-26.9-15.5
	c-2.3-1.2-5.5-1.1-7.7,0l-14.2,8.1c0.9,0.8,1.5,1.9,1.6,3.1c0.1,1.6-0.7,3.2-2.1,4.1c-1.2,0.8-3.8,1.8-8.1-0.3l-0.1-0.1
	c-2.9-1.7-5.4-3.1-7.5-4.5c-2.3-1.3-5-2.9-7.6-4.2l-0.1,0c-2.3-1.4-3-3.8-1.9-6c1.3-2.4,4.8-4,8.7-2.1l0.1,0.1l6.8,4l16.8-9.8
	c3.1-1.8,7.3-2.8,11.4-2.8c2.2,0,4.2,0.3,6,0.7c2.3,0.5,4,1.3,5.4,2.1l66.6,38.4c4.8,2.8,5.8,6.1,5.9,8.4c0,3.3-2.2,6.6-5.8,8.8
	c-13.9,8.1-28.1,16.3-41.8,24.2c-6.8,3.9-13.6,7.8-20.3,11.7l-2.3,1.4l-41.2,23.7C130.5,129.8,126.5,130.7,122.4,130.7L122.4,130.7z
	 M7.4,64.3l4,2.2c33.4,19.3,67,38.7,101.4,58.5c5.3,2.8,14,2.8,18.9,0l43.5-25.1c6.8-3.9,13.6-7.8,20.4-11.7
	c13.7-7.9,27.9-16,41.7-24.1c2.6-1.5,4.1-3.7,4.1-5.7c0-2-1.4-3.8-4.1-5.4l-66.6-38.4c-1.6-0.9-2.9-1.4-4.4-1.7
	c-1.6-0.4-3.3-0.6-5.2-0.6c-3.4,0-6.9,0.8-9.5,2.3l-18.6,10.8l-8.5-5c-2-0.9-3.5-0.2-3.9,0.6c-0.1,0.2-0.3,0.7,0.5,1.2
	c2.6,1.4,5.3,2.9,7.7,4.3c2.2,1.4,4.6,2.8,7.4,4.4c2.8,1.4,4.2,0.8,4.5,0.5c0.3-0.2,0.5-0.6,0.5-0.9c0-0.4-0.3-0.7-0.7-0.9l-4.6-2.5
	L155.7,16c3.3-1.8,7.8-1.8,11.1-0.1l0.1,0l32.2,18.6l-2.6,1.6c-5,3-10.2,5.9-15.2,8.8c-2.1,1.2-4.3,2.4-6.4,3.6l-0.9,0.5l-18.6-10.8
	c-0.3-0.2-0.9-0.3-1.4-0.3c-1.4,0-2.3,0.8-2.4,1.3c-0.1,0.3,0.2,0.6,0.7,0.8l0.1,0.1L171,51l-7.4,4.2c-0.5,0.3-0.7,0.5-0.7,0.6
	c0,0.2,0.3,0.7,1,1.1c0.8,0.4,1.9,0.7,2.7,0.2l35.8-20.7l31.8,18.3c2.1,1.2,2.5,2.6,2.5,3.6c0,0.8-0.3,2.4-2.5,3.8L183,91.8
	l-38.1-22l6.9-4c0.5-0.4,0.8-0.9,0.7-1.2c0-0.3-0.3-0.5-0.6-0.7c-1.2-0.6-2.3-0.6-3.2-0.1l-7.1,4l-4.5-2.6c-1-0.7-2.1-0.3-2.6-0.1
	c-0.8,0.4-1.2,1-1.2,1.3c0,0.2,0.3,0.4,0.7,0.6l0.1,0.1c17.3,9.9,30.5,17.6,42.9,24.9l2.7,1.6l-11.9,6.8l-39.3,22.7
	c-3.4,2-9.3,2-12.7,0c-8-4.6-16-9.2-24-13.8c-10.5-6-21.4-12.3-32.1-18.4l-2.7-1.6l2.7-1.5c8.2-4.7,16.4-9.5,24.6-14.2
	c9.9-5.7,19.7-11.4,29.6-17l0.9-0.5l4.4,2.6c1.2,0.8,3,0.2,3.6-0.6c0.1-0.2,0.4-0.6-0.6-1.4L110.7,50c-2.1-1-3.5-0.2-3.9,0.6
	c-0.2,0.5-0.1,0.9,0.5,1.2l4.5,2.6l-5.9,3.4L54.1,87.5L13.5,64.2c-0.6-0.3-1.1-0.6-1.5-0.9c-2.3-1.3-4.3-2.4-4.3-4.4
	c0-1.8,1.6-2.9,3-3.7L62,25.5l0.9,0.5C69.6,30,76.4,33.9,83,37.7c3.1,1.8,6.2,3.6,9.2,5.3c2.1,1,3.5,0.3,3.8-0.4
	c0.3-0.5,0-0.9-0.6-1.3l-3.4-2c-8.1-4.7-16.2-9.4-24.3-14.1L65,23.7L94.4,6.7l8.6,5c1.4,0.9,2.5,0.4,3,0.1c0.7-0.4,1-0.9,1-1.2
	c0-0.2-0.3-0.5-0.8-0.7l-0.1,0L95.9,4c-0.9-0.5-2.2-0.5-3.1,0L7.4,53.3c-2.5,1.5-3.8,3.4-3.8,5.4C3.6,60.8,5,62.8,7.4,64.3L7.4,64.3
	z"/>
<path class="st0" d="M229.7,79.8c-0.1,0-0.2,0-0.3-0.1c-0.2-0.1-0.3-0.5-0.2-0.7l7.4-12.9c0.1-0.2,0.4-0.3,0.7-0.2
	c0.2,0.1,0.3,0.4,0.2,0.7l-7.4,12.9C230.1,79.7,229.9,79.8,229.7,79.8L229.7,79.8z"/>
<path class="st0" d="M195.4,99.7c-0.1,0-0.2,0-0.3-0.1c-0.2-0.1-0.3-0.4-0.2-0.7l7.4-12.4c0.1-0.2,0.5-0.3,0.7-0.2
	c0.2,0.1,0.3,0.5,0.2,0.7l-7.4,12.4C195.7,99.6,195.5,99.7,195.4,99.7L195.4,99.7z"/>
<path class="st0" d="M161.4,119.3c-0.1,0-0.2,0-0.3-0.1c-0.2-0.1-0.3-0.4-0.2-0.7l7.4-12.9c0.1-0.2,0.4-0.3,0.7-0.2
	c0.2,0.1,0.3,0.4,0.2,0.7l-7.4,12.9C161.8,119.2,161.6,119.3,161.4,119.3L161.4,119.3z"/>
<path class="st0" d="M127.7,137.9c-0.1,0-0.2,0-0.3-0.1c-0.2-0.1-0.3-0.4-0.2-0.7l6.7-11.5c0.1-0.2,0.4-0.3,0.7-0.2
	c0.2,0.1,0.3,0.5,0.2,0.7l-6.7,11.5C128.1,137.8,127.9,137.9,127.7,137.9L127.7,137.9z"/>
<path class="st0" d="M111.1,135.6c-0.2,0-0.3-0.1-0.4-0.3c-0.1-0.2-0.1-0.6,0.2-0.7l8.2-4.7c0.2-0.1,0.6-0.1,0.7,0.2
	c0.1,0.2,0.1,0.6-0.2,0.7l-8.2,4.7C111.3,135.6,111.2,135.6,111.1,135.6L111.1,135.6z"/>
<path class="st0" d="M101.3,129.8c-0.2,0-0.3-0.1-0.4-0.3c-0.1-0.2-0.1-0.6,0.2-0.7l6-3.5c0.2-0.1,0.6-0.1,0.7,0.2
	c0.1,0.2,0.1,0.6-0.2,0.7l-6,3.5C101.5,129.8,101.4,129.8,101.3,129.8L101.3,129.8z"/>
<path class="st0" d="M91.5,124.1c-0.2,0-0.3-0.1-0.4-0.3c-0.1-0.2-0.1-0.6,0.2-0.7l6-3.5c0.2-0.1,0.6-0.1,0.7,0.2
	c0.1,0.2,0.1,0.6-0.2,0.7l-6,3.5C91.7,124.1,91.6,124.1,91.5,124.1L91.5,124.1z"/>
<path class="st0" d="M81.7,118.5c-0.2,0-0.3-0.1-0.4-0.3c-0.1-0.2-0.1-0.6,0.2-0.7l6-3.5c0.2-0.1,0.6-0.1,0.7,0.2
	c0.1,0.2,0.1,0.6-0.2,0.7l-6,3.5C81.9,118.4,81.8,118.5,81.7,118.5L81.7,118.5z"/>
<path class="st0" d="M71.7,112.7c-0.2,0-0.3-0.1-0.4-0.3c-0.1-0.2-0.1-0.6,0.2-0.7l6-3.5c0.2-0.1,0.6-0.1,0.7,0.2
	c0.1,0.2,0.1,0.6-0.2,0.7l-6,3.5C71.8,112.7,71.8,112.7,71.7,112.7L71.7,112.7z"/>
<path class="st0" d="M61.9,107.1c-0.2,0-0.3-0.1-0.4-0.3c-0.1-0.2-0.1-0.6,0.2-0.7l6-3.5c0.2-0.1,0.6-0.1,0.7,0.2
	c0.1,0.2,0.1,0.6-0.2,0.7l-6,3.5C62,107,61.9,107.1,61.9,107.1L61.9,107.1z"/>
<path class="st0" d="M52,101.4c-0.2,0-0.3-0.1-0.4-0.3c-0.1-0.2-0.1-0.6,0.2-0.7l6-3.4c0.2-0.1,0.6-0.1,0.7,0.2
	c0.1,0.2,0.1,0.6-0.2,0.7l-6,3.4C52.2,101.3,52.1,101.4,52,101.4L52,101.4z"/>
<path class="st0" d="M32.2,90c-0.2,0-0.3-0.1-0.4-0.3c-0.1-0.2-0.1-0.6,0.2-0.7l6-3.5c0.2-0.1,0.6-0.1,0.7,0.2
	c0.1,0.2,0.1,0.6-0.2,0.7l-6,3.5C32.4,90,32.3,90,32.2,90L32.2,90z"/>
<path class="st0" d="M22.4,84.3c-0.2,0-0.3-0.1-0.4-0.3c-0.1-0.2-0.1-0.6,0.2-0.7l6-3.5c0.2-0.1,0.6-0.1,0.7,0.2
	c0.1,0.2,0.1,0.6-0.2,0.7l-6,3.5C22.5,84.3,22.5,84.3,22.4,84.3L22.4,84.3z"/>
<path class="st0" d="M12.6,78.6c-0.2,0-0.3-0.1-0.4-0.3c-0.1-0.2-0.1-0.6,0.2-0.7l6-3.5c0.2-0.1,0.6-0.1,0.7,0.2
	c0.1,0.2,0.1,0.6-0.2,0.7l-6,3.5C12.7,78.6,12.7,78.6,12.6,78.6L12.6,78.6z"/>
<path class="st0" d="M2.7,72.8c-0.2,0-0.4-0.1-0.4-0.3c-0.1-0.2,0-0.6,0.2-0.7l5.8-3.3c0.2-0.1,0.6,0,0.7,0.2
	C9.1,69,9,69.3,8.8,69.4L3,72.7C2.9,72.8,2.8,72.8,2.7,72.8L2.7,72.8z"/>
<path class="st0" d="M95.9,18.9c-0.2,0-0.3-0.1-0.4-0.3c-0.1-0.2-0.1-0.6,0.2-0.7l6-3.4c0.2-0.1,0.6-0.1,0.7,0.2
	c0.1,0.2,0.1,0.6-0.2,0.7l-6,3.4C96.1,18.9,96,18.9,95.9,18.9L95.9,18.9z"/>
<path class="st0" d="M46.5,47.3c-0.1,0-0.2,0-0.3-0.1c-0.2-0.1-0.3-0.4-0.2-0.7l8.4-14.7c0.1-0.2,0.4-0.3,0.7-0.2
	c0.2,0.1,0.3,0.4,0.2,0.7l-8.4,14.7C46.8,47.2,46.6,47.3,46.5,47.3L46.5,47.3z"/>
<path class="st0" d="M15.3,62c-0.1,0-0.2,0-0.3-0.1c-0.2-0.1-0.3-0.4-0.2-0.7l5.6-9.7c0.1-0.2,0.4-0.3,0.7-0.2
	c0.2,0.1,0.3,0.5,0.2,0.7l-5.6,9.7C15.6,61.9,15.4,62,15.3,62L15.3,62z"/>
<path class="st0" d="M86.8,51.3c-0.2,0-0.3-0.1-0.4-0.3c-0.1-0.2-0.1-0.6,0.2-0.7l6.6-3.9c0.2-0.1,0.6-0.1,0.7,0.2
	c0.1,0.2,0.1,0.6-0.2,0.7L87,51.2C86.9,51.3,86.8,51.3,86.8,51.3L86.8,51.3z"/>
<path class="st0" d="M76.9,45.6c-0.2,0-0.3-0.1-0.4-0.3c-0.1-0.2-0.1-0.6,0.2-0.7l6-3.4c0.2-0.1,0.6-0.1,0.7,0.2
	c0.1,0.2,0.1,0.6-0.2,0.7l-6,3.4C77.1,45.5,77,45.6,76.9,45.6L76.9,45.6z"/>
<path class="st0" d="M67.1,39.9c-0.2,0-0.3-0.1-0.4-0.3c-0.1-0.2-0.1-0.6,0.2-0.7l6-3.5c0.2-0.1,0.6-0.1,0.7,0.2
	c0.1,0.2,0.1,0.6-0.2,0.7l-6,3.5C67.3,39.9,67.2,39.9,67.1,39.9L67.1,39.9z"/>
<path class="st0" d="M115.3,66.8c-0.2,0-0.4-0.1-0.4-0.3c-0.1-0.2,0-0.6,0.2-0.7l7.8-4.3c0.2-0.1,0.6,0,0.7,0.2
	c0.1,0.2,0,0.6-0.2,0.7l-7.8,4.3C115.5,66.7,115.4,66.8,115.3,66.8L115.3,66.8z"/>
<path class="st0" d="M100.8,75.7c-0.1,0-0.2,0-0.3-0.1c-0.2-0.1-0.3-0.5-0.2-0.7l7.2-12.6c0.1-0.2,0.4-0.3,0.7-0.2
	c0.2,0.1,0.3,0.5,0.2,0.7l-7.2,12.6C101.2,75.6,101,75.7,100.8,75.7L100.8,75.7z"/>
<path class="st0" d="M68.2,92.4c-0.1,0-0.2,0-0.3-0.1c-0.2-0.1-0.3-0.4-0.2-0.7l5.5-9.5c0.1-0.2,0.4-0.3,0.7-0.2
	c0.2,0.1,0.3,0.4,0.2,0.7l-5.5,9.5C68.5,92.4,68.4,92.4,68.2,92.4L68.2,92.4z"/>
<path class="st0" d="M162.7,95c-0.2,0-0.3-0.1-0.4-0.3c-0.1-0.2-0.1-0.6,0.2-0.7l6-3.5c0.2-0.1,0.6-0.1,0.7,0.2
	c0.1,0.2,0.1,0.6-0.2,0.7l-6,3.5C162.9,95,162.8,95,162.7,95L162.7,95z"/>
<path class="st0" d="M152.9,89.2c-0.2,0-0.4-0.1-0.4-0.3c-0.1-0.2-0.1-0.6,0.2-0.7l6-3.4c0.2-0.1,0.6-0.1,0.7,0.2
	c0.1,0.2,0.1,0.6-0.2,0.7l-6,3.4C153.1,89.2,153,89.2,152.9,89.2L152.9,89.2z"/>
<path class="st0" d="M143.1,83.6c-0.2,0-0.3-0.1-0.4-0.3c-0.1-0.2-0.1-0.6,0.2-0.7l6-3.5c0.2-0.1,0.6-0.1,0.7,0.2
	c0.1,0.2,0.1,0.6-0.2,0.7l-6,3.5C143.3,83.5,143.2,83.6,143.1,83.6L143.1,83.6z"/>
<path class="st0" d="M133.3,77.8c-0.2,0-0.3-0.1-0.4-0.3c-0.1-0.2-0.1-0.6,0.2-0.7l6-3.4c0.2-0.1,0.6-0.1,0.7,0.2
	c0.1,0.2,0.1,0.6-0.2,0.7l-6,3.4C133.4,77.8,133.4,77.8,133.3,77.8L133.3,77.8z"/>
<polygon class="st0" points="153,71 151.2,69.8 153,68.5 153,71 "/>
<path class="st0" d="M183.2,59c-0.1,0-0.2,0-0.2-0.1c-0.2-0.1-0.3-0.4-0.2-0.7l5.8-10.2c0.1-0.2,0.4-0.3,0.7-0.2
	c0.2,0.1,0.3,0.4,0.2,0.7l-5.8,10.2C183.5,58.9,183.4,59,183.2,59L183.2,59z"/>
<path class="st0" d="M152.3,51.6c-0.2,0-0.3-0.1-0.4-0.3c-0.1-0.2-0.1-0.6,0.2-0.7l6-3.4c0.2-0.1,0.6-0.1,0.7,0.2
	c0.1,0.2,0.1,0.6-0.2,0.7l-6,3.4C152.4,51.6,152.3,51.6,152.3,51.6L152.3,51.6z"/>
<path class="st0" d="M222.5,59.3c-0.2,0-0.3-0.1-0.4-0.3c-0.1-0.2-0.1-0.6,0.2-0.7l6-3.5c0.2-0.1,0.6-0.1,0.7,0.2
	c0.1,0.2,0.1,0.6-0.2,0.7l-6,3.5C222.6,59.3,222.5,59.3,222.5,59.3L222.5,59.3z"/>
<path class="st0" d="M212.4,53.6c-0.2,0-0.3-0.1-0.4-0.3c-0.1-0.2-0.1-0.6,0.2-0.7l6-3.4c0.2-0.1,0.6-0.1,0.7,0.2
	c0.1,0.2,0.1,0.6-0.2,0.7l-6,3.4C212.6,53.6,212.5,53.6,212.4,53.6L212.4,53.6z"/>
<path class="st0" d="M204.1,47.1c-0.2,0-0.3-0.1-0.4-0.3c-0.1-0.2-0.1-0.6,0.2-0.7l4.5-2.6c0.2-0.1,0.6-0.1,0.7,0.2
	c0.1,0.2,0.1,0.6-0.2,0.7l-4.5,2.6C204.3,47.1,204.2,47.1,204.1,47.1L204.1,47.1z"/>
<path class="st0" d="M181.3,35.7c-0.2,0-0.3-0.1-0.4-0.3c-0.1-0.2-0.1-0.6,0.2-0.7l6-3.5c0.2-0.1,0.6-0.1,0.7,0.2
	c0.1,0.2,0.1,0.6-0.2,0.7l-6,3.5C181.5,35.7,181.4,35.7,181.3,35.7L181.3,35.7z"/>
<path class="st0" d="M171.5,30c-0.2,0-0.3-0.1-0.4-0.3c-0.1-0.2-0.1-0.6,0.2-0.7l6-3.5c0.2-0.1,0.6-0.1,0.7,0.2
	c0.1,0.2,0.1,0.6-0.2,0.7l-6,3.5C171.6,30,171.5,30,171.5,30L171.5,30z"/>
<path class="st0" d="M162.5,23.7c-0.2,0-0.3-0.1-0.4-0.3c-0.1-0.2,0-0.6,0.2-0.7l5.1-2.8c0.2-0.1,0.6,0,0.7,0.2
	c0.1,0.2,0,0.6-0.2,0.7l-5.1,2.8C162.7,23.6,162.6,23.7,162.5,23.7L162.5,23.7z"/>
<path class="st0" d="M130.9,39.1c-0.2,0-0.3-0.1-0.4-0.3c-0.1-0.2-0.1-0.6,0.2-0.7l6-3.5c0.2-0.1,0.6-0.1,0.7,0.2
	c0.1,0.2,0.1,0.6-0.2,0.7l-6,3.5C131.1,39.1,131,39.1,130.9,39.1L130.9,39.1z"/>
<path class="st0" d="M120.9,33.5c-0.2,0-0.3-0.1-0.4-0.3c-0.1-0.2,0-0.6,0.2-0.7l6.2-3.5c0.2-0.1,0.6,0,0.7,0.2
	c0.1,0.2,0,0.6-0.2,0.7l-6.2,3.5C121.1,33.4,121,33.5,120.9,33.5L120.9,33.5z"/>
<path class="st0" d="M42.2,95.7c-0.2,0-0.3-0.1-0.4-0.3c-0.1-0.2-0.1-0.6,0.2-0.7l6-3.4c0.2-0.1,0.5-0.1,0.7,0.2
	c0.1,0.2,0.1,0.6-0.2,0.7l-6,3.4C42.4,95.7,42.3,95.7,42.2,95.7L42.2,95.7z"/>
</svg>
