<?xml version="1.0" encoding="utf-8"?>
<!-- Generator: Adobe Illustrator 24.1.2, SVG Export Plug-In . SVG Version: 6.00 Build 0)  -->
<svg version="1.1" id="Layer_1" xmlns="http://www.w3.org/2000/svg" xmlns:xlink="http://www.w3.org/1999/xlink" x="0px" y="0px"
	 viewBox="0 0 288 338.5" style="enable-background:new 0 0 288 338.5;" xml:space="preserve">
<style type="text/css">
	.st0{clip-path:url(#SVGID_2_);fill:#FFFFFF;}
	.st1{clip-path:url(#SVGID_2_);fill:#FDFDFD;}
	.st2{clip-path:url(#SVGID_2_);fill:#FBFBFB;}
	.st3{clip-path:url(#SVGID_2_);fill:#F9F9F9;}
	.st4{clip-path:url(#SVGID_2_);fill:#F8F7F7;}
	.st5{clip-path:url(#SVGID_2_);fill:#F6F5F5;}
	.st6{clip-path:url(#SVGID_2_);fill:#F5F4F4;}
	.st7{clip-path:url(#SVGID_2_);fill:#F3F3F2;}
	.st8{clip-path:url(#SVGID_2_);fill:#F2F1F1;}
	.st9{clip-path:url(#SVGID_2_);fill:#F1F0F0;}
	.st10{clip-path:url(#SVGID_2_);fill:#F0EFEE;}
	.st11{clip-path:url(#SVGID_2_);fill:#EFEDED;}
	.st12{clip-path:url(#SVGID_2_);fill:#EDECEC;}
	.st13{clip-path:url(#SVGID_2_);fill:#ECEBEB;}
	.st14{clip-path:url(#SVGID_2_);fill:#EBEAEA;}
	.st15{clip-path:url(#SVGID_2_);fill:#EAE9E8;}
	.st16{clip-path:url(#SVGID_2_);fill:#E9E7E7;}
	.st17{clip-path:url(#SVGID_2_);fill:#E8E6E6;}
	.st18{clip-path:url(#SVGID_2_);fill:#E6E5E5;}
	.st19{clip-path:url(#SVGID_2_);fill:#E5E4E4;}
	.st20{clip-path:url(#SVGID_2_);fill:#E4E3E3;}
	.st21{clip-path:url(#SVGID_2_);fill:#E3E2E2;}
	.st22{clip-path:url(#SVGID_2_);fill:#E2E1E1;}
	.st23{clip-path:url(#SVGID_2_);fill:#E1E0E0;}
	.st24{clip-path:url(#SVGID_2_);fill:#E0DEDF;}
	.st25{clip-path:url(#SVGID_2_);fill:#DFDDDE;}
	.st26{clip-path:url(#SVGID_2_);fill:#DEDCDD;}
	.st27{clip-path:url(#SVGID_2_);fill:#DCDBDB;}
	.st28{clip-path:url(#SVGID_2_);fill:#DBDADA;}
	.st29{clip-path:url(#SVGID_2_);fill:#DAD9D9;}
	.st30{clip-path:url(#SVGID_2_);fill:#D9D8D8;}
	.st31{clip-path:url(#SVGID_2_);fill:#D8D7D7;}
	.st32{clip-path:url(#SVGID_2_);fill:#D7D6D6;}
	.st33{clip-path:url(#SVGID_2_);fill:#D6D5D5;}
	.st34{clip-path:url(#SVGID_2_);fill:#D5D4D4;}
	.st35{clip-path:url(#SVGID_2_);fill:#D4D3D3;}
	.st36{clip-path:url(#SVGID_2_);fill:#D3D2D2;}
	.st37{clip-path:url(#SVGID_2_);fill:#D2D1D1;}
	.st38{clip-path:url(#SVGID_2_);fill:#D1D0D0;}
	.st39{clip-path:url(#SVGID_2_);fill:#D0CFCF;}
	.st40{clip-path:url(#SVGID_2_);fill:#CFCECE;}
	.st41{clip-path:url(#SVGID_2_);fill:#CECDCD;}
	.st42{clip-path:url(#SVGID_2_);fill:#CDCCCC;}
	.st43{clip-path:url(#SVGID_2_);fill:#CCCBCB;}
	.st44{clip-path:url(#SVGID_2_);fill:#CBCACA;}
	.st45{clip-path:url(#SVGID_2_);fill:#CAC9CA;}
	.st46{clip-path:url(#SVGID_2_);fill:#C9C8C9;}
	.st47{clip-path:url(#SVGID_2_);fill:#C8C7C8;}
	.st48{clip-path:url(#SVGID_2_);fill:#C7C6C7;}
	.st49{clip-path:url(#SVGID_2_);fill:#C6C5C6;}
	.st50{clip-path:url(#SVGID_2_);fill:#C6C4C5;}
	.st51{clip-path:url(#SVGID_2_);fill:#C5C3C4;}
	.st52{clip-path:url(#SVGID_2_);fill:#C4C2C3;}
	.st53{clip-path:url(#SVGID_2_);fill:#C3C1C2;}
	.st54{clip-path:url(#SVGID_2_);fill:#C2C0C1;}
	.st55{clip-path:url(#SVGID_2_);fill:#C1BFC0;}
	.st56{clip-path:url(#SVGID_2_);fill:#C0BEBF;}
	.st57{clip-path:url(#SVGID_2_);fill:#BFBEBF;}
	.st58{clip-path:url(#SVGID_2_);fill:#BEBDBE;}
	.st59{clip-path:url(#SVGID_2_);fill:#BDBCBD;}
	.st60{clip-path:url(#SVGID_2_);fill:#BCBBBC;}
	.st61{clip-path:url(#SVGID_2_);fill:#BBBABB;}
	.st62{clip-path:url(#SVGID_2_);fill:#BAB9BA;}
	.st63{clip-path:url(#SVGID_2_);fill:#B9B8B9;}
	.st64{clip-path:url(#SVGID_2_);fill:#B9B7B8;}
	.st65{clip-path:url(#SVGID_2_);fill:#B8B6B8;}
	.st66{clip-path:url(#SVGID_2_);fill:#B7B5B7;}
	.st67{clip-path:url(#SVGID_2_);fill:#B6B5B6;}
	.st68{clip-path:url(#SVGID_2_);fill:#B5B4B5;}
	.st69{clip-path:url(#SVGID_2_);fill:#B4B3B4;}
	.st70{clip-path:url(#SVGID_2_);fill:#B3B2B3;}
	.st71{clip-path:url(#SVGID_2_);fill:#B2B1B2;}
	.st72{clip-path:url(#SVGID_2_);fill:#B1B0B2;}
	.st73{clip-path:url(#SVGID_2_);fill:#B0AFB1;}
	.st74{clip-path:url(#SVGID_2_);fill:#AFAEB0;}
	.st75{clip-path:url(#SVGID_2_);fill:#AFAEAF;}
	.st76{clip-path:url(#SVGID_2_);fill:#AEADAE;}
	.st77{clip-path:url(#SVGID_2_);fill:#ADACAD;}
	.st78{clip-path:url(#SVGID_2_);fill:#ACABAD;}
	.st79{clip-path:url(#SVGID_2_);fill:#ABAAAC;}
	.st80{clip-path:url(#SVGID_2_);fill:#AAA9AB;}
	.st81{clip-path:url(#SVGID_2_);fill:#A9A9AA;}
	.st82{clip-path:url(#SVGID_2_);fill:#A8A8A9;}
	.st83{clip-path:url(#SVGID_2_);fill:#A8A7A9;}
	.st84{clip-path:url(#SVGID_2_);fill:#A7A6A8;}
	.st85{clip-path:url(#SVGID_2_);fill:#A6A5A7;}
	.st86{clip-path:url(#SVGID_2_);fill:#A5A4A6;}
	.st87{clip-path:url(#SVGID_2_);fill:#A4A4A5;}
	.st88{clip-path:url(#SVGID_2_);fill:#A3A3A5;}
	.st89{clip-path:url(#SVGID_2_);fill:#A2A2A4;}
	.st90{clip-path:url(#SVGID_2_);fill:#A2A1A3;}
	.st91{clip-path:url(#SVGID_2_);fill:#A1A0A2;}
	.st92{clip-path:url(#SVGID_2_);fill:#A09FA1;}
	.st93{clip-path:url(#SVGID_2_);fill:#9F9FA1;}
	.st94{clip-path:url(#SVGID_2_);fill:#9E9EA0;}
	.st95{clip-path:url(#SVGID_2_);fill:#9D9D9F;}
	.st96{clip-path:url(#SVGID_2_);fill:#9D9C9E;}
	.st97{clip-path:url(#SVGID_2_);fill:#9C9B9D;}
	.st98{clip-path:url(#SVGID_2_);fill:#9B9B9D;}
	.st99{clip-path:url(#SVGID_2_);fill:#9A9A9C;}
	.st100{clip-path:url(#SVGID_2_);fill:#99999B;}
	.st101{clip-path:url(#SVGID_2_);fill:#98989A;}
	.st102{clip-path:url(#SVGID_2_);fill:#979799;}
	.st103{clip-path:url(#SVGID_2_);fill:#969698;}
	.st104{clip-path:url(#SVGID_2_);fill:#959597;}
	.st105{clip-path:url(#SVGID_2_);fill:#949597;}
	.st106{clip-path:url(#SVGID_2_);fill:#949496;}
	.st107{clip-path:url(#SVGID_2_);fill:#939395;}
	.st108{clip-path:url(#SVGID_2_);fill:#929294;}
	.st109{clip-path:url(#SVGID_2_);fill:#919294;}
	.st110{clip-path:url(#SVGID_2_);fill:#909193;}
	.st111{clip-path:url(#SVGID_2_);fill:#909092;}
	.st112{clip-path:url(#SVGID_2_);fill:#8F8F92;}
	.st113{clip-path:url(#SVGID_2_);fill:#8E8F91;}
	.st114{clip-path:url(#SVGID_2_);fill:#8D8E90;}
	.st115{clip-path:url(#SVGID_2_);fill:#8C8D8F;}
	.st116{clip-path:url(#SVGID_2_);fill:#8C8C8F;}
	.st117{clip-path:url(#SVGID_2_);fill:#8B8C8E;}
	.st118{clip-path:url(#SVGID_2_);fill:#8A8B8D;}
	.st119{clip-path:url(#SVGID_2_);fill:#898A8D;}
	.st120{clip-path:url(#SVGID_2_);fill:#898A8C;}
	.st121{clip-path:url(#SVGID_2_);fill:#88898B;}
	.st122{clip-path:url(#SVGID_2_);fill:#87888B;}
	.st123{clip-path:url(#SVGID_2_);fill:#86888A;}
	.st124{clip-path:url(#SVGID_2_);fill:#858789;}
	.st125{clip-path:url(#SVGID_2_);fill:#858689;}
	.st126{clip-path:url(#SVGID_2_);fill:#848688;}
	.st127{clip-path:url(#SVGID_2_);fill:#838587;}
	.st128{clip-path:url(#SVGID_2_);fill:#838487;}
	.st129{clip-path:url(#SVGID_2_);fill:#828486;}
	.st130{clip-path:url(#SVGID_2_);fill:#818385;}
	.st131{clip-path:url(#SVGID_2_);fill:#808285;}
	.st132{fill:#DCDDDE;}
	.st133{fill:#4F8FCC;}
	.st134{fill:#1D4695;}
	.st135{fill:#498DCB;}
</style>
<g>
	<g>
		<g>
			<defs>
				<path id="SVGID_1_" d="M72.1,14.1c-0.6,0-0.6,0.2-0.6,0.6c0,0.3,0.2,0.6,0.4,0.9c0.6,0.8,1.8,1.4,2.8,2.1c0.6,0.4,1.3,0.8,2,1
					c0.7,0.2,1.3,0.2,2,0.3c1.4,0.1,2.8,0.3,4.3,0.4c2.8,0.3,5.7,0.7,8.5,1.1c5.6,0.8,11.2,1.8,16.7,2.9c5.5,1.1,11,2.4,16.4,3.9
					c4.2,1.1,8.3,2.4,12.4,3.7c-2.9,1.1-5.7,2.3-8.5,3.5c-4.9,2.1-9.7,4.4-14.4,6.8c-4.7,2.4-9.3,5-13.8,7.6
					c-4.5,2.7-8.9,5.5-13.1,8.4c-4.3,3-8.4,6-12.3,9.2c-4,3.2-7.8,6.5-11.5,10c-3.7,3.5-7.2,7-10.5,10.7c-3.4,3.7-6.6,7.5-9.5,11.3
					c-3,3.9-5.8,7.9-8.4,11.9c-2.6,4.1-5.1,8.3-7.3,12.5c-2.2,4.3-4.3,8.7-6,13.1c-23.1,57.3-3.5,113.4,44.5,147.8
					c7.9-1.1,15.2-2.5,21.8-4.1c-56.4-33.1-81.9-89.9-58.7-147.4c0.9-2.3,1.9-4.5,3-6.8c2-4.2,4.2-8.3,6.7-12.4c2.4-4,5.1-8,8-11.8
					c2.8-3.8,5.9-7.5,9.2-11.2c3.2-3.6,6.7-7.1,10.3-10.6c3.6-3.4,7.4-6.7,11.4-9.9c3.9-3.1,8.1-6.2,12.4-9.1
					c4.2-2.9,8.7-5.7,13.2-8.3c4.5-2.6,9.2-5.1,14-7.5c4.8-2.4,9.7-4.6,14.7-6.7c3.8-1.6,7.8-3.1,11.8-4.5c4,1.4,7.9,2.9,11.8,4.5
					c5.1,2.1,10,4.3,14.7,6.7c4.8,2.4,9.5,4.9,14,7.5c4.6,2.7,9,5.5,13.2,8.3c4.3,2.9,8.4,6,12.4,9.1c4,3.2,7.8,6.5,11.4,9.9
					c3.7,3.4,7.1,7,10.3,10.6c3.3,3.7,6.4,7.4,9.2,11.2c2.9,3.9,5.6,7.8,8,11.8c2.5,4.1,4.7,8.2,6.7,12.4c1.1,2.3,2.1,4.5,3,6.8
					c23.2,57.4-2.3,114.3-58.7,147.4c6.6,1.5,14,3,21.8,4.1c48-34.3,67.6-90.5,44.5-147.8c-1.8-4.4-3.8-8.8-6-13.1
					c-2.2-4.2-4.6-8.4-7.3-12.5c-2.6-4-5.4-8-8.4-11.9c-3-3.8-6.1-7.6-9.5-11.3c-3.3-3.6-6.8-7.2-10.5-10.7
					c-3.6-3.4-7.4-6.7-11.5-10c-3.9-3.2-8-6.2-12.3-9.2c-4.2-2.9-8.5-5.7-13.1-8.4c-4.4-2.7-9-5.2-13.8-7.6
					c-4.6-2.4-9.4-4.6-14.4-6.8c-2.8-1.2-5.6-2.4-8.5-3.5c4.1-1.3,8.2-2.6,12.4-3.7c5.4-1.5,10.8-2.8,16.4-3.9
					c5.5-1.1,11.1-2.1,16.7-2.9c2.8-0.4,5.6-0.7,8.5-1.1c1.4-0.2,2.8-0.3,4.3-0.4c0.7-0.1,1.3,0,2-0.3c0.7-0.3,1.4-0.6,2-1
					c1-0.6,2.2-1.2,2.8-2.1c0.2-0.3,0.4-0.6,0.4-0.9c0.1-0.4,0-0.5-0.6-0.6c-0.1,0-0.2,0-0.3,0c-0.9,0-1.9,0.1-2.9,0.2
					c-2.1,0.1-4.1,0.3-6.2,0.4c-5.5,0.5-10.9,1.1-16.2,1.9c-5.4,0.8-10.8,1.8-16,3c-5.3,1.2-10.6,2.5-15.7,4c-5,1.4-9.9,3-14.6,4.7
					c-4.8-1.7-9.7-3.3-14.6-4.7c-5.1-1.5-10.4-2.8-15.7-4c-5.3-1.1-10.6-2.1-16-3c-5.4-0.8-10.8-1.4-16.2-1.9
					c-2.1-0.2-4.1-0.3-6.2-0.4c-0.9-0.1-1.9-0.2-2.9-0.2C72.2,14.1,72.1,14.1,72.1,14.1"/>
			</defs>
			<clipPath id="SVGID_2_">
				<use xlink:href="#SVGID_1_"  style="overflow:visible;"/>
			</clipPath>
			<path class="st0" d="M-1.5,283.6h290.9H-1.5z"/>
			<rect x="-1.5" y="281.6" class="st0" width="290.9" height="2"/>
			<rect x="-1.5" y="279.6" class="st1" width="290.9" height="2"/>
			<rect x="-1.5" y="277.6" class="st2" width="290.9" height="2"/>
			<rect x="-1.5" y="275.5" class="st3" width="290.9" height="2"/>
			<rect x="-1.5" y="273.5" class="st4" width="290.9" height="2"/>
			<rect x="-1.5" y="271.5" class="st5" width="290.9" height="2"/>
			<rect x="-1.5" y="269.5" class="st6" width="290.9" height="2"/>
			<rect x="-1.5" y="267.4" class="st7" width="290.9" height="2"/>
			<rect x="-1.5" y="265.4" class="st8" width="290.9" height="2"/>
			<rect x="-1.5" y="263.4" class="st9" width="290.9" height="2"/>
			<rect x="-1.5" y="261.3" class="st10" width="290.9" height="2"/>
			<rect x="-1.5" y="259.3" class="st11" width="290.9" height="2"/>
			<rect x="-1.5" y="257.3" class="st12" width="290.9" height="2"/>
			<rect x="-1.5" y="255.3" class="st13" width="290.9" height="2"/>
			<rect x="-1.5" y="253.2" class="st14" width="290.9" height="2"/>
			<rect x="-1.5" y="251.2" class="st15" width="290.9" height="2"/>
			<rect x="-1.5" y="249.2" class="st16" width="290.9" height="2"/>
			<rect x="-1.5" y="247.2" class="st17" width="290.9" height="2"/>
			<rect x="-1.5" y="245.1" class="st18" width="290.9" height="2"/>
			<rect x="-1.5" y="243.1" class="st19" width="290.9" height="2"/>
			<rect x="-1.5" y="241.1" class="st20" width="290.9" height="2"/>
			<rect x="-1.5" y="239.1" class="st21" width="290.9" height="2"/>
			<rect x="-1.5" y="237" class="st22" width="290.9" height="2"/>
			<rect x="-1.5" y="235" class="st23" width="290.9" height="2"/>
			<rect x="-1.5" y="233" class="st24" width="290.9" height="2"/>
			<rect x="-1.5" y="231" class="st25" width="290.9" height="2"/>
			<rect x="-1.5" y="228.9" class="st26" width="290.9" height="2"/>
			<rect x="-1.5" y="226.9" class="st27" width="290.9" height="2"/>
			<rect x="-1.5" y="224.9" class="st28" width="290.9" height="2"/>
			<rect x="-1.5" y="222.8" class="st29" width="290.9" height="2"/>
			<rect x="-1.5" y="220.8" class="st30" width="290.9" height="2"/>
			<rect x="-1.5" y="218.8" class="st31" width="290.9" height="2"/>
			<rect x="-1.5" y="216.8" class="st32" width="290.9" height="2"/>
			<rect x="-1.5" y="214.7" class="st33" width="290.9" height="2"/>
			<rect x="-1.5" y="212.7" class="st34" width="290.9" height="2"/>
			<rect x="-1.5" y="210.7" class="st35" width="290.9" height="2"/>
			<rect x="-1.5" y="208.7" class="st36" width="290.9" height="2"/>
			<rect x="-1.5" y="206.6" class="st37" width="290.9" height="2"/>
			<rect x="-1.5" y="204.6" class="st38" width="290.9" height="2"/>
			<rect x="-1.5" y="202.6" class="st39" width="290.9" height="2"/>
			<rect x="-1.5" y="200.6" class="st40" width="290.9" height="2"/>
			<rect x="-1.5" y="198.5" class="st41" width="290.9" height="2"/>
			<rect x="-1.5" y="196.5" class="st42" width="290.9" height="2"/>
			<rect x="-1.5" y="194.5" class="st43" width="290.9" height="2"/>
			<rect x="-1.5" y="192.5" class="st44" width="290.9" height="2"/>
			<rect x="-1.5" y="190.4" class="st45" width="290.9" height="2"/>
			<rect x="-1.5" y="188.4" class="st46" width="290.9" height="2"/>
			<rect x="-1.5" y="186.4" class="st47" width="290.9" height="2"/>
			<rect x="-1.5" y="184.4" class="st48" width="290.9" height="2"/>
			<rect x="-1.5" y="182.3" class="st49" width="290.9" height="2"/>
			<rect x="-1.5" y="180.3" class="st50" width="290.9" height="2"/>
			<rect x="-1.5" y="178.3" class="st51" width="290.9" height="2"/>
			<rect x="-1.5" y="176.2" class="st52" width="290.9" height="2"/>
			<rect x="-1.5" y="174.2" class="st53" width="290.9" height="2"/>
			<rect x="-1.5" y="172.2" class="st54" width="290.9" height="2"/>
			<rect x="-1.5" y="170.2" class="st55" width="290.9" height="2"/>
			<rect x="-1.5" y="168.1" class="st56" width="290.9" height="2"/>
			<rect x="-1.5" y="166.1" class="st57" width="290.9" height="2"/>
			<rect x="-1.5" y="164.1" class="st58" width="290.9" height="2"/>
			<rect x="-1.5" y="162.1" class="st59" width="290.9" height="2"/>
			<rect x="-1.5" y="160" class="st60" width="290.9" height="2"/>
			<rect x="-1.5" y="158" class="st61" width="290.9" height="2"/>
			<rect x="-1.5" y="156" class="st62" width="290.9" height="2"/>
			<rect x="-1.5" y="154" class="st63" width="290.9" height="2"/>
			<rect x="-1.5" y="151.9" class="st64" width="290.9" height="2"/>
			<rect x="-1.5" y="149.9" class="st65" width="290.9" height="2"/>
			<rect x="-1.5" y="147.9" class="st66" width="290.9" height="2"/>
			<rect x="-1.5" y="145.9" class="st67" width="290.9" height="2"/>
			<rect x="-1.5" y="143.8" class="st68" width="290.9" height="2"/>
			<rect x="-1.5" y="141.8" class="st69" width="290.9" height="2"/>
			<rect x="-1.5" y="139.8" class="st70" width="290.9" height="2"/>
			<rect x="-1.5" y="137.7" class="st71" width="290.9" height="2"/>
			<rect x="-1.5" y="135.7" class="st72" width="290.9" height="2"/>
			<rect x="-1.5" y="133.7" class="st73" width="290.9" height="2"/>
			<rect x="-1.5" y="131.7" class="st74" width="290.9" height="2"/>
			<rect x="-1.5" y="129.6" class="st75" width="290.9" height="2"/>
			<rect x="-1.5" y="127.6" class="st76" width="290.9" height="2"/>
			<rect x="-1.5" y="125.6" class="st77" width="290.9" height="2"/>
			<rect x="-1.5" y="123.6" class="st78" width="290.9" height="2"/>
			<rect x="-1.5" y="121.5" class="st79" width="290.9" height="2"/>
			<rect x="-1.5" y="119.5" class="st80" width="290.9" height="2"/>
			<rect x="-1.5" y="117.5" class="st81" width="290.9" height="2"/>
			<rect x="-1.5" y="115.5" class="st82" width="290.9" height="2"/>
			<rect x="-1.5" y="113.4" class="st83" width="290.9" height="2"/>
			<rect x="-1.5" y="111.4" class="st84" width="290.9" height="2"/>
			<rect x="-1.5" y="109.4" class="st85" width="290.9" height="2"/>
			<rect x="-1.5" y="107.4" class="st86" width="290.9" height="2"/>
			<rect x="-1.5" y="105.3" class="st87" width="290.9" height="2"/>
			<rect x="-1.5" y="103.3" class="st88" width="290.9" height="2"/>
			<rect x="-1.5" y="101.3" class="st89" width="290.9" height="2"/>
			<rect x="-1.5" y="99.2" class="st90" width="290.9" height="2"/>
			<rect x="-1.5" y="97.2" class="st91" width="290.9" height="2"/>
			<rect x="-1.5" y="95.2" class="st92" width="290.9" height="2"/>
			<rect x="-1.5" y="93.2" class="st93" width="290.9" height="2"/>
			<rect x="-1.5" y="91.1" class="st94" width="290.9" height="2"/>
			<rect x="-1.5" y="89.1" class="st95" width="290.9" height="2"/>
			<rect x="-1.5" y="87.1" class="st96" width="290.9" height="2"/>
			<rect x="-1.5" y="85.1" class="st97" width="290.9" height="2"/>
			<rect x="-1.5" y="83" class="st98" width="290.9" height="2"/>
			<rect x="-1.5" y="81" class="st99" width="290.9" height="2"/>
			<rect x="-1.5" y="79" class="st100" width="290.9" height="2"/>
			<rect x="-1.5" y="77" class="st101" width="290.9" height="2"/>
			<rect x="-1.5" y="74.9" class="st101" width="290.9" height="2"/>
			<rect x="-1.5" y="72.9" class="st102" width="290.9" height="2"/>
			<rect x="-1.5" y="70.9" class="st103" width="290.9" height="2"/>
			<rect x="-1.5" y="68.9" class="st104" width="290.9" height="2"/>
			<rect x="-1.5" y="66.8" class="st105" width="290.9" height="2"/>
			<rect x="-1.5" y="64.8" class="st106" width="290.9" height="2"/>
			<rect x="-1.5" y="62.8" class="st107" width="290.9" height="2"/>
			<rect x="-1.5" y="60.7" class="st108" width="290.9" height="2"/>
			<rect x="-1.5" y="58.7" class="st109" width="290.9" height="2"/>
			<rect x="-1.5" y="56.7" class="st110" width="290.9" height="2"/>
			<rect x="-1.5" y="54.7" class="st111" width="290.9" height="2"/>
			<rect x="-1.5" y="52.6" class="st112" width="290.9" height="2"/>
			<rect x="-1.5" y="50.6" class="st113" width="290.9" height="2"/>
			<rect x="-1.5" y="48.6" class="st114" width="290.9" height="2"/>
			<rect x="-1.5" y="46.6" class="st115" width="290.9" height="2"/>
			<rect x="-1.5" y="44.5" class="st116" width="290.9" height="2"/>
			<rect x="-1.5" y="42.5" class="st117" width="290.9" height="2"/>
			<rect x="-1.5" y="40.5" class="st118" width="290.9" height="2"/>
			<rect x="-1.5" y="38.5" class="st119" width="290.9" height="2"/>
			<rect x="-1.5" y="36.4" class="st120" width="290.9" height="2"/>
			<rect x="-1.5" y="34.4" class="st121" width="290.9" height="2"/>
			<rect x="-1.5" y="32.4" class="st122" width="290.9" height="2"/>
			<rect x="-1.5" y="30.4" class="st123" width="290.9" height="2"/>
			<rect x="-1.5" y="28.3" class="st124" width="290.9" height="2"/>
			<rect x="-1.5" y="26.3" class="st125" width="290.9" height="2"/>
			<rect x="-1.5" y="24.3" class="st126" width="290.9" height="2"/>
			<rect x="-1.5" y="22.2" class="st127" width="290.9" height="2"/>
			<rect x="-1.5" y="20.2" class="st128" width="290.9" height="2"/>
			<rect x="-1.5" y="18.2" class="st129" width="290.9" height="2"/>
			<rect x="-1.5" y="16.2" class="st130" width="290.9" height="2"/>
			<rect x="-1.5" y="14.1" class="st131" width="290.9" height="2"/>
		</g>
	</g>
	<g>
		<path class="st132" d="M145.9,257.8c5.8-1.1,11.7-3,17.4-5.6c1,0.4,2.2,0.7,3.4,0.9c1-0.6,1.9-1.2,2.9-1.8c-1.3,0-2.6-0.1-3.7-0.3
			c4.8-2.4,9.5-5.3,14-8.8c-0.7,1.3-1.4,2.4-2.2,3.5c1.4-1,2.8-2,4.1-3.1c0.4-0.7,0.7-1.3,1.1-2c0.2,0.3,0.3,0.5,0.5,0.8
			c0.5-0.4,1-0.8,1.5-1.2l-0.3-0.6c0.3,0,0.7,0,1,0c0.8-0.6,1.6-1.3,2.4-2c-0.2,0-0.4,0-0.6,0c0.5-0.2,0.9-0.5,1.4-0.7
			c2.1-1.8,4.1-3.6,6.1-5.5c-2.2,1.3-4.5,2.6-6.9,3.7c4.2-4,8.1-8.5,11.5-13.2c0.8,0.5,1.4,1.1,1.9,1.8c0.1,0.2,0.3,0.5,0.4,0.8
			c0.5-0.5,0.9-1,1.4-1.5c0-0.1-0.1-0.1-0.1-0.2c-0.6-1-1.4-1.8-2.4-2.4c4.4-6.2,8.1-12.9,11-19.9c0.3,0.2,0.6,0.4,0.9,0.6
			c1.8,1.2,3.1,2.7,3.9,4.5c0.4-0.6,0.8-1.3,1.2-1.9c-1-1.6-2.3-3-4-4.2c-0.4-0.3-0.8-0.5-1.3-0.8c2.8-7,4.8-14.2,6-21.6
			c2,1.1,3.6,2.4,5,4c1.3,1.5,2.2,3.2,2.8,5.1c0.3-0.9,0.7-1.8,1-2.8c-0.6-1.3-1.4-2.5-2.3-3.6c-1.6-2-3.7-3.6-6.1-4.8
			c0.6-4.2,0.9-8.4,1-12.7c0-3-0.1-5.9-0.3-8.7c1,0.6,1.9,1.2,2.8,1.9c4.7,3.7,7.2,8.6,7.6,14.8c0.1,1.4,0.1,2.8,0.1,4.2
			c0.7-2.7,1.2-5.4,1.6-8.2c-0.7-8.2-2.6-16.4-5.7-24.3l0,0c0-0.1-0.1-0.2-0.1-0.2c-1.7-4.3-3.8-8.6-6.3-12.7
			c-2.5-4.2-5.4-8.1-8.4-11.7l0,0c-0.1-0.1-0.2-0.2-0.2-0.2c-6.4-7.5-13.9-13.7-22.2-18.5l0,0c-0.5-0.3-1-0.6-1.6-0.8
			c-0.7-0.4-1.3-0.7-2-1.1c-0.8-0.4-1.5-0.8-2.3-1.2l0,0c-7.4-3.6-15.3-6.1-23.3-7.5l0-0.1c-0.6-0.1-1.1-0.2-1.7-0.2
			c-13-2-26.4-1.1-39.3,2.9l0,0c-0.8,0.3-1.7,0.5-2.5,0.8c-0.7,0.2-1.4,0.5-2.1,0.8c-0.2,0.1-0.3,0.1-0.5,0.2
			c-4.8,1.8-9.5,4.1-14,6.8c-9,5.4-16.7,12.2-22.9,19.9l0,0c0,0,0,0.1-0.1,0.1c-3.2,3.9-6,8.1-8.4,12.5c-2.3,4.2-4.3,8.6-5.9,13.1
			c-0.3,0.7-0.6,1.5-0.8,2.2l0,0c-2,6.1-3.3,12.5-3.9,18.9c0.4,2.9,1,5.8,1.7,8.6c0.7-8.7,5.3-18.5,12.8-28.2c1,4.7,2.7,9.7,5,14.8
			c-3.5,4.3-6.4,8.6-8.8,12.8c-2.4,4.3-4.2,8.6-5.3,12.7c0.4,1.1,0.9,2.2,1.3,3.2c1.8-8.3,6.6-17.5,13.8-26.6
			c2.6,5.4,6,10.9,9.9,16.4c-3.5,4.3-6.4,8.6-8.7,12.8c-2.8,5-4.7,9.9-5.8,14.6c0.5,0.8,1,1.5,1.5,2.3c1.5-8.5,6.3-18.1,14.2-28
			c4.1,5.5,8.9,11,14.2,16.4c-3.1,3.9-5.7,7.8-7.8,11.5c-3.4,6.2-5.5,12.2-6.1,17.7c2.6,2.6,5.3,5.2,8.1,7.8
			c4.1,2.2,8.4,4.2,12.9,5.8c0,1.8,0.2,3.4,0.6,5c0.9,0.6,1.7,1.3,2.6,1.9c-0.8-1.9-1.1-4-1.2-6.2c6.9,2.3,14.3,4,21.9,4.8
			c0,0.5,0,1,0.1,1.5c0.4,3.9,2.3,7.1,5.4,9.4c-3.7,0.4-7.4,0.4-11,0.2c1.2,0.7,2.4,1.4,3.6,2C131.8,259,139.2,259.2,145.9,257.8
			 M62.9,155.8c-1.5,2.7-2.7,5.3-3.7,7.9c0.8-6.2,2.2-12.2,4.3-18.1c1.6-4.1,4-8.4,7.1-12.6c-0.4,3.4-0.2,7,0.4,10.8
			C67.8,147.8,65.1,151.8,62.9,155.8 M163.2,250c-0.9-0.5-1.6-1.2-2.2-2c-0.4-0.7-0.7-1.6-0.7-2.5c5.8-0.8,11.5-2.2,17-3.9
			C172.8,244.9,168.1,247.8,163.2,250 M163.6,110.6c3.1,4.2,6.1,9,8.9,14.3c0.4,0.7,0.7,1.4,1.1,2.1c-1.5,0.3-2.9,0.6-4.4,1
			c-13.9,3.4-28,9.5-41.2,17.3l-5.2-8.7c-1.7-2.9-3.3-5.5-4.8-7.9C133.3,119.6,149.2,113.4,163.6,110.6 M116.9,127
			c-3.1-5.2-5.7-9.5-7.8-12.9c14.1-8.4,28.7-14,42-16.7c3.8,3,7.5,6.7,11.1,11.3C147.9,111.7,132.3,117.9,116.9,127 M169.5,129.9
			c1.6-0.4,3.3-0.8,4.8-1.1c3,6.4,5.6,13.2,7.8,20.2c-13.9,2.9-28.5,8.9-42,16.8L128.9,147C141.8,139.3,155.9,133.3,169.5,129.9
			 M165.9,208.6c7.9-4.6,16.1-7.8,23.6-9.4c-0.1,3.5-0.2,6.9-0.5,10.2c-0.3,3.4-0.8,6.8-1.4,9.9c-4,0.9-8.2,2.5-12.3,4.9
			L165.9,208.6z M173.6,225.2c-4,2.5-7.5,5.5-10.1,8.6c-6.1-1.9-12.4-4.5-18.7-7.7c4.9-5.9,11.6-11.6,19.4-16.4l1.4,2.3
			C168.5,216.7,171.2,221.2,173.6,225.2 M164.9,207l-11-18.3c10.9-6.4,22.7-11.3,34-13.6c1,7.4,1.6,14.9,1.6,22.1
			C181.7,198.8,173.2,202.1,164.9,207 M152.9,187l-11.7-19.4c13.3-7.9,27.7-13.8,41.4-16.6c0,0,0.1,0,0.1,0
			c2.1,7.2,3.8,14.7,4.9,22.1C176.1,175.5,164,180.4,152.9,187 M176.4,128.5c14.6-2.7,26.8-1.8,35.5,2.2c2.5,6.1,4.2,12.7,5.1,19.7
			c-8.3-3.5-19.7-4.1-32.8-1.7C182,141.7,179.4,134.8,176.4,128.5 M151.2,188c-11,6.7-21.1,15.1-28.6,24.2c-1.9-1.4-3.8-2.9-5.7-4.4
			c-4.1-3.3-8-6.8-11.6-10.3c0,0,0.1-0.1,0.1-0.1c8.9-10.8,20.9-20.7,34.1-28.7L151.2,188z M152.2,189.7l11,18.3
			c-8.2,5-15.1,11-20.2,17.1c-6.3-3.3-12.6-7.3-18.8-11.8C131.6,204.4,141.4,196.3,152.2,189.7 M143.5,227.6
			c6.3,3.2,12.5,5.8,18.6,7.8c-0.4,0.5-0.7,1-1.1,1.5c-0.3,0.4-0.5,0.8-0.7,1.2c-1.1,2-1.8,3.9-2,5.7c-5.5,0.7-11.1,1-16.8,0.8
			c-2-0.1-3.9-0.2-5.9-0.4C136.2,239.1,139,233.3,143.5,227.6 M160.4,243.6c0.3-1.7,1.1-3.6,2.3-5.6c0.4-0.7,0.9-1.3,1.4-2
			c2.6,0.8,5.2,1.5,7.7,2c2.3,0.5,4.5,0.9,6.7,1.1C172.7,241.2,166.7,242.6,160.4,243.6 M172.3,236.1c-2.2-0.5-4.5-1-6.7-1.7
			c2.4-2.7,5.5-5.3,9.1-7.5c2.4,4,4.6,7.6,6.4,10.6C178.2,237.2,175.3,236.8,172.3,236.1 M182.6,236.4l-6.3-10.6
			c3.6-2.1,7.4-3.6,10.9-4.5C186,226.9,184.5,232,182.6,236.4 M185.2,235.1c1.6-4.3,3-9,4-14.1c0.8-0.1,1.6-0.3,2.4-0.3
			c2.3-0.2,4.4,0,6,0.5C193.9,226.2,189.8,230.9,185.2,235.1 M198.8,219.6c-2-0.8-4.5-1.1-7.3-0.9c-0.6,0-1.2,0.1-1.9,0.2
			c0.5-3,1-6.1,1.3-9.4c0.3-3.5,0.5-7.1,0.6-10.8c7.2-1.3,13.6-1.1,18.4,0.9C206.8,206.7,203.1,213.4,198.8,219.6 M210.5,197.9
			c-5-2.1-11.7-2.4-19.1-1.1c0-7.3-0.5-14.7-1.6-22.1c1-0.2,1.9-0.3,2.9-0.5c9.6-1.4,17.8-0.6,23.8,2.1
			C215.3,183.6,213.3,190.9,210.5,197.9 M216.8,174.2c-6.2-2.7-14.6-3.4-24.3-2c-1,0.1-1.9,0.3-2.9,0.5c-1.1-7.5-2.8-14.9-4.9-22.1
			c13.3-2.4,24.5-1.7,32.5,2c0.3,3.2,0.5,6.5,0.5,9.8C217.6,166.3,217.3,170.3,216.8,174.2 M223.8,142.8c2.2,5.6,3.8,11.3,4.8,17.1
			c-1.3-2.2-3.1-4.2-5.3-5.9c-1.3-1-2.7-1.9-4.2-2.7c-0.8-6.8-2.3-13.2-4.6-19.2C218.8,134.7,222,138.3,223.8,142.8L223.8,142.8z
			 M209.1,118.5c3.1,3.6,5.9,7.5,8.5,11.7c0.6,1,1.2,2,1.7,3c-1.7-1.5-3.7-2.8-5.9-3.9c-2.1-5-4.7-9.7-7.7-13.9
			C206.9,116.3,208,117.3,209.1,118.5 M210.7,128.1c-9-3.5-21.1-4.1-35.3-1.4c-0.4-0.9-0.9-1.8-1.3-2.6c-2.6-5.1-5.5-9.7-8.5-13.8
			c14.1-2.5,26.5-1.8,35.3,2.4C204.9,117.2,208.1,122.4,210.7,128.1 M185.6,99.4c4.5,2.7,8.7,6,12.4,9.7c-9-3.1-20.7-3.3-33.6-0.8
			c-3.4-4.5-7-8.3-10.7-11.3C166.3,94.8,177.5,95.5,185.6,99.4 M157.2,89.7c5.9,0.9,11.8,2.5,17.4,4.6c-6.8-0.9-14.6-0.5-23,1.1
			c-3.1-2.3-6.3-4.2-9.4-5.4C147.6,89.2,152.7,89.1,157.2,89.7 M149,95.9c-13,2.8-27.2,8.4-40.9,16.5c-2.1-3.5-3.7-6.1-4.8-8
			c11.6-6.9,23.8-11.6,34.9-13.8C141.8,91.6,145.4,93.4,149,95.9 M116.3,93.3c3.7-1.3,7.6-2.3,11.4-3v0c1.7-0.3,3.5-0.4,5.2-0.4
			c-10,2.5-20.5,6.9-30.7,12.9c-0.6-1-1.1-1.8-1.4-2.3C105.9,97.6,111.1,95.1,116.3,93.3 M75.4,123.5c0.6-1.1,1.3-2.2,2.2-3.2
			c2.5-3,5.1-5.9,8-8.6c4-3.7,8.7-7.2,13.6-10.2c0.3,0.5,0.8,1.3,1.4,2.3c-10,6.1-18.9,13.4-25.8,21C75,124.4,75.2,123.9,75.4,123.5
			 M73.1,129.8c7.1-8.8,17.1-17.3,28.6-24.3c1.2,2.1,2.9,4.8,4.8,8c-13.6,8.3-25.3,18.2-33.9,28.4C72.1,137.5,72.2,133.5,73.1,129.8
			 M73,144.4c8.5-10.5,20.4-20.7,34.5-29.3c2.2,3.7,4.8,8,7.8,12.9c-15.3,9.3-28.1,20.3-37.5,31.4C75.4,154.2,73.8,149.2,73,144.4
			 M78.7,161.6c9.3-11.3,22.1-22.5,37.5-31.8c1.5,2.5,3.1,5.2,4.8,7.9l5.2,8.7c-13.1,8-25.1,17.7-34.6,28.3c-1,1.2-2,2.3-3,3.5
			C84.6,172.5,81.3,167,78.7,161.6 M89.8,179.7c1-1.3,2.1-2.5,3.3-3.8c9.4-10.5,21.2-20.1,34.1-27.9l11.4,18.9
			c-13.4,8.1-25.5,18.2-34.6,29.2l0,0C98.6,190.7,93.9,185.2,89.8,179.7 M109.9,238.4c-7-2.6-13.4-5.9-19.3-9.8
			c0.5-8.8,5.1-19.1,13.5-29.6c3.6,3.5,7.5,7,11.6,10.3c1.9,1.5,3.8,3,5.7,4.4c-0.6,0.8-1.2,1.5-1.8,2.3c-1.8,2.4-3.3,4.8-4.6,7.1
			C112,228.5,110.3,233.7,109.9,238.4 M133.8,244c-7.7-0.9-15-2.5-21.9-4.9c0.4-6.5,3.6-14.2,9.3-22c0.6-0.8,1.2-1.5,1.8-2.3
			c6.2,4.5,12.5,8.4,18.8,11.8c-1.6,2.1-3.1,4.2-4.2,6.3C135.4,236.8,134.1,240.5,133.8,244 M135.8,247.2c0-0.4-0.1-0.7-0.1-1.1
			c1.9,0.2,3.9,0.3,5.9,0.4c5.7,0.2,11.3-0.1,16.8-0.7c0.1,1.2,0.4,2.3,1,3.2c0.5,0.8,1,1.4,1.7,2c-6.2,2.7-12.6,4.5-18.9,5.5
			c-0.5-0.2-0.9-0.5-1.3-0.8C137.9,253.7,136.1,250.9,135.8,247.2"/>
	</g>
	<g>
		<path class="st133" d="M252,144.6c-1-4.4-2.2-8.7-3.7-13.1c-1.4-4.3-3.1-8.5-5.1-12.7c-1.9-4.1-4-8.2-6.4-12.1
			c-2.3-3.9-4.8-7.8-7.6-11.6c-2.7-3.7-5.6-7.4-8.7-11c-3.1-3.5-6.3-7-9.8-10.4c-3.4-3.3-7-6.5-10.8-9.7c-3.7-3.1-7.6-6.1-11.7-9
			c-4-2.8-8.2-5.6-12.6-8.2c-4.3-2.6-8.7-5-13.3-7.4c-4-2-8.1-3.9-12.3-5.7c1-0.4,2-0.8,3-1.1c5.1-1.8,10.4-3.5,15.7-5
			c5.3-1.5,10.8-2.9,16.3-4.1c2.8-0.6,5.5-1.1,8.3-1.7c1.4-0.3,2.8-0.5,4.2-0.7c0.6-0.1,1.4-0.1,1.9-0.3c0.8-0.2,1.7-0.7,2.4-1.1
			c1.5-0.8,2.8-1.8,4.4-2.6c0.5-0.3,1.7-0.6,1.8-1.1c0.2-0.7-1.4-0.3-1.9-0.3c-1.9,0.2-3.9,0.4-5.8,0.7c-5.4,0.7-10.8,1.6-16.1,2.6
			c-5.3,1.1-10.6,2.3-15.7,3.7c-5.2,1.4-10.3,3-15.2,4.7c-3.4,1.2-6.6,2.4-9.9,3.7c-3.3-1.3-6.6-2.5-9.9-3.7c-5-1.7-10-3.3-15.2-4.7
			c-5.1-1.4-10.4-2.6-15.7-3.7c-5.3-1-10.7-1.9-16.1-2.6c-1.3-0.2-2.5-0.3-3.8-0.5c-0.6-0.1-1.3-0.1-1.9-0.2
			c-0.5-0.1-1.5-0.4-1.3,0.3c0.1,0.5,1.6,1.1,2.2,1.5c0.6,0.3,1.2,0.7,1.9,1.1c0.9,0.5,2,0.9,3,1.4c0.8,0.3,1.4,0.9,2.3,1.1
			c0.6,0.2,1.3,0.2,2,0.3c1.4,0.2,2.8,0.5,4.2,0.8c2.8,0.5,5.6,1.1,8.3,1.7c5.5,1.2,11,2.6,16.3,4.1c5.4,1.6,10.6,3.3,15.7,5.1
			c0.5,0.2,1.1,0.4,1.6,0.6c-4.2,1.8-8.4,3.7-12.4,5.8c-4.6,2.3-9.1,4.8-13.3,7.4c-4.4,2.6-8.6,5.3-12.6,8.2c-4.1,2.9-8,5.9-11.7,9
			c-3.8,3.1-7.4,6.4-10.8,9.7c-3.5,3.4-6.7,6.8-9.8,10.4c-3.1,3.6-6,7.3-8.7,11c-2.7,3.8-5.3,7.7-7.6,11.6c-2.3,4-4.5,8-6.4,12.1
			c-1.9,4.2-3.6,8.4-5.1,12.7c-1.5,4.3-2.7,8.7-3.7,13c-11.8,52.8,13.5,102.4,61,133c7.8-2.1,14.1-4.1,18.3-5.5
			C60.3,242.7,30.3,193.2,42,140.6c0.1-0.4,0.2-0.7,0.3-1.1c1-4.3,2.3-8.6,3.8-12.8c1.5-4.1,3.3-8.2,5.3-12.3c2-4,4.2-7.9,6.7-11.8
			c2.5-3.8,5.1-7.5,8.1-11.2c2.9-3.6,6-7.1,9.3-10.6c3.3-3.4,6.8-6.7,10.5-9.9c3.7-3.2,7.5-6.3,11.6-9.2c4-2.9,8.2-5.8,12.6-8.5
			c4.3-2.7,8.8-5.2,13.5-7.7c4.6-2.4,9.4-4.7,14.3-6.8c1.9-0.8,3.8-1.6,5.7-2.4c2.3,0.9,4.7,1.9,6.9,2.9c4.9,2.2,9.7,4.5,14.2,6.9
			c4.6,2.5,9.1,5.1,13.4,7.8c4.3,2.7,8.5,5.6,12.5,8.6c4,3,7.9,6.1,11.5,9.3c3.7,3.2,7.1,6.6,10.4,10c3.3,3.5,6.4,7,9.2,10.7
			c2.9,3.7,5.5,7.4,7.9,11.3c2.5,3.9,4.7,7.8,6.6,11.8c2,4.1,3.7,8.2,5.2,12.4c1.5,4.2,2.7,8.4,3.7,12.7
			c11.7,52.6-18.3,102.1-72.4,131.4c4.1,1.4,10.4,3.5,18.2,5.6C238.6,246.9,263.8,197.4,252,144.6"/>
	</g>
	<g>
		<path class="st134" d="M81.3,105.2l1,1.5l-0.8,0.8l-4.6-7l1.2-1.1l6.8,4.9l-0.9,0.8l-1.5-1.1L81.3,105.2z M78.6,101.1l2.1,3.1
			l0.9-0.9L78.6,101.1z"/>
	</g>
	<g>
		<rect x="82.7" y="96.1" transform="matrix(0.753 -0.658 0.658 0.753 -45.355 79.5816)" class="st134" width="1.2" height="8.2"/>
	</g>
	<g>
		<path class="st134" d="M88.6,101.1l-0.9,0.7l-5.1-6.4l1.5-1.2c0.5-0.4,1-0.6,1.5-0.6c0.6,0,1.2,0.4,1.7,1c0.6,0.8,0.8,1.6,0.5,2.3
			l3.2,2.2l-1,0.8l-2.9-2l-0.6,0.4L88.6,101.1z M86.1,97.3c0.4-0.3,0.5-0.5,0.6-0.8c0-0.3-0.1-0.6-0.4-1C86,95.2,85.7,95,85.4,95
			c-0.3,0-0.5,0.1-0.9,0.4l-0.3,0.3l1.6,1.9L86.1,97.3z"/>
	</g>
	<g>
		<path class="st134" d="M92.7,98l-1,0.7L87,92l1.6-1.1c0.6-0.4,1.1-0.6,1.6-0.5c0.6,0.1,1.1,0.5,1.6,1.2c0.5,0.7,0.7,1.3,0.6,1.9
			c-0.1,0.5-0.4,0.9-1,1.4l-0.6,0.5L92.7,98z M90.6,94c0.8-0.6,0.8-1,0.3-1.8c-0.6-0.8-1-0.9-1.8-0.3l-0.4,0.3l1.5,2.1L90.6,94z"/>
	</g>
	<g>
		<path class="st134" d="M98,91.4c0.5,0.8,0.7,1.3,0.7,1.9c0,0.6-0.4,1.2-1,1.5c-0.6,0.4-1.3,0.5-1.8,0.2c-0.5-0.2-0.9-0.6-1.4-1.4
			l-1.6-2.5c-0.5-0.8-0.7-1.3-0.7-1.9c0-0.6,0.4-1.2,1-1.5c0.6-0.4,1.3-0.5,1.8-0.2c0.5,0.2,0.9,0.6,1.4,1.4L98,91.4z M95.4,93
			c0.3,0.6,0.5,0.7,0.7,0.9c0.3,0.2,0.6,0.1,0.9,0c0.3-0.2,0.4-0.5,0.4-0.8c0-0.3-0.1-0.5-0.5-1l-1.6-2.5c-0.4-0.6-0.5-0.7-0.7-0.9
			c-0.3-0.2-0.6-0.1-0.9,0c-0.3,0.2-0.4,0.5-0.4,0.8c0,0.3,0.1,0.5,0.5,1L95.4,93z"/>
	</g>
	<g>
		<path class="st134" d="M101.3,92.5l-1,0.6l-4-7.2l1.6-0.9c0.6-0.3,1.1-0.4,1.6-0.3c0.6,0.1,1.1,0.6,1.5,1.3
			c0.5,0.9,0.5,1.7,0.1,2.4l2.8,2.7l-1.1,0.6l-2.5-2.5l-0.6,0.3L101.3,92.5z M99.4,88.3c0.4-0.2,0.6-0.4,0.7-0.7
			c0.1-0.3,0-0.6-0.2-1c-0.2-0.4-0.5-0.6-0.7-0.7c-0.3-0.1-0.5,0-0.9,0.2l-0.4,0.2l1.2,2.2L99.4,88.3z"/>
	</g>
	<g>
		<polygon class="st134" points="106.9,89.6 105.8,90.1 102.7,83.8 101.4,84.4 100.9,83.4 104.7,81.6 105.2,82.6 103.8,83.3 		"/>
	</g>
	<g>
		<path class="st134" d="M109.5,82c-0.5-0.7-1-0.9-1.4-0.7c-0.4,0.2-0.6,0.6-0.4,1.1c0.1,0.3,0.3,0.5,0.6,0.6
			c0.3,0.1,0.3,0.1,1.3,0.4c0.8,0.3,1.1,0.4,1.5,0.6c0.4,0.3,0.8,0.7,1,1.2c0.5,1.1,0,2.3-1.1,2.7c-1.2,0.5-2.2,0.1-3-1.2l0.9-0.8
			c0.5,0.9,1.1,1.2,1.7,0.9c0.5-0.2,0.7-0.7,0.5-1.2c-0.2-0.5-0.5-0.7-1.7-1c-1.3-0.4-1.4-0.4-1.8-0.7c-0.4-0.2-0.7-0.6-0.9-1.1
			c-0.5-1.1,0-2.2,1.1-2.6c1-0.4,2-0.1,2.8,1.1L109.5,82z"/>
	</g>
	<g>
		<path class="st134" d="M118.6,79.3l0-0.2c-0.3-0.9-0.7-1.3-1.3-1.1c-0.3,0.1-0.5,0.3-0.6,0.6c-0.1,0.3,0,0.5,0.2,1.2l0.8,2.6
			c0.2,0.6,0.3,0.9,0.5,1.1c0.2,0.3,0.5,0.4,0.9,0.3c0.4-0.1,0.6-0.5,0.6-1c0-0.2-0.1-0.4-0.2-1l1.2-0.3l0.1,0.3
			c0.5,1.7,0.1,2.8-1.3,3.2c-0.7,0.2-1.4,0.1-1.9-0.4c-0.4-0.4-0.6-0.8-1-2l-0.7-2.2c-0.4-1.2-0.4-1.7-0.2-2.3
			c0.2-0.6,0.7-1,1.3-1.2c1.3-0.4,2.3,0.3,2.7,1.8l0.1,0.2L118.6,79.3z"/>
	</g>
	<g>
		<path class="st134" d="M125.9,80.5c0.2,0.9,0.2,1.5,0,2c-0.2,0.6-0.7,1-1.4,1.1c-0.7,0.2-1.3,0-1.8-0.4c-0.4-0.4-0.7-0.9-0.9-1.8
			l-0.7-2.9c-0.2-0.9-0.2-1.5,0-2c0.2-0.6,0.7-1,1.4-1.1c0.7-0.2,1.3,0,1.8,0.4c0.4,0.4,0.7,0.9,0.9,1.8L125.9,80.5z M122.9,81.1
			c0.1,0.6,0.2,0.8,0.4,1.1c0.2,0.2,0.5,0.3,0.8,0.3c0.3-0.1,0.6-0.3,0.6-0.6c0.1-0.3,0-0.5-0.1-1.1l-0.7-2.9
			c-0.2-0.6-0.2-0.8-0.4-1.1c-0.2-0.2-0.5-0.3-0.8-0.3c-0.3,0.1-0.6,0.3-0.6,0.6c-0.1,0.3,0,0.5,0.1,1.1L122.9,81.1z"/>
	</g>
	<g>
		<path class="st134" d="M130.3,74l0.9,5.5c0.2,1,0.1,1.6-0.1,2.1c-0.3,0.5-0.8,0.9-1.4,1c-0.7,0.1-1.3,0-1.7-0.5
			c-0.4-0.4-0.6-0.9-0.8-1.9l-0.9-5.5l1.2-0.2l1,5.7c0.2,1,0.5,1.3,1.1,1.2c0.6-0.1,0.8-0.5,0.6-1.5l-1-5.7L130.3,74z"/>
	</g>
	<g>
		<polygon class="st134" points="137.2,81.5 136.1,81.6 133.5,76.4 134,81.8 132.9,81.9 132.1,73.8 133.3,73.7 135.7,78.5 
			135.2,73.5 136.3,73.3 		"/>
	</g>
	<g>
		<path class="st134" d="M141.1,75.8l0-0.2c0-0.9-0.4-1.4-1-1.4c-0.3,0-0.6,0.2-0.7,0.4c-0.1,0.3-0.2,0.5-0.1,1.2l0.1,2.7
			c0,0.6,0.1,0.9,0.2,1.2c0.1,0.3,0.4,0.5,0.8,0.5c0.4,0,0.7-0.3,0.8-0.8c0-0.2,0-0.4,0-1l1.2,0l0,0.3c0.1,1.8-0.6,2.7-2,2.8
			c-0.8,0-1.4-0.3-1.8-0.8c-0.3-0.5-0.4-1-0.5-2.2l-0.1-2.3c-0.1-1.3,0-1.8,0.4-2.3c0.3-0.5,0.9-0.8,1.6-0.8
			c1.3-0.1,2.1,0.8,2.2,2.5l0,0.2L141.1,75.8z"/>
	</g>
	<g>
		
			<rect x="140.2" y="76.6" transform="matrix(1.771844e-02 -0.9998 0.9998 1.771844e-02 64.63 220.1027)" class="st134" width="8.2" height="1.2"/>
	</g>
	<g>
		<polygon class="st134" points="147.4,80.2 149.8,80.3 149.8,81.4 146.2,81.3 146.6,73.1 147.7,73.1 		"/>
	</g>
	<g>
		
			<rect x="151.5" y="77.3" transform="matrix(0.1266 -0.9919 0.9919 0.1266 58.6335 222.3924)" class="st134" width="8.2" height="1.2"/>
	</g>
	<g>
		<polygon class="st134" points="161.2,82.9 160.1,82.8 159.1,77 158.1,82.4 157,82.2 158.4,74.1 159.6,74.3 160.6,79.7 161.5,74.7 
			162.6,74.9 		"/>
	</g>
	<g>
		<polygon class="st134" points="164.7,83.8 163.6,83.5 165.2,76.6 163.7,76.3 164,75.2 168.1,76.1 167.8,77.3 166.3,76.9 		"/>
	</g>
	<g>
		<polygon class="st134" points="172.4,78.6 170.2,78 169.6,80 171.2,80.5 170.9,81.6 169.3,81.2 168.6,83.6 170.8,84.2 170.4,85.4 
			167.1,84.4 169.4,76.5 172.8,77.5 		"/>
	</g>
	<g>
		<path class="st134" d="M172.4,86l-1.1-0.4l2.8-7.7l1.7,0.6c0.7,0.2,1,0.5,1.3,1c0.3,0.5,0.3,1.2,0,2c-0.3,1-0.9,1.5-1.7,1.7
			l-0.2,3.9l-1.2-0.4l0.2-3.5l-0.7-0.2L172.4,86z M174.4,81.9c0.5,0.2,0.7,0.2,1,0.1c0.3-0.1,0.5-0.4,0.6-0.8c0.2-0.4,0.2-0.8,0.1-1
			c-0.1-0.2-0.3-0.4-0.8-0.6l-0.4-0.1l-0.8,2.3L174.4,81.9z"/>
	</g>
	<g>
		<polygon class="st134" points="180.1,89.1 179.2,88.7 179.4,82.9 177.2,87.9 176.2,87.4 179.4,79.9 180.5,80.4 180.3,85.8 
			182.3,81.1 183.4,81.6 		"/>
	</g>
	<g>
		<path class="st134" d="M183.2,88.6l-1.1,1.4l-1-0.5l5-6.6l1.5,0.7l-2.3,8l-1.1-0.5l0.5-1.7L183.2,88.6z M186.1,84.7l-2.2,3
			l1.1,0.6L186.1,84.7z"/>
	</g>
	<g>
		<polygon class="st134" points="187.7,93 186.6,92.5 190.1,86.4 188.8,85.6 189.4,84.6 193,86.7 192.5,87.7 191.2,86.9 		"/>
	</g>
	<g>
		
			<rect x="188.4" y="90.6" transform="matrix(0.5296 -0.8482 0.8482 0.5296 13.2195 206.1297)" class="st134" width="8.2" height="1.2"/>
	</g>
	<g>
		<path class="st134" d="M196.8,95.8c-0.5,0.8-0.9,1.1-1.5,1.4c-0.6,0.2-1.2,0.1-1.8-0.3c-0.6-0.4-0.9-1-0.9-1.6
			c0-0.6,0.2-1.1,0.7-1.8L195,91c0.5-0.8,0.9-1.1,1.5-1.4c0.6-0.2,1.2-0.1,1.8,0.3c0.6,0.4,0.9,1,0.9,1.6c0,0.6-0.2,1.1-0.7,1.8
			L196.8,95.8z M194.3,94.1c-0.4,0.5-0.5,0.7-0.5,1c0,0.3,0.1,0.6,0.4,0.8c0.3,0.2,0.6,0.2,0.9,0.1c0.3-0.1,0.4-0.3,0.8-0.8l1.7-2.4
			c0.4-0.5,0.5-0.7,0.5-1c0-0.3-0.1-0.6-0.4-0.8c-0.3-0.2-0.6-0.2-0.9-0.1c-0.2,0.1-0.4,0.3-0.8,0.8L194.3,94.1z"/>
	</g>
	<g>
		<polygon class="st134" points="199.7,101.3 198.8,100.6 200.5,95.1 197.2,99.4 196.3,98.7 201.3,92.2 202.3,92.9 200.7,98.2 
			203.8,94.1 204.7,94.8 		"/>
	</g>
	<g>
		<path class="st134" d="M202.8,101.6l-1.4,1.1l-0.9-0.8l6.5-5.2l1.2,1.1L204,105l-0.9-0.8l0.9-1.6L202.8,101.6z M206.6,98.5
			l-2.9,2.3l0.9,0.8L206.6,98.5z"/>
	</g>
	<g>
		<polygon class="st134" points="206.3,105.7 208,107.3 207.2,108.2 204.7,105.7 210.4,99.8 211.2,100.7 		"/>
	</g>
	<g>
		<path class="st133" d="M103,170.6l-7.6,0l5.6-38.4l5.3,35.9c3-2.3,6.1-4.5,9.3-6.7l-8.6-49l-12,0l-13.5,78
			C87.6,183.7,94.8,177,103,170.6"/>
	</g>
	<g>
		<path class="st134" d="M81,193.4l-0.7,4.1v0.2l11.3,0l1.2-8.5l14.7-12.8l3,21.2l11.3,0l-5.8-33.5C102.2,173.3,90.4,183.3,81,193.4
			"/>
	</g>
	<g>
		<path class="st133" d="M131,151.9c0.6-0.4,1.2-0.7,1.9-1.1c2.9-1.6,5.9-3.1,8.8-4.6l-7.3-7.6l0-15.4l14,0l0,20.1l9-4.1
			c0.8-0.3,1.7-0.7,2.5-1l0-18c0-5.1-2.3-7.7-7-7.7l-23,0c-4.6,0-6.9,2.6-6.9,7.8l0,18.9c0,2.8,0.8,5,2.5,6.8L131,151.9z"/>
	</g>
	<g>
		<path class="st134" d="M143.5,148.2c-3.3,1.6-6.5,3.3-9.8,5.1c-0.3,0.2-0.6,0.4-0.9,0.5l15.6,16.4l0,16.7l-14,0l0-24.7l-11.4,7.4
			l0,20.3c0,5.2,2.3,7.8,6.9,7.8l23,0c4.6,0,6.9-2.6,6.9-7.8l0-20.3c0-2.9-0.8-5.2-2.5-6.9L143.5,148.2z"/>
	</g>
	<g>
		<path class="st134" d="M202.4,128.9c-3.7,0.6-7.5,1.3-11.4,2.1l0.1,40.3l-6-5l-0.7,0l0,11.6l6.7,5.6l0,3l-15.7,0l-0.1-51.3
			c-3.8,1.2-7.6,2.6-11.4,4l0.1,50.5c0,5.2,2.3,7.8,6.8,7.8l24.8,0c3.2,0,5.3-1.4,6.2-4.2l5.1,4.3l0.8,0l0-11.7l-5.2-4.1
			L202.4,128.9z"/>
	</g>
	<g>
		<path class="st133" d="M175.3,132.9l0-9.5l15.7,0l0,5.7c3.9-0.8,7.7-1.4,11.4-1.8l0-7c0-5.2-2.3-7.8-7-7.8l-24.7,0
			c-4.6,0-6.9,2.6-6.9,7.8l0,16.4C167.7,135.3,171.5,134,175.3,132.9"/>
	</g>
	<g>
		<path class="st135" d="M93.7,171.8c0,0,10.4-7.8,13-9.4c0.1-0.1,0.2-0.1,0.3-0.2c1.9-1.1,8.5-0.7,8.5-0.7s-22.3,14.8-34,29l4-7.3
			c0,0,3.2-7.5,3.5-7.6C89.1,175.5,93.7,171.8,93.7,171.8"/>
	</g>
	<g>
		<path class="st134" d="M216.9,287.8L216.9,287.8c-20.4-3.4-39.5-8.7-57.1-15.6c48.1-26.7,79-68.2,79-114.8
			c0-49.6-35.1-93.4-88.7-119.8c20.1-8.9,42.7-15.6,66.9-19.7v-3.9c-26.4,3.6-51.1,10.7-72.9,20.7c-21.8-10-46.5-17.1-72.9-20.7V18
			C95.5,22,118,28.8,138.1,37.6C84.5,64,49.5,107.8,49.5,157.4c0,46.6,30.9,88,79,114.8c-17.6,6.9-36.8,12.2-57.2,15.7v0
			c-10,1.2-20.4,2-30.9,2.2v12.4c10.5,0,20.9-0.6,30.9-1.7v0c26.4-3.6,51.1-10.7,72.9-20.7c21.8,9.9,46.4,17.1,72.8,20.7v0
			c9.8,1.1,20,1.7,30.3,1.8v-12.4C236.9,289.8,226.8,289,216.9,287.8 M56,152.9c0-46.2,34.7-87.1,88.1-112.5
			c53.4,25.4,88.2,66.3,88.2,112.5c0,46.2-34.7,87.1-88.1,112.5C90.7,240,56,199.1,56,152.9"/>
	</g>
	<g>
		<path class="st134" d="M114.9,226l6.9,0c0.1,0,0.1,0.1,0.1,0.1l0,4.3c0,0.1-0.1,0.1-0.1,0.1l-16.7,0.1c-0.1,0-0.2-0.1-0.1-0.2
			l8.2-10.4c1.2-1.6,2.1-2.8,2.6-3.8c0.5-1,0.8-1.9,0.8-2.8c0-0.9-0.3-1.7-0.9-2.3c-0.6-0.6-1.4-0.9-2.3-0.9c-1.1,0-1.9,0.4-2.3,1.2
			c-0.5,0.8-0.8,1.9-0.9,3.5c0,0.1-0.1,0.1-0.1,0.1l-5.2,0c-0.1,0-0.1-0.1-0.1-0.1c0-2.9,0.9-5.2,2.6-6.8c1.7-1.6,3.9-2.5,6.5-2.5
			c2.4,0,4.4,0.7,5.9,2.1c1.5,1.4,2.3,3.2,2.3,5.4c0,2.1-0.9,4.5-2.6,7.1l-1.5,2.1c-0.6,0.9-1.3,1.8-2.2,2.9L114.9,226z"/>
	</g>
	<g>
		<path class="st134" d="M136.5,205.6c2.9,0,5.2,1.1,7,3.3c1.7,2.2,2.6,5.2,2.6,8.9c0,4.4-0.9,7.6-2.8,9.7c-1.9,2.1-4.1,3.2-6.7,3.2
			c-2.9,0-5.2-1.1-7-3.3c-1.8-2.2-2.7-5.2-2.7-8.9c0-3.9,0.8-7,2.6-9.4c1.7-2.4,4-3.5,6.9-3.5H136.5z M141,218.4
			c0-2.5-0.4-4.4-1.2-5.9c-0.8-1.4-1.9-2.1-3.2-2.1c-1.4,0-2.5,0.7-3.3,2.1c-0.8,1.4-1.2,3.4-1.2,5.9c0,2.3,0.4,4.1,1.2,5.5
			c0.8,1.4,1.9,2.1,3.2,2.1c1.4,0,2.4-0.7,3.2-2.1C140.6,222.6,141,220.7,141,218.4"/>
	</g>
	<g>
		<path class="st134" d="M151.4,206l7.7,0c0.1,0,0.1,0.1,0.1,0.1l0.1,24.2c0,0.1-0.1,0.1-0.1,0.1l-5.1,0c-0.1,0-0.1-0.1-0.1-0.1
			l-0.1-19.7c0-0.1-0.1-0.1-0.1-0.1l-3.2,0c-0.1,0-0.1-0.1-0.1-0.2l0.9-4.2C151.3,206,151.4,206,151.4,206"/>
	</g>
	<g>
		<path class="st134" d="M46.1,315v-0.3c0-1.6-0.6-2.4-1.6-2.4c-0.6,0-1,0.2-1.2,0.7c-0.3,0.5-0.3,0.9-0.3,2v4.5c0,1,0.1,1.6,0.2,2
			c0.2,0.5,0.7,0.9,1.4,0.9c0.8,0,1.3-0.5,1.5-1.4c0.1-0.3,0.1-0.7,0.1-1.7h2.1v0.5c0,3-1.3,4.5-3.7,4.5c-1.4,0-2.5-0.5-3.1-1.5
			c-0.5-0.8-0.7-1.6-0.7-3.7v-3.8c0-2.2,0.2-2.9,0.8-3.8c0.6-0.8,1.6-1.3,2.9-1.3c2.3,0,3.7,1.6,3.7,4.2v0.4H46.1z"/>
	</g>
	<g>
		<path class="st134" d="M57.3,310.5v9.3c0,1.7-0.2,2.6-0.8,3.4c-0.6,0.8-1.6,1.2-2.8,1.2c-1.2,0-2.3-0.4-2.8-1.2
			c-0.6-0.8-0.8-1.7-0.8-3.4v-9.3h2.1v9.6c0,1.6,0.4,2.3,1.5,2.3c1.1,0,1.5-0.7,1.5-2.3v-9.6H57.3z"/>
	</g>
	<g>
		<path class="st134" d="M64.2,314.3c-0.3-1.4-0.9-2-1.8-2c-0.8,0-1.4,0.6-1.4,1.4c0,0.5,0.2,1,0.6,1.4c0.3,0.4,0.3,0.4,1.8,1.5
			c1.1,0.9,1.6,1.3,2,1.8c0.6,0.7,0.9,1.6,0.9,2.5c0,2.1-1.5,3.5-3.7,3.5c-2.3,0-3.7-1.2-4.1-3.8l2-0.6c0.3,1.6,1,2.5,2.1,2.5
			c0.9,0,1.6-0.6,1.6-1.6c0-0.9-0.4-1.4-2-2.7c-1.9-1.5-2-1.6-2.5-2.2c-0.5-0.6-0.8-1.4-0.8-2.3c0-2,1.5-3.4,3.6-3.4
			c1.9,0,3.3,1.2,3.8,3.4L64.2,314.3z"/>
	</g>
	<g>
		<polygon class="st134" points="71.6,324.2 69.5,324.2 69.5,312.5 66.9,312.5 66.9,310.5 74.3,310.5 74.3,312.5 71.6,312.5 		"/>
	</g>
	<g>
		<path class="st134" d="M82.1,319.8c0,1.5-0.2,2.5-0.8,3.2c-0.6,0.9-1.6,1.3-2.9,1.3c-1.3,0-2.3-0.5-2.9-1.3
			c-0.6-0.8-0.8-1.7-0.8-3.2v-5c0-1.5,0.2-2.5,0.8-3.2c0.6-0.9,1.6-1.3,2.9-1.3c1.3,0,2.3,0.5,2.9,1.3c0.6,0.8,0.8,1.7,0.8,3.2
			V319.8z M76.8,319.8c0,1.1,0.1,1.5,0.3,1.9c0.2,0.5,0.8,0.7,1.4,0.7c0.6,0,1.1-0.3,1.4-0.7c0.2-0.4,0.3-0.8,0.3-1.9v-4.9
			c0-1.1,0-1.4-0.3-1.9c-0.2-0.4-0.8-0.7-1.4-0.7c-0.6,0-1.1,0.3-1.4,0.7c-0.2,0.4-0.3,0.8-0.3,1.9V319.8z"/>
	</g>
	<g>
		<polygon class="st134" points="94,324.2 92,324.2 92,314.1 89.6,324.2 88.4,324.2 86.1,314.1 86.1,324.2 84.1,324.2 84.1,310.5 
			87.2,310.5 89.1,319.1 91,310.5 94,310.5 		"/>
	</g>
	<g>
		<polygon class="st134" points="102.3,312.5 98.2,312.5 98.2,316.1 101.2,316.1 101.2,318 98.2,318 98.2,322.2 102.3,322.2 
			102.3,324.2 96.1,324.2 96.1,310.5 102.3,310.5 		"/>
	</g>
	<g>
		<path class="st134" d="M105.8,324.2h-2.1v-13.7h3.3c1.2,0,2,0.2,2.7,0.8c0.8,0.7,1.2,1.7,1.2,3.1c0,1.7-0.6,2.9-1.8,3.5l2,6.2
			h-2.2l-1.8-5.6h-1.3V324.2z M106.6,316.6c0.9,0,1.3-0.1,1.6-0.4c0.3-0.3,0.5-0.9,0.5-1.7c0-0.7-0.2-1.3-0.5-1.6
			c-0.3-0.3-0.7-0.4-1.6-0.4h-0.8v4.2H106.6z"/>
	</g>
	<g>
		<polygon class="st134" points="123.7,312.5 119.6,312.5 119.6,316.1 122.6,316.1 122.6,318 119.6,318 119.6,322.2 123.7,322.2 
			123.7,324.2 117.5,324.2 117.5,310.5 123.7,310.5 		"/>
	</g>
	<g>
		<polygon class="st134" points="133.1,324.2 130.8,324.2 128.7,319.2 126.8,324.2 124.5,324.2 127.5,317 124.6,310.5 126.9,310.5 
			128.8,314.9 130.5,310.5 132.8,310.5 129.9,317 		"/>
	</g>
	<g>
		<path class="st134" d="M136.2,324.2h-2.1v-13.7h3.5c1.4,0,2.2,0.3,2.9,0.9c0.7,0.7,1.1,1.7,1.1,3.2c0,1.5-0.3,2.5-1.1,3.2
			c-0.6,0.6-1.5,0.9-2.9,0.9h-1.4V324.2z M137.1,316.7c1.7,0,2.2-0.5,2.2-2.1c0-1.6-0.5-2.1-2.2-2.1h-0.9v4.2H137.1z"/>
	</g>
	<g>
		<polygon class="st134" points="148.9,312.5 144.8,312.5 144.8,316.1 147.8,316.1 147.8,318 144.8,318 144.8,322.2 148.9,322.2 
			148.9,324.2 142.7,324.2 142.7,310.5 148.9,310.5 		"/>
	</g>
	<g>
		<path class="st134" d="M152.5,324.2h-2.1v-13.7h3.3c1.2,0,2,0.2,2.7,0.8c0.8,0.7,1.2,1.7,1.2,3.1c0,1.7-0.6,2.9-1.8,3.5l2,6.2
			h-2.2l-1.8-5.6h-1.3V324.2z M153.2,316.6c0.9,0,1.3-0.1,1.6-0.4c0.3-0.3,0.5-0.9,0.5-1.7c0-0.7-0.2-1.3-0.5-1.6
			c-0.3-0.3-0.7-0.4-1.6-0.4h-0.8v4.2H153.2z"/>
	</g>
	<g>
		<rect x="159.4" y="310.5" class="st134" width="2.1" height="13.7"/>
	</g>
	<g>
		<polygon class="st134" points="169.8,312.5 165.7,312.5 165.7,316.1 168.7,316.1 168.7,318 165.7,318 165.7,322.2 169.8,322.2 
			169.8,324.2 163.6,324.2 163.6,310.5 169.8,310.5 		"/>
	</g>
	<g>
		<polygon class="st134" points="178.8,324.2 176.9,324.2 173.3,315.1 173.3,324.2 171.2,324.2 171.2,310.5 173.4,310.5 176.8,319 
			176.8,310.5 178.8,310.5 		"/>
	</g>
	<g>
		<path class="st134" d="M185.6,315v-0.3c0-1.6-0.6-2.4-1.6-2.4c-0.6,0-1,0.2-1.2,0.7c-0.3,0.5-0.3,0.9-0.3,2v4.5c0,1,0.1,1.6,0.2,2
			c0.2,0.5,0.7,0.9,1.3,0.9c0.8,0,1.3-0.5,1.5-1.4c0.1-0.3,0.1-0.7,0.1-1.7h2.1v0.5c0,3-1.3,4.5-3.7,4.5c-1.4,0-2.5-0.5-3.1-1.5
			c-0.5-0.8-0.7-1.6-0.7-3.7v-3.8c0-2.2,0.2-2.9,0.8-3.8c0.6-0.8,1.6-1.3,2.9-1.3c2.3,0,3.7,1.6,3.7,4.2v0.4H185.6z"/>
	</g>
	<g>
		<polygon class="st134" points="195.3,312.5 191.3,312.5 191.3,316.1 194.3,316.1 194.3,318 191.3,318 191.3,322.2 195.3,322.2 
			195.3,324.2 189.2,324.2 189.2,310.5 195.3,310.5 		"/>
	</g>
	<g>
		<path class="st134" d="M203.3,321.2l-0.6,3h-2.1l2.6-13.7h2.9l2.8,13.7h-2.2l-0.6-3H203.3z M204.7,313.1l-1.1,6.1h2.2L204.7,313.1
			z"/>
	</g>
	<g>
		<polygon class="st134" points="217,324.2 215.2,314.9 213.6,324.2 211.6,324.2 209,310.5 211.1,310.5 212.6,319.3 214.3,310.5 
			216.1,310.5 217.9,319.3 219.3,310.5 221.3,310.5 218.9,324.2 		"/>
	</g>
	<g>
		<path class="st134" d="M223.8,321.2l-0.6,3h-2.1l2.6-13.7h2.9l2.8,13.7h-2.2l-0.6-3H223.8z M225.3,313.1l-1.1,6.1h2.2L225.3,313.1
			z"/>
	</g>
	<g>
		<path class="st134" d="M232.6,324.2h-2.1v-13.7h3.3c1.2,0,2,0.2,2.7,0.8c0.8,0.7,1.2,1.7,1.2,3.1c0,1.7-0.6,2.9-1.8,3.5l2,6.2
			h-2.2l-1.8-5.6h-1.3V324.2z M233.4,316.6c0.9,0,1.3-0.1,1.6-0.4c0.3-0.3,0.5-0.9,0.5-1.7c0-0.7-0.2-1.3-0.5-1.6
			c-0.3-0.3-0.7-0.4-1.6-0.4h-0.8v4.2H233.4z"/>
	</g>
	<g>
		<path class="st134" d="M239.6,310.5h3.3c2.7,0,3.9,1.4,3.9,4.3v5.1c0,2.9-1.3,4.3-3.9,4.3h-3.3V310.5z M242.7,322.2
			c1.5,0,2-0.8,2-2.9v-3.9c0-2.1-0.5-2.9-2-2.9h-1v9.8H242.7z"/>
	</g>
	<g>
		<g>
			<path class="st134" d="M171.1,231.7l-2.4-2.5c3.5-1.9,5.9-4.4,7.4-7.5c-0.8,0.3-1.7,0.5-2.9,0.5c-2.4,0-4.3-0.7-5.7-2.2
				c-1.4-1.5-2.2-3.5-2.2-6c0-2.5,0.7-4.5,2.2-6.1c1.5-1.5,3.3-2.3,5.6-2.3c5.9,0,8.8,3.7,8.8,11c0,3.1-1.1,6.2-3.4,9.3
				C176.2,229.1,173.7,231,171.1,231.7z M169.8,213.9c0,1.4,0.3,2.5,1,3.3c0.7,0.8,1.5,1.2,2.5,1.2c2.6,0,3.8-1.4,3.8-4.3
				c0-3.1-1.3-4.7-3.9-4.7c-1.1,0-1.9,0.4-2.5,1.2C170.2,211.4,169.8,212.5,169.8,213.9z"/>
			<path class="st134" d="M171,232l-2.7-2.8l0.3-0.1c3.2-1.8,5.6-4.1,7-6.9c-0.7,0.2-1.5,0.3-2.5,0.3c-2.4,0-4.4-0.8-5.9-2.3
				c-1.5-1.5-2.2-3.6-2.2-6.1c0-2.5,0.8-4.6,2.3-6.2c1.5-1.6,3.4-2.4,5.7-2.4c6,0,9,3.8,9,11.3c0,3.1-1.2,6.3-3.4,9.4
				c-2.3,3.2-4.8,5.1-7.5,5.8L171,232z M169.1,229.3l2.1,2.2c2.5-0.7,4.9-2.6,7.1-5.6c2.2-3.1,3.3-6.2,3.3-9.2
				c0-7.3-2.8-10.8-8.5-10.8c-2.2,0-4,0.8-5.4,2.2c-1.4,1.5-2.1,3.5-2.1,5.9c0,2.4,0.7,4.4,2.1,5.8c1.4,1.4,3.2,2.1,5.5,2.1
				c1.2,0,2.1-0.2,2.8-0.5l0.6-0.3l-0.3,0.6C174.9,224.8,172.4,227.3,169.1,229.3z M173.4,218.6c-1.1,0-2-0.4-2.7-1.3
				c-0.7-0.8-1-2-1-3.5c0-1.4,0.3-2.6,1-3.4c0.7-0.8,1.6-1.3,2.7-1.3c2.7,0,4.1,1.6,4.1,4.9C177.4,217.1,176.1,218.6,173.4,218.6z
				 M173.3,209.7c-1,0-1.8,0.4-2.4,1.1c-0.6,0.7-0.9,1.8-0.9,3.1c0,1.3,0.3,2.4,0.9,3.2c0.6,0.8,1.4,1.1,2.4,1.1
				c2.4,0,3.6-1.3,3.6-4.1C177,211.1,175.8,209.7,173.3,209.7z"/>
		</g>
	</g>
</g>
</svg>
