<?xml version="1.0" encoding="utf-8"?>
<!-- Generator: Adobe Illustrator 24.1.2, SVG Export Plug-In . SVG Version: 6.00 Build 0)  -->
<svg version="1.1" id="Camada_1" xmlns="http://www.w3.org/2000/svg" xmlns:xlink="http://www.w3.org/1999/xlink" x="0px" y="0px"
	 viewBox="0 0 355 272.3" style="enable-background:new 0 0 355 272.3;" xml:space="preserve">
<style type="text/css">
	.st0{fill:#007AC0;}
</style>
<path class="st0" d="M72,64.4c-0.9,0-1.8-0.5-2.3-1.3c-0.7-1.3-0.3-2.9,1-3.6l30.5-17.6c0.8-0.5,1.8-0.5,2.6,0l8.4,4.8
	c1.3,0.7,1.7,2.3,1,3.6c-0.7,1.3-2.3,1.7-3.6,1l-7.1-4.1L73.3,64C72.9,64.2,72.5,64.4,72,64.4L72,64.4z"/>
<path class="st0" d="M105,91.6c-0.4,0-0.7-0.1-1.1-0.2L80.3,80.5c-1.3-0.6-1.9-2.2-1.3-3.5c0.6-1.3,2.2-1.9,3.5-1.3l21,9.7l9.7-28.7
	c0.5-1.4,1.9-2.1,3.3-1.6c1.4,0.5,2.1,1.9,1.6,3.3l-10.6,31.4c-0.2,0.7-0.8,1.3-1.4,1.6C105.7,91.6,105.3,91.6,105,91.6L105,91.6z"
	/>
<path class="st0" d="M300.1,147.6c-0.4,0-0.9-0.1-1.3-0.3l-11.2-6.3c-1.3-0.7-1.7-2.3-1-3.6c0.7-1.3,2.3-1.7,3.6-1l11.2,6.3
	c1.3,0.7,1.7,2.3,1,3.6C301.9,147.1,301,147.6,300.1,147.6L300.1,147.6z"/>
<path class="st0" d="M291.9,170.1c-1.3,0-2.5-0.3-3.6-0.9c-2.5-1.4-3.9-4.3-3.9-7.9c0-6.4,4.4-14,10-17.4c3.3-1.9,6.4-2.1,8.9-0.6
	c2.5,1.4,3.8,4.2,3.8,7.9c0,6.7-4.3,14.2-10,17.4C295.3,169.6,293.6,170.1,291.9,170.1L291.9,170.1z M299.7,147.5
	c-0.7,0-1.7,0.3-2.7,0.9c-4,2.4-7.4,8.3-7.4,12.9c0,1.7,0.5,2.9,1.3,3.4c0.8,0.4,2.1,0.2,3.5-0.6c0,0,0,0,0,0
	c4.1-2.3,7.4-8.1,7.4-12.9c0-1.7-0.4-3-1.2-3.4C300.4,147.6,300.1,147.5,299.7,147.5L299.7,147.5z"/>
<path class="st0" d="M205.8,141.1c-0.7,0-1.5-0.3-2-0.9c-0.9-1.1-0.8-2.7,0.3-3.7l93.7-81c0.8-0.7,2.1-0.8,3-0.3l20.8,12
	c1.3,0.7,1.7,2.3,1,3.6c-0.7,1.3-2.3,1.7-3.6,1l-19.2-11.1l-92.3,79.8C207,140.9,206.4,141.1,205.8,141.1L205.8,141.1z"/>
<path class="st0" d="M267.4,175.4c-0.5,0-1-0.1-1.5-0.4c-1.2-0.8-1.5-2.4-0.7-3.6c1.5-2.3,3-4.6,4.5-6.9c1.5-2.3,3-4.6,4.5-7
	c2-3.4,4.2-6.9,6.3-10.3c2-3.2,4.1-6.6,6.1-9.8c6.1-9.6,12.2-19.3,18.1-28.7c5.9-9.4,12-19.1,18-28.6c0.8-1.4,1-2.7,0.5-3.9
	c0-0.1-0.1-0.2-0.1-0.3c-0.4-1.3-1.9-2.8-4.1-4c-1.3-0.7-1.7-2.3-1-3.6c0.7-1.3,2.3-1.7,3.6-1c3.4,1.9,5.6,4.3,6.5,6.9
	c1.2,2.7,0.9,5.7-0.8,8.6c-6.1,9.6-12.2,19.3-18.1,28.7c-5.9,9.4-12,19.1-18.1,28.7c-2,3.2-4,6.6-6.1,9.8c-2.1,3.4-4.3,6.9-6.3,10.3
	c-1.6,2.4-3.1,4.7-4.5,7c-1.5,2.3-3,4.7-4.6,7C269.1,175,268.3,175.4,267.4,175.4L267.4,175.4z"/>
<path class="st0" d="M34.7,86.2c-0.7,0-1.4-0.3-1.9-0.8c-2.3-2.3-3.3-5.9-2.9-10c0-0.6,0.1-1.1,0.2-1.6c0-0.2,0.1-0.5,0.1-0.6
	c0-0.5,0.2-1.1,0.5-1.5l0,0c0.1-0.1,0.1-0.3,0.2-0.5c0.1-0.4,0.3-0.9,0.6-1.2c1.3-3.4,3.2-6,5.9-7.6c1.2-0.8,2.9-0.4,3.6,0.8
	c0.8,1.2,0.4,2.9-0.8,3.6c-1.7,1.1-3,2.9-3.9,5.4c-0.1,0.2-0.2,0.4-0.3,0.6c-0.1,0.2-0.2,0.5-0.3,0.7v0c0,0.1-0.1,0.3-0.2,0.5
	c0,0.3-0.1,0.6-0.1,0.9c0,0.3-0.1,0.5-0.1,0.7c0,0.1,0,0.2,0,0.3c-0.3,2.6,0.3,4.8,1.4,6c1,1,1,2.7,0,3.7C36,86,35.3,86.2,34.7,86.2
	L34.7,86.2z M36,72L36,72L36,72L36,72z"/>
<path class="st0" d="M318.8,205.7c-0.5,0-0.9-0.1-1.3-0.4L266.1,175l-6.2-3.8l-27.6-16l-72.7-38.2L80.3,80.5
	c-1.3-0.6-1.9-2.2-1.3-3.5c0.6-1.3,2.2-1.9,3.5-1.3l79.4,36.6c0,0,0.1,0,0.1,0.1l72.8,38.3l27.8,16l6.3,3.8l11.5,6.8l39.8,23.6
	c1.3,0.7,1.7,2.3,0.9,3.6C320.5,205.3,319.7,205.7,318.8,205.7L318.8,205.7z"/>
<path class="st0" d="M347.4,267.9c-0.9,0-1.8-0.5-2.2-1.3c-0.7-1.2-0.3-2.9,0.9-3.6c2.9-1.7,3.5-2.5,3.7-4.5v-6.6
	c0-9.3-0.7-13.3-15.5-29.5c-1.1-1.1-2.2-2.5-3.5-4.2c-3.1-4-7-9-13.3-12.8c-1.2-0.7-1.6-2.4-0.9-3.6c0.7-1.2,2.4-1.6,3.6-0.9
	c7.1,4.4,11.5,10,14.8,14.1c1.2,1.5,2.2,2.9,3.2,3.8c14.9,16.4,16.9,21.5,16.9,33.1v6.7c0,0.1,0,0.2,0,0.2c-0.4,4.8-3.1,6.8-6.2,8.7
	C348.3,267.7,347.9,267.9,347.4,267.9L347.4,267.9z M352.4,258.6L352.4,258.6L352.4,258.6L352.4,258.6z"/>
<path class="st0" d="M333,272.3c-0.7,0-1.4,0-2.2,0c-0.1,0-0.2,0-0.2,0c-3.3-0.4-5-0.9-7.8-1.6l-0.9-0.2c-9.6-2.5-19.8-5.3-29.2-8.7
	c0,0-0.1,0-0.1-0.1c-2.9-1.2-6.3-2.8-10.2-5c-1.3-0.7-1.7-2.3-1-3.6c0.7-1.3,2.3-1.7,3.6-1c3.6,2.1,6.9,3.5,9.6,4.7
	c9.2,3.3,18.8,5.9,28.6,8.5l0.9,0.2c2.8,0.7,4.2,1.1,7.1,1.5c4.5,0.2,7.9-0.2,12.6-2.6c1.3-0.6,2.9-0.1,3.5,1.2
	c0.6,1.3,0.1,2.9-1.2,3.5C341.2,271.6,337.4,272.3,333,272.3L333,272.3z"/>
<path class="st0" d="M283.6,257c-0.4,0-0.9-0.1-1.3-0.4l-64.7-37.3l-18.4-10.7c-1.3-0.7-1.7-2.3-0.9-3.6s2.3-1.7,3.6-0.9l18.4,10.7
	l64.7,37.3c1.3,0.7,1.7,2.3,1,3.6C285.4,256.5,284.5,257,283.6,257L283.6,257z"/>
<path class="st0" d="M34.7,86.2c-0.7,0-1.4-0.3-1.9-0.8c-2.3-2.3-3.3-5.9-2.9-10c0-0.6,0.1-1.1,0.2-1.6c0-0.2,0.1-0.5,0.1-0.6
	c0-0.5,0.2-1.1,0.5-1.5l0,0c0-0.1,0.1-0.2,0.1-0.3v-0.1c0-1.5,1.2-2.6,2.6-2.6c0.3,0,0.6,0.1,0.9,0.2c0.6,0.1,1.2,0.5,1.6,1.1
	c1.5,2.2,4,5,7.1,8.1c1,1,1.1,2.7,0,3.7c-1,1-2.7,1.1-3.7,0c-1.6-1.6-3.1-3.1-4.4-4.5c0,2,0.5,3.6,1.5,4.6c1,1,1,2.7,0,3.7
	C36,86,35.3,86.2,34.7,86.2L34.7,86.2z M35.8,70.2c0.1,0.3,0.2,0.7,0.2,1C36,70.9,36,70.5,35.8,70.2L35.8,70.2z"/>
<path class="st0" d="M156,170c-0.8,0-1.5-0.4-2-1c0,0,0,0,0,0c-28.9-18.2-61-41.3-88.3-63.6c-1.1-0.9-1.3-2.6-0.4-3.7
	c0.9-1.1,2.6-1.3,3.7-0.4c27.1,22.2,59.1,45.3,87.8,63.3c0,0,0.1,0.1,0.1,0.1c1.2,0.7,1.7,1.6,1.7,2.7
	C158.6,168.8,157.5,170,156,170L156,170z M153.4,167.4L153.4,167.4L153.4,167.4L153.4,167.4z"/>
<path class="st0" d="M347.4,267.9c-0.9,0-1.8-0.5-2.2-1.3c-0.7-1.2-0.3-2.9,0.9-3.6c2.9-1.7,3.5-2.5,3.7-4.5v0
	c-0.2,0.1-0.4,0.3-0.6,0.4c0,0-0.1,0-0.1,0.1c-3,1.7-6.8,2.5-11.5,2.5c-21.4,0-61-17.9-124.3-55.8c-1.2-0.7-1.6-2.4-0.9-3.6
	c0.7-1.2,2.4-1.6,3.6-0.9c34.4,20.6,61.1,34.9,81.7,43.8c24.5,10.6,41,13.8,48.8,9.4c1.9-1.2,2-1.4,3.2-3c0.2-0.3,0.4-0.6,0.7-1
	c0.7-0.9,1.8-1.3,2.9-1c1.1,0.3,1.8,1.4,1.8,2.5v6.7c0,0.1,0,0.2,0,0.2c-0.4,4.8-3.1,6.8-6.2,8.7
	C348.3,267.7,347.9,267.9,347.4,267.9L347.4,267.9z"/>
<path class="st0" d="M322.5,236.8c-0.9,0-1.8-0.5-2.3-1.3c-0.7-1.3-0.3-2.9,0.9-3.6c5-3,7.8-5.7,8.3-8.3c0.5-2.1-0.4-4.6-2-7.2
	c-0.2,0.4-0.5,0.8-0.8,1.3c-5.3,7.5-20.3,15.2-33.3,14.2c-1.4-0.1-2.5-1.4-2.4-2.8c0.1-1.4,1.4-2.5,2.8-2.4
	c10.8,0.8,24.3-5.8,28.7-12c0.9-1.2,1.7-3,1.1-4.4c-0.5-1.2-0.1-2.7,1.1-3.3c1.2-0.7,2.7-0.3,3.4,0.8c4,5.8,7.8,11.3,6.6,17
	c-0.9,4.2-4.4,7.9-10.8,11.7C323.4,236.7,322.9,236.8,322.5,236.8L322.5,236.8z"/>
<path class="st0" d="M246.3,210.7c-0.4,0-0.7-0.1-1.1-0.2c0,0,0,0,0,0c-0.4-0.1-0.7-0.2-1.1-0.4c-0.2-0.1-0.4-0.2-0.7-0.4
	c-0.1,0-0.2-0.1-0.2-0.1c-0.1,0-0.2-0.1-0.3-0.2c-1.8-1.2-3.6-4-3.6-6.7v-4.5c0-0.8,0.4-1.5,1-2c0.6-0.5,1.4-0.7,2.2-0.5
	c0.5,0.1,1,0.2,1.6,0.5c0.1,0,0.2,0.1,0.3,0.1c0.3,0.1,0.5,0.3,0.6,0.4c0.2,0.1,0.4,0.2,0.6,0.3c1.8,1.2,3.7,4,3.7,6.7v3.6
	c0,0.4,0,1.8-1.2,2.8C247.5,210.5,246.9,210.7,246.3,210.7L246.3,210.7z M244.4,210c0,0,0.1,0.1,0.1,0.1
	C244.5,210.1,244.5,210,244.4,210L244.4,210L244.4,210z M243.6,208.1c0,0.5,0.2,1,0.4,1.4l0,0C243.8,209.1,243.6,208.6,243.6,208.1
	L243.6,208.1z M243.6,208.1L243.6,208.1L243.6,208.1L243.6,208.1z"/>
<path class="st0" d="M230.1,201.3c-0.8,0-1.4-0.2-1.8-0.4l-0.1-0.1c-0.2-0.1-0.4-0.2-0.5-0.3c-0.1-0.1-0.2-0.1-0.3-0.2
	c-0.2-0.1-0.4-0.2-0.6-0.4c-2-1.3-3.6-4.2-3.6-6.6v-4.5c0-1.4,1.2-2.6,2.6-2.6c0.8,0,1.4,0.2,1.9,0.5l0.3,0.1
	c0.2,0.1,0.4,0.2,0.6,0.4c0,0,0,0,0,0c0.2,0.1,0.4,0.2,0.5,0.2c0.1,0,0.1,0.1,0.2,0.1c1.8,1.2,3.7,4,3.7,6.6v3.5c0,0.5,0,2-1.4,3
	C231.2,201.2,230.6,201.3,230.1,201.3L230.1,201.3z M229.6,189.3L229.6,189.3L229.6,189.3L229.6,189.3z M229.6,188.9
	c0,0.1,0,0.3,0,0.4C229.6,189.2,229.6,189.1,229.6,188.9L229.6,188.9z"/>
<path class="st0" d="M213.9,192c-1,0-1.9-0.5-2.3-0.7c-0.3-0.2-0.7-0.4-1.1-0.7c-1.7-1.1-3.6-3.8-3.6-6.6v-4.4
	c0-1.5,1.2-2.6,2.6-2.6c0.8,0,1.6,0.2,2.3,0.6c0.5,0.2,0.9,0.4,1.4,0.7c1.8,1.2,3.6,4,3.6,6.6v3.5c0,0.5,0,1.9-1.3,3
	C215.1,191.8,214.5,192,213.9,192L213.9,192z M207.9,180c0,0.2,0,0.5,0.1,0.7C207.9,180.4,207.9,180.2,207.9,180L207.9,180z
	 M207.9,180L207.9,180L207.9,180L207.9,180z M207.9,180L207.9,180L207.9,180L207.9,180z"/>
<path class="st0" d="M197.7,182.7c-0.2,0-0.3,0-0.5,0c-0.4-0.1-1.1-0.2-1.9-0.7l-0.2-0.1c-0.1-0.1-0.2-0.1-0.3-0.2
	c-0.2-0.1-0.3-0.1-0.4-0.2c-2.1-1.3-3.7-4.3-3.7-6.7v-4.5c0-0.8,0.4-1.6,1.1-2.1c0.7-0.5,1.5-0.6,2.3-0.4l0.2,0.1
	c0.3,0.1,0.6,0.2,1.1,0.3c0.1,0,0.2,0.1,0.3,0.1c0.5,0.3,0.9,0.6,1.2,0.9c2.1,1.4,3.6,4.1,3.6,6.5v3.5c0,0.4,0,1.7-1.2,2.8
	C199,182.5,198.4,182.7,197.7,182.7L197.7,182.7z M198.3,177.6C198.3,177.6,198.3,177.6,198.3,177.6S198.3,177.6,198.3,177.6
	L198.3,177.6z M192.6,171.2L192.6,171.2L192.6,171.2L192.6,171.2z M192.6,171.2L192.6,171.2L192.6,171.2L192.6,171.2z M192.6,171.2
	L192.6,171.2L192.6,171.2L192.6,171.2z M192.6,171.2L192.6,171.2L192.6,171.2L192.6,171.2z M192.6,171.2L192.6,171.2L192.6,171.2
	L192.6,171.2z M192.6,171.2L192.6,171.2L192.6,171.2L192.6,171.2z M192.6,171.2L192.6,171.2L192.6,171.2L192.6,171.2z M192.6,171.2
	L192.6,171.2L192.6,171.2L192.6,171.2z M197.9,171.1L197.9,171.1L197.9,171.1L197.9,171.1z"/>
<path class="st0" d="M166,164.3c-0.2,0-0.3,0-0.5,0c-0.4-0.1-1-0.2-1.7-0.6c-0.2-0.1-0.4-0.2-0.6-0.3c-0.1-0.1-0.2-0.1-0.2-0.1
	c-2.4-1.3-4.2-4.2-4.2-6.8v-3.6c0-0.7,0.2-1.3,0.4-1.6c0.1-0.5,0.4-1,0.9-1.4c0.6-0.5,1.4-0.7,2.2-0.5c0.4,0.1,1.1,0.3,1.7,0.7
	c0.2,0.1,0.3,0.2,0.5,0.3c0.1,0.1,0.2,0.1,0.3,0.2c0,0,0,0,0,0c2.6,1.3,3.9,4.4,3.9,6.8v4.5c0,0.8-0.3,1.5-1,2
	C167.2,164.1,166.6,164.3,166,164.3L166,164.3z M161.1,154.3L161.1,154.3L161.1,154.3L161.1,154.3z M159,151.8L159,151.8L159,151.8
	L159,151.8z"/>
<path class="st0" d="M149.8,154.9c-0.8,0-1.4-0.3-1.8-0.4l-0.1-0.1c-0.2-0.1-0.4-0.2-0.6-0.3c-0.1-0.1-0.2-0.1-0.3-0.2
	c-0.1-0.1-0.3-0.2-0.5-0.3c-2.3-1.3-4.1-4.1-4.1-6.7v-3.5c0-0.7,0.3-1.3,0.4-1.6c0.3-1.1,1.3-1.9,2.5-1.9c1,0,1.7,0.4,2.2,0.7
	c0.4,0.2,0.7,0.4,1.1,0.6c2.6,1.4,3.7,4.4,3.7,6.7v4.4C152.4,153.7,151.2,154.9,149.8,154.9L149.8,154.9z M142.8,142.5L142.8,142.5
	L142.8,142.5L142.8,142.5z"/>
<path class="st0" d="M160.1,244.3h-0.3c-0.5,0-0.9-0.1-1.3-0.4l-32-18.5c-1.3-0.7-1.7-2.3-1-3.6c0.7-1.3,2.3-1.7,3.6-1l31.5,18.2
	c1.2,0.2,2.2,1.3,2.2,2.6C162.7,243.1,161.5,244.3,160.1,244.3L160.1,244.3z"/>
<path class="st0" d="M163.6,246.4c-0.7,0-1.4-0.1-2-0.3c-1.7-0.5-3-1.6-3.9-3.2c-0.7-1.3-0.2-2.9,1.1-3.5c1.3-0.7,2.9-0.2,3.5,1.1
	c0.2,0.4,0.5,0.6,0.7,0.6c0.7,0.2,1.9-0.1,3.1-0.8c4-2.2,7.4-8.1,7.4-12.8c0-3.4-1.4-3.6-2-3.6c-1.4-0.1-2.5-1.4-2.4-2.8
	c0.1-1.4,1.4-2.5,2.8-2.4c4.2,0.4,6.7,3.7,6.7,8.8c0,6.6-4.4,14.3-10.1,17.4C167,245.9,165.2,246.4,163.6,246.4L163.6,246.4z"/>
<path class="st0" d="M171.9,223.9c-0.6,0-1.2-0.2-1.7-0.6l-10.8-6.4c-1.2-0.7-1.7-2.3-0.9-3.6c0.7-1.3,2.3-1.7,3.6-0.9l11.2,6.6
	c0.8,0.5,1.3,1.3,1.3,2.3C174.5,222.7,173.3,223.9,171.9,223.9L171.9,223.9z"/>
<path class="st0" d="M49.4,239.7c-5.6,0-10.9-1.3-15.2-3.7c-1.3-0.7-1.7-2.3-1-3.6c0.7-1.3,2.3-1.7,3.6-1c5,2.9,12.1,3.8,19,2.3
	l51.9-10.8c36.9-7.7,73.8-15.4,110.9-23.1c1.4-0.3,2.8,0.6,3.1,2c0.3,1.4-0.6,2.8-2,3.1c-37.1,7.7-74,15.4-110.9,23.1L57,238.9
	C54.5,239.4,51.9,239.7,49.4,239.7L49.4,239.7z"/>
<path class="st0" d="M35.6,236.3c-0.4,0-0.9-0.1-1.3-0.3l-20.9-12c-0.9-0.5-1.4-1.5-1.3-2.5c0.1-1,0.7-1.9,1.7-2.2l142.5-54.9
	c0.7-0.3,1.6-0.2,2.2,0.2l61.9,35.6c1.3,0.7,1.7,2.3,1,3.6c-0.7,1.3-2.3,1.7-3.6,1l-60.8-35L20.8,222.2l16.1,9.2
	c1.3,0.7,1.7,2.3,1,3.6C37.4,235.9,36.5,236.3,35.6,236.3L35.6,236.3z"/>
<path class="st0" d="M11,109.4c-0.4,0-0.9-0.1-1.3-0.3l-8.4-4.7C0.5,103.9,0,103,0,102.1c0-0.9,0.5-1.8,1.3-2.3l42.3-24.4
	c0.9-0.5,2-0.5,2.9,0.2l32.7,24.2c1.2,0.9,1.4,2.5,0.5,3.7c-0.9,1.2-2.5,1.4-3.7,0.5L44.8,80.8L7.9,102l4.4,2.5
	c1.3,0.7,1.7,2.3,1,3.6C12.8,108.9,11.9,109.4,11,109.4L11,109.4z"/>
<path class="st0" d="M87.3,91.8c-0.4,0-0.8-0.1-1.2-0.3L37.5,66.9c-0.7-0.4-1.2-1.1-1.4-1.9L24.6,3.1c-0.2-1,0.2-2,1.1-2.6
	c0.8-0.6,1.9-0.6,2.8-0.1l17.7,10.4c0.4,0.2,0.7,0.6,1,1l42.3,76.2c0.6,1,0.4,2.3-0.4,3.1C88.6,91.5,88,91.8,87.3,91.8L87.3,91.8z
	 M41.1,62.8L80.8,83L43,14.9L30.8,7.8L41.1,62.8L41.1,62.8z"/>
<path class="st0" d="M163.7,246.4c-1.3,0-2.5-0.3-3.6-0.9c-2.5-1.4-3.9-4.3-3.9-7.9c0-6.4,4.4-14.1,10-17.4c3.3-1.9,6.4-2.1,8.9-0.6
	c2.4,1.4,3.8,4.2,3.8,7.9c0,6.7-4.3,14.2-10,17.4C167.1,245.9,165.4,246.4,163.7,246.4L163.7,246.4z M171.5,223.8
	c-0.7,0-1.7,0.3-2.7,0.9c-4,2.4-7.4,8.3-7.4,12.9c0,1.6,0.5,2.9,1.3,3.3c0.8,0.5,2.1,0.2,3.5-0.6c0,0,0,0,0,0
	c4.1-2.3,7.4-8.1,7.4-12.9c0-1.7-0.4-3-1.2-3.4C172.2,223.9,171.9,223.8,171.5,223.8L171.5,223.8z"/>
<path class="st0" d="M115.6,60.2c-0.3,0-0.6,0-0.9-0.2c-1.4-0.5-2-2-1.5-3.4c0.7-1.8-0.5-3.7-3.6-5.5c-1.2-0.7-1.6-2.3-0.9-3.6
	c0.7-1.2,2.3-1.6,3.6-0.9c7.6,4.5,6.6,9.8,5.8,11.9C117.6,59.6,116.6,60.2,115.6,60.2L115.6,60.2z"/>
<path class="st0" d="M288.6,168.5c-0.4,0-0.9-0.1-1.3-0.3l-12.1-7c-1.3-0.7-1.7-2.3-1-3.6c0.7-1.3,2.3-1.7,3.6-1l12.1,7
	c1.3,0.7,1.7,2.3,1,3.6C290.4,168,289.5,168.5,288.6,168.5L288.6,168.5z"/>
<path class="st0" d="M91.3,137.4c-0.6,0-1.3-0.2-1.8-0.7l-33-30.1c-1.1-1-1.1-2.6-0.2-3.7c1-1.1,2.6-1.1,3.7-0.2l33,30.1
	c1.1,1,1.1,2.6,0.2,3.7C92.7,137.1,92,137.4,91.3,137.4L91.3,137.4z"/>
<path class="st0" d="M143,174.8c-0.5,0-1.1-0.2-1.5-0.5c-18.3-13.3-35.1-25.6-51.6-37.4c-1.2-0.8-1.5-2.5-0.6-3.7
	c0.8-1.2,2.5-1.4,3.7-0.6c16.5,11.9,33.4,24.1,51.7,37.4c1.2,0.9,1.4,2.5,0.6,3.7C144.6,174.4,143.8,174.8,143,174.8L143,174.8z"/>
<path class="st0" d="M143.3,175c-0.4,0-0.8-0.1-1.2-0.3l-0.3-0.2c-1.3-0.7-1.8-2.2-1.1-3.5c0.7-1.3,2.2-1.8,3.5-1.1l0.3,0.2
	c1.3,0.7,1.8,2.2,1.1,3.5C145.1,174.4,144.2,175,143.3,175L143.3,175z"/>
<path class="st0" d="M344.9,269.4c-0.9,0-1.7-0.4-2.2-1.3c-0.8-1.2-0.4-2.9,0.9-3.6l2.5-1.5c1.2-0.8,2.8-0.4,3.6,0.9
	c0.8,1.2,0.4,2.8-0.9,3.6l-2.5,1.5C345.8,269.3,345.4,269.4,344.9,269.4L344.9,269.4z"/>
<path class="st0" d="M311.3,240c-7.2,0-13.8-3.4-20.6-7c-1.2-0.6-2.4-1.3-3.6-1.9c-1.3-0.7-1.8-2.2-1.2-3.5c0.7-1.3,2.2-1.8,3.5-1.2
	c1.3,0.6,2.5,1.3,3.7,1.9c10,5.2,17.9,9.3,28.1,3.5c1.3-0.7,2.9-0.3,3.6,1c0.7,1.3,0.3,2.9-1,3.6C319.4,239,315.2,240,311.3,240
	L311.3,240z"/>
<path class="st0" d="M293.6,231.9c-0.1,0-0.1,0-0.2,0l-5.3-0.4c-1.4-0.1-2.5-1.4-2.4-2.8c0.1-1.4,1.4-2.5,2.8-2.4l5.3,0.4
	c1.4,0.1,2.5,1.4,2.4,2.8C296.1,230.9,294.9,231.9,293.6,231.9L293.6,231.9z"/>
<path class="st0" d="M260.3,211.2c-0.5,0-1-0.1-1.4-0.4l-0.9-0.6c-1.2-0.8-1.6-2.4-0.8-3.6s2.4-1.6,3.6-0.8l0.9,0.6
	c1.2,0.8,1.6,2.4,0.8,3.6C262,210.7,261.1,211.2,260.3,211.2L260.3,211.2z"/>
<path class="st0" d="M258.1,214.7c-1.4,0-2.6-1.2-2.6-2.6v-3.6c0-1.4,1.2-2.6,2.6-2.6c1.5,0,2.6,1.2,2.6,2.6v3.6
	C260.7,213.6,259.5,214.7,258.1,214.7L258.1,214.7z"/>
<path class="st0" d="M260.6,219.2c-0.5,0-1-0.1-1.4-0.4c-1.8-1.2-3.7-3.9-3.7-6.6c0-1.4,1.2-2.6,2.6-2.6c1.5,0,2.6,1.2,2.6,2.6
	c0,0.6,0.7,1.8,1.3,2.2c1.2,0.8,1.5,2.4,0.8,3.6C262.3,218.7,261.4,219.2,260.6,219.2L260.6,219.2z"/>
<path class="st0" d="M261.5,219.7c-0.4,0-0.9-0.1-1.3-0.3l-0.9-0.5c-1.3-0.7-1.7-2.3-1-3.6c0.7-1.3,2.3-1.7,3.6-1l0.9,0.5
	c1.3,0.7,1.7,2.3,1,3.6C263.3,219.2,262.4,219.7,261.5,219.7L261.5,219.7z"/>
<path class="st0" d="M262.8,219.2c-1.4,0-2.6-1.2-2.6-2.6V213c0-1.4,1.2-2.6,2.6-2.6c1.5,0,2.6,1.2,2.6,2.6v3.5
	C265.4,218,264.2,219.2,262.8,219.2L262.8,219.2z"/>
<path class="st0" d="M262.8,215.6c-1.4,0-2.6-1.2-2.6-2.6c0-0.6-0.7-1.9-1.3-2.3c-1.2-0.8-1.5-2.4-0.7-3.6c0.8-1.2,2.4-1.5,3.6-0.7
	c1.8,1.2,3.6,3.9,3.6,6.6C265.4,214.4,264.2,215.6,262.8,215.6L262.8,215.6z"/>
<path class="st0" d="M179.1,164.4c-0.6,0-1.2-0.2-1.7-0.6l-0.6-0.5c-1.1-0.9-1.2-2.6-0.3-3.7c0.9-1.1,2.6-1.2,3.7-0.3l0.6,0.5
	c1.1,0.9,1.2,2.6,0.3,3.7C180.5,164.1,179.8,164.4,179.1,164.4L179.1,164.4z"/>
<path class="st0" d="M177.2,168c-1.5,0-2.6-1.2-2.6-2.6v-3.5c0-1.5,1.2-2.6,2.6-2.6c1.5,0,2.6,1.2,2.6,2.6v3.5
	C179.8,166.8,178.6,168,177.2,168L177.2,168z"/>
<path class="st0" d="M179.7,172.4c-0.5,0-1-0.1-1.4-0.4c-1.8-1.2-3.7-3.9-3.7-6.6c0-1.5,1.2-2.6,2.6-2.6c1.5,0,2.6,1.2,2.6,2.6
	c0,0.7,0.7,1.9,1.3,2.3c1.2,0.8,1.6,2.4,0.8,3.6C181.4,172,180.5,172.4,179.7,172.4L179.7,172.4z"/>
<path class="st0" d="M180.6,173c-0.5,0-1-0.1-1.4-0.4l-0.9-0.6c-1.2-0.8-1.6-2.4-0.8-3.6c0.8-1.2,2.4-1.6,3.6-0.8l0.9,0.6
	c1.2,0.8,1.6,2.4,0.8,3.6C182.3,172.6,181.5,173,180.6,173L180.6,173z"/>
<path class="st0" d="M181.9,172.4c-1.5,0-2.6-1.2-2.6-2.6v-3.5c0-1.5,1.2-2.6,2.6-2.6c1.4,0,2.6,1.2,2.6,2.6v3.5
	C184.5,171.3,183.3,172.4,181.9,172.4L181.9,172.4z"/>
<path class="st0" d="M181.9,168.9c-1.5,0-2.6-1.2-2.6-2.6c0-0.7-0.7-1.8-1.4-2.2c-1.3-0.7-1.8-2.2-1.1-3.5c0.7-1.3,2.2-1.8,3.5-1.1
	c2.4,1.3,4.2,4.1,4.2,6.8C184.5,167.8,183.3,168.9,181.9,168.9L181.9,168.9z"/>
<path class="st0" d="M26.3,112.1c-1.3,0-2.4-0.9-2.6-2.2c-0.2-1.4,0.8-2.8,2.2-3l51.4-7.6c1.4-0.2,2.8,0.8,3,2.2
	c0.2,1.4-0.8,2.8-2.2,3L26.7,112C26.5,112,26.4,112.1,26.3,112.1L26.3,112.1z"/>
<path class="st0" d="M22.7,112.3c-4.9,0-9.4-1.1-13-3.2c-1.2-0.7-1.7-2.3-0.9-3.6c0.7-1.3,2.3-1.7,3.6-0.9c3.6,2.1,8.3,2.9,13.6,2.3
	c1.4-0.2,2.7,0.9,2.9,2.3c0.2,1.4-0.9,2.7-2.3,2.9C25.2,112.2,23.9,112.3,22.7,112.3L22.7,112.3z"/>
<path class="st0" d="M295.7,158.8c-0.4,0-0.9-0.1-1.3-0.3l-5.3-3c-1.3-0.7-1.7-2.3-1-3.6c0.7-1.3,2.3-1.7,3.6-1l5.3,3
	c1.3,0.7,1.7,2.3,1,3.6C297.5,158.3,296.7,158.8,295.7,158.8L295.7,158.8z"/>
<path class="st0" d="M167.5,235.1c-0.4,0-0.9-0.1-1.3-0.3l-5.3-3c-1.3-0.7-1.7-2.3-1-3.6c0.7-1.3,2.3-1.7,3.6-1l5.3,3
	c1.3,0.7,1.7,2.3,1,3.6C169.3,234.6,168.4,235.1,167.5,235.1L167.5,235.1z"/>
<path class="st0" d="M137.7,166c-0.3,0-0.5-0.1-0.6-0.4c-0.2-0.4-0.1-0.8,0.3-1l5.9-3.3c0.4-0.2,0.8-0.1,1,0.3
	c0.2,0.4,0.1,0.8-0.3,1l-5.9,3.3C137.9,166,137.8,166,137.7,166L137.7,166z"/>
<path class="st0" d="M124.9,156.8c-0.3,0-0.5-0.1-0.6-0.4c-0.2-0.4-0.1-0.8,0.3-1l5.3-3c0.4-0.2,0.8-0.1,1,0.3
	c0.2,0.4,0.1,0.8-0.3,1l-5.3,3C125.2,156.8,125,156.8,124.9,156.8L124.9,156.8z"/>
<path class="st0" d="M112.5,147.5c-0.2,0-0.5-0.1-0.6-0.4c-0.2-0.4-0.1-0.8,0.3-1l4.7-2.7c0.3-0.2,0.8-0.1,1,0.3
	c0.2,0.3,0.1,0.8-0.3,1l-4.7,2.7C112.7,147.5,112.6,147.5,112.5,147.5L112.5,147.5z"/>
<path class="st0" d="M99.7,138.3c-0.2,0-0.5-0.1-0.6-0.4c-0.2-0.3-0.1-0.8,0.2-1l4.4-2.6c0.3-0.2,0.8-0.1,1,0.2
	c0.2,0.3,0.1,0.8-0.2,1l-4.4,2.6C100,138.2,99.8,138.3,99.7,138.3L99.7,138.3z"/>
<path class="st0" d="M87.6,128.6c-0.3,0-0.5-0.1-0.6-0.4c-0.2-0.4-0.1-0.8,0.3-1l4.1-2.3c0.3-0.2,0.8-0.1,1,0.3
	c0.2,0.4,0.1,0.8-0.3,1l-4,2.3C87.8,128.6,87.7,128.6,87.6,128.6L87.6,128.6z"/>
<path class="st0" d="M76.7,118.4c-0.2,0-0.5-0.1-0.6-0.3c-0.2-0.3-0.1-0.8,0.2-1l2.5-1.5c0.3-0.2,0.8-0.1,1,0.2
	c0.2,0.3,0.1,0.8-0.2,1l-2.5,1.6C76.9,118.4,76.8,118.4,76.7,118.4L76.7,118.4z"/>
<path class="st0" d="M65.5,108.2c-0.3,0-0.5-0.1-0.6-0.4c-0.2-0.4-0.1-0.8,0.3-1l1.9-1c0.4-0.2,0.8-0.1,1,0.3c0.2,0.4,0.1,0.8-0.3,1
	l-1.9,1C65.7,108.2,65.6,108.2,65.5,108.2L65.5,108.2z"/>
<path class="st0" d="M65.8,76.3c-0.3,0-0.5-0.1-0.6-0.4c-0.2-0.4-0.1-0.8,0.3-1l8.7-5c0.4-0.2,0.8-0.1,1,0.3c0.2,0.4,0.1,0.8-0.3,1
	l-8.7,5C66,76.3,65.9,76.3,65.8,76.3L65.8,76.3z"/>
<path class="st0" d="M50.2,68.7c-0.2,0-0.5-0.1-0.6-0.4c-0.2-0.4-0.1-0.8,0.3-1l17.4-10.1c0.4-0.2,0.8-0.1,1,0.3
	c0.2,0.3,0.1,0.8-0.3,1L50.6,68.6C50.5,68.6,50.4,68.7,50.2,68.7L50.2,68.7z"/>
<path class="st0" d="M39.3,58.3c-0.3,0-0.5-0.1-0.6-0.4c-0.2-0.4-0.1-0.8,0.3-1l21.5-12.4c0.3-0.2,0.8-0.1,1,0.3
	c0.2,0.4,0.1,0.8-0.3,1L39.7,58.2C39.6,58.3,39.5,58.3,39.3,58.3L39.3,58.3z"/>
<path class="st0" d="M36.8,43.3c-0.3,0-0.5-0.1-0.6-0.4c-0.2-0.3-0.1-0.8,0.3-1l16.8-9.8c0.3-0.2,0.8-0.1,1,0.3
	c0.2,0.4,0.1,0.8-0.3,1l-16.8,9.8C37.1,43.3,37,43.3,36.8,43.3L36.8,43.3z"/>
<path class="st0" d="M34,28.2c-0.2,0-0.5-0.1-0.6-0.4c-0.2-0.4-0.1-0.8,0.3-1l12.4-7.3c0.3-0.2,0.8-0.1,1,0.3c0.2,0.4,0.1,0.8-0.3,1
	l-12.4,7.3C34.3,28.2,34.2,28.2,34,28.2L34,28.2z"/>
<path class="st0" d="M31.6,13c-0.3,0-0.5-0.1-0.6-0.4c-0.2-0.4-0.1-0.8,0.3-1l3.7-2.1c0.3-0.2,0.8-0.1,1,0.3c0.2,0.3,0.1,0.8-0.3,1
	l-3.7,2.1C31.8,13,31.7,13,31.6,13L31.6,13z"/>
<path class="st0" d="M316,235.1c-0.2,0-0.5-0.1-0.6-0.4l-3.7-6.4c-0.2-0.4-0.1-0.8,0.3-1c0.4-0.2,0.8-0.1,1,0.3l3.7,6.4
	c0.2,0.3,0.1,0.8-0.3,1C316.2,235.1,316.1,235.1,316,235.1L316,235.1z"/>
<path class="st0" d="M328.1,227.5c-0.3,0-0.5-0.1-0.6-0.4l-3.7-6.7c-0.2-0.4-0.1-0.8,0.3-1c0.4-0.2,0.8-0.1,1,0.3l3.7,6.7
	c0.2,0.4,0.1,0.8-0.3,1C328.4,227.5,328.2,227.5,328.1,227.5L328.1,227.5z"/>
<path class="st0" d="M325.6,266.8c-0.2,0-0.5-0.1-0.6-0.4c-0.2-0.3-0.1-0.8,0.3-1l8.7-5.1c0.4-0.2,0.8-0.1,1,0.3
	c0.2,0.3,0.1,0.8-0.3,1l-8.7,5.1C325.9,266.8,325.7,266.8,325.6,266.8L325.6,266.8z"/>
<path class="st0" d="M306,261.5c-0.3,0-0.5-0.1-0.6-0.4c-0.2-0.3-0.1-0.8,0.3-1l7.5-4.4c0.3-0.2,0.8-0.1,1,0.3
	c0.2,0.3,0.1,0.8-0.3,1l-7.5,4.4C306.3,261.5,306.1,261.5,306,261.5L306,261.5z"/>
<path class="st0" d="M288.6,255c-0.2,0-0.5-0.1-0.6-0.4c-0.2-0.4-0.1-0.8,0.3-1l7.8-4.5c0.4-0.2,0.8-0.1,1,0.3
	c0.2,0.4,0.1,0.8-0.3,1l-7.8,4.5C288.8,255,288.7,255,288.6,255L288.6,255z"/>
<path class="st0" d="M274,246.7c-0.3,0-0.5-0.1-0.6-0.4c-0.2-0.3-0.1-0.8,0.3-1l6.2-3.5c0.4-0.2,0.8-0.1,1,0.3
	c0.2,0.4,0.1,0.8-0.3,1l-6.2,3.5C274.2,246.7,274.1,246.7,274,246.7L274,246.7z"/>
<path class="st0" d="M259.6,238.4c-0.3,0-0.5-0.1-0.6-0.4c-0.2-0.3-0.1-0.8,0.3-1l5.3-3c0.4-0.2,0.8-0.1,1,0.3
	c0.2,0.3,0.1,0.8-0.3,1l-5.3,3C259.9,238.4,259.8,238.4,259.6,238.4L259.6,238.4z"/>
<path class="st0" d="M245.3,230.2c-0.2,0-0.5-0.1-0.6-0.4c-0.2-0.3-0.1-0.8,0.3-1l4.7-2.7c0.4-0.2,0.8-0.1,1,0.3
	c0.2,0.4,0.1,0.8-0.3,1l-4.7,2.7C245.6,230.1,245.5,230.2,245.3,230.2L245.3,230.2z"/>
<path class="st0" d="M231,221.9c-0.3,0-0.5-0.1-0.6-0.4c-0.2-0.3-0.1-0.8,0.3-1l4.7-2.7c0.4-0.2,0.8-0.1,1,0.3
	c0.2,0.3,0.1,0.8-0.3,1l-4.7,2.7C231.3,221.9,231.1,221.9,231,221.9L231,221.9z"/>
<path class="st0" d="M216.4,213.6c-0.3,0-0.5-0.1-0.7-0.4c-0.2-0.4-0.1-0.8,0.3-1l5-2.7c0.4-0.2,0.8-0.1,1,0.3
	c0.2,0.4,0.1,0.8-0.3,1l-5,2.7C216.6,213.5,216.5,213.6,216.4,213.6L216.4,213.6z"/>
</svg>
