<?xml version="1.0" encoding="utf-8"?>
<!-- Generator: Adobe Illustrator 24.1.2, SVG Export Plug-In . SVG Version: 6.00 Build 0)  -->
<svg version="1.1" id="Camada_1" xmlns="http://www.w3.org/2000/svg" xmlns:xlink="http://www.w3.org/1999/xlink" x="0px" y="0px"
	 viewBox="0 0 170.8 210" style="enable-background:new 0 0 170.8 210;" xml:space="preserve">
<style type="text/css">
	.st0{fill:#007AC0;}
</style>
<path class="st0" d="M3,202c-0.3,0-0.7-0.1-1-0.3c-1.6-1.3-3-3.7-1-8.4c2.3-6,4.7-12,7-18.1c1.4-3.7,2.9-7.3,4.3-11
	c2.7-6.9,5.4-13.9,8.1-20.9c3.3-8.6,6.7-17.2,10-25.8c3.8-9.8,7.6-19.5,11.3-29.2c3.1-8,6.2-16,9.3-23.9c2.9-7.6,5.9-15.2,8.8-22.8
	l3.9-10.1c3.2-8.2,6.5-16.6,9.7-24.9c0,0,0-0.1,0-0.1c0.2-0.5,2.5-5.2,5.9-6.3C80.6-0.2,81.9,0,83,0.6c0.7,0.4,1,1.4,0.6,2.2
	c-0.4,0.8-1.4,1-2.2,0.6c-0.4-0.2-0.7-0.3-1.1-0.1c-1.4,0.4-3.1,2.7-4,4.5c-3.2,8.3-6.5,16.7-9.6,24.9l-3.9,10.1
	c-2.9,7.6-5.9,15.2-8.8,22.8c-3.1,8-6.2,15.9-9.3,23.9c-3.8,9.7-7.6,19.4-11.3,29.2c-3.3,8.6-6.7,17.2-10,25.8
	c-2.7,7-5.4,13.9-8.1,20.9c-1.4,3.7-2.9,7.4-4.3,11c-2.4,6.1-4.7,12.1-7,18.1c-1,2.4-1,3.9,0,4.8c0.7,0.5,0.8,1.5,0.2,2.2
	C3.9,201.8,3.4,202,3,202L3,202z"/>
<path class="st0" d="M16.2,209.6c-0.4,0-0.7-0.1-1-0.4c-2.2-1.8-2.5-4.6-1-8.4c2.9-7.3,5.8-14.9,9.1-23.3c3.2-8.4,6.5-16.8,9.8-25.2
	l3.8-9.8c5.3-13.6,10.6-27.3,15.8-40.8c2.4-6.3,4.9-12.6,7.3-18.9c3.6-9.3,7.2-18.5,10.8-27.8l3.1-8c4.2-10.8,8.5-21.9,12.7-32.9
	c0,0,0-0.1,0-0.1c0.2-0.5,2.5-5.2,5.9-6.3c1.2-0.4,2.5-0.3,3.6,0.4c0.8,0.4,1,1.4,0.6,2.2c-0.4,0.8-1.4,1-2.1,0.6
	c-0.4-0.2-0.7-0.2-1.1-0.1c-1.4,0.5-3.1,2.7-4,4.6c-4.2,11-8.5,22.1-12.7,32.8l-3.1,8C70.2,65.5,66.6,74.8,63,84
	c-2.4,6.3-4.9,12.6-7.3,18.9c-5.3,13.6-10.6,27.2-15.8,40.8l-3.8,9.8c-3.3,8.4-6.5,16.8-9.8,25.2c-3.2,8.4-6.2,16-9.1,23.3
	c-1.4,3.6-0.3,4.5,0,4.8c0.7,0.6,0.8,1.5,0.2,2.2C17.1,209.4,16.6,209.6,16.2,209.6L16.2,209.6z"/>
<path class="st0" d="M17.4,210c-1,0-1.9-0.3-2.6-1c-1.8-1.6-2-4.8-0.6-8.1C36,144.8,59.7,83.7,86.7,14.2c1.4-3.7,4.4-6.3,7.2-6.5
	c1.6-0.1,3,0.6,3.7,2c0.4,0.8,0.2,1.7-0.6,2.2c-0.8,0.4-1.7,0.2-2.2-0.6c-0.2-0.3-0.3-0.4-0.8-0.4c-1.3,0.1-3.4,1.9-4.5,4.5
	C62.6,84.9,39,146,17.1,202.1c0,0,0,0.1,0,0.1c-1,2.3-0.8,4-0.2,4.5c0.5,0.4,1.4,0,1.7-0.3c0.8-0.4,1.7-0.2,2.2,0.6
	c0.4,0.8,0.2,1.7-0.6,2.2C19.2,209.7,18.3,210,17.4,210L17.4,210z"/>
<path class="st0" d="M32.3,189.2c-0.5,0-1.1-0.3-1.4-0.8c-0.4-0.8-0.2-1.7,0.6-2.2l122-70.5L92.7,29.3c-0.5-0.7-0.3-1.7,0.4-2.2
	c0.7-0.5,1.7-0.3,2.2,0.4l61.8,87.9c0.3,0.4,0.3,0.8,0.3,1.2c-0.1,0.4-0.4,0.8-0.8,1L33,189C32.8,189.2,32.5,189.2,32.3,189.2
	L32.3,189.2z"/>
<path class="st0" d="M88.8,120.2c-0.3,0-0.5-0.1-0.8-0.2c-0.5-0.3-0.8-0.8-0.8-1.4l-0.7-48.4c0-0.6,0.3-1.1,0.8-1.4l11.8-6.8
	c0.5-0.3,1.1-0.3,1.6,0c0.5,0.3,0.8,0.8,0.8,1.4l-0.8,49.2c0,0.6-0.3,1.1-0.8,1.3l-10.3,6C89.3,120.1,89.1,120.2,88.8,120.2
	L88.8,120.2z M89.7,71.1l0.6,44.7l7.2-4.2l0.7-45.5L89.7,71.1L89.7,71.1z"/>
<path class="st0" d="M88.7,144.5c-0.3,0-0.5-0.1-0.8-0.2c-0.5-0.3-0.8-0.8-0.8-1.4v-13.4c0-0.6,0.3-1.1,0.8-1.4l10.7-6.1
	c0.5-0.3,1.1-0.3,1.6,0c0.5,0.3,0.8,0.8,0.8,1.4v13.4c0,0.6-0.3,1.1-0.8,1.4l-10.7,6.2C89.2,144.4,89,144.5,88.7,144.5L88.7,144.5z
	 M90.3,130.4v9.8l7.5-4.4v-9.7L90.3,130.4L90.3,130.4z"/>
<path class="st0" d="M16.2,209.6c-0.3,0-0.5-0.1-0.8-0.2l-13.2-7.7c-0.8-0.4-1-1.4-0.6-2.2c0.4-0.8,1.4-1,2.2-0.6l13.2,7.7
	c0.8,0.4,1,1.4,0.6,2.2C17.2,209.4,16.7,209.6,16.2,209.6L16.2,209.6z"/>
<path class="st0" d="M95.5,11.2c-0.3,0-0.5-0.1-0.8-0.2L81.4,3.4c-0.8-0.4-1-1.4-0.6-2.2c0.4-0.8,1.4-1,2.2-0.6l13.3,7.6
	c0.8,0.4,1,1.4,0.6,2.2C96.5,10.9,96,11.2,95.5,11.2L95.5,11.2z"/>
<path class="st0" d="M167.2,113c-0.5,0-1-0.2-1.3-0.7L94.9,11.4c-0.5-0.7-0.3-1.7,0.4-2.2C96,8.7,97,8.8,97.5,9.6l70.9,100.9
	c0.5,0.7,0.3,1.7-0.4,2.2C167.8,112.9,167.5,113,167.2,113L167.2,113z"/>
<path class="st0" d="M163.3,126.3c-0.5,0-1.1-0.3-1.4-0.8c-0.4-0.8-0.2-1.7,0.6-2.2c2.9-1.7,4.6-3.5,5-5.4c0.4-1.6-0.2-3.5-1.7-5.6
	c-0.5-0.7-0.3-1.7,0.4-2.2c0.7-0.5,1.7-0.3,2.2,0.4c2,2.9,2.8,5.6,2.2,8.1c-0.6,2.8-2.8,5.3-6.5,7.5
	C163.9,126.2,163.6,126.3,163.3,126.3L163.3,126.3z"/>
<path class="st0" d="M19.4,209.3c-0.5,0-1.1-0.3-1.4-0.8c-0.4-0.8-0.2-1.7,0.6-2.2l143.9-83c0.8-0.4,1.7-0.2,2.2,0.6
	c0.4,0.8,0.2,1.7-0.6,2.2l-143.9,83C20,209.2,19.7,209.3,19.4,209.3L19.4,209.3z"/>
<path class="st0" d="M32.3,189.2c-0.2,0-0.4,0-0.6-0.1c-0.8-0.3-1.2-1.2-0.9-2C46.4,146.8,62,106.5,77.6,66.3l14.9-38.4
	c0.3-0.8,1.2-1.2,2-0.9c0.8,0.3,1.2,1.2,0.9,2L80.6,67.4C65,107.7,49.3,148,33.7,188.2C33.5,188.9,32.9,189.2,32.3,189.2L32.3,189.2
	z"/>
<path class="st0" d="M24.5,203.7c-0.1,0-0.1,0-0.2-0.1l-6.7-3.8c-0.2-0.1-0.3-0.4-0.2-0.6c0.1-0.2,0.4-0.3,0.6-0.2l6.7,3.8
	c0.2,0.1,0.3,0.4,0.2,0.6C24.8,203.6,24.7,203.7,24.5,203.7L24.5,203.7z"/>
<path class="st0" d="M33.4,198.7c-0.1,0-0.2,0-0.2-0.1l-12.6-7.2c-0.2-0.1-0.3-0.4-0.2-0.6c0.1-0.2,0.4-0.3,0.6-0.2l12.5,7.2
	c0.2,0.1,0.3,0.4,0.2,0.6C33.7,198.7,33.6,198.7,33.4,198.7L33.4,198.7z"/>
<path class="st0" d="M41.9,193.7c-0.1,0-0.1,0-0.2-0.1l-8.4-4.8c-0.2-0.1-0.3-0.4-0.2-0.6c0.1-0.2,0.4-0.3,0.6-0.2l8.4,4.8
	c0.2,0.1,0.3,0.4,0.2,0.6C42.2,193.6,42.1,193.7,41.9,193.7L41.9,193.7z"/>
<path class="st0" d="M31,187.4c-0.1,0-0.2,0-0.2-0.1l-6.8-3.9c-0.2-0.1-0.3-0.4-0.2-0.6c0.1-0.2,0.4-0.3,0.6-0.2l6.8,3.9
	c0.2,0.1,0.3,0.4,0.2,0.6C31.3,187.3,31.2,187.4,31,187.4L31,187.4z"/>
<path class="st0" d="M50.5,188.7c-0.1,0-0.1,0-0.2-0.1l-8.4-4.9c-0.2-0.1-0.3-0.4-0.2-0.6c0.1-0.2,0.4-0.3,0.6-0.2l8.4,4.9
	c0.2,0.1,0.3,0.4,0.2,0.6C50.9,188.6,50.7,188.7,50.5,188.7L50.5,188.7z"/>
<path class="st0" d="M34.2,179.2c-0.1,0-0.1,0-0.2-0.1l-6.8-3.9c-0.2-0.1-0.3-0.4-0.2-0.6c0.1-0.2,0.4-0.3,0.6-0.2l6.8,3.9
	c0.2,0.1,0.3,0.4,0.2,0.6C34.5,179.2,34.4,179.2,34.2,179.2L34.2,179.2z"/>
<path class="st0" d="M59.2,183.7c-0.1,0-0.2,0-0.2-0.1l-8.4-4.9c-0.2-0.1-0.3-0.4-0.2-0.6c0.1-0.2,0.4-0.3,0.6-0.2l8.4,4.9
	c0.2,0.1,0.3,0.4,0.2,0.6C59.5,183.6,59.4,183.7,59.2,183.7L59.2,183.7z"/>
<path class="st0" d="M37.4,171c-0.1,0-0.1,0-0.2-0.1l-6.8-3.9c-0.2-0.1-0.3-0.4-0.2-0.6c0.1-0.2,0.4-0.3,0.6-0.2l6.8,3.9
	c0.2,0.1,0.3,0.4,0.2,0.6C37.7,171,37.5,171,37.4,171L37.4,171z"/>
<path class="st0" d="M67.9,178.7c-0.1,0-0.1,0-0.2-0.1l-8.4-4.8c-0.2-0.1-0.3-0.4-0.2-0.6c0.1-0.2,0.4-0.3,0.6-0.2l8.4,4.8
	c0.2,0.1,0.3,0.4,0.2,0.6C68.2,178.6,68,178.7,67.9,178.7L67.9,178.7z"/>
<path class="st0" d="M40.5,162.9c-0.1,0-0.2,0-0.2-0.1l-6.8-3.9c-0.2-0.1-0.3-0.4-0.2-0.6c0.1-0.2,0.4-0.3,0.6-0.2l6.8,3.9
	c0.2,0.1,0.3,0.4,0.2,0.6C40.8,162.8,40.7,162.9,40.5,162.9L40.5,162.9z"/>
<path class="st0" d="M76.5,173.7c-0.1,0-0.1,0-0.2-0.1l-8.4-4.8c-0.2-0.1-0.3-0.4-0.2-0.6c0.1-0.2,0.4-0.3,0.6-0.2l8.4,4.8
	c0.2,0.1,0.3,0.4,0.2,0.6C76.8,173.6,76.6,173.7,76.5,173.7L76.5,173.7z"/>
<path class="st0" d="M43.7,154.8c-0.1,0-0.1,0-0.2-0.1l-6.8-4c-0.2-0.1-0.3-0.4-0.2-0.6c0.1-0.2,0.4-0.3,0.6-0.2l6.8,4
	c0.2,0.1,0.3,0.4,0.2,0.6C44,154.7,43.8,154.8,43.7,154.8L43.7,154.8z"/>
<path class="st0" d="M85.2,168.7c-0.1,0-0.2,0-0.2-0.1l-8.4-4.8c-0.2-0.1-0.3-0.4-0.2-0.6c0.1-0.2,0.4-0.3,0.6-0.2l8.4,4.8
	c0.2,0.1,0.3,0.4,0.2,0.6C85.5,168.6,85.3,168.7,85.2,168.7L85.2,168.7z"/>
<path class="st0" d="M46.8,146.6c-0.1,0-0.2,0-0.2-0.1l-6.8-3.9c-0.2-0.1-0.3-0.4-0.2-0.6c0.1-0.2,0.4-0.3,0.6-0.2l6.8,3.9
	c0.2,0.1,0.3,0.4,0.2,0.6C47.1,146.5,47,146.6,46.8,146.6L46.8,146.6z"/>
<path class="st0" d="M93.8,163.7c-0.1,0-0.2,0-0.2-0.1l-8.4-4.9c-0.2-0.1-0.3-0.4-0.2-0.6c0.1-0.2,0.4-0.3,0.6-0.2l8.4,4.9
	c0.2,0.1,0.3,0.4,0.2,0.6C94.1,163.6,94,163.7,93.8,163.7L93.8,163.7z"/>
<path class="st0" d="M50,138.4c-0.1,0-0.2,0-0.2-0.1l-6.8-4c-0.2-0.1-0.3-0.4-0.2-0.6c0.1-0.2,0.4-0.3,0.6-0.2l6.8,3.9
	c0.2,0.1,0.3,0.4,0.2,0.6C50.3,138.3,50.2,138.4,50,138.4L50,138.4z"/>
<path class="st0" d="M102.5,158.7c-0.1,0-0.2,0-0.2-0.1l-8.4-4.8c-0.2-0.1-0.3-0.4-0.2-0.6c0.1-0.2,0.4-0.3,0.6-0.2l8.4,4.8
	c0.2,0.1,0.3,0.4,0.2,0.6C102.8,158.6,102.7,158.7,102.5,158.7L102.5,158.7z"/>
<path class="st0" d="M53.2,130.2c-0.1,0-0.1,0-0.2-0.1l-6.8-3.9c-0.2-0.1-0.3-0.4-0.2-0.6c0.1-0.2,0.4-0.3,0.6-0.2l6.8,3.9
	c0.2,0.1,0.3,0.4,0.2,0.6C53.5,130.1,53.4,130.2,53.2,130.2L53.2,130.2z"/>
<path class="st0" d="M111.1,153.7c-0.1,0-0.1,0-0.2-0.1l-8.4-4.8c-0.2-0.1-0.3-0.4-0.2-0.6c0.1-0.2,0.4-0.3,0.6-0.2l8.4,4.8
	c0.2,0.1,0.3,0.4,0.2,0.6C111.4,153.6,111.3,153.7,111.1,153.7L111.1,153.7z"/>
<path class="st0" d="M56.4,122.1c-0.1,0-0.2,0-0.2-0.1l-6.8-3.9c-0.2-0.1-0.3-0.4-0.2-0.6c0.1-0.2,0.4-0.3,0.6-0.2l6.8,3.9
	c0.2,0.1,0.3,0.4,0.2,0.6C56.7,122,56.5,122.1,56.4,122.1L56.4,122.1z"/>
<path class="st0" d="M119.8,148.7c-0.1,0-0.2,0-0.2-0.1l-8.4-4.8c-0.2-0.1-0.3-0.4-0.2-0.6c0.1-0.2,0.4-0.3,0.6-0.2l8.4,4.8
	c0.2,0.1,0.3,0.4,0.2,0.6C120.1,148.6,120,148.7,119.8,148.7L119.8,148.7z"/>
<path class="st0" d="M59.5,113.9c-0.1,0-0.2,0-0.2-0.1l-6.8-4c-0.2-0.1-0.3-0.4-0.2-0.6c0.1-0.2,0.4-0.3,0.6-0.2l6.8,4
	c0.2,0.1,0.3,0.4,0.2,0.6C59.8,113.8,59.7,113.9,59.5,113.9L59.5,113.9z"/>
<path class="st0" d="M128.5,143.7c-0.1,0-0.1,0-0.2-0.1l-8.4-4.8c-0.2-0.1-0.3-0.4-0.2-0.6c0.1-0.2,0.4-0.3,0.6-0.2l8.4,4.8
	c0.2,0.1,0.3,0.4,0.2,0.6C128.8,143.6,128.6,143.7,128.5,143.7L128.5,143.7z"/>
<path class="st0" d="M62.7,105.7c-0.1,0-0.1,0-0.2-0.1l-6.8-3.9c-0.2-0.1-0.3-0.4-0.2-0.6c0.1-0.2,0.4-0.3,0.6-0.2l6.8,3.9
	c0.2,0.1,0.3,0.4,0.2,0.6C63,105.7,62.9,105.7,62.7,105.7L62.7,105.7z"/>
<path class="st0" d="M137.1,138.7c-0.1,0-0.1,0-0.2-0.1l-8.4-4.9c-0.2-0.1-0.3-0.4-0.2-0.6c0.1-0.2,0.4-0.3,0.6-0.2l8.4,4.9
	c0.2,0.1,0.3,0.4,0.2,0.6C137.4,138.7,137.3,138.7,137.1,138.7L137.1,138.7z"/>
<path class="st0" d="M65.9,97.6c-0.1,0-0.2,0-0.2-0.1l-6.8-3.9c-0.2-0.1-0.3-0.4-0.2-0.6c0.1-0.2,0.4-0.3,0.6-0.2l6.8,3.9
	c0.2,0.1,0.3,0.4,0.2,0.6C66.2,97.5,66,97.6,65.9,97.6L65.9,97.6z"/>
<path class="st0" d="M145.8,133.7c-0.1,0-0.1,0-0.2-0.1l-8.4-4.8c-0.2-0.1-0.3-0.4-0.2-0.6c0.1-0.2,0.4-0.3,0.6-0.2l8.4,4.8
	c0.2,0.1,0.3,0.4,0.2,0.6C146.1,133.7,145.9,133.7,145.8,133.7L145.8,133.7z"/>
<path class="st0" d="M69,89.4c-0.1,0-0.2,0-0.2-0.1L62,85.4c-0.2-0.1-0.3-0.4-0.2-0.6c0.1-0.2,0.4-0.3,0.6-0.2l6.8,3.9
	c0.2,0.1,0.3,0.4,0.2,0.6C69.3,89.3,69.2,89.4,69,89.4L69,89.4z"/>
<path class="st0" d="M154.4,128.7c-0.1,0-0.1,0-0.2-0.1l-8.4-4.8c-0.2-0.1-0.3-0.4-0.2-0.6c0.1-0.2,0.4-0.3,0.6-0.2l8.4,4.8
	c0.2,0.1,0.3,0.4,0.2,0.6C154.7,128.6,154.6,128.7,154.4,128.7L154.4,128.7z"/>
<path class="st0" d="M72.2,81.3c-0.1,0-0.2,0-0.2-0.1l-6.8-3.9c-0.2-0.1-0.3-0.4-0.2-0.6c0.1-0.2,0.4-0.3,0.6-0.2l6.8,3.9
	c0.2,0.1,0.3,0.4,0.2,0.6C72.5,81.2,72.4,81.3,72.2,81.3L72.2,81.3z"/>
<path class="st0" d="M163.1,123.7c-0.1,0-0.1,0-0.2-0.1l-8.4-4.8c-0.2-0.1-0.3-0.4-0.2-0.6c0.1-0.2,0.4-0.3,0.6-0.2l8.4,4.8
	c0.2,0.1,0.3,0.4,0.2,0.6C163.4,123.6,163.2,123.7,163.1,123.7L163.1,123.7z"/>
<path class="st0" d="M75.4,73c-0.1,0-0.1,0-0.2-0.1l-6.8-3.9c-0.2-0.1-0.3-0.4-0.2-0.6c0.1-0.2,0.4-0.3,0.6-0.2l6.8,3.9
	c0.2,0.1,0.3,0.4,0.2,0.6C75.7,73,75.5,73,75.4,73L75.4,73z"/>
<path class="st0" d="M168.1,116.6c-0.1,0-0.2,0-0.2-0.1L149.6,106c-0.2-0.1-0.3-0.4-0.2-0.6c0.1-0.2,0.4-0.3,0.6-0.2l18.3,10.6
	c0.2,0.1,0.3,0.4,0.2,0.6C168.4,116.6,168.3,116.6,168.1,116.6L168.1,116.6z"/>
<path class="st0" d="M78.5,64.9c-0.1,0-0.1,0-0.2-0.1l-6.8-3.9c-0.2-0.1-0.3-0.4-0.2-0.6c0.1-0.2,0.4-0.3,0.6-0.2l6.8,3.9
	c0.2,0.1,0.3,0.4,0.2,0.6C78.9,64.8,78.7,64.9,78.5,64.9L78.5,64.9z"/>
<path class="st0" d="M157.6,100.6c-0.1,0-0.2,0-0.2-0.1l-19.7-11.4c-0.2-0.1-0.3-0.4-0.2-0.6c0.1-0.2,0.4-0.3,0.6-0.2l19.7,11.4
	c0.2,0.1,0.3,0.4,0.2,0.6C157.9,100.5,157.8,100.6,157.6,100.6L157.6,100.6z"/>
<path class="st0" d="M81.7,56.8c-0.1,0-0.1,0-0.2-0.1l-6.8-3.9c-0.2-0.1-0.3-0.4-0.2-0.6c0.1-0.2,0.4-0.3,0.6-0.2l6.8,3.9
	c0.2,0.1,0.3,0.4,0.2,0.6C82,56.7,81.9,56.8,81.7,56.8L81.7,56.8z"/>
<path class="st0" d="M145.8,83.7c-0.1,0-0.2,0-0.2-0.1l-19.8-11.4c-0.2-0.1-0.3-0.4-0.2-0.6c0.1-0.2,0.4-0.3,0.6-0.2l19.8,11.4
	c0.2,0.1,0.3,0.4,0.2,0.6C146.1,83.7,146,83.7,145.8,83.7L145.8,83.7z"/>
<path class="st0" d="M84.9,48.6c-0.1,0-0.2,0-0.2-0.1l-6.8-3.9c-0.2-0.1-0.3-0.4-0.2-0.6c0.1-0.2,0.4-0.3,0.6-0.2l6.8,3.9
	c0.2,0.1,0.3,0.4,0.2,0.6C85.2,48.5,85,48.6,84.9,48.6L84.9,48.6z"/>
<path class="st0" d="M134,66.9c-0.1,0-0.1,0-0.2-0.1L114,55.5c-0.2-0.1-0.3-0.4-0.2-0.6c0.1-0.2,0.4-0.3,0.6-0.2l19.7,11.4
	c0.2,0.1,0.3,0.4,0.2,0.6C134.3,66.9,134.1,66.9,134,66.9L134,66.9z"/>
<path class="st0" d="M88,40.4c-0.1,0-0.1,0-0.2-0.1L81,36.4c-0.2-0.1-0.3-0.4-0.2-0.6c0.1-0.2,0.4-0.3,0.6-0.2l6.8,3.9
	c0.2,0.1,0.3,0.4,0.2,0.6C88.4,40.3,88.2,40.4,88,40.4L88,40.4z"/>
<path class="st0" d="M122.2,50.1c-0.1,0-0.1,0-0.2-0.1l-19.8-11.4c-0.2-0.1-0.3-0.4-0.2-0.6c0.1-0.2,0.4-0.3,0.6-0.2l19.8,11.4
	c0.2,0.1,0.3,0.4,0.2,0.6C122.5,50,122.3,50.1,122.2,50.1L122.2,50.1z"/>
<path class="st0" d="M91.2,32.3c-0.1,0-0.2,0-0.2-0.1l-6.8-4c-0.2-0.1-0.3-0.4-0.2-0.6c0.1-0.2,0.4-0.3,0.6-0.2l6.8,4
	c0.2,0.1,0.3,0.4,0.2,0.6C91.5,32.2,91.3,32.3,91.2,32.3L91.2,32.3z"/>
<path class="st0" d="M110.5,33.4c-0.1,0-0.2,0-0.2-0.1L86.8,19.8c-0.2-0.1-0.3-0.4-0.2-0.6c0.1-0.2,0.4-0.3,0.6-0.2l23.4,13.5
	c0.2,0.1,0.3,0.4,0.2,0.6C110.8,33.3,110.6,33.4,110.5,33.4L110.5,33.4z"/>
<path class="st0" d="M98.1,16.2c-0.1,0-0.2,0-0.2-0.1l-6.6-3.8c-0.2-0.1-0.3-0.4-0.2-0.6c0.1-0.2,0.4-0.3,0.6-0.2l6.5,3.8
	c0.2,0.1,0.3,0.4,0.2,0.6C98.4,16.2,98.3,16.2,98.1,16.2L98.1,16.2z"/>
<path class="st0" d="M5.4,200.6c-0.2,0-0.3-0.1-0.4-0.2l-2.2-3.8c-0.1-0.2-0.1-0.5,0.2-0.6c0.2-0.1,0.5-0.1,0.6,0.2l2.2,3.8
	c0.1,0.2,0.1,0.5-0.2,0.6C5.5,200.6,5.4,200.6,5.4,200.6L5.4,200.6z"/>
<path class="st0" d="M15.1,200.2c-0.2,0-0.3-0.1-0.4-0.2l-8.2-14.2c-0.1-0.2,0-0.5,0.2-0.6c0.2-0.1,0.5,0,0.6,0.2l8.2,14.2
	c0.1,0.2,0,0.5-0.2,0.6C15.2,200.2,15.2,200.2,15.1,200.2L15.1,200.2z"/>
<path class="st0" d="M19.1,189.8c-0.2,0-0.3-0.1-0.4-0.2l-8.2-14.2c-0.1-0.2,0-0.5,0.2-0.6c0.2-0.1,0.5,0,0.6,0.2l8.2,14.2
	c0.1,0.2,0.1,0.5-0.2,0.6C19.3,189.8,19.2,189.8,19.1,189.8L19.1,189.8z"/>
<path class="st0" d="M23.1,179.5c-0.1,0-0.3-0.1-0.4-0.2L14.5,165c-0.1-0.2,0-0.5,0.2-0.6c0.2-0.1,0.5,0,0.6,0.2l8.2,14.3
	c0.1,0.2,0,0.5-0.2,0.6C23.3,179.5,23.2,179.5,23.1,179.5L23.1,179.5z"/>
<path class="st0" d="M27.1,169.1c-0.2,0-0.3-0.1-0.4-0.2l-8.2-14.2c-0.1-0.2,0-0.5,0.2-0.6c0.2-0.1,0.5,0,0.6,0.2l8.2,14.3
	c0.1,0.2,0.1,0.5-0.2,0.6C27.3,169.1,27.2,169.1,27.1,169.1L27.1,169.1z"/>
<path class="st0" d="M31.1,158.8c-0.2,0-0.3-0.1-0.4-0.2l-8.2-14.2c-0.1-0.2,0-0.5,0.2-0.6c0.2-0.1,0.5,0,0.6,0.2l8.2,14.2
	c0.1,0.2,0,0.5-0.2,0.6C31.3,158.7,31.2,158.8,31.1,158.8L31.1,158.8z"/>
<path class="st0" d="M35.2,148.4c-0.1,0-0.3-0.1-0.4-0.2l-8.2-14.2c-0.1-0.2-0.1-0.5,0.2-0.6c0.2-0.1,0.5-0.1,0.6,0.2l8.2,14.2
	c0.1,0.2,0,0.5-0.2,0.6C35.3,148.4,35.3,148.4,35.2,148.4L35.2,148.4z"/>
<path class="st0" d="M39.2,138c-0.1,0-0.3-0.1-0.4-0.2l-8.2-14.2c-0.1-0.2,0-0.5,0.2-0.6c0.2-0.1,0.5,0,0.6,0.2l8.2,14.2
	c0.1,0.2,0,0.5-0.2,0.6C39.3,138,39.3,138,39.2,138L39.2,138z"/>
<path class="st0" d="M43.2,127.7c-0.2,0-0.3-0.1-0.4-0.2l-8.2-14.3c-0.1-0.2,0-0.5,0.2-0.6c0.2-0.1,0.5,0,0.6,0.2l8.2,14.3
	c0.1,0.2,0.1,0.5-0.2,0.6C43.3,127.7,43.3,127.7,43.2,127.7L43.2,127.7z"/>
<path class="st0" d="M47.2,117.3c-0.2,0-0.3-0.1-0.4-0.2l-8.2-14.2c-0.1-0.2,0-0.5,0.2-0.6c0.2-0.1,0.5-0.1,0.6,0.2l8.2,14.2
	c0.1,0.2,0,0.5-0.2,0.6C47.4,117.3,47.3,117.3,47.2,117.3L47.2,117.3z"/>
<path class="st0" d="M51.3,107c-0.2,0-0.3-0.1-0.4-0.2l-8.2-14.3c-0.1-0.2-0.1-0.5,0.2-0.6c0.2-0.1,0.5,0,0.6,0.2l8.2,14.3
	c0.1,0.2,0,0.5-0.2,0.6C51.4,107,51.3,107,51.3,107L51.3,107z"/>
<path class="st0" d="M55.3,96.6c-0.2,0-0.3-0.1-0.4-0.2l-8.2-14.3c-0.1-0.2,0-0.5,0.2-0.6c0.2-0.1,0.5,0,0.6,0.2l8.2,14.3
	c0.1,0.2,0.1,0.5-0.2,0.6C55.4,96.6,55.3,96.6,55.3,96.6L55.3,96.6z"/>
<path class="st0" d="M59.3,86.3c-0.1,0-0.3-0.1-0.4-0.2l-8.2-14.3c-0.1-0.2-0.1-0.5,0.2-0.6c0.2-0.1,0.5,0,0.6,0.2l8.2,14.3
	c0.1,0.2,0,0.5-0.2,0.6C59.4,86.3,59.4,86.3,59.3,86.3L59.3,86.3z"/>
<path class="st0" d="M63.3,75.9c-0.2,0-0.3-0.1-0.4-0.2l-8.2-14.3c-0.1-0.2-0.1-0.5,0.2-0.6c0.2-0.1,0.5,0,0.6,0.2l8.2,14.3
	c0.1,0.2,0.1,0.5-0.2,0.6C63.4,75.9,63.4,75.9,63.3,75.9L63.3,75.9z"/>
<path class="st0" d="M67.3,65.6c-0.2,0-0.3-0.1-0.4-0.2l-8.2-14.3c-0.1-0.2,0-0.5,0.2-0.6c0.2-0.1,0.5,0,0.6,0.2l8.2,14.3
	c0.1,0.2,0,0.5-0.2,0.6C67.4,65.6,67.4,65.6,67.3,65.6L67.3,65.6z"/>
<path class="st0" d="M71.3,55.2c-0.2,0-0.3-0.1-0.4-0.2l-8.2-14.3c-0.1-0.2,0-0.5,0.2-0.6c0.2-0.1,0.5-0.1,0.6,0.2l8.2,14.3
	c0.1,0.2,0,0.5-0.2,0.6C71.5,55.2,71.4,55.2,71.3,55.2L71.3,55.2z"/>
<path class="st0" d="M75.3,44.8c-0.2,0-0.3-0.1-0.4-0.2l-8.2-14.2c-0.1-0.2-0.1-0.5,0.2-0.6c0.2-0.1,0.5,0,0.6,0.2l8.2,14.2
	c0.1,0.2,0,0.5-0.2,0.6C75.5,44.8,75.4,44.8,75.3,44.8L75.3,44.8z"/>
<path class="st0" d="M79.4,34.5c-0.2,0-0.3-0.1-0.4-0.2L70.7,20c-0.1-0.2,0-0.5,0.2-0.6c0.2-0.1,0.5,0,0.6,0.2l8.2,14.2
	c0.1,0.2,0.1,0.5-0.2,0.6C79.5,34.5,79.4,34.5,79.4,34.5L79.4,34.5z"/>
<path class="st0" d="M83.4,24.1c-0.2,0-0.3-0.1-0.4-0.2L74.8,9.6c-0.1-0.2-0.1-0.5,0.2-0.6c0.2-0.1,0.5,0,0.6,0.2l8.2,14.3
	c0.1,0.2,0,0.5-0.2,0.6C83.5,24.1,83.4,24.1,83.4,24.1L83.4,24.1z"/>
<path class="st0" d="M87.4,13.8c-0.2,0-0.3-0.1-0.4-0.2L81.2,3.5c-0.1-0.2,0-0.5,0.2-0.6c0.2-0.1,0.5,0,0.6,0.2l5.8,10.1
	c0.1,0.2,0,0.5-0.2,0.6C87.6,13.8,87.5,13.8,87.4,13.8L87.4,13.8z"/>
<path class="st0" d="M44,179.8c-0.1,0-0.3-0.1-0.4-0.2l-4.3-7.3c-0.1-0.2-0.1-0.5,0.2-0.6c0.2-0.1,0.5-0.1,0.6,0.2l4.3,7.3
	c0.1,0.2,0.1,0.5-0.2,0.6C44.1,179.8,44,179.8,44,179.8L44,179.8z"/>
<path class="st0" d="M59.2,171.5c-0.2,0-0.3-0.1-0.4-0.2l-11.7-20.3c-0.1-0.2-0.1-0.5,0.2-0.6c0.2-0.1,0.5,0,0.6,0.2l11.7,20.3
	c0.1,0.2,0.1,0.5-0.2,0.6C59.3,171.5,59.3,171.5,59.2,171.5L59.2,171.5z"/>
<path class="st0" d="M74.4,163.3c-0.2,0-0.3-0.1-0.4-0.2L54.9,130c-0.1-0.2,0-0.5,0.2-0.6c0.2-0.1,0.5,0,0.6,0.2l19.1,33.1
	c0.1,0.2,0.1,0.5-0.2,0.6C74.6,163.3,74.5,163.3,74.4,163.3L74.4,163.3z"/>
<path class="st0" d="M89.6,155.1c-0.1,0-0.3-0.1-0.4-0.2l-26.6-46c-0.1-0.2,0-0.5,0.2-0.6c0.2-0.1,0.5,0,0.6,0.2l26.6,46
	c0.1,0.2,0,0.5-0.2,0.6C89.8,155,89.7,155.1,89.6,155.1L89.6,155.1z"/>
<path class="st0" d="M103.9,145.1c-0.2,0-0.3-0.1-0.4-0.2l-3.9-6.8c-0.1-0.2,0-0.5,0.2-0.6c0.2-0.1,0.5,0,0.6,0.2l3.9,6.8
	c0.1,0.2,0,0.5-0.2,0.6C104,145.1,104,145.1,103.9,145.1L103.9,145.1z"/>
<path class="st0" d="M92.8,125.9c-0.1,0-0.3-0.1-0.4-0.2l-3.3-5.7c-0.1-0.2-0.1-0.5,0.2-0.6c0.2-0.1,0.5-0.1,0.6,0.2l3.3,5.7
	c0.1,0.2,0,0.5-0.2,0.6C93,125.9,92.9,125.9,92.8,125.9L92.8,125.9z"/>
<path class="st0" d="M87.6,117c-0.2,0-0.3-0.1-0.4-0.2l-16.2-28c-0.1-0.2-0.1-0.5,0.2-0.6c0.2-0.1,0.5,0,0.6,0.2l16.2,28
	c0.1,0.2,0,0.5-0.2,0.6C87.8,116.9,87.7,117,87.6,117L87.6,117z"/>
<path class="st0" d="M119.4,137.4c-0.2,0-0.3-0.1-0.4-0.2l-19.2-33.4c-0.1-0.2,0-0.5,0.2-0.6c0.2-0.1,0.5,0,0.6,0.2l19.2,33.4
	c0.1,0.2,0,0.5-0.2,0.6C119.5,137.3,119.5,137.4,119.4,137.4L119.4,137.4z"/>
<path class="st0" d="M86.8,81c-0.2,0-0.3-0.1-0.4-0.2l-7-12.2c-0.1-0.2-0.1-0.5,0.2-0.6c0.2-0.1,0.5,0,0.6,0.2l7,12.2
	c0.1,0.2,0,0.5-0.2,0.6C87,81,86.9,81,86.8,81L86.8,81z"/>
<path class="st0" d="M134.9,129.6c-0.2,0-0.3-0.1-0.4-0.2L99.8,69.2c-0.1-0.2,0-0.5,0.2-0.6c0.2-0.1,0.5,0,0.6,0.2l34.7,60.2
	c0.1,0.2,0,0.5-0.2,0.6C135,129.6,134.9,129.6,134.9,129.6L134.9,129.6z"/>
<path class="st0" d="M97.2,64.3c-0.2,0-0.3-0.1-0.4-0.2l-9.5-16.4c-0.1-0.2,0-0.5,0.2-0.6c0.2-0.1,0.5,0,0.6,0.2l9.5,16.4
	c0.1,0.2,0,0.5-0.2,0.6C97.4,64.3,97.3,64.3,97.2,64.3L97.2,64.3z"/>
<path class="st0" d="M149.8,120.8c-0.1,0-0.3-0.1-0.4-0.2L117,64.4c-0.1-0.2-0.1-0.5,0.2-0.6c0.2-0.1,0.5,0,0.6,0.2l32.5,56.2
	c0.1,0.2,0,0.5-0.2,0.6C150,120.8,149.9,120.8,149.8,120.8L149.8,120.8z"/>
<path class="st0" d="M97.2,112.6c-0.1,0-0.1,0-0.2-0.1l-7.3-4.2c-0.2-0.1-0.3-0.4-0.2-0.6c0.1-0.2,0.4-0.3,0.6-0.2l7.3,4.2
	c0.2,0.1,0.3,0.4,0.2,0.6C97.5,112.5,97.4,112.6,97.2,112.6L97.2,112.6z"/>
<path class="st0" d="M97.9,103c-0.1,0-0.2,0-0.2-0.1l-8.1-4.7c-0.2-0.1-0.3-0.4-0.2-0.6c0.1-0.2,0.4-0.3,0.6-0.2l8.1,4.7
	c0.2,0.1,0.3,0.4,0.2,0.6C98.2,102.9,98.1,103,97.9,103L97.9,103z"/>
<path class="st0" d="M98,93.1c-0.1,0-0.2,0-0.2-0.1l-8.5-4.9c-0.2-0.1-0.3-0.4-0.2-0.6c0.1-0.2,0.4-0.3,0.6-0.2l8.5,4.9
	c0.2,0.1,0.3,0.4,0.2,0.6C98.3,93,98.2,93.1,98,93.1L98,93.1z"/>
<path class="st0" d="M98.2,83.2c-0.1,0-0.2,0-0.2-0.1l-8.8-5c-0.2-0.1-0.3-0.4-0.2-0.6c0.1-0.2,0.4-0.3,0.6-0.2l8.8,5
	c0.2,0.1,0.3,0.4,0.2,0.6C98.5,83.1,98.4,83.2,98.2,83.2L98.2,83.2z"/>
<path class="st0" d="M98.3,73.3c-0.1,0-0.1,0-0.2-0.1l-6-3.5c-0.2-0.1-0.3-0.4-0.2-0.6c0.1-0.2,0.4-0.3,0.6-0.2l6,3.5
	c0.2,0.1,0.3,0.4,0.2,0.6C98.6,73.2,98.5,73.3,98.3,73.3L98.3,73.3z"/>
<path class="st0" d="M98,135.3c-0.1,0-0.1,0-0.2-0.1l-8-4.6c-0.2-0.1-0.3-0.4-0.2-0.6c0.1-0.2,0.4-0.3,0.6-0.2l8,4.6
	c0.2,0.1,0.3,0.4,0.2,0.6C98.3,135.3,98.1,135.3,98,135.3L98,135.3z"/>
</svg>
