<?xml version="1.0" encoding="utf-8"?>
<!-- Generator: Adobe Illustrator 24.1.2, SVG Export Plug-In . SVG Version: 6.00 Build 0)  -->
<svg version="1.1" id="Camada_1" xmlns="http://www.w3.org/2000/svg" xmlns:xlink="http://www.w3.org/1999/xlink" x="0px" y="0px"
	 viewBox="0 0 127.9 228.9" style="enable-background:new 0 0 127.9 228.9;" xml:space="preserve">
<style type="text/css">
	.st0{fill:#007AC0;}
</style>
<path class="st0" d="M23.3,228.9c-1.2,0-2.4-0.3-3.4-0.8c-0.1,0-0.1-0.1-0.2-0.1l-15.6-9c0,0,0,0-0.1,0c0,0-0.1,0-0.1-0.1
	c-0.5-0.4-1-0.7-1.4-1.1c-0.1-0.1-0.1-0.1-0.2-0.2c-0.1-0.1-0.2-0.3-0.3-0.4c-1.3-1.6-1.7-3.3-1.8-5.1c-0.3-2.3-0.2-4.9-0.1-7.3
	c0-1,0.1-1.9,0.1-2.7V76.3c0,0,0-0.1,0-0.1v-4.2c0-2.2,0.4-4.4,1.2-6.6c1-3.1,2.7-6.2,5.7-9.4c2.8-3,12-8.3,22.1-13.9
	c1.9-1,3.5-1.9,4.6-2.6c0,0,0,0,0,0l67.5-38.8c0.1,0,0.1-0.1,0.2-0.1c0.1,0,0.1-0.1,0.2-0.1c2.4-0.8,4.6-0.7,6.6,0.4c0,0,0,0,0.1,0
	l0,0c0,0,0,0,0,0l15.7,9c0,0,0.1,0,0.1,0.1c2.5,1.5,3.8,4.4,3.8,8.2V157c0,7.2-5.1,16-11.3,19.6c-12.8,7.4-24.9,14.4-36.9,21.3
	C63,207.5,46.5,217,28.8,227.2C26.9,228.3,25,228.9,23.3,228.9L23.3,228.9z M19.2,219.7c0,2.6,0.8,4.4,2.2,5.3
	c1.4,0.8,3.4,0.6,5.7-0.7c17.7-10.2,34.2-19.7,50.8-29.4c12-6.9,24.1-13.9,36.9-21.3c5.2-3,9.6-10.6,9.6-16.6V18.2
	c0-2.5-0.8-4.4-2.2-5.3c-1.6-0.7-3.2-0.5-5.1,0.3c-0.2,0.1-0.4,0.2-0.6,0.3c-0.1,0.1-0.3,0.1-0.4,0.2c-0.9,0.5-1.9,1.1-3,1.7
	c-0.8,0.5-1.5,0.9-2.3,1.4L28.8,64.3c-4.6,2.7-8.4,8.5-9.4,14c-0.2,0.9-0.2,1.8-0.3,2.7V219.7L19.2,219.7z M5.8,216l10.1,5.8
	c-0.1-0.7-0.2-1.4-0.2-2.1V81c0,0,0,0,0,0c0,0,0,0,0,0c0-1,0.1-2,0.3-3.1c0.4-2.4,1.2-4.8,2.5-7.2L5.9,63.4
	c-0.4,0.9-0.8,1.7-1.1,2.5c-1.1,3.2-1.2,6.5-1.2,10.4V202c0,0,0,0,0,0v8.6c0,0.3,0,0.7,0.1,1c0.2,1.4,0.5,2.6,1.1,3.4
	C5,215.4,5.4,215.7,5.8,216L5.8,216z M7.7,60.4l12.7,7.3c1.9-2.6,4.2-4.9,6.7-6.4c0,0,0,0,0,0L109.2,14c0,0,0,0,0,0
	c0.8-0.4,1.5-0.9,2.2-1.3c1.4-0.9,2.9-1.8,4.3-2.4c0.3-0.2,0.7-0.3,1-0.4l-10.2-5.9c-1.1-0.6-2.3-0.6-3.8-0.2L35.4,42.4
	c-1.1,0.7-2.8,1.6-4.7,2.6c-7,3.9-18.6,10.4-21.3,13.2C8.8,59,8.2,59.7,7.7,60.4L7.7,60.4z M30.8,210.3c-0.4,0-0.9-0.1-1.3-0.3
	c-0.8-0.5-1.3-1.4-1.3-2.5v-33.6c0-1.6,1.1-3.5,2.5-4.3c0,0,0,0,0,0L64.5,150c0,0,0,0,0,0c1-0.5,2-0.6,2.9-0.1
	c0.8,0.5,1.3,1.4,1.3,2.5V186c0,1.6-1.1,3.4-2.5,4.3c0,0,0,0,0,0l-33.8,19.5l0,0C31.8,210.1,31.3,210.3,30.8,210.3L30.8,210.3z
	 M31.6,173.8v32.5l32.8-19c0,0,0,0,0,0c0.4-0.2,0.8-0.9,0.8-1.3v-32.5l-32.9,19c0,0,0,0,0,0C32,172.7,31.6,173.4,31.6,173.8
	L31.6,173.8z M42.7,191.9c-0.3,0-0.6-0.1-0.9-0.2c-0.8-0.5-1.1-1.5-0.6-2.3l4.9-8.4l-4.2-2.4c-0.8-0.5-1.1-1.5-0.6-2.3
	c0.5-0.8,1.5-1.1,2.3-0.6l4.2,2.4l4.9-8.4c0.5-0.8,1.5-1.1,2.3-0.6c0.8,0.5,1.1,1.5,0.6,2.3l-4.9,8.4l4.3,2.5
	c0.8,0.5,1.1,1.5,0.6,2.3c-0.5,0.8-1.5,1.1-2.3,0.6l-4.3-2.5l-4.9,8.4C43.9,191.6,43.3,191.9,42.7,191.9L42.7,191.9z M78,183
	c-0.4,0-0.9-0.1-1.3-0.3c-0.9-0.5-1.4-1.4-1.4-2.5v-33.6c0-1.6,1-3.4,2.4-4.2c0,0,0,0,0,0l33.8-19.5c0,0,0,0,0,0
	c1-0.5,2-0.6,2.9-0.1c0.8,0.5,1.3,1.4,1.3,2.5v33.6c0,1.6-1.1,3.5-2.5,4.3l-33.8,19.5C79.1,182.8,78.6,183,78,183L78,183z
	 M78.9,146.5V179l32.8-19c0,0,0,0,0,0c0.4-0.2,0.8-0.9,0.8-1.3v-32.5l-32.9,19C79.3,145.4,78.9,146.1,78.9,146.5L78.9,146.5z
	 M95.1,163.8c-0.4,0-0.8-0.1-1.2-0.3c-0.8-0.5-1.2-1.3-1.2-2.3c0-1.4,0.9-3,2.1-3.7c0.9-0.5,1.8-0.5,2.6-0.1
	c0.8,0.4,1.2,1.3,1.2,2.3c0,1.4-0.9,3-2.1,3.7C96,163.6,95.5,163.8,95.1,163.8L95.1,163.8z M95.6,159L95.6,159L95.6,159L95.6,159z
	 M30.8,162.5c-0.4,0-0.9-0.1-1.3-0.3c-0.9-0.5-1.4-1.4-1.4-2.5v-33.6c0-1.6,1-3.4,2.5-4.3c0,0,0,0,0,0l33.8-19.5c0,0,0,0,0,0
	c1-0.6,2-0.6,2.9-0.1c0.8,0.5,1.3,1.4,1.3,2.5v33.6c0,1.7-1.1,3.5-2.5,4.3l-33.8,19.5C31.9,162.4,31.3,162.5,30.8,162.5L30.8,162.5z
	 M31.6,126.1v32.5l32.8-19c0,0,0,0,0,0c0.4-0.2,0.8-0.9,0.8-1.3v-32.5l-32.9,19l0,0C32,125,31.6,125.6,31.6,126.1L31.6,126.1z
	 M87.5,159.5c-0.6,0-1.2-0.3-1.5-0.9c-0.5-0.8-0.2-1.9,0.6-2.3l16.3-9.4c0.8-0.5,1.9-0.2,2.3,0.6c0.5,0.8,0.2,1.9-0.6,2.3l-16.3,9.4
	C88.1,159.4,87.8,159.5,87.5,159.5L87.5,159.5z M95.1,149.1c-0.4,0-0.8-0.1-1.2-0.3c-0.8-0.5-1.2-1.3-1.2-2.3c0-1.4,0.9-3,2.1-3.7
	c0.9-0.5,1.8-0.5,2.6-0.1c0.8,0.4,1.2,1.3,1.2,2.3c0,1.4-0.9,3-2.1,3.7C96,149,95.5,149.1,95.1,149.1L95.1,149.1z M95.6,144.3
	L95.6,144.3L95.6,144.3L95.6,144.3z M48.4,143.3c-0.9,0-1.7-0.8-1.7-1.7v-6.4l-5.6,3.2c-0.8,0.5-1.9,0.2-2.3-0.6
	c-0.5-0.8-0.2-1.9,0.6-2.3l7.3-4.2v-8.5c0-0.9,0.8-1.7,1.7-1.7c0.9,0,1.7,0.8,1.7,1.7v6.5l5.6-3.2c0.8-0.5,1.9-0.2,2.3,0.6
	c0.5,0.8,0.2,1.9-0.6,2.3l-7.3,4.2v8.4C50.1,142.6,49.4,143.3,48.4,143.3L48.4,143.3z M78,135.3c-0.4,0-0.9-0.1-1.2-0.3
	c-0.9-0.5-1.4-1.4-1.4-2.5V98.8c0-1.6,1-3.4,2.4-4.3h0l0,0c0,0,0,0,0,0c0,0,0,0,0,0c0,0,0,0,0,0L111.7,75c0,0,0,0,0,0
	c1-0.5,2-0.6,2.9-0.1c0.8,0.5,1.3,1.4,1.3,2.5V111c0,1.7-1.1,3.5-2.5,4.3l-33.8,19.5C79.1,135.1,78.5,135.3,78,135.3L78,135.3z
	 M78.9,98.8v32.5l32.8-19c0,0,0,0,0,0c0.4-0.2,0.8-0.9,0.8-1.3V78.5l-32.9,19C79.2,97.7,78.9,98.4,78.9,98.8L78.9,98.8z M87.5,111.3
	c-0.6,0-1.2-0.3-1.5-0.9c-0.5-0.8-0.2-1.9,0.6-2.3l16.3-9.4c0.8-0.5,1.9-0.2,2.3,0.6c0.5,0.8,0.2,1.9-0.6,2.3l-16.3,9.4
	C88.1,111.3,87.8,111.3,87.5,111.3L87.5,111.3z M30.6,109.5c-0.4,0-0.9-0.1-1.3-0.3c-0.9-0.5-1.4-1.4-1.4-2.5V80.4
	c0-1.6,1-3.4,2.4-4.3c0,0,0,0,0,0c0,0,0,0,0,0h0l81-46.8c1-0.6,2-0.6,2.9-0.1c0.8,0.5,1.3,1.4,1.3,2.5V58c0,1.6-1,3.4-2.5,4.3
	c0,0,0,0,0,0l-81,46.8C31.7,109.4,31.1,109.5,30.6,109.5L30.6,109.5z M31.4,80.4v25.1l80.1-46.2c0.4-0.2,0.8-0.9,0.8-1.3V32.9
	L32.2,79.1C31.8,79.3,31.4,80,31.4,80.4L31.4,80.4z M96.6,63.3c-0.3,0-0.6-0.1-0.9-0.2c-0.5-0.3-0.9-0.9-0.9-1.5V48.1
	c0-0.6,0.3-1.2,0.9-1.5l5.8-3.4c0.5-0.3,1.2-0.3,1.7,0c0.5,0.3,0.9,0.9,0.9,1.5v13.5c0,0.6-0.3,1.2-0.9,1.5L97.4,63
	C97.2,63.2,96.9,63.3,96.6,63.3L96.6,63.3z M98.3,49.1v9.5l2.4-1.4v-9.5L98.3,49.1L98.3,49.1z"/>
<path class="st0" d="M102,18.9c-0.1,0-0.2,0-0.2-0.1c-0.2-0.1-0.3-0.4-0.2-0.7l7.7-13.3c0.1-0.2,0.4-0.3,0.7-0.2
	c0.2,0.1,0.3,0.4,0.2,0.7l-7.7,13.3C102.4,18.8,102.2,18.9,102,18.9L102,18.9z"/>
<path class="st0" d="M85.6,28.6c-0.1,0-0.2,0-0.2-0.1c-0.2-0.1-0.3-0.4-0.2-0.7L98,5.5c0.1-0.2,0.4-0.3,0.7-0.2
	C98.9,5.5,99,5.8,98.9,6L86,28.4C85.9,28.5,85.7,28.6,85.6,28.6L85.6,28.6z"/>
<path class="st0" d="M69.3,38c-0.1,0-0.2,0-0.2-0.1c-0.2-0.1-0.3-0.4-0.2-0.7l12.9-22.4c0.1-0.2,0.4-0.3,0.7-0.2
	c0.2,0.1,0.3,0.4,0.2,0.7L69.7,37.7C69.6,37.9,69.5,38,69.3,38L69.3,38z"/>
<path class="st0" d="M53,47.4c-0.1,0-0.2,0-0.2-0.1c-0.2-0.1-0.3-0.4-0.2-0.7l13-22.5c0.1-0.2,0.4-0.3,0.7-0.2
	c0.2,0.1,0.3,0.4,0.2,0.7l-13,22.5C53.3,47.3,53.1,47.4,53,47.4L53,47.4z"/>
<path class="st0" d="M36.6,56.8c-0.1,0-0.2,0-0.2-0.1c-0.2-0.1-0.3-0.4-0.2-0.7l13-22.6c0.1-0.2,0.4-0.3,0.7-0.2
	c0.2,0.1,0.3,0.4,0.2,0.7l-13,22.6C37,56.8,36.8,56.8,36.6,56.8L36.6,56.8z"/>
<path class="st0" d="M19,68.5c-0.1,0-0.2,0-0.2-0.1c-0.2-0.1-0.3-0.4-0.2-0.7l14.5-25c0.1-0.2,0.4-0.3,0.7-0.2
	c0.2,0.1,0.3,0.4,0.2,0.7l-14.5,25C19.3,68.4,19.2,68.5,19,68.5L19,68.5z"/>
<path class="st0" d="M11.1,63.3c-0.1,0-0.2,0-0.2-0.1c-0.2-0.1-0.3-0.4-0.2-0.7l5.8-10c0.1-0.2,0.4-0.3,0.7-0.2
	c0.2,0.1,0.3,0.4,0.2,0.7l-5.8,10C11.5,63.2,11.3,63.3,11.1,63.3L11.1,63.3z"/>
<path class="st0" d="M41.3,217.4c-0.1,0-0.2,0-0.2-0.1l-22.8-13.2c-0.2-0.1-0.3-0.4-0.2-0.7c0.1-0.2,0.4-0.3,0.7-0.2l22.8,13.2
	c0.2,0.1,0.3,0.4,0.2,0.7C41.7,217.3,41.5,217.4,41.3,217.4L41.3,217.4z"/>
<path class="st0" d="M59.8,206.3c-0.1,0-0.2,0-0.2-0.1l-10.6-6.1c-0.2-0.1-0.3-0.4-0.2-0.7c0.1-0.2,0.4-0.3,0.7-0.2l10.6,6.1
	c0.2,0.1,0.3,0.4,0.2,0.7C60.1,206.2,59.9,206.3,59.8,206.3L59.8,206.3z"/>
<path class="st0" d="M28.6,188.3c-0.1,0-0.2,0-0.2-0.1l-9.6-5.5c-0.2-0.1-0.3-0.4-0.2-0.7c0.1-0.2,0.4-0.3,0.7-0.2l9.6,5.5
	c0.2,0.1,0.3,0.4,0.2,0.7C28.9,188.2,28.7,188.3,28.6,188.3L28.6,188.3z"/>
<path class="st0" d="M78.6,195.4c-0.1,0-0.2,0-0.2-0.1l-11.2-6.4c-0.2-0.1-0.3-0.4-0.2-0.7c0.1-0.2,0.4-0.3,0.7-0.2l11.2,6.4
	c0.2,0.1,0.3,0.4,0.2,0.7C79,195.4,78.8,195.4,78.6,195.4L78.6,195.4z"/>
<path class="st0" d="M33.1,169.2c-0.1,0-0.2,0-0.2-0.1l-14.3-8.3c-0.2-0.1-0.3-0.4-0.2-0.7c0.1-0.2,0.4-0.3,0.7-0.2l14.3,8.3
	c0.2,0.1,0.3,0.4,0.2,0.7C33.4,169.1,33.3,169.2,33.1,169.2L33.1,169.2z"/>
<path class="st0" d="M97.4,184.6c-0.1,0-0.2,0-0.2-0.1l-10.6-6.1c-0.2-0.1-0.3-0.4-0.2-0.7c0.1-0.2,0.4-0.3,0.7-0.2l10.6,6.1
	c0.2,0.1,0.3,0.4,0.2,0.7C97.8,184.5,97.6,184.6,97.4,184.6L97.4,184.6z"/>
<path class="st0" d="M75.7,172c-0.1,0-0.2,0-0.2-0.1l-7.2-4.2c-0.2-0.1-0.3-0.4-0.2-0.7c0.1-0.2,0.4-0.3,0.7-0.2l7.2,4.2
	c0.2,0.1,0.3,0.4,0.2,0.7C76,171.9,75.9,172,75.7,172L75.7,172z"/>
<path class="st0" d="M51.7,158.1c-0.1,0-0.2,0-0.2-0.1l-6-3.4c-0.2-0.1-0.3-0.4-0.2-0.7c0.1-0.2,0.4-0.3,0.7-0.2l6,3.4
	c0.2,0.1,0.3,0.4,0.2,0.7C52,158,51.8,158.1,51.7,158.1L51.7,158.1z"/>
<path class="st0" d="M28.6,144.8c-0.1,0-0.2,0-0.2-0.1l-9.6-5.5c-0.2-0.1-0.3-0.4-0.2-0.7c0.1-0.2,0.4-0.3,0.7-0.2l9.6,5.5
	c0.2,0.1,0.3,0.4,0.2,0.7C28.9,144.7,28.7,144.8,28.6,144.8L28.6,144.8z"/>
<path class="st0" d="M116.2,173.7c-0.1,0-0.2,0-0.2-0.1l-10.5-6.1c-0.2-0.1-0.3-0.4-0.2-0.7c0.1-0.2,0.4-0.3,0.7-0.2l10.5,6.1
	c0.2,0.1,0.3,0.4,0.2,0.7C116.6,173.6,116.4,173.7,116.2,173.7L116.2,173.7z"/>
<path class="st0" d="M75.8,150.3c-0.1,0-0.2,0-0.2-0.1l-11.5-6.6c-0.2-0.1-0.3-0.4-0.2-0.7c0.1-0.2,0.4-0.3,0.7-0.2l11.5,6.6
	c0.2,0.1,0.3,0.4,0.2,0.7C76.2,150.3,76,150.3,75.8,150.3L75.8,150.3z"/>
<path class="st0" d="M29.7,123.7c-0.1,0-0.2,0-0.2-0.1l-10.8-6.2c-0.2-0.1-0.3-0.4-0.2-0.7c0.1-0.2,0.4-0.3,0.7-0.2l10.8,6.2
	c0.2,0.1,0.3,0.4,0.2,0.7C30,123.6,29.9,123.7,29.7,123.7L29.7,123.7z"/>
<path class="st0" d="M124.8,156.9c-0.1,0-0.2,0-0.2-0.1l-9.2-5.3c-0.2-0.1-0.3-0.4-0.2-0.7c0.1-0.2,0.4-0.3,0.7-0.2l9.2,5.3
	c0.2,0.1,0.3,0.4,0.2,0.7C125.1,156.8,125,156.9,124.8,156.9L124.8,156.9z"/>
<path class="st0" d="M89.3,136.4c-0.1,0-0.2,0-0.2-0.1l-5.9-3.4c-0.2-0.1-0.3-0.4-0.2-0.7c0.1-0.2,0.4-0.3,0.7-0.2l6,3.4
	c0.2,0.1,0.3,0.4,0.2,0.7C89.6,136.3,89.5,136.4,89.3,136.4L89.3,136.4z"/>
<path class="st0" d="M75.7,128.5c-0.1,0-0.2,0-0.2-0.1l-7.2-4.2c-0.2-0.1-0.3-0.4-0.2-0.7c0.1-0.2,0.4-0.3,0.7-0.2l7.2,4.2
	c0.2,0.1,0.3,0.4,0.2,0.7C76,128.5,75.9,128.5,75.7,128.5L75.7,128.5z"/>
<path class="st0" d="M48.1,112.6c-0.1,0-0.2,0-0.2-0.1l-11-6.3c-0.2-0.1-0.3-0.4-0.2-0.7c0.1-0.2,0.4-0.3,0.7-0.2l11,6.3
	c0.2,0.1,0.3,0.4,0.2,0.7C48.4,112.5,48.3,112.6,48.1,112.6L48.1,112.6z"/>
<path class="st0" d="M28.3,101.2c-0.1,0-0.2,0-0.2-0.1l-9.4-5.4c-0.2-0.1-0.3-0.4-0.2-0.7c0.1-0.2,0.4-0.3,0.7-0.2l9.4,5.4
	c0.2,0.1,0.3,0.4,0.2,0.7C28.6,101.1,28.5,101.2,28.3,101.2L28.3,101.2z"/>
<path class="st0" d="M124.8,135.1c-0.1,0-0.2,0-0.2-0.1l-9.2-5.3c-0.2-0.1-0.3-0.4-0.2-0.7c0.1-0.2,0.4-0.3,0.7-0.2l9.2,5.3
	c0.2,0.1,0.3,0.4,0.2,0.7C125.1,135,125,135.1,124.8,135.1L124.8,135.1z"/>
<path class="st0" d="M108.1,125.5c-0.1,0-0.2,0-0.2-0.1l-5.9-3.4c-0.2-0.1-0.3-0.4-0.2-0.7c0.1-0.2,0.4-0.3,0.7-0.2l5.9,3.4
	c0.2,0.1,0.3,0.4,0.2,0.7C108.5,125.4,108.3,125.5,108.1,125.5L108.1,125.5z"/>
<path class="st0" d="M76.1,107c-0.1,0-0.2,0-0.2-0.1L55.4,95.1c-0.2-0.1-0.3-0.4-0.2-0.7c0.1-0.2,0.4-0.3,0.7-0.2l20.4,11.8
	c0.2,0.1,0.3,0.4,0.2,0.7C76.5,106.9,76.3,107,76.1,107L76.1,107z"/>
<path class="st0" d="M28.6,79.5c-0.1,0-0.2,0-0.2-0.1l-8.1-4.7c-0.2-0.1-0.3-0.4-0.2-0.7c0.1-0.2,0.4-0.3,0.7-0.2l8.2,4.7
	c0.2,0.1,0.3,0.4,0.2,0.7C28.9,79.5,28.7,79.5,28.6,79.5L28.6,79.5z"/>
<path class="st0" d="M124.8,113.4c-0.1,0-0.2,0-0.2-0.1l-9.2-5.3c-0.2-0.1-0.3-0.4-0.2-0.7c0.1-0.2,0.4-0.3,0.7-0.2l9.2,5.3
	c0.2,0.1,0.3,0.4,0.2,0.7C125.1,113.3,125,113.4,124.8,113.4L124.8,113.4z"/>
<path class="st0" d="M85.8,90.9c-0.1,0-0.2,0-0.2-0.1l-11-6.4c-0.2-0.1-0.3-0.4-0.2-0.7c0.1-0.2,0.4-0.3,0.7-0.2l11,6.4
	c0.2,0.1,0.3,0.4,0.2,0.7C86.2,90.8,86,90.9,85.8,90.9L85.8,90.9z"/>
<path class="st0" d="M46.2,68c-0.1,0-0.2,0-0.2-0.1l-11.8-6.8c-0.2-0.1-0.3-0.4-0.2-0.7c0.1-0.2,0.4-0.3,0.7-0.2l11.8,6.8
	c0.2,0.1,0.3,0.4,0.2,0.7C46.6,67.9,46.4,68,46.2,68L46.2,68z"/>
<path class="st0" d="M124.8,91.6c-0.1,0-0.2,0-0.2-0.1l-9.2-5.3c-0.2-0.1-0.3-0.4-0.2-0.7c0.1-0.2,0.4-0.3,0.7-0.2l9.2,5.3
	c0.2,0.1,0.3,0.4,0.2,0.7C125.1,91.5,125,91.6,124.8,91.6L124.8,91.6z"/>
<path class="st0" d="M104.7,80c-0.1,0-0.2,0-0.2-0.1l-11-6.3c-0.2-0.1-0.3-0.4-0.2-0.7c0.1-0.2,0.4-0.3,0.7-0.2l11,6.3
	c0.2,0.1,0.3,0.4,0.2,0.7C105,79.9,104.8,80,104.7,80L104.7,80z"/>
<path class="st0" d="M65,57.1c-0.1,0-0.2,0-0.2-0.1L53,50.2c-0.2-0.1-0.3-0.4-0.2-0.7c0.1-0.2,0.4-0.3,0.7-0.2l11.8,6.8
	c0.2,0.1,0.3,0.4,0.2,0.7C65.4,57,65.2,57.1,65,57.1L65,57.1z"/>
<path class="st0" d="M124.9,69.9c-0.1,0-0.2,0-0.2-0.1l-12.5-7.2c-0.2-0.1-0.3-0.4-0.2-0.7c0.1-0.2,0.4-0.3,0.7-0.2l12.4,7.2
	c0.2,0.1,0.3,0.4,0.2,0.7C125.2,69.9,125.1,69.9,124.9,69.9L124.9,69.9z"/>
<path class="st0" d="M83.9,46.2c-0.1,0-0.2,0-0.2-0.1l-11.8-6.8c-0.2-0.1-0.3-0.4-0.2-0.7c0.1-0.2,0.4-0.3,0.7-0.2l11.8,6.8
	c0.2,0.1,0.3,0.4,0.2,0.7C84.2,46.2,84,46.2,83.9,46.2L83.9,46.2z"/>
<path class="st0" d="M124.8,48.1c-0.1,0-0.2,0-0.2-0.1l-9.4-5.4c-0.2-0.1-0.3-0.4-0.2-0.7c0.1-0.2,0.4-0.3,0.7-0.2l9.4,5.4
	c0.2,0.1,0.3,0.4,0.2,0.7C125.1,48,125,48.1,124.8,48.1L124.8,48.1z"/>
<path class="st0" d="M102.7,35.4c-0.1,0-0.2,0-0.2-0.1l-11.8-6.8c-0.2-0.1-0.3-0.4-0.2-0.7c0.1-0.2,0.4-0.3,0.7-0.2l11.8,6.8
	c0.2,0.1,0.3,0.4,0.2,0.7C103,35.3,102.9,35.4,102.7,35.4L102.7,35.4z"/>
<path class="st0" d="M125,26.5c-0.1,0-0.2,0-0.2-0.1l-15.4-8.9c-0.2-0.1-0.3-0.4-0.2-0.7c0.1-0.2,0.4-0.3,0.7-0.2l15.4,8.9
	c0.2,0.1,0.3,0.4,0.2,0.7C125.3,26.4,125.2,26.5,125,26.5L125,26.5z"/>
<path class="st0" d="M14.6,222.2c-0.2,0-0.3-0.1-0.4-0.2c-0.1-0.2-0.1-0.5,0.2-0.7l1.4-0.8c0.2-0.1,0.5-0.1,0.7,0.2
	c0.1,0.2,0.1,0.5-0.2,0.7l-1.4,0.8C14.8,222.2,14.7,222.2,14.6,222.2L14.6,222.2z"/>
<path class="st0" d="M5.7,216.5c-0.2,0-0.3-0.1-0.4-0.2c-0.1-0.2-0.1-0.5,0.2-0.7l10.4-6c0.2-0.1,0.5-0.1,0.7,0.2
	c0.1,0.2,0.1,0.5-0.2,0.7l-10.4,6C5.9,216.4,5.8,216.5,5.7,216.5L5.7,216.5z"/>
<path class="st0" d="M3.2,207c-0.2,0-0.3-0.1-0.4-0.2c-0.1-0.2-0.1-0.5,0.2-0.7l12.9-7.5c0.2-0.1,0.5-0.1,0.7,0.2
	c0.1,0.2,0.1,0.5-0.2,0.7L3.5,207C3.4,207,3.3,207,3.2,207L3.2,207z"/>
<path class="st0" d="M3.2,196.2c-0.2,0-0.3-0.1-0.4-0.2c-0.1-0.2-0.1-0.5,0.2-0.7l13-7.5c0.2-0.1,0.5-0.1,0.7,0.2
	c0.1,0.2,0.1,0.5-0.2,0.7l-13,7.5C3.4,196.1,3.3,196.2,3.2,196.2L3.2,196.2z"/>
<path class="st0" d="M3.2,185.3c-0.2,0-0.3-0.1-0.4-0.2c-0.1-0.2-0.1-0.5,0.2-0.7l13.1-7.5c0.2-0.1,0.5-0.1,0.7,0.2
	c0.1,0.2,0.1,0.5-0.2,0.7l-13.1,7.5C3.3,185.3,3.2,185.3,3.2,185.3L3.2,185.3z"/>
<path class="st0" d="M3.2,174.4c-0.2,0-0.3-0.1-0.4-0.2c-0.1-0.2-0.1-0.5,0.2-0.7L16,166c0.2-0.1,0.5-0.1,0.7,0.2
	c0.1,0.2,0.1,0.5-0.2,0.7l-13.1,7.5C3.3,174.4,3.2,174.4,3.2,174.4L3.2,174.4z"/>
<path class="st0" d="M3.2,163.6c-0.2,0-0.3-0.1-0.4-0.2c-0.1-0.2-0.1-0.5,0.2-0.7l13.1-7.6c0.2-0.1,0.5-0.1,0.7,0.2
	c0.1,0.2,0.1,0.5-0.2,0.7l-13.1,7.6C3.3,163.5,3.2,163.6,3.2,163.6L3.2,163.6z"/>
<path class="st0" d="M3.2,152.7c-0.2,0-0.3-0.1-0.4-0.2c-0.1-0.2-0.1-0.5,0.2-0.7l13.1-7.5c0.2-0.1,0.5-0.1,0.7,0.2
	c0.1,0.2,0.1,0.5-0.2,0.7l-13.1,7.5C3.3,152.6,3.2,152.7,3.2,152.7L3.2,152.7z"/>
<path class="st0" d="M3.2,141.8c-0.2,0-0.3-0.1-0.4-0.2c-0.1-0.2-0.1-0.5,0.2-0.7l13.1-7.5c0.2-0.1,0.5-0.1,0.7,0.2
	c0.1,0.2,0.1,0.5-0.2,0.7l-13.1,7.5C3.3,141.8,3.2,141.8,3.2,141.8L3.2,141.8z"/>
<path class="st0" d="M3.2,130.9c-0.2,0-0.3-0.1-0.4-0.2c-0.1-0.2-0.1-0.5,0.2-0.7l13.1-7.5c0.2-0.1,0.5-0.1,0.7,0.2
	c0.1,0.2,0.1,0.5-0.2,0.7l-13.1,7.5C3.3,130.9,3.2,130.9,3.2,130.9L3.2,130.9z"/>
<path class="st0" d="M3.2,120c-0.2,0-0.3-0.1-0.4-0.2c-0.1-0.2-0.1-0.5,0.2-0.7l13.1-7.5c0.2-0.1,0.5-0.1,0.7,0.2
	c0.1,0.2,0.1,0.5-0.2,0.7L3.4,120C3.3,120,3.2,120,3.2,120L3.2,120z"/>
<path class="st0" d="M3.2,109.2c-0.2,0-0.3-0.1-0.4-0.2c-0.1-0.2-0.1-0.5,0.2-0.7l13.1-7.5c0.2-0.1,0.5-0.1,0.7,0.2
	c0.1,0.2,0.1,0.5-0.2,0.7l-13.1,7.5C3.3,109.1,3.2,109.2,3.2,109.2L3.2,109.2z"/>
<path class="st0" d="M3.2,98.3c-0.2,0-0.3-0.1-0.4-0.2c-0.1-0.2-0.1-0.5,0.2-0.7L16,89.9c0.2-0.1,0.5-0.1,0.7,0.2
	c0.1,0.2,0.1,0.5-0.2,0.7L3.4,98.2C3.3,98.3,3.2,98.3,3.2,98.3L3.2,98.3z"/>
<path class="st0" d="M3.2,87.4c-0.2,0-0.3-0.1-0.4-0.2c-0.1-0.2-0.1-0.5,0.2-0.7l13.2-7.6c0.2-0.1,0.5-0.1,0.7,0.2
	c0.1,0.2,0.1,0.5-0.2,0.7L3.4,87.3C3.3,87.4,3.2,87.4,3.2,87.4L3.2,87.4z"/>
<path class="st0" d="M3.2,76.5c-0.2,0-0.3-0.1-0.4-0.2c-0.1-0.2-0.1-0.5,0.2-0.7l12.7-7.4c0.2-0.1,0.5-0.1,0.7,0.2
	c0.1,0.2,0.1,0.5-0.2,0.7L3.5,76.5C3.4,76.5,3.3,76.5,3.2,76.5L3.2,76.5z"/>
</svg>
