<?xml version="1.0" encoding="utf-8"?>
<!-- Generator: Adobe Illustrator 24.1.2, SVG Export Plug-In . SVG Version: 6.00 Build 0)  -->
<svg version="1.1" id="Camada_1" xmlns="http://www.w3.org/2000/svg" xmlns:xlink="http://www.w3.org/1999/xlink" x="0px" y="0px"
	 viewBox="0 0 302.2 301" style="enable-background:new 0 0 302.2 301;" xml:space="preserve">
<style type="text/css">
	.st0{fill:#007AC0;}
</style>
<path class="st0" d="M66.7,233.1c-3.5,0-7.3-1.1-11.1-3.4c-6.5-3.7-12.6-10.1-16.8-17.5c-4.5-7.8-7-16-7-23c0-7.5,2.8-13.5,7.8-16.4
	c1.1-0.6,2.4-0.3,3.1,0.8c0.6,1.1,0.3,2.4-0.8,3.1c-3.5,2.1-5.6,6.6-5.6,12.6c0,6.3,2.3,13.7,6.4,20.8c3.8,6.7,9.3,12.5,15.2,15.9
	c5.1,3,10,3.6,13.5,1.6c3.6-2,5.6-6.4,5.6-12.6c0-6.7-2.3-14.1-6.3-20.8c-0.6-1.1-0.3-2.4,0.8-3.1c1.1-0.7,2.4-0.3,3.1,0.7
	c4.5,7.4,7,15.6,7,23.1c0,7.8-2.8,13.7-7.8,16.4C71.5,232.5,69.2,233.1,66.7,233.1L66.7,233.1z"/>
<path class="st0" d="M129.2,210.6c-0.4,0-0.8-0.1-1.2-0.3c-0.1-0.1-0.2-0.2-0.3-0.2l-4.5-2.6c-0.7-0.4-1.1-1.1-1.1-1.9V204
	l-10.8-6.2l-1.3,0.8c-0.7,0.4-1.6,0.4-2.2,0l-4.8-2.8c-0.7-0.4-1.1-1.1-1.1-1.9v-1.6l-10.8-6.2l-0.2,0.1c-0.2,0.1-0.4,0.2-0.7,0.3
	l-0.6,0.4c-0.7,0.5-1.7,0.5-2.4,0.1l-4.8-2.8c-0.7-0.4-1.1-1.1-1.1-1.9v-1.6l-10.6-6.2l-1.4,0.8c-0.7,0.5-1.6,0.5-2.4,0l-4.8-2.8
	c-0.7-0.4-1.1-1.1-1.1-1.9v-1.6l-10.7-6.2l-1.8,0.9c-0.7,0.3-1.5,0.3-2.1-0.1l-4.8-2.8c-0.7-0.4-1.1-1.1-1.1-1.9v-1.6L30,150.9
	l-1.5,0.9c-0.7,0.4-1.6,0.4-2.3,0l-4.8-2.8c-0.7-0.4-1.1-1.1-1.1-1.9v-1.6l-2.4-1.4l-8.5-4.8l-1.6,0.8c-0.7,0.4-1.6,0.4-2.2-0.1
	l-4.5-2.7c-0.7-0.4-1.1-1.1-1.1-1.9V52.4c0-0.8,0.4-1.5,1.1-1.9c0.7-0.4,1.6-0.4,2.3,0l4.8,2.8c0.7,0.4,1.1,1.1,1.1,1.9v1.7
	l10.6,6.2l1.3-0.7c0.1,0,0.1-0.1,0.2-0.1c0.7-0.4,1.6-0.4,2.3,0l4.8,2.8c0.7,0.4,1.1,1.1,1.1,1.9v1.7l10.8,6.2l0.9-0.6
	c0.7-0.6,2.1-0.8,2.9-0.3l4.8,2.8c0.7,0.4,1.1,1.1,1.1,1.9v1.6l10.6,6.2l1.5-0.9c0.7-0.4,1.6-0.4,2.3,0l4.8,2.8
	c0.7,0.4,1.1,1.1,1.1,1.9V92l10.8,6.2l1.5-0.9c0.7-0.4,1.6-0.4,2.3,0l4.4,2.7c0.8,0.4,1.5,1.2,1.5,2v1.7l10.6,6.1l1.5-0.9
	c0.7-0.4,1.7-0.4,2.4,0.1l0.5,0.4l4.1,2.4c0.7,0.4,1.1,1.1,1.1,1.9v1.6l10.7,6.2l1.7-0.9c0.7-0.4,1.6-0.4,2.3,0.1l4.6,2.9
	c1,0.7,1.3,2.1,0.6,3.1c-0.7,1-2.1,1.3-3.1,0.6l-3.4-2.1l-1.3,0.7c-0.1,0.1-0.8,0.3-0.9,0.3c-0.7,0.2-1.4,0.1-2-0.3l-12.7-7.4
	c-0.7-0.4-1.1-1.1-1.1-1.9V115l-2.6-1.5l-1.5,0.8c-0.7,0.4-1.6,0.4-2.2,0l-12.8-7.4c-0.7-0.4-1.1-1.1-1.1-1.9v-1.6l-2.6-1.6
	l-1.5,0.9c-0.7,0.4-1.6,0.4-2.3,0L67,95.2c-0.7-0.4-1.1-1.1-1.1-1.9v-1.7l-2.6-1.5L61.8,91c-0.7,0.4-1.6,0.4-2.3,0l-12.8-7.5
	c-0.7-0.4-1.1-1.1-1.1-1.9V80L43,78.4l-1.4,0.9c-0.7,0.4-1.6,0.4-2.3,0l-13.1-7.5c-0.7-0.4-1.1-1.1-1.1-1.9v-1.7l-2.6-1.5l-1.6,0.8
	c-0.7,0.4-1.5,0.3-2.2,0L5.9,60.1c-0.7-0.4-1.1-1.1-1.1-1.9v-1.7l-0.3-0.2v77.8l2.4,1.4l1.5-0.8c0.7-0.4,1.5-0.4,2.2,0l13.1,7.5
	c0.7,0.4,1.1,1.1,1.1,1.9v1.6l2.5,1.5l1.6-0.9c0.7-0.4,1.5-0.4,2.2,0l12.8,7.5c0.7,0.4,1.1,1.1,1.1,1.9v1.6l2.7,1.6l1.3-0.8
	c0.7-0.5,1.6-0.5,2.4-0.1l13.1,7.5c0.7,0.4,1.1,1.1,1.1,1.9v1.6l2.5,1.5l1.7-0.9c0.7-0.3,1.5-0.3,2.2,0.1l12.8,7.5
	c0.7,0.4,1.1,1.1,1.1,1.9v1.6l2.5,1.5c0.2-0.1,0.5-0.2,0.7-0.3l0.9-0.5c0.7-0.4,1.6-0.4,2.3,0l13.1,7.5c0.7,0.4,1.1,1.1,1.1,1.9v1.6
	l2.6,1.5l1.2-0.8c0.7-0.4,1.6-0.5,2.3,0l13.1,7.5c0.7,0.4,1.1,1.1,1.1,1.9v1.6l2.7,1.6l0.2-0.1l6.3-3.7c1.1-0.6,2.5-0.3,3.1,0.8
	c0.6,1.1,0.3,2.4-0.8,3.1l-7.9,4.5C129.9,210.5,129.6,210.6,129.2,210.6L129.2,210.6z"/>
<path class="st0" d="M72.4,231.6c-0.8,0-1.6-0.4-2-1.1c-0.6-1.1-0.2-2.4,0.9-3c2.4-1.3,9.3-5.1,14.4-8.1c1.1-0.6,2.5-0.3,3.1,0.8
	c0.6,1.1,0.3,2.4-0.8,3.1c-5.1,3-12,6.8-14.5,8.2C73.1,231.6,72.8,231.6,72.4,231.6L72.4,231.6z"/>
<path class="st0" d="M72.4,195.2c-0.8,0-1.5-0.4-2-1.1c-3.9-6.8-9.3-12.6-14.9-15.9c-5.1-3-10.3-3.6-13.7-1.6
	c-1.1,0.6-2.5,0.3-3.1-0.8c-0.6-1.1-0.3-2.4,0.8-3.1c4.9-2.8,11.7-2.3,18.3,1.6c6.4,3.7,12.2,9.9,16.6,17.5c0.6,1.1,0.2,2.4-0.9,3
	C73.2,195.1,72.8,195.2,72.4,195.2L72.4,195.2z"/>
<path class="st0" d="M62.2,220.2c-1.9,0-4.1-0.5-6.6-2c-3.8-2.2-7.3-5.8-9.7-10.1c-0.6-1.1-0.2-2.4,0.9-3c1.1-0.6,2.4-0.2,3,0.9
	c1.9,3.5,4.8,6.6,7.9,8.3c2.7,1.5,4.9,1.8,6.6,0.8c1.4-0.8,2.3-3,2.3-5.9c0-3.4-1.1-7.4-3.2-11.1c-0.6-1.1-0.2-2.4,0.9-3
	c1.1-0.6,2.5-0.2,3.1,0.9c2.4,4.3,3.7,9,3.7,13.2c0,4.6-1.7,8.1-4.6,9.8C65.5,219.7,64,220.2,62.2,220.2L62.2,220.2z"/>
<path class="st0" d="M47.9,209.1c-0.7,0-1.5-0.4-1.9-1c-2.6-4.2-4.1-8.8-4.1-13.1c0-4.4,1.8-8.1,4.8-9.8c1.1-0.6,2.4-0.3,3.1,0.8
	c0.6,1.1,0.3,2.4-0.8,3.1c-1.6,1-2.6,3.2-2.6,6c0,3.5,1.2,7.3,3.4,10.7c0.7,1,0.3,2.4-0.7,3.1C48.7,209,48.3,209.1,47.9,209.1
	L47.9,209.1z"/>
<path class="st0" d="M65.5,199.3c-0.7,0-1.5-0.4-1.9-1.1c-2.5-3.9-5.2-6.8-8-8.4c-2.6-1.4-5-1.8-6.5-0.8c-1,0.7-2.4,0.3-3.1-0.7
	c-0.7-1-0.3-2.4,0.7-3.1c2.9-1.8,7-1.5,11.1,0.8c3.5,2,6.7,5.4,9.6,9.9c0.7,1,0.3,2.4-0.7,3.1C66.3,199.2,65.9,199.3,65.5,199.3
	L65.5,199.3z"/>
<path class="st0" d="M180.5,288.1c-2.1,0-4.4-0.7-6.6-2c-3.7-2.1-7.2-5.8-9.6-10c-0.6-1.1-0.2-2.4,0.9-3c1.1-0.6,2.5-0.2,3.1,0.9
	c2,3.6,4.9,6.6,7.9,8.3c2.4,1.5,4.8,1.8,6.3,0.9c2.2-1.2,2.6-4,2.6-6.1c0-3.5-1.2-7.4-3.4-10.9c-0.7-1-0.3-2.4,0.7-3.1
	c1.1-0.6,2.4-0.3,3.1,0.7c2.6,4.2,4.1,8.9,4.1,13.2c0,6-2.7,8.7-4.9,9.9C183.5,287.7,182,288.1,180.5,288.1L180.5,288.1z"/>
<path class="st0" d="M166,277c-0.8,0-1.6-0.4-2-1.1c-2.4-4.3-3.8-8.9-3.8-13c0-4.4,1.8-8.1,4.8-9.9c1.1-0.6,2.4-0.3,3.1,0.8
	c0.6,1.1,0.3,2.4-0.8,3.1c-1.7,1-2.6,3.2-2.6,6c0,3.3,1.2,7.2,3.2,10.8c0.6,1.1,0.2,2.4-0.9,3C166.8,276.9,166.4,277,166,277
	L166,277z"/>
<path class="st0" d="M183.6,267.2c-0.8,0-1.6-0.4-2-1.2c-1.9-3.4-4.8-6.6-7.7-8.4c-2.5-1.4-4.9-1.7-6.4-0.8c-1,0.7-2.4,0.3-3.1-0.7
	c-0.7-1-0.3-2.4,0.7-3.1c3-1.8,7-1.6,11.1,0.8c3.6,2.2,7.1,6,9.4,10c0.6,1.1,0.2,2.4-0.9,3C184.4,267.1,184,267.2,183.6,267.2
	L183.6,267.2z"/>
<path class="st0" d="M139.3,253.8c-1.2,0-2.2-1-2.2-2.2v-37.5l-5.6-3.2c-1.1-0.6-1.4-2-0.8-3.1c0.6-1.1,2-1.4,3.1-0.8l6.7,3.9
	c0.7,0.4,1.1,1.1,1.1,1.9v38.8C141.6,252.8,140.6,253.8,139.3,253.8L139.3,253.8z"/>
<path class="st0" d="M94.3,228c-0.4,0-0.8-0.1-1.2-0.3c-2.7-1.7-5.5-3.2-8.2-4.8c-2.3-1.3-4.7-2.6-6.9-4c-1.1-0.6-1.4-2-0.7-3.1
	c0.6-1.1,2-1.4,3.1-0.7c2.2,1.4,4.5,2.6,6.8,3.9c2.8,1.6,5.7,3.2,8.4,4.9c1,0.7,1.4,2,0.7,3.1C95.7,227.6,95,228,94.3,228L94.3,228z
	"/>
<path class="st0" d="M72.4,195.1c-0.8,0-1.6-0.4-2-1.2l-0.8-1.5c-0.2-0.5-0.4-0.7-0.6-0.9c-0.2-0.2-0.4-0.4-0.5-0.6
	c-0.4-0.8-1.1-1.6-1.8-2.5c-0.1-0.1-0.2-0.3-0.3-0.4c-0.1-0.1-0.2-0.2-0.3-0.4l0,0c-0.8-1-1.5-1.9-2.4-2.7c-0.1-0.1-0.3-0.3-0.4-0.4
	l-0.8-0.8c-0.6-0.6-1.1-1.2-1.7-1.7c-1-0.8-2-1.6-3-2.3c-0.8-0.6-1.5-1.1-2.2-1.5c-1-0.4-1.8-0.9-2.7-1.4c-0.6-0.3-1.5-0.5-2.2-0.7
	c-0.8-0.2-1.4-0.4-2.1-0.5c-2.5-0.4-4.6-0.1-6.8,1.1c-3.5,2-5.5,6.6-5.5,12.4c0,0.6,0,0.9,0.1,1.2c0.5,1.1-0.1,2.4-1.3,2.9
	c-1.1,0.5-2.5-0.1-2.9-1.3c-0.4-1.1-0.4-2.1-0.4-2.8c0-7.5,2.8-13.4,7.8-16.3c3.2-1.7,6.4-2.2,9.8-1.6c0.9,0.1,1.8,0.4,2.7,0.7
	c0.8,0.2,2,0.6,2.9,1c0.9,0.5,1.7,0.9,2.7,1.4c1,0.6,1.9,1.2,2.8,1.8c1.1,0.7,2.2,1.6,3.3,2.5c0.8,0.7,1.4,1.3,2.1,2l1,1
	c0.1,0.1,0.2,0.2,0.2,0.3c0.9,0.9,1.7,1.8,2.5,2.9c0.4,0.3,0.8,0.6,1,1.2c0.7,0.8,1.4,1.7,1.9,2.7c0.6,0.6,0.9,1.3,1.2,1.7l0.8,1.5
	c0.6,1.1,0.1,2.4-1,3C73.1,195.1,72.8,195.1,72.4,195.1L72.4,195.1z"/>
<path class="st0" d="M28.4,190c-0.4,0-0.7-0.1-1.1-0.3c-3.4-1.8-6.4-4.9-8.6-8.9c-2.2-3.5-3.5-7.7-3.5-11.6c0-1.2,1-2.2,2.3-2.2
	c1.2,0,2.2,1,2.2,2.2c0,3.1,1,6.5,2.9,9.4c1.9,3.3,4.3,5.8,6.9,7.2c1.1,0.6,1.5,1.9,0.9,3C30,189.6,29.2,190,28.4,190L28.4,190z"/>
<path class="st0" d="M139.3,215c-0.4,0-0.7-0.1-1.1-0.3c-2.4-1.3-4.6-2.6-6.8-3.9c-0.7-0.3-1.6-0.8-2.2-1.3c-1-0.7-1.3-2.1-0.6-3.1
	c0.7-1,2.1-1.3,3.1-0.6c0.5,0.3,1.1,0.7,1.8,1c2.3,1.4,4.4,2.6,6.8,3.9c1.1,0.6,1.5,1.9,0.9,3C140.9,214.5,140.1,215,139.3,215
	L139.3,215z"/>
<path class="st0" d="M129.2,210.6c-0.4,0-0.8-0.1-1.2-0.3c-0.7-0.4-1.1-1.1-1.1-1.9v-83c0-0.8,0.4-1.5,1.1-1.9l0.5-0.3l12.3-6.9
	l74.9-42.9c0.7-0.4,1.6-0.4,2.3,0c0.7,0.4,1.1,1.1,1.1,1.9v28.1c0,1.2-1,2.2-2.2,2.2s-2.3-1-2.3-2.2V79.1l-83.3,47.6v77.9l6.8-3.9
	c1.1-0.6,2.5-0.2,3,0.9c0.6,1.1,0.2,2.4-0.9,3l-2.4,1.2l-7.7,4.5C129.9,210.5,129.6,210.6,129.2,210.6L129.2,210.6z"/>
<path class="st0" d="M199.1,191.9c-1.1,0-2-0.8-2.2-1.9c-0.5-2.7-1.6-5.4-3.4-7.8c-2-2.6-3.9-4.4-5.9-5.6c-1.1-0.6-1.5-2-0.8-3
	c0.6-1.1,2-1.4,3.1-0.8c2.6,1.5,5,3.7,7.3,6.8c2.2,3.1,3.6,6.4,4.2,9.7c0.2,1.2-0.6,2.4-1.8,2.6
	C199.4,191.8,199.2,191.9,199.1,191.9L199.1,191.9z"/>
<path class="st0" d="M139.4,150.5c-1.2,0-2.3-0.9-2.3-2.2c0-1.2,0.3-2.1,1-2.7c0.4-0.4,1.2-0.9,2.4-0.8c0.1,0,0.5,0.1,0.7,0.1
	c0.3,0.1,0.6,0.2,1,0.4c1.1,0.6,1.6,1.9,1,3c-0.4,0.8-1,1.1-2.1,1.2C140.8,150.2,140.1,150.5,139.4,150.5L139.4,150.5z"/>
<path class="st0" d="M139.3,259.4c-1.2,0-2.2-1-2.2-2.2v-31.3c0-0.4,0-0.7-0.7-1.1c-1.1-0.6-1.4-2-0.8-3.1c0.6-1.1,2-1.4,3.1-0.8
	c2,1.1,3,2.9,3,5v31.3C141.6,258.4,140.6,259.4,139.3,259.4L139.3,259.4z"/>
<path class="st0" d="M133.2,258.3c-1.2,0-2.3-1-2.3-2.2v-26.6c0-0.5-0.1-0.8-0.7-1.2c-1.1-0.6-1.4-2-0.8-3.1c0.6-1.1,2-1.4,3.1-0.8
	c2,1.1,3,2.8,3,5V256C135.5,257.3,134.5,258.3,133.2,258.3L133.2,258.3z"/>
<path class="st0" d="M190.6,194.8c-1.1,0-2.1-0.8-2.2-1.9c-0.2-1.4-0.8-2.8-1.8-4.2c-0.9-1.3-1.9-2.3-3-3c-1.1-0.6-1.4-2-0.8-3.1
	c0.6-1,2-1.4,3.1-0.8c1.6,1,3.2,2.5,4.4,4.3c1.3,1.9,2.2,4,2.5,6c0.2,1.2-0.7,2.4-1.9,2.5C190.8,194.8,190.7,194.8,190.6,194.8
	L190.6,194.8z"/>
<path class="st0" d="M215.4,235c-0.3,0-0.6-0.1-0.9-0.2c-0.7-0.3-1.1-0.9-1.3-1.6L203,186.6c-0.2-0.9,0.2-1.9,1.1-2.4l71.5-41
	c0.6-0.3,1.4-0.4,2-0.1c0.7,0.3,1.1,0.9,1.3,1.6l10.1,46.6c0.2,0.9-0.2,1.9-1.1,2.4l-71.5,41C216.2,234.9,215.8,235,215.4,235
	L215.4,235z M207.8,187.3l9.1,42.1l67.4-38.7l-9.1-42.1L207.8,187.3L207.8,187.3z"/>
<path class="st0" d="M215.4,235c-0.3,0-0.6-0.1-0.9-0.2c-0.7-0.3-1.1-0.9-1.3-1.6l-3.5-15.2c-0.2-1,0.2-2,1.1-2.4l35.7-19.9
	l6.4-11.4c0.2-0.4,0.5-0.7,0.9-0.9l18.7-10.6c0.5-0.3,1.1-0.4,1.7-0.2l10.1,2.6c0.8,0.2,1.5,0.9,1.6,1.7l3.2,14.4
	c0.2,1-0.2,1.9-1.1,2.4l-71.5,41C216.2,234.9,215.8,235,215.4,235L215.4,235z M214.5,218.7l2.4,10.6l67.4-38.7l-2.5-11.5l-7.9-2
	l-17.3,9.8l-6.4,11.4c-0.2,0.4-0.5,0.7-0.9,0.9L214.5,218.7L214.5,218.7z"/>
<path class="st0" d="M153.5,209.8c-0.3,0-0.7-0.1-1-0.2c-0.5-0.3-1-0.7-1.5-1.3c-0.1-0.1-0.7-0.7-1-1.6c-0.3-0.7-0.6-1.4-0.6-2.2
	c0-1.2,1-2.2,2.2-2.2c1.2,0,2.2,1,2.2,2.1c0,0.1,0.1,0.2,0.3,0.5c0.1,0.1,0.1,0.3,0.2,0.4c0.1,0.1,0.3,0.3,0.3,0.3
	c1.1,0.5,1.5,1.9,1,3C155.2,209.4,154.4,209.8,153.5,209.8L153.5,209.8z M154.4,206L154.4,206L154.4,206L154.4,206z M153.9,204.5
	L153.9,204.5L153.9,204.5L153.9,204.5z"/>
<path class="st0" d="M105.7,228.9c-0.9,0-1.8-0.3-2.7-0.8c-2.8-1.5-4.9-5-4.9-8c0-1.9,0.8-3.4,2.1-4.2c1.4-0.8,3.2-0.8,4.9,0.2
	c2.6,1.6,4.7,5.1,4.7,8.1c0,1.9-0.8,3.5-2.2,4.2C107.1,228.7,106.4,228.9,105.7,228.9L105.7,228.9z M102.5,219.8
	C102.5,219.8,102.5,219.8,102.5,219.8c0.2,1.8,1.4,3.7,2.7,4.5c0,0,0.1,0,0.1,0.1c0.3,0.1,0.4,0.2,0.4,0.2c-0.3-1.7-1.5-3.8-2.7-4.5
	C102.7,219.8,102.5,219.8,102.5,219.8L102.5,219.8z"/>
<path class="st0" d="M195.4,183.1c-0.8,0-1.5-0.4-1.9-1.1c-0.6-1.1-0.3-2.4,0.8-3.1l83.8-48.1c1.1-0.6,2.4-0.3,3.1,0.8
	c0.6,1.1,0.3,2.4-0.8,3.1l-83.8,48.1C196.1,183,195.7,183.1,195.4,183.1L195.4,183.1z"/>
<path class="st0" d="M140.6,149.2c-0.8,0-1.5-0.3-1.9-1c-0.6-1-0.5-2.3,0.5-2.9l0.3-0.2l83.4-47.7c1.1-0.6,2.4-0.3,3.1,0.8
	c0.6,1.1,0.3,2.4-0.8,3l-83.2,47.6C141.4,149.1,141,149.2,140.6,149.2L140.6,149.2z"/>
<path class="st0" d="M278.5,230.2c-1,0-2-0.3-2.9-0.8c-1.9-1.1-3-3.3-3-6.1c0-5,3.4-10.8,7.8-13.2c2.3-1.4,4.7-1.6,6.6-0.5
	c2,1.1,3.1,3.4,3.1,6.2c0,4.9-3.3,10.6-7.5,13.2c0,0,0,0-0.1,0C281.2,229.8,279.8,230.2,278.5,230.2L278.5,230.2z M281.5,227.1
	L281.5,227.1L281.5,227.1L281.5,227.1z M284.4,213.4c-0.5,0-1,0.2-1.7,0.6c-3.1,1.7-5.6,5.9-5.6,9.3c0,1.1,0.3,2,0.8,2.3
	c0.5,0.3,1.4,0.1,2.5-0.4c2.8-1.7,5.3-6.1,5.3-9.3c0-1.1-0.3-2-0.8-2.3C284.7,213.4,284.6,213.4,284.4,213.4L284.4,213.4z"/>
<path class="st0" d="M209.5,293.1c-0.4,0-0.8-0.1-1.1-0.3c-0.7-0.4-1.1-1.1-1.1-1.9v-12.6c0-0.8,0.4-1.5,1.1-1.9l86.4-49.5
	c0.7-0.4,1.6-0.4,2.2,0c0.7,0.4,1.1,1.1,1.1,1.9v12.6c0,0.8-0.4,1.5-1.1,1.9l-86.4,49.5C210.3,293,209.9,293.1,209.5,293.1
	L209.5,293.1z M211.8,279.6v7.4l81.9-46.9v-7.4L211.8,279.6L211.8,279.6z M295.9,241.4L295.9,241.4L295.9,241.4L295.9,241.4z"/>
<path class="st0" d="M220.4,263.4c-1,0-2-0.2-2.9-0.8c-1.9-1.1-3-3.3-3-6.1c0-5,3.4-10.8,7.8-13.2c2.5-1.4,5-1.6,7-0.4
	c1.9,1.1,3,3.3,3,6.1c0,5-3.4,10.8-7.8,13.2c0,0,0,0,0,0C223.1,263,221.7,263.4,220.4,263.4L220.4,263.4z M223.4,260.2L223.4,260.2
	L223.4,260.2L223.4,260.2z M226.4,246.6c-0.5,0-1.2,0.2-1.9,0.6c-3,1.7-5.5,5.9-5.5,9.3c0,1.1,0.3,1.9,0.8,2.2
	c0.5,0.3,1.5,0.1,2.5-0.4c3-1.7,5.5-5.9,5.5-9.3c0-1.1-0.3-2-0.8-2.2C226.9,246.6,226.7,246.6,226.4,246.6L226.4,246.6z"/>
<path class="st0" d="M207.9,293.2c-0.4,0-0.8-0.1-1.1-0.3l-10.4-6c-1.1-0.6-1.4-2-0.8-3.1c0.6-1.1,2-1.4,3.1-0.8l10.4,6
	c1.1,0.6,1.4,2,0.8,3.1C209.4,292.8,208.7,293.2,207.9,293.2L207.9,293.2z"/>
<path class="st0" d="M208.8,293.4c-0.5,0-1-0.1-1.5-0.4c-0.9-0.3-1.6-1.2-1.6-2.1c0-1.4,1.5-2.5,2.9-2.1c0,0,0.1,0,0.1,0
	c0.7-0.3,1.6-0.2,2.3,0.3c1,0.8,1.1,2.2,0.3,3.1C210.6,293,209.7,293.4,208.8,293.4L208.8,293.4z M210.2,291L210.2,291L210.2,291
	L210.2,291z"/>
<path class="st0" d="M209.5,293.1c-1.2,0-2.3-1-2.3-2.2v-11.3l-13.3-7.7c-1.1-0.6-1.4-2-0.8-3.1c0.6-1.1,2-1.4,3.1-0.8l14.4,8.3
	c0.7,0.4,1.1,1.1,1.1,1.9v12.6C211.8,292.1,210.7,293.1,209.5,293.1L209.5,293.1z"/>
<path class="st0" d="M185.1,301c-3.4,0-7.2-1.1-11.1-3.3c-6.5-3.6-12.4-9.9-16.8-17.5c-4.5-7.9-7-16.1-7-23.1
	c0-5.1,1.1-9.3,3.4-12.4c2.3-3.2,5.7-5.2,9.8-5.6c8.2-0.9,15.7,4.6,20.4,9.3c6.4,6.3,10.7,13.2,13.6,21.6c2.6,7.4,3.1,13.8,1.6,19.4
	c-0.1,0.4-0.2,0.7-0.3,1.1c1.8-1,3.5-2,5.1-3c1.1-0.7,2.4-0.3,3.1,0.7c0.7,1.1,0.3,2.4-0.7,3.1c-2.8,1.7-6.5,3.8-9.5,5.4
	c-2,1.1-3.8,2.1-4.6,2.6c0,0,0,0-0.1,0l0,0l0,0C189.9,300.4,187.6,301,185.1,301L185.1,301z M165.1,243.4c-0.4,0-0.9,0-1.3,0.1
	c-2.8,0.3-5,1.6-6.6,3.8c-1.7,2.3-2.5,5.7-2.5,9.8c0,6.3,2.3,13.7,6.4,20.9c4,7,9.4,12.6,15.2,15.9c5.2,2.9,10,3.5,13.4,1.6
	c2.6-1.9,4.2-4.1,5-7.3c1.2-4.6,0.7-10.3-1.5-16.8c-2.6-7.7-6.6-14-12.5-19.8C176.8,247.7,171.2,243.4,165.1,243.4L165.1,243.4z"/>
<path class="st0" d="M190.3,239.8c-0.4,0-0.8-0.1-1.1-0.3c-0.7-0.4-1.1-1.1-1.1-1.9v-21.3c0-0.8,0.4-1.5,1.1-1.9l8.3-4.8
	c0.7-0.4,1.6-0.4,2.2,0c0.7,0.4,1.1,1.1,1.1,1.9v21.3c0,0.8-0.4,1.5-1.1,1.9l-8.3,4.8C191.1,239.7,190.7,239.8,190.3,239.8
	L190.3,239.8z M192.5,217.6v16.1l3.8-2.2v-16.1L192.5,217.6L192.5,217.6z M198.6,232.8L198.6,232.8L198.6,232.8L198.6,232.8z"/>
<path class="st0" d="M291.7,181.5c-0.4,0-0.8-0.1-1.1-0.3c-0.7-0.4-1.1-1.1-1.1-1.9V158c0-0.8,0.4-1.5,1.1-1.9l8.3-4.8
	c0.7-0.4,1.6-0.4,2.3,0c0.7,0.4,1.1,1.1,1.1,1.9v21.3c0,0.8-0.4,1.5-1.1,1.9l-8.3,4.8C292.4,181.4,292,181.5,291.7,181.5
	L291.7,181.5z M293.9,159.3v16.1l3.8-2.2v-16.1L293.9,159.3L293.9,159.3z M299.9,174.5L299.9,174.5L299.9,174.5L299.9,174.5z"/>
<path class="st0" d="M83.6,184.4c-1.2,0-2.3-1-2.3-2.2l0.3-83c0-1.2,1-2.2,2.2-2.2c0,0,0,0,0,0c1.2,0,2.2,1,2.2,2.2l-0.3,83
	C85.9,183.4,84.8,184.4,83.6,184.4L83.6,184.4z"/>
<path class="st0" d="M42.8,161c-1.2,0-2.2-1-2.2-2.2V75.9c0-1.2,1-2.3,2.2-2.3c1.2,0,2.3,1,2.3,2.2v82.9C45,160,44,161,42.8,161
	L42.8,161z"/>
<path class="st0" d="M63.3,171.4c-1.2,0-2.2-1-2.2-2.2v-0.1c0-1.2,1-2.2,2.2-2.2c1.2,0,2.3,1,2.3,2.2
	C65.6,170.4,64.6,171.4,63.3,171.4L63.3,171.4z"/>
<path class="st0" d="M34.3,193.4c-0.4,0-0.8-0.1-1.1-0.3l-5.9-3.4c-1.1-0.6-1.4-2-0.8-3.1c0.6-1.1,2-1.4,3.1-0.8l5.9,3.4
	c1.1,0.6,1.4,2,0.8,3.1C35.8,193,35,193.4,34.3,193.4L34.3,193.4z"/>
<path class="st0" d="M17.5,171.4c-1.2,0-2.3-1-2.3-2.2v-26.3c0-1.2,1-2.2,2.3-2.2c1.2,0,2.2,1,2.2,2.2v26.3
	C19.7,170.4,18.7,171.4,17.5,171.4L17.5,171.4z"/>
<path class="st0" d="M139.3,215c-1.2,0-2.2-1-2.2-2.2c0-1.2,1-2.3,2.2-2.3c1.2,0,2.3,1,2.3,2.2v0.1C141.6,214,140.6,215,139.3,215
	L139.3,215z"/>
<path class="st0" d="M22.5,148.1c-0.3,0-0.7-0.1-1-0.3c-1.6-0.8-3-1.7-4.3-2.5l-0.9-0.5c-1.1-0.6-1.4-2-0.8-3.1
	c0.6-1.1,2-1.4,3.1-0.8l0.9,0.5c1.3,0.8,2.6,1.6,4.1,2.3c1.1,0.6,1.5,1.9,1,3C24.1,147.6,23.3,148.1,22.5,148.1L22.5,148.1z"/>
<path class="st0" d="M152.4,156c-1.2,0-2.2-1-2.2-2.2v-0.1c0-1.2,1-2.2,2.2-2.2c1.2,0,2.3,1,2.3,2.2C154.7,155,153.7,156,152.4,156
	L152.4,156z"/>
<path class="st0" d="M293.5,232.4c-1.2,0-2.3-1-2.3-2.2v-38.4c0-1.2,1-2.2,2.3-2.2c1.2,0,2.2,1,2.2,2.2v38.4
	C295.8,231.4,294.8,232.4,293.5,232.4L293.5,232.4z"/>
<path class="st0" d="M293.5,194c-1.2,0-2.3-1-2.3-2.2c0-0.9-0.2-1.7-0.4-2.7l2.1-0.9l2.2-0.5c0.3,1.5,0.6,2.7,0.6,4
	C295.8,193,294.8,194,293.5,194L293.5,194z"/>
<path class="st0" d="M293,190.4c-1,0-2-0.7-2.2-1.8l-9.9-46.6c-0.2-1.2,0.5-2.4,1.7-2.6c1.2-0.3,2.4,0.5,2.7,1.7l9.9,46.6
	c0.3,1.2-0.5,2.4-1.7,2.6C293.3,190.4,293.1,190.4,293,190.4L293,190.4z"/>
<path class="st0" d="M283.1,143.8c-1,0-1.9-0.7-2.2-1.7c-0.7-2.8-1.8-5.2-3.7-8c-0.7-1-0.4-2.4,0.6-3.1c1-0.7,2.4-0.4,3.1,0.6
	c2.2,3.2,3.5,6.1,4.3,9.5c0.3,1.2-0.5,2.4-1.7,2.7C283.5,143.8,283.3,143.8,283.1,143.8L283.1,143.8z"/>
<path class="st0" d="M199.1,191.9c-1.1,0-2-0.8-2.2-1.9c-0.5-2.7-1.6-5.4-3.4-7.8c-0.7-1-0.5-2.4,0.5-3.1c1-0.7,2.4-0.5,3.1,0.5
	c2.1,3,3.5,6.3,4.1,9.6c0.2,1.2-0.6,2.4-1.8,2.6C199.4,191.8,199.2,191.9,199.1,191.9L199.1,191.9z"/>
<path class="st0" d="M209.5,280.5c-1.2,0-2.3-1-2.3-2.2v-38.4c0-1.2,1-2.2,2.3-2.2c1.2,0,2.2,1,2.2,2.2v38.4
	C211.8,279.5,210.7,280.5,209.5,280.5L209.5,280.5z"/>
<path class="st0" d="M209.5,242.1c-1.2,0-2.3-1-2.3-2.2c0-0.5-0.1-1.1-0.1-1.6c-0.1-0.7-0.1-1.3-0.1-2c0-1.2,1-2.2,2.3-2.2
	c1.2,0,2.2,1,2.2,2.2c0,0.5,0.1,1,0.1,1.5c0.1,0.7,0.1,1.3,0.1,2.1C211.8,241.1,210.7,242.1,209.5,242.1L209.5,242.1z"/>
<path class="st0" d="M209.2,238.5c-1,0-2-0.7-2.2-1.8l-10.1-46.6c-0.3-1.2,0.5-2.4,1.7-2.7c1.2-0.3,2.4,0.5,2.7,1.7l10.1,46.6
	c0.3,1.2-0.5,2.4-1.7,2.7C209.6,238.5,209.4,238.5,209.2,238.5L209.2,238.5z"/>
<path class="st0" d="M139.3,253.8c-1.2,0-2.2-1-2.2-2.2V148.4c0-1.2,1-2.2,2.2-2.2c1.2,0,2.3,1,2.3,2.2v103.2
	C141.6,252.8,140.6,253.8,139.3,253.8L139.3,253.8z"/>
<path class="st0" d="M95.1,208.2c-0.8,0-1.5-0.4-1.9-1.1c-0.6-1.1-0.3-2.4,0.8-3l5.6-3.2c1.1-0.6,2.4-0.3,3.1,0.8
	c0.6,1.1,0.3,2.4-0.8,3l-5.6,3.2C95.8,208.1,95.5,208.2,95.1,208.2L95.1,208.2z"/>
<path class="st0" d="M102.5,204.9c-0.3,0-0.6-0.1-0.9-0.2c-1,0.3-2.3,0-2.8-0.9c-0.6-1.1-0.4-2.4,0.7-3c1.1-0.6,2.3-1.1,4.1-0.1
	c1.1,0.6,1.5,2,0.8,3C104.1,204.5,103.3,204.9,102.5,204.9L102.5,204.9z"/>
<path class="st0" d="M137.5,225c-0.4,0-0.8-0.1-1.1-0.3l-34.9-20.1c-1.1-0.6-1.4-2-0.8-3.1c0.6-1.1,2-1.4,3.1-0.8l34.9,20.1
	c1.1,0.6,1.4,2,0.8,3.1C139,224.6,138.3,225,137.5,225L137.5,225z"/>
<path class="st0" d="M132.7,263.2c-0.8,0-1.5-0.4-2-1.1c-0.6-1.1-0.2-2.4,0.8-3l6.7-3.8c1.1-0.6,2.5-0.2,3.1,0.8
	c0.6,1.1,0.2,2.4-0.8,3l-6.7,3.8C133.4,263.1,133.1,263.2,132.7,263.2L132.7,263.2z"/>
<path class="st0" d="M133.2,262c-1.2,0-2.3-1-2.3-2.2V256c0-1.2,1-2.2,2.3-2.2c1.2,0,2.2,1,2.2,2.2v3.7
	C135.5,261,134.5,262,133.2,262L133.2,262z"/>
<path class="st0" d="M132.2,263.3c-0.6,0-1.3-0.2-1.9-0.5c-1.1-0.6-1.5-1.9-0.9-3c0.4-0.8,1.1-1.3,2.1-1.2c0.4-0.6,1.1-0.9,1.9-1
	c1.2,0,2.2,0.9,2.2,2.1c0,1.3-0.6,2.5-1.6,3.1C133.4,263.1,132.8,263.3,132.2,263.3L132.2,263.3z"/>
<path class="st0" d="M131.4,263c-0.4,0-0.8-0.1-1.1-0.3L95,242.5c-1.1-0.6-1.4-2-0.8-3.1c0.6-1.1,2-1.4,3.1-0.8l35.2,20.2
	c1.1,0.6,1.4,2,0.8,3.1C132.9,262.6,132.1,263,131.4,263L131.4,263z"/>
<path class="st0" d="M96.1,242.8c-0.4,0-0.8-0.1-1.1-0.3c-1.5-0.9-2.7-3.1-2.7-4.9c0-1.2,1-2.2,2.3-2.2c1.2,0,2.2,1,2.2,2.2
	c0,0.3,0.3,1,0.6,1.1c1,0.7,1.2,2.1,0.6,3.1C97.5,242.5,96.8,242.8,96.1,242.8L96.1,242.8z"/>
<path class="st0" d="M94.5,239.8c-1.2,0-2.3-1-2.3-2.2v-30.5c0-1.2,1-2.2,2.3-2.2c1.2,0,2.2,1,2.2,2.2v30.5
	C96.8,238.8,95.8,239.8,94.5,239.8L94.5,239.8z"/>
<path class="st0" d="M94.5,209.3C94.5,209.3,94.5,209.3,94.5,209.3c-1.3,0-2.3-1-2.3-2.2c0-1.4,0.7-2.6,1.7-3.1
	c1.1-0.5,2.3-0.4,3.4,0.3c1,0.7,1.3,2.1,0.6,3.1c-0.4,0.6-1,0.9-1.6,0.9C96,208.9,95.3,209.3,94.5,209.3L94.5,209.3z"/>
<path class="st0" d="M131.4,228.5c-0.4,0-0.8-0.1-1.1-0.3L95,208c-1.1-0.6-1.4-2-0.8-3.1c0.6-1.1,2-1.4,3.1-0.8l35.2,20.2
	c1.1,0.6,1.4,2,0.8,3.1C132.9,228.1,132.1,228.5,131.4,228.5L131.4,228.5z"/>
<path class="st0" d="M133.2,231.6c-1.2,0-2.3-1-2.3-2.2c0-0.3-0.3-0.9-0.7-1.1c-1.1-0.6-1.5-2-0.9-3c0.6-1.1,2-1.5,3.1-0.9
	c1.8,1,3,3.1,3,5C135.5,230.6,134.5,231.6,133.2,231.6L133.2,231.6z"/>
<path class="st0" d="M133.2,258.3c-1.2,0-2.3-1-2.3-2.2v-26.6c0-1.2,1-2.2,2.3-2.2c1.2,0,2.2,1,2.2,2.2V256
	C135.5,257.3,134.5,258.3,133.2,258.3L133.2,258.3z"/>
<path class="st0" d="M195.1,215.8c-1,0-2-0.7-2.2-1.8l-4.5-21c-0.3-1.2,0.5-2.4,1.7-2.7c1.2-0.3,2.4,0.5,2.7,1.7l4.5,21
	c0.3,1.2-0.5,2.4-1.7,2.7C195.4,215.8,195.3,215.8,195.1,215.8L195.1,215.8z"/>
<path class="st0" d="M184.7,186.1c-0.4,0-0.8-0.1-1.1-0.3L152.4,168c-1.1-0.6-1.4-2-0.8-3c0.6-1.1,2-1.4,3.1-0.8l31.2,17.8
	c1.1,0.6,1.4,2,0.8,3C186.2,185.7,185.5,186.1,184.7,186.1L184.7,186.1z"/>
<path class="st0" d="M151.6,169.2C151.6,169.2,151.6,169.2,151.6,169.2c-1.3,0-2.2-1-2.2-2.2c0-1.3,0.6-2.5,1.6-3.1
	c1-0.6,2.4-0.6,3.6,0.1c1.1,0.6,1.5,2,0.9,3c-0.4,0.7-1.1,1.2-2,1.2C153,168.8,152.4,169.2,151.6,169.2L151.6,169.2z M153.5,166
	l-1.1,1.9c0,0,0,0,0,0L153.5,166L153.5,166z"/>
<path class="st0" d="M151.6,206.7c-1.2,0-2.2-1-2.2-2.2V167c0-1.2,1-2.2,2.2-2.2c1.2,0,2.3,1,2.3,2.2v37.4
	C153.9,205.7,152.9,206.7,151.6,206.7L151.6,206.7z"/>
<path class="st0" d="M151.6,206.7c-1.2,0-2.2-1-2.2-2.2V198c0-1.2,1-2.2,2.2-2.2c1.2,0,2.3,1,2.3,2.2v6.5
	C153.9,205.7,152.9,206.7,151.6,206.7L151.6,206.7z"/>
<path class="st0" d="M190.3,231c-0.4,0-0.8-0.1-1.1-0.3l-36.8-21.2c-1.1-0.6-1.4-2-0.8-3.1c0.6-1.1,2-1.4,3.1-0.8l36.8,21.2
	c1.1,0.6,1.4,2,0.8,3.1C191.8,230.6,191.1,231,190.3,231L190.3,231z"/>
<path class="st0" d="M279.1,135.1c-0.8,0-1.5-0.4-1.9-1.1c-1.3-2.2-3.2-4-5.7-5.5c-1.1-0.7-1.4-2-0.7-3.1c0.7-1,2-1.4,3.1-0.7
	c3.1,1.9,5.4,4.2,7.1,7c0.6,1,0.3,2.4-0.7,3.1C279.9,134.9,279.5,135.1,279.1,135.1L279.1,135.1z"/>
<path class="st0" d="M195.4,183.1c-0.7,0-1.4-0.3-1.8-0.9c-2-2.7-3.9-4.4-6-5.6c-1.1-0.6-1.5-2-0.8-3c0.6-1.1,2-1.4,3.1-0.8
	c2.6,1.5,5,3.7,7.3,6.8c0.7,1,0.5,2.4-0.5,3.1C196.3,183,195.8,183.1,195.4,183.1L195.4,183.1z"/>
<path class="st0" d="M188.7,176.9c-0.4,0-0.8-0.1-1.1-0.3l-47.5-27.3c-1.1-0.6-1.4-2-0.8-3.1c0.6-1.1,2-1.4,3.1-0.8l47.5,27.3
	c1.1,0.6,1.4,2,0.8,3C190.2,176.5,189.5,176.9,188.7,176.9L188.7,176.9z"/>
<path class="st0" d="M141.2,149.6c-0.3,0-0.7-0.1-1-0.2c-1.1-0.4-2-1.8-1.6-2.9c0.4-1.1,1.3-1.8,2.5-1.5c0.5,0.1,0.8,0.2,1.1,0.4
	c1.1,0.6,1.6,1.9,1,3C142.8,149.1,142,149.6,141.2,149.6L141.2,149.6z"/>
<path class="st0" d="M225.2,101.6c-0.3,0-0.6-0.1-0.9-0.2c-1.2,0.4-2.3-0.2-2.7-1.4c-0.4-1.2,0.4-2.5,1.5-2.9c1.3-0.5,2.2-0.2,3,0.2
	c1.1,0.5,1.6,1.8,1.1,3C226.9,101.1,226.1,101.6,225.2,101.6L225.2,101.6z"/>
<path class="st0" d="M272.7,128.8c-0.4,0-0.8-0.1-1.1-0.3l-47.5-27.2c-1.1-0.6-1.4-2-0.8-3c0.6-1.1,2-1.4,3.1-0.8l47.5,27.2
	c1.1,0.6,1.4,2,0.8,3C274.3,128.4,273.5,128.8,272.7,128.8L272.7,128.8z"/>
<path class="st0" d="M162.6,224.2c-0.4,0-0.8-0.1-1.1-0.3l-11.7-6.7c-1.1-0.6-1.4-2-0.8-3c0.6-1.1,2-1.4,3.1-0.8l11.7,6.7
	c1.1,0.6,1.4,2,0.8,3.1C164.1,223.8,163.3,224.2,162.6,224.2L162.6,224.2z"/>
<path class="st0" d="M237.2,253.8c-1.2,0-2.2-1-2.2-2.2v-19.2c0-1.2,1-2.2,2.2-2.2c1.2,0,2.3,1,2.3,2.2v19.2
	C239.5,252.8,238.5,253.8,237.2,253.8L237.2,253.8z"/>
<path class="st0" d="M244.5,249.6c-1.2,0-2.3-1-2.3-2.2v-19.2c0-1.2,1-2.2,2.3-2.2c1.2,0,2.2,1,2.2,2.2v19.2
	C246.7,248.6,245.7,249.6,244.5,249.6L244.5,249.6z"/>
<path class="st0" d="M252.2,245.1c-1.2,0-2.3-1-2.3-2.2v-19.2c0-1.2,1-2.2,2.3-2.2c1.2,0,2.2,1,2.2,2.2v19.2
	C254.4,244.1,253.4,245.1,252.2,245.1L252.2,245.1z"/>
<path class="st0" d="M259.9,240.8c-1.2,0-2.3-1-2.3-2.2v-19.2c0-1.2,1-2.2,2.3-2.2c1.2,0,2.2,1,2.2,2.2v19.2
	C262.2,239.8,261.2,240.8,259.9,240.8L259.9,240.8z"/>
<path class="st0" d="M267.9,236.2c-1.2,0-2.2-1-2.2-2.2v-19.3c0-1.2,1-2.2,2.2-2.2c1.2,0,2.3,1,2.3,2.2V234
	C270.2,235.2,269.2,236.2,267.9,236.2L267.9,236.2z"/>
<path class="st0" d="M198.6,235c-0.8,0-1.6-0.4-2-1.2c-0.6-1.1-0.2-2.4,0.9-3l4.3-2.3c1.1-0.6,2.4-0.2,3.1,0.9
	c0.6,1.1,0.2,2.4-0.9,3l-4.3,2.3C199.3,234.9,198.9,235,198.6,235L198.6,235z"/>
<path class="st0" d="M104.1,113.9c-0.8,0-1.5-0.4-1.9-1.1c-0.6-1.1-0.3-2.4,0.8-3l87.5-50.2c1.1-0.6,2.4-0.3,3.1,0.8
	c0.6,1.1,0.3,2.4-0.8,3l-87.5,50.2C104.9,113.8,104.5,113.9,104.1,113.9L104.1,113.9z"/>
<path class="st0" d="M104.1,196.8c-1.2,0-2.3-1-2.3-2.2v-82.9c0-1.2,1-2.2,2.3-2.2c1.2,0,2.2,1,2.2,2.2v82.9
	C106.4,195.8,105.4,196.8,104.1,196.8L104.1,196.8z"/>
<path class="st0" d="M83.9,101.4c-0.8,0-1.5-0.4-1.9-1.1c-0.6-1.1-0.3-2.4,0.8-3l87.5-50.2c1.1-0.6,2.5-0.3,3.1,0.8
	c0.6,1.1,0.3,2.4-0.8,3L85,101.1C84.6,101.3,84.3,101.4,83.9,101.4L83.9,101.4z"/>
<path class="st0" d="M63.3,89.7c-0.8,0-1.5-0.4-1.9-1.1c-0.6-1.1-0.3-2.4,0.8-3l87.5-50.1c1.1-0.6,2.4-0.3,3.1,0.8
	c0.6,1.1,0.3,2.4-0.8,3L64.5,89.4C64.1,89.6,63.7,89.7,63.3,89.7L63.3,89.7z"/>
<path class="st0" d="M63.3,172.7c-1.2,0-2.2-1-2.2-2.2V87.5c0-1.2,1-2.2,2.2-2.2c1.2,0,2.3,1,2.3,2.2v82.9
	C65.6,171.7,64.6,172.7,63.3,172.7L63.3,172.7z"/>
<path class="st0" d="M43.1,78.1c-0.8,0-1.5-0.4-2-1.1c-0.6-1.1-0.3-2.4,0.8-3l87.5-50.1c1.1-0.6,2.4-0.3,3.1,0.8
	c0.6,1.1,0.3,2.4-0.8,3L44.2,77.8C43.8,78,43.4,78.1,43.1,78.1L43.1,78.1z"/>
<path class="st0" d="M22.5,66.3c-0.8,0-1.5-0.4-1.9-1.1c-0.6-1.1-0.3-2.4,0.8-3L108.9,12c1.1-0.6,2.4-0.3,3.1,0.8
	c0.6,1.1,0.3,2.4-0.8,3L23.6,66C23.3,66.2,22.9,66.3,22.5,66.3L22.5,66.3z"/>
<path class="st0" d="M22.5,149.3c-1.2,0-2.2-1-2.2-2.2V64.1c0-1.2,1-2.2,2.2-2.2c1.2,0,2.3,1,2.3,2.2V147
	C24.8,148.3,23.8,149.3,22.5,149.3L22.5,149.3z"/>
<path class="st0" d="M2.2,137.6c-1.2,0-2.2-1-2.2-2.2V52.4c0-0.8,0.4-1.6,1.1-2L88.6,0.3c0.7-0.4,1.5-0.4,2.2,0l4.8,2.7
	c0.7,0.4,1.1,1.1,1.1,1.9v1.7l10.6,6.2l1.5-0.9c0.7-0.4,1.6-0.4,2.3,0l4.8,2.8c0.7,0.4,1.1,1.1,1.1,1.9v1.6l10.9,6.2l1.6-0.8
	c0.7-0.4,1.5-0.4,2.2,0l4.8,2.7c0.7,0.4,1.1,1.1,1.1,1.9v1.7l10.5,6.2l1.5-0.9c0.7-0.4,1.6-0.4,2.3,0l4.8,2.8
	c0.7,0.4,1.1,1.1,1.1,1.9v1.7l10.8,6.2l1.5-0.9c0.7-0.4,1.6-0.4,2.3,0l4.8,2.8c0.7,0.4,1.1,1.1,1.1,1.9v1.6l10.6,6.2l1.5-0.9
	c0.7-0.4,1.6-0.4,2.2,0l4.8,2.8c0.7,0.4,1.1,1.1,1.1,1.9v1.7l10.6,6.2l1.8-0.9c0.7-0.3,1.5-0.3,2.2,0l4.8,2.7
	c0.7,0.4,1.1,1.1,1.1,1.9v28.1c0,1.2-1,2.2-2.2,2.2s-2.3-1-2.3-2.2V76.5l-2.6-1.5l-1.8,1c-0.7,0.4-1.5,0.3-2.2-0.1l-12.8-7.5
	c-0.7-0.4-1.1-1.1-1.1-1.9v-1.7l-2.6-1.5l-1.5,0.9c-0.7,0.4-1.6,0.4-2.3,0L175,56.7c-0.7-0.4-1.1-1.1-1.1-1.9v-1.6l-2.6-1.5
	l-1.5,0.9c-0.7,0.4-1.6,0.4-2.2,0l-13.1-7.4c-0.7-0.4-1.1-1.1-1.1-1.9v-1.7l-2.6-1.5l-1.5,0.9c-0.7,0.4-1.6,0.4-2.3,0l-12.8-7.5
	c-0.7-0.4-1.1-1.1-1.1-1.9v-1.7l-2.6-1.5l-1.6,0.8c-0.7,0.4-1.5,0.4-2.2,0l-13.1-7.5c-0.7-0.4-1.1-1.1-1.1-1.9V18l-2.6-1.5l-1.5,0.9
	c-0.7,0.4-1.6,0.4-2.3,0L93.4,9.9c-0.7-0.4-1.1-1.1-1.1-1.9V6.3l-2.6-1.5L4.5,53.6v81.7C4.5,136.6,3.5,137.6,2.2,137.6L2.2,137.6z"
	/>
<path class="st0" d="M152.4,261.4c-0.4,0-0.8-0.1-1.1-0.3c-2.9-1.6-5.5-3.2-8-4.6c-1.8-1.1-3.5-2.1-5.1-3c-1.1-0.6-1.4-2-0.8-3
	c0.6-1.1,2-1.4,3.1-0.8c1.6,0.9,3.3,1.9,5.1,3c2.4,1.4,5,3,7.9,4.6c1.1,0.6,1.5,2,0.8,3C154,261,153.2,261.4,152.4,261.4
	L152.4,261.4z"/>
<path class="st0" d="M222.3,281.9c-0.2,0-0.4-0.1-0.6-0.3l-3.5-6c-0.2-0.3-0.1-0.7,0.2-0.9c0.3-0.2,0.7-0.1,0.9,0.2l3.5,6
	c0.2,0.3,0.1,0.7-0.2,0.9C222.5,281.9,222.4,281.9,222.3,281.9L222.3,281.9z"/>
<path class="st0" d="M233,275.8c-0.2,0-0.4-0.1-0.5-0.3l-3.5-6c-0.2-0.3-0.1-0.7,0.2-0.9c0.3-0.2,0.7-0.1,0.9,0.2l3.5,6
	c0.2,0.3,0.1,0.7-0.2,0.9C233.2,275.8,233.1,275.8,233,275.8L233,275.8z"/>
<path class="st0" d="M243.6,269.7c-0.2,0-0.4-0.1-0.6-0.3l-3.5-6c-0.2-0.3-0.1-0.7,0.2-0.9c0.3-0.2,0.7-0.1,0.9,0.2l3.5,6
	c0.2,0.3,0.1,0.7-0.2,0.9C243.9,269.6,243.8,269.7,243.6,269.7L243.6,269.7z"/>
<path class="st0" d="M254.3,263.6c-0.2,0-0.4-0.1-0.5-0.3l-3.7-6c-0.2-0.3-0.1-0.7,0.2-0.9c0.3-0.2,0.7-0.1,0.9,0.2l3.7,6
	c0.2,0.3,0.1,0.7-0.2,0.9C254.5,263.6,254.4,263.6,254.3,263.6L254.3,263.6z"/>
<path class="st0" d="M265,257.4c-0.2,0-0.4-0.1-0.6-0.3l-3.5-6c-0.2-0.3-0.1-0.7,0.2-0.9c0.3-0.2,0.7-0.1,0.9,0.2l3.5,6
	c0.2,0.3,0.1,0.7-0.2,0.9C265.2,257.4,265.1,257.4,265,257.4L265,257.4z"/>
<path class="st0" d="M275.7,251.3c-0.2,0-0.4-0.1-0.6-0.3l-3.5-6c-0.2-0.3-0.1-0.7,0.2-0.9c0.3-0.2,0.7-0.1,0.9,0.2l3.5,6
	c0.2,0.3,0.1,0.7-0.2,0.9C275.9,251.3,275.8,251.3,275.7,251.3L275.7,251.3z"/>
<path class="st0" d="M286.3,245.2c-0.2,0-0.4-0.1-0.6-0.3l-3.5-6c-0.2-0.3-0.1-0.7,0.2-0.9c0.3-0.2,0.7-0.1,0.9,0.2l3.5,6
	c0.2,0.3,0.1,0.7-0.2,0.9C286.5,245.2,286.4,245.2,286.3,245.2L286.3,245.2z"/>
<path class="st0" d="M293.5,233.3c-0.3,0-0.6-0.2-0.6-0.6v-0.1c0-0.3,0.3-0.6,0.6-0.6c0.3,0,0.6,0.3,0.6,0.6
	C294.2,233,293.9,233.3,293.5,233.3L293.5,233.3z"/>
<path class="st0" d="M178.8,296c-0.2,0-0.4-0.1-0.5-0.3l-5.9-10.1c-0.2-0.3-0.1-0.7,0.2-0.9c0.3-0.2,0.7-0.1,0.9,0.2l5.9,10.1
	c0.2,0.3,0.1,0.7-0.2,0.9C179,296,178.9,296,178.8,296L178.8,296z"/>
<path class="st0" d="M160.7,264.8c-0.2,0-0.4-0.1-0.5-0.3l-5.9-9.9c-0.2-0.3-0.1-0.7,0.2-0.9c0.3-0.2,0.7-0.1,0.9,0.2l5.9,9.9
	c0.2,0.3,0.1,0.7-0.2,0.9C160.9,264.7,160.8,264.8,160.7,264.8L160.7,264.8z"/>
<path class="st0" d="M192.2,294.5c-0.2,0-0.4-0.1-0.5-0.3l-5.3-8.9c-0.2-0.3-0.1-0.7,0.2-0.9c0.3-0.2,0.7-0.1,0.9,0.2l5.3,8.9
	c0.2,0.3,0.1,0.7-0.2,0.9C192.4,294.4,192.3,294.5,192.2,294.5L192.2,294.5z"/>
<path class="st0" d="M167.9,252.9c-0.2,0-0.4-0.1-0.6-0.3l-5.1-9c-0.2-0.3-0.1-0.7,0.2-0.9c0.3-0.1,0.7-0.1,0.9,0.2l5.1,9
	c0.2,0.3,0.1,0.7-0.2,0.9C168.1,252.9,168,252.9,167.9,252.9L167.9,252.9z"/>
<path class="st0" d="M193.5,272.3c-0.2,0-0.4-0.1-0.6-0.3l-10.1-17.6c-0.2-0.3-0.1-0.7,0.2-0.9c0.3-0.2,0.7-0.1,0.9,0.2l10.1,17.6
	c0.2,0.3,0.1,0.7-0.2,0.9C193.7,272.2,193.6,272.3,193.5,272.3L193.5,272.3z"/>
<path class="st0" d="M143.9,252.3c-0.2,0-0.4-0.1-0.6-0.3l-2.1-4c-0.2-0.3,0-0.7,0.3-0.9c0.3-0.2,0.7,0,0.9,0.3l2.1,4
	c0.2,0.3,0,0.7-0.3,0.9C144.1,252.3,144,252.3,143.9,252.3L143.9,252.3z"/>
<path class="st0" d="M165.8,241c-0.2,0-0.4-0.1-0.6-0.3l-25.1-43.2c-0.2-0.3-0.1-0.7,0.2-0.9c0.3-0.2,0.7-0.1,0.9,0.2l25.1,43.2
	c0.2,0.3,0.1,0.7-0.2,0.9C166,240.9,165.9,241,165.8,241L165.8,241z"/>
<path class="st0" d="M207.9,264.5c-0.2,0-0.4-0.1-0.5-0.3L192.2,238c-0.2-0.3-0.1-0.7,0.2-0.9c0.3-0.2,0.7-0.1,0.9,0.2l15.2,26.2
	c0.2,0.3,0.1,0.7-0.2,0.9C208.1,264.4,208,264.5,207.9,264.5L207.9,264.5z"/>
<path class="st0" d="M150.6,165.9c-0.2,0-0.4-0.1-0.5-0.3l-9.1-15.4c-0.2-0.3-0.1-0.7,0.2-0.9c0.3-0.2,0.7-0.1,0.9,0.2l9.1,15.4
	c0.2,0.3,0.1,0.7-0.2,0.9C150.8,165.8,150.7,165.9,150.6,165.9L150.6,165.9z"/>
<path class="st0" d="M199.6,201.5c-0.2,0-0.4-0.1-0.6-0.3l-15.7-27c-0.2-0.3-0.1-0.7,0.2-0.9c0.3-0.2,0.7-0.1,0.9,0.2l15.7,27
	c0.2,0.3,0.1,0.7-0.2,0.9C199.9,201.5,199.7,201.5,199.6,201.5L199.6,201.5z"/>
<path class="st0" d="M23.9,181.3c-0.2,0-0.4-0.1-0.6-0.3l-2.4-4.3c-0.2-0.3-0.1-0.7,0.2-0.9c0.3-0.1,0.7-0.1,0.9,0.2l2.4,4.3
	c0.2,0.3,0.1,0.7-0.2,0.9C24.1,181.2,24,181.3,23.9,181.3L23.9,181.3z"/>
<path class="st0" d="M47.1,172.1c-0.2,0-0.4-0.1-0.5-0.3L36.6,155c-0.2-0.3-0.1-0.7,0.2-0.9c0.3-0.2,0.7-0.1,0.9,0.2l9.9,16.8
	c0.2,0.3,0.1,0.7-0.2,0.9C47.3,172.1,47.2,172.1,47.1,172.1L47.1,172.1z"/>
<path class="st0" d="M94.5,205.1c-0.2,0-0.4-0.1-0.6-0.3L82,184c-0.2-0.3-0.1-0.7,0.2-0.9c0.3-0.2,0.7-0.1,0.9,0.2l12,20.8
	c0.2,0.3,0.1,0.7-0.2,0.9C94.8,205.1,94.6,205.1,94.5,205.1L94.5,205.1z"/>
<path class="st0" d="M81.5,182.2c-0.2,0-0.4-0.1-0.5-0.3l-1.1-1.6c-0.2-0.3-0.1-0.7,0.2-0.9c0.3-0.2,0.7-0.1,0.9,0.2l1.1,1.6
	c0.2,0.3,0.1,0.7-0.2,0.9C81.7,182.2,81.6,182.2,81.5,182.2L81.5,182.2z"/>
<path class="st0" d="M129.5,216.4c-0.2,0-0.4-0.1-0.6-0.3l-4.3-7.4c-0.2-0.3-0.1-0.7,0.2-0.9c0.3-0.2,0.7-0.1,0.9,0.2l4.3,7.4
	c0.2,0.3,0.1,0.7-0.2,0.9C129.7,216.4,129.6,216.4,129.5,216.4L129.5,216.4z"/>
<path class="st0" d="M60.7,228.2c-0.2,0-0.4-0.1-0.5-0.3l-5.9-9.9c-0.2-0.3-0.1-0.7,0.2-0.9c0.3-0.2,0.7-0.1,0.9,0.2l5.9,9.9
	c0.2,0.3,0.1,0.7-0.2,0.9C60.9,228.1,60.8,228.2,60.7,228.2L60.7,228.2z"/>
<path class="st0" d="M42.3,196.6c-0.2,0-0.4-0.1-0.6-0.3l-5.9-10.2c-0.2-0.3-0.1-0.7,0.2-0.9c0.3-0.2,0.7-0.1,0.9,0.2l5.9,10.2
	c0.2,0.3,0.1,0.7-0.2,0.9C42.5,196.5,42.4,196.6,42.3,196.6L42.3,196.6z"/>
<path class="st0" d="M73.7,226.3c-0.2,0-0.4-0.1-0.6-0.3l-5.1-8.9c-0.2-0.3-0.1-0.7,0.2-0.9c0.3-0.2,0.7-0.1,0.9,0.2l5.1,8.9
	c0.2,0.3,0.1,0.7-0.2,0.9C73.9,226.3,73.8,226.3,73.7,226.3L73.7,226.3z"/>
<path class="st0" d="M49.7,185c-0.2,0-0.4-0.1-0.6-0.3l-5.3-9.1c-0.2-0.3-0.1-0.7,0.2-0.9c0.3-0.2,0.7-0.1,0.9,0.2l5.3,9.1
	c0.2,0.3,0.1,0.7-0.2,0.9C49.9,185,49.8,185,49.7,185L49.7,185z"/>
<path class="st0" d="M74.8,203.6c-0.2,0-0.4-0.1-0.5-0.3l-9.6-16.2c-0.2-0.3-0.1-0.7,0.2-0.9c0.3-0.2,0.7-0.1,0.9,0.2l9.6,16.2
	c0.2,0.3,0.1,0.7-0.2,0.9C75,203.6,74.9,203.6,74.8,203.6L74.8,203.6z"/>
<path class="st0" d="M12.9,137c-0.2,0-0.4-0.1-0.5-0.3l-8.8-14.8c-0.2-0.3-0.1-0.7,0.2-0.9c0.3-0.2,0.7-0.1,0.9,0.2l8.8,14.8
	c0.2,0.3,0.1,0.7-0.2,0.9C13.1,136.9,13,137,12.9,137L12.9,137z"/>
<path class="st0" d="M20.9,126.5c-0.2,0-0.4-0.1-0.6-0.3L3.3,97.1c-0.2-0.3-0.1-0.7,0.2-0.9c0.3-0.2,0.7-0.1,0.9,0.2l17.1,29.1
	c0.2,0.3,0.1,0.7-0.2,0.9C21.1,126.5,21,126.5,20.9,126.5L20.9,126.5z"/>
<path class="st0" d="M20.9,101.9c-0.2,0-0.4-0.1-0.6-0.3L3.3,72.5c-0.2-0.3-0.1-0.7,0.2-0.9c0.3-0.2,0.7-0.1,0.9,0.2L21.5,101
	c0.2,0.3,0.1,0.7-0.2,0.9C21.1,101.9,21,101.9,20.9,101.9L20.9,101.9z"/>
<path class="st0" d="M20.7,77.1c-0.2,0-0.4-0.1-0.6-0.3l-7.2-12.4c-0.2-0.3-0.1-0.7,0.2-0.9c0.3-0.2,0.7-0.1,0.9,0.2l7.2,12.4
	c0.2,0.3,0.1,0.7-0.2,0.9C20.9,77.1,20.8,77.1,20.7,77.1L20.7,77.1z"/>
<path class="st0" d="M59.1,42c-0.1,0-0.2,0-0.3-0.1c-0.3-0.2-0.4-0.6-0.2-0.9l16.8-29.2c0.2-0.3,0.6-0.4,0.9-0.2
	c0.3,0.2,0.4,0.6,0.2,0.9L59.6,41.7C59.5,41.9,59.3,42,59.1,42L59.1,42z"/>
<path class="st0" d="M18,63.6c-0.1,0-0.2,0-0.3-0.1c-0.3-0.2-0.4-0.6-0.2-0.9l15.5-26.4c0.2-0.3,0.6-0.4,0.9-0.2
	c0.3,0.2,0.4,0.6,0.2,0.9L18.5,63.3C18.4,63.5,18.2,63.6,18,63.6L18,63.6z"/>
<path class="st0" d="M122.8,28.2c-0.2,0-0.3-0.1-0.4-0.2c-0.3-0.2-0.3-0.6,0-0.9l0.5-0.6c0.2-0.2,0.6-0.3,0.9,0
	c0.3,0.2,0.3,0.6,0,0.9l-0.5,0.6C123.2,28.1,123,28.2,122.8,28.2L122.8,28.2z"/>
<path class="st0" d="M79.9,53.4c-0.1,0-0.2,0-0.3-0.1c-0.3-0.2-0.4-0.6-0.2-0.9l17.1-29.2c0.2-0.3,0.6-0.4,0.9-0.2
	c0.3,0.2,0.4,0.6,0.2,0.9L80.4,53.1C80.3,53.3,80.1,53.4,79.9,53.4L79.9,53.4z"/>
<path class="st0" d="M38.5,75.5c-0.1,0-0.2,0-0.3-0.1c-0.3-0.2-0.4-0.6-0.2-0.9l15.7-26.9c0.2-0.3,0.6-0.4,0.9-0.2
	c0.3,0.2,0.4,0.6,0.2,0.9L39.1,75.2C39,75.4,38.7,75.5,38.5,75.5L38.5,75.5z"/>
<path class="st0" d="M142.8,40c-0.1,0-0.3,0-0.4-0.1c-0.3-0.2-0.3-0.6-0.1-0.9l0.5-0.7c0.2-0.3,0.6-0.3,0.9-0.1
	c0.3,0.2,0.3,0.6,0.1,0.9l-0.5,0.7C143.2,39.9,143,40,142.8,40L142.8,40z"/>
<path class="st0" d="M99.6,65.4c-0.1,0-0.2,0-0.3-0.1c-0.3-0.2-0.4-0.6-0.2-0.9l17.1-29.2c0.2-0.3,0.6-0.4,0.9-0.2
	c0.3,0.2,0.4,0.6,0.2,0.9l-17.1,29.2C100,65.3,99.8,65.4,99.6,65.4L99.6,65.4z"/>
<path class="st0" d="M58.5,87.1c-0.1,0-0.2,0-0.3-0.1c-0.3-0.2-0.4-0.6-0.2-0.9l15.5-26.3c0.2-0.3,0.6-0.4,0.9-0.2
	c0.3,0.2,0.4,0.6,0.2,0.9L59.1,86.8C59,87,58.7,87.1,58.5,87.1L58.5,87.1z"/>
<path class="st0" d="M163.9,51.4c-0.3,0-0.6-0.3-0.6-0.6v-0.4c0-0.3,0.3-0.6,0.6-0.6c0.3,0,0.6,0.3,0.6,0.6v0.4
	C164.5,51.2,164.2,51.4,163.9,51.4L163.9,51.4z"/>
<path class="st0" d="M120.4,76.8c-0.1,0-0.2,0-0.3-0.1c-0.3-0.2-0.4-0.6-0.2-0.9l17.1-29.2c0.2-0.3,0.6-0.4,0.9-0.2
	c0.3,0.2,0.4,0.6,0.2,0.9L121,76.5C120.8,76.7,120.6,76.8,120.4,76.8L120.4,76.8z"/>
<path class="st0" d="M79.3,98.8c-0.1,0-0.2,0-0.3-0.1c-0.3-0.2-0.4-0.6-0.2-0.9L94,71.3c0.2-0.3,0.6-0.4,0.9-0.2
	c0.3,0.2,0.4,0.6,0.2,0.9L79.9,98.5C79.8,98.7,79.6,98.8,79.3,98.8L79.3,98.8z"/>
<path class="st0" d="M183.9,64c-0.1,0-0.3,0-0.4-0.1c-0.3-0.2-0.3-0.6-0.1-0.9l0.8-1.1c0.2-0.3,0.6-0.3,0.9-0.1
	c0.3,0.2,0.3,0.6,0.1,0.9l-0.8,1.1C184.3,63.9,184.1,64,183.9,64L183.9,64z"/>
<path class="st0" d="M141,89.3c-0.1,0-0.2,0-0.3-0.1c-0.3-0.2-0.4-0.6-0.2-0.9L158,58c0.2-0.3,0.6-0.4,0.9-0.2
	c0.3,0.2,0.4,0.6,0.2,0.9L141.5,89C141.4,89.2,141.2,89.3,141,89.3L141,89.3z"/>
<path class="st0" d="M99.9,110.7c-0.1,0-0.2,0-0.3-0.1c-0.3-0.2-0.4-0.6-0.2-0.9l16-27.4c0.2-0.3,0.6-0.4,0.9-0.2
	c0.3,0.2,0.4,0.6,0.2,0.9l-16,27.4C100.3,110.6,100.1,110.7,99.9,110.7L99.9,110.7z"/>
<path class="st0" d="M211.9,76c-0.1,0-0.3,0-0.4-0.1c-0.3-0.2-0.4-0.6-0.1-0.9l0.3-0.4c0.2-0.3,0.6-0.3,0.9-0.2
	c0.3,0.2,0.3,0.6,0.1,0.9l-0.3,0.4C212.3,75.9,212.1,76,211.9,76L211.9,76z"/>
<path class="st0" d="M168.7,101.7c-0.1,0-0.2,0-0.3-0.1c-0.3-0.2-0.4-0.6-0.2-0.9l21.3-36.9c0.2-0.3,0.6-0.4,0.9-0.2
	c0.3,0.2,0.4,0.6,0.2,0.9l-21.3,36.9C169.1,101.6,168.9,101.7,168.7,101.7L168.7,101.7z"/>
<path class="st0" d="M127.4,123.7c-0.1,0-0.2,0-0.3-0.1c-0.3-0.2-0.4-0.6-0.2-0.9l20-34.3c0.2-0.3,0.6-0.4,0.9-0.2
	c0.3,0.2,0.4,0.6,0.2,0.9l-20,34.3C127.8,123.6,127.6,123.7,127.4,123.7L127.4,123.7z"/>
<path class="st0" d="M137.2,194.5c-0.1,0-0.2,0-0.3-0.1l-5.9-3.3c-0.3-0.2-0.4-0.6-0.2-0.9c0.2-0.3,0.6-0.4,0.9-0.2l5.9,3.3
	c0.3,0.2,0.4,0.6,0.2,0.9C137.7,194.4,137.4,194.5,137.2,194.5L137.2,194.5z"/>
<path class="st0" d="M137.2,180.5c-0.1,0-0.2,0-0.3-0.1L131,177c-0.3-0.2-0.4-0.6-0.2-0.9c0.2-0.3,0.6-0.4,0.9-0.2l5.9,3.4
	c0.3,0.2,0.4,0.6,0.2,0.9C137.6,180.3,137.4,180.5,137.2,180.5L137.2,180.5z"/>
<path class="st0" d="M137.2,166.2c-0.1,0-0.2,0-0.3-0.1l-5.9-3.3c-0.3-0.2-0.4-0.6-0.2-0.9c0.2-0.3,0.6-0.4,0.9-0.2l5.9,3.3
	c0.3,0.2,0.4,0.6,0.2,0.9C137.7,166.1,137.4,166.2,137.2,166.2L137.2,166.2z"/>
<path class="st0" d="M137.2,152.1c-0.1,0-0.2,0-0.3-0.1l-5.9-3.3c-0.3-0.2-0.4-0.6-0.2-0.9c0.2-0.3,0.6-0.4,0.9-0.2l5.9,3.3
	c0.3,0.2,0.4,0.6,0.2,0.9C137.7,151.9,137.4,152.1,137.2,152.1L137.2,152.1z"/>
<path class="st0" d="M145.7,142.7c-0.1,0-0.2,0-0.3-0.1l-14.7-8.3c-0.3-0.2-0.4-0.6-0.2-0.9c0.2-0.3,0.6-0.4,0.9-0.2l14.7,8.3
	c0.3,0.2,0.4,0.6,0.2,0.9C146.2,142.6,146,142.7,145.7,142.7L145.7,142.7z"/>
<path class="st0" d="M158.3,135.8c-0.1,0-0.2,0-0.3-0.1l-21.6-12.3c-0.3-0.2-0.4-0.6-0.2-0.9c0.2-0.3,0.6-0.4,0.9-0.2l21.6,12.3
	c0.3,0.2,0.4,0.6,0.2,0.9C158.7,135.7,158.5,135.8,158.3,135.8L158.3,135.8z"/>
<path class="st0" d="M170.6,128.8c-0.1,0-0.2,0-0.3-0.1l-21.6-12.3c-0.3-0.2-0.4-0.6-0.2-0.9c0.2-0.3,0.6-0.4,0.9-0.2l21.6,12.3
	c0.3,0.2,0.4,0.6,0.2,0.9C171,128.7,170.8,128.8,170.6,128.8L170.6,128.8z"/>
<path class="st0" d="M182.8,121.7c-0.1,0-0.2,0-0.3-0.1l-21.3-12.3c-0.3-0.2-0.4-0.6-0.2-0.9c0.2-0.3,0.6-0.4,0.9-0.2l21.3,12.3
	c0.3,0.2,0.4,0.6,0.2,0.9C183.3,121.6,183.1,121.7,182.8,121.7L182.8,121.7z"/>
<path class="st0" d="M195.1,114.6c-0.1,0-0.2,0-0.3-0.1l-21.3-12.3c-0.3-0.2-0.4-0.6-0.2-0.9c0.2-0.3,0.6-0.4,0.9-0.2l21.3,12.3
	c0.3,0.2,0.4,0.6,0.2,0.9C195.5,114.5,195.3,114.6,195.1,114.6L195.1,114.6z"/>
<path class="st0" d="M207.4,107.6c-0.1,0-0.2,0-0.3-0.1l-21.3-12.3c-0.3-0.2-0.4-0.6-0.2-0.9c0.2-0.3,0.6-0.4,0.9-0.2l21.3,12.3
	c0.3,0.2,0.4,0.6,0.2,0.9C207.8,107.5,207.6,107.6,207.4,107.6L207.4,107.6z"/>
<path class="st0" d="M215.1,97.9c-0.1,0-0.2,0-0.3-0.1l-16.5-9.5c-0.3-0.2-0.4-0.6-0.2-0.9c0.2-0.3,0.6-0.4,0.9-0.2l16.5,9.6
	c0.3,0.2,0.4,0.6,0.2,0.9C215.5,97.8,215.3,97.9,215.1,97.9L215.1,97.9z"/>
<path class="st0" d="M214.6,83.5c-0.1,0-0.2,0-0.3-0.1l-3.2-1.9c-0.3-0.2-0.4-0.6-0.2-0.9c0.2-0.3,0.6-0.4,0.9-0.2l3.2,1.9
	c0.3,0.2,0.4,0.6,0.2,0.9C215,83.4,214.8,83.5,214.6,83.5L214.6,83.5z"/>
<path class="st0" d="M53.7,160.4c-0.2,0-0.4-0.1-0.5-0.3l-8.8-15.2c-0.2-0.3-0.1-0.7,0.2-0.9c0.3-0.2,0.7-0.1,0.9,0.2l8.8,15.2
	c0.2,0.3,0.1,0.7-0.2,0.9C53.9,160.3,53.8,160.4,53.7,160.4L53.7,160.4z"/>
<path class="st0" d="M61.7,149.5c-0.2,0-0.4-0.1-0.6-0.3l-17.1-29.5c-0.2-0.3-0.1-0.7,0.2-0.9c0.3-0.2,0.7-0.1,0.9,0.2l17.1,29.5
	c0.2,0.3,0.1,0.7-0.2,0.9C61.9,149.5,61.8,149.5,61.7,149.5L61.7,149.5z"/>
<path class="st0" d="M61.7,125.3c-0.2,0-0.4-0.1-0.6-0.3L44.1,95.5c-0.2-0.3-0.1-0.7,0.2-0.9c0.3-0.2,0.7-0.1,0.9,0.2l17.1,29.5
	c0.2,0.3,0.1,0.7-0.2,0.9C61.9,125.3,61.8,125.3,61.7,125.3L61.7,125.3z"/>
<path class="st0" d="M61.5,100.2c-0.2,0-0.4-0.1-0.5-0.3L54,88.1c-0.2-0.3-0.1-0.7,0.2-0.9c0.3-0.2,0.7-0.1,0.9,0.2L62,99.2
	c0.2,0.3,0.1,0.7-0.2,0.9C61.7,100.1,61.6,100.2,61.5,100.2L61.5,100.2z"/>
<path class="st0" d="M137.9,210l-0.9-0.5c-0.4-0.2-0.8-0.4-1.1-0.6c-0.3-0.2-0.6-0.4-1-0.6l-1-0.5l4.1-2.4V210L137.9,210z
	 M136.3,207.7c0.1,0,0.1,0.1,0.2,0.1c0,0,0.1,0,0.1,0.1v-0.3L136.3,207.7L136.3,207.7z"/>
<path class="st0" d="M34,149.1c-0.2,0-0.4-0.1-0.5-0.3l-9.6-16.5c-0.2-0.3-0.1-0.7,0.2-0.9c0.3-0.2,0.7-0.1,0.9,0.2l9.6,16.5
	c0.2,0.3,0.1,0.7-0.2,0.9C34.2,149.1,34.1,149.1,34,149.1L34,149.1z"/>
<path class="st0" d="M41.2,137.4c-0.2,0-0.4-0.1-0.6-0.3l-16.8-29.3c-0.2-0.3-0.1-0.7,0.2-0.9c0.3-0.2,0.7-0.1,0.9,0.2l16.8,29.3
	c0.2,0.3,0.1,0.7-0.2,0.9C41.4,137.4,41.3,137.4,41.2,137.4L41.2,137.4z"/>
<path class="st0" d="M41.2,112.7c-0.2,0-0.4-0.1-0.6-0.3L23.8,83.3c-0.2-0.3-0.1-0.7,0.2-0.9c0.3-0.2,0.7-0.1,0.9,0.2l16.8,29.1
	c0.2,0.3,0.1,0.7-0.2,0.9C41.4,112.7,41.3,112.7,41.2,112.7L41.2,112.7z"/>
<path class="st0" d="M40.9,87.9c-0.2,0-0.4-0.1-0.5-0.3l-6.4-11c-0.2-0.3-0.1-0.7,0.2-0.9c0.3-0.2,0.7-0.1,0.9,0.2l6.4,11
	c0.2,0.3,0.1,0.7-0.2,0.9C41.1,87.9,41,87.9,40.9,87.9L40.9,87.9z"/>
<path class="st0" d="M74.3,172.3c-0.2,0-0.4-0.1-0.5-0.3l-9.1-15.7c-0.2-0.3-0.1-0.7,0.2-0.9c0.3-0.2,0.7-0.1,0.9,0.2l9.1,15.8
	c0.2,0.3,0.1,0.7-0.2,0.9C74.5,172.3,74.4,172.3,74.3,172.3L74.3,172.3z"/>
<path class="st0" d="M82,161c-0.2,0-0.4-0.1-0.5-0.3l-17.1-29.1c-0.2-0.3-0.1-0.7,0.2-0.9c0.3-0.2,0.7-0.1,0.9,0.2l17.1,29.1
	c0.2,0.3,0.1,0.7-0.2,0.9C82.2,161,82.1,161,82,161L82,161z"/>
<path class="st0" d="M82,136.5c-0.2,0-0.4-0.1-0.5-0.3L64.4,107c-0.2-0.3-0.1-0.7,0.2-0.9c0.3-0.2,0.7-0.1,0.9,0.2l17.1,29.3
	c0.2,0.3,0.1,0.7-0.2,0.9C82.2,136.5,82.1,136.5,82,136.5L82,136.5z"/>
<path class="st0" d="M81.7,111.5c-0.2,0-0.4-0.1-0.6-0.3L74.8,100c-0.2-0.3-0.1-0.7,0.2-0.9c0.3-0.2,0.7-0.1,0.9,0.2l6.4,11.1
	c0.2,0.3,0.1,0.7-0.2,0.9C82,111.5,81.8,111.5,81.7,111.5L81.7,111.5z"/>
<path class="st0" d="M94.8,183.9c-0.2,0-0.4-0.1-0.6-0.3L85.2,168c-0.2-0.3-0.1-0.7,0.2-0.9c0.3-0.2,0.7-0.1,0.9,0.2l9.1,15.6
	c0.2,0.3,0.1,0.7-0.2,0.9C95,183.9,94.9,183.9,94.8,183.9L94.8,183.9z"/>
<path class="st0" d="M102.3,172.4c-0.2,0-0.4-0.1-0.6-0.3L84.9,143c-0.2-0.3-0.1-0.7,0.2-0.9c0.3-0.2,0.7-0.1,0.9,0.2l16.8,29.1
	c0.2,0.3,0.1,0.7-0.2,0.9C102.5,172.4,102.4,172.4,102.3,172.4L102.3,172.4z"/>
<path class="st0" d="M102.5,148.3c-0.2,0-0.4-0.1-0.5-0.3l-17.1-29.3c-0.2-0.3-0.1-0.7,0.2-0.9c0.3-0.2,0.7-0.1,0.9,0.2l17.1,29.3
	c0.2,0.3,0.1,0.7-0.2,0.9C102.8,148.3,102.7,148.3,102.5,148.3L102.5,148.3z"/>
<path class="st0" d="M102.3,123.3c-0.2,0-0.4-0.1-0.5-0.3l-6.7-11.3c-0.2-0.3-0.1-0.7,0.2-0.9c0.3-0.2,0.7-0.1,0.9,0.2l6.7,11.3
	c0.2,0.3,0.1,0.7-0.2,0.9C102.5,123.2,102.4,123.3,102.3,123.3L102.3,123.3z"/>
<path class="st0" d="M110.8,194c-0.2,0-0.4-0.1-0.6-0.3l-4.5-8.1c-0.2-0.3-0.1-0.7,0.2-0.9c0.3-0.2,0.7-0.1,0.9,0.2l4.5,8.1
	c0.2,0.3,0.1,0.7-0.2,0.9C111,194,110.9,194,110.8,194L110.8,194z"/>
<path class="st0" d="M127.9,198.4c-0.2,0-0.4-0.1-0.6-0.3l-22.1-38c-0.2-0.3-0.1-0.7,0.2-0.9c0.3-0.2,0.7-0.1,0.9,0.2l22.1,38
	c0.2,0.3,0.1,0.7-0.2,0.9C128.1,198.4,128,198.4,127.9,198.4L127.9,198.4z"/>
<path class="st0" d="M127.9,173.9c-0.2,0-0.4-0.1-0.6-0.3l-22.1-38c-0.2-0.3-0.1-0.7,0.2-0.9c0.3-0.2,0.7-0.1,0.9,0.2l22.1,38
	c0.2,0.3,0.1,0.7-0.2,0.9C128.1,173.9,128,173.9,127.9,173.9L127.9,173.9z"/>
<path class="st0" d="M127.9,149.4c-0.2,0-0.4-0.1-0.6-0.3L110.3,120c-0.2-0.3-0.1-0.7,0.2-0.9c0.3-0.2,0.7-0.1,0.9,0.2l17.1,29.1
	c0.2,0.3,0.1,0.7-0.2,0.9C128.1,149.3,128,149.4,127.9,149.4L127.9,149.4z"/>
<path class="st0" d="M199.6,280.6c-0.1,0-0.2,0-0.3-0.1c-0.3-0.2-0.4-0.6-0.2-0.9l2.1-3.7c0.2-0.3,0.6-0.4,0.9-0.2
	c0.3,0.2,0.4,0.6,0.2,0.9l-2.1,3.7C200.1,280.5,199.9,280.6,199.6,280.6L199.6,280.6z"/>
<path class="st0" d="M174.3,218.5c-0.2,0-0.4-0.1-0.6-0.3l-21.1-36.3c-0.2-0.3-0.1-0.7,0.2-0.9c0.3-0.2,0.7-0.1,0.9,0.2l21.1,36.3
	c0.2,0.3,0.1,0.7-0.2,0.9C174.5,218.4,174.4,218.5,174.3,218.5L174.3,218.5z"/>
<path class="st0" d="M189,218.9c-0.2,0-0.4-0.1-0.6-0.3L161.7,173c-0.2-0.3-0.1-0.7,0.2-0.9c0.3-0.2,0.7-0.1,0.9,0.2l26.7,45.6
	c0.2,0.3,0.1,0.7-0.2,0.9C189.2,218.9,189.1,218.9,189,218.9L189,218.9z"/>
<path class="st0" d="M188.7,194.1c-0.2,0-0.4-0.1-0.6-0.3l-4-7c-0.2-0.3-0.1-0.7,0.2-0.9c0.3-0.2,0.7-0.1,0.9,0.2l4,7
	c0.2,0.3,0.1,0.7-0.2,0.9C188.9,194.1,188.8,194.1,188.7,194.1L188.7,194.1z"/>
<path class="st0" d="M237,218.9c-0.1,0-0.2,0-0.3-0.1l-10.9-6.3c-0.3-0.2-0.4-0.6-0.2-0.9c0.2-0.3,0.6-0.4,0.9-0.2l10.9,6.3
	c0.3,0.2,0.4,0.6,0.2,0.9C237.4,218.8,237.2,218.9,237,218.9L237,218.9z"/>
<path class="st0" d="M261.5,204.7c-0.1,0-0.2,0-0.3-0.1l-11.5-6.5c-0.3-0.2-0.4-0.6-0.2-0.9c0.2-0.3,0.6-0.4,0.9-0.2l11.5,6.5
	c0.3,0.2,0.4,0.6,0.2,0.9C262,204.6,261.7,204.7,261.5,204.7L261.5,204.7z"/>
<path class="st0" d="M284.5,189.6c-0.1,0-0.2,0-0.3-0.1l-16.3-9.3c-0.3-0.2-0.4-0.6-0.2-0.9c0.2-0.3,0.6-0.4,0.9-0.2l16.3,9.3
	c0.3,0.2,0.4,0.6,0.2,0.9C284.9,189.5,284.7,189.6,284.5,189.6L284.5,189.6z"/>
<path class="st0" d="M220.7,211c-0.1,0-0.2,0-0.3-0.1l-9.3-5.3c-0.3-0.2-0.4-0.6-0.2-0.9c0.2-0.3,0.6-0.4,0.9-0.2l9.3,5.3
	c0.3,0.2,0.4,0.6,0.2,0.9C221.1,210.9,220.9,211,220.7,211L220.7,211z"/>
<path class="st0" d="M233.8,204.4c-0.1,0-0.2,0-0.3-0.1l-26.4-15.2c-0.3-0.2-0.4-0.6-0.2-0.9c0.2-0.3,0.6-0.4,0.9-0.2l26.4,15.2
	c0.3,0.2,0.4,0.6,0.2,0.9C234.2,204.3,234,204.4,233.8,204.4L233.8,204.4z"/>
<path class="st0" d="M246.3,197.4c-0.1,0-0.2,0-0.3-0.1l-28.5-16.3c-0.3-0.2-0.4-0.6-0.2-0.9c0.2-0.3,0.6-0.4,0.9-0.2l28.5,16.3
	c0.3,0.2,0.4,0.6,0.2,0.9C246.7,197.3,246.5,197.4,246.3,197.4L246.3,197.4z"/>
<path class="st0" d="M252.7,187c-0.1,0-0.2,0-0.3-0.1L230,174.1c-0.3-0.2-0.4-0.6-0.2-0.9c0.2-0.3,0.6-0.4,0.9-0.2l22.4,12.8
	c0.3,0.2,0.4,0.6,0.2,0.9C253.1,186.9,252.9,187,252.7,187L252.7,187z"/>
<path class="st0" d="M263.7,179.2c-0.1,0-0.2,0-0.3-0.1l-21.1-12c-0.3-0.2-0.4-0.6-0.2-0.9c0.2-0.3,0.6-0.4,0.9-0.2l21.1,12
	c0.3,0.2,0.4,0.6,0.2,0.9C264.1,179.1,263.9,179.2,263.7,179.2L263.7,179.2z"/>
<path class="st0" d="M281.5,175.4c-0.1,0-0.2,0-0.3-0.1l-26.7-15.4c-0.3-0.2-0.4-0.6-0.2-0.9c0.2-0.3,0.6-0.4,0.9-0.2l26.7,15.4
	c0.3,0.2,0.4,0.6,0.2,0.9C282,175.2,281.7,175.4,281.5,175.4L281.5,175.4z"/>
<path class="st0" d="M277.8,159.1c-0.1,0-0.2,0-0.3-0.1l-10.1-5.8c-0.3-0.2-0.4-0.6-0.2-0.9c0.2-0.3,0.6-0.4,0.9-0.2l10.1,5.8
	c0.3,0.2,0.4,0.6,0.2,0.9C278.2,158.9,278,159.1,277.8,159.1L277.8,159.1z"/>
</svg>
