<?xml version="1.0" encoding="utf-8"?>
<!-- Generator: Adobe Illustrator 24.1.2, SVG Export Plug-In . SVG Version: 6.00 Build 0)  -->
<svg version="1.1" id="Camada_1" xmlns="http://www.w3.org/2000/svg" xmlns:xlink="http://www.w3.org/1999/xlink" x="0px" y="0px"
	 viewBox="0 0 550.7 262.7" style="enable-background:new 0 0 550.7 262.7;" xml:space="preserve">
<style type="text/css">
	.st0{fill:#E5372E;}
	.st1{fill:#E64134;}
</style>
<path class="st0" d="M477.1,139.6c-2-0.5-3.9-1.1-5.9-1.6c-1.4-0.4-2.8-1-4.2-1.9c2.6-1.1,5.1-2,7.5-3.2c1.3-0.7,25.9-11,26.6-11.4
	c1.6-1,2.4-0.9,3.8,0.2c1.6,1.2,3.4,2.2,5.6,2.2c1.7,0,3.3,0.1,4.9-0.6c1.8-0.9,3.7-1.8,4.7-3.8c0.1-0.1,0.2-0.2,0.2-0.3
	c0.1-0.1,0.2-0.1,0.2-0.2c1.6-2.6,2.6-5.3,1.6-8.5c-1.5-7.3-7.2-8.7-8.9-8.9c-11.3-0.6-12.5,8.5-12.7,11.4c0,0.8,0.1,1.5-0.8,1.9
	c-3.9,1.5-7.8,3.3-11.6,4.9c-2.9,1.2-5.8,2.5-8.7,3.7c-4.5,1.9-9.1,3.8-13.6,5.8c-0.7,0.3-4.6,1.7-5.4,2.4c-0.4,0.4-0.9,0.3-1.3-0.1
	c-0.3-0.3-0.7-0.6-1.2-0.5c-0.5-0.3-0.9-0.6-1.1-1.1c-0.4-0.4-0.8-0.9-1.3-1.2c-1.5-0.9-2.4-2.5-3.9-3.3c0,0,0,0,0,0
	c-0.1-0.8-1-1-1.1-1.7c0.2-0.1,0.4-0.3,0.5-0.4c0.4,0,0.9,0.1,1.2-0.1c1.7-1.2,11.8-5.1,13.4-5.9c1.2-0.6,24.3-10.1,25.9-11.3
	c0.1-0.1,0.4-0.2,0.5-0.3c0.6-0.3,6.7-6.7,8-8.1c1.1-1.1,7.7-4.6,8.6-5c0.7-0.3,1.2-0.3,1.8,0.1c1.4,1.2,2.9,2.1,4.7,2.6
	c2.5,0.7,4.8,0.4,7.1-0.7c2.7-1.4,4.6-3.5,5.7-6.4c1.2-3.1,0.8-5.9-0.5-8.7c-1.3-2.5-3.7-4.1-4.3-4.5c-4.6-3.1-9.8-1.9-13.2,1.6
	c-2.2,2.2-3.5,4.9-3.2,8.2c0.1,1-0.2,1.7-1.1,1.9c-2.1,0.6-8,3.4-8.8,4.3c-2.5,2.6-4.9,5.3-7.4,7.9c-0.6,0.6-1.1,1.4-1.9,1.8
	c-2.8,1.2-5.5,2.3-8.3,3.5c-2.4,1-16.4,7.1-19.3,8.3c-4.3,1.7-8.5,3.7-12.7,5.5c-1,0.4-1.5,0.1-2-0.6c-1.5-2.3-2.8-4.6-3.9-7.1
	c-0.9-2-1.7-3.9-2.3-6c-0.5-1.9-1.1-3.8-1.5-5.8c-0.5-2.4-1-4.8-1.1-7.2c-0.4-5.2,0-10.4,1.2-15.5c0.3-1.1,0.7-2.3,0.9-3.4
	c0.4-2.6,1.6-4.9,2.5-7.3c0.8-2.3,2.4-4.3,3.2-6.6c0.1-0.1,0.2-0.2,0.3-0.3c18.5-24,44.6-45.6,44.7-46c0,0,0,0,0,0
	c1.6-0.9,1.7-0.9,2.9,0.7c0.3,0.3,35.7,37.5,36,37.9c2.5,2.8,2.5,2.8-1,4.3c-1.9,0.8-21.4,9.6-24.3,10.9c-2.1,0.9-8.3,3.8-8.9,4
	c-4.2,1.8-8.4,3.5-12.4,5.6c-1.2,0.6-2.2,0.7-3.4-0.4c-1.8-1.6-4.1-2.2-6.6-2.3c-7.6,0.1-9.7,6.1-10.2,7.6c-0.7,2.1-0.8,4.3-0.1,6.6
	c1.1,4.7,6,7.3,6.7,7.6c2.7,0.8,5.4,0.9,8-0.3c6.2-2.9,6.8-8.8,6.6-9.8c-0.4-2.3,1.1-2.6,2.4-3.3c0.4-0.2,0.8-0.2,1.2-0.4
	c4.6-2.1,9.1-4.2,13.7-6.2c4.2-1.9,8.4-3.8,12.6-5.6c4.1-1.8,8.3-3.7,12.3-5.6c1.2-0.6,6.4-2.8,7.3-3.3c2.1-1.1,10.3,12.9,9.2,33.9
	c-2,22.1-19.4,35.5-23,38.1c-2.5,1.8-5.1,3.2-7.9,4.4c-2.1,0.9-4.2,1.8-6.4,2.3C501.1,139.4,489.6,142.6,477.1,139.6z"/>
<path class="st0" d="M130.4,68.3c0,4.7,0,9.4,0,14.1c0,0.4,0.2,0.9-0.2,1.2c-0.5,0.3-0.8-0.2-1.2-0.4c-4.8-3.2-9.4-6.9-14.5-9.7
	c-2.7-1.5-5.6-2.5-8.6-3.4c-3-0.9-6-1.4-9-1.8c-2.8-0.4-5.7-0.8-8.6-0.8c-3.6-0.1-7.3-0.2-10.9,0c-2.5,0.1-4.9,0.5-7.3,1.1
	c-1.9,0.5-3.7,0.9-5.5,1.5c-3,0.9-5.7,2.4-8.4,4c-4.7,2.8-8.6,6.5-11.8,11c-1.8,2.6-3.3,5.3-4.6,8.2c-1,2.3-1.9,4.6-2.5,7
	c-0.4,1.4-1,3-0.9,4.6c0,2.1-0.8,4.2-0.7,6.3c0.2,3.5,0.7,6.9,1.3,10.3c0.5,2.8,1.3,5.5,2.3,8c2.5,6.1,6.1,11.4,11.3,15.5
	c3.2,2.5,6.6,4.6,10.3,5.9c1.9,0.7,3.9,1.2,5.9,1.7c6.4,1.8,12.9,1.4,19.4,1.2c2.1-0.1,4.2-0.7,6.3-1.1c2-0.4,3.9-1,5.8-1.6
	c2.5-0.7,4.8-1.7,7.2-2.6c2.4-0.9,4.8-1.9,7.1-3c3-1.4,6.1-2.7,9.1-4.2c2.2-1.1,4.6-2,6.9-3c0.1,0,0.2,0,0.3-0.1
	c2.4-0.9,2.4-0.9,2.4,1.7c0,8.2,0,16.4,0.1,24.7c0,0.9-0.5,1.3-1,1.7c-3.4,1.8-6.9,3.7-10.5,5.2c-2.1,0.9-4.2,1.8-6.4,2.5
	c-2.8,0.9-5.6,1.7-8.4,2.4c-1.6,0.4-3.3,0.3-4.8,1.1c-0.2,0.1-0.4,0.2-0.7,0.2c-2.6-0.1-5,0.6-7.5,0.9c-4.3,0.5-8.6,0.5-12.9,0.6
	c-3.3,0.1-6.6-0.5-9.8-0.9c-4.1-0.5-8.2-1.4-12.2-2.7c-5.8-1.9-11.3-4.4-16.3-7.8c-9.1-6.2-16.4-14.2-21.5-24.1
	c-1.6-3.1-3-6.2-4-9.5c-1-3.1-1.7-6.4-2.4-9.6c-1.4-6.7-1.6-13.5-1.2-20.3c0.2-2.5,0.3-5.2,1.1-7.8c0.4-1.3,0.5-2.7,0.8-4.1
	c0.6-2.8,1.4-5.5,2.4-8.1c1.4-3.7,3.1-7.2,5.2-10.6c3.7-5.9,8.2-11.2,13.6-15.6c4.4-3.6,9.1-6.6,14.2-9c2.7-1.3,5.5-2.4,8.4-3.2
	c2.7-0.8,5.5-1.5,8.3-2.1c3.6-0.7,7.2-1.1,10.8-1.5c3.7-0.4,7.4-0.5,11.1-0.5c3.4,0,6.8,0.4,10.1,0.8c4.1,0.6,8.3,1.3,12.4,2.5
	c3.3,1,6.6,1.9,9.8,3.1c3.3,1.2,6.6,2.6,9.8,4.3c0.7,0.4,0.7,1,0.7,1.7C130.4,59,130.4,63.6,130.4,68.3z"/>
<path class="st0" d="M355.6,156.4c0,3.2,0,6.3,0,9.5c0,1-0.4,1.6-1.2,2c-4.1,2.4-8.1,4.9-12.4,6.8c-2.1,0.9-4.3,1.7-6.4,2.4
	c-2.4,0.9-4.9,1.4-7.4,1.9c-2.7,0.5-5.4,0.8-8.1,0.9c-4,0.2-8-0.2-11.9-0.8c-4.8-0.8-9.5-2.3-14-4.6c-5.6-2.9-10.1-6.9-14-11.6
	c-2.5-3-4.6-6.3-6.2-9.9c-1.4-3.1-2.7-6.4-3.1-9.7c-0.5-3.5-1.3-7.1-0.5-10.8c0.2-0.8,0.2-1.8,0.2-2.6c0-2.2,0.7-4.3,1.2-6.4
	c0.4-1.7,1-3.3,1.6-5c1.1-3.1,2.6-6,4.5-8.8c2.7-4,5.9-7.6,9.9-10.5c2.4-1.8,5-3.3,7.7-4.6c2.1-1,4.3-1.8,6.5-2.5
	c1.2-0.4,2.5-0.8,3.8-0.8c3.3-0.1,6.6-0.7,10-0.3c2.5,0.3,5,0.3,7.4,0.9c2.5,0.6,4.9,1.3,7.2,2.2c3.7,1.6,7.1,3.5,10.2,6.1
	c4.5,3.8,7.9,8.4,10.4,13.7c1.4,2.9,2.5,5.9,3.3,9c0.4,1.5,1.1,3.1,0.9,4.7c0,0.2,0,0.5,0.1,0.7c0.9,2.7,0.8,2.6-1.8,3.7
	c-3.8,1.5-7.6,3.1-11.4,4.7c-3.2,1.3-6.4,2.5-9.6,3.8c-3.1,1.2-6.2,2.6-9.3,3.8c-3.2,1.3-6.3,2.6-9.5,3.9c-3.2,1.3-6.4,2.6-9.6,4
	c-0.8,0.3-1.5,0.6-2.3,0.9c-1.2,0.4-0.9,0.8-0.3,1.5c1.1,1.4,2.7,2.2,4.2,2.8c3.4,1.4,7,2.3,10.7,2.2c3.3-0.1,6.7,0.2,9.9-0.8
	c2-0.6,4-1.1,6.1-1.8c2.8-0.9,5.5-1.9,8.2-3.1c3.8-1.7,7.5-3.5,11-5.7c1-0.7,2.1-1.3,3.1-2c0.8-0.5,1.1-0.4,1.1,0.6
	c-0.1,3.3,0,6.5,0,9.8C355.5,156.4,355.6,156.4,355.6,156.4z M291.6,130.4c0,0.2,0,0.5,0,0.7c0,1.9,0.1,2,1.8,1.2
	c1.9-0.8,3.9-1.6,5.8-2.3c3.2-1.2,6.3-2.4,9.5-3.7c2.7-1.1,5.3-2.3,7.9-3.3c3.2-1.3,6.5-2.4,9.7-3.8c0.4-0.2,2.1-0.3,1.1-1.6
	c-1.2-1.5-2.5-2.8-4.2-3.8c-2.3-1.2-4.7-1.8-7.2-2.4c-3.9-0.9-7.6,0-11.1,1.1c-4.3,1.4-7.8,4.3-10.2,8.3
	C292.9,123.8,291.9,127,291.6,130.4z"/>
<path class="st0" d="M225.4,156.3c0,3.2,0,6.4,0,9.6c0,0.9-0.3,1.5-0.9,1.9c-3.1,1.7-5.9,3.7-9.1,5.2c-3.3,1.6-6.6,3-10.1,4.2
	c-2.4,0.8-5,1.5-7.4,1.9c-5.2,0.8-10.4,1.3-15.7,0.5c-2.6-0.4-5.2-0.6-7.8-1.2c-2.4-0.6-4.8-1.4-7.1-2.3
	c-6.4-2.6-11.7-6.8-16.3-11.9c-2.5-2.9-4.6-6.1-6.4-9.5c-1.5-2.8-2.6-5.8-3.3-8.8c-0.4-1.5-0.9-3.2-0.9-4.8c0-3.4-0.1-6.9,0-10.3
	c0.1-2.4,0.8-4.7,1.2-7c0.5-2.5,1.4-4.9,2.3-7.2c1-2.4,2.4-4.8,3.8-7c2.4-3.7,5.5-6.9,8.9-9.7c2.6-2.1,5.4-3.7,8.3-5.2
	c2.2-1.1,4.5-1.8,6.8-2.6c1.1-0.4,2.4-0.7,3.5-0.7c3.3-0.1,6.6-0.9,9.9-0.3c0.5,0.1,0.9,0.1,1.4,0.1c2.8-0.1,5.5,0.6,8.2,1.3
	c2.8,0.7,5.5,1.7,8.1,3c7.1,3.5,12.5,8.8,16.4,15.7c1.7,3,3,6.1,4.1,9.2c1,2.9,1.4,6.1,2.2,9.1c0.5,1.8-0.9,2.1-2,2.5
	c-4.5,1.9-9,3.7-13.6,5.5c-3.2,1.3-6.4,2.5-9.5,3.8c-2.5,1-5,2.2-7.6,3.2c-3.2,1.3-6.4,2.5-9.5,3.8c-3.2,1.3-6.3,2.6-9.5,4
	c-0.8,0.3-1.5,0.6-2.3,0.8c-1.1,0.4-0.8,0.8-0.3,1.4c1.6,1.9,3.7,2.8,5.9,3.6c4.9,1.8,9.9,1.5,14.9,1.4c1.7-0.1,3.3-0.6,5-1
	c1.9-0.5,3.9-1.1,5.8-1.7c2.1-0.7,4.2-1.5,6.2-2.4c4.4-1.9,8.8-4,12.8-6.6c0.9-0.5,1.6-1.2,2.5-1.7c0.9-0.5,1-0.2,1,0.6
	C225.4,149.8,225.4,153.1,225.4,156.3C225.4,156.3,225.4,156.3,225.4,156.3z M161.4,130.5c0,2.6,0,2.6,2,1.7
	c1.9-0.8,3.8-1.5,5.7-2.3c2.6-1,5.3-2,7.9-3.1c3.1-1.4,6.3-2.6,9.5-3.9c3.5-1.4,6.9-2.8,10.4-4.2c1-0.4,0.9-0.6,0.4-1.3
	c-2.1-2.6-4.7-4.4-8-5.3c-2.5-0.7-4.9-1.4-7.4-1.1c-3.3,0.4-6.6,1-9.6,2.6C165.3,117.4,162.5,123.5,161.4,130.5z"/>
<path class="st0" d="M388.4,104.2c1.5-2.9,3.7-5,6.3-6.8c2.4-1.6,5-3,7.7-4.1c1.4-0.6,2.8-1.1,4.2-1.6c1.8-0.7,3.7-1,5.5-1.7
	c0.7-0.3,0.7,0.3,0.7,0.8c0,0.9,0,1.9,0,2.8c0,6,0,12,0,18c0,0.7,0.1,1.5-1,1.5c-2.1-0.1-3.9,0.8-5.7,1.5c-4.1,1.6-7.7,4.1-11,7.1
	c-3,2.8-5.2,6.1-6.4,10.1c-0.5,1.6-0.9,3.3-0.9,5.1c0.1,13.6,0,27.1,0.1,40.7c0,1.3-0.4,1.7-1.7,1.7c-6.4,0.1-12.7,0.3-19.1,0.5
	c-1.3,0-1.8-0.3-1.8-1.7c0-29,0-58,0-87c0-1.1,0.2-1.4,1.4-1.4c6.6,0.1,13.2,0.1,19.8,0c1.1,0,1.4,0.4,1.4,1.4
	c-0.1,3.9,0,7.7,0,11.6C388,103.2,387.9,103.6,388.4,104.2z"/>
<path class="st0" d="M260,123.7c0,17.8,0,35.7,0,53.5c0,2,0,2-2,2c-6.2,0-12.5,0-18.7,0.1c-1.4,0-1.7-0.4-1.7-1.8
	c0-35.8-0.1-71.5-0.1-107.3c0-1.3,0.4-1.6,1.6-1.5c6.5,0.1,13-0.1,19.5-0.5c1.5-0.1,1.4,0.7,1.4,1.7C260,87.8,260,105.7,260,123.7z"
	/>
<path class="st1" d="M25,220.7c0-5.9,0-11.7,0-17.6c0-1.2,0.3-1.5,1.5-1.5c5.1,0.1,10.2,0,15.3,0.1c3.6,0,6.5,1.5,8.6,4.5
	c2.5,3.7,2,8.8-1.5,11.7c-0.3,0.3-0.7,0.5-1,0.8c-0.6,0.5-0.7,1,0.2,1.3c4,1.3,6.2,5.9,5.8,9.9c-0.4,4-3.5,8.1-7.4,9
	c-1.7,0.4-3.4,0.9-5.3,0.9c-4.9-0.1-9.8-0.1-14.8,0c-1.1,0-1.4-0.3-1.4-1.4C25,232.5,25,226.6,25,220.7z M36.6,222.2
	C36.6,222.2,36.6,222.2,36.6,222.2c-1.9,0-3.7,0-5.6,0c-0.7,0-1.1,0.2-1.1,1c0,3.7,0,7.3,0,11c0,0.9,0.4,1.2,1.3,1.2
	c4.2-0.2,8.3,0.3,12.5-0.5c3.7-0.7,6.2-6,4.2-9.1c-1.5-2.4-3.8-3.4-6.5-3.5C39.8,222.1,38.2,222.2,36.6,222.2z M30,211.8
	C30,211.8,30,211.8,30,211.8c0,1.6,0,3.2,0,4.7c0,1,0.3,1.3,1.3,1.3c3.6-0.2,7.2,0.2,10.8-0.5c2.2-0.4,4.4-1.9,4.6-3.8
	c0.3-2.7-0.1-5.1-2.4-6.4c-1.3-0.7-2.7-1-4.1-1.1c-3.1-0.2-6.1,0-9.2-0.1c-0.8,0-1.1,0.3-1,1.1C30,208.6,30,210.2,30,211.8z"/>
<path class="st1" d="M442.2,240.5c-4-0.2-7.9-0.9-11.3-3.4c-1.6-1.2-2.7-2.9-3.6-4.7c-0.6-1.2-0.8-2.5-0.9-3.9c0-0.8,0.2-1.3,1-1.3
	c0.4,0,0.7-0.1,1.1-0.1c2.5-0.2,2.5,0,3.1,2.4c0.6,2.7,2.6,4.2,5.1,5.3c3,1.3,6.2,1,9.3,0.6c2.8-0.3,5.3-2.9,5.8-5.6
	c0.2-1.3-1.1-4-2.3-4.7c-2-1.1-4.2-1.7-6.4-2.3c-3.6-1-7.4-1.5-10.7-3.5c-3.2-1.9-4.7-5-4.4-9.1c0.3-4.2,4.2-7.6,8-8.6
	c2.9-0.8,5.8-0.8,8.7-0.5c4.4,0.6,8.2,2.6,10.1,7c0.4,0.9,0.6,1.9,0.9,2.9c0.2,0.9-0.1,1.5-1.1,1.4c-0.4,0-0.7,0-1.1,0.1
	c-2.5,0.2-2.5,0.2-3.3-2.2c-0.8-2.4-2.5-3.6-4.9-4.3c-2.8-0.8-5.4-0.6-8.1,0.1c-1.8,0.5-3.3,1.6-3.9,3.5c-0.6,1.9-0.4,3.8,1.3,5.2
	c1.1,0.9,2.6,1.2,3.9,1.7c2.8,0.9,5.8,1.4,8.6,2.2c2.6,0.8,5,1.7,7,3.6c2.4,2.4,3.1,5.1,2.5,8.4c-0.7,4.4-3.3,7.1-7.4,8.6
	C446.8,240,444.6,240.7,442.2,240.5z"/>
<path class="st1" d="M337.2,225.3c0,5.6,0.2,11.2-0.5,16.8c-0.5,3.4-2.3,6-5.5,7.5c-2.7,1.2-5.5,2.2-8.4,1.6
	c-3.2-0.7-6.6-1.5-8.3-4.9c-0.5-1-1-2.2-1-3.4c0-0.8,0.4-1.1,1.1-0.9c0.9,0.3,1.9,0.5,2.9,0.5c0.5,0,0.8,0.2,0.9,0.8
	c0.5,2.1,2,3.3,4.1,3.4c1.4,0.1,2.8,0,4.2,0c2.4,0,4.7-2.4,5.1-4.5c0.3-1.6,0.5-3.1,0.5-4.7c0-0.3,0.1-0.6-0.2-0.8
	c-0.4-0.2-0.6,0.1-0.8,0.3c-2.3,2.2-5,3-8.1,2.7c-2.7-0.3-5-1.4-6.9-3.4c-3.6-4-4.3-8.9-3.5-13.9c0.6-3.8,2.1-7.3,5.8-9.5
	c3.2-1.9,9.3-2.3,12.6,0.9c0.3,0.3,0.5,0.8,1,0.6c0.6-0.2,0.3-0.8,0.4-1.2c0.5-2.1,2.1-0.7,3.2-1c0.8-0.2,1.5,0,1.5,1.2
	C337.1,217.4,337.2,221.4,337.2,225.3z M317.7,225.6c-0.2,2-0.1,4.2,0.8,6.1c1.1,2.3,3,3.8,5.7,4c3.4,0.3,6.3-1.5,7.5-4.8
	c0.9-2.4,0.5-4.7,0.6-7.1c0.1-2.2-0.6-4.2-2-5.9c-3.3-3.9-8.6-3.5-11.3,0.7C317.7,220.8,317.6,223.1,317.7,225.6z"/>
<path class="st1" d="M515.2,239.8c-0.7,0-1.3,0-2,0c-0.8,0-1.2-0.4-1.5-1.2c-1.2-3.2-2.4-6.4-3.6-9.6c-0.2-0.5-0.7-0.6-1.1-0.6
	c-4.7,0-9.5,0-14.2,0c-0.8,0-1.3,0.3-1.5,1.3c-0.2,1.5-0.9,2.9-1.5,4.4c-0.7,1.7-1,3.5-1.9,5.1c-0.1,0.1-0.1,0.3-0.1,0.4
	c-0.3,0.4-4.8,0.5-5.2,0.1c-0.2-0.2,0-0.4,0-0.6c1-2.4,1.9-4.8,2.9-7.3c1-2.7,2-5.5,3-8.2c0.8-2.1,1.6-4.2,2.4-6.3
	c1.1-2.8,2.1-5.5,3.2-8.3c0.8-2.1,1.6-4.2,2.4-6.3c0.1-0.2,0.2-0.5,0.4-0.6c1.6-0.8,3.4-0.3,5-0.3c1,0,1,1.1,1.3,1.7
	c1.6,3.8,3.2,7.7,4.7,11.5c1.3,3.2,2.5,6.4,3.8,9.5c1.3,3.2,2.7,6.3,4,9.4c0.7,1.7,1.4,3.4,2.1,5.1c0.3,0.7-0.1,0.7-0.6,0.7
	C516.6,239.8,515.9,239.8,515.2,239.8C515.2,239.8,515.2,239.8,515.2,239.8z M499.4,206.3c-0.1,2.4-1.1,4.4-1.8,6.6
	c-1.1,3.4-2.6,6.7-3.9,10.1c-0.3,0.7-0.1,1.1,0.7,1.1c3.6,0,7.2,0,10.9,0c0.7,0,1.1-0.4,0.8-0.9c-0.7-1.4-1.1-2.8-1.6-4.2
	c-0.9-2.3-1.6-4.5-2.6-6.8C501.1,210.3,500.7,208.2,499.4,206.3z"/>
<path class="st1" d="M386.6,226.8c0,1.9,0.1,3.8,0,5.7c-0.1,2.3,0.2,4.5,1.2,6.6c0.3,0.5-0.1,0.7-0.5,0.7c-1.2,0-2.4,0.1-3.6,0
	c-1.1-0.2-1.2-1.3-1.4-2.2c-0.1-0.3,0.1-0.7-0.3-0.9c-0.4-0.2-0.6,0.2-0.8,0.4c-1.7,1.3-3.5,2.2-5.6,2.8c-1.7,0.5-3.3,0.6-5,0.6
	c-3.4,0-6.8-2.5-7.9-5.7c-1-2.8,0.5-6.9,3-8.6c2.9-2,6.2-2.3,9.5-2.6c1.8-0.2,3.4-0.8,5.2-0.9c1-0.1,1.4-0.8,1.5-2
	c0-3.9-2.2-4.6-5.5-5.4c-1.8-0.4-3.5,0.2-5.2,0.8c-1.6,0.6-2.3,2-2.8,3.6c-0.2,0.5-0.3,1-0.9,1c-1.3,0-2.4-0.6-3.7-0.6
	c-0.5,0-0.5-0.6-0.3-1c1.2-3.4,3.3-5.8,7.1-6.8c3.1-0.8,6.1-0.8,9.1-0.4c4.1,0.6,7,2.8,7,8.1C386.6,222.2,386.6,224.5,386.6,226.8z
	 M381.7,228.8c0-0.5,0-1,0-1.5c0-0.8-0.1-1.1-1.1-1c-1.1,0.2-2,0.7-3.1,0.8c-2.4,0.4-5,0.5-7.3,1.4c-2.3,0.9-3.6,3.6-2,5.9
	c1.7,2.5,6,3.2,9,1.5C380.1,234.4,381.9,232.2,381.7,228.8z"/>
<path class="st1" d="M146.4,227.1c-2.8,0-5.7,0-8.5,0c-1.7,0-2.3,0.6-1.6,2.1c0.5,1,0.6,2.2,1.2,3.2c1.3,2.2,3,3.5,5.7,3.8
	c4,0.5,6.7-1.2,8.3-4.7c0.4-0.8,0.8-0.9,1.5-0.6c0.9,0.3,1.8,0.4,2.7,0.4c0.7,0,1,0.3,0.7,1c-1.3,3.4-3.5,6.1-6.9,7.4
	c-2.2,0.8-4.6,1.3-6.9,0.8c-2.5-0.5-5-1.2-7-3c-1.9-1.8-3.2-3.9-3.8-6.5c-0.7-2.5-0.8-5-0.5-7.4c0.6-4.7,2.5-8.7,7.1-10.8
	c1.3-0.6,2.6-1.1,4.1-1.1c2.7,0,5.5-0.2,7.9,1.4c2.8,1.8,4.7,4.1,5.7,7.4c0.6,1.8,0.4,3.7,0.6,5.5c0.1,1-0.3,1.4-1.3,1.4
	C152.4,227.1,149.4,227.1,146.4,227.1z M143.9,223.3c2.2,0,4.4,0,6.5,0c0.9,0,1.1-0.4,1.2-1.1c0.1-0.9-0.5-1.5-0.7-2.2
	c-1.3-4.1-6.7-6-10.5-3.7c-2,1.2-3.4,2.9-3.8,5.3c-0.3,1.7-0.5,1.7,1.3,1.7C139.9,223.3,141.9,223.3,143.9,223.3z"/>
<path class="st1" d="M78.4,226.1c-0.2-3.8,0.5-7.2,2.8-10c2.3-2.9,5.4-4.5,9.2-4.6c3.1-0.1,6,0.3,8.6,2.2c2.6,1.9,4.2,4.4,4.9,7.6
	c0.4,1.8,0.6,3.5,0.6,5.3c-0.2,3.4-0.8,6.6-3,9.3c-1.6,2-3.8,3.2-6.3,3.9c-1.7,0.5-3.4,0.7-5.2,0.6c-4-0.1-8.7-3.4-10.2-7.2
	C78.8,230.9,78.1,228.5,78.4,226.1z M83.5,225.9c-0.2,2.1-0.1,4.2,0.9,6.2c1.6,3.2,4.2,4.5,7.8,4.2c3.2-0.3,6-2.5,6.7-5.5
	c0.7-3.1,1-6,0.1-9.2c-0.9-3.5-3.1-5.5-6.4-6.3c-2.7-0.6-5,0.6-6.8,2.5C83.6,220.1,83.2,222.9,83.5,225.9z"/>
<path class="st1" d="M305,225.4c0.1,3.5-0.5,6.5-2.1,9.2c-1.6,2.8-4.2,4.3-7.3,5.2c-1.6,0.5-3,0.8-4.6,0.6
	c-4.3-0.4-8.8-2.4-10.8-7.4c-1.3-3.2-1.6-6.6-1.2-9.9c0.6-4.7,2.8-8.6,7.4-10.6c3.2-1.4,6.5-1.4,9.9-0.4c4.1,1.2,6.6,4,7.9,7.8
	C304.8,221.8,305.4,223.7,305,225.4z M284,226c-0.2,1.9,0,4,0.9,5.9c1.5,3.2,4,4.7,7.6,4.3c0.9-0.1,1.8,0.1,2.7-0.4
	c2.4-1.3,3.8-3.2,4.4-5.8c0.8-3.6,0.9-7.1-0.9-10.5c-2.2-4.3-7.7-5.7-11.6-2.4C284.4,219.4,283.7,222.5,284,226z"/>
<path class="st1" d="M255.1,226c0.2,2.8-0.1,5.6-1.6,8c-1.7,2.9-4.2,5-7.7,5.8c-1.4,0.3-2.8,0.7-4.3,0.6c-4.7-0.3-9.7-2.9-11.3-8.2
	c-1-3.3-1.4-6.6-0.7-10.1c0.6-3,1.6-5.7,3.9-7.7c2.1-1.8,4.4-3,7.2-3c2.7,0,5.3-0.1,7.8,1.3c2.9,1.7,4.9,4,6,7.3
	C255.1,222.1,254.9,224.1,255.1,226z M242.2,236.2c3.8,0,6.2-1.6,7.3-5.3c1.1-3.6,1.2-7.2-0.2-10.7c-1.6-4.2-6.5-6.3-10.7-4.1
	c-3.4,1.8-4.2,5-4.6,8.3c-0.2,1.8,0,3.5,0.5,5.3C235.7,234.1,237.9,236.2,242.2,236.2z"/>
<path class="st1" d="M197.3,226c0-4.1,0-8.3,0-12.4c0-1.1,0.3-1.6,1.5-1.4c0.2,0,0.5,0,0.7,0c2,0,2,0,2.2,2.1c0,0.3,0,0.6,0.3,0.7
	c0.2,0.1,0.4-0.2,0.6-0.3c2.8-3.2,6.5-3.5,10.3-3.1c3.1,0.3,5.6,2.9,6.6,5.9c0.6,1.9,0.5,3.7,0.6,5.6c0.1,5.1,0,10.1,0,15.2
	c0,1.1-0.2,1.5-1.4,1.5c-3.6,0-3.6,0-3.6-3.6c0-5.1,0-10.2,0-15.3c0-2.9-1.8-4.8-4.7-5.1c-3.8-0.4-6.5,1.2-7.6,4.3
	c-0.5,1.5-0.4,3.1-0.4,4.7c-0.1,4.5-0.1,8.9,0,13.4c0,1.2-0.3,1.6-1.5,1.6c-3.4,0-3.4,0-3.4-3.4C197.3,232.9,197.3,229.5,197.3,226z
	"/>
<path class="st1" d="M177.9,211.6c3.5-0.3,6.3,0.9,8.7,3.6c1.1,1.3,1.5,2.8,2.1,4.3c0.2,0.6-0.2,0.8-0.7,1c-1.1,0.4-2.2,0.4-3.3,0.3
	c-1.1-0.1-0.9-1.2-1.2-1.8c-2-4.4-7.4-4.7-10.7-1.6c-1.9,1.9-2.5,4.3-2.8,6.8c-0.2,2.1-0.1,4.2,0.5,6.3c0.5,1.9,1.4,3.4,2.9,4.6
	c2.9,2.3,9.6,1.9,10.6-3.5c0.2-1.1,0.7-2.1,2.1-1.7c0.3,0.1,0.6,0,0.8,0c2.1,0,2.6,0.8,1.8,2.7c-1.2,3.1-3,5.6-6.2,6.9
	c-2.6,1-5.2,1.6-8.1,0.6c-2.3-0.7-4.3-1.6-5.9-3.4c-1.6-1.8-2.7-3.9-3-6.4c-0.2-1.6-0.9-3.1-0.7-4.8c0.4-3.1,0.7-6.3,2.6-8.9
	C170,213.1,173.4,211.2,177.9,211.6z"/>
<path class="st1" d="M119.4,225.1c0,2.4,0,4.8,0,7.2c0,2.6,0.6,3.2,3.1,3.1c1.2,0,2,0.2,1.9,1.6c-0.1,0.8,0.8,1.7,0.4,2.4
	c-0.5,0.7-1.6,0.4-2.4,0.5c-2.3,0.3-4.6,0.3-6.4-1.7c-0.6-0.7-0.9-1.4-1-2.4c-0.4-6.1-0.2-12.3-0.2-18.4c0-1.4-0.5-1.8-1.8-1.6
	c-1,0.2-1.7,0-1.6-1.4c0.1-2.3,0-2.3,1.5-2.3c1.8,0,1.8,0,1.8-1.9c0-0.9,0.1-1.8,0-2.6c-0.4-2.1,0.7-3.2,2.4-3.9
	c0.3-0.1,0.5-0.3,0.7-0.4c0.4-0.2,0.8-0.9,1.3-0.6c0.5,0.3,0.2,0.9,0.2,1.4c0,2.2,0,4.4,0,6.5c0,1.1,0.4,1.5,1.5,1.4
	c0.4,0,0.7,0,1.1,0c2.3,0,2.8,0.7,2.3,3c-0.1,0.5-0.4,0.7-0.9,0.7c-0.7,0-1.5,0.1-2.2,0c-1.3-0.2-1.8,0.2-1.8,1.6
	C119.4,220,119.4,222.6,119.4,225.1C119.4,225.1,119.4,225.1,119.4,225.1z"/>
<path class="st1" d="M264.6,220.7c0-5.9,0-11.7,0-17.6c0-1.2,0.4-1.5,1.5-1.5c3,0.1,3,0,3,3c0,11.2,0,22.4,0,33.6
	c0,1.2-0.3,1.6-1.6,1.6c-3.6-0.1-3,0.4-3-3.1C264.6,231.4,264.6,226.1,264.6,220.7z"/>
<path class="st1" d="M352.9,226c0,4.1,0,8.2,0,12.3c0,1.2-0.3,1.6-1.5,1.6c-3.3-0.1-3.3,0-3.3-3.3c0-7.6,0-15.2,0-22.8
	c0-1.3,0.5-1.6,1.6-1.6c3.2,0,3.2,0,3.2,3.1C352.9,218.8,352.9,222.4,352.9,226z"/>
<path class="st1" d="M68.9,226c0,4.1,0,8.3,0,12.4c0,1-0.3,1.4-1.3,1.4c-4.1-0.1-3.3,0.5-3.3-3.2c0-7.6,0-15.1,0-22.7
	c0-1.3,0.3-1.7,1.7-1.6c3.5,0.1,3-0.4,3,3.1C68.9,218.8,68.9,222.4,68.9,226z"/>
<path class="st1" d="M473.9,237.1c0,3,0.5,2.7-2.8,2.7c-2.9,0-2.9,0-2.8-2.8c0-2.8-0.4-2.9,2.9-2.9
	C474.1,234.2,473.9,233.8,473.9,237.1z"/>
<path class="st1" d="M527,237c0-3-0.3-2.8,2.9-2.8c0.5,0,0.9,0,1.4,0c0.7,0,1,0.3,1,0.9c0,1.3,0,2.6,0,3.9c0,0.6-0.3,0.9-0.9,0.9
	c-1.2,0-2.3,0-3.5,0c-0.8,0-1-0.4-1-1.2C527.1,238.1,527,237.5,527,237z"/>
<path class="st1" d="M352.9,204.2c0,3,0.3,2.6-2.6,2.6c-2.2,0-2.2,0-2.2-2.2c0-3.1-0.7-2.9,2.9-2.9
	C353.3,201.7,352.8,201.6,352.9,204.2z"/>
<path class="st1" d="M64.2,204.2c0-2.8-0.4-2.5,2.5-2.5c2.2,0,2.2,0,2.1,2.2c0,3.1,0.5,2.9-2.6,2.9
	C63.7,206.8,64.3,206.7,64.2,204.2z"/>
</svg>
