<?xml version="1.0" encoding="utf-8"?>
<!-- Generator: Adobe Illustrator 24.1.2, SVG Export Plug-In . SVG Version: 6.00 Build 0)  -->
<svg version="1.1" id="Camada_1" xmlns="http://www.w3.org/2000/svg" xmlns:xlink="http://www.w3.org/1999/xlink" x="0px" y="0px"
	 viewBox="0 0 584.9 154.7" style="enable-background:new 0 0 584.9 154.7;" xml:space="preserve">
<style type="text/css">
	.st0{fill:#E52829;}
	.st1{fill:#185BA7;}
</style>
<path class="st0" d="M164.7,144.7c-3.4,0-6.8,0.2-10.2,0c-8.8-0.7-17.7-1.5-26.5-2.4c-12.1-1.2-24-3.3-35.9-6.1
	c-17-4-33.6-9.4-49-17.9c-9.3-5.1-17.9-11.2-24.5-19.6c-3.5-4.5-5.8-9.4-7.4-14.9c-1-3.4-1.2-6.8-0.5-10c0.9-4,2.2-8.1,4.4-11.7
	c4.9-8.1,11.8-14.3,19.5-19.5c9.6-6.5,20.2-11.3,31.1-15.2c12.6-4.6,25.5-7.9,38.6-10.4c12-2.3,24.2-3.8,36.4-4.7
	c3.7-0.3,27.9-1.2,36.3-1.3c1.8,0,2.3,0.5,2.3,2.3c0,3,0,5.9,0,8.9c0,1.2-0.4,1.7-1.6,1.6c-12.8-0.4-25.6,0.2-38.3,1.6
	c-13.8,1.5-27.5,4-40.8,8C86.4,37,74.6,41.6,64,48.7C57.5,53,51.6,58,47.7,64.9c-5.4,9.5-4.7,18.8,1.2,27.7
	c4.4,6.7,10.6,11.5,17.3,15.7c11.1,6.8,23.1,11.3,35.6,14.9c10.4,2.9,21,5,31.8,6.4c14.6,1.9,29.2,2.8,43.9,2.4c1.6,0,2,0.5,1.9,2
	c-0.1,2.9,0,5.7,0,8.6c0,2-0.2,2.2-2.1,2.2C173,144.7,168.9,144.7,164.7,144.7C164.7,144.7,164.7,144.7,164.7,144.7z"/>
<path class="st0" d="M166.2,30.5c3.3,0,7.3,0,11.3,0c1.3,0,1.8,0.4,1.8,1.8c-0.1,3.7-0.1,7.4,0,11c0,1.5-0.5,1.9-1.9,1.9
	c-8.1-0.1-16.1,0.3-24.2,1.3c-12,1.5-23.8,4.1-34.9,9c-6.5,2.9-12.5,6.4-17.1,12c-5.6,6.7-5.6,14.4,0,21.1
	c4.3,5.2,9.9,8.6,15.9,11.4c10.8,5,22.3,7.7,34,9.3c8.7,1.2,17.4,1.7,26.1,1.6c1.6,0,2.1,0.5,2.1,2.1c-0.1,3-0.1,6,0,9.1
	c0,1.4-0.4,1.8-1.8,1.8c-9.9,0.2-19.9-0.1-29.8-1c-13.9-1.4-27.6-3.8-40.9-8.1C96.2,111.3,86,106.9,77,100
	c-5.1-3.9-9.6-8.4-12.1-14.5c-3.5-8.5-1.7-16.1,3.7-23.1c6.1-7.8,14.3-12.7,23-16.9c9.8-4.6,20-7.7,30.6-10.1
	C136.5,32.4,150.9,30.8,166.2,30.5z"/>
<path class="st1" d="M376.8,52c2.7,0,5.4,0,8.1,0c1,0,1.6,0.3,1.9,1.4c1.8,6.3,3.2,11.3,4.6,17.7c0.3,1.5,0.4,2.8,1.5,5.6
	c0.1,0.4,0.1,1,0.6,1c0.6,0,0.6-0.6,0.6-1c2-7.2,3.4-13.7,5.4-20.5c0-0.2,0.1-0.3,0.2-0.5c1.3-3.8,1.3-3.8,5.2-3.8
	c4.4,0,8.8,0,13.2,0c1.4,0,2.1,0.4,2.3,1.8c1.1,7.6,2.3,15.3,3.5,22.9c0.9,5.9,1.9,11.7,2.8,17.5c0.4,2.7,0.9,5.3,1.3,8
	c0.2,0.9-0.2,1.3-1.1,1.3c-5.3,0-10.5,0-15.8,0c-0.9,0-1.3-0.4-1.4-1.2c-0.8-7.9-2.1-15.7-2.4-23.6c0-0.6,0.2-1.6-0.5-1.7
	c-0.7-0.1-0.7,1-0.8,1.6c-1.5,8.2-4.6,15.9-6.9,23.8c-0.2,0.8-0.8,1.1-1.6,1.1c-2.9,0-5.8,0-8.7,0c-0.8,0-1.2-0.3-1.4-1
	c-2.5-8-5.5-16-7.1-24.3c-0.1-0.5,0-1.2-0.6-1.2c-0.6,0-0.4,0.8-0.5,1.2c-0.8,8-1.6,16-2.4,24.1c-0.1,0.9-0.5,1.2-1.4,1.2
	c-5.2,0-10.4,0-15.7,0c-1.1,0-1.4-0.5-1.2-1.6c1.3-7.7,2.6-15.4,3.9-23c1.4-8.4,2.9-16.8,4.2-25.2c0.2-1.5,0.8-1.9,2.2-1.9
	C371.7,52.1,374.3,52,376.8,52z"/>
<path class="st0" d="M170.7,103.5c-10.7-0.4-21.2-2-31.4-5.3c-7-2.3-13.7-5.3-19.1-10.6c-1.8-1.8-3.3-3.8-4-6.3
	c-1.5-4.8,0.1-8.8,3.2-12.4c3.7-4.2,8.5-7,13.5-9.1c14.4-6.1,29.5-7.8,45-7.7c1.1,0,1.5,0.4,1.4,1.5c0,3.3,0,6.7,0,10
	c0,1.3-0.7,1.5-1.8,1.5c-4.9,0-9.6,0.5-14.3,1.8c-3.8,1.1-7.5,2.5-10.5,5.3c-3.9,3.6-3.8,8,0.3,11.4c3.6,3,8,4.5,12.5,5.6
	c4,0.9,8.1,1.3,12.3,1.3c1.2,0,1.5,0.5,1.5,1.6c-0.1,3.3-0.1,6.6,0,9.9c0,1.2-0.4,1.6-1.5,1.6C175.4,103.5,173.1,103.5,170.7,103.5z
	"/>
<path class="st1" d="M528.1,77.7c0-8,0-15.9,0-23.9c0-1.5,0.5-1.9,1.9-1.9c7.7,0.1,15.4,0,23.1,0.1c4.3,0,8.4,0.8,12.1,3.1
	c4.4,2.6,6.4,6.8,7,11.7c0.4,3.7,0,7.2-1.8,10.5c-1.5,2.6-3.7,4.3-6.6,5c-0.9,0.2-1.3,0.5-0.6,1.4c3.7,5.6,7.4,11.3,11.1,16.9
	c0.3,0.5,0.6,1.1,1.1,1.5c0.4,0.3,0.9,0.5,0.6,1.1c-0.2,0.6-0.7,0.3-1.1,0.3c-5.9,0-11.9-0.1-17.8,0c-1.3,0-2-0.5-2.6-1.6
	c-2.3-4.4-4.5-8.8-6.8-13.1c-0.2-0.4-0.4-1-1.1-0.8c-0.5,0.2-0.3,0.7-0.3,1.1c0.1,4.3,0.1,8.7,0.2,13c0,0.9-0.4,1.3-1.3,1.3
	c-5.3,0-10.5,0-15.8,0c-1.1,0-1.3-0.6-1.3-1.6C528.1,93.9,528.1,85.8,528.1,77.7z M546.2,70.3C546.2,70.3,546.2,70.3,546.2,70.3
	c0,0.4,0,0.8,0,1.1c0,4.1,0.4,4.4,4.5,3.7c2.5-0.4,3.8-2.1,3.9-4.7c0-2.7-1.3-4.6-3.7-5c-1.1-0.2-2.3-0.2-3.4-0.2
	c-0.9,0-1.2,0.6-1.2,1.4C546.2,67.9,546.2,69.1,546.2,70.3z"/>
<path class="st1" d="M345.7,103.5c-2.7,0-5.5,0-8.2,0c-1.1,0-1.8-0.2-1.9-1.4c0-0.4-0.3-0.7-0.3-1.1c-1-4.7-0.8-3.7-5.1-3.8
	c-2.7,0-5.4,0-8.1,0c-1.2,0-1.9,0.3-2,1.6c-0.1,0.6-0.3,1.3-0.5,1.9c-0.9,2.9-0.9,2.9-3.9,2.9c-5,0-10,0-15,0
	c-1.2,0-1.7-0.2-1.2-1.6c3.7-10.2,7.2-20.4,10.9-30.6c2.1-6,4.3-12,6.4-18.1c0.3-0.9,0.8-1.3,1.7-1.3c6.1,0,12.2,0,18.3,0
	c0.9,0,1.3,0.4,1.6,1.3c3.7,10.6,7.5,21.3,11.2,31.9c2,5.6,4,11.2,6,16.9c0.4,1.1,0.1,1.5-1.1,1.5
	C351.5,103.5,348.6,103.6,345.7,103.5C345.7,103.5,345.7,103.5,345.7,103.5z M327.4,68.4c-0.1,0-0.2,0-0.3,0c-0.1,0.5-0.3,1-0.4,1.5
	c-0.4,4.7-1.7,9.2-3.1,13.7c-0.3,0.9,0.2,1.1,0.9,1.1c1.4,0,2.9,0,4.3,0c2.3,0,2.4-0.2,1.7-2.3c-1.2-3.8-2.3-7.6-2.6-11.7
	C327.9,69.9,327.6,69.2,327.4,68.4z"/>
<path class="st1" d="M433.4,77.8c0-8,0-16,0-24.1c0-1.1,0.2-1.8,1.5-1.7c8.8,0.2,17.7-0.4,26.5,0.3c5.2,0.4,10,2,13.3,6.5
	c1.2,1.7,2.1,3.6,2.5,5.7c1,5.4,1.2,10.7-1.2,15.8c-2.4,5-7,6.8-12.1,7.7c-3.3,0.6-6.7,0.4-10,0.3c-1.4,0-1.8,0.5-1.8,1.8
	c0.1,3.9,0,7.8,0.1,11.7c0,1.3-0.4,1.7-1.7,1.7c-5.1-0.1-10.2,0-15.3,0c-1.3,0-1.7-0.4-1.7-1.7C433.4,93.8,433.4,85.8,433.4,77.8z
	 M452,73.7c0,0.8,0.3,1.3,1.2,1.2c1.4-0.1,2.7,0.1,4.1-0.3c2.1-0.6,3.4-2.5,3-4.8c-0.4-2.4-3.3-3.9-7.1-3.4
	c-1.1,0.2-1.3,0.7-1.3,1.4C451.9,68.4,452,72.6,452,73.7z"/>
<path class="st1" d="M483.5,77.8c0-8,0-16,0-24c0-1.4,0.5-1.8,1.8-1.8c10.3,0,20.6,0,31,0c1.4,0,1.8,0.4,1.8,1.8
	c-0.1,3.6,0,7.2,0.1,10.9c0,1.3-0.7,1.6-1.8,1.5c-4.2,0-8.3,0-12.5,0c-1.5,0-2.2,0.3-2.1,2c0.2,2.7,0.1,2.7,2.7,2.7
	c3.5,0,6.9,0,10.4,0c1.3,0,1.7,0.5,1.7,1.8c-0.1,3.3-0.1,6.7,0,10c0,1.3-0.4,1.8-1.7,1.7c-3.8-0.1-7.6,0-11.4,0
	c-1.3,0-1.7,0.4-1.7,1.7c0.1,3.5,0,3.5,3.6,3.5c3.8,0,7.6,0,11.4,0c1.3,0,1.9,0.4,1.8,1.8c-0.1,3.6-0.1,7.1,0,10.7
	c0,1.3-0.4,1.6-1.6,1.6c-10.6,0-21.2,0-31.8,0c-1.2,0-1.7-0.3-1.6-1.6C483.6,93.9,483.5,85.8,483.5,77.8z"/>
<path class="st1" d="M250.9,62.8c0,2.6,0,5.3,0,7.9c0,0.5,0.3,1.1-0.4,1.3c-0.5,0.2-0.8-0.3-1.1-0.6c-3.2-2.7-6.8-4.1-11.1-3.6
	c-4.3,0.6-7.9,4.3-8.2,8.6c-0.1,1.5-0.1,3.1,0.2,4.6c1.2,4.5,4.4,6.8,9,6.5c3.7-0.3,7.2-1.6,10.3-3.7c0.4-0.3,0.8-0.7,1.3-0.5
	c0.6,0.3,0.3,0.8,0.2,1.3c-0.2,5.3-0.4,10.5-0.5,15.8c0,1.3-0.4,2.1-1.8,2.6c-10.4,3.3-20.1,2.4-28.7-4.6c-5.4-4.3-8.2-10.1-9-16.9
	c-1-8.8,1.2-16.9,7.8-23.1c7.9-7.6,17.4-9.6,27.9-6.6c3.9,1.1,3.9,1.2,3.9,5.3C250.9,59.1,250.9,60.9,250.9,62.8
	C250.9,62.8,250.9,62.8,250.9,62.8z"/>
<path class="st1" d="M259,77.8c0-8.1,0-16.1,0-24.2c0-1.2,0.3-1.7,1.6-1.7c5.2,0,10.3,0,15.5,0c1.2,0,1.7,0.3,1.7,1.7
	c-0.1,10.5-0.1,21-0.1,31.5c0,1.3,0.6,1.6,1.7,1.5c4.8,0,9.6,0,14.3-0.1c1.6,0,2.1,0.5,2.1,2.1c-0.1,4.4-0.1,8.8,0,13.2
	c0,1.2-0.4,1.6-1.6,1.6c-11.2,0-22.4,0-33.6,0c-1.1,0-1.5-0.3-1.5-1.5C259,94,259,85.9,259,77.8z"/>
</svg>
