<?xml version="1.0" encoding="utf-8"?>
<!-- Generator: Adobe Illustrator 24.1.2, SVG Export Plug-In . SVG Version: 6.00 Build 0)  -->
<svg version="1.1" id="Camada_1" xmlns="http://www.w3.org/2000/svg" xmlns:xlink="http://www.w3.org/1999/xlink" x="0px" y="0px"
	 viewBox="0 0 414.7 414.4" style="enable-background:new 0 0 414.7 414.4;" xml:space="preserve">
<style type="text/css">
	.st0{fill:#FFFFFF;}
</style>
<g>
	<path class="st0" d="M207.3,414.4C93.6,415.2-0.6,321.2,0,206.3C0.6,93,93.2-0.1,207.5,0c115.8,0.1,208,95.6,207.2,208.7
		C413.9,321.1,321.4,415.2,207.3,414.4z M27.2,207.3c-0.1,98.7,79.7,179.4,178.8,180.1c99.6,0.7,180.9-79.9,181.3-179.1
		c0.5-100.1-80.3-180.2-178.2-181.1C108.8,26.2,27.2,107.3,27.2,207.3z"/>
	<path class="st0" d="M77.1,204.1c-0.3,20.3,3.2,39.8,12.1,58.2c16.9,34.6,43.5,58.1,80.3,69.8c11.2,3.5,22.7,5.2,34.4,5.6
		c1.8,0.1,3.5,0.3,5.3,0.4c4.6,0.2,10.3,4.6,11.4,10.8c1,6.5-1.8,12.2-7.3,14.8c-2.1,1-4.2,1.5-6.5,1.4c-8.1-0.3-16.2-0.8-24.3-2.2
		c-12.7-2.2-25.1-5.4-37-10.5c-10-4.3-19.5-9.7-28.4-15.9c-29.2-20.6-49.3-48-60.1-82c-3.2-10-5.5-20.4-6.2-31
		c-0.3-5.1-1.3-10.2-1.2-15.3c0-8.6,0.5-17.3,2.4-25.7c1.1-4.7,1.8-9.4,2.9-14.1c2.2-10.1,6-19.7,10.5-29
		c18.6-37.9,47.6-64.5,86.9-79.6c12.5-4.8,25.5-7.8,38.9-9c4.9-0.4,9.7-1.1,14.6-1.2c4.1-0.1,8.3,0.2,12.4,0.5
		c4.4,0.4,8.7,1.1,13.1,1.7c32.5,4.8,60.5,18.7,84.4,41.1c14.5,13.7,26.2,29.5,34.6,47.6c6.1,13.1,10.4,26.8,12.5,41.1
		c1.2,8.2,2.6,16.4,2.4,24.8c0,1.6-0.2,3.2-0.6,4.7c-1.6,5.9-7.3,10-13.3,9.8c-6.2-0.2-11.6-4.3-12.8-10c-0.5-2.7-0.6-5.6-0.7-8.4
		c-0.5-11.7-2.3-23.3-6-34.4c-5.8-17.7-14.7-33.8-27.3-47.7c-13.4-14.8-29.1-26.2-47.5-33.7c-18.9-7.7-38.6-10.8-59.1-9.4
		c-46.1,3.2-84.3,30.7-104,65.9c-6.9,12.3-11.9,25.3-14.5,39.2c-0.7,3.6-1.2,7.3-1.6,10.9C77.4,196.9,77.3,200.5,77.1,204.1z"/>
	<path class="st0" d="M193.5,160.5c0-10.1,0-20.1,0-30.2c0-5,0.1-10.1,0.1-15.1c0-4.4,1.4-8.4,4.8-11.4c3.8-3.4,8.3-4.4,13.2-2.8
		c4.9,1.6,8,5.1,9.1,10.2c0.3,1.7,0.4,3.5,0.4,5.2c0,26.9,0,53.9-0.1,80.8c0,3.1,1.1,5.5,3.2,7.6c16.6,16.5,33.2,33.1,49.7,49.6
		c3.5,3.5,5.2,7.7,4.3,12.8c-1.3,7.7-11.1,14.8-20.3,9c-2-1.3-3.8-2.9-5.5-4.6c-17.9-17.8-35.7-35.7-53.6-53.5
		c-3.3-3.3-5.2-7.1-5.3-11.7c-0.1-5.8-0.1-11.7-0.1-17.5C193.5,179.6,193.5,170,193.5,160.5z"/>
</g>
</svg>
