<?xml version="1.0" encoding="utf-8"?>
<!-- Generator: Adobe Illustrator 24.1.2, SVG Export Plug-In . SVG Version: 6.00 Build 0)  -->
<svg version="1.1" id="Camada_1" xmlns="http://www.w3.org/2000/svg" xmlns:xlink="http://www.w3.org/1999/xlink" x="0px" y="0px"
	 viewBox="0 0 313 310.7" style="enable-background:new 0 0 313 310.7;" xml:space="preserve">
<style type="text/css">
	.st0{fill:#007AC0;}
</style>
<path class="st0" d="M196.3,310.7c-0.4,0-0.8-0.1-1.2-0.3c-0.7-0.4-1.2-1.2-1.2-2V180.7c0-0.8,0.5-1.6,1.2-2l114.3-66.1
	c0.7-0.4,1.6-0.4,2.4,0c0.7,0.4,1.2,1.2,1.2,2v127.7c0,0.8-0.4,1.6-1.2,2l-114.3,66C197.1,310.6,196.7,310.7,196.3,310.7
	L196.3,310.7z M198.7,182.1v122.2L308.3,241V118.7L198.7,182.1L198.7,182.1z"/>
<path class="st0" d="M165.3,165.1c-0.4,0-0.8-0.1-1.2-0.3l-7.5-4.3c-0.7-0.4-1.2-1.2-1.2-2c0-0.8,0.4-1.6,1.2-2l114.6-66
	c0.7-0.4,1.6-0.4,2.4,0l7.3,4.3c0.7,0.4,1.2,1.2,1.2,2c0,0.8-0.5,1.6-1.2,2l-114.3,66C166.1,165,165.7,165.1,165.3,165.1
	L165.3,165.1z M162.5,158.4l2.8,1.6L275,96.6l-2.6-1.6L162.5,158.4L162.5,158.4z"/>
<path class="st0" d="M165,292.6c-0.4,0-0.8-0.1-1.2-0.3l-7.3-4.3c-0.7-0.4-1.2-1.2-1.2-2V158.4c0-0.8,0.4-1.6,1.2-2
	c0.7-0.4,1.6-0.4,2.4,0l7.5,4.3c0.7,0.4,1.2,1.2,1.2,2l-0.3,127.6c0,0.8-0.5,1.6-1.2,2C165.8,292.5,165.4,292.6,165,292.6L165,292.6
	z M160.1,284.6l2.6,1.5l0.3-122.1l-2.8-1.6V284.6L160.1,284.6z"/>
<path class="st0" d="M134,147.1c-0.4,0-0.8-0.1-1.2-0.3l-7.3-4.3c-0.7-0.4-1.2-1.2-1.2-2c0-0.8,0.5-1.6,1.2-2l114.3-66
	c0.7-0.4,1.6-0.4,2.3,0l7.6,4.3c0.7,0.4,1.2,1.2,1.2,2c0,0.8-0.5,1.6-1.2,2l-114.6,66C134.8,147,134.4,147.1,134,147.1L134,147.1z
	 M131.4,140.4l2.6,1.6l109.9-63.3l-2.8-1.6L131.4,140.4L131.4,140.4z"/>
<path class="st0" d="M134,274.7c-0.4,0-0.8-0.1-1.2-0.3l-7.3-4.4c-0.7-0.4-1.1-1.2-1.1-2V140.4c0-0.9,0.5-1.6,1.2-2
	c0.7-0.4,1.6-0.4,2.4,0l7.3,4.3c0.7,0.4,1.1,1.2,1.1,2v127.6c0,0.8-0.5,1.6-1.2,2.1C134.8,274.6,134.4,274.7,134,274.7L134,274.7z
	 M129.1,266.6l2.6,1.5V146l-2.6-1.5V266.6L129.1,266.6z"/>
<path class="st0" d="M103,129.1c-0.4,0-0.8-0.1-1.2-0.3l-7.3-4.3c-0.7-0.4-1.2-1.2-1.1-2c0-0.8,0.5-1.6,1.2-2l114.3-66
	c0.7-0.4,1.6-0.4,2.4,0l7.3,4.3c0.7,0.4,1.2,1.2,1.2,2c0,0.8-0.5,1.6-1.2,2l-114.3,66C103.8,129,103.4,129.1,103,129.1L103,129.1z
	 M100.4,122.5l2.6,1.6l109.6-63.4l-2.6-1.6L100.4,122.5L100.4,122.5z"/>
<path class="st0" d="M102.7,256.7c-0.4,0-0.8-0.1-1.2-0.3l-7.3-4.3c-0.7-0.4-1.2-1.2-1.2-2l0.3-127.6c0-0.8,0.5-1.6,1.2-2
	c0.7-0.4,1.6-0.4,2.4,0l7.3,4.3c0.7,0.4,1.2,1.2,1.2,2l-0.3,127.6c0,0.8-0.5,1.6-1.2,2C103.5,256.6,103.1,256.7,102.7,256.7
	L102.7,256.7z M97.8,248.7l2.6,1.5l0.3-122.1l-2.6-1.5L97.8,248.7L97.8,248.7z"/>
<path class="st0" d="M71.9,111.1c-0.4,0-0.8-0.1-1.2-0.3l-7.5-4.3c-0.7-0.4-1.2-1.2-1.2-2c0-0.8,0.5-1.6,1.2-2l114.6-66
	c0.7-0.4,1.6-0.4,2.4,0l7.3,4.3c0.7,0.4,1.2,1.2,1.2,2c0,0.8-0.5,1.6-1.2,2l-114.3,66C72.8,111,72.4,111.1,71.9,111.1L71.9,111.1z
	 M69.1,104.4l2.8,1.6l109.7-63.3l-2.6-1.6L69.1,104.4L69.1,104.4z"/>
<path class="st0" d="M71.7,238.7c-0.4,0-0.8-0.1-1.2-0.3l-7.3-4.4c-0.7-0.4-1.1-1.2-1.1-2V104.4c0-0.8,0.4-1.6,1.2-2
	c0.7-0.4,1.6-0.4,2.4,0l7.5,4.3c0.7,0.4,1.2,1.2,1.2,2L74,236.4c0,0.8-0.5,1.6-1.2,2C72.5,238.6,72.1,238.7,71.7,238.7L71.7,238.7z
	 M66.8,230.7l2.6,1.5l0.3-122.1l-2.8-1.6V230.7L66.8,230.7z"/>
<path class="st0" d="M40.6,93.1c-0.4,0-0.8-0.1-1.2-0.3l-7.3-4.3c-0.7-0.4-1.2-1.2-1.2-2c0-0.8,0.5-1.6,1.2-2l114.3-66
	c0.7-0.4,1.6-0.4,2.4,0l7.3,4.3c0.7,0.4,1.2,1.2,1.2,2c0,0.8-0.5,1.6-1.2,2l-114.3,66C41.5,93,41.1,93.1,40.6,93.1L40.6,93.1z
	 M38,86.5l2.6,1.6l109.6-63.3l-2.6-1.5L38,86.5L38,86.5z"/>
<path class="st0" d="M40.6,220.7c-0.4,0-0.8-0.1-1.2-0.3l-7.3-4.3c-0.7-0.4-1.2-1.2-1.2-2V86.4c0-0.8,0.5-1.6,1.2-2
	c0.7-0.4,1.6-0.4,2.4,0l7.3,4.3c0.7,0.4,1.2,1.2,1.2,2v127.6c0,0.8-0.5,1.6-1.2,2C41.4,220.6,41,220.7,40.6,220.7L40.6,220.7z
	 M35.7,212.7l2.6,1.5V92.1l-2.6-1.5V212.7L35.7,212.7z"/>
<path class="st0" d="M196.3,183.1c-0.4,0-0.8-0.1-1.2-0.3l-7.3-4.4c-0.7-0.4-1.1-1.2-1.1-2c0-0.8,0.5-1.6,1.2-2l114.3-66
	c0.7-0.4,1.6-0.4,2.4,0l7.3,4.3c0.7,0.4,1.2,1.2,1.2,2c0,0.8-0.5,1.6-1.2,2l-114.3,66C197.1,183,196.7,183.1,196.3,183.1
	L196.3,183.1z M193.7,176.4l2.7,1.6L306,114.6l-2.6-1.5L193.7,176.4L193.7,176.4z"/>
<path class="st0" d="M196.3,310.6c-0.4,0-0.8-0.1-1.2-0.3l-7.3-4.3c-0.7-0.4-1.2-1.2-1.2-2V176.3c0-0.8,0.5-1.6,1.2-2
	c0.7-0.4,1.6-0.4,2.4,0l7.3,4.4c0.7,0.4,1.1,1.2,1.1,2v127.6c0,0.8-0.5,1.6-1.2,2C197.1,310.5,196.7,310.6,196.3,310.6L196.3,310.6z
	 M191.4,302.6l2.6,1.5V182l-2.6-1.5V302.6L191.4,302.6z"/>
<path class="st0" d="M9.6,75c-0.4,0-0.8-0.1-1.2-0.3l-7.3-4.3c-0.7-0.4-1.2-1.2-1.1-2c0-0.8,0.5-1.6,1.2-2l114.3-66
	c0.7-0.4,1.6-0.4,2.4,0l7.3,4.3c0.7,0.4,1.2,1.2,1.1,2c0,0.8-0.5,1.6-1.2,2l-114.3,66C10.4,74.9,10,75,9.6,75L9.6,75z M7,68.4
	l2.6,1.6L119.3,6.7l-2.6-1.6L7,68.4L7,68.4z"/>
<path class="st0" d="M9.6,202.6c-0.4,0-0.8-0.1-1.2-0.3l-7.3-4.3c-0.7-0.4-1.1-1.2-1.1-2V68.3c0-0.8,0.5-1.6,1.2-2
	c0.7-0.4,1.6-0.4,2.4,0l7.3,4.3c0.7,0.4,1.2,1.2,1.2,2v127.6c0,0.8-0.5,1.6-1.2,2C10.4,202.5,10,202.6,9.6,202.6L9.6,202.6z
	 M4.7,194.6l2.6,1.5V74l-2.6-1.5V194.6L4.7,194.6z"/>
<path class="st0" d="M205,295.8c-0.4,0-0.8-0.1-1.2-0.3c-0.7-0.4-1.2-1.2-1.2-2l0.3-108c0-0.8,0.5-1.6,1.2-2l96.7-55.9
	c0.7-0.4,1.6-0.4,2.4,0c0.7,0.4,1.2,1.2,1.2,2l-0.3,108.1c0,0.8-0.5,1.6-1.2,2l-96.7,55.8C205.8,295.7,205.4,295.8,205,295.8
	L205,295.8z M207.6,186.8l-0.3,102.5l92-53.1l0.3-102.6L207.6,186.8L207.6,186.8z"/>
<path class="st0" d="M262.9,172.4c-0.8,0-1.6-0.4-2-1.2c-0.6-1.1-0.3-2.6,0.9-3.2l28.5-16.5c1.1-0.6,2.6-0.3,3.2,0.9
	c0.7,1.1,0.3,2.6-0.9,3.2L264,172.1C263.7,172.3,263.3,172.4,262.9,172.4L262.9,172.4z"/>
<path class="st0" d="M262.9,247.9c-0.8,0-1.6-0.4-2-1.2c-0.6-1.1-0.3-2.6,0.9-3.2l28.5-16.5c1.1-0.7,2.6-0.3,3.2,0.9
	c0.7,1.1,0.3,2.6-0.9,3.2L264,247.6C263.7,247.8,263.3,247.9,262.9,247.9L262.9,247.9z"/>
<path class="st0" d="M262.9,229c-0.8,0-1.6-0.4-2-1.2c-0.7-1.1-0.3-2.6,0.9-3.2l28.5-16.6c1.1-0.6,2.6-0.3,3.2,0.9
	c0.7,1.1,0.3,2.6-0.9,3.2L264,228.7C263.7,228.9,263.3,229,262.9,229L262.9,229z"/>
<path class="st0" d="M262.9,210.2c-0.8,0-1.6-0.4-2-1.2c-0.6-1.1-0.3-2.6,0.9-3.2l28.5-16.5c1.1-0.7,2.6-0.3,3.2,0.9
	c0.7,1.1,0.3,2.6-0.9,3.2L264,209.9C263.7,210.1,263.3,210.2,262.9,210.2L262.9,210.2z"/>
<path class="st0" d="M262.9,191.3c-0.8,0-1.6-0.4-2-1.2c-0.6-1.1-0.3-2.6,0.9-3.2l28.5-16.5c1.1-0.6,2.6-0.3,3.2,0.9
	c0.7,1.1,0.3,2.6-0.9,3.2L264,191C263.7,191.2,263.3,191.3,262.9,191.3L262.9,191.3z"/>
<path class="st0" d="M215.3,199.9c-0.8,0-1.6-0.4-2-1.2c-0.7-1.1-0.3-2.6,0.9-3.2l30.5-17.6c1.1-0.6,2.6-0.3,3.2,0.9
	c0.7,1.1,0.3,2.6-0.9,3.2l-30.5,17.6C216.1,199.8,215.7,199.9,215.3,199.9L215.3,199.9z"/>
<path class="st0" d="M215.3,275.3c-0.8,0-1.6-0.4-2-1.2c-0.7-1.1-0.3-2.6,0.9-3.2l30.5-17.6c1.1-0.6,2.6-0.3,3.2,0.9
	c0.6,1.1,0.3,2.6-0.9,3.2L216.5,275C216.1,275.2,215.7,275.3,215.3,275.3L215.3,275.3z"/>
<path class="st0" d="M215.3,218.8c-0.8,0-1.6-0.4-2-1.2c-0.7-1.1-0.3-2.6,0.9-3.2l30.5-17.7c1.1-0.7,2.6-0.3,3.2,0.8
	c0.7,1.1,0.3,2.6-0.9,3.2l-30.5,17.7C216.1,218.6,215.7,218.8,215.3,218.8L215.3,218.8z"/>
<path class="st0" d="M215.3,256.4c-0.8,0-1.6-0.4-2-1.2c-0.7-1.1-0.3-2.6,0.9-3.2l30.5-17.6c1.1-0.6,2.6-0.3,3.2,0.9
	c0.6,1.1,0.3,2.6-0.9,3.2l-30.5,17.6C216.1,256.3,215.7,256.4,215.3,256.4L215.3,256.4z"/>
<path class="st0" d="M215.3,237.6c-0.8,0-1.6-0.4-2-1.2c-0.7-1.1-0.3-2.6,0.9-3.2l30.5-17.7c1.1-0.7,2.6-0.3,3.2,0.9
	c0.7,1.1,0.3,2.6-0.9,3.2l-30.5,17.7C216.1,237.5,215.7,237.6,215.3,237.6L215.3,237.6z"/>
<path class="st0" d="M253.6,267.8c-1.3,0-2.4-1.1-2.4-2.4V157.5c0-1.3,1.1-2.4,2.4-2.4c1.3,0,2.4,1.1,2.4,2.4v107.9
	C256,266.7,254.9,267.8,253.6,267.8L253.6,267.8z"/>
<path class="st0" d="M196.3,310.7c-0.4,0-0.8-0.1-1.2-0.3c-0.2-0.1-0.3-0.2-0.5-0.4l-6.8-4c-0.7-0.4-1.1-1.1-1.2-1.9l-0.2-3.2
	l-17.6-10.2l-2.7,1.6c-0.7,0.4-1.7,0.4-2.4,0l-7.3-4.3c-0.7-0.4-1.2-1.2-1.2-2v-3.1l-17.5-10.1l-2.7,1.6c-0.7,0.4-1.7,0.4-2.4,0
	l-7.3-4.4c-0.7-0.4-1.1-1.2-1.1-2v-3l-17.5-10.2l-3,1.6c-0.7,0.4-1.6,0.4-2.3,0l-7.3-4.3c-0.7-0.4-1.2-1.2-1.2-2v-3.1l-17.5-10.1
	l-2.7,1.6c-0.7,0.4-1.7,0.4-2.4,0l-7.3-4.4c-0.7-0.4-1.1-1.2-1.1-2v-3.1l-17.5-10.2l-2.7,1.6c-0.7,0.4-1.7,0.4-2.4,0l-7.3-4.3
	c-0.7-0.4-1.2-1.2-1.2-2v-3.1l-17.5-10.2l-2.7,1.6c-0.7,0.4-1.6,0.4-2.4,0l-7.3-4.3c-0.7-0.4-1.1-1.2-1.1-2V68.3
	c0-0.8,0.4-1.6,1.2-2l114.3-66c0.7-0.4,1.6-0.4,2.4,0l7.3,4.3c0.7,0.4,1.1,1.2,1.1,2v3.2L143.8,20l2.7-1.6c0.7-0.4,1.7-0.4,2.4,0
	l7.3,4.3c0.7,0.4,1.2,1.2,1.2,2v3.2l17.5,10.2l3-1.7c0.7-0.4,1.6-0.4,2.4,0l7.3,4.3c0.7,0.4,1.2,1.2,1.2,2v3.2l17.2,10.1l3-1.7
	c0.7-0.4,1.6-0.4,2.4,0l7.3,4.3c0.7,0.4,1.2,1.2,1.2,2v3.1L237.1,74l2.7-1.6c0.7-0.4,1.6-0.4,2.4,0l7.6,4.3c0.7,0.4,1.2,1.2,1.2,2
	v3.2L268.2,92l3-1.7c0.7-0.4,1.6-0.4,2.4,0l7.3,4.3c0.7,0.4,1.2,1.2,1.2,2v3.2l17.5,10.2l2.7-1.6c0.7-0.5,1.7-0.5,2.4,0l7.3,4.3
	c0.7,0.4,1.2,1.2,1.2,2v127.7c0,0.8-0.4,1.6-1.2,2l-114.3,66C197.1,310.6,196.7,310.7,196.3,310.7L196.3,310.7z M191.3,302.6l5.1,3
	L308.3,241V116l-4.9-2.9l-2.7,1.6c-0.7,0.4-1.7,0.5-2.4,0l-19.8-11.5c-0.7-0.4-1.2-1.2-1.2-2V98l-4.9-2.9l-3,1.7
	c-0.7,0.4-1.6,0.4-2.4,0l-19.6-11.5c-0.7-0.4-1.2-1.2-1.2-2v-3.2l-5.2-3l-2.7,1.6c-0.7,0.4-1.7,0.5-2.4,0l-19.8-11.5
	c-0.7-0.4-1.2-1.2-1.2-2v-3.2l-4.9-2.9l-3,1.7c-0.7,0.4-1.6,0.4-2.4,0l-19.6-11.5c-0.7-0.4-1.2-1.2-1.2-2v-3.2l-4.9-3l-3,1.7
	c-0.7,0.4-1.6,0.4-2.3,0l-19.8-11.6c-0.7-0.4-1.2-1.2-1.2-2V26l-4.9-2.9l-2.7,1.6c-0.7,0.4-1.6,0.4-2.4,0l-19.8-11.5
	c-0.7-0.4-1.2-1.2-1.2-2V8l-4.9-2.9L4.7,69.7v124.9l4.9,2.9l2.7-1.6c0.7-0.4,1.6-0.4,2.4,0l19.9,11.5c0.7,0.4,1.2,1.2,1.2,2v3.2
	l4.9,2.9l2.7-1.6c0.7-0.4,1.7-0.4,2.4,0l19.9,11.6c0.7,0.4,1.2,1.2,1.2,2v3.1l4.9,3l2.7-1.6c0.7-0.4,1.6-0.4,2.4,0l19.8,11.5
	c0.7,0.4,1.2,1.2,1.2,2v3.1l5,2.9l3-1.6c0.7-0.4,1.6-0.4,2.3,0l19.8,11.5c0.7,0.4,1.2,1.2,1.2,2v3.1l4.9,3l2.7-1.6
	c0.7-0.4,1.6-0.4,2.4,0l19.8,11.5c0.7,0.4,1.2,1.2,1.2,2v3.1l4.9,2.9l2.7-1.6c0.7-0.4,1.6-0.4,2.4,0l19.8,11.5
	c0.7,0.4,1.1,1.1,1.2,1.9L191.3,302.6L191.3,302.6z"/>
<path class="st0" d="M196.6,182.9c-0.4,0-0.8-0.1-1.2-0.3l-7.3-4.3l-23.7-13.7l-7.5-4.2l-23.8-13.7l-7.3-4.3l-23.7-13.7l-7.5-4.2
	L71,110.7l-7.5-4.2L39.7,92.7l-7.5-4.2L8.7,74.8c-1.1-0.7-1.5-2.1-0.8-3.2c0.7-1.1,2.1-1.5,3.2-0.8l23.5,13.7l7.5,4.2l23.8,13.8
	l7.5,4.2l23.5,13.7l7.5,4.2l23.8,13.7l7.3,4.3l23.7,13.7l7.5,4.2l23.8,13.7l7.3,4.3c1.1,0.7,1.5,2.1,0.8,3.2
	C198.2,182.5,197.4,182.9,196.6,182.9L196.6,182.9z"/>
<path class="st0" d="M182.1,294c-0.2,0-0.5-0.1-0.6-0.3l-15.1-26c-0.2-0.3-0.1-0.7,0.2-0.9c0.3-0.2,0.7-0.1,0.9,0.2l15.1,26
	c0.2,0.3,0.1,0.7-0.2,0.9C182.3,294,182.2,294,182.1,294L182.1,294z"/>
<path class="st0" d="M187.4,277.1c-0.2,0-0.5-0.1-0.6-0.3l-20.4-35.3c-0.2-0.3-0.1-0.7,0.2-0.9c0.3-0.2,0.7-0.1,0.9,0.2l20.4,35.3
	c0.2,0.3,0.1,0.7-0.2,0.9C187.6,277.1,187.5,277.1,187.4,277.1L187.4,277.1z"/>
<path class="st0" d="M187.4,251.2c-0.2,0-0.5-0.1-0.6-0.3l-20.4-35.3c-0.2-0.3-0.1-0.7,0.2-0.9c0.3-0.2,0.7-0.1,0.9,0.2l20.4,35.3
	c0.2,0.3,0.1,0.7-0.2,0.9C187.6,251.2,187.5,251.2,187.4,251.2L187.4,251.2z"/>
<path class="st0" d="M187.4,225.7c-0.2,0-0.5-0.1-0.6-0.3l-20.4-35.3c-0.2-0.3-0.1-0.7,0.2-0.9c0.3-0.2,0.7-0.1,0.9,0.2l20.4,35.3
	c0.2,0.3,0.1,0.7-0.2,0.9C187.6,225.7,187.5,225.7,187.4,225.7L187.4,225.7z"/>
<path class="st0" d="M187.4,199.8c-0.2,0-0.5-0.1-0.6-0.3l-19-33c-0.2-0.3-0.1-0.7,0.2-0.9c0.3-0.2,0.7-0.1,0.9,0.2l19,33
	c0.2,0.3,0.1,0.7-0.2,0.9C187.6,199.7,187.5,199.8,187.4,199.8L187.4,199.8z"/>
<path class="st0" d="M151.1,276.1c-0.2,0-0.5-0.1-0.6-0.3l-15.1-26.4c-0.2-0.3-0.1-0.7,0.2-0.9c0.3-0.2,0.7-0.1,0.9,0.2l15.1,26.4
	c0.2,0.3,0.1,0.7-0.2,0.9C151.3,276.1,151.2,276.1,151.1,276.1L151.1,276.1z"/>
<path class="st0" d="M156.1,258.9c-0.2,0-0.5-0.1-0.6-0.3l-20.4-35.4c-0.2-0.3-0.1-0.7,0.2-0.9c0.3-0.2,0.7-0.1,0.9,0.2l20.4,35.4
	c0.2,0.3,0.1,0.7-0.2,0.9C156.3,258.8,156.2,258.9,156.1,258.9L156.1,258.9z"/>
<path class="st0" d="M156.1,233.2c-0.2,0-0.5-0.1-0.6-0.3l-20.4-35.3c-0.2-0.3-0.1-0.7,0.2-0.9c0.3-0.2,0.7-0.1,0.9,0.2l20.4,35.3
	c0.2,0.3,0.1,0.7-0.2,0.9C156.3,233.2,156.2,233.2,156.1,233.2L156.1,233.2z"/>
<path class="st0" d="M156.1,207.3c-0.2,0-0.5-0.1-0.6-0.3l-20.4-35.4c-0.2-0.3-0.1-0.7,0.2-0.9c0.3-0.2,0.7-0.1,0.9,0.2l20.4,35.4
	c0.2,0.3,0.1,0.7-0.2,0.9C156.3,207.3,156.2,207.3,156.1,207.3L156.1,207.3z"/>
<path class="st0" d="M156.1,181.2c-0.2,0-0.5-0.1-0.6-0.3l-18.4-32.1c-0.2-0.3-0.1-0.7,0.2-0.9c0.3-0.2,0.7-0.1,0.9,0.2l18.4,32.1
	c0.2,0.3,0.1,0.7-0.2,0.9C156.3,181.2,156.2,181.2,156.1,181.2L156.1,181.2z"/>
<path class="st0" d="M120.3,258.5c-0.2,0-0.5-0.1-0.6-0.3l-15.7-27.4c-0.2-0.3-0.1-0.7,0.2-0.9c0.3-0.2,0.7-0.1,0.9,0.2l15.7,27.4
	c0.2,0.3,0.1,0.7-0.2,0.9C120.5,258.5,120.4,258.5,120.3,258.5L120.3,258.5z"/>
<path class="st0" d="M125.1,240.2c-0.2,0-0.5-0.1-0.6-0.3l-20.4-35.3c-0.2-0.3-0.1-0.7,0.2-0.9c0.3-0.2,0.7-0.1,0.9,0.2l20.4,35.3
	c0.2,0.3,0.1,0.7-0.2,0.9C125.3,240.2,125.2,240.2,125.1,240.2L125.1,240.2z"/>
<path class="st0" d="M125.1,214.4c-0.2,0-0.5-0.1-0.6-0.3l-20.4-35.3c-0.2-0.3-0.1-0.7,0.2-0.9c0.3-0.2,0.7-0.1,0.9,0.2l20.4,35.3
	c0.2,0.3,0.1,0.7-0.2,0.9C125.3,214.4,125.2,214.4,125.1,214.4L125.1,214.4z"/>
<path class="st0" d="M125.1,188.9c-0.2,0-0.5-0.1-0.6-0.3l-20.4-35.3c-0.2-0.3-0.1-0.7,0.2-0.9c0.3-0.2,0.7-0.1,0.9,0.2l20.4,35.3
	c0.2,0.3,0.1,0.7-0.2,0.9C125.3,188.9,125.2,188.9,125.1,188.9L125.1,188.9z"/>
<path class="st0" d="M125.1,162.9c-0.2,0-0.5-0.1-0.6-0.3L106.3,131c-0.2-0.3-0.1-0.7,0.2-0.9c0.3-0.2,0.7-0.1,0.9,0.2l18.2,31.6
	c0.2,0.3,0.1,0.7-0.2,0.9C125.3,162.9,125.2,162.9,125.1,162.9L125.1,162.9z"/>
<path class="st0" d="M89,240.4c-0.2,0-0.5-0.1-0.6-0.3l-15.4-26.8c-0.2-0.3-0.1-0.7,0.2-0.9c0.3-0.2,0.7-0.1,0.9,0.2l15.4,26.8
	c0.2,0.3,0.1,0.7-0.2,0.9C89.2,240.4,89.1,240.4,89,240.4L89,240.4z"/>
<path class="st0" d="M93.8,223c-0.2,0-0.5-0.1-0.6-0.3l-20.1-35.3c-0.2-0.3-0.1-0.7,0.2-0.9c0.3-0.2,0.7-0.1,0.9,0.2L94.3,222
	c0.2,0.3,0.1,0.7-0.2,0.9C94,223,93.9,223,93.8,223L93.8,223z"/>
<path class="st0" d="M94,197.2c-0.2,0-0.5-0.1-0.6-0.3l-20.4-35.4c-0.2-0.3-0.1-0.7,0.2-0.9c0.3-0.2,0.7-0.1,0.9,0.2l20.4,35.4
	c0.2,0.3,0.1,0.7-0.2,0.9C94.3,197.2,94.1,197.2,94,197.2L94,197.2z"/>
<path class="st0" d="M94,171.3c-0.2,0-0.5-0.1-0.6-0.3l-20.4-35.3c-0.2-0.3-0.1-0.7,0.2-0.9c0.3-0.2,0.7-0.1,0.9,0.2l20.4,35.3
	c0.2,0.3,0.1,0.7-0.2,0.9C94.3,171.2,94.1,171.3,94,171.3L94,171.3z"/>
<path class="st0" d="M94,145.7c-0.2,0-0.5-0.1-0.6-0.3l-19-32.7c-0.2-0.3-0.1-0.7,0.2-0.9c0.3-0.2,0.7-0.1,0.9,0.2l19,32.7
	c0.2,0.3,0.1,0.7-0.2,0.9C94.3,145.7,94.1,145.7,94,145.7L94,145.7z"/>
<path class="st0" d="M58.3,222.4c-0.2,0-0.5-0.1-0.6-0.3L42,194.9c-0.2-0.3-0.1-0.7,0.2-0.9c0.3-0.2,0.7-0.1,0.9,0.2l15.7,27.3
	c0.2,0.3,0.1,0.7-0.2,0.9C58.5,222.4,58.4,222.4,58.3,222.4L58.3,222.4z"/>
<path class="st0" d="M62.7,204.3c-0.2,0-0.5-0.1-0.6-0.3l-20.4-35.4c-0.2-0.3-0.1-0.7,0.2-0.9c0.3-0.2,0.7-0.1,0.9,0.2l20.4,35.4
	c0.2,0.3,0.1,0.7-0.2,0.9C63,204.3,62.8,204.3,62.7,204.3L62.7,204.3z"/>
<path class="st0" d="M62.7,178.7c-0.2,0-0.5-0.1-0.6-0.3L41.7,143c-0.2-0.3-0.1-0.7,0.2-0.9c0.3-0.2,0.7-0.1,0.9,0.2l20.4,35.4
	c0.2,0.3,0.1,0.7-0.2,0.9C63,178.7,62.8,178.7,62.7,178.7L62.7,178.7z"/>
<path class="st0" d="M62.7,152.8c-0.2,0-0.5-0.1-0.6-0.3l-20.4-35.4c-0.2-0.3-0.1-0.7,0.2-0.9c0.3-0.2,0.7-0.1,0.9,0.2l20.4,35.4
	c0.2,0.3,0.1,0.7-0.2,0.9C63,152.8,62.8,152.8,62.7,152.8L62.7,152.8z"/>
<path class="st0" d="M62.7,126.6c-0.2,0-0.5-0.1-0.6-0.3l-17.9-31c-0.2-0.3-0.1-0.7,0.2-0.9c0.3-0.2,0.7-0.1,0.9,0.2l17.9,31
	c0.2,0.3,0.1,0.7-0.2,0.9C63,126.6,62.8,126.6,62.7,126.6L62.7,126.6z"/>
<path class="st0" d="M38.4,202.4c-0.2,0-0.4-0.1-0.6-0.3l-2.8-4.7c-0.2-0.3-0.1-0.7,0.2-0.9c0.3-0.2,0.7-0.1,0.9,0.2l2.8,4.7
	c0.2,0.3,0.1,0.7-0.2,0.9C38.6,202.4,38.5,202.4,38.4,202.4L38.4,202.4z"/>
<path class="st0" d="M38.4,176.5c-0.2,0-0.4-0.1-0.6-0.3l-2.8-4.7c-0.2-0.3-0.1-0.7,0.2-0.9c0.3-0.2,0.7-0.1,0.9,0.2l2.8,4.7
	c0.2,0.3,0.1,0.7-0.2,0.9C38.6,176.5,38.5,176.5,38.4,176.5L38.4,176.5z"/>
<path class="st0" d="M38.4,150.8c-0.2,0-0.4-0.1-0.6-0.3l-2.8-4.7c-0.2-0.3-0.1-0.7,0.2-0.9c0.3-0.2,0.7-0.1,0.9,0.2l2.8,4.7
	c0.2,0.3,0.1,0.7-0.2,0.9C38.6,150.8,38.5,150.8,38.4,150.8L38.4,150.8z"/>
<path class="st0" d="M38.4,125c-0.2,0-0.4-0.1-0.6-0.3l-2.8-4.6c-0.2-0.3-0.1-0.7,0.2-0.9c0.3-0.2,0.7-0.1,0.9,0.2L39,124
	c0.2,0.3,0.1,0.7-0.2,0.9C38.6,125,38.5,125,38.4,125L38.4,125z"/>
<path class="st0" d="M38.4,99.4c-0.2,0-0.5-0.1-0.6-0.3l-2.5-4.6c-0.2-0.3-0.1-0.7,0.3-0.9c0.3-0.2,0.7-0.1,0.9,0.3l2.5,4.6
	c0.2,0.3,0.1,0.7-0.3,0.9C38.6,99.4,38.5,99.4,38.4,99.4L38.4,99.4z"/>
<path class="st0" d="M27.2,204.4c-0.2,0-0.5-0.1-0.6-0.3L11,176.7c-0.2-0.3-0.1-0.7,0.2-0.9c0.3-0.2,0.7-0.1,0.9,0.2l15.6,27.5
	c0.2,0.3,0.1,0.7-0.2,0.9C27.5,204.4,27.3,204.4,27.2,204.4L27.2,204.4z"/>
<path class="st0" d="M31.7,186.2c-0.2,0-0.5-0.1-0.6-0.3l-20.4-35.4c-0.2-0.3-0.1-0.7,0.2-0.9c0.3-0.2,0.7-0.1,0.9,0.2l20.4,35.4
	c0.2,0.3,0.1,0.7-0.2,0.9C31.9,186.1,31.8,186.2,31.7,186.2L31.7,186.2z"/>
<path class="st0" d="M31.7,160.6c-0.2,0-0.5-0.1-0.6-0.3l-20.4-35.4c-0.2-0.3-0.1-0.7,0.2-0.9c0.3-0.2,0.7-0.1,0.9,0.2l20.4,35.4
	c0.2,0.3,0.1,0.7-0.2,0.9C31.9,160.5,31.8,160.6,31.7,160.6L31.7,160.6z"/>
<path class="st0" d="M31.7,134.6c-0.2,0-0.5-0.1-0.6-0.3L10.7,98.9c-0.2-0.3-0.1-0.7,0.2-0.9c0.3-0.2,0.7-0.1,0.9,0.2l20.4,35.3
	c0.2,0.3,0.1,0.7-0.2,0.9C31.9,134.6,31.8,134.6,31.7,134.6L31.7,134.6z"/>
<path class="st0" d="M31.7,108.9c-0.2,0-0.5-0.1-0.6-0.3L13,77.3c-0.2-0.3-0.1-0.7,0.2-0.9c0.3-0.2,0.7-0.1,0.9,0.2l18.2,31.2
	c0.2,0.3,0.1,0.7-0.2,0.9C31.9,108.8,31.8,108.9,31.7,108.9L31.7,108.9z"/>
<path class="st0" d="M7.4,183.8c-0.2,0-0.4-0.1-0.6-0.3L4,178.9c-0.2-0.3-0.1-0.7,0.2-0.9c0.3-0.2,0.7-0.1,0.9,0.2l2.8,4.6
	c0.2,0.3,0.1,0.7-0.2,0.9C7.6,183.8,7.5,183.8,7.4,183.8L7.4,183.8z"/>
<path class="st0" d="M7.4,158.3c-0.2,0-0.5-0.1-0.6-0.3L4,153.3c-0.2-0.3-0.1-0.7,0.2-0.9c0.3-0.2,0.7-0.1,0.9,0.2l2.8,4.7
	c0.2,0.3,0.1,0.7-0.2,0.9C7.6,158.2,7.5,158.3,7.4,158.3L7.4,158.3z"/>
<path class="st0" d="M7.4,132.5c-0.2,0-0.5-0.1-0.6-0.3L4,127.6c-0.2-0.3-0.1-0.7,0.2-0.9c0.3-0.2,0.7-0.1,0.9,0.2l2.8,4.7
	c0.2,0.3,0.1,0.7-0.2,0.9C7.6,132.5,7.5,132.5,7.4,132.5L7.4,132.5z"/>
<path class="st0" d="M7.4,106.7c-0.2,0-0.4-0.1-0.6-0.3L4,101.8c-0.2-0.3-0.1-0.7,0.2-0.9c0.3-0.2,0.7-0.1,0.9,0.2l2.8,4.6
	c0.2,0.3,0.1,0.7-0.2,0.9C7.6,106.7,7.5,106.7,7.4,106.7L7.4,106.7z"/>
<path class="st0" d="M7.4,80.8c-0.2,0-0.5-0.1-0.6-0.3l-2.5-4.6c-0.2-0.3-0.1-0.7,0.3-0.9c0.3-0.2,0.7-0.1,0.9,0.3L8,79.9
	c0.2,0.3,0.1,0.7-0.3,0.9C7.6,80.8,7.5,80.8,7.4,80.8L7.4,80.8z"/>
<path class="st0" d="M138.5,32.3c-0.1,0-0.2,0-0.4-0.1c-0.3-0.2-0.4-0.6-0.2-0.9l3.1-4.8c0.2-0.3,0.6-0.4,0.9-0.2
	c0.3,0.2,0.4,0.6,0.2,0.9l-3.1,4.8C138.9,32.1,138.7,32.3,138.5,32.3L138.5,32.3z"/>
<path class="st0" d="M116.1,45.3c-0.1,0-0.2,0-0.3-0.1c-0.3-0.2-0.4-0.6-0.2-0.9l2.8-4.9c0.2-0.3,0.6-0.4,0.9-0.2
	c0.3,0.2,0.4,0.6,0.2,0.9l-2.8,4.9C116.6,45.2,116.3,45.3,116.1,45.3L116.1,45.3z"/>
<path class="st0" d="M93.5,58.3c-0.1,0-0.2,0-0.3-0.1c-0.3-0.2-0.4-0.6-0.3-0.9l2.8-5c0.2-0.3,0.6-0.4,0.9-0.3
	c0.3,0.2,0.4,0.6,0.3,0.9l-2.8,5C93.9,58.2,93.7,58.3,93.5,58.3L93.5,58.3z"/>
<path class="st0" d="M71.4,71.1c-0.1,0-0.2,0-0.3-0.1c-0.3-0.2-0.4-0.6-0.3-0.9l2.8-5c0.2-0.3,0.6-0.4,0.9-0.3
	c0.3,0.2,0.4,0.6,0.3,0.9l-2.8,5C71.8,71,71.6,71.1,71.4,71.1L71.4,71.1z"/>
<path class="st0" d="M48.7,84.2c-0.1,0-0.2,0-0.3-0.1c-0.3-0.2-0.4-0.6-0.2-0.9l3.1-5.1c0.2-0.3,0.6-0.4,0.9-0.2
	c0.3,0.2,0.4,0.6,0.2,0.9l-3.1,5.1C49.2,84,49,84.2,48.7,84.2L48.7,84.2z"/>
<path class="st0" d="M102.7,45.1c-0.1,0-0.2,0-0.3-0.1c-0.3-0.2-0.4-0.6-0.2-0.9l19.6-33.9c0.2-0.3,0.6-0.4,0.9-0.2
	c0.3,0.2,0.4,0.6,0.2,0.9l-19.6,33.9C103.1,45,102.9,45.1,102.7,45.1L102.7,45.1z"/>
<path class="st0" d="M58,70.9c-0.1,0-0.2,0-0.3-0.1c-0.3-0.2-0.4-0.6-0.2-0.9l20.1-35.2c0.2-0.3,0.6-0.4,0.9-0.2
	c0.3,0.2,0.4,0.6,0.2,0.9L58.6,70.6C58.4,70.8,58.2,70.9,58,70.9L58,70.9z"/>
<path class="st0" d="M23.3,79.2c-0.1,0-0.2,0-0.3-0.1c-0.3-0.2-0.4-0.6-0.2-0.9l10.1-17.1c0.2-0.3,0.6-0.4,0.9-0.2
	c0.3,0.2,0.4,0.6,0.2,0.9L23.9,78.9C23.8,79.1,23.5,79.2,23.3,79.2L23.3,79.2z"/>
<path class="st0" d="M107.2,14.4c-0.1,0-0.2,0-0.3-0.1c-0.3-0.2-0.4-0.6-0.2-0.9l3.1-5.1c0.2-0.3,0.6-0.4,0.9-0.2
	c0.3,0.2,0.4,0.6,0.2,0.9l-3.1,5.1C107.6,14.3,107.4,14.4,107.2,14.4L107.2,14.4z"/>
<path class="st0" d="M84.8,27.4c-0.1,0-0.2,0-0.3-0.1c-0.3-0.2-0.4-0.6-0.3-0.9l2.8-5.1c0.2-0.3,0.6-0.4,0.9-0.3
	c0.3,0.2,0.4,0.6,0.3,0.9L85.4,27C85.3,27.2,85,27.4,84.8,27.4L84.8,27.4z"/>
<path class="st0" d="M62.4,40.3c-0.1,0-0.2,0-0.3-0.1c-0.3-0.2-0.4-0.6-0.3-0.9l2.8-5c0.2-0.3,0.6-0.4,0.9-0.3
	c0.3,0.2,0.4,0.6,0.3,0.9L63,40C62.9,40.2,62.7,40.3,62.4,40.3L62.4,40.3z"/>
<path class="st0" d="M40.1,53.2c-0.1,0-0.2,0-0.3-0.1c-0.3-0.2-0.4-0.6-0.3-0.9l2.8-5c0.2-0.3,0.6-0.4,0.9-0.3
	c0.3,0.2,0.4,0.6,0.3,0.9l-2.8,5C40.5,53.1,40.3,53.2,40.1,53.2L40.1,53.2z"/>
<path class="st0" d="M17.7,66c-0.1,0-0.2,0-0.3-0.1c-0.3-0.2-0.4-0.6-0.3-0.9l2.8-4.9c0.2-0.3,0.6-0.4,0.9-0.2
	c0.3,0.2,0.4,0.6,0.2,0.9l-2.8,4.9C18.2,65.9,18,66,17.7,66L17.7,66z"/>
<path class="st0" d="M133.7,63.2c-0.1,0-0.2,0-0.3-0.1c-0.3-0.2-0.4-0.6-0.2-0.9l19.6-34.2c0.2-0.3,0.6-0.4,0.9-0.2
	c0.3,0.2,0.4,0.6,0.2,0.9l-19.6,34.2C134.2,63.1,133.9,63.2,133.7,63.2L133.7,63.2z"/>
<path class="st0" d="M89,89c-0.1,0-0.2,0-0.3-0.1c-0.3-0.2-0.4-0.6-0.2-0.9l20.4-35.4c0.2-0.3,0.6-0.4,0.9-0.2
	c0.3,0.2,0.4,0.6,0.2,0.9L89.6,88.7C89.5,88.9,89.2,89,89,89L89,89z"/>
<path class="st0" d="M54.6,97.2c-0.1,0-0.2,0-0.3-0.1C54,97,53.9,96.6,54,96.2l9.8-17.2c0.2-0.3,0.6-0.4,0.9-0.2
	c0.3,0.2,0.4,0.6,0.2,0.9l-9.8,17.2C55.1,97.1,54.8,97.2,54.6,97.2L54.6,97.2z"/>
<path class="st0" d="M169.2,50.5c-0.1,0-0.2,0-0.3-0.1c-0.3-0.2-0.4-0.6-0.3-0.9l2.8-5c0.2-0.3,0.6-0.4,0.9-0.3
	c0.3,0.2,0.4,0.6,0.3,0.9l-2.8,5C169.7,50.4,169.4,50.5,169.2,50.5L169.2,50.5z"/>
<path class="st0" d="M146.9,63.5c-0.1,0-0.2,0-0.3-0.1c-0.3-0.2-0.4-0.6-0.3-0.9l2.8-4.9c0.2-0.3,0.6-0.4,0.9-0.2
	c0.3,0.2,0.4,0.6,0.2,0.9l-2.8,4.9C147.3,63.4,147.1,63.5,146.9,63.5L146.9,63.5z"/>
<path class="st0" d="M124.5,76.4c-0.1,0-0.2,0-0.3-0.1c-0.3-0.2-0.4-0.6-0.2-0.9l2.8-4.9c0.2-0.3,0.6-0.4,0.9-0.2
	c0.3,0.2,0.4,0.6,0.2,0.9l-2.8,4.9C124.9,76.3,124.7,76.4,124.5,76.4L124.5,76.4z"/>
<path class="st0" d="M102.1,89.3c-0.1,0-0.2,0-0.3-0.1c-0.3-0.2-0.4-0.6-0.2-0.9l2.8-4.9c0.2-0.3,0.6-0.4,0.9-0.2
	c0.3,0.2,0.4,0.6,0.3,0.9l-2.8,4.9C102.6,89.2,102.4,89.3,102.1,89.3L102.1,89.3z"/>
<path class="st0" d="M79.8,102.2c-0.1,0-0.2,0-0.3-0.1c-0.3-0.2-0.4-0.6-0.2-0.9l2.8-4.9c0.2-0.3,0.6-0.4,0.9-0.2
	c0.3,0.2,0.4,0.6,0.2,0.9l-2.8,4.9C80.2,102.1,80,102.2,79.8,102.2L79.8,102.2z"/>
<path class="st0" d="M69.7,220.1c-0.2,0-0.4-0.1-0.6-0.3l-3.1-5.1c-0.2-0.3-0.1-0.7,0.2-0.9c0.3-0.2,0.7-0.1,0.9,0.2l3.1,5.1
	c0.2,0.3,0.1,0.7-0.2,0.9C69.9,220.1,69.8,220.1,69.7,220.1L69.7,220.1z"/>
<path class="st0" d="M69.7,194.1c-0.2,0-0.4-0.1-0.6-0.3l-3.1-5c-0.2-0.3-0.1-0.7,0.2-0.9c0.3-0.2,0.7-0.1,0.9,0.2l3.1,5
	c0.2,0.3,0.1,0.7-0.2,0.9C70,194.1,69.8,194.1,69.7,194.1L69.7,194.1z"/>
<path class="st0" d="M69.4,168.4c-0.2,0-0.5-0.1-0.6-0.3l-2.8-4.9c-0.2-0.3-0.1-0.7,0.2-0.9c0.3-0.2,0.7-0.1,0.9,0.2l2.8,4.9
	c0.2,0.3,0.1,0.7-0.3,0.9C69.7,168.4,69.5,168.4,69.4,168.4L69.4,168.4z"/>
<path class="st0" d="M69.4,142.6c-0.2,0-0.5-0.1-0.6-0.4l-2.5-4.8c-0.2-0.3,0-0.7,0.3-0.9c0.3-0.2,0.7,0,0.9,0.3l2.5,4.8
	c0.2,0.3,0,0.7-0.3,0.9C69.6,142.6,69.5,142.6,69.4,142.6L69.4,142.6z"/>
<path class="st0" d="M69.4,116.8c-0.2,0-0.5-0.1-0.6-0.4l-2.5-4.7c-0.2-0.3-0.1-0.7,0.3-0.9c0.3-0.2,0.7-0.1,0.9,0.3l2.5,4.7
	c0.2,0.3,0.1,0.7-0.3,0.9C69.6,116.8,69.5,116.8,69.4,116.8L69.4,116.8z"/>
<path class="st0" d="M131.8,256.6c-0.2,0-0.4-0.1-0.6-0.3l-2.8-4.7c-0.2-0.3-0.1-0.7,0.2-0.9c0.3-0.2,0.7-0.1,0.9,0.2l2.8,4.7
	c0.2,0.3,0.1,0.7-0.2,0.9C132,256.6,131.9,256.6,131.8,256.6L131.8,256.6z"/>
<path class="st0" d="M131.8,230.7c-0.2,0-0.5-0.1-0.6-0.3l-2.8-4.8c-0.2-0.3-0.1-0.7,0.2-0.9c0.3-0.2,0.7-0.1,0.9,0.2l2.8,4.8
	c0.2,0.3,0.1,0.7-0.2,0.9C132,230.7,131.9,230.7,131.8,230.7L131.8,230.7z"/>
<path class="st0" d="M131.8,205c-0.2,0-0.5-0.1-0.6-0.3l-2.8-4.9c-0.2-0.3-0.1-0.7,0.2-0.9c0.3-0.2,0.7-0.1,0.9,0.2l2.8,4.9
	c0.2,0.3,0.1,0.7-0.2,0.9C132,205,131.9,205,131.8,205L131.8,205z"/>
<path class="st0" d="M131.8,179.4c-0.2,0-0.5-0.1-0.6-0.3l-2.8-5c-0.2-0.3-0.1-0.7,0.3-0.9c0.3-0.2,0.7-0.1,0.9,0.3l2.8,5
	c0.2,0.3,0.1,0.7-0.3,0.9C132,179.4,131.9,179.4,131.8,179.4L131.8,179.4z"/>
<path class="st0" d="M132,153.6c-0.2,0-0.4-0.1-0.6-0.3l-3.1-5.1c-0.2-0.3-0.1-0.7,0.2-0.9c0.3-0.2,0.7-0.1,0.9,0.2l3.1,5.1
	c0.2,0.3,0.1,0.7-0.2,0.9C132.3,153.6,132.2,153.6,132,153.6L132,153.6z"/>
<path class="st0" d="M231.5,86.4c-0.1,0-0.2,0-0.4-0.1c-0.3-0.2-0.4-0.6-0.2-0.9l3.1-4.9c0.2-0.3,0.6-0.4,0.9-0.2
	c0.3,0.2,0.4,0.6,0.2,0.9l-3.1,4.9C232,86.3,231.8,86.4,231.5,86.4L231.5,86.4z"/>
<path class="st0" d="M209.2,99.4c-0.1,0-0.2,0-0.3-0.1c-0.3-0.2-0.4-0.6-0.3-0.9l2.8-5c0.2-0.3,0.6-0.4,0.9-0.3
	c0.3,0.2,0.4,0.6,0.3,0.9l-2.8,5C209.6,99.3,209.4,99.4,209.2,99.4L209.2,99.4z"/>
<path class="st0" d="M187.1,112.2c-0.1,0-0.2,0-0.3-0.1c-0.3-0.2-0.4-0.6-0.3-0.9l2.8-5c0.2-0.3,0.6-0.4,0.9-0.3
	c0.3,0.2,0.4,0.6,0.3,0.9l-2.8,5C187.6,112.1,187.3,112.2,187.1,112.2L187.1,112.2z"/>
<path class="st0" d="M164.5,125.2c-0.1,0-0.2,0-0.3-0.1c-0.3-0.2-0.4-0.6-0.3-0.9l2.8-5c0.2-0.3,0.6-0.4,0.9-0.3
	c0.3,0.2,0.4,0.6,0.3,0.9l-2.8,5C164.9,125,164.7,125.2,164.5,125.2L164.5,125.2z"/>
<path class="st0" d="M142.4,138c-0.1,0-0.2,0-0.3-0.1c-0.3-0.2-0.4-0.6-0.3-0.9l2.8-5c0.2-0.3,0.6-0.4,0.9-0.3
	c0.3,0.2,0.4,0.6,0.3,0.9l-2.8,5C142.8,137.8,142.6,138,142.4,138L142.4,138z"/>
<path class="st0" d="M196.1,99.1c-0.1,0-0.2,0-0.3-0.1c-0.3-0.2-0.4-0.6-0.2-0.9L215,63.9c0.2-0.3,0.6-0.4,0.9-0.2
	c0.3,0.2,0.4,0.6,0.2,0.9l-19.6,34.2C196.5,99,196.3,99.1,196.1,99.1L196.1,99.1z"/>
<path class="st0" d="M151,125.1c-0.1,0-0.2,0-0.3-0.1c-0.3-0.2-0.4-0.6-0.2-0.9l20.4-35.3c0.2-0.3,0.6-0.4,0.9-0.2
	c0.3,0.2,0.4,0.6,0.2,0.9l-20.4,35.3C151.5,125,151.3,125.1,151,125.1L151,125.1z"/>
<path class="st0" d="M116.7,133.1c-0.1,0-0.2,0-0.3-0.1c-0.3-0.2-0.4-0.6-0.2-0.9l9.8-17c0.2-0.3,0.6-0.4,0.9-0.2
	c0.3,0.2,0.4,0.6,0.2,0.9l-9.8,17C117.1,133,116.9,133.1,116.7,133.1L116.7,133.1z"/>
<path class="st0" d="M100.7,238.2c-0.2,0-0.4-0.1-0.6-0.3l-3.1-5.1c-0.2-0.3-0.1-0.7,0.2-0.9c0.3-0.2,0.7-0.1,0.9,0.2l3.1,5.1
	c0.2,0.3,0.1,0.7-0.2,0.9C101,238.2,100.9,238.2,100.7,238.2L100.7,238.2z"/>
<path class="st0" d="M100.7,212.3c-0.2,0-0.4-0.1-0.6-0.3l-3.1-5c-0.2-0.3-0.1-0.7,0.2-0.9c0.3-0.2,0.7-0.1,0.9,0.2l3.1,5
	c0.2,0.3,0.1,0.7-0.2,0.9C101,212.3,100.9,212.3,100.7,212.3L100.7,212.3z"/>
<path class="st0" d="M100.7,186.5c-0.2,0-0.4-0.1-0.6-0.3l-3.1-4.8c-0.2-0.3-0.1-0.7,0.2-0.9c0.3-0.2,0.7-0.1,0.9,0.2l3.1,4.8
	c0.2,0.3,0.1,0.7-0.2,0.9C101,186.5,100.9,186.5,100.7,186.5L100.7,186.5z"/>
<path class="st0" d="M100.7,160.6c-0.2,0-0.5-0.1-0.6-0.3l-2.8-4.8c-0.2-0.3-0.1-0.7,0.2-0.9c0.3-0.2,0.7-0.1,0.9,0.2l2.8,4.8
	c0.2,0.3,0.1,0.7-0.2,0.9C101,160.5,100.9,160.6,100.7,160.6L100.7,160.6z"/>
<path class="st0" d="M100.7,134.9c-0.2,0-0.4-0.1-0.6-0.3l-2.8-4.7c-0.2-0.3-0.1-0.7,0.2-0.9c0.3-0.2,0.7-0.1,0.9,0.2l2.8,4.7
	c0.2,0.3,0.1,0.7-0.2,0.9C101,134.8,100.9,134.9,100.7,134.9L100.7,134.9z"/>
<path class="st0" d="M200.2,68.6c-0.1,0-0.2,0-0.3-0.1c-0.3-0.2-0.4-0.6-0.2-0.9l3.1-5.1c0.2-0.3,0.6-0.4,0.9-0.2
	c0.3,0.2,0.4,0.6,0.2,0.9l-3.1,5.1C200.7,68.5,200.5,68.6,200.2,68.6L200.2,68.6z"/>
<path class="st0" d="M178.2,81.4c-0.1,0-0.2,0-0.3-0.1c-0.3-0.2-0.4-0.6-0.3-0.9l2.8-5.1c0.2-0.3,0.6-0.4,0.9-0.3
	c0.3,0.2,0.4,0.6,0.3,0.9l-2.8,5.1C178.6,81.3,178.4,81.4,178.2,81.4L178.2,81.4z"/>
<path class="st0" d="M155.8,94.4c-0.1,0-0.2,0-0.3-0.1c-0.3-0.2-0.4-0.6-0.3-0.9l2.8-5.1c0.2-0.3,0.6-0.4,0.9-0.3
	c0.3,0.2,0.4,0.6,0.3,0.9l-2.8,5.1C156.3,94.3,156,94.4,155.8,94.4L155.8,94.4z"/>
<path class="st0" d="M133.2,107.4c-0.1,0-0.2,0-0.3-0.1c-0.3-0.2-0.4-0.6-0.2-0.9l3.1-5.1c0.2-0.3,0.6-0.4,0.9-0.2
	c0.3,0.2,0.4,0.6,0.2,0.9l-3.1,5.1C133.6,107.2,133.4,107.4,133.2,107.4L133.2,107.4z"/>
<path class="st0" d="M110.8,120.2c-0.1,0-0.2,0-0.3-0.1c-0.3-0.2-0.4-0.6-0.2-0.9l3.1-5.1c0.2-0.3,0.6-0.4,0.9-0.2
	c0.3,0.2,0.4,0.6,0.2,0.9l-3.1,5.1C111.2,120.1,111,120.2,110.8,120.2L110.8,120.2z"/>
<path class="st0" d="M294.4,122.1c-0.1,0-0.2,0-0.3-0.1c-0.3-0.2-0.4-0.6-0.2-0.9l3.1-5.1c0.2-0.3,0.6-0.4,0.9-0.2
	c0.3,0.2,0.4,0.6,0.2,0.9l-3.1,5.1C294.9,122,294.7,122.1,294.4,122.1L294.4,122.1z"/>
<path class="st0" d="M272.1,135.1c-0.1,0-0.2,0-0.3-0.1c-0.3-0.2-0.4-0.6-0.3-0.9l2.8-5.1c0.2-0.3,0.6-0.4,0.9-0.3
	c0.3,0.2,0.4,0.6,0.3,0.9l-2.8,5.1C272.5,135,272.3,135.1,272.1,135.1L272.1,135.1z"/>
<path class="st0" d="M249.7,147.9c-0.1,0-0.2,0-0.3-0.1c-0.3-0.2-0.4-0.6-0.3-0.9l2.8-5c0.2-0.3,0.6-0.4,0.9-0.3
	c0.3,0.2,0.4,0.6,0.3,0.9l-2.8,5C250.2,147.8,249.9,147.9,249.7,147.9L249.7,147.9z"/>
<path class="st0" d="M227.4,160.8c-0.1,0-0.2,0-0.3-0.1c-0.3-0.2-0.4-0.6-0.2-0.9l3.1-5c0.2-0.3,0.6-0.4,0.9-0.2
	c0.3,0.2,0.4,0.6,0.2,0.9l-3.1,5C227.8,160.7,227.6,160.8,227.4,160.8L227.4,160.8z"/>
<path class="st0" d="M205,173.8c-0.1,0-0.2,0-0.3-0.1c-0.3-0.2-0.4-0.6-0.3-0.9l2.8-5c0.2-0.3,0.6-0.4,0.9-0.3
	c0.3,0.2,0.4,0.6,0.3,0.9l-2.8,5C205.5,173.7,205.2,173.8,205,173.8L205,173.8z"/>
<path class="st0" d="M194.1,292.4c-0.2,0-0.5-0.1-0.6-0.3l-2.8-4.8c-0.2-0.3-0.1-0.7,0.2-0.9c0.3-0.2,0.7-0.1,0.9,0.2l2.8,4.8
	c0.2,0.3,0.1,0.7-0.2,0.9C194.3,292.4,194.2,292.4,194.1,292.4L194.1,292.4z"/>
<path class="st0" d="M194.1,266.5c-0.2,0-0.5-0.1-0.6-0.3l-2.8-4.8c-0.2-0.3-0.1-0.7,0.2-0.9c0.3-0.2,0.7-0.1,0.9,0.2l2.8,4.8
	c0.2,0.3,0.1,0.7-0.2,0.9C194.3,266.5,194.2,266.5,194.1,266.5L194.1,266.5z"/>
<path class="st0" d="M194.1,240.7c-0.2,0-0.5-0.1-0.6-0.3l-2.8-4.9c-0.2-0.3-0.1-0.7,0.2-0.9c0.3-0.2,0.7-0.1,0.9,0.2l2.8,4.9
	c0.2,0.3,0.1,0.7-0.2,0.9C194.3,240.7,194.2,240.7,194.1,240.7L194.1,240.7z"/>
<path class="st0" d="M194.1,215c-0.2,0-0.5-0.1-0.6-0.3l-2.8-5c-0.2-0.3-0.1-0.7,0.3-0.9c0.3-0.2,0.7-0.1,0.9,0.3l2.8,5
	c0.2,0.3,0.1,0.7-0.3,0.9C194.3,215,194.2,215,194.1,215L194.1,215z"/>
<path class="st0" d="M194.4,189.4c-0.2,0-0.4-0.1-0.6-0.3l-3.1-5.1c-0.2-0.3-0.1-0.7,0.2-0.9c0.3-0.2,0.7-0.1,0.9,0.2l3.1,5.1
	c0.2,0.3,0.1,0.7-0.2,0.9C194.6,189.4,194.5,189.4,194.4,189.4L194.4,189.4z"/>
<path class="st0" d="M258.1,135.3c-0.1,0-0.2,0-0.3-0.1c-0.3-0.2-0.4-0.6-0.2-0.9l19.8-34.4c0.2-0.3,0.6-0.4,0.9-0.2
	c0.3,0.2,0.4,0.6,0.2,0.9l-19.8,34.4C258.6,135.1,258.3,135.3,258.1,135.3L258.1,135.3z"/>
<path class="st0" d="M213.1,161.2c-0.1,0-0.2,0-0.3-0.1c-0.3-0.2-0.4-0.6-0.2-0.9l20.4-35.4c0.2-0.3,0.6-0.4,0.9-0.2
	c0.3,0.2,0.4,0.6,0.2,0.9l-20.4,35.4C213.5,161.1,213.3,161.2,213.1,161.2L213.1,161.2z"/>
<path class="st0" d="M179,168.9c-0.1,0-0.2,0-0.3-0.1c-0.3-0.2-0.4-0.6-0.2-0.9l9.5-16.7c0.2-0.3,0.6-0.4,0.9-0.2
	c0.3,0.2,0.4,0.6,0.2,0.9l-9.5,16.7C179.5,168.8,179.2,168.9,179,168.9L179,168.9z"/>
<path class="st0" d="M162.8,273.8c-0.2,0-0.5-0.1-0.6-0.3l-2.8-4.7c-0.2-0.3-0.1-0.7,0.2-0.9c0.3-0.2,0.7-0.1,0.9,0.2l2.8,4.7
	c0.2,0.3,0.1,0.7-0.2,0.9C163,273.7,162.9,273.8,162.8,273.8L162.8,273.8z"/>
<path class="st0" d="M162.8,247.8c-0.2,0-0.5-0.1-0.6-0.3l-2.8-4.7c-0.2-0.3-0.1-0.7,0.2-0.9c0.3-0.2,0.7-0.1,0.9,0.2l2.8,4.7
	c0.2,0.3,0.1,0.7-0.2,0.9C163,247.7,162.9,247.8,162.8,247.8L162.8,247.8z"/>
<path class="st0" d="M162.8,222c-0.2,0-0.5-0.1-0.6-0.4l-2.5-4.7c-0.2-0.3-0.1-0.7,0.3-0.9c0.3-0.2,0.7-0.1,0.9,0.3l2.5,4.7
	c0.2,0.3,0.1,0.7-0.3,0.9C163,222,162.9,222,162.8,222L162.8,222z"/>
<path class="st0" d="M162.8,196.3c-0.2,0-0.5-0.1-0.6-0.3l-2.5-4.6c-0.2-0.3-0.1-0.7,0.3-0.9c0.3-0.2,0.7-0.1,0.9,0.3l2.5,4.6
	c0.2,0.3,0.1,0.7-0.3,0.9C163,196.3,162.9,196.3,162.8,196.3L162.8,196.3z"/>
<path class="st0" d="M163.1,170.4c-0.2,0-0.5-0.1-0.6-0.3l-2.8-4.7c-0.2-0.3-0.1-0.7,0.2-0.9c0.3-0.2,0.7-0.1,0.9,0.2l2.8,4.7
	c0.2,0.3,0.1,0.7-0.2,0.9C163.3,170.4,163.2,170.4,163.1,170.4L163.1,170.4z"/>
<path class="st0" d="M263.4,104.1c-0.1,0-0.2,0-0.3-0.1c-0.3-0.2-0.4-0.6-0.3-0.9l2.8-5c0.2-0.3,0.6-0.4,0.9-0.3
	c0.3,0.2,0.4,0.6,0.3,0.9l-2.8,5C263.9,104,263.6,104.1,263.4,104.1L263.4,104.1z"/>
<path class="st0" d="M240.8,117.1c-0.1,0-0.2,0-0.4-0.1c-0.3-0.2-0.4-0.6-0.2-0.9l3.1-4.9c0.2-0.3,0.6-0.4,0.9-0.2
	c0.3,0.2,0.4,0.6,0.2,0.9l-3.1,4.9C241.2,116.9,241,117.1,240.8,117.1L240.8,117.1z"/>
<path class="st0" d="M218.7,129.9c-0.1,0-0.2,0-0.3-0.1c-0.3-0.2-0.4-0.6-0.2-0.9l2.8-4.9c0.2-0.3,0.6-0.4,0.9-0.2
	c0.3,0.2,0.4,0.6,0.3,0.9l-2.8,4.9C219.1,129.8,218.9,129.9,218.7,129.9L218.7,129.9z"/>
<path class="st0" d="M196.3,142.8c-0.1,0-0.2,0-0.3-0.1c-0.3-0.2-0.4-0.6-0.2-0.9l2.8-4.9c0.2-0.3,0.6-0.4,0.9-0.2
	c0.3,0.2,0.4,0.6,0.2,0.9l-2.8,4.9C196.8,142.7,196.6,142.8,196.3,142.8L196.3,142.8z"/>
<path class="st0" d="M173.7,155.7c-0.1,0-0.2,0-0.4-0.1c-0.3-0.2-0.4-0.6-0.2-0.9l3.1-4.8c0.2-0.3,0.6-0.4,0.9-0.2
	c0.3,0.2,0.4,0.6,0.2,0.9l-3.1,4.8C174.1,155.6,173.9,155.7,173.7,155.7L173.7,155.7z"/>
<path class="st0" d="M226.8,117.3c-0.1,0-0.2,0-0.3-0.1c-0.3-0.2-0.4-0.6-0.2-0.9l20.1-34.7c0.2-0.3,0.6-0.4,0.9-0.2
	c0.3,0.2,0.4,0.6,0.2,0.9L227.4,117C227.2,117.2,227,117.3,226.8,117.3L226.8,117.3z"/>
<path class="st0" d="M182.1,143.2c-0.1,0-0.2,0-0.3-0.1c-0.3-0.2-0.4-0.6-0.2-0.9l20.4-35.2c0.2-0.3,0.6-0.4,0.9-0.2
	c0.3,0.2,0.4,0.6,0.2,0.9l-20.4,35.2C182.5,143,182.3,143.2,182.1,143.2L182.1,143.2z"/>
<path class="st0" d="M147.7,150.9c-0.1,0-0.2,0-0.3-0.1c-0.3-0.2-0.4-0.6-0.2-0.9l9.5-16.5c0.2-0.3,0.6-0.4,0.9-0.2
	c0.3,0.2,0.4,0.6,0.2,0.9l-9.5,16.5C148.2,150.8,147.9,150.9,147.7,150.9L147.7,150.9z"/>
<path class="st0" d="M164.7,81.3c-0.1,0-0.2,0-0.3-0.1c-0.3-0.2-0.4-0.6-0.2-0.9L184,46c0.2-0.3,0.6-0.4,0.9-0.2
	c0.3,0.2,0.4,0.6,0.2,0.9L165.3,81C165.2,81.2,165,81.3,164.7,81.3L164.7,81.3z"/>
<path class="st0" d="M120,107.2c-0.1,0-0.2,0-0.3-0.1c-0.3-0.2-0.4-0.6-0.2-0.9l20.4-35.4c0.2-0.3,0.6-0.4,0.9-0.2
	c0.3,0.2,0.4,0.6,0.2,0.9l-20.4,35.4C120.5,107.1,120.3,107.2,120,107.2L120,107.2z"/>
<path class="st0" d="M85.6,115c-0.1,0-0.2,0-0.3-0.1c-0.3-0.2-0.4-0.6-0.2-0.9l9.5-16.7c0.2-0.3,0.6-0.4,0.9-0.2
	c0.3,0.2,0.4,0.6,0.2,0.9l-9.5,16.7C86.1,114.9,85.9,115,85.6,115L85.6,115z"/>
</svg>
