<?xml version="1.0" encoding="utf-8"?>
<!-- Generator: Adobe Illustrator 24.1.2, SVG Export Plug-In . SVG Version: 6.00 Build 0)  -->
<svg version="1.1" id="Camada_1" xmlns="http://www.w3.org/2000/svg" xmlns:xlink="http://www.w3.org/1999/xlink" x="0px" y="0px"
	 viewBox="0 0 414.6 362.5" style="enable-background:new 0 0 414.6 362.5;" xml:space="preserve">
<style type="text/css">
	.st0{fill:#FFFFFF;}
</style>
<g>
	<path class="st0" d="M222.6,187.4c0-1,0.1-1.8,0.1-2.7c0-51.5,0-103,0-154.5c0-0.2,0-0.5,0-0.7c-0.1-2.1-0.2-2.2-2.4-2.3
		c-0.7,0-1.4,0-2.2,0c-67,0-134,0-201,0c-1.6,0-3.2-0.1-4.8-0.1C5.6,26.9,0.1,20.3,0,14.1C-0.1,6.7,5.9,0.2,13.8,0
		c0.4,0,0.8,0,1.2,0c73.3,0,146.7,0,220,0c3.1,0,6,0.7,8.6,2.3c3.5,2.2,5.6,5.4,6.1,9.5c0.2,1.7,0.3,3.5,0.3,5.3
		c0,60.4,0,120.7,0,181.1c0,3,0,6.1-1.4,8.9c-2,4.2-5.2,6.8-9.8,7.6c-2,0.3-4,0.5-6,0.5c-60.8,0-121.5,0-182.3,0
		c-1.3,0-2.5,0.1-4,0.2c0,1.3,0,2.3,0,3.3c0,17.8,0,35.5,0,53.3c0,2.9-0.5,5.8-2,8.3c-2.8,4.9-7.2,7.4-12.7,7
		c-5.9-0.5-10.2-3.7-12-9.4c-0.6-2.1-0.7-4.4-0.7-6.6c-0.1-17.2,0-34.4,0-51.6c0-4.7,0.2-4.3-4.2-4.4c-4-0.1-7.8-0.8-10.7-3.8
		c-2.5-2.5-4.1-5.4-4.2-9.1c0-0.7,0-1.4,0-2.2c0-49.6,0-99.2,0-148.7c0-3,0.3-5.9,2-8.5c3.1-4.7,7.5-7,13-6.4
		c5.4,0.6,9.2,3.7,11.2,8.9c0.8,2.1,0.9,4.2,0.9,6.4c0,44.1,0,88.1,0,132.2c0,1.1,0,2.2,0,3c0.3,0.4,0.3,0.4,0.4,0.5
		c0.1,0,0.1,0.1,0.2,0.1c0.6,0.1,1.1,0.2,1.7,0.2c64.1,0,128.1,0,192.2-0.1C221.8,187.7,222,187.6,222.6,187.4z"/>
	<path class="st0" d="M50.3,306.6c0.6-19.6,8.8-35.3,25-46.4c5.6-3.9,11.8-6.5,18.5-7.9c4.5-0.9,8.9-1.7,13.5-1.6
		c5.3,0.1,10.4,1.3,15.5,2.8c5.7,1.7,10.9,4.4,15.7,7.8c6.1,4.3,11.2,9.7,15.1,16.1c2.4,3.9,4.6,8,5.6,12.6c0.1,0.5,0.4,0.9,0.5,1.3
		c0.2,1.2,1,1.6,2.1,1.5c0.6,0,1.3,0,1.9,0c36.5,0,73.1,0,109.6,0c0.4,0,0.8,0,1.2,0c2.2,0,2.3,0,2.9-2.1c1.5-5.1,3.7-9.9,6.6-14.3
		c2.9-4.4,6.2-8.5,10.3-11.9c4.8-4,10-7.4,15.8-9.6c3.5-1.3,7-2.6,10.7-3.2c5.6-1,11.2-1.5,16.9-0.5c3.9,0.7,7.7,1.4,11.4,2.6
		c8.9,3.1,16.5,8.1,22.9,15c4.7,5,8.2,10.8,10.8,17.1c1.7,4.3,2.7,8.8,3.4,13.4c1,6.6,0.5,13.1-0.9,19.5c-1.3,6.3-3.8,12.1-7.3,17.6
		c-5.7,8.9-13.4,15.8-22.9,20.5c-8.9,4.3-18.4,6.2-28.3,5.5c-3.6-0.3-7.2-1.2-10.7-2.1c-4.6-1.1-8.9-3-13-5.3
		c-6.8-3.9-12.7-9.1-17.3-15.6c-3.7-5.2-6.5-10.8-8.3-16.8c-0.6-2.1-0.8-2.2-3-2.3c-0.6,0-1.1,0-1.7,0c-36.1,0-72.1,0-108.2,0
		c-5,0-4.2-0.2-5.7,4.3c-2.1,6.4-5.4,12.3-9.7,17.4c-5.8,6.9-12.7,12.3-21.2,15.8c-7.9,3.3-16.1,5.1-24.6,4.6c-4-0.2-8-1-12-2.1
		c-8.6-2.2-16-6.5-22.6-12.3c-5.7-5.1-10.1-11.1-13.3-18C52.1,322.6,50.3,314.8,50.3,306.6z M359.4,306.7
		c0-16.2-12.6-28.8-28.6-28.7c-16.6,0.2-28.2,12.1-28.5,28.4c-0.2,15.3,11.3,28.4,28.4,28.6C346.8,335.3,359.5,322.1,359.4,306.7z
		 M134.6,306.5c0.2-15.9-12.4-28.5-28.3-28.5c-15.8,0-28.5,11.7-28.7,28.5c-0.2,15.6,12.2,28.4,28.5,28.6
		C121.7,335.2,135,322.2,134.6,306.5z"/>
	<path class="st0" d="M293.7,90.9c-0.6,2.2-0.7,94-0.1,96.6c1,0.1,2.1,0.2,3.2,0.2c21,0,41.9,0,62.9,0c3.1,0,6.2,0.4,9,2.1
		c3.9,2.4,6.2,5.8,6.5,10.5c0.4,5.2-1.6,9.3-5.8,12.3c-2.6,1.8-5.6,2.3-8.6,2.4c-2.1,0.1-4.2,0-6.2,0c-24.2,0-48.3,0-72.5,0
		c-2.8,0-5.6-0.2-8.2-1.4c-4.2-1.8-6.7-5-7.5-9.5c-0.4-2.4-0.6-4.9-0.6-7.4c0-38.7,0-77.4,0-116.1c0-2.4,0.2-4.8,0.8-7.1
		c1.1-4.3,4-7.2,8-8.9c1.9-0.8,4-1,6.1-1c24.3,0,48.6,0,72.9,0c3.8,0,7.1,0.9,9.9,3.5c1.4,1.3,2.6,2.9,3.5,4.5c2,3.8,4,7.6,5.7,11.6
		c4,9.5,8,19.1,11.8,28.7c3.1,8,5.9,16.2,8.6,24.3c3.1,9.3,6.2,18.6,9.1,27.9c2.1,6.8,4.1,13.7,6,20.6c1.1,3.9,1.8,7.9,2.6,11.9
		c0.5,2.4,1.1,4.8,1.7,7.2c1.4,6,2.3,12.1,2.3,18.2c0,16.9,0,33.7,0,50.6c0,4.6-1.4,8.5-5.1,11.3c-8.2,6.5-19.1,1.7-21.3-6.8
		c-0.5-1.8-0.7-3.6-0.7-5.4c-0.1-15.6-0.1-31.2,0-46.8c0.1-7.1-1.1-14-2.7-20.8c-0.9-3.9-1.7-7.8-2.8-11.6c-2.1-7.3-4.2-14.7-6.5-22
		c-2.4-7.8-4.8-15.5-7.5-23.2c-2.4-7.2-5-14.3-7.7-21.3c-2.5-6.8-5-13.6-7.7-20.3c-1.8-4.7-3.9-9.3-5.8-13.9c-0.4-0.9-1-1.3-2-1.3
		c-1.4,0.1-2.9,0-4.3,0c-14.6,0-29.3,0-43.9,0C295.7,90.9,294.7,90.9,293.7,90.9z"/>
	<path class="st0" d="M265.8,255.9c-3.8,0-7.7,0.1-11.5,0c-5.3-0.1-9.6-4.2-11.4-8.3c-2.9-6.9,0.8-14,5.8-16.8c2-1.1,4-1.9,6.3-2
		c7.2,0,14.4-0.2,21.6,0c6.3,0.2,12,5.4,12.6,11.6c0.6,5.6-1.1,10-5.8,13.2c-1.9,1.4-4.1,2.2-6.5,2.2
		C273.3,255.9,269.6,255.9,265.8,255.9C265.8,255.9,265.8,255.9,265.8,255.9z"/>
</g>
</svg>
