<?xml version="1.0" encoding="utf-8"?>
<!-- Generator: Adobe Illustrator 24.1.2, SVG Export Plug-In . SVG Version: 6.00 Build 0)  -->
<svg version="1.1" id="Camada_1" xmlns="http://www.w3.org/2000/svg" xmlns:xlink="http://www.w3.org/1999/xlink" x="0px" y="0px"
	 viewBox="0 0 175 245" style="enable-background:new 0 0 175 245;" xml:space="preserve">
<style type="text/css">
	.st0{fill:#007AC0;}
</style>
<path class="st0" d="M100.1,36.7c-0.3,0-0.5-0.1-0.8-0.2L72.6,21.1c-0.5-0.3-0.8-0.8-0.8-1.3c0-0.5,0.3-1,0.8-1.3l31.6-18.2
	c0.5-0.3,1.1-0.3,1.5,0l26.7,15.4c0.7,0.4,1,1.4,0.6,2.1c-0.4,0.7-1.4,1-2.1,0.6l-25.9-15L76.4,19.7l24.4,14.1
	c0.7,0.4,1,1.4,0.6,2.1C101.1,36.4,100.6,36.7,100.1,36.7L100.1,36.7z"/>
<path class="st0" d="M68.6,96.1L68.6,96.1c-0.3,0-0.6-0.1-0.8-0.2L41.1,80.4c-0.5-0.3-0.8-0.8-0.8-1.3c0-0.5,0.3-1,0.8-1.3
	l31.5-18.2c0.5-0.3,1.1-0.3,1.5,0L100.8,75c0.7,0.4,1,1.4,0.6,2.1c-0.4,0.7-1.4,1-2.1,0.6l-25.9-15L44.9,79.1l24.3,14.1
	c0.5,0.3,0.8,0.8,0.8,1.4C70.1,95.4,69.4,96.1,68.6,96.1L68.6,96.1z"/>
<path class="st0" d="M68.6,120c-0.8,0-1.5-0.7-1.5-1.5v-24c0-0.5,0.3-1,0.8-1.3l3.2-1.9L97.7,76l1.7-1c0.7-0.4,1.7-0.2,2.1,0.5
	c0.4,0.7,0.2,1.7-0.5,2.1l-1.7,1L72.5,94l-2.4,1.4v23.1C70.1,119.4,69.4,120,68.6,120L68.6,120z"/>
<path class="st0" d="M68.6,173c-0.3,0-0.5-0.1-0.8-0.2c-0.5-0.3-0.8-0.8-0.8-1.3v-0.8c0-0.8,0.7-1.5,1.5-1.5c0.4,0,0.8,0.2,1.1,0.5
	c0.4,0.1,0.7,0.3,0.9,0.7c0.4,0.7,0.2,1.7-0.6,2.1l-0.7,0.4C69.1,173,68.8,173,68.6,173L68.6,173z"/>
<path class="st0" d="M125.8,139.9c-0.1,0-0.2,0-0.3,0c-0.3,0-0.6-0.2-0.9-0.4c-0.6-0.6-0.6-1.6,0-2.2c0.3-0.3,0.7-0.5,1.1-0.4
	c0.1,0,0.1,0,0.2,0c0.5,0,0.9,0.3,1.2,0.7c0.5,0.7,0.3,1.6-0.4,2.1C126.4,139.9,126.1,139.9,125.8,139.9L125.8,139.9z"/>
<path class="st0" d="M100.1,95.8c-0.8,0-1.5-0.7-1.5-1.5V35.2c0-0.5,0.3-1,0.8-1.3l31.6-18.3c0.5-0.3,1.1-0.3,1.5,0
	c0.5,0.3,0.8,0.8,0.8,1.3v69.9c0,0.8-0.7,1.5-1.5,1.5c-0.8,0-1.5-0.7-1.5-1.5V19.6l-28.5,16.5v58.2
	C101.6,95.1,100.9,95.8,100.1,95.8L100.1,95.8z"/>
<path class="st0" d="M10.3,122.8c-0.5,0-1-0.3-1.3-0.8c-0.4-0.7-0.2-1.7,0.6-2.1l31.6-18.2c0.5-0.3,1.1-0.3,1.5,0l26.7,15.4
	c0.7,0.4,1,1.4,0.6,2.1c-0.4,0.7-1.4,1-2.1,0.6l-25.9-15L11,122.6C10.8,122.7,10.5,122.8,10.3,122.8L10.3,122.8z"/>
<path class="st0" d="M10.3,175.2c-0.8,0-1.5-0.7-1.5-1.5v-52.4c0-0.5,0.3-1.1,0.8-1.3c0.5-0.3,1.1-0.3,1.5,0l26.7,15.4
	c0.7,0.4,1,1.4,0.6,2.1c-0.4,0.7-1.4,1-2.1,0.6l-24.4-14.1v49.7C11.8,174.5,11.2,175.2,10.3,175.2L10.3,175.2z"/>
<path class="st0" d="M37,153.1c-0.8,0-1.5-0.7-1.5-1.5v-14.9c0-0.5,0.3-1,0.8-1.3l31.5-18.2c0.5-0.3,1.1-0.3,1.5,0
	c0.5,0.3,0.8,0.8,0.8,1.3V151c0,0.8-0.7,1.5-1.5,1.5c-0.8,0-1.5-0.7-1.5-1.5v-29.8l-28.5,16.4v14C38.5,152.5,37.9,153.1,37,153.1
	L37,153.1z"/>
<path class="st0" d="M145.1,200.4c-0.7,0-1.3-0.5-1.5-1.2c-0.2-0.8,0.3-1.6,1.2-1.8c4.8-1.1,9.4-2.6,13.5-4.7
	c14-7.4,13.9-14.3,13.7-25.9c0-1.3,0-2.6,0-4c0-0.8,0.7-1.5,1.5-1.5c0.8,0,1.5,0.7,1.5,1.5c0,1.4,0,2.7,0,4
	c0.2,11.9,0.3,20.4-15.4,28.7c-4.4,2.2-9.1,3.9-14.2,5C145.3,200.4,145.2,200.4,145.1,200.4L145.1,200.4z"/>
<path class="st0" d="M129.8,152.5c-0.4,0-0.7,0-1.1,0c-5.3-0.1-10.3-0.7-14.9-1.7c-5-1-9.5-2.5-13.5-4.5c-3.6-1.7-6.8-3.9-9.4-6.3
	c-3.6-3.5-5.8-7.4-6.4-11.7c-0.1-0.8,0.4-1.6,1.3-1.7c0.8-0.1,1.6,0.4,1.7,1.3c0.6,3.6,2.4,7,5.5,9.9c2.4,2.2,5.3,4.2,8.7,5.8
	c3.8,1.9,8.1,3.3,12.8,4.3c4.4,1,9.3,1.5,14.4,1.6c5.3,0.1,10.4-0.4,15.3-1.4c4.7-1,9-2.4,12.8-4.3c0.5-0.2,0.9-0.4,1.3-0.6
	c3.3-1.7,5.9-3.4,7.8-5.2c4.6-4.1,5.7-8.5,6-13.8c0-0.8,0.8-1.5,1.6-1.4c0.8,0,1.5,0.8,1.4,1.6c-0.3,5.2-1.3,10.7-7,15.8
	c-2.1,1.9-4.9,3.8-8.4,5.7c-0.4,0.2-0.9,0.5-1.4,0.7c-4,2-8.6,3.5-13.5,4.5C139.9,152,134.9,152.5,129.8,152.5L129.8,152.5z"/>
<path class="st0" d="M94,243c-0.3,0-0.5-0.1-0.8-0.2c-1.2-0.7-2.4-1.4-3.5-2c-10.3-5.7-17.7-9.9-17-27.6
	c0.9-20.3,15.1-43.8,32.4-53.5c8.4-4.8,16.3-5.4,22.9-1.8c0.7,0.4,1,1.3,0.6,2.1c-0.4,0.7-1.3,1-2.1,0.6c-7-3.8-14.7-1.1-19.9,1.8
	c-16.1,9.1-30,32-30.8,51c-0.6,15.8,5.4,19.2,15.5,24.8c1.2,0.6,2.4,1.3,3.6,2c0.7,0.4,1,1.4,0.6,2.1C95,242.7,94.5,243,94,243
	L94,243z"/>
<path class="st0" d="M94,243c-0.3,0-0.6-0.1-0.8-0.2c-6.5-4.2-9.9-11.6-9.8-21.5c0.1-10.2,3.8-19.9,5.4-23.6
	c6-13.6,19.2-29.7,32.7-34.4c6.1-2.1,11.9-1.8,17.1,0.9c0.7,0.4,1,1.3,0.6,2.1c-0.4,0.7-1.3,1-2.1,0.6c-4.4-2.3-9.4-2.6-14.7-0.7
	c-12.6,4.4-25.3,20.2-30.9,32.8c-4.9,11.4-9.8,33,3.2,41.3c0.7,0.5,0.9,1.4,0.5,2.1C95,242.7,94.5,243,94,243L94,243z"/>
<path class="st0" d="M102.1,245c-3.2,0-6.2-0.8-8.8-2.3c-6.4-3.7-9.9-11.3-9.9-21.4c0-20.2,14.2-44.9,31.7-55
	c8.8-5.1,17.1-5.8,23.5-2.2c6.3,3.7,9.8,11.3,9.8,21.4c0,20.3-14.3,44.9-31.8,55C111.6,243.5,106.6,245,102.1,245L102.1,245z
	 M129.8,164.9c-4,0-8.4,1.4-13.1,4c-16.7,9.6-30.2,33.1-30.2,52.4c0,9,3,15.7,8.3,18.8c5.4,3.1,12.6,2.3,20.4-2.1
	c16.7-9.6,30.2-33.1,30.2-52.4c0-9-3-15.7-8.3-18.8C134.9,165.5,132.5,164.9,129.8,164.9L129.8,164.9z"/>
<path class="st0" d="M106.2,226.6c-0.5,0-1-0.2-1.3-0.7c-0.5-0.7-0.3-1.6,0.4-2.1c4.4-2.9,9.3-5.7,14.1-8.4l2.2-1.3
	c1.4-0.8,2.6-2.6,2.6-3.8v-9.7c-0.1-0.1-0.5-0.3-1.2,0l-2,1.1c-4.1,2.4-8,4.7-11.4,6.8c-1.8,1.1-3,0.7-3.6,0.3
	c-0.6-0.3-1.6-1.2-1.6-3.3v-9.6c0-1.8,1.3-4.7,3.5-6.2c4.5-2.8,9.4-5.7,15.3-9c0.7-0.4,1.7-0.2,2.1,0.6c0.4,0.7,0.2,1.7-0.6,2.1
	c-5.8,3.3-10.7,6.2-15.1,8.9c-1.2,0.8-2.1,2.7-2.1,3.6v9.6c0,0.3,0,0.5,0.1,0.6c0.1,0,0.2-0.1,0.4-0.2c3.4-2.2,7.3-4.5,11.4-6.9
	l2-1.2c0,0,0.1,0,0.1,0c1.4-0.7,2.9-0.7,4.1,0.1c1,0.6,1.5,1.6,1.5,2.6v9.8c0,2.6-2.1,5.3-4.2,6.4l-2.3,1.3
	c-4.7,2.7-9.6,5.5-13.9,8.3C106.7,226.5,106.5,226.6,106.2,226.6L106.2,226.6z"/>
<path class="st0" d="M129.5,140c-11.5,0-23-2.5-31.8-7.6c-8.8-5.1-13.6-11.9-13.6-19.2c0-7.4,4.8-14.2,13.6-19.3
	c17.5-10.2,46-10.2,63.6,0c8.8,5.1,13.6,11.9,13.6,19.3c0,7.3-4.8,14.2-13.6,19.2C152.5,137.5,141,140,129.5,140L129.5,140z
	 M129.5,89.3c-11,0-21.9,2.4-30.3,7.3c-7.8,4.5-12.1,10.4-12.1,16.6c0,6.2,4.3,12.1,12.1,16.6c16.7,9.7,43.8,9.7,60.5,0c0,0,0,0,0,0
	c7.8-4.5,12.1-10.4,12.1-16.6c0-6.2-4.3-12.1-12.1-16.6C151.4,91.7,140.4,89.3,129.5,89.3L129.5,89.3z"/>
<path class="st0" d="M133.4,128.3c-0.5,0-1-0.3-1.3-0.8c-0.4-0.7-0.2-1.7,0.6-2.1c6.1-3.5,11.6-6.6,17.9-10c0.3-0.2,0.5-0.3,0.6-0.4
	c-0.1-0.1-0.2-0.3-0.6-0.5c-1.1-0.6-2.4-1.4-3.7-2.1c-1.5-0.9-3.2-1.9-4.8-2.8c-0.8-0.5-3.3-0.8-4.6,0c-2.5,1.4-5.2,2.9-7.8,4.3
	c-2.5,1.4-4.9,2.7-7,3.9c-2.3,1.4-5.3,1.4-7.7,0c-1.1-0.7-2.3-1.4-3.5-2.1c-1.4-0.8-2.8-1.6-4.4-2.6c-1.4-0.7-2.2-1.8-2.2-3.1
	c0-1.3,0.9-2.4,2.4-3.2c4.8-2.4,10-5.2,16.5-8.9c0.7-0.4,1.7-0.2,2.1,0.6c0.4,0.7,0.2,1.7-0.6,2.1c-6.5,3.7-11.8,6.6-16.7,9
	c-0.4,0.2-0.6,0.4-0.6,0.4c0.1,0.1,0.2,0.2,0.5,0.4c0,0,0.1,0,0.1,0.1c1.6,1,3,1.8,4.3,2.6c1.2,0.7,2.4,1.4,3.6,2.1
	c1.4,0.8,3.2,0.8,4.5,0c2.1-1.2,4.6-2.6,7.1-3.9c2.6-1.4,5.2-2.8,7.7-4.3c2.3-1.4,6-0.9,7.6,0c1.6,0.9,3.3,1.9,4.9,2.8
	c1.3,0.8,2.5,1.5,3.6,2.1c1.9,1.1,2.2,2.5,2.2,3.2c0,0.7-0.3,2-2.2,3c-6.2,3.4-11.7,6.4-17.8,10
	C133.9,128.3,133.6,128.3,133.4,128.3L133.4,128.3z"/>
<path class="st0" d="M133.7,163.4c-0.8,0-1.5-0.6-1.5-1.4c-0.1-0.8,0.6-1.6,1.4-1.6c9.2-0.5,17.7-2.7,24.5-6.3
	c14-7.3,13.9-14.3,13.7-25.8c0-1.3,0-2.6,0-4c0-0.8,0.7-1.5,1.5-1.5c0.8,0,1.5,0.7,1.5,1.5c0,1.4,0,2.7,0,4
	c0.2,11.9,0.3,20.5-15.4,28.6C152.4,160.5,143.5,162.8,133.7,163.4C133.8,163.4,133.8,163.4,133.7,163.4L133.7,163.4z"/>
<path class="st0" d="M145.6,175.7c-0.7,0-1.3-0.5-1.5-1.2c-0.2-0.8,0.3-1.6,1.2-1.8c4.6-1,9-2.6,12.9-4.6
	c14-7.3,13.9-14.3,13.7-25.8c0-1.3,0-2.6,0-4c0-0.8,0.7-1.5,1.5-1.5c0.8,0,1.5,0.7,1.5,1.5c0,1.4,0,2.7,0,4
	c0.2,11.9,0.3,20.5-15.4,28.6c-4.2,2.2-8.8,3.9-13.7,4.9C145.8,175.7,145.7,175.7,145.6,175.7L145.6,175.7z"/>
<path class="st0" d="M88,160.5c-0.6,0-1.2-0.4-1.4-1c-0.1-0.3-0.9-1.7-1.1-2c-0.1-0.1-0.1-0.2-0.1-0.3c-0.8-2.1-1.2-4.3-1.2-6.5
	c0-0.8,0.7-1.5,1.5-1.5c0.8,0,1.5,0.7,1.5,1.5c0,1.9,0.3,3.6,0.9,5.3c0.3,0.5,1.1,2,1.3,2.5c0.3,0.8-0.2,1.7-1,1.9
	C88.3,160.4,88.1,160.5,88,160.5L88,160.5z"/>
<path class="st0" d="M147.7,186.7c-0.7,0-1.3-0.4-1.5-1.1c-0.2-0.8,0.3-1.7,1.1-1.9c4.2-1.2,7.7-2.5,10.9-4.3
	c14-7.3,13.9-14.3,13.7-25.9c0-1.3,0-2.6,0-4c0-0.8,0.7-1.5,1.5-1.5c0.8,0,1.5,0.7,1.5,1.5c0,1.4,0,2.7,0,4
	c0.2,11.9,0.3,20.5-15.4,28.6c-3.4,1.8-7.1,3.3-11.5,4.5C147.9,186.7,147.8,186.7,147.7,186.7L147.7,186.7z"/>
<path class="st0" d="M54,201.8c-11.5,0-22.9-2.6-31.6-7.6c-8.8-5.2-13.7-12-13.7-19.4c0-7.3,4.9-14.1,13.7-19.2
	c17.5-10.1,46-10.1,63.5,0c5.3,3.1,9.2,6.8,11.4,11c0.4,0.7,0.1,1.7-0.6,2.1c-0.7,0.4-1.7,0.1-2.1-0.6c-2-3.7-5.5-7-10.3-9.8
	c-16.7-9.6-43.8-9.6-60.5,0c-7.8,4.5-12.1,10.4-12.2,16.5c0,6.2,4.3,12.1,12.2,16.7c14,8.1,36.3,9.5,53.1,3.3c0.8-0.3,1.7,0.1,2,0.9
	c0.3,0.8-0.1,1.7-0.9,2C70.7,200.4,62.3,201.8,54,201.8L54,201.8z"/>
<path class="st0" d="M57.9,190.1c-0.5,0-1.1-0.3-1.3-0.8c-0.4-0.7-0.1-1.7,0.6-2.1c1.9-1.1,3.8-2.1,5.8-3.2
	c3.8-2.1,7.7-4.3,12.2-6.7c0.3-0.2,0.5-0.3,0.6-0.4c-0.1-0.1-0.2-0.3-0.6-0.5c-1.3-0.8-2.7-1.6-4.2-2.4c-1.4-0.8-2.9-1.7-4.4-2.6
	c-0.8-0.5-3.2-0.8-4.6,0c-2.6,1.6-5.4,3.1-8.1,4.6c-2.4,1.3-4.7,2.5-6.6,3.7c0,0,0,0-0.1,0c-2.3,1.2-5.3,1.2-7.5,0c0,0-0.1,0-0.1,0
	c-2.3-1.4-4.7-2.9-7.9-4.6c0,0,0,0-0.1,0c-1.4-0.9-2.1-2.1-2.1-3.3c0.1-1.2,0.9-2.3,2.2-2.9c5.2-2.5,10.7-5.5,16.5-8.9
	c0.7-0.4,1.7-0.2,2.1,0.5c0.4,0.7,0.2,1.7-0.5,2.1c-5.8,3.5-11.5,6.5-16.7,9.1c-0.4,0.2-0.5,0.4-0.5,0.4l0,0c0,0,0.2,0.2,0.6,0.5
	c3.2,1.7,5.6,3.2,7.9,4.6c1.4,0.7,3.2,0.7,4.6,0c2-1.2,4.3-2.4,6.7-3.8c2.7-1.5,5.5-3,8-4.5c2.4-1.5,6.1-0.9,7.7,0
	c1.5,0.9,3,1.7,4.4,2.6c1.5,0.9,2.9,1.7,4.2,2.4c1.9,1.1,2.1,2.4,2.1,3.1c0,0.7-0.3,2-2.2,3c-4.5,2.4-8.4,4.6-12.1,6.7
	c-2,1.1-3.9,2.2-5.8,3.3C58.4,190,58.2,190.1,57.9,190.1L57.9,190.1z"/>
<path class="st0" d="M45.3,220.4c-11.5,0-22.9-2.6-31.7-7.6C5.2,207.8,0.4,201.3,0,194.3c-0.3-6.4,3.1-12.6,9.7-17.5
	c0.7-0.5,1.6-0.4,2.1,0.3c0.5,0.7,0.4,1.6-0.3,2.1c-5.7,4.2-8.7,9.5-8.4,14.8c0.3,5.9,4.6,11.6,12.1,15.9
	c15.8,9.1,41.4,9.6,58.3,1.1c0.8-0.4,1.7-0.1,2,0.7c0.4,0.8,0.1,1.7-0.7,2C66.2,218.3,55.8,220.4,45.3,220.4L45.3,220.4z"/>
<path class="st0" d="M173.4,175.4c-0.8,0-1.5-0.7-1.5-1.5v-49.7c0,0,0,0,0,0c0,0,0,0,0,0v-11c0-0.8,0.7-1.5,1.5-1.5
	c0.8,0,1.5,0.7,1.5,1.5v11c0,0,0,0,0,0c0,0,0,0,0,0v49.7C174.9,174.8,174.3,175.4,173.4,175.4L173.4,175.4z"/>
<path class="st0" d="M73.4,62.4c-0.8,0-1.5-0.7-1.5-1.5V19.8c0-0.8,0.7-1.5,1.5-1.5s1.5,0.7,1.5,1.5v41.1
	C74.9,61.7,74.2,62.4,73.4,62.4L73.4,62.4z"/>
<path class="st0" d="M94.3,153.4c-0.3,0-0.5-0.1-0.8-0.2l-2.4-1.4c-0.7-0.4-1-1.4-0.6-2.1c0.4-0.7,1.4-1,2.1-0.6l2.4,1.4
	c0.7,0.4,1,1.4,0.6,2.1C95.3,153.1,94.8,153.4,94.3,153.4L94.3,153.4z"/>
<path class="st0" d="M85.7,148.4L85.7,148.4c-0.9,0-1.6-0.7-1.6-1.5c0-0.8,0.7-1.5,1.5-1.5c0.8,0,1.6,0.7,1.6,1.5
	C87.2,147.7,86.6,148.4,85.7,148.4L85.7,148.4z"/>
<path class="st0" d="M41.9,104.6c-0.8,0-1.5-0.7-1.5-1.5v-24c0-0.8,0.7-1.5,1.5-1.5c0.8,0,1.5,0.7,1.5,1.5v24
	C43.4,103.9,42.7,104.6,41.9,104.6L41.9,104.6z"/>
<path class="st0" d="M64.9,170.9h-0.2c-0.8,0-1.5-0.7-1.5-1.5c0-0.8,0.7-1.5,1.5-1.5h0.2c0.8,0,1.5,0.7,1.5,1.5
	C66.4,170.2,65.8,170.9,64.9,170.9L64.9,170.9z"/>
<path class="st0" d="M68.6,173c-0.3,0-0.5-0.1-0.8-0.2l-3.7-2.1c-0.7-0.4-1-1.4-0.6-2.1c0.4-0.7,1.4-1,2.1-0.6l3.7,2.1
	c0.7,0.4,1,1.4,0.6,2.1C69.6,172.8,69.1,173,68.6,173L68.6,173z"/>
<path class="st0" d="M98.2,155.9c-0.5,0-1-0.3-1.3-0.8c-0.4-0.7-0.2-1.7,0.6-2.1l0.3-0.2c0.7-0.4,1.7-0.2,2.1,0.6
	c0.4,0.7,0.2,1.7-0.6,2.1l-0.3,0.2C98.7,155.9,98.4,155.9,98.2,155.9L98.2,155.9z"/>
<path class="st0" d="M130,114.9c-0.8,0-1.5-0.7-1.5-1.5v-1.3c0-0.8,0.7-1.5,1.5-1.5c0.8,0,1.5,0.7,1.5,1.5v1.3
	C131.5,114.2,130.9,114.9,130,114.9L130,114.9z"/>
<path class="st0" d="M85.7,152.1c-0.8,0-1.5-0.7-1.5-1.5v-36c0-0.8,0.7-1.5,1.5-1.5c0.8,0,1.5,0.7,1.5,1.5v36
	C87.2,151.5,86.5,152.1,85.7,152.1L85.7,152.1z"/>
<path class="st0" d="M85.7,152.3c-0.8,0-1.5-0.7-1.5-1.5v-0.1c0-0.8,0.7-1.5,1.5-1.5c0.8,0,1.5,0.7,1.5,1.5v0.1
	C87.2,151.6,86.5,152.3,85.7,152.3L85.7,152.3z"/>
<path class="st0" d="M85.7,158.5c-0.8,0-1.5-0.7-1.5-1.5v-6.4c0-0.8,0.7-1.5,1.5-1.5c0.8,0,1.5,0.7,1.5,1.5v6.4
	C87.2,157.8,86.5,158.5,85.7,158.5L85.7,158.5z"/>
<path class="st0" d="M173.4,125.7C173.4,125.7,173.4,125.7,173.4,125.7c-0.9,0-1.6-0.8-1.5-1.6c0.1-2.1,0.1-4.4,0-6.8
	c0-1.3,0-2.7,0-4.1c0-0.8,0.7-1.5,1.5-1.5c0.8,0,1.5,0.7,1.5,1.5c0,1.4,0,2.8,0,4.1c0,2.5,0.1,4.8,0,7
	C174.9,125,174.2,125.7,173.4,125.7L173.4,125.7z"/>
<path class="st0" d="M173.4,125.7c-0.8,0-1.5-0.7-1.5-1.5c0-0.8,0.7-1.6,1.5-1.6c0.8,0,1.5,0.7,1.5,1.5v0.1
	C174.9,125,174.3,125.7,173.4,125.7L173.4,125.7z"/>
<path class="st0" d="M85.9,129.5c-0.8,0-1.5-0.7-1.5-1.5v0c0-0.8,0.7-1.5,1.5-1.5c0.8,0,1.5,0.7,1.5,1.5
	C87.4,128.8,86.7,129.5,85.9,129.5L85.9,129.5z"/>
<path class="st0" d="M85.9,129.5c-0.7,0-1.4-0.5-1.5-1.3c-0.2-1-0.2-1.8-0.2-2.6c0-0.8,0.7-1.5,1.5-1.5c0.8,0,1.5,0.7,1.5,1.5
	c0,0.6,0.1,1.3,0.2,2.1c0.1,0.8-0.4,1.6-1.3,1.8C86,129.5,86,129.5,85.9,129.5L85.9,129.5z"/>
<path class="st0" d="M85.7,127.1c-0.8,0-1.5-0.7-1.5-1.5v-10.9c0-0.8,0.7-1.5,1.5-1.5c0.8,0,1.5,0.7,1.5,1.5v10.9
	C87.2,126.4,86.5,127.1,85.7,127.1L85.7,127.1z"/>
<path class="st0" d="M166.9,190.1c-0.8,0-1.5-0.7-1.5-1.5v-61.9c0-0.8,0.7-1.5,1.5-1.5c0.8,0,1.5,0.7,1.5,1.5v61.9
	C168.5,189.4,167.8,190.1,166.9,190.1L166.9,190.1z"/>
<path class="st0" d="M144.3,173.4c-0.8,0-1.5-0.7-1.5-1.5v-34.4c0-0.8,0.7-1.5,1.5-1.5c0.8,0,1.5,0.7,1.5,1.5v34.4
	C145.9,172.7,145.2,173.4,144.3,173.4L144.3,173.4z"/>
<path class="st0" d="M128.9,161.5c-0.8,0-1.5-0.7-1.5-1.5l-0.2-21.5c0-0.8,0.7-1.5,1.5-1.5c0,0,0,0,0,0c0.8,0,1.5,0.7,1.5,1.5
	l0.2,21.5C130.4,160.8,129.7,161.5,128.9,161.5C128.9,161.5,128.9,161.5,128.9,161.5L128.9,161.5z"/>
<path class="st0" d="M114.1,158.6c-0.8,0-1.5-0.7-1.5-1.5v-19.9c0-0.8,0.7-1.5,1.5-1.5c0.8,0,1.5,0.7,1.5,1.5v19.9
	C115.6,157.9,114.9,158.6,114.1,158.6L114.1,158.6z"/>
<path class="st0" d="M100.9,165.5c-0.8,0-1.5-0.7-1.5-1.5v-30.7c0-0.8,0.7-1.5,1.5-1.5c0.8,0,1.5,0.7,1.5,1.5v30.7
	C102.4,164.8,101.8,165.5,100.9,165.5L100.9,165.5z"/>
<path class="st0" d="M91.9,163.5c-0.8,0-1.5-0.7-1.5-1.5v-35.3c0-0.8,0.7-1.5,1.5-1.5c0.8,0,1.5,0.7,1.5,1.5V162
	C93.4,162.8,92.7,163.5,91.9,163.5L91.9,163.5z"/>
<path class="st0" d="M73.4,227c-0.8,0-1.5-0.7-1.5-1.5v-11.2c0-0.8,0.7-1.5,1.5-1.5c0.8,0,1.5,0.7,1.5,1.5v11.2
	C75,226.3,74.3,227,73.4,227L73.4,227z"/>
<path class="st0" d="M60.3,231.2c-0.8,0-1.5-0.7-1.5-1.5v-12c0-0.8,0.7-1.5,1.5-1.5c0.8,0,1.5,0.7,1.5,1.5v12
	C61.8,230.6,61.1,231.2,60.3,231.2L60.3,231.2z"/>
<path class="st0" d="M44.8,232.7c-0.8,0-1.5-0.7-1.5-1.5L43,218.9c0-0.8,0.7-1.5,1.5-1.6c0.8,0,1.5,0.7,1.6,1.5l0.2,12.4
	C46.3,232,45.6,232.7,44.8,232.7C44.8,232.7,44.8,232.7,44.8,232.7L44.8,232.7z"/>
<path class="st0" d="M30,231.1c-0.8,0-1.5-0.7-1.5-1.5v-12.2c0-0.8,0.7-1.5,1.5-1.5c0.8,0,1.5,0.7,1.5,1.5v12.2
	C31.5,230.4,30.8,231.1,30,231.1L30,231.1z"/>
<path class="st0" d="M16.8,226.7c-0.8,0-1.5-0.7-1.5-1.5v-11.7c0-0.8,0.7-1.5,1.5-1.5c0.8,0,1.5,0.7,1.5,1.5v11.7
	C18.3,226,17.7,226.7,16.8,226.7L16.8,226.7z"/>
<path class="st0" d="M7.8,220.1c-0.8,0-1.5-0.7-1.5-1.5V207c0-0.8,0.7-1.5,1.5-1.5c0.8,0,1.5,0.7,1.5,1.5v11.6
	C9.3,219.4,8.6,220.1,7.8,220.1L7.8,220.1z"/>
<path class="st0" d="M69,212.7c-0.8,0-1.5-0.7-1.5-1.5v-12c0-0.8,0.7-1.5,1.5-1.5c0.8,0,1.5,0.7,1.5,1.5v12
	C70.5,212,69.8,212.7,69,212.7L69,212.7z"/>
<path class="st0" d="M53.5,214.1c-0.8,0-1.5-0.7-1.5-1.5l-0.1-12.4c0-0.8,0.7-1.5,1.5-1.5c0,0,0,0,0,0c0.8,0,1.5,0.7,1.5,1.5
	l0.1,12.4C55,213.4,54.3,214.1,53.5,214.1C53.5,214.1,53.5,214.1,53.5,214.1L53.5,214.1z"/>
<path class="st0" d="M38.8,212.5c-0.8,0-1.5-0.7-1.5-1.5v-12.2c0-0.8,0.7-1.5,1.5-1.5s1.5,0.7,1.5,1.5V211
	C40.3,211.9,39.6,212.5,38.8,212.5L38.8,212.5z"/>
<path class="st0" d="M25.6,208.2c-0.8,0-1.5-0.7-1.5-1.5v-11.7c0-0.8,0.7-1.5,1.5-1.5c0.8,0,1.5,0.7,1.5,1.5v11.7
	C27.1,207.5,26.4,208.2,25.6,208.2L25.6,208.2z"/>
<path class="st0" d="M16.7,201.6c-0.8,0-1.5-0.7-1.5-1.5v-11.7c0-0.8,0.7-1.5,1.5-1.5c0.8,0,1.5,0.7,1.5,1.5V200
	C18.2,200.9,17.5,201.6,16.7,201.6L16.7,201.6z"/>
<path class="st0" d="M137.9,166.9c-0.3,0-0.5-0.1-0.8-0.2l-10.7-6.3c-0.7-0.4-1-1.4-0.6-2.1c0.4-0.7,1.4-1,2.1-0.6l10.7,6.3
	c0.7,0.4,1,1.4,0.5,2.1C138.9,166.7,138.4,166.9,137.9,166.9L137.9,166.9z"/>
<path class="st0" d="M85.1,230.4c-0.3,0-0.5-0.1-0.8-0.2l-10.2-5.9c-0.7-0.4-1-1.4-0.6-2.1c0.4-0.7,1.4-1,2.1-0.6l10.3,5.9
	c0.7,0.4,1,1.4,0.6,2.1C86.1,230.1,85.6,230.4,85.1,230.4L85.1,230.4z"/>
<path class="st0" d="M83.9,218.8c-0.3,0-0.5-0.1-0.8-0.2l-9.7-5.6c-0.7-0.4-1-1.4-0.5-2.1c0.4-0.7,1.4-1,2.1-0.5l9.7,5.6
	c0.7,0.4,1,1.4,0.5,2.1C85,218.5,84.5,218.8,83.9,218.8L83.9,218.8z"/>
<path class="st0" d="M87.5,205.6c-0.3,0-0.5-0.1-0.8-0.2l-10.4-6c-0.7-0.4-1-1.4-0.6-2.1c0.4-0.7,1.4-1,2.1-0.6l10.4,6
	c0.7,0.4,1,1.4,0.6,2.1C88.5,205.4,88,205.6,87.5,205.6L87.5,205.6z"/>
<path class="st0" d="M94.4,191.5c-0.3,0-0.5-0.1-0.7-0.2l-10.8-6.1c-0.7-0.4-1-1.3-0.6-2.1c0.4-0.7,1.3-1,2.1-0.6l10.8,6.1
	c0.7,0.4,1,1.3,0.6,2.1C95.5,191.3,95,191.5,94.4,191.5L94.4,191.5z"/>
<path class="st0" d="M102.9,179.6c-0.3,0-0.5-0.1-0.8-0.2l-10.5-6.1c-0.7-0.4-1-1.4-0.5-2.1c0.4-0.7,1.4-1,2.1-0.5l10.5,6.1
	c0.7,0.4,1,1.4,0.6,2.1C103.9,179.3,103.4,179.6,102.9,179.6L102.9,179.6z"/>
<path class="st0" d="M112.9,170.1c-0.3,0-0.5-0.1-0.8-0.2l-10.1-5.8c-0.7-0.4-1-1.3-0.6-2.1c0.4-0.7,1.3-1,2.1-0.6l10.1,5.8
	c0.7,0.4,1,1.3,0.6,2.1C113.9,169.8,113.4,170.1,112.9,170.1L112.9,170.1z"/>
<path class="st0" d="M123,165.6c-0.3,0-0.5-0.1-0.8-0.2l-10-5.7c-0.7-0.4-1-1.4-0.6-2.1c0.4-0.7,1.4-1,2.1-0.6l10,5.7
	c0.7,0.4,1,1.4,0.6,2.1C124,165.3,123.5,165.6,123,165.6L123,165.6z"/>
<path class="st0" d="M115.7,228.5c-0.8,0-1.5-0.7-1.5-1.5v-47.2c0-0.8,0.7-1.5,1.5-1.5c0.8,0,1.5,0.7,1.5,1.5V227
	C117.2,227.8,116.5,228.5,115.7,228.5L115.7,228.5z"/>
<path class="st0" d="M157.5,196.3c-0.8,0-1.5-0.7-1.5-1.5v-62.1c0-0.8,0.7-1.5,1.5-1.5c0.8,0,1.5,0.7,1.5,1.5v62.1
	C159.1,195.6,158.4,196.3,157.5,196.3L157.5,196.3z"/>
<path class="st0" d="M149.9,126.6c-0.3,0-0.5-0.1-0.8-0.2c-5.2-3-10.4-6.1-15.4-9.1c-8.4-5-17.1-10.2-26-15.1
	c-0.7-0.4-1-1.3-0.6-2.1c0.4-0.7,1.3-1,2.1-0.6c8.8,4.9,17.6,10.1,26,15.1c5,3,10.2,6,15.4,9.1c0.7,0.4,1,1.4,0.6,2.1
	C150.9,126.4,150.4,126.6,149.9,126.6L149.9,126.6z"/>
<path class="st0" d="M109.6,160.7c-0.1,0-0.3,0-0.4-0.1c-15.6-4.4-24.9-13.4-25.1-24c0-0.8,0.7-1.5,1.5-1.5c0.9,0,1.5,0.7,1.5,1.5
	c0.1,9.2,8.6,17.1,22.8,21.1c0.8,0.2,1.3,1.1,1,1.9C110.9,160.2,110.3,160.7,109.6,160.7L109.6,160.7z"/>
<path class="st0" d="M85.7,138.1c-0.8,0-1.5-0.7-1.5-1.5v-12.4c0-0.8,0.7-1.5,1.5-1.5c0.8,0,1.5,0.7,1.5,1.5v12.4
	C87.2,137.4,86.5,138.1,85.7,138.1L85.7,138.1z"/>
<path class="st0" d="M85.7,152.1c-0.8,0-1.5-0.7-1.5-1.5v-12.4c0-0.8,0.7-1.5,1.5-1.5c0.8,0,1.5,0.7,1.5,1.5v12.4
	C87.2,151.5,86.5,152.1,85.7,152.1L85.7,152.1z"/>
<path class="st0" d="M54.5,214.1c-13.5,0-27-3.5-35.8-9.8c-6.4-4.7-9.9-10.5-10.1-16.9c0-0.8,0.6-1.5,1.5-1.6c0.8,0,1.5,0.6,1.6,1.5
	c0.1,5.4,3.2,10.5,8.8,14.5c12.6,9.1,35.6,11.9,53.4,6.5c0.8-0.2,1.7,0.2,1.9,1c0.2,0.8-0.2,1.7-1,1.9
	C68.5,213.2,61.5,214.1,54.5,214.1L54.5,214.1z"/>
<path class="st0" d="M10.2,188.9c-0.8,0-1.5-0.7-1.5-1.5v-12.4c0-0.8,0.7-1.5,1.5-1.5c0.8,0,1.5,0.7,1.5,1.5v12.4
	C11.8,188.2,11.1,188.9,10.2,188.9L10.2,188.9z"/>
<path class="st0" d="M74.6,188.3c-0.3,0-0.5-0.1-0.8-0.2c-4.8-2.8-9.6-5.6-14.2-8.4c-8.8-5.2-17.9-10.6-27.1-15.7
	c-0.7-0.4-1-1.3-0.6-2.1c0.4-0.7,1.3-1,2.1-0.6c9.3,5.1,18.4,10.6,27.2,15.8c4.6,2.7,9.4,5.6,14.2,8.4c0.7,0.4,1,1.4,0.6,2.1
	C75.6,188,75.1,188.3,74.6,188.3L74.6,188.3z"/>
<path class="st0" d="M45.5,232.6c-11.9,0-23.9-2.7-32.7-7.9C4.6,219.8,0.2,213.3,0,205.9c0-0.8,0.7-1.5,1.5-1.5c0,0,0,0,0,0
	c0.8,0,1.5,0.7,1.5,1.5c0.1,7.9,6.2,13.2,11.3,16.2c16,9.5,42.8,10.1,59.8,1.3c0.7-0.4,1.7-0.1,2.1,0.6c0.4,0.7,0.1,1.7-0.6,2.1
	C67.1,230.5,56.3,232.6,45.5,232.6L45.5,232.6z"/>
<path class="st0" d="M1.6,207.4c-0.8,0-1.5-0.7-1.5-1.5v-12.4c0-0.8,0.7-1.5,1.5-1.5c0.8,0,1.5,0.7,1.5,1.5v12.4
	C3.1,206.8,2.4,207.4,1.6,207.4L1.6,207.4z"/>
<path class="st0" d="M113.9,26.2c-0.1,0-0.1,0-0.2-0.1c-0.2-0.1-0.3-0.4-0.2-0.6l7.7-13.4c0.1-0.2,0.4-0.3,0.6-0.2
	c0.2,0.1,0.3,0.4,0.2,0.6L114.3,26C114.2,26.1,114.1,26.2,113.9,26.2L113.9,26.2z"/>
<path class="st0" d="M92.2,30.4c-0.1,0-0.1,0-0.2-0.1c-0.2-0.1-0.3-0.4-0.2-0.6L107,3.3c0.1-0.2,0.4-0.3,0.6-0.2
	c0.2,0.1,0.3,0.4,0.2,0.6L92.5,30.2C92.5,30.3,92.3,30.4,92.2,30.4L92.2,30.4z"/>
<path class="st0" d="M78.1,21.2c-0.1,0-0.1,0-0.2-0.1c-0.2-0.1-0.3-0.4-0.2-0.6l1.8-3.1c0.1-0.2,0.4-0.3,0.6-0.2
	c0.2,0.1,0.3,0.4,0.2,0.6L78.5,21C78.4,21.2,78.2,21.2,78.1,21.2L78.1,21.2z"/>
<path class="st0" d="M109.6,90c-0.1,0-0.3-0.1-0.4-0.2L101,75.6c-0.1-0.2,0-0.5,0.2-0.6c0.2-0.1,0.5,0,0.6,0.2l8.1,14.1
	c0.1,0.2,0,0.5-0.2,0.6C109.7,89.9,109.6,90,109.6,90L109.6,90z"/>
<path class="st0" d="M128,88.3c-0.1,0-0.3-0.1-0.4-0.2l-27.1-47.1c-0.1-0.2,0-0.5,0.2-0.6c0.2-0.1,0.5,0,0.6,0.2l27.1,47.1
	c0.1,0.2,0,0.5-0.2,0.6C128.1,88.3,128,88.3,128,88.3L128,88.3z"/>
<path class="st0" d="M130.8,59.7c-0.1,0-0.3-0.1-0.4-0.2l-17.9-31.1c-0.1-0.2,0-0.5,0.2-0.6c0.2-0.1,0.5-0.1,0.6,0.2l17.9,31.1
	c0.1,0.2,0,0.5-0.2,0.6C130.9,59.7,130.9,59.7,130.8,59.7L130.8,59.7z"/>
<path class="st0" d="M130.3,25.4c-0.1,0-0.3-0.1-0.4-0.2l-2.4-4.2c-0.1-0.2,0-0.5,0.2-0.6c0.2-0.1,0.5,0,0.6,0.2l2.4,4.2
	c0.1,0.2,0,0.5-0.2,0.6C130.4,25.3,130.3,25.4,130.3,25.4L130.3,25.4z"/>
<path class="st0" d="M82.6,85.4c-0.1,0-0.1,0-0.2-0.1c-0.2-0.1-0.3-0.4-0.2-0.6l7.6-13.2c0.1-0.2,0.4-0.3,0.6-0.2
	c0.2,0.1,0.3,0.4,0.2,0.6L83,85.1C82.9,85.3,82.8,85.4,82.6,85.4L82.6,85.4z"/>
<path class="st0" d="M68,94c-0.1,0-0.1,0-0.2-0.1c-0.2-0.1-0.3-0.4-0.2-0.6l15.2-26.4c0.1-0.2,0.4-0.3,0.6-0.2
	c0.2,0.1,0.3,0.4,0.2,0.6L68.3,93.7C68.3,93.9,68.1,94,68,94L68,94z"/>
<path class="st0" d="M60.7,89.8c-0.1,0-0.1,0-0.2-0.1c-0.2-0.1-0.3-0.4-0.2-0.6l15.2-26.4c0.1-0.2,0.4-0.3,0.6-0.2
	c0.2,0.1,0.3,0.4,0.2,0.6L61.1,89.6C61,89.7,60.9,89.8,60.7,89.8L60.7,89.8z"/>
<path class="st0" d="M53.7,85.3c-0.1,0-0.1,0-0.2-0.1c-0.2-0.1-0.3-0.4-0.2-0.6l9.6-16.7c0.1-0.2,0.4-0.3,0.6-0.2
	c0.2,0.1,0.3,0.4,0.2,0.6l-9.6,16.7C54,85.2,53.8,85.3,53.7,85.3L53.7,85.3z"/>
<path class="st0" d="M46.7,80.7c-0.1,0-0.1,0-0.2-0.1c-0.2-0.1-0.3-0.4-0.2-0.6l1.9-3.3c0.1-0.2,0.4-0.3,0.6-0.2
	c0.2,0.1,0.3,0.4,0.2,0.6l-1.9,3.3C47,80.6,46.9,80.7,46.7,80.7L46.7,80.7z"/>
<path class="st0" d="M81.6,64.9c-0.1,0-0.3-0.1-0.4-0.2c-0.1-0.2,0-0.5,0.2-0.6L99,53.9c0.2-0.1,0.5-0.1,0.6,0.2
	c0.1,0.2,0,0.5-0.2,0.6L81.8,64.8C81.7,64.9,81.6,64.9,81.6,64.9L81.6,64.9z"/>
<path class="st0" d="M74.2,49.8c-0.1,0-0.3-0.1-0.4-0.2c-0.1-0.2,0-0.5,0.2-0.6l24.6-14.2c0.2-0.1,0.5,0,0.6,0.2
	c0.1,0.2,0,0.5-0.2,0.6L74.4,49.8C74.3,49.8,74.2,49.8,74.2,49.8L74.2,49.8z"/>
<path class="st0" d="M74.8,30.2c-0.2,0-0.3-0.1-0.4-0.2c-0.1-0.2-0.1-0.5,0.2-0.6l6.7-3.9c0.2-0.1,0.5,0,0.6,0.2
	c0.1,0.2,0.1,0.5-0.2,0.6L75,30.1C74.9,30.2,74.9,30.2,74.8,30.2L74.8,30.2z"/>
<path class="st0" d="M77.1,152.4c-0.1,0-0.3-0.1-0.4-0.2l-7.2-12.4c-0.1-0.2,0-0.5,0.2-0.6c0.2-0.1,0.5,0,0.6,0.2l7.2,12.4
	c0.1,0.2,0,0.5-0.2,0.6C77.2,152.4,77.1,152.4,77.1,152.4L77.1,152.4z"/>
<path class="st0" d="M84.7,148.9c-0.1,0-0.3-0.1-0.4-0.2l-15.1-26c-0.1-0.2,0-0.5,0.2-0.6c0.2-0.1,0.5-0.1,0.6,0.2l15.1,26
	c0.1,0.2,0,0.5-0.2,0.6C84.8,148.8,84.8,148.9,84.7,148.9L84.7,148.9z"/>
<path class="st0" d="M84.7,132.1c-0.1,0-0.3-0.1-0.4-0.2l-15.1-26c-0.1-0.2,0-0.5,0.2-0.6c0.2-0.1,0.5,0,0.6,0.2l15.1,26
	c0.1,0.2,0,0.5-0.2,0.6C84.8,132.1,84.8,132.1,84.7,132.1L84.7,132.1z"/>
<path class="st0" d="M84.5,115.2c-0.2,0-0.3-0.1-0.4-0.2L71.8,93.5c-0.1-0.2,0-0.5,0.2-0.6c0.2-0.1,0.5,0,0.6,0.2l12.4,21.5
	c0.1,0.2,0,0.5-0.2,0.6C84.7,115.2,84.6,115.2,84.5,115.2L84.5,115.2z"/>
<path class="st0" d="M87.7,103.8c-0.1,0-0.3-0.1-0.4-0.2l-8.1-14c-0.1-0.2,0-0.5,0.2-0.6c0.2-0.1,0.5,0,0.6,0.2l8.2,14
	c0.1,0.2,0,0.5-0.2,0.6C87.8,103.8,87.8,103.8,87.7,103.8L87.7,103.8z"/>
<path class="st0" d="M93.7,97.5c-0.1,0-0.3-0.1-0.4-0.2l-6.9-11.9c-0.1-0.2,0-0.5,0.2-0.6c0.2-0.1,0.5-0.1,0.6,0.2l6.9,11.9
	c0.1,0.2,0,0.5-0.2,0.6C93.9,97.5,93.8,97.5,93.7,97.5L93.7,97.5z"/>
<path class="st0" d="M98.8,89.6c-0.1,0-0.3-0.1-0.4-0.2l-4.6-7.9c-0.1-0.2,0-0.5,0.2-0.6c0.2-0.1,0.5-0.1,0.6,0.2l4.6,7.9
	c0.1,0.2,0.1,0.5-0.2,0.6C98.9,89.5,98.9,89.6,98.8,89.6L98.8,89.6z"/>
<path class="st0" d="M58.6,111.7c-0.1,0-0.3-0.1-0.4-0.2c-0.1-0.2,0-0.5,0.2-0.6l8.7-5c0.2-0.1,0.5,0,0.6,0.2c0.1,0.2,0,0.5-0.2,0.6
	l-8.7,5C58.8,111.7,58.7,111.7,58.6,111.7L58.6,111.7z"/>
<path class="st0" d="M49.9,107.1c-0.1,0-0.3-0.1-0.4-0.2c-0.1-0.2,0-0.5,0.2-0.6L67.4,96c0.2-0.1,0.5,0,0.6,0.2
	c0.1,0.2,0.1,0.5-0.2,0.6L50.1,107C50.1,107,50,107.1,49.9,107.1L49.9,107.1z"/>
<path class="st0" d="M42.9,101.5c-0.1,0-0.3-0.1-0.4-0.2c-0.1-0.2,0-0.5,0.2-0.6l17.6-10.1c0.2-0.1,0.5,0,0.6,0.2
	c0.1,0.2,0,0.5-0.2,0.6l-17.6,10.1C43,101.4,42.9,101.5,42.9,101.5L42.9,101.5z"/>
<path class="st0" d="M43.2,91.6c-0.1,0-0.3-0.1-0.4-0.2c-0.1-0.2,0-0.5,0.2-0.6l8.6-5c0.2-0.1,0.5,0,0.6,0.2c0.1,0.2,0,0.5-0.2,0.6
	l-8.6,5C43.3,91.6,43.2,91.6,43.2,91.6L43.2,91.6z"/>
</svg>
