<?xml version="1.0" encoding="utf-8"?>
<!-- Generator: Adobe Illustrator 24.1.2, SVG Export Plug-In . SVG Version: 6.00 Build 0)  -->
<svg version="1.1" id="Camada_1" xmlns="http://www.w3.org/2000/svg" xmlns:xlink="http://www.w3.org/1999/xlink" x="0px" y="0px"
	 viewBox="0 0 414.2 414.1" style="enable-background:new 0 0 414.2 414.1;" xml:space="preserve">
<style type="text/css">
	.st0{fill:#FFFFFF;}
</style>
<g>
	<path class="st0" d="M26.8,257.5c0,43.3,0,86.4,0,129.4c1.8,0.6,18.2,0.7,21,0.1c0-0.9,0-2,0-3c0-24.3,0-48.6,0-72.9
		c0-2.9,0.4-5.7,1.9-8.3c2.6-4.3,6.6-6.4,11.5-6.7c2.9-0.2,5.8,0,8.6,0c13,0,25.9,0,38.9,0c3.7,0,7.1,1,9.9,3.4
		c2.6,2.2,4,5.1,4.4,8.5c0.1,1.1,0.1,2.2,0.1,3.4c0,17.4,0,34.7,0,52.1c0,3-0.3,5.8-1.9,8.5c-2.6,4.5-8.2,7.3-13.4,6.4
		c-5.5-1-9.7-4.9-10.8-9.9c-0.4-1.8-0.6-3.6-0.6-5.5c-0.1-12.2,0-24.5,0-36.7c0-1,0-2,0-3c-1.9-0.6-18.7-0.7-21.7-0.3
		c-0.5,1.8-0.6,61.3-0.1,63.9c1.7,0.5,309.8,0.6,312.7,0.1c0-1,0.1-2.1,0.1-3.2c0-50.6,0-101.2,0-151.9c0-1.9,0.1-3.9,0.6-5.7
		c1.3-5.1,4.6-8.3,9.8-9.7c8.3-2.3,16.6,5,16.2,12.9c0,0.5,0,1,0,1.4c0,56.1,0,112.3,0,168.4c0,2.7-0.2,5.4-1.6,7.9
		c-2.6,4.3-6.3,6.7-11.3,6.8c-0.8,0-1.6,0-2.4,0c-127.8,0-255.6,0-383.4,0c-2.3,0-4.6,0.1-6.8-0.8c-5.2-2.3-8.1-6.2-8.6-11.9
		c-0.1-0.8,0-1.6,0-2.4c0-49.8,0-99.6,0-149.5c0-3.1,0.4-6,2-8.7c1.2-2.1,2.9-3.7,5.1-4.8c3.7-1.8,7.7-2.6,11.5-3.8
		c1.9-0.6,3.8-1.2,5.7-1.8c0.6-5,1.1-9.7,1.7-14.5c0.9-7.2,2-14.4,3-21.6c0.7-5,1.2-10,1.8-15c0.4-3.5,1-6.9,1.5-10.4
		c0.6-4.6,1.1-9.2,1.7-13.8c0.7-5.5,1.4-11.1,2.2-16.6c0.4-2.8,0.7-5.7,1.1-8.5c0.4-3.4,0.9-6.8,1.3-10.2c0.2-1.3,0.3-2.5,0.4-3.9
		c-1.1-0.6-2.1-1-3-1.6c-5-2.8-7.3-7.2-6.8-12.9c0.5-5.3,3.3-9,8.3-11c0.7-0.3,1.5-0.6,2.3-0.7c2.6-0.4,3-0.7,3.3-3.4
		c0.3-2.3,0.5-4.6,0.7-6.9c0.5-3.7,1-7.4,1.5-11.1c0.3-2.4,0.6-4.8,0.9-7.1c0.8-5.8,6.3-11,12.9-11c18.1,0,36.1,0,54.2,0
		c7,0,12.6,5.8,13.1,12.1c0.4,4.8,1.3,9.5,1.9,14.2c0.5,3.4,0.9,6.8,1.3,10.2c0.3,2.3,0.5,2.6,2.9,3c4.8,0.8,8.1,3.6,10,8
		c3,7-0.9,14.2-6.5,16.9c-2.4,1.2-2.3,1.2-2,3.8c1,7.7,2,15.4,3,23c0.8,6.4,1.7,12.8,2.5,19.2c0.8,6.1,1.8,12.2,2.4,18.3
		c0.6,5.3-1.6,9.5-6.1,12.4c-8.1,5-18.2,0.4-20-8.6c-0.8-4-1.1-8.1-1.7-12.1c-0.6-4.7-1.3-9.3-2-14c-0.6-4.6-1.2-9.2-1.8-13.8
		c-0.5-3.9-1.1-7.7-1.6-11.6c-0.6-4.4-1.1-8.9-1.7-13.3c-0.2-1.8-0.4-2-2.2-2.1c-1-0.1-2.1,0-3.1,0c-10.7,0-21.4,0-32.1,0
		c-0.6,0-1.3,0-1.9,0c-1.2,0-1.8,0.6-1.9,1.9c-0.8,6.7-1.6,13.5-2.5,20.2c-0.8,6.3-1.6,12.7-2.5,19c-0.8,6.2-1.5,12.4-2.4,18.5
		c-1,7.2-2,14.4-3,21.6c-0.7,5.1-1.2,10.3-1.8,15.5c-0.3,2.7-0.7,5.4-1,8.1c-0.1,0.5,0,0.9,0,1.7c2.4-0.6,4.6-1.2,6.8-1.8
		c7.3-2.1,14.5-4.1,21.8-6.2c6-1.7,12-3.6,18.1-5.3c6.2-1.8,12.4-3.4,18.6-5.2c6.1-1.8,12.2-3.7,18.3-5.5c6.1-1.8,12.3-3.4,18.4-5.1
		c1.7-0.5,3.4-1,5.1-1.4c1.1-0.3,1.5-0.9,1.7-2c0.5-4.2,1-8.4,1.6-12.6c0.7-4.8,1.4-9.6,2.1-14.5c0.4-3.2,0.8-6.3,1.2-9.5
		c0.3-2.4,0.6-4.7,0.9-7.1c1-8.2,2-16.5,3.1-24.7c0.2-1.8,0.6-3.6,0.9-5.4c-1.2-0.6-2.2-1.1-3.1-1.6c-5.3-3.1-7.4-7.8-6.7-13.7
		c0.6-4.6,3.9-8.8,9.4-10.7c0.6-0.2,1.3-0.2,1.9-0.3c1.4,0,2-0.8,2.1-2.1c0.6-5,1.3-10,1.9-15c0.5-4,0.8-8,1.6-11.9
		c1.3-6.1,6.2-10.3,12.3-10.5c4.6-0.1,9.1-0.1,13.7-0.1c13.5,0,27,0,40.5,0c4.3,0,7.9,1.5,10.7,4.8c1.6,1.9,2.6,4,2.9,6.5
		c0.8,6.3,1.7,12.7,2.5,19c0.3,2.3,0.6,4.6,0.9,6.9c0.3,1.8,0.6,2.1,2.4,2.3c6.1,0.7,11.6,6.3,11.2,13.6c-0.3,5.5-3,9.2-7.8,11.7
		c-0.6,0.3-1.2,0.5-1.7,0.8c-0.1,0-0.1,0.1-0.2,0.2c0,0.5-0.1,1,0,1.6c0.8,5.9,1.6,11.9,2.4,17.8c0.6,4.7,1.3,9.5,2,14.2
		c0.7,5.5,1.4,10.9,2.1,16.4c0.7,5.1,1.5,10.3,2.2,15.4c0.3,2,0.5,4,0.7,6c0.4,3.3,0.9,6.7,1,10c0.2,5-3.4,11.3-11,12.8
		c-5.2,1-11.6-1.9-14-7.3c-0.6-1.4-1.1-3-1.4-4.5c-0.5-2.6-0.7-5.2-1-7.8c-0.4-3.3-0.9-6.6-1.4-10c-0.1-0.8-0.2-1.6-0.3-2.4
		c-0.7-5.4-1.4-10.8-2.1-16.1c-0.6-5-1.2-10-1.9-15c-0.6-4.9-1.3-9.8-2-14.7c-0.4-3.2-0.8-6.3-1.2-9.5c-0.2-1.8-0.5-3.6-0.7-5.5
		c-0.1-1-0.6-1.4-1.6-1.5c-0.6,0-1.1,0-1.7,0c-11.5,0-23,0-34.5,0c-0.4,0-0.8,0-1.2,0c-1.8,0.1-2,0.3-2.3,2.1
		c-1,7.4-2.1,14.7-3,22.1c-1,7.4-1.8,14.7-2.7,22.1c-0.6,4.7-1.4,9.5-2,14.2c-0.3,2-0.4,4.1-0.6,6.5c1.1-0.1,1.9-0.1,2.7-0.3
		c3.8-1.1,7.6-2.3,11.4-3.3c6.4-1.7,12.1,0.6,15.4,6.3c0.8,1.4,1.2,3.1,1.5,4.7c0.3,1.4,0.2,2.9,0.2,4.3c0,10.7,0,21.4,0,32.1
		c0,0.9,0,1.9,0,3.1c1.8-0.4,3.1-0.6,4.5-1c5.5-1.5,11-3.1,16.5-4.7c4.8-1.4,9.6-2.9,14.4-4.3c6.3-1.8,12.5-3.5,18.8-5.4
		c3.4-1,6.7-2.1,10-3c3.4-1,6.9-1.8,10.4-2.8c4.8-1.4,9.6-2.9,14.4-4.3c6.2-1.8,12.4-3.5,18.6-5.3c3.3-0.9,6.5-2,9.8-2.9
		c3.5-1,7.1-1.9,10.6-2.9c4.7-1.3,9.5-2.8,14.2-4.1c6.3-1.8,12.7-3.6,19-5.4c5.2-1.5,10.3-3.2,15.6-4.5c8.7-2.1,15,2.9,16.6,9.7
		c1.6,6.7-1.9,13.6-9.3,15.9c-3.6,1.1-7.2,2.1-10.8,3.1c-6.3,1.8-12.5,3.7-18.8,5.4c-6.1,1.7-12.3,3.4-18.4,5.2
		c-3.2,0.9-6.4,1.9-9.6,2.8c-6.3,1.8-12.6,3.5-18.8,5.3c-4.9,1.4-9.8,2.9-14.6,4.3c-6.3,1.8-12.6,3.6-18.8,5.4
		c-6.1,1.8-12.2,3.6-18.3,5.4c-6.2,1.8-12.4,3.4-18.6,5.2c-3,0.8-6,1.7-8.9,2.6c-3.7,1.1-7.3,2.1-11,3.1c-4.7,1.3-9.3,2.7-14,4.1
		c-4.3,1.3-8.5,2.8-12.8,3.8c-7.4,1.6-13.8-1.2-16.4-8.7c-0.7-2-0.7-4.2-0.7-6.4c-0.1-10.7,0-21.4,0-32.1c0-1-0.1-2-0.2-3.5
		C137.9,225.6,82.5,241.5,26.8,257.5z M101.1,76.8c-1.1,0-1.9,0-2.8,0c-4.9,0-9.7,0-14.6,0c-3.4,0-6.9,0-10.3,0
		c-2.7,0-2.7,0.1-2.9,2.6c-0.1,1.4-0.4,2.8-0.5,4.3c-0.2,1.3-0.3,2.7-0.4,4.1c-0.1,1.1,0.3,1.7,1.4,1.7c0.4,0,0.8,0,1.2,0
		c9.4,0,18.9,0,28.3,0c0.7,0,1.4-0.1,2.4-0.2C102.5,85,102.3,81,101.1,76.8z M234.5,89.1c0-0.3,0.2-0.7,0.1-1.1
		c-0.3-3.2-0.7-6.3-1-9.5c-0.1-1.4-1-1.6-2.2-1.6c-9,0-17.9,0-26.9,0c-1.7,0-1.9,0.2-2.1,1.9c-0.3,2.1-0.7,4.3-0.9,6.4
		c-0.1,1.3,0,2.7,0,4C203.9,89.7,232.4,89.6,234.5,89.1z"/>
	<path class="st0" d="M167.4,26.6c-7.6,0.2-15.2,0.3-22.7,1.6c-5.2,0.9-10.4,1.5-15.5,2.7c-5.5,1.4-11,3.1-16.4,5.1
		c-5.3,2-10.3,4.5-15.5,6.7c-7.5,3.2-15.6-0.1-18.1-7.7c-2.2-6.8,0.3-12.9,6.6-16.2c8-4.2,16.3-7.7,24.8-10.3
		c7-2.2,14.2-4.3,21.5-5.2c4.6-0.6,9.1-1.5,13.7-2.1c3.6-0.5,7.2-0.7,10.7-0.9c8.2-0.3,16.5-0.5,24.7,0.3c4.5,0.4,8.9,0.7,13.4,1.2
		c3.7,0.4,7.4,1,11.1,1.5c3.5,0.5,6.9,1,10.4,1.6c3.7,0.6,7.4,1.4,11,2.1c5.8,1.2,11.7,2.4,17.5,3.7c5.5,1.3,11,2.7,16.4,4.2
		c5,1.3,10,2.6,15,4c5.3,1.5,10.6,3,15.9,4.4c3.7,1,7.4,1.8,11.1,2.8c3.5,0.9,6.9,1.9,10.4,2.8c2.3,0.6,4.6,1.1,7,1.6
		c3.4,0.7,6.9,1.3,10.3,2c4.4,0.8,8.8,1.6,13.3,1.8c3.2,0.1,6.4,0.6,9.5,0.7c9.2,0.2,17.7-1.9,25.5-7.1c7.5-5,17.2-0.6,19.4,7.4
		c1.6,5.7,0.4,10.7-4.8,14.7c-5.5,4.1-11.7,7.1-18.3,9c-7.1,2-14.4,2.6-21.8,2.7c-6.2,0-12.3-0.4-18.4-1.4
		c-5.4-0.9-10.9-1.7-16.3-2.7c-4-0.8-7.9-2-11.8-2.9c-2.6-0.6-5.1-1.1-7.7-1.8c-3.8-1-7.5-2-11.3-3c-3.5-0.9-6.9-1.8-10.4-2.7
		c-3.5-1-7-2-10.6-3c-3.4-0.9-6.8-1.8-10.1-2.7c-2.7-0.7-5.4-1.5-8.1-2.2c-2.5-0.6-5-1.2-7.4-1.8c-4.2-1-8.3-2.1-12.5-3
		c-3.2-0.7-6.4-1.3-9.6-1.9c-5.3-1-10.6-2.1-16-3c-3.1-0.5-6.2-0.8-9.3-1.2c-3.1-0.3-6.2-0.7-9.3-0.9
		C179,27.1,173.2,26.9,167.4,26.6z"/>
	<path class="st0" d="M353.3,105.5c-5.2-0.4-10.4-0.5-15.5-1.2c-6.6-0.9-13.1-2-19.6-3.3c-6.8-1.4-13.5-3.1-20.2-4.8
		c-4-1-8-2-12-3.2c-5.5-1.6-8.9-6.5-9.4-11.5c-0.5-6.5,3.1-12.1,10.1-14.1c2.1-0.6,4.5-0.5,6.6,0c6.2,1.4,12.4,3.1,18.5,4.6
		c3.9,1,7.8,2.1,11.8,3c3.4,0.7,6.9,1.2,10.4,1.8c2.9,0.5,5.8,1,8.7,1.3c3.8,0.3,7.7,0.6,11.5,0.5c3.8-0.1,7.7-0.4,11.4-1.1
		c3.7-0.6,7.1-2.1,10.4-4.1c2-1.2,4.2-2.3,6.4-3.2c6.4-2.6,15.9,2.9,16.5,11.1c0.4,5.6-1.5,9.9-6.2,13.1c-5.7,3.9-11.8,6.9-18.5,8.4
		C364.8,104.9,361.8,105.3,353.3,105.5z"/>
	<path class="st0" d="M255,349.9c0.3,10.4-8.5,18.1-18,18c-9.9-0.1-18-8.3-17.8-18.3c0.3-10.6,8.3-17.8,18.1-17.7
		C247.6,332,255.2,340,255,349.9z"/>
	<path class="st0" d="M274.8,349.8c0.1-10.3,7.8-18,17.9-17.9c10.2,0,17.8,7.4,18,17.9c0.1,10.2-7.9,18.1-18.1,18.1
		C282.8,367.9,274.7,359.9,274.8,349.8z"/>
	<path class="st0" d="M274.8,299.5c0.1-9.8,8.3-17.8,18.2-17.6c10.7,0.2,18,8.9,17.7,18.3c-0.3,10-8.2,17.7-18.4,17.5
		C282,317.6,274.5,309.2,274.8,299.5z"/>
	<path class="st0" d="M254.9,299.9c0.3,10.1-8.1,17.9-17.8,17.9c-10.3,0-17.9-8.3-17.9-17.9c0-9.7,7.8-18,18.1-18
		C247.3,282,255.4,290.3,254.9,299.9z"/>
	<path class="st0" d="M348.4,282.2c10.6,0.1,18,7.8,17.9,17.8c-0.1,10.5-8.2,17.9-18,17.9c-9.6,0-17.9-7.2-17.9-18
		C330.4,289.5,338.1,282.2,348.4,282.2z"/>
	<path class="st0" d="M181.6,332.4c9.9-0.4,17.9,7.6,17.9,17.4c0,10.5-8.3,18.2-18,18.1c-10.2-0.1-18-8.1-17.9-18.2
		C163.6,340.5,170.8,332,181.6,332.4z"/>
	<path class="st0" d="M181.6,282.2c10.1-0.1,17.8,7.8,17.8,17.6c0,10.3-7.9,18-17.9,18c-10.8,0-18.1-8.5-18-18.1
		C163.7,290.1,171.1,282.1,181.6,282.2z"/>
	<path class="st0" d="M366.4,349.9c-0.6,10.5-7.7,17.9-18,17.9c-10.1,0-17.8-7.2-18-17.9c-0.1-10.1,7.8-17.7,18-17.6
		C358.7,332.3,365.9,340,366.4,349.9z"/>
</g>
</svg>
