<?xml version="1.0" encoding="utf-8"?>
<!-- Generator: Adobe Illustrator 24.1.2, SVG Export Plug-In . SVG Version: 6.00 Build 0)  -->
<svg version="1.1" id="Camada_1" xmlns="http://www.w3.org/2000/svg" xmlns:xlink="http://www.w3.org/1999/xlink" x="0px" y="0px"
	 viewBox="0 0 232.1 207" style="enable-background:new 0 0 232.1 207;" xml:space="preserve">
<style type="text/css">
	.st0{fill:#007AC0;}
</style>
<path class="st0" d="M110.7,198.5c-0.3,0-0.5-0.1-0.8-0.2L1,135.4c-0.5-0.3-0.8-0.8-0.8-1.3c0-0.6,0.3-1.1,0.8-1.3l34-19.6
	c0.7-0.4,1.7-0.2,2.1,0.6c0.4,0.7,0.2,1.7-0.6,2.1L4.8,134.1l105.9,61.1l116.7-67.3l-27.3-15.7c-0.7-0.4-1-1.4-0.6-2.1
	c0.4-0.7,1.4-1,2.1-0.6l29.6,17.1c0.5,0.3,0.8,0.8,0.8,1.3c0,0.6-0.3,1.1-0.8,1.3l-119.8,69.1C111.3,198.4,111,198.5,110.7,198.5
	L110.7,198.5z"/>
<path class="st0" d="M110.6,207c-0.3,0-0.5-0.1-0.8-0.2l-109-62.9C0.3,143.6,0,143,0,142.5V134c0-0.5,0.3-1.1,0.8-1.3
	c0.5-0.3,1.1-0.3,1.5,0l109,62.9c0.5,0.3,0.8,0.8,0.8,1.3v8.5c0,0.6-0.3,1.1-0.8,1.3C111.1,206.9,110.8,207,110.6,207L110.6,207z
	 M3.1,141.6L109,202.8v-4.9L3.1,136.7V141.6L3.1,141.6z"/>
<path class="st0" d="M110.6,207c-0.3,0-0.5-0.1-0.8-0.2c-0.5-0.3-0.8-0.8-0.8-1.3V197c0-0.6,0.3-1.1,0.8-1.3l119.8-69.1
	c0.5-0.3,1.1-0.3,1.5,0c0.5,0.3,0.8,0.8,0.8,1.3v8.5c0,0.5-0.3,1.1-0.8,1.3l-119.8,69.1C111.1,206.9,110.8,207,110.6,207L110.6,207z
	 M112.1,197.9v4.9l116.7-67.3v-4.9L112.1,197.9L112.1,197.9z"/>
<path class="st0" d="M110.4,181.5c-0.3,0-0.5-0.1-0.8-0.2l-74.7-43.1c-0.5-0.3-0.8-0.8-0.8-1.3V53.7c0-0.6,0.3-1.1,0.8-1.3
	c0.5-0.3,1.1-0.3,1.5,0l74.7,43.1c0.5,0.3,0.8,0.8,0.8,1.3v83.1c0,0.6-0.3,1.1-0.8,1.3C110.9,181.4,110.6,181.5,110.4,181.5
	L110.4,181.5z M37.2,135.9l71.6,41.3V97.7L37.2,56.4V135.9L37.2,135.9z"/>
<path class="st0" d="M110.4,181.5c-0.3,0-0.5-0.1-0.8-0.2c-0.5-0.3-0.8-0.8-0.8-1.3V96.9c0-0.6,0.3-1.1,0.8-1.3l90.6-52.2
	c0.5-0.3,1.1-0.3,1.5,0c0.5,0.3,0.8,0.8,0.8,1.3v83.1c0,0.6-0.3,1.1-0.8,1.3l-90.6,52.1C110.9,181.4,110.6,181.5,110.4,181.5
	L110.4,181.5z M111.9,97.7v79.5l87.5-50.4V47.3L111.9,97.7L111.9,97.7z"/>
<path class="st0" d="M195.3,49.4c-0.3,0-0.5-0.1-0.8-0.2l-69-39.9C125,9,124.7,8.5,124.7,8V1.5c0-0.6,0.3-1.1,0.8-1.3
	c0.5-0.3,1.1-0.3,1.5,0l74.7,43.1c0.5,0.3,0.8,0.8,0.8,1.3c0,0.6-0.3,1.1-0.8,1.3l-5.7,3.2C195.8,49.4,195.6,49.4,195.3,49.4
	L195.3,49.4z M127.8,7.1l67.5,39.1l2.6-1.5L127.8,4.2V7.1L127.8,7.1z"/>
<path class="st0" d="M41.2,58.5c-0.3,0-0.5-0.1-0.8-0.2L34.9,55c-0.5-0.3-0.8-0.8-0.8-1.3c0-0.6,0.3-1.1,0.8-1.3l90.6-52.2
	c0.5-0.3,1.1-0.3,1.5,0c0.5,0.3,0.8,0.8,0.8,1.3V8c0,0.6-0.3,1.1-0.8,1.3l-85.1,49C41.7,58.4,41.4,58.5,41.2,58.5L41.2,58.5z
	 M38.7,53.7l2.4,1.4l83.6-48.1V4.2L38.7,53.7L38.7,53.7z"/>
<path class="st0" d="M110.4,98.4c-0.3,0-0.5-0.1-0.8-0.2L40.4,58.3c-0.5-0.3-0.8-0.8-0.8-1.3c0-0.6,0.3-1.1,0.8-1.3l85.1-48.8
	c0.5-0.3,1-0.3,1.5,0l69.8,39.3c0.5,0.3,0.8,0.8,0.8,1.3c0,0.6-0.3,1.1-0.8,1.3l-85.6,49.4C110.9,98.3,110.6,98.4,110.4,98.4
	L110.4,98.4z M44.3,56.9l66.1,38.2l82.5-47.6L126.3,9.9L44.3,56.9L44.3,56.9z"/>
<path class="st0" d="M135.8,54.8c-0.3,0-0.5-0.1-0.8-0.2l-17.9-10.3c-0.5-0.3-0.8-0.8-0.8-1.3V29.7c0-0.5,0.3-1.1,0.8-1.3
	c0.5-0.3,1.1-0.3,1.5,0l17.9,10.3c0.5,0.3,0.8,0.8,0.8,1.3v13.3c0,0.6-0.3,1.1-0.8,1.3C136.3,54.7,136,54.8,135.8,54.8L135.8,54.8z
	 M119.4,42.1l14.8,8.5v-9.8l-14.8-8.5V42.1L119.4,42.1z"/>
<path class="st0" d="M135.8,41.5c-0.3,0-0.5-0.1-0.8-0.2L117.1,31c-0.5-0.3-0.8-0.8-0.8-1.3c0-0.5,0.3-1.1,0.8-1.3l17-10.1
	c0.5-0.3,1.1-0.3,1.6,0l18.1,10.4c0.5,0.3,0.8,0.8,0.8,1.3c0,0.5-0.3,1.1-0.8,1.3l-17.2,9.9C136.3,41.4,136,41.5,135.8,41.5
	L135.8,41.5z M120.9,29.6l14.8,8.5l14.1-8.2l-15-8.6L120.9,29.6L120.9,29.6z"/>
<path class="st0" d="M135.8,54.8c-0.3,0-0.5-0.1-0.8-0.2c-0.5-0.3-0.8-0.8-0.8-1.3V40c0-0.5,0.3-1.1,0.8-1.3l17.2-10
	c0.5-0.3,1.1-0.3,1.5,0c0.5,0.3,0.8,0.8,0.8,1.3v13.3c0,0.5-0.3,1.1-0.8,1.3l-17.2,9.9C136.3,54.7,136,54.8,135.8,54.8L135.8,54.8z
	 M137.3,40.8v9.8l14.1-8.2v-9.8L137.3,40.8L137.3,40.8z"/>
<path class="st0" d="M132.8,168.6c-0.3,0-0.5-0.1-0.8-0.2c-0.5-0.3-0.8-0.8-0.8-1.3v-55.3c0-0.6,0.3-1.1,0.8-1.3l49.5-28.6
	c0.5-0.3,1.1-0.3,1.5,0c0.5,0.3,0.8,0.8,0.8,1.3v55.3c0,0.5-0.3,1.1-0.8,1.3l-49.5,28.6C133.4,168.5,133.1,168.6,132.8,168.6
	L132.8,168.6z M134.4,112.7v51.7l46.4-26.8V85.9L134.4,112.7L134.4,112.7z"/>
<path class="st0" d="M91.6,121.4c-0.4,0-0.9-0.1-1.3-0.4c-2.9-1.7-7.9-4.6-13.6-7.8c-10-5.8-22-12.7-27-15.6c0,0-0.1,0-0.1-0.1
	c-0.9-0.7-1.9-2.1-1.9-3.5c0-0.8,0.7-1.5,1.5-1.5s1.5,0.7,1.5,1.5c0,0.2,0.3,0.7,0.6,0.9c5.1,2.9,17,9.8,26.9,15.6
	c5.2,3,9.9,5.7,12.8,7.4c0.3-0.4,0.7-0.6,1.2-0.6c0.9,0,1.5,0.7,1.5,1.5c0,1-0.4,1.8-1.1,2.2C92.4,121.3,92,121.4,91.6,121.4
	L91.6,121.4z"/>
<path class="st0" d="M162.2,105.5c-0.5,0-1.1-0.3-1.3-0.8c-0.4-0.7-0.2-1.7,0.6-2.1l14.8-8.5c0.7-0.4,1.7-0.2,2.1,0.6
	c0.4,0.7,0.2,1.7-0.6,2.1l-14.8,8.5C162.8,105.4,162.5,105.5,162.2,105.5L162.2,105.5z"/>
<path class="st0" d="M162.2,144.1c-0.5,0-1.1-0.3-1.3-0.8c-0.4-0.7-0.2-1.7,0.6-2.1l14.8-8.5c0.7-0.4,1.7-0.2,2.1,0.6
	c0.4,0.7,0.2,1.7-0.6,2.1l-14.8,8.5C162.8,144,162.5,144.1,162.2,144.1L162.2,144.1z"/>
<path class="st0" d="M162.2,134.4c-0.5,0-1.1-0.3-1.3-0.8c-0.4-0.7-0.2-1.7,0.6-2.1l14.8-8.5c0.7-0.4,1.7-0.2,2.1,0.6
	c0.4,0.7,0.2,1.7-0.6,2.1l-14.8,8.5C162.8,134.4,162.5,134.4,162.2,134.4L162.2,134.4z"/>
<path class="st0" d="M162.2,124.8c-0.5,0-1.1-0.3-1.3-0.8c-0.4-0.7-0.2-1.7,0.6-2.1l14.8-8.5c0.7-0.4,1.7-0.2,2.1,0.6
	c0.4,0.7,0.2,1.7-0.6,2.1l-14.8,8.5C162.8,124.7,162.5,124.8,162.2,124.8L162.2,124.8z"/>
<path class="st0" d="M162.2,115.1c-0.5,0-1.1-0.3-1.3-0.8c-0.4-0.7-0.2-1.7,0.6-2.1l14.8-8.4c0.7-0.4,1.7-0.2,2.1,0.6
	c0.4,0.7,0.2,1.7-0.6,2.1l-14.8,8.4C162.8,115.1,162.5,115.1,162.2,115.1L162.2,115.1z"/>
<path class="st0" d="M138,119.5c-0.5,0-1-0.3-1.3-0.8c-0.4-0.7-0.2-1.7,0.6-2.1l15.7-9c0.7-0.4,1.7-0.2,2.1,0.6
	c0.4,0.7,0.2,1.7-0.6,2.1l-15.7,9C138.5,119.4,138.2,119.5,138,119.5L138,119.5z"/>
<path class="st0" d="M138,158.1c-0.5,0-1-0.3-1.3-0.8c-0.4-0.7-0.2-1.7,0.6-2.1l15.7-9c0.7-0.4,1.7-0.2,2.1,0.6
	c0.4,0.7,0.2,1.7-0.6,2.1l-15.7,9C138.5,158,138.2,158.1,138,158.1L138,158.1z"/>
<path class="st0" d="M138,129.2c-0.5,0-1-0.3-1.3-0.8c-0.4-0.7-0.2-1.7,0.6-2.1l15.7-9c0.7-0.4,1.7-0.2,2.1,0.6
	c0.4,0.7,0.2,1.7-0.6,2.1l-15.7,9C138.5,129.1,138.2,129.2,138,129.2L138,129.2z"/>
<path class="st0" d="M138,148.5c-0.5,0-1-0.3-1.3-0.8c-0.4-0.7-0.2-1.7,0.6-2.1l15.7-9c0.7-0.4,1.7-0.2,2.1,0.6
	c0.4,0.7,0.2,1.7-0.6,2.1l-15.7,9C138.5,148.4,138.2,148.5,138,148.5L138,148.5z"/>
<path class="st0" d="M138,138.8c-0.5,0-1-0.3-1.3-0.8c-0.4-0.7-0.2-1.7,0.6-2.1l15.7-9c0.7-0.4,1.7-0.2,2.1,0.6
	c0.4,0.7,0.2,1.7-0.6,2.1l-15.7,9C138.5,138.7,138.2,138.8,138,138.8L138,138.8z"/>
<path class="st0" d="M157.7,154.3c-0.9,0-1.5-0.7-1.5-1.5V97.5c0-0.8,0.7-1.5,1.5-1.5c0.9,0,1.5,0.7,1.5,1.5v55.3
	C159.2,153.6,158.5,154.3,157.7,154.3L157.7,154.3z"/>
<path class="st0" d="M92.3,110c-0.8,0-1.5-0.7-1.5-1.5c0-0.3-0.3-0.8-0.5-0.9c-0.7-0.4-1-1.4-0.5-2.1c0.4-0.7,1.4-1,2.1-0.5
	c1.2,0.7,2,2.2,2,3.6C93.8,109.3,93.1,110,92.3,110L92.3,110z"/>
<path class="st0" d="M92.3,120.5c-0.8,0-1.5-0.7-1.5-1.5v-10.5c0-0.8,0.7-1.5,1.5-1.5c0.9,0,1.5,0.7,1.5,1.5V119
	C93.8,119.8,93.1,120.5,92.3,120.5L92.3,120.5z"/>
<path class="st0" d="M49.2,95.6c-0.9,0-1.5-0.7-1.5-1.5V83.5c0-0.8,0.7-1.5,1.5-1.5s1.5,0.7,1.5,1.5v10.6
	C50.7,94.9,50.1,95.6,49.2,95.6L49.2,95.6z"/>
<path class="st0" d="M49.2,85.1c-0.9,0-1.5-0.7-1.5-1.5c0-1,0.5-1.8,1.3-2.2c0.8-0.4,1.7-0.3,2.4,0.2c0.7,0.5,0.9,1.4,0.4,2.1
	c-0.3,0.4-0.8,0.6-1.2,0.7C50.2,84.8,49.8,85.1,49.2,85.1L49.2,85.1z"/>
<path class="st0" d="M91,107.7c-0.3,0-0.5-0.1-0.8-0.2L49.7,84.1c-0.7-0.4-1-1.4-0.6-2.1c0.4-0.7,1.4-1,2.1-0.6l40.5,23.4
	c0.7,0.4,1,1.4,0.6,2.1C92.1,107.5,91.5,107.7,91,107.7L91,107.7z"/>
<path class="st0" d="M200,152.8c-0.1,0-0.1,0-0.2-0.1c-0.2-0.1-0.3-0.4-0.2-0.6l4.6-7.9c0.1-0.2,0.4-0.3,0.6-0.2
	c0.2,0.1,0.3,0.4,0.2,0.6l-4.6,7.9C200.3,152.8,200.2,152.8,200,152.8L200,152.8z"/>
<path class="st0" d="M170.6,169.8c-0.1,0-0.1,0-0.2-0.1c-0.2-0.1-0.3-0.4-0.2-0.6l4.6-7.9c0.1-0.2,0.4-0.3,0.6-0.2
	c0.2,0.1,0.3,0.4,0.2,0.6l-4.6,7.8C170.9,169.7,170.8,169.8,170.6,169.8L170.6,169.8z"/>
<path class="st0" d="M141.6,186.6c-0.1,0-0.1,0-0.2-0.1c-0.2-0.1-0.3-0.4-0.2-0.6l4.6-7.9c0.1-0.2,0.4-0.3,0.6-0.2
	c0.2,0.1,0.3,0.4,0.2,0.6l-4.6,7.9C141.9,186.5,141.8,186.6,141.6,186.6L141.6,186.6z"/>
<path class="st0" d="M112.4,203.4c-0.1,0-0.1,0-0.2-0.1c-0.2-0.1-0.3-0.4-0.2-0.6l4.6-7.9c0.1-0.2,0.4-0.3,0.6-0.2
	c0.2,0.1,0.3,0.4,0.2,0.6l-4.6,7.9C112.7,203.3,112.5,203.4,112.4,203.4L112.4,203.4z"/>
<path class="st0" d="M108.4,202.9c-0.1,0-0.3-0.1-0.4-0.2c-0.1-0.2-0.1-0.5,0.1-0.6l0.7-0.5c0.2-0.1,0.5-0.1,0.6,0.1
	c0.1,0.2,0.1,0.5-0.1,0.6l-0.7,0.5C108.5,202.9,108.5,202.9,108.4,202.9L108.4,202.9z"/>
<path class="st0" d="M99.8,198.1c-0.1,0-0.3-0.1-0.4-0.2c-0.1-0.2,0-0.5,0.2-0.6l4.6-2.6c0.2-0.1,0.5,0,0.6,0.2
	c0.1,0.2,0.1,0.5-0.2,0.6L100,198C99.9,198,99.9,198.1,99.8,198.1L99.8,198.1z"/>
<path class="st0" d="M91.4,193.2c-0.1,0-0.3-0.1-0.4-0.2c-0.1-0.2,0-0.5,0.2-0.6l4.6-2.6c0.2-0.1,0.5,0,0.6,0.2
	c0.1,0.2,0.1,0.5-0.2,0.6l-4.6,2.7C91.5,193.2,91.5,193.2,91.4,193.2L91.4,193.2z"/>
<path class="st0" d="M83,188.3c-0.1,0-0.3-0.1-0.4-0.2c-0.1-0.2-0.1-0.5,0.2-0.6l4.6-2.6c0.2-0.1,0.5,0,0.6,0.2
	c0.1,0.2,0.1,0.5-0.2,0.6l-4.6,2.6C83.1,188.3,83.1,188.3,83,188.3L83,188.3z"/>
<path class="st0" d="M74.4,183.5c-0.1,0-0.3-0.1-0.4-0.2c-0.1-0.2,0-0.5,0.2-0.6l4.6-2.6c0.2-0.1,0.5,0,0.6,0.2
	c0.1,0.2,0,0.5-0.2,0.6l-4.6,2.6C74.6,183.5,74.5,183.5,74.4,183.5L74.4,183.5z"/>
<path class="st0" d="M66,178.6c-0.1,0-0.3-0.1-0.4-0.2c-0.1-0.2-0.1-0.5,0.2-0.6l4.6-2.7c0.2-0.1,0.5,0,0.6,0.2
	c0.1,0.2,0.1,0.5-0.2,0.6l-4.6,2.7C66.2,178.5,66.1,178.6,66,178.6L66,178.6z"/>
<path class="st0" d="M57.6,173.7c-0.1,0-0.3-0.1-0.4-0.2c-0.1-0.2,0-0.5,0.2-0.6l4.6-2.6c0.2-0.1,0.5,0,0.6,0.2
	c0.1,0.2,0,0.5-0.2,0.6l-4.6,2.6C57.8,173.7,57.7,173.7,57.6,173.7L57.6,173.7z"/>
<path class="st0" d="M49,168.8c-0.1,0-0.3-0.1-0.4-0.2c-0.1-0.2,0-0.5,0.2-0.6l4.7-2.6c0.2-0.1,0.5,0,0.6,0.2c0.1,0.2,0,0.5-0.2,0.6
	l-4.7,2.6C49.2,168.8,49.1,168.8,49,168.8L49,168.8z"/>
<path class="st0" d="M40.6,163.9c-0.1,0-0.3-0.1-0.4-0.2c-0.1-0.2-0.1-0.5,0.2-0.6l4.6-2.6c0.2-0.1,0.5-0.1,0.6,0.2
	c0.1,0.2,0.1,0.5-0.2,0.6l-4.6,2.6C40.8,163.9,40.7,163.9,40.6,163.9L40.6,163.9z"/>
<path class="st0" d="M32.2,159.1c-0.1,0-0.3-0.1-0.4-0.2c-0.1-0.2-0.1-0.5,0.2-0.6l4.6-2.7c0.2-0.1,0.5,0,0.6,0.2
	c0.1,0.2,0,0.5-0.2,0.6l-4.6,2.7C32.4,159.1,32.3,159.1,32.2,159.1L32.2,159.1z"/>
<path class="st0" d="M23.8,154.2c-0.1,0-0.3-0.1-0.4-0.2c-0.1-0.2,0-0.5,0.2-0.6l4.6-2.6c0.2-0.1,0.5,0,0.6,0.2
	c0.1,0.2,0.1,0.5-0.2,0.6l-4.6,2.6C24,154.2,23.9,154.2,23.8,154.2L23.8,154.2z"/>
<path class="st0" d="M15.4,149.3c-0.1,0-0.3-0.1-0.4-0.2c-0.1-0.2,0-0.5,0.2-0.6l4.6-2.6c0.2-0.1,0.5-0.1,0.6,0.2
	c0.1,0.2,0,0.5-0.2,0.6l-4.6,2.6C15.6,149.3,15.5,149.3,15.4,149.3L15.4,149.3z"/>
<path class="st0" d="M7,144.4c-0.1,0-0.3-0.1-0.4-0.2c-0.1-0.2,0-0.5,0.2-0.6l4.6-2.6c0.2-0.1,0.5,0,0.6,0.2c0.1,0.2,0,0.5-0.2,0.6
	l-4.6,2.6C7.2,144.4,7.1,144.4,7,144.4L7,144.4z"/>
<path class="st0" d="M7,135.9c-0.2,0-0.3-0.1-0.4-0.2l-1.1-2.1c-0.1-0.2,0-0.5,0.2-0.6c0.2-0.1,0.5,0,0.6,0.2l1.1,2.1
	c0.1,0.2,0,0.5-0.2,0.6C7.2,135.9,7.1,135.9,7,135.9L7,135.9z"/>
<path class="st0" d="M37,153.8c-0.1,0-0.3-0.1-0.4-0.2l-17-29.3c-0.1-0.2-0.1-0.5,0.2-0.6c0.2-0.1,0.5,0,0.6,0.2l17,29.3
	c0.1,0.2,0.1,0.5-0.2,0.6C37.1,153.8,37,153.8,37,153.8L37,153.8z"/>
<path class="st0" d="M66,170.4c-0.1,0-0.3-0.1-0.4-0.2l-12.4-21.5c-0.1-0.2,0-0.5,0.2-0.6c0.2-0.1,0.5,0,0.6,0.2l12.4,21.5
	c0.1,0.2,0,0.5-0.2,0.6C66.2,170.4,66.1,170.4,66,170.4L66,170.4z"/>
<path class="st0" d="M95.2,187.3c-0.1,0-0.3-0.1-0.4-0.2l-12.4-21.4c-0.1-0.2,0-0.5,0.2-0.6c0.2-0.1,0.5,0,0.6,0.2l12.4,21.4
	c0.1,0.2,0,0.5-0.2,0.6C95.4,187.2,95.3,187.3,95.2,187.3L95.2,187.3z"/>
<path class="st0" d="M117.7,192.2c-0.1,0-0.3-0.1-0.4-0.2l-6.4-10.9c-0.1-0.2-0.1-0.5,0.2-0.6c0.2-0.1,0.5-0.1,0.6,0.2l6.4,10.9
	c0.1,0.2,0,0.5-0.2,0.6C117.8,192.1,117.8,192.2,117.7,192.2L117.7,192.2z"/>
<path class="st0" d="M132.3,183.8c-0.1,0-0.3-0.1-0.4-0.2l-6.4-10.9c-0.1-0.2-0.1-0.5,0.2-0.6c0.2-0.1,0.5,0,0.6,0.2l6.4,10.9
	c0.1,0.2,0,0.5-0.2,0.6C132.4,183.8,132.4,183.8,132.3,183.8L132.3,183.8z"/>
<path class="st0" d="M146.7,175.4c-0.1,0-0.3-0.1-0.4-0.2l-6.2-11c-0.1-0.2,0-0.5,0.2-0.6c0.2-0.1,0.5,0,0.6,0.2l6.2,11
	c0.1,0.2,0,0.5-0.2,0.6C146.9,175.3,146.8,175.4,146.7,175.4L146.7,175.4z"/>
<path class="st0" d="M161.5,166.9c-0.1,0-0.3-0.1-0.4-0.2l-6.4-10.9c-0.1-0.2-0.1-0.5,0.2-0.6c0.2-0.1,0.5-0.1,0.6,0.2l6.4,10.9
	c0.1,0.2,0,0.5-0.2,0.6C161.7,166.9,161.6,166.9,161.5,166.9L161.5,166.9z"/>
<path class="st0" d="M176.1,158.5c-0.1,0-0.3-0.1-0.4-0.2l-6.4-10.9c-0.1-0.2-0.1-0.5,0.2-0.6c0.2-0.1,0.5,0,0.6,0.2l6.4,10.9
	c0.1,0.2,0,0.5-0.2,0.6C176.3,158.5,176.2,158.5,176.1,158.5L176.1,158.5z"/>
<path class="st0" d="M190.7,150.1c-0.1,0-0.3-0.1-0.4-0.2l-6.4-11c-0.1-0.2-0.1-0.5,0.2-0.6c0.2-0.1,0.5,0,0.6,0.2l6.4,11
	c0.1,0.2,0,0.5-0.2,0.6C190.9,150,190.8,150.1,190.7,150.1L190.7,150.1z"/>
<path class="st0" d="M205.3,141.6c-0.1,0-0.3-0.1-0.4-0.2l-6.4-10.9c-0.1-0.2-0.1-0.5,0.2-0.6c0.2-0.1,0.5-0.1,0.6,0.2l6.4,10.9
	c0.1,0.2,0,0.5-0.2,0.6C205.5,141.6,205.4,141.6,205.3,141.6L205.3,141.6z"/>
<path class="st0" d="M219.9,133.3c-0.1,0-0.3-0.1-0.4-0.2l-8.2-14.3c-0.1-0.2,0-0.5,0.2-0.6c0.2-0.1,0.5,0,0.6,0.2l8.2,14.3
	c0.1,0.2,0,0.5-0.2,0.6C220.1,133.3,220,133.3,219.9,133.3L219.9,133.3z"/>
<path class="st0" d="M100.3,173.2c-0.1,0-0.3-0.1-0.4-0.2c-0.1-0.2,0-0.5,0.2-0.6l8.8-5c0.2-0.1,0.5,0,0.6,0.2s0,0.5-0.2,0.6l-8.8,5
	C100.5,173.2,100.4,173.2,100.3,173.2L100.3,173.2z"/>
<path class="st0" d="M91.6,168.5c-0.1,0-0.3-0.1-0.4-0.2c-0.1-0.2,0-0.5,0.2-0.6l17.9-10.3c0.2-0.1,0.5,0,0.6,0.2
	c0.1,0.2,0,0.5-0.2,0.6l-17.9,10.3C91.7,168.5,91.6,168.5,91.6,168.5L91.6,168.5z"/>
<path class="st0" d="M82.8,163.8c-0.1,0-0.3-0.1-0.4-0.2c-0.1-0.2,0-0.5,0.2-0.6l27-15.5c0.2-0.1,0.5,0,0.6,0.2
	c0.1,0.2,0,0.5-0.2,0.6l-27,15.5C82.9,163.8,82.9,163.8,82.8,163.8L82.8,163.8z"/>
<path class="st0" d="M74.2,159.1c-0.1,0-0.3-0.1-0.4-0.2c-0.1-0.2,0-0.5,0.2-0.6l35.8-20.7c0.2-0.1,0.5,0,0.6,0.2
	c0.1,0.2,0,0.5-0.2,0.6l-35.8,20.7C74.4,159.1,74.3,159.1,74.2,159.1L74.2,159.1z"/>
<path class="st0" d="M65.5,154.4c-0.1,0-0.3-0.1-0.4-0.2c-0.1-0.2,0-0.5,0.2-0.6l44.9-26c0.2-0.1,0.5,0,0.6,0.2
	c0.1,0.2,0,0.5-0.2,0.6l-44.9,26C65.6,154.4,65.5,154.4,65.5,154.4L65.5,154.4z"/>
<path class="st0" d="M56.7,149.7c-0.1,0-0.3-0.1-0.4-0.2c-0.1-0.2,0-0.5,0.2-0.6l54.1-31.2c0.2-0.1,0.5,0,0.6,0.2
	c0.1,0.2,0,0.5-0.2,0.6l-54.1,31.2C56.8,149.7,56.8,149.7,56.7,149.7L56.7,149.7z"/>
<path class="st0" d="M93.4,118.7c-0.1,0-0.3-0.1-0.4-0.2c-0.1-0.2,0-0.5,0.2-0.6l16.1-9.2c0.2-0.1,0.5,0,0.6,0.2
	c0.1,0.2,0,0.5-0.2,0.6l-16.1,9.2C93.5,118.7,93.5,118.7,93.4,118.7L93.4,118.7z"/>
<path class="st0" d="M48.7,144.6c-0.2,0-0.3-0.1-0.4-0.2c-0.1-0.2,0-0.5,0.2-0.6l42.2-24.3c0.2-0.1,0.5,0,0.6,0.2
	c0.1,0.2,0,0.5-0.2,0.6l-42.2,24.3C48.8,144.6,48.7,144.6,48.7,144.6L48.7,144.6z"/>
<path class="st0" d="M93.4,109c-0.1,0-0.3-0.1-0.4-0.2c-0.1-0.2,0-0.5,0.2-0.6l16.1-9.2c0.2-0.1,0.5,0,0.6,0.2
	c0.1,0.2,0,0.5-0.2,0.6L93.6,109C93.5,109,93.5,109,93.4,109L93.4,109z"/>
<path class="st0" d="M40.3,139.8c-0.1,0-0.3-0.1-0.4-0.2c-0.1-0.2,0-0.5,0.2-0.6l42.2-24.4c0.2-0.1,0.5,0,0.6,0.2
	c0.1,0.2,0.1,0.5-0.2,0.6l-42.2,24.4C40.4,139.7,40.3,139.8,40.3,139.8L40.3,139.8z"/>
<path class="st0" d="M86.8,103.1c-0.1,0-0.3-0.1-0.4-0.2c-0.1-0.2,0-0.5,0.2-0.6l15.7-9.1c0.2-0.1,0.5,0,0.6,0.2
	c0.1,0.2,0,0.5-0.2,0.6L87,103C87,103,86.9,103.1,86.8,103.1L86.8,103.1z"/>
<path class="st0" d="M35.9,132.5c-0.1,0-0.3-0.1-0.4-0.2c-0.1-0.2,0-0.5,0.2-0.6l38-21.9c0.2-0.1,0.5,0,0.6,0.2
	c0.1,0.2,0,0.5-0.2,0.6l-38,21.9C36,132.4,35.9,132.5,35.9,132.5L35.9,132.5z"/>
<path class="st0" d="M78.4,98.2c-0.1,0-0.3-0.1-0.4-0.2c-0.1-0.2,0-0.5,0.2-0.6l15.7-9.1c0.2-0.1,0.5,0,0.6,0.2
	c0.1,0.2,0,0.5-0.2,0.6l-15.7,9.1C78.6,98.2,78.5,98.2,78.4,98.2L78.4,98.2z"/>
<path class="st0" d="M36.2,122.5c-0.2,0-0.3-0.1-0.4-0.2c-0.1-0.2,0-0.5,0.2-0.6l28.9-16.6c0.2-0.1,0.5,0,0.6,0.2
	c0.1,0.2,0,0.5-0.2,0.6l-28.9,16.6C36.4,122.5,36.3,122.5,36.2,122.5L36.2,122.5z"/>
<path class="st0" d="M70,93.4c-0.1,0-0.3-0.1-0.4-0.2c-0.1-0.2,0-0.5,0.2-0.6l15.7-9.1c0.2-0.1,0.5,0,0.6,0.2c0.1,0.2,0,0.5-0.2,0.6
	l-15.7,9.1C70.2,93.3,70.1,93.4,70,93.4L70,93.4z"/>
<path class="st0" d="M36.6,112.7c-0.1,0-0.3-0.1-0.4-0.2c-0.1-0.2-0.1-0.5,0.2-0.6l19.7-11.5c0.2-0.1,0.5,0,0.6,0.2
	c0.1,0.2,0.1,0.5-0.2,0.6l-19.7,11.5C36.8,112.7,36.7,112.7,36.6,112.7L36.6,112.7z"/>
<path class="st0" d="M61.4,88.5c-0.1,0-0.3-0.1-0.4-0.2c-0.1-0.2,0-0.5,0.2-0.6l15.9-9.1c0.2-0.1,0.5,0,0.6,0.2
	c0.1,0.2,0,0.5-0.2,0.6l-15.9,9.1C61.6,88.5,61.5,88.5,61.4,88.5L61.4,88.5z"/>
<path class="st0" d="M36.8,102.7c-0.1,0-0.3-0.1-0.4-0.2c-0.1-0.2,0-0.5,0.2-0.6l11.7-6.7c0.2-0.1,0.5,0,0.6,0.2
	c0.1,0.2,0,0.5-0.2,0.6L37,102.7C36.9,102.7,36.9,102.7,36.8,102.7L36.8,102.7z"/>
<path class="st0" d="M53,83.6c-0.1,0-0.3-0.1-0.4-0.2c-0.1-0.2,0-0.5,0.2-0.6l15.7-9.1c0.2-0.1,0.5-0.1,0.6,0.2
	c0.1,0.2,0,0.5-0.2,0.6l-15.7,9.1C53.2,83.6,53.1,83.6,53,83.6L53,83.6z"/>
<path class="st0" d="M36.8,93c-0.1,0-0.3-0.1-0.4-0.2c-0.1-0.2,0-0.5,0.2-0.6l11.3-6.5c0.2-0.1,0.5,0,0.6,0.2c0.1,0.2,0,0.5-0.2,0.6
	L37,92.9C36.9,93,36.9,93,36.8,93L36.8,93z"/>
<path class="st0" d="M36.4,83.5c-0.1,0-0.3-0.1-0.4-0.2c-0.1-0.2,0-0.5,0.2-0.6l24.3-14c0.2-0.1,0.5,0,0.6,0.2
	c0.1,0.2,0,0.5-0.2,0.6l-24.3,14C36.6,83.4,36.5,83.5,36.4,83.5L36.4,83.5z"/>
<path class="st0" d="M36.8,73.5c-0.1,0-0.3-0.1-0.4-0.2c-0.1-0.2,0-0.5,0.2-0.6L51.7,64c0.2-0.1,0.5,0,0.6,0.2
	c0.1,0.2,0,0.5-0.2,0.6L37,73.4C36.9,73.5,36.9,73.5,36.8,73.5L36.8,73.5z"/>
<path class="st0" d="M37.1,63.6c-0.1,0-0.3-0.1-0.4-0.2c-0.1-0.2,0-0.5,0.2-0.6l6-3.5c0.2-0.1,0.5,0,0.6,0.2c0.1,0.2,0,0.5-0.2,0.6
	l-6,3.5C37.3,63.5,37.2,63.6,37.1,63.6L37.1,63.6z"/>
<path class="st0" d="M69.7,72.6c-0.1,0-0.3-0.1-0.4-0.2l-13.3-23c-0.1-0.2,0-0.5,0.2-0.6c0.2-0.1,0.5,0,0.6,0.2l13.3,23
	c0.1,0.2,0,0.5-0.2,0.6C69.8,72.5,69.7,72.6,69.7,72.6L69.7,72.6z"/>
<path class="st0" d="M99.4,90.3c-0.1,0-0.3-0.1-0.4-0.2L70,40.1c-0.1-0.2,0-0.5,0.2-0.6c0.2-0.1,0.5,0,0.6,0.2l29,50.1
	c0.1,0.2,0,0.5-0.2,0.6C99.6,90.3,99.5,90.3,99.4,90.3L99.4,90.3z"/>
<path class="st0" d="M120.2,92.6c-0.1,0-0.3-0.1-0.4-0.2L84.6,31.2c-0.1-0.2,0-0.5,0.2-0.6c0.2-0.1,0.5,0,0.6,0.2l35.2,61.1
	c0.1,0.2,0,0.5-0.2,0.6C120.4,92.5,120.3,92.6,120.2,92.6L120.2,92.6z"/>
<path class="st0" d="M134.8,84.1c-0.1,0-0.3-0.1-0.4-0.2L99.2,22.8c-0.1-0.2,0-0.5,0.2-0.6c0.2-0.1,0.5,0,0.6,0.2l35.2,61.1
	c0.1,0.2,0,0.5-0.2,0.6C135,84.1,134.9,84.1,134.8,84.1L134.8,84.1z"/>
<path class="st0" d="M148.7,74.4c-0.1,0-0.3-0.1-0.4-0.2l-11.9-20.4c-0.1-0.2-0.1-0.5,0.2-0.6c0.2-0.1,0.5-0.1,0.6,0.2l11.9,20.4
	c0.1,0.2,0,0.5-0.2,0.6C148.9,74.4,148.8,74.4,148.7,74.4L148.7,74.4z"/>
<path class="st0" d="M121.3,26.9c-0.1,0-0.3-0.1-0.4-0.2l-6.2-10.5c-0.1-0.2-0.1-0.5,0.2-0.6c0.2-0.1,0.5-0.1,0.6,0.2l6.2,10.5
	c0.1,0.2,0,0.5-0.2,0.6C121.5,26.9,121.4,26.9,121.3,26.9L121.3,26.9z"/>
<path class="st0" d="M163.3,65.9c-0.1,0-0.3-0.1-0.4-0.2l-11.7-20.4c-0.1-0.2,0-0.5,0.2-0.6c0.2-0.1,0.5,0,0.6,0.2l11.7,20.4
	c0.1,0.2,0,0.5-0.2,0.6C163.5,65.9,163.4,65.9,163.3,65.9L163.3,65.9z"/>
<path class="st0" d="M136.5,19.3c-0.1,0-0.3-0.1-0.4-0.2l-2.9-5c-0.1-0.2,0-0.5,0.2-0.6c0.2-0.1,0.5-0.1,0.6,0.2l2.9,5
	c0.1,0.2,0.1,0.5-0.2,0.6C136.6,19.3,136.6,19.3,136.5,19.3L136.5,19.3z"/>
<path class="st0" d="M178.1,57.7c-0.1,0-0.3-0.1-0.4-0.2l-15.9-27.3c-0.1-0.2-0.1-0.5,0.2-0.6c0.2-0.1,0.5,0,0.6,0.2l15.9,27.3
	c0.1,0.2,0,0.5-0.2,0.6C178.3,57.7,178.2,57.7,178.1,57.7L178.1,57.7z"/>
<path class="st0" d="M192.2,48.4c-0.2,0-0.4-0.2-0.4-0.4v-0.1c0-0.2,0.2-0.4,0.4-0.4c0.2,0,0.4,0.2,0.4,0.4v0.1
	C192.6,48.2,192.4,48.4,192.2,48.4L192.2,48.4z"/>
<path class="st0" d="M127.9,34.8c-0.1,0-0.3-0.1-0.4-0.2c-0.1-0.2,0-0.5,0.2-0.6l15.2-8.8c0.2-0.1,0.5,0,0.6,0.2
	c0.1,0.2,0,0.5-0.2,0.6l-15.2,8.8C128.1,34.7,128,34.8,127.9,34.8L127.9,34.8z"/>
<path class="st0" d="M125.9,46.6c-0.1,0-0.3-0.1-0.4-0.2c-0.1-0.2,0-0.5,0.2-0.6l8.6-5c0.2-0.1,0.5,0,0.6,0.2c0.1,0.2,0,0.5-0.2,0.6
	l-8.6,5C126,46.6,126,46.6,125.9,46.6L125.9,46.6z"/>
<path class="st0" d="M119.1,40.8c-0.1,0-0.3-0.1-0.4-0.2c-0.1-0.2,0-0.5,0.2-0.6l7.3-4.2c0.2-0.1,0.5,0,0.6,0.2
	c0.1,0.2,0,0.5-0.2,0.6l-7.3,4.2C119.3,40.8,119.2,40.8,119.1,40.8L119.1,40.8z"/>
<path class="st0" d="M75.5,109.8c-0.1,0-0.3-0.1-0.4-0.2c-0.1-0.2,0-0.5,0.2-0.6l9.3-5.3c0.2-0.1,0.5,0,0.6,0.2
	c0.1,0.2,0,0.5-0.2,0.6l-9.3,5.3C75.6,109.8,75.6,109.8,75.5,109.8L75.5,109.8z"/>
<path class="st0" d="M58.7,100.1c-0.1,0-0.3-0.1-0.4-0.2c-0.1-0.2-0.1-0.5,0.2-0.6l9.1-5.3c0.2-0.1,0.5,0,0.6,0.2
	c0.1,0.2,0.1,0.5-0.2,0.6l-9.1,5.3C58.8,100,58.8,100.1,58.7,100.1L58.7,100.1z"/>
</svg>
