<?xml version="1.0" encoding="utf-8"?>
<!-- Generator: Adobe Illustrator 24.1.2, SVG Export Plug-In . SVG Version: 6.00 Build 0)  -->
<svg version="1.1" id="Camada_1" xmlns="http://www.w3.org/2000/svg" xmlns:xlink="http://www.w3.org/1999/xlink" x="0px" y="0px"
	 viewBox="0 0 2500 549.5" style="enable-background:new 0 0 2500 549.5;" xml:space="preserve">
<style type="text/css">
	.st0{fill:none;}
	.st1{enable-background:new    ;}
	.st2{fill:#2F3133;}
	.st3{fill-rule:evenodd;clip-rule:evenodd;fill:#005EB8;}
</style>
<path class="st0" d="M0,13.7h2500v522H0V13.7z"/>
<g class="st1">
	<path class="st2" d="M788.7,315.2v-20.8l75-0.1V360c-11.5,9.2-23.4,16.1-35.6,20.7c-12.2,4.6-24.8,6.9-37.7,6.9
		c-17.4,0-33.2-3.7-47.4-11.2c-14.2-7.4-24.9-18.2-32.2-32.3c-7.2-14.1-10.9-29.8-10.9-47.2c0-17.2,3.6-33.3,10.8-48.2
		c7.2-14.9,17.6-26,31.1-33.3c13.5-7.2,29.1-10.9,46.7-10.9c12.8,0,24.4,2.1,34.7,6.2c10.3,4.1,18.5,9.9,24.3,17.3
		c5.9,7.4,10.3,17.1,13.4,29l-21.1,5.8c-2.7-9-6-16.1-9.9-21.2c-3.9-5.1-9.6-9.3-16.9-12.4c-7.3-3.1-15.5-4.6-24.4-4.6
		c-10.7,0-20,1.6-27.8,4.9c-7.8,3.3-14.1,7.5-18.9,12.9c-4.8,5.3-8.5,11.1-11.2,17.5c-4.5,10.9-6.8,22.8-6.8,35.6
		c0,15.8,2.7,29,8.1,39.6c5.4,10.6,13.3,18.5,23.7,23.7c10.4,5.2,21.4,7.7,33.1,7.7c10.1,0,20-2,29.7-5.9c9.7-3.9,17-8.1,22-12.5
		v-33H788.7z"/>
	<path class="st2" d="M898.7,384.6v-177h128v20.9H922.1v54.2h97.9v20.8h-97.9v60.2h108.7v20.9H898.7z"/>
	<path class="st2" d="M1132.5,384.6v-177h23.4v72.7h92v-72.7h23.4v177H1248v-83.4h-92v83.4H1132.5z"/>
	<path class="st2" d="M1395.4,343.3l22.5,2.8c-3.5,13.1-10.1,23.3-19.7,30.5c-9.6,7.2-21.8,10.9-36.7,10.9
		c-18.8,0-33.6-5.8-44.6-17.3c-11-11.5-16.5-27.7-16.5-48.6c0-21.6,5.6-38.3,16.7-50.2c11.1-11.9,25.5-17.9,43.2-17.9
		c17.1,0,31.1,5.8,42,17.5c10.9,11.7,16.3,28.1,16.3,49.3c0,1.3,0,3.2-0.1,5.8h-95.6c0.8,14.1,4.8,24.9,12,32.4
		c7.2,7.5,16.1,11.2,26.8,11.2c8,0,14.8-2.1,20.4-6.3C1387.6,359.2,1392.1,352.5,1395.4,343.3z M1324,308.2h71.6
		c-1-10.8-3.7-18.9-8.2-24.3c-6.9-8.4-15.9-12.6-26.9-12.6c-10,0-18.4,3.3-25.2,10C1328.5,288.1,1324.7,297,1324,308.2z"/>
	<path class="st2" d="M1528.8,368.8c-8,6.8-15.8,11.7-23.2,14.5c-7.4,2.8-15.4,4.2-24,4.2c-14.1,0-24.9-3.4-32.5-10.3
		c-7.6-6.9-11.3-15.7-11.3-26.4c0-6.3,1.4-12,4.3-17.2c2.9-5.2,6.6-9.4,11.2-12.5c4.6-3.1,9.8-5.5,15.6-7.1
		c4.3-1.1,10.7-2.2,19.3-3.3c17.5-2.1,30.5-4.6,38.8-7.5c0.1-3,0.1-4.9,0.1-5.7c0-8.9-2.1-15.1-6.2-18.7c-5.6-4.9-13.8-7.4-24.7-7.4
		c-10.2,0-17.8,1.8-22.6,5.4c-4.9,3.6-8.5,9.9-10.8,19l-21.2-2.9c1.9-9.1,5.1-16.4,9.5-22c4.4-5.6,10.8-9.9,19.2-12.9
		c8.4-3,18.1-4.5,29.1-4.5c10.9,0,19.8,1.3,26.7,3.9c6.8,2.6,11.9,5.8,15.1,9.7c3.2,3.9,5.5,8.8,6.8,14.8c0.7,3.7,1.1,10.4,1.1,20
		v29c0,20.2,0.5,33,1.4,38.3c0.9,5.4,2.8,10.5,5.5,15.4h-22.7C1530.9,380.1,1529.4,374.8,1528.8,368.8z M1527,320.3
		c-7.9,3.2-19.7,6-35.5,8.2c-8.9,1.3-15.3,2.7-19,4.3c-3.7,1.6-6.6,4-8.6,7.1c-2,3.1-3,6.5-3,10.3c0,5.8,2.2,10.6,6.6,14.5
		c4.4,3.9,10.8,5.8,19.3,5.8c8.4,0,15.8-1.8,22.3-5.5c6.5-3.7,11.3-8.7,14.4-15c2.3-4.9,3.5-12.2,3.5-21.7V320.3z"/>
	<path class="st2" d="M1582.1,384.6v-177h21.7v177H1582.1z"/>
	<path class="st2" d="M1685,365.2l3.1,19.2c-6.1,1.3-11.6,1.9-16.4,1.9c-7.9,0-14-1.2-18.4-3.7c-4.3-2.5-7.4-5.8-9.2-9.8
		c-1.8-4.1-2.7-12.6-2.7-25.7v-73.8h-15.9v-16.9h15.9v-31.8l21.6-13v44.8h21.9v16.9h-21.9v75c0,6.2,0.4,10.2,1.1,12
		c0.8,1.8,2,3.2,3.7,4.2c1.7,1,4.2,1.6,7.4,1.6C1677.9,366,1681.1,365.7,1685,365.2z"/>
	<path class="st2" d="M1706.2,384.6v-177h21.7v63.5c10.1-11.8,22.9-17.6,38.4-17.6c9.5,0,17.7,1.9,24.8,5.6c7,3.7,12,8.9,15,15.5
		c3,6.6,4.5,16.2,4.5,28.7v81.3h-21.7v-81.3c0-10.9-2.4-18.8-7.1-23.7c-4.7-5-11.4-7.4-20-7.4c-6.4,0-12.5,1.7-18.2,5
		c-5.7,3.3-9.7,7.9-12.1,13.6c-2.4,5.7-3.6,13.6-3.6,23.7v70.1H1706.2z"/>
	<path class="st2" d="M1927.4,337.7l21.4,2.8c-2.3,14.7-8.3,26.3-17.9,34.6c-9.6,8.3-21.4,12.5-35.4,12.5
		c-17.5,0-31.7-5.7-42.3-17.2c-10.7-11.5-16-27.9-16-49.3c0-13.8,2.3-26,6.9-36.3s11.6-18.2,20.9-23.4c9.4-5.2,19.6-7.8,30.6-7.8
		c13.9,0,25.3,3.5,34.2,10.6c8.9,7,14.5,17,17,30l-21.1,3.3c-2-8.6-5.6-15.1-10.7-19.4c-5.1-4.3-11.3-6.5-18.5-6.5
		c-10.9,0-19.8,3.9-26.7,11.8c-6.8,7.8-10.3,20.3-10.3,37.2c0,17.2,3.3,29.7,9.9,37.5c6.6,7.8,15.2,11.7,25.8,11.7
		c8.5,0,15.7-2.6,21.4-7.8C1922.3,356.6,1925.9,348.5,1927.4,337.7z"/>
	<path class="st2" d="M2051,368.8c-8,6.8-15.8,11.7-23.2,14.5c-7.4,2.8-15.4,4.2-24,4.2c-14.1,0-24.9-3.4-32.5-10.3
		c-7.6-6.9-11.3-15.7-11.3-26.4c0-6.3,1.4-12,4.3-17.2c2.9-5.2,6.6-9.4,11.2-12.5c4.6-3.1,9.8-5.5,15.6-7.1
		c4.3-1.1,10.7-2.2,19.3-3.3c17.5-2.1,30.5-4.6,38.8-7.5c0.1-3,0.1-4.9,0.1-5.7c0-8.9-2.1-15.1-6.2-18.7c-5.6-4.9-13.8-7.4-24.7-7.4
		c-10.2,0-17.8,1.8-22.6,5.4c-4.9,3.6-8.5,9.9-10.8,19l-21.2-2.9c1.9-9.1,5.1-16.4,9.5-22c4.4-5.6,10.8-9.9,19.2-12.9
		c8.4-3,18.1-4.5,29.1-4.5c10.9,0,19.8,1.3,26.7,3.9c6.8,2.6,11.9,5.8,15.1,9.7c3.2,3.9,5.5,8.8,6.8,14.8c0.7,3.7,1.1,10.4,1.1,20
		v29c0,20.2,0.5,33,1.4,38.3c0.9,5.4,2.8,10.5,5.5,15.4h-22.7C2053.1,380.1,2051.7,374.8,2051,368.8z M2049.2,320.3
		c-7.9,3.2-19.7,6-35.5,8.2c-8.9,1.3-15.3,2.7-19,4.3c-3.7,1.6-6.6,4-8.6,7.1c-2,3.1-3,6.5-3,10.3c0,5.8,2.2,10.6,6.6,14.5
		c4.4,3.9,10.8,5.8,19.3,5.8c8.4,0,15.8-1.8,22.3-5.5c6.5-3.7,11.3-8.7,14.4-15c2.3-4.9,3.5-12.2,3.5-21.7V320.3z"/>
	<path class="st2" d="M2104.7,384.6V256.4h19.6v19.4c5-9.1,9.6-15.1,13.8-18s8.9-4.3,13.9-4.3c7.3,0,14.8,2.3,22.3,7l-7.5,20.2
		c-5.3-3.1-10.6-4.7-15.9-4.7c-4.8,0-9,1.4-12.8,4.3c-3.8,2.9-6.5,6.8-8.1,11.9c-2.4,7.7-3.6,16.2-3.6,25.4v67.1H2104.7z"/>
	<path class="st2" d="M2275,343.3l22.5,2.8c-3.5,13.1-10.1,23.3-19.7,30.5c-9.6,7.2-21.8,10.9-36.7,10.9c-18.8,0-33.6-5.8-44.6-17.3
		c-11-11.5-16.5-27.7-16.5-48.6c0-21.6,5.6-38.3,16.7-50.2c11.1-11.9,25.5-17.9,43.2-17.9c17.1,0,31.1,5.8,42,17.5
		c10.9,11.7,16.3,28.1,16.3,49.3c0,1.3,0,3.2-0.1,5.8h-95.6c0.8,14.1,4.8,24.9,12,32.4c7.2,7.5,16.1,11.2,26.8,11.2
		c8,0,14.8-2.1,20.4-6.3C2267.2,359.2,2271.7,352.5,2275,343.3z M2203.7,308.2h71.6c-1-10.8-3.7-18.9-8.2-24.3
		c-6.9-8.4-15.9-12.6-26.9-12.6c-10,0-18.4,3.3-25.2,10C2208.1,288.1,2204.4,297,2203.7,308.2z"/>
</g>
<path class="st3" d="M554,274.7C554,123.2,430.8,0,279.3,0C127.8,0,4.6,123.2,4.6,274.7c0,152,123.3,274.7,274.7,274.7
	C430.8,549.5,554,426.7,554,274.7z M540.9,274.7c0,144.6-117,261.6-261.6,261.6c-144.6,0-261.7-117-261.7-261.6S134.7,13,279.3,13
	C423.9,13,540.9,130.9,540.9,274.7z M524.3,274.7c0-86.9-44.3-176.7-139.3-205.4c-19.7-6.1-36.4-9.9-55.6-9.9
	c-44,0-45.5,25.1-66.1,25.1c-11.3,0-19-8.3-19-18.2c0-17.4,20.6-31.2,53.3-31.2c30.5,0,54.1,7.6,58.5,9.8l0.8-2.2
	c-8.3-3.2-37.1-13.1-77.4-13.1c-87.6,0-176.7,45-205.4,139.3C67.9,188.6,64,205.5,64,224.5c0,44.3,25.1,46.3,25.1,66.9
	c0.3,9.9-7.6,18.2-17.5,18.4c-0.2,0-0.4,0-0.7,0c-17.4,0-31.2-20-31.2-53.4c0-30.4,7.6-54.1,9-58.5l-2.2-0.8
	c-2.4,9.2-12.3,37.4-12.3,77.7c0,88.3,45,177.3,139.3,206.2c19.8,6.1,36.6,9.8,55.6,9.8c44.3,0,45.5-25.8,66.1-25.8
	c10.8,0,19.2,8.4,19.2,19c0,16.8-20,30.5-53.4,30.5c-30.4,0-54.8-7.6-58.5-9.2l-0.8,2.3c8.4,3.7,37.4,12.2,77.7,12.2
	c87.5,0,177.3-44.3,205.4-139.3c6.1-18.9,9.8-36.4,9.8-54.8c0-44.8-25.1-46.4-25.1-66.9c0-11.3,7.6-19,18.2-19
	c17.6,0,31.3,20.6,31.3,54.1c0,29.8-7.6,53.3-9.2,58.5l2.3,0.8C515.1,344,524.3,315.8,524.3,274.7L524.3,274.7z M432.1,347.7
	c0,34.2-29.5,70.1-73,70.1c-52.4,0-79.1-44.3-79.1-83.8c0-55.6,37.9-79.1,53.9-87.5c-3.2-2.5-5.8-5.6-7.6-9.2
	c-18.4,13-35,24.4-70.1,44.3c-1.5,24.3-3.7,50.9-9.9,69.3c-13,38.8-39.6,66.9-74.5,66.9c-29.5,0-44-21.4-44-44.3
	c0-16.7,9.8-38,27.5-54.1c22.1-19.8,46.4-31.9,79.9-49.5c0.8-4.5,1.5-9,2.3-14.5c-8.4,7.6-20.5,10.8-30.5,10.8
	c-15.9,0-29-13.7-31.9-28.1c-21.4-1.5-37.4-16.8-38.1-41.1c0-17.4,6.9-32.7,18.4-32.7c4.5,0,6.1,3.7,6.1,6.9c0,2.9-3.9,13-3.9,22.6
	c0,10.1,4.7,22.9,16.8,22.9c0-39.6,29-90.6,63.2-90.6c22.6,0,25.8,16.8,25.8,24.4c0,35.9-35.7,75.3-64.8,85.1
	c0.8,3.2,3.9,11.6,13.1,11.6c11.3,0,25.1-10.8,31.9-19.2c2.9-15.8,14.5-38.7,29.8-38.7c6.1,0,9,4.5,9,9.9
	c0,11.3-12.1,25.8-21.4,35.6c-1.4,7.6-2.1,15.2-2.2,22.9c26.6-16,40.3-24.3,60-38.8c-1.5-5.4-1.5-11.6-1.5-17.6
	c0-35.6,23.7-75.3,54.8-75.3c17.7,0,26.6,12.3,26.6,26.1c0,25.8-22.1,48.4-53.2,72.2c2.4,6.1,6.1,11.3,12.1,14.5
	c0.8-1.5,10.7-3.2,19-3.2c9.1,0,22.1,2.4,22.1,11.6c0,10.5-14.5,13-25.8,13c-6.1,0.8-16-1.5-16-1.5c-16.7,4.5-48.7,23.7-48.7,72.3
	c0,32.8,20.6,63.2,52.7,63.2c24.3,0,44-18.2,44.8-46.4c0-18.2-7.6-37.4-25.8-37.4c-9.2,0-17.4,6.9-17.4,16.8
	c-0.8,15.3,10.6,16.8,10.6,26.6c0,6.9-5.2,10-10.6,10c-15.2,0-26.8-15.3-26.8-34.2c0-22.9,20-41.9,45.8-41.9
	C414.8,287.6,432.1,316.6,432.1,347.7L432.1,347.7z M376,155.9c0-3.7-0.8-8.4-5.5-8.4c-11.3,0-29.5,24.4-29.5,55.6
	C363.6,183.3,376,166.5,376,155.9L376,155.9z M241.2,152.7c0-3.7-2.2-5.2-5.4-5.2c-16,0-38.7,41.9-38.7,66.9
	C222.2,200.7,241.2,169.7,241.2,152.7L241.2,152.7z M232.1,295.2c-34.2,16.7-77.7,46.4-77.7,79.1c0,12.1,6.1,19.7,17.4,19.7
	C205.3,394,225.9,340.9,232.1,295.2L232.1,295.2z"/>
</svg>
