<?xml version="1.0" encoding="utf-8"?>
<!-- Generator: Adobe Illustrator 24.1.2, SVG Export Plug-In . SVG Version: 6.00 Build 0)  -->
<svg version="1.1" id="Camada_1" xmlns="http://www.w3.org/2000/svg" xmlns:xlink="http://www.w3.org/1999/xlink" x="0px" y="0px"
	 viewBox="0 0 195.6 230.7" style="enable-background:new 0 0 195.6 230.7;" xml:space="preserve">
<style type="text/css">
	.st0{fill:#007AC0;}
</style>
<path class="st0" d="M192.7,63.4c-0.3,0-0.5-0.1-0.8-0.2c-0.6-0.3-0.6-0.3-1.4-0.2c-0.9,0.1-1.8-0.5-2-1.4c-0.1-0.9,0.5-1.8,1.4-2
	c0.9-0.1,1.5-0.2,2.1,0c0,0,0,0,0,0c0.3,0,0.6,0.1,0.8,0.2c0.2,0.1,0.4,0.3,0.7,0.4c0.7,0.5,0.9,1.5,0.5,2.3
	C193.8,63.1,193.3,63.4,192.7,63.4L192.7,63.4z"/>
<path class="st0" d="M192.2,63c-0.3,0-0.6-0.1-0.8-0.2l-15.7-9c-0.6-0.3-1-0.9-1-1.5c0-0.9,0.8-1.7,1.7-1.7c0.3,0,0.6,0.1,0.9,0.2
	l15.8,9.1c0.8,0.5,1.1,1.5,0.6,2.3C193.3,62.7,192.8,63,192.2,63L192.2,63z"/>
<path class="st0" d="M172.5,45.7c-0.3,0-0.7-0.1-1-0.3c-0.8-0.6-0.9-1.6-0.4-2.4c0.3-0.4,0.7-0.9,1.3-1.4c0,0,0.1-0.1,0.1-0.1
	c0.1,0,0.1-0.1,0.2-0.1c0.1-0.2,0.3-0.4,0.6-0.5c0.2-0.1,0.3-0.2,0.6-0.4c0.4-0.3,1-0.6,1.7-0.8c0.2-0.1,0.5-0.1,0.6-0.1l0,0
	c0.4-0.1,0.8-0.2,1.4,0.1c0.9,0.4,1.3,1.4,0.9,2.2c-0.3,0.7-0.9,1.1-1.6,1c-0.1,0-0.2,0-0.3,0c0,0-0.1,0-0.1,0c-0.1,0-0.1,0-0.1,0
	c-0.2,0-0.4,0.1-0.7,0.4c-0.1,0-0.1,0.1-0.2,0.1c-0.1,0-0.2,0.1-0.3,0.2l0,0c-0.1,0.1-0.1,0.1-0.2,0.2c-0.1,0.1-0.1,0.1-0.2,0.2
	c-0.1,0.1-0.2,0.2-0.3,0.3c-0.3,0.2-0.4,0.4-0.7,0.7C173.6,45.5,173,45.7,172.5,45.7L172.5,45.7z M174.2,44.1L174.2,44.1L174.2,44.1
	L174.2,44.1z M174.2,44.1L174.2,44.1L174.2,44.1L174.2,44.1z M174.2,44.1L174.2,44.1L174.2,44.1L174.2,44.1z M174.2,44.1L174.2,44.1
	L174.2,44.1L174.2,44.1z M174.2,44.1C174.2,44.1,174.2,44.1,174.2,44.1C174.2,44.1,174.2,44.1,174.2,44.1L174.2,44.1z M174.2,44.1
	L174.2,44.1L174.2,44.1L174.2,44.1z"/>
<path class="st0" d="M158.4,63.3c-0.4,0-0.8-0.1-1.1-0.4c-0.7-0.6-0.8-1.7-0.3-2.4l14.1-17.6c0.6-0.7,1.7-0.9,2.4-0.3
	c0.7,0.6,0.9,1.7,0.3,2.4l-3.3,4.1l-10.9,13.5C159.4,63.1,158.9,63.3,158.4,63.3L158.4,63.3z"/>
<path class="st0" d="M177.4,52.7c-0.4,0-0.7-0.1-1.1-0.4c-0.7-0.6-0.9-1.7-0.3-2.4c2-2.5,2.5-5.6,1.7-6.7c-0.1-0.1-0.1-0.1-0.1-0.1
	c-0.1-0.1-0.2-0.1-0.2-0.2c-0.1,0-0.1-0.1-0.2-0.1c-0.8-0.6-0.9-1.6-0.3-2.4c0.6-0.8,1.6-0.9,2.4-0.3c0,0,0.1,0.1,0.3,0.2
	c0.4,0.3,0.8,0.6,1.1,1.1c1.8,2.5,1,7.1-1.9,10.7C178.4,52.4,177.9,52.7,177.4,52.7L177.4,52.7z M177.3,42.8L177.3,42.8L177.3,42.8
	L177.3,42.8z"/>
<path class="st0" d="M151.3,122.8c0,0-0.1,0-0.1,0l-28.3-2.5c-0.9-0.1-1.6-0.9-1.5-1.9c0.1-0.9,0.9-1.6,1.9-1.6l20.6,1.8l-14-8.1
	c-0.8-0.5-1.1-1.5-0.6-2.3c0.5-0.8,1.5-1.1,2.3-0.6l20.7,12c0.7,0.4,1,1.2,0.8,2C152.7,122.4,152,122.8,151.3,122.8L151.3,122.8z"/>
<path class="st0" d="M178.1,125.4L178.1,125.4c-0.4,0-0.8-0.1-1-0.3c-0.1-0.1-0.2-0.2-0.4-0.3c-0.7-0.7-0.7-1.8,0-2.4
	c0.6-0.6,1.6-0.7,2.2-0.1c0.5,0.3,0.8,0.8,0.8,1.5C179.8,124.6,179.1,125.4,178.1,125.4L178.1,125.4z M178.8,122.2L178.8,122.2
	L178.8,122.2L178.8,122.2z"/>
<path class="st0" d="M178.1,125.4c-0.2,0-0.3,0-0.5-0.1l-0.5-0.1l-14-1.2c-0.9-0.1-1.6-0.9-1.5-1.9c0.1-0.9,0.9-1.6,1.9-1.5
	l14.2,1.3c0.1,0,0.2,0,0.3,0.1l0.7,0.2c0.9,0.3,1.4,1.2,1.1,2.1C179.5,124.9,178.8,125.4,178.1,125.4L178.1,125.4z"/>
<path class="st0" d="M190.3,99.9c-0.5,0-1-0.2-1.3-0.6c-0.6-0.7-0.5-1.8,0.2-2.4c2.3-2,3.4-5.4,2.9-7.1c-0.1-0.2-0.2-0.6-0.5-0.7
	c-0.5-0.1-0.7-0.1-0.9,0c-0.1,0-0.1,0-0.2,0l0,0c-0.1,0-0.2,0.1-0.2,0.1c-0.2,0.1-0.3,0.1-0.4,0.2c0,0-0.1,0-0.1,0.1
	c0,0-0.1,0-0.1,0.1c-0.1,0-0.1,0.1-0.2,0.1c0,0-0.2,0.1-0.6,0.5c-0.7,0.6-1.8,0.5-2.4-0.2c-0.6-0.7-0.5-1.8,0.2-2.4
	c0.4-0.3,0.7-0.6,1-0.7c0.2-0.2,0.4-0.3,0.8-0.5c0.2-0.1,0.4-0.2,0.6-0.3c0.3-0.1,0.6-0.3,1-0.3c0.8-0.2,1.6-0.2,2.5,0.1
	c0,0,0.1,0,0.1,0c1.3,0.4,2.3,1.5,2.7,3c0.9,3.2-0.8,7.9-4,10.6C191.1,99.8,190.7,99.9,190.3,99.9L190.3,99.9z M189.5,89.5
	L189.5,89.5L189.5,89.5L189.5,89.5z M190.3,89.1L190.3,89.1L190.3,89.1L190.3,89.1z"/>
<path class="st0" d="M151.3,122.8c-0.3,0-0.6-0.1-0.9-0.2l-20.7-12c-0.8-0.5-1.1-1.5-0.6-2.3c0.5-0.8,1.5-1.1,2.3-0.6l19.7,11.4
	l8-7.1l27.6-24.5c0.7-0.6,1.8-0.6,2.4,0.1c0.6,0.7,0.6,1.8-0.1,2.4l-27.6,24.5l-8.9,7.9C152.1,122.7,151.7,122.8,151.3,122.8
	L151.3,122.8z"/>
<path class="st0" d="M164.6,23.4c-0.3,0-0.6-0.1-0.8-0.2l-0.5-0.3c-0.1,0-0.1-0.1-0.2-0.1L132.9,5.3c-0.8-0.5-1.1-1.5-0.6-2.3
	c0.5-0.8,1.5-1.1,2.3-0.6l30.2,17.5c0,0,0.1,0,0.1,0.1l0.4,0.2c0.8,0.4,1.1,1.5,0.7,2.3C165.8,23,165.2,23.4,164.6,23.4L164.6,23.4z
	"/>
<path class="st0" d="M156.2,30.4c-0.2,0-0.3,0-0.5-0.1c-0.9-0.3-1.4-1.2-1.2-2.1l0-0.1c0-0.2,0.1-0.3,0.2-0.5c0.3-0.9,1.1-3.1,2.7-5
	c0.1-0.3,0.3-0.5,0.6-0.7c0,0,0,0,0.1-0.1c0.1-0.1,0.2-0.2,0.2-0.3c0.2-0.2,0.5-0.4,0.7-0.6l0.2-0.1c0.8-0.7,1.7-1.1,2.6-1.3
	c0.2-0.1,0.4-0.1,0.6-0.1c0.3-0.1,0.5-0.1,0.8,0c0.7,0,1.5,0.2,2.2,0.6c0.9,0.4,1.2,1.4,0.8,2.3c-0.4,0.8-1.4,1.2-2.3,0.8
	c-0.4-0.2-0.7-0.2-1-0.3c0,0-0.1,0-0.1,0c0,0-0.1,0-0.1,0c-0.1,0-0.1,0-0.2,0c-0.4,0.1-0.8,0.3-1.2,0.6l-0.2,0.1
	c-0.1,0.1-0.3,0.2-0.4,0.4l-0.1,0.1c-0.1,0.1-0.1,0.2-0.2,0.2c0,0-0.1,0.1-0.1,0.1c-0.9,1.1-1.8,2.6-2.3,4.2c0,0,0,0.1-0.1,0.1
	c0,0,0,0.1,0,0.1l0,0.2C157.6,29.9,156.9,30.4,156.2,30.4L156.2,30.4z M162.6,22.9L162.6,22.9L162.6,22.9L162.6,22.9z"/>
<path class="st0" d="M118.1,113.4c-0.4,0-0.8-0.1-1.1-0.4c-0.7-0.6-0.8-1.7-0.3-2.4l5.3-6.6l12.1-15.1c0-0.1,0.1-0.1,0.1-0.1
	l10.5-13.1l9.7-47.3c0.1-0.8,0.8-1.4,1.7-1.4c0.9,0,1.7,0.7,1.7,1.7v0.1c0,0.1,0,0.2,0,0.3l-9.8,47.7c-0.1,0.3-0.2,0.5-0.3,0.7
	L136.9,91c0,0-0.1,0.1-0.1,0.1l-12,15l-5.3,6.6C119.1,113.2,118.6,113.4,118.1,113.4L118.1,113.4z"/>
<path class="st0" d="M172.8,137.7c-0.1,0-0.3,0-0.4,0c-0.9-0.1-1.6-0.9-1.5-1.9c0.1-0.9,0.9-1.6,1.9-1.6c1.2,0.1,3.7-1.7,4.9-4.8
	c0.9-2.4,0.5-4-0.1-4.2c-0.9-0.4-1.3-1.4-0.9-2.2c0.4-0.9,1.4-1.3,2.2-0.9c2.7,1.1,3.5,4.6,2,8.6
	C179.2,134.8,175.8,137.7,172.8,137.7L172.8,137.7z"/>
<path class="st0" d="M165.6,163.5c-0.8,0-1.4-0.5-1.7-1.3l-7.3-27.1c-0.1-0.5,0-1.1,0.3-1.5c0.4-0.4,0.9-0.7,1.5-0.6l14.2,1.3
	c0.9,0.1,1.6,0.9,1.6,1.9c-0.1,0.9-0.9,1.6-1.9,1.6l-11.8-1l6.7,24.7c0.2,0.9-0.3,1.9-1.2,2.1C165.9,163.5,165.8,163.5,165.6,163.5
	L165.6,163.5z"/>
<path class="st0" d="M158.8,173.9c-0.8,0-1.5-0.2-2.1-0.6c-0.1-0.1-0.2-0.1-0.4-0.2c-0.2-0.1-0.3-0.2-0.5-0.3
	c-0.3-0.3-0.5-0.5-0.6-0.8c-0.3-0.4-0.5-0.9-0.7-1.5c-0.2-0.9,0.4-1.8,1.3-2c0.9-0.2,1.8,0.4,2,1.3c0,0.2,0.1,0.2,0.1,0.2
	c0.1,0.1,0.1,0.1,0.2,0.2c0.1,0.1,0.1,0.1,0.2,0.2c0.5,0.3,1.5,0,2.7-1c2.3-2,3.4-5.4,2.9-7.1c-0.2-0.9,0.3-1.9,1.2-2.1
	c0.9-0.2,1.9,0.3,2.1,1.2c0.8,3.2-0.9,7.8-4,10.6C161.8,173.3,160.2,173.9,158.8,173.9L158.8,173.9z"/>
<path class="st0" d="M111.1,214.5c-0.7,0-1.5-0.2-2.1-0.5c-0.8-0.5-1.1-1.5-0.7-2.3c0.5-0.8,1.5-1.1,2.3-0.7c0.4,0.2,1,0.1,1.8-0.3
	c2.2-1.3,4-4.5,4-7c0-0.9,0.8-1.7,1.7-1.7c0.9,0,1.7,0.8,1.7,1.7c0,3.7-2.5,8.1-5.7,10C113.1,214.2,112,214.5,111.1,214.5
	L111.1,214.5z"/>
<path class="st0" d="M118.1,205.4c-0.9,0-1.7-0.8-1.7-1.7v-18.8c0-0.6,0.3-1.2,0.9-1.5c0.5-0.3,1.2-0.3,1.7,0l19.8,11.4
	c0.8,0.5,1.1,1.5,0.6,2.3c-0.5,0.8-1.5,1.1-2.3,0.6l-17.2-9.9v15.9C119.8,204.6,119.1,205.4,118.1,205.4L118.1,205.4z"/>
<path class="st0" d="M139.2,198.3c-0.8,0-1.5-0.2-2.1-0.6c-0.8-0.5-1.1-1.5-0.6-2.3c0.5-0.8,1.5-1.1,2.3-0.6c0.3,0.2,1,0.1,1.7-0.3
	c1-0.6,2.1-1.7,2.8-3c1.5-2.7,1.4-5.2,0.6-5.6c-0.8-0.5-1.1-1.5-0.6-2.3c0.5-0.8,1.5-1.1,2.3-0.6c2.8,1.6,3,6.1,0.6,10.3
	c-1.1,1.9-2.5,3.4-4.1,4.3C141.2,198,140.1,198.3,139.2,198.3L139.2,198.3z"/>
<path class="st0" d="M109.8,214.2c-0.3,0-0.6-0.1-0.9-0.2c-0.2-0.1-0.4-0.2-0.6-0.5c-0.1-0.1-0.1-0.1-0.2-0.2
	c-0.3-0.3-0.5-0.6-0.7-0.9c-0.3-0.5-0.5-0.9-0.5-1.3c0-0.1,0-0.1,0-0.2c0-0.1,0-0.1-0.1-0.2c0-0.1-0.1-0.2-0.1-0.3
	c-0.1-0.4-0.1-0.8-0.1-1.1c0-0.9,0.8-1.7,1.7-1.7c0.9,0,1.7,0.8,1.7,1.7c0,0.2,0,0.4,0,0.5c0,0.1,0.1,0.2,0.1,0.3l0,0.1
	c0,0,0,0.1,0,0.1c0,0,0,0.1,0,0.1c0,0.1,0.1,0.1,0.1,0.2c0.1,0.2,0.3,0.3,0.5,0.6c0.7,0.6,0.9,1.6,0.4,2.3
	C110.9,213.9,110.4,214.2,109.8,214.2L109.8,214.2z M110.7,211.1L110.7,211.1L110.7,211.1L110.7,211.1z"/>
<path class="st0" d="M81.7,222.4c-0.3,0-0.6-0.1-0.9-0.2c-0.8-0.5-1.1-1.5-0.6-2.3l25.8-44.7l-19.2-11.1c-0.8-0.5-1.1-1.5-0.6-2.3
	c0.5-0.8,1.5-1.1,2.3-0.6l20.7,11.9c0.4,0.2,0.7,0.6,0.8,1c0.1,0.4,0.1,0.9-0.2,1.3l-26.7,46.2C82.8,222.1,82.3,222.4,81.7,222.4
	L81.7,222.4z"/>
<path class="st0" d="M81.7,230.4c-0.4,0-0.8-0.1-1.1-0.4c-0.8-0.7-1.3-1.4-1.6-2.1c-0.1-0.3-0.2-0.6-0.3-1c-0.2-0.8-0.2-1.7,0-2.7
	c0-0.3,0.1-0.7,0.2-1.1c0-0.1,0.1-0.2,0.1-0.3l0-0.1c0-0.1,0.1-0.2,0.1-0.3c0.1-0.3,0.2-0.6,0.4-1l0-0.1c0.1-0.4,0.3-0.7,0.4-0.9
	c0.1-0.1,0.1-0.2,0.2-0.3c0.4-0.9,1.4-1.2,2.3-0.8c0.8,0.4,1.2,1.4,0.8,2.3c-0.1,0.1-0.1,0.3-0.2,0.4c-0.1,0.2-0.2,0.4-0.3,0.6
	l0,0.1c-0.1,0.4-0.3,0.7-0.4,1.1l-0.1,0.1c0,0.1-0.1,0.1-0.1,0.2c-0.1,0.2-0.1,0.5-0.1,0.7c0,0,0,0.1,0,0.1c-0.1,0.6-0.1,1,0,1.4
	c0,0.1,0,0.1,0,0.2c0,0.2,0.1,0.3,0.1,0.3c0,0,0,0.1,0,0.1c0.1,0.2,0.3,0.5,0.6,0.7c0.7,0.6,0.8,1.7,0.2,2.4
	C82.7,230.2,82.2,230.4,81.7,230.4L81.7,230.4z"/>
<path class="st0" d="M108.4,176.2c-0.3,0-0.6-0.1-0.8-0.2l-20.7-11.9c-0.8-0.5-1.1-1.5-0.6-2.3c0.5-0.8,1.5-1.1,2.3-0.6l18.1,10.4
	v-34.8c0-0.9,0.8-1.7,1.7-1.7c0.9,0,1.7,0.8,1.7,1.7v37.7c0,0.6-0.3,1.2-0.9,1.5C109,176.1,108.7,176.2,108.4,176.2L108.4,176.2z"/>
<path class="st0" d="M30.1,206.2c-0.1,0-0.2,0-0.3,0c-0.9-0.2-1.5-1.1-1.3-2l1.5-7.2c0.1-0.9,1-1.6,2-1.4c0.9,0.2,1.6,1,1.4,2l0,0.2
	l-1.5,7.1C31.6,205.6,30.9,206.2,30.1,206.2L30.1,206.2z"/>
<path class="st0" d="M61.9,228.5c-0.3,0-0.5-0.1-0.8-0.2l-0.2-0.1c0,0-0.1,0-0.1,0l-30.6-17.7c-0.8-0.5-1.1-1.5-0.6-2.3
	c0.5-0.8,1.5-1.1,2.3-0.6l30.7,17.7c0.8,0.4,1.2,1.4,0.8,2.3C63.2,228.2,62.6,228.5,61.9,228.5L61.9,228.5z"/>
<path class="st0" d="M61.9,228.5c-0.4,0-0.8-0.1-1.2-0.4c-0.6-0.6-1.1-1.2-1.4-2c0,0,0-0.1,0-0.1c-0.4-1.1-0.4-2.5-0.2-4
	c0.2-0.9,1.1-1.5,2-1.4c0.9,0.2,1.5,1.1,1.4,2c-0.2,1.1-0.1,1.8,0,2.2c0.1,0.3,0.3,0.6,0.5,0.8c0.7,0.6,0.7,1.7,0.1,2.4
	C62.9,228.3,62.4,228.5,61.9,228.5L61.9,228.5z"/>
<path class="st0" d="M60.9,224c-0.1,0-0.2,0-0.3,0c-0.9-0.2-1.5-1.1-1.3-2l1-5l6.3-30.5c0.2-0.9,1.1-1.5,2-1.3
	c0.9,0.2,1.5,1.1,1.3,2l-7.3,35.4C62.4,223.4,61.7,224,60.9,224L60.9,224z"/>
<path class="st0" d="M47.9,208.5c-0.3,0-0.6-0.1-0.9-0.2l-30.8-17.8c-0.1-0.1-0.2-0.2-0.3-0.3l-0.6-0.6c-0.6-0.6-0.7-1.6-0.2-2.3
	c0.5-0.7,1.5-0.9,2.2-0.5l30.8,17.8c0.1,0.1,0.2,0.2,0.3,0.3l0.6,0.6c0.6,0.6,0.7,1.6,0.2,2.3C48.9,208.3,48.4,208.5,47.9,208.5
	L47.9,208.5z"/>
<path class="st0" d="M49.1,199.2c-0.4,0-0.8-0.1-1.1-0.4c-0.7-0.6-0.9-1.7-0.3-2.4L62,178.8c0.6-0.7,1.7-0.8,2.4-0.3
	c0.7,0.6,0.8,1.7,0.3,2.4l-2.3,2.8l-11.9,14.8C50.1,199,49.6,199.2,49.1,199.2L49.1,199.2z"/>
<path class="st0" d="M47.3,207.9c-0.5,0-1.1-0.3-1.4-0.7c-0.3-0.4-0.4-0.9-0.5-1.2c-0.1-0.3-0.2-0.5-0.2-0.7
	c-0.3-1.1-0.3-2.3,0.1-3.7c0.1-0.5,0.2-0.9,0.4-1.3l0-0.1c0-0.1,0-0.1,0.1-0.1l0.1-0.1c0.1-0.3,0.3-0.7,0.5-1.1
	c0.1-0.2,0.2-0.4,0.3-0.5c0.1-0.3,0.2-0.5,0.4-0.7c0.2-0.4,0.5-0.9,0.9-1.3c0.6-0.7,1.7-0.8,2.4-0.2c0.7,0.6,0.8,1.7,0.2,2.4
	c-0.2,0.3-0.4,0.6-0.6,1c0,0,0,0.1-0.1,0.1c0,0,0,0.1-0.1,0.1c-0.1,0.2-0.2,0.4-0.3,0.5c0,0.1-0.1,0.2-0.2,0.3
	c-0.1,0.1-0.2,0.4-0.3,0.6l0,0.1c-0.1,0.3-0.2,0.6-0.2,0.7c0,0.1,0,0.2-0.1,0.3c-0.2,0.8-0.3,1.5-0.1,2c0,0,0,0.1,0,0.1
	c0,0.1,0.1,0.3,0.1,0.4c0,0,0,0.1,0,0.1c0,0,0,0.1,0,0.1c0.5,0.8,0.3,1.8-0.4,2.4C48,207.8,47.7,207.9,47.3,207.9L47.3,207.9z"/>
<path class="st0" d="M47.3,207.9c-0.3,0-0.6-0.1-0.8-0.2l-30.8-17.8c-0.8-0.5-1.1-1.5-0.6-2.3c0.5-0.8,1.5-1.1,2.3-0.6l30.8,17.8
	c0.8,0.5,1.1,1.5,0.6,2.3C48.5,207.6,47.9,207.9,47.3,207.9L47.3,207.9z"/>
<path class="st0" d="M38.7,176.6c-0.8,0-1.4-0.5-1.6-1.3c-0.2-0.9,0.3-1.8,1.2-2.1l32.5-8.7l-22.2-12.8c-0.8-0.5-1.1-1.5-0.6-2.3
	c0.5-0.8,1.5-1.1,2.3-0.6l25.8,14.9c0.6,0.3,0.9,1,0.8,1.7c-0.1,0.7-0.6,1.3-1.3,1.4l-2.9,0.8c-0.1,0-0.1,0-0.2,0l-33.4,9
	C39,176.5,38.9,176.6,38.7,176.6L38.7,176.6z"/>
<path class="st0" d="M33.7,188.4c-0.5,0-1.1-0.3-1.4-0.7c0-0.1-0.1-0.1-0.1-0.2c-1.2-1.5-1.5-3.3-1.1-5.4c0.6-3.6,3.6-8.1,7.4-9.1
	l35.7-9.5l25.9-32.3l-24.4-2.2l-35.9,31.9c-0.7,0.6-1.8,0.6-2.4-0.1c-0.6-0.7-0.6-1.8,0.1-2.4L74.1,126c0.4-0.3,0.8-0.5,1.3-0.4
	l28.3,2.5c0.6,0.1,1.2,0.5,1.4,1c0.2,0.6,0.2,1.2-0.2,1.7l-28.3,35.2c-0.2,0.3-0.5,0.5-0.9,0.6l-36.3,9.7c-2.3,0.6-4.5,3.9-4.9,6.4
	c0,0,0,0.1,0,0.1c-0.3,1.5,0.1,2.2,0.5,2.7c0.3,0.3,0.4,0.8,0.4,1.2c0,0.5-0.2,1.1-0.7,1.4C34.4,188.3,34.1,188.4,33.7,188.4
	L33.7,188.4z"/>
<path class="st0" d="M7.9,158.7c-0.8,0-1.4-0.5-1.7-1.3c-0.2-0.9,0.3-1.9,1.2-2.1l13.3-3.6c0.1,0,0.3-0.1,0.4-0.1
	c0.9,0,1.7,0.8,1.7,1.7c0,0.9-0.6,1.6-1.4,1.7l-13.1,3.5C8.2,158.7,8.1,158.7,7.9,158.7L7.9,158.7z"/>
<path class="st0" d="M3,170.7c-0.4,0-0.9-0.2-1.2-0.5c-3-3-1.3-7-0.5-8.9c0-0.1,0.1-0.1,0.1-0.2c1.5-2.7,3-4.5,6-5.7
	c0.9-0.3,1.9,0.1,2.2,1c0.3,0.9-0.1,1.9-1,2.2c-2.1,0.8-3,1.9-4.2,4.1c-1.1,2.7-1.1,4.1-0.1,5.1c0.7,0.7,0.6,1.8,0,2.4
	C3.9,170.6,3.4,170.7,3,170.7L3,170.7z"/>
<path class="st0" d="M33.8,188.5c-0.3,0-0.6-0.1-0.9-0.2L2.2,170.5c-0.8-0.5-1.1-1.5-0.6-2.3c0.5-0.8,1.5-1.1,2.3-0.6l30.6,17.7
	c0.6,0.3,0.9,0.9,0.9,1.5C35.4,187.7,34.7,188.5,33.8,188.5L33.8,188.5z"/>
<path class="st0" d="M35.3,189c-0.5,0-0.9-0.1-1.3-0.2c-0.1,0-0.1,0-0.2-0.1l-0.1,0c-0.3-0.1-0.7-0.3-1.1-0.7
	c-0.7-0.6-0.8-1.7-0.1-2.4c0.6-0.7,1.7-0.8,2.4-0.2c0.1,0,0.1,0.1,0.2,0.1c0.2,0,0.5,0,0.9-0.1c0.9-0.2,1.8,0.4,2,1.3
	c0.2,0.9-0.4,1.8-1.3,2C36.1,188.9,35.7,189,35.3,189L35.3,189z M34.9,185.5L34.9,185.5L34.9,185.5L34.9,185.5z"/>
<path class="st0" d="M75.2,166.8c-0.3,0-0.6-0.1-0.8-0.2l-1.8-1.1l-24-13.8c-0.8-0.5-1.1-1.5-0.6-2.3c0.5-0.8,1.5-1.1,2.3-0.6
	l24.6,14.1l4.4-5.4l23-28.7c0.6-0.7,1.7-0.9,2.4-0.3c0.7,0.6,0.9,1.7,0.3,2.4l-2.3,2.8l-26.1,32.4C76.2,166.5,75.7,166.8,75.2,166.8
	L75.2,166.8z"/>
<path class="st0" d="M36.2,151.9c-0.5,0-1-0.2-1.3-0.6c-0.6-0.7-0.6-1.8,0.2-2.4l1.3-1.1L62.2,125c0.7-0.6,1.8-0.6,2.4,0.1
	c0.6,0.7,0.6,1.8-0.1,2.4l-27.1,24C37,151.8,36.6,151.9,36.2,151.9L36.2,151.9z"/>
<path class="st0" d="M34.2,162.7c-0.5,0-1-0.2-1.3-0.6c0,0,0,0-0.1,0c-0.4-0.3-0.6-0.5-0.7-0.6l-0.1-0.2c-0.1-0.1-0.2-0.3-0.3-0.5
	c-0.2-0.4-0.3-0.7-0.5-1c-0.7-1.8-0.4-4.1,0.9-6.6c0.2-0.4,0.4-0.8,0.6-1.1c0.4-0.7,0.9-1.5,1.5-2c0.3-0.4,0.7-0.7,1-1
	c0.7-0.6,1.8-0.5,2.4,0.2c0.6,0.7,0.5,1.8-0.2,2.4c-0.2,0.2-0.4,0.4-0.5,0.5c0,0-0.1,0.1-0.1,0.1c-0.4,0.4-0.8,0.9-1.1,1.5
	c-0.2,0.3-0.4,0.6-0.5,0.8c0,0,0,0.1-0.1,0.1c-0.8,1.6-1.1,3-0.7,3.9c0.1,0.2,0.1,0.4,0.2,0.4c0.1,0.1,0.1,0.1,0.1,0.2l0,0.1
	c0,0,0,0.1,0.1,0.1c0,0,0.1,0,0.1,0.1c0.2,0.1,0.3,0.2,0.5,0.4c0.3,0.3,0.5,0.8,0.5,1.2C35.9,161.9,35.1,162.7,34.2,162.7
	L34.2,162.7z M35.8,160.8C35.8,160.8,35.8,160.8,35.8,160.8S35.8,160.8,35.8,160.8L35.8,160.8z M35.8,160.8 M34.7,159.2L34.7,159.2
	L34.7,159.2L34.7,159.2z"/>
<path class="st0" d="M35.3,162.9c-0.5,0-0.9-0.1-1.2-0.2c-0.3,0-0.5-0.1-0.7-0.3c-0.1-0.1-0.3-0.2-0.4-0.3c-0.8-0.4-1.1-1.3-0.8-2.1
	c0.3-0.9,1.3-1.3,2.2-1c0.1,0,0.2,0.1,0.3,0.1c0.2,0.1,0.3,0.1,0.5,0.3c0,0,0,0,0,0c0,0,0.1,0,0.2,0c0.6,0,1.5-0.4,2.2-1.1
	c0.7-0.6,1.8-0.6,2.4,0.1c0.6,0.7,0.6,1.8-0.1,2.4C38.4,162.2,36.8,162.9,35.3,162.9L35.3,162.9z M35.5,159.9L35.5,159.9L35.5,159.9
	L35.5,159.9z M34.1,159.2C34.2,159.2,34.2,159.2,34.1,159.2C34.2,159.2,34.2,159.2,34.1,159.2L34.1,159.2z M34.1,159.1L34.1,159.1
	L34.1,159.1L34.1,159.1z"/>
<path class="st0" d="M33.7,162.4c-0.3,0-0.6-0.1-0.9-0.2l-12.3-7.1c-0.1,0-0.1-0.1-0.2-0.1L2.6,144.7c-0.8-0.5-1.1-1.5-0.6-2.3
	c0.5-0.8,1.5-1.1,2.3-0.6l17.5,10.2c0.1,0,0.2,0.1,0.2,0.1l12.5,7.2c0.8,0.5,1.1,1.5,0.6,2.3C34.9,162.1,34.3,162.4,33.7,162.4
	L33.7,162.4z"/>
<path class="st0" d="M68.1,115.4c-0.1,0-0.1,0-0.1,0l-14.2-1.3c-0.9-0.1-1.6-0.9-1.5-1.9c0.1-0.9,0.9-1.6,1.9-1.5l6.5,0.6L36.8,97.6
	L23,96.4c-0.9-0.1-1.6-0.9-1.5-1.9c0.1-0.9,0.9-1.6,1.9-1.5l14.2,1.3c0.2,0,0.5,0.1,0.7,0.2L69,112.2c0.7,0.4,1,1.2,0.8,2
	C69.5,114.9,68.9,115.4,68.1,115.4L68.1,115.4z"/>
<path class="st0" d="M108.4,119c0,0-0.1,0-0.1,0l-28.3-2.5c-0.9-0.1-1.6-0.9-1.5-1.9c0.1-0.9,0.9-1.6,1.9-1.5l20.6,1.8L77,101.2
	l-1.2-0.1c-0.9-0.1-1.6-0.9-1.5-1.9c0.1-0.9,0.9-1.6,1.9-1.5l1.6,0.2c0.2,0,0.5,0.1,0.7,0.2l30.8,17.8c0.7,0.4,1,1.2,0.8,2
	C109.8,118.6,109.1,119,108.4,119L108.4,119z"/>
<path class="st0" d="M68.1,115.4c-0.3,0-0.6-0.1-0.9-0.2L36.5,97.4c-0.4-0.2-0.7-0.6-0.8-1l-7.3-27.1c-0.2-0.9,0.3-1.8,1.2-2.1
	c0.9-0.2,1.9,0.3,2.1,1.2l7.1,26.4L69,112.2c0.8,0.5,1.1,1.5,0.6,2.3C69.3,115.1,68.7,115.4,68.1,115.4L68.1,115.4z"/>
<path class="st0" d="M108.3,119c-0.3,0-0.6-0.1-0.9-0.2L76.7,101c-0.5-0.3-0.9-0.9-0.9-1.5V61.8c0-0.6,0.3-1.2,0.9-1.5
	c0.5-0.3,1.2-0.3,1.7,0l30.8,17.8c0.5,0.3,0.9,0.9,0.9,1.5v37.7c0,0.6-0.3,1.2-0.9,1.5C108.9,119,108.6,119,108.3,119L108.3,119z
	 M79.3,98.5l27.4,15.8V80.6L79.3,64.7V98.5L79.3,98.5z"/>
<path class="st0" d="M108.3,81.3c-0.3,0-0.6-0.1-0.8-0.2l0,0L76.7,63.3L50,47.8c-0.8-0.5-1.1-1.5-0.6-2.3c0.5-0.8,1.5-1.1,2.3-0.6
	l30.8,17.8l26.7,15.4c0.8,0.5,1.1,1.5,0.6,2.3C109.5,81,108.9,81.3,108.3,81.3L108.3,81.3z"/>
<path class="st0" d="M81.7,65.8c-0.4,0-0.8-0.1-1.1-0.4c-2.3-1.8-2.1-3.8-2-5.7c0-0.1,0-0.2,0-0.2c0.8-3.8,2.5-6.3,5.5-8.4
	c0.1-0.1,0.1-0.1,0.2-0.1c1.6-0.8,2.7-1.2,4.8-0.4c0.9,0.3,1.4,1.3,1,2.2c-0.3,0.9-1.3,1.4-2.2,1c-0.9-0.3-1-0.3-2,0.2
	c-2.2,1.5-3.3,3.3-3.9,6.1c-0.1,1.7-0.1,2,0.7,2.7c0.7,0.6,0.9,1.7,0.3,2.4C82.7,65.6,82.2,65.8,81.7,65.8L81.7,65.8z"/>
<path class="st0" d="M50.8,48.1c-0.4,0-0.8-0.1-1.1-0.4c-3.1-2.7-1.8-6.5-1.1-8.6c0-0.1,0.1-0.2,0.1-0.2c1.2-2.4,2.2-3.8,4.7-5.5
	c0.8-0.5,1.8-0.3,2.4,0.4c0.5,0.8,0.3,1.8-0.4,2.4c-1.8,1.2-2.5,2.1-3.5,4.1c-0.9,2.7-0.9,3.9,0.2,4.8c0.7,0.6,0.8,1.7,0.2,2.4
	C51.8,47.9,51.3,48.1,50.8,48.1L50.8,48.1z"/>
<path class="st0" d="M144.8,21.5c-0.3,0-0.6-0.1-0.9-0.2L113.1,3.4c-0.8-0.5-1.1-1.5-0.6-2.3c0.5-0.8,1.5-1.1,2.3-0.6l30.8,17.8
	c0.8,0.5,1.1,1.5,0.6,2.3C146,21.2,145.4,21.5,144.8,21.5L144.8,21.5z"/>
<path class="st0" d="M137.9,25.4c-0.3,0-0.6-0.1-0.9-0.3c-0.8-0.5-1-1.6-0.5-2.4l0.1-0.2c0.1-0.2,0.3-0.4,0.5-0.7
	c0.7-0.9,1.3-1.7,2.1-2.3c0.3-0.3,0.6-0.5,0.9-0.7c0.3-0.2,0.5-0.3,0.7-0.4l0.3-0.1c0.1-0.1,0.3-0.1,0.4-0.2c0.1,0,0.1-0.1,0.2-0.1
	c1.2-0.4,2.5-0.4,3.8,0.1c0.9,0.3,1.3,1.3,1,2.2c-0.3,0.9-1.3,1.3-2.2,1c-0.5-0.2-1-0.2-1.4-0.1c-0.1,0.1-0.3,0.1-0.4,0.2l-0.2,0.1
	c-0.1,0-0.2,0.1-0.2,0.1c-0.1,0.1-0.2,0.1-0.2,0.2c-0.1,0.1-0.3,0.2-0.3,0.3c0,0-0.1,0.1-0.1,0.1c-0.5,0.4-1,1-1.5,1.7
	c-0.1,0.2-0.2,0.3-0.3,0.4l-0.1,0.2C139,25.2,138.5,25.4,137.9,25.4L137.9,25.4z"/>
<path class="st0" d="M77.5,47.5c-0.9,0-1.7-0.8-1.7-1.7c0-1.7-0.1-3.6-0.1-5.7c-0.2-7.3-0.5-14.9,1.8-18.9c1.9-3.4,5.6-6.3,9.1-4.6
	c0.9,0.4,1.2,1.4,0.8,2.3c-0.4,0.8-1.4,1.2-2.3,0.8c-1.4-0.7-3.6,1.5-4.7,3.3c-1.8,3.1-1.5,10.9-1.3,17.1c0.1,2.1,0.1,4,0.1,5.8
	C79.3,46.8,78.5,47.5,77.5,47.5L77.5,47.5z"/>
<path class="st0" d="M108.3,46.5c-0.9,0-1.7-0.8-1.7-1.7c0-3.7,2.5-8.1,5.8-9.9c1.8-1.1,3.6-1.2,5.1-0.4c1.5,0.8,2.3,2.5,2.3,4.6
	c0,0.9-0.8,1.7-1.7,1.7c-0.9,0-1.7-0.8-1.7-1.7c0-0.8-0.2-1.5-0.6-1.7c-0.4-0.2-1-0.1-1.7,0.3c-2.2,1.3-4.1,4.5-4.1,7
	C110.1,45.7,109.3,46.5,108.3,46.5L108.3,46.5z"/>
<path class="st0" d="M118.1,59.7c-0.1,0-0.3,0-0.4-0.1c-0.7-0.2-1.3-0.9-1.3-1.7V39.1c0-0.9,0.8-1.7,1.7-1.7c0.9,0,1.7,0.8,1.7,1.7
	v12.5l16.6-28.7c0.5-0.8,1.5-1.1,2.3-0.6c0.8,0.5,1.1,1.5,0.6,2.3l-19.8,34.3C119.3,59.4,118.7,59.7,118.1,59.7L118.1,59.7z"/>
<path class="st0" d="M144.8,29.4c-0.3,0-0.6-0.1-0.9-0.2c-0.8-0.5-1.1-1.5-0.6-2.3c1.5-2.7,1.4-5.2,0.6-5.6c-0.8-0.4-3,0.6-4.5,3.4
	c-0.5,0.8-1.5,1.1-2.3,0.6c-0.8-0.5-1.1-1.5-0.6-2.3c2.4-4.2,6.3-6.2,9.2-4.7c2.8,1.6,3.1,6.2,0.7,10.3
	C146,29.1,145.4,29.4,144.8,29.4L144.8,29.4z"/>
<path class="st0" d="M118.1,113.4c-0.2,0-0.4,0-0.6-0.1c-0.7-0.2-1.1-0.9-1.1-1.6V73.9c0-0.3,0.1-0.6,0.2-0.9l26.7-46.2
	c0.5-0.8,1.5-1.1,2.3-0.6c0.8,0.5,1.1,1.5,0.6,2.3l-26.5,45.9v32.4l25-31.1l9.7-47.3c0.2-0.9,1.1-1.5,2-1.3c0.9,0.2,1.5,1.1,1.3,2
	l-9.7,47.7c-0.1,0.3-0.2,0.5-0.3,0.7l-28.3,35.2C119.1,113.2,118.6,113.4,118.1,113.4L118.1,113.4z"/>
<path class="st0" d="M156.1,30.4c-0.1,0-0.2,0-0.4,0c-0.9-0.2-1.5-1.1-1.3-2c0.9-4,4.1-7.8,7.2-8.7c1.6-0.4,3.1-0.1,4.2,0.9
	c1.4,1.3,1.8,3.5,1.3,6c-0.2,0.9-1.1,1.5-2,1.3c-0.9-0.2-1.5-1.1-1.3-2c0.3-1.4,0.1-2.4-0.3-2.8c-0.2-0.2-0.5-0.2-1-0.1
	c-2,0.5-4.2,3.3-4.8,6.1C157.6,29.9,156.9,30.4,156.1,30.4L156.1,30.4z"/>
<path class="st0" d="M158.3,63.3c-0.2,0-0.5-0.1-0.7-0.2c-0.7-0.3-1.1-1.1-1-1.9l7.3-35.4c0.2-0.9,1.1-1.5,2-1.3
	c0.9,0.2,1.5,1.1,1.3,2L161.4,55l9.7-12.1c0.6-0.7,1.7-0.8,2.4-0.3c0.7,0.6,0.8,1.7,0.3,2.4l-14.1,17.6
	C159.3,63.1,158.8,63.3,158.3,63.3L158.3,63.3z"/>
<path class="st0" d="M177.4,52.6c-0.4,0-0.8-0.1-1.1-0.4c-0.7-0.6-0.9-1.7-0.3-2.4c2.1-2.6,2.4-5.6,1.7-6.6
	c-0.2-0.2-0.3-0.3-0.6-0.3c-0.8,0-2.1,0.6-3.3,2.2c-0.6,0.7-1.7,0.8-2.4,0.3c-0.7-0.6-0.8-1.7-0.3-2.4c1.8-2.3,4.1-3.5,6.1-3.5
	c1.3,0,2.5,0.7,3.3,1.8c1.8,2.6,1,7.2-1.8,10.7C178.4,52.4,177.9,52.6,177.4,52.6L177.4,52.6z"/>
<path class="st0" d="M163.2,70.2c-0.6,0-1.1-0.3-1.4-0.8c-0.4-0.6-0.4-1.4,0.1-2l14.2-17.6c0.6-0.7,1.7-0.9,2.4-0.3
	c0.7,0.6,0.8,1.7,0.3,2.4l-10.9,13.5l22-5.9c0.9-0.2,1.8,0.3,2.1,1.2c0.2,0.9-0.3,1.8-1.2,2.1l-27,7.2
	C163.5,70.2,163.3,70.2,163.2,70.2L163.2,70.2z"/>
<path class="st0" d="M187.7,75.3c-0.8,0-1.5-0.5-1.7-1.3c-0.2-0.9,0.3-1.8,1.2-2.1c1.9-0.5,4.2-3.3,4.7-6.1c0.3-1.5,0-2.5-0.3-2.8
	c-0.2-0.2-0.6-0.2-1-0.1c-0.9,0.2-1.8-0.3-2.1-1.2c-0.2-0.9,0.3-1.8,1.2-2.1c1.6-0.4,3.1-0.1,4.2,0.9c1.3,1.3,1.8,3.4,1.3,6
	c-0.9,4.1-4.1,7.9-7.2,8.7C188,75.3,187.9,75.3,187.7,75.3L187.7,75.3z"/>
<path class="st0" d="M151.2,122.8c-0.1,0-0.1,0-0.1,0l-28.3-2.5c-0.6-0.1-1.2-0.5-1.4-1c-0.2-0.6-0.2-1.3,0.2-1.7l28.3-35.2
	c0.2-0.3,0.5-0.5,0.9-0.6l36.4-9.8c0.9-0.2,1.8,0.3,2.1,1.2c0.2,0.9-0.3,1.9-1.2,2.1l-35.9,9.7l-26,32.3l24.4,2.2l35.9-31.9
	c0.7-0.6,1.8-0.6,2.4,0.1c0.6,0.7,0.6,1.8-0.1,2.4l-36.5,32.3C152.1,122.7,151.7,122.8,151.2,122.8L151.2,122.8z"/>
<path class="st0" d="M177.3,125.2c-0.1,0-0.1,0-0.1,0l-14.2-1.3c-0.7-0.1-1.3-0.5-1.5-1.2c-0.2-0.6,0-1.4,0.5-1.8l27-24
	c0.7-0.6,1.8-0.6,2.4,0.1c0.6,0.7,0.6,1.8-0.1,2.4l-24.1,21.4l10.2,0.9c0.9,0.1,1.6,0.9,1.6,1.9C179,124.5,178.2,125.2,177.3,125.2
	L177.3,125.2z"/>
<path class="st0" d="M144.8,186c-0.3,0-0.6-0.1-0.9-0.2l-26.7-15.4c-0.5-0.3-0.9-0.9-0.9-1.5v-37.7c0-0.5,0.2-0.9,0.6-1.3
	c0.4-0.3,0.8-0.5,1.3-0.4l28.3,2.5c0.7,0.1,1.3,0.6,1.5,1.3l9.7,36.5c0.2,0.9-0.3,1.9-1.2,2.1c-0.9,0.2-1.9-0.3-2.1-1.2l-9.4-35.3
	l-25.2-2.2v34.9l25.8,14.9c0.8,0.5,1.1,1.5,0.6,2.3C146,185.7,145.4,186,144.8,186L144.8,186z"/>
<path class="st0" d="M111.1,214.5c-0.8,0-1.5-0.2-2.1-0.6c-1.5-0.8-2.3-2.5-2.3-4.6c0-0.9,0.8-1.7,1.7-1.7c0.9,0,1.7,0.8,1.7,1.7
	c0,0.8,0.2,1.4,0.6,1.6c0.4,0.2,1,0.1,1.8-0.3c2.1-1.2,4-4.5,4-7c0-0.9,0.8-1.7,1.7-1.7c0.9,0,1.7,0.8,1.7,1.7
	c0,3.7-2.5,8.1-5.7,9.9C113.1,214.2,112,214.5,111.1,214.5L111.1,214.5z"/>
<path class="st0" d="M88.6,226.4c-0.3,0-0.6-0.1-0.9-0.2c-0.8-0.5-1.1-1.5-0.6-2.3l19.8-34.3c0.4-0.7,1.2-1,1.9-0.8
	c0.7,0.2,1.3,0.9,1.3,1.7v18.9c0,0.9-0.8,1.7-1.7,1.7c-0.9,0-1.7-0.8-1.7-1.7v-12.5l-16.6,28.7C89.8,226.1,89.2,226.4,88.6,226.4
	L88.6,226.4z"/>
<path class="st0" d="M83,230.7c-0.8,0-1.5-0.2-2.1-0.6c-1-0.5-1.7-1.5-2-2.7c-0.6-2.1-0.1-5,1.4-7.5c0.5-0.8,1.5-1.1,2.3-0.6
	c0.8,0.5,1.1,1.5,0.6,2.3c-1.2,2.1-1.4,4-1.1,4.9c0.1,0.2,0.2,0.6,0.4,0.7c0.3,0.2,0.6,0.1,0.9,0.1c0.9-0.2,2.5-1.3,3.7-3.4
	c0.5-0.8,1.5-1.1,2.3-0.6c0.8,0.5,1.1,1.5,0.6,2.3c-1.5,2.6-3.7,4.4-5.8,5C83.8,230.6,83.4,230.7,83,230.7L83,230.7z"/>
<path class="st0" d="M81.7,222.4c-0.3,0-0.6-0.1-0.9-0.2c-0.8-0.5-1.1-1.5-0.6-2.3l26.4-45.8v-32.4l-25,31.1L72,220
	c-0.2,0.9-1.1,1.5-2,1.3c-0.9-0.2-1.5-1.1-1.3-2l9.7-47.7c0.1-0.3,0.2-0.5,0.3-0.7l28.3-35.2c0.5-0.6,1.2-0.8,1.9-0.5
	c0.7,0.2,1.1,0.9,1.1,1.6v37.7c0,0.3-0.1,0.6-0.2,0.9l-26.7,46.2C82.8,222.1,82.3,222.4,81.7,222.4L81.7,222.4z"/>
<path class="st0" d="M63.4,229c-1,0-2-0.4-2.8-1.1c-1.4-1.3-1.9-3.5-1.4-6c0.2-0.9,1.1-1.5,2-1.3c0.9,0.2,1.5,1.1,1.3,2
	c-0.3,1.5,0,2.5,0.3,2.8c0.1,0.1,0.3,0.3,0.9,0.1c1.8-0.5,4.2-3.1,4.8-6.1c0.2-0.9,1.1-1.5,2-1.3c0.9,0.2,1.5,1.1,1.3,2
	c-0.8,4.1-4,7.9-7.2,8.8C64.3,228.9,63.8,229,63.4,229L63.4,229z"/>
<path class="st0" d="M60.9,224c-0.1,0-0.2,0-0.3,0c-0.9-0.2-1.5-1.1-1.3-2l5.8-28.5l-9.7,12.1c-0.6,0.7-1.7,0.9-2.4,0.3
	c-0.7-0.6-0.9-1.7-0.3-2.4l14.1-17.6c0.5-0.6,1.3-0.8,2.1-0.5c0.7,0.3,1.1,1.1,1,1.9l-7.2,35.4C62.4,223.4,61.7,224,60.9,224
	L60.9,224z"/>
<path class="st0" d="M49.4,209c0,0-0.1,0-0.1,0c-1.4,0-2.5-0.7-3.3-1.7c-1.8-2.6-1-7.2,1.8-10.8c0.6-0.7,1.7-0.9,2.4-0.3
	c0.7,0.6,0.9,1.7,0.3,2.4c-1.9,2.4-2.5,5.5-1.7,6.6c0.1,0.2,0.3,0.3,0.6,0.3c0.8,0,2.1-0.6,3.3-2.2c0.6-0.7,1.7-0.9,2.4-0.3
	c0.7,0.6,0.9,1.7,0.3,2.4C53.6,207.7,51.4,209,49.4,209L49.4,209z"/>
<path class="st0" d="M49.1,199.2c-0.4,0-0.8-0.1-1.1-0.4c-0.7-0.6-0.9-1.7-0.3-2.4l10.9-13.6l-22,5.9c-0.9,0.2-1.9-0.3-2.1-1.2
	c-0.2-0.9,0.3-1.9,1.2-2.1l27-7.2c0.7-0.2,1.5,0.1,1.9,0.7c0.4,0.6,0.4,1.4-0.1,2l-14.1,17.7C50.1,199,49.6,199.2,49.1,199.2
	L49.1,199.2z"/>
<path class="st0" d="M35.3,189c-1.1,0-2-0.4-2.8-1.1c-1.4-1.3-1.9-3.4-1.4-6c0.2-0.9,1.1-1.5,2-1.3c0.9,0.2,1.5,1.1,1.3,2
	c-0.3,1.5,0,2.5,0.3,2.8c0.2,0.2,0.6,0.2,1,0.1c0.9-0.3,1.9,0.3,2.1,1.2c0.3,0.9-0.3,1.9-1.2,2.1C36.2,188.9,35.7,189,35.3,189
	L35.3,189z"/>
<path class="st0" d="M35.3,162.9c-0.4,0-0.8-0.1-1.2-0.2c-1.5-0.4-2.5-1.5-3-3.2c-0.8-3.3,0.9-8,4-10.7c0.7-0.6,1.8-0.5,2.4,0.2
	c0.6,0.7,0.5,1.8-0.2,2.4c-2.3,2-3.4,5.4-3,7.2c0.1,0.4,0.3,0.7,0.6,0.8c0.5,0.1,1.4-0.1,2.6-1.1c0.7-0.6,1.8-0.6,2.4,0.1
	c0.6,0.7,0.6,1.8-0.1,2.4C38.4,162.2,36.8,162.9,35.3,162.9L35.3,162.9z"/>
<path class="st0" d="M36.2,151.9c-0.5,0-0.9-0.2-1.3-0.6c-0.6-0.7-0.6-1.8,0.1-2.4l24.1-21.4l-10.3-0.9c-0.9-0.1-1.6-0.9-1.5-1.9
	c0.1-0.9,0.9-1.6,1.9-1.5l14.2,1.3c0.7,0.1,1.3,0.5,1.5,1.2c0.2,0.6,0,1.4-0.5,1.8l-27.1,24C37,151.8,36.6,151.9,36.2,151.9
	L36.2,151.9z"/>
<path class="st0" d="M68.1,115.4c-0.1,0-0.1,0-0.1,0l-14.2-1.3c-0.9-0.1-1.6-0.9-1.5-1.9c0.1-0.9,0.9-1.6,1.9-1.5l11.8,1l-6.6-24.7
	c-0.2-0.9,0.3-1.9,1.2-2.1c0.9-0.2,1.8,0.3,2.1,1.2l7.2,27.1c0.1,0.5,0,1.1-0.3,1.5C69.1,115.2,68.6,115.4,68.1,115.4L68.1,115.4z"
	/>
<path class="st0" d="M60.9,88.3c-0.8,0-1.5-0.5-1.7-1.3c-0.8-3.2,0.9-7.8,3.9-10.5c1.9-1.7,4.1-2.4,5.9-1.8c1.4,0.4,2.5,1.6,2.9,3.2
	c0.2,0.9-0.3,1.8-1.2,2.1c-0.9,0.2-1.8-0.3-2.1-1.2c-0.2-0.7-0.5-0.8-0.6-0.8c-0.5-0.2-1.5,0.1-2.6,1.1c-2.2,2-3.4,5.4-2.9,7.1
	c0.2,0.9-0.3,1.9-1.2,2.1C61.2,88.3,61,88.3,60.9,88.3L60.9,88.3z"/>
<path class="st0" d="M108.3,119c-0.1,0-0.1,0-0.2,0l-28.3-2.6c-0.7-0.1-1.3-0.6-1.5-1.3l-9.7-36.4c-0.2-0.9,0.3-1.9,1.2-2.1
	c0.9-0.2,1.8,0.3,2.1,1.2l9.4,35.3l25.2,2.3V80.6l-25.8-15c-0.8-0.5-1.1-1.5-0.6-2.3c0.5-0.8,1.5-1.1,2.3-0.6l26.7,15.4
	c0.5,0.3,0.9,0.9,0.9,1.5v37.7c0,0.5-0.2,0.9-0.6,1.3C109.2,118.9,108.8,119,108.3,119L108.3,119z"/>
<path class="st0" d="M108.3,65.4c-0.3,0-0.6-0.1-0.9-0.2L87.7,53.7c-0.8-0.5-1.1-1.5-0.6-2.3c0.5-0.8,1.5-1.1,2.3-0.6l17.2,9.9V44.8
	c0-0.9,0.8-1.7,1.7-1.7c0.9,0,1.7,0.8,1.7,1.7v18.9c0,0.6-0.3,1.2-0.9,1.5C108.9,65.3,108.6,65.4,108.3,65.4L108.3,65.4z"/>
<path class="st0" d="M34.7,159.3L34.7,159.3L34.7,159.3z"/>
<path class="st0" d="M163.2,70.3c-0.8,0-1.4-0.5-1.6-1.3c-0.2-0.9,0.3-1.8,1.2-2.1l27.1-7.2c0.9-0.2,1.8,0.3,2.1,1.2
	c0.2,0.9-0.3,1.8-1.2,2.1l-27.1,7.2C163.5,70.3,163.3,70.3,163.2,70.3L163.2,70.3z"/>
<path class="st0" d="M178.5,43.3c-0.2,0-0.5-0.1-0.7-0.2c-0.3-0.1-0.6-0.2-0.8-0.2c-0.9,0-1.7-0.8-1.7-1.7c0-0.9,0.8-1.7,1.7-1.7
	c0.7,0,1.5,0.2,2.2,0.5c0.9,0.4,1.2,1.4,0.8,2.3C179.8,42.9,179.1,43.3,178.5,43.3L178.5,43.3z"/>
<path class="st0" d="M177,43L177,43c-1,0-1.7-0.8-1.7-1.7c0-0.9,0.8-1.7,1.7-1.7c0.9,0,1.7,0.8,1.7,1.7C178.7,42.2,177.9,43,177,43
	L177,43z"/>
<path class="st0" d="M178.2,43.1c-0.3,0-0.6-0.1-0.8-0.2l-14.1-8.1c-0.8-0.5-1.1-1.5-0.6-2.3c0.5-0.8,1.5-1.1,2.3-0.6l14,8.1
	c0.8,0.5,1.1,1.5,0.6,2.3C179.4,42.8,178.8,43.1,178.2,43.1L178.2,43.1z"/>
<path class="st0" d="M177.9,125.3c-0.3,0-0.6-0.1-0.9-0.2l-9.8-5.7c-0.8-0.5-1.1-1.5-0.6-2.3c0.5-0.8,1.5-1.1,2.3-0.6l9.8,5.7
	c0.8,0.5,1.1,1.5,0.6,2.3C179.1,125,178.5,125.3,177.9,125.3L177.9,125.3z"/>
<path class="st0" d="M192.1,89.1c-0.3,0-0.6-0.1-0.9-0.2l-17.6-10.2c-0.8-0.5-1.1-1.5-0.6-2.3c0.5-0.8,1.5-1.1,2.3-0.6l17.6,10.2
	c0.8,0.5,1.1,1.5,0.6,2.3C193.2,88.8,192.6,89.1,192.1,89.1L192.1,89.1z"/>
<path class="st0" d="M192.1,89.1c-0.4,0-0.8-0.1-1.1-0.4c-0.7-0.6-0.8-1.7-0.2-2.4c0.6-0.7,1.7-0.8,2.4-0.2l0,0
	c0.7,0.6,0.8,1.7,0.1,2.4C193,89,192.6,89.1,192.1,89.1L192.1,89.1z"/>
<path class="st0" d="M168.1,119.6c-0.5,0-0.9-0.2-1.3-0.6c-0.6-0.7-0.6-1.8,0.1-2.4l22.1-19.7c0.7-0.6,1.8-0.6,2.4,0.1
	c0.6,0.7,0.6,1.8-0.1,2.4l-22.1,19.7C168.9,119.5,168.5,119.6,168.1,119.6L168.1,119.6z"/>
<path class="st0" d="M126.1,10.7c-0.2,0-0.5-0.1-0.7-0.2c-0.9-0.4-1.2-1.4-0.8-2.3c0.7-1.5,2.7-5.2,5.8-6.2c1.4-0.5,2.9-0.4,4.2,0.3
	c0.8,0.4,1.2,1.5,0.8,2.3c-0.4,0.8-1.5,1.2-2.3,0.8c-0.5-0.3-1-0.3-1.6-0.1c-1.3,0.4-2.7,2.1-3.8,4.4
	C127.3,10.3,126.7,10.7,126.1,10.7L126.1,10.7z"/>
<path class="st0" d="M125.4,154.1c-0.8,0-1.4-0.5-1.7-1.3l-5.7-21.1c-0.2-0.9,0.3-1.9,1.2-2.1c0.9-0.2,1.9,0.3,2.1,1.2l5.7,21.1
	c0.2,0.9-0.3,1.9-1.2,2.1C125.7,154.1,125.5,154.1,125.4,154.1L125.4,154.1z"/>
<path class="st0" d="M126.9,156c-0.3,0-0.7-0.1-1-0.3c-1.3-0.9-1.6-1.4-2.1-2.7c-0.4-0.9,0.1-1.9,0.9-2.2c0.9-0.4,1.9,0.1,2.2,0.9
	c0.3,0.8,0.3,0.8,0.9,1.2c0.8,0.5,1,1.6,0.4,2.4C127.9,155.8,127.4,156,126.9,156L126.9,156z"/>
<path class="st0" d="M157.2,173.4c-0.3,0-0.6-0.1-0.8-0.2L126,155.8c-0.8-0.5-1.1-1.5-0.6-2.3c0.5-0.8,1.5-1.1,2.3-0.6l30.3,17.4
	c0.8,0.5,1.1,1.5,0.6,2.3C158.3,173.1,157.8,173.4,157.2,173.4L157.2,173.4z"/>
<path class="st0" d="M157.5,173.6c-0.1,0-0.3,0-0.4-0.1c-0.3-0.1-0.7-0.2-1.1-0.6c-0.7-0.7-0.7-1.7,0-2.4c0.6-0.6,1.5-0.7,2.2-0.2
	c0.8,0.3,1.2,1.2,1,2C158.9,173.1,158.3,173.6,157.5,173.6L157.5,173.6z"/>
<path class="st0" d="M156.2,171.8c-0.8,0-1.4-0.5-1.7-1.3l-9.8-36.4c-0.2-0.9,0.3-1.8,1.2-2.1c0.9-0.2,1.9,0.3,2.1,1.2l9.8,36.4
	c0.2,0.9-0.3,1.8-1.2,2.1C156.5,171.8,156.4,171.8,156.2,171.8L156.2,171.8z"/>
<path class="st0" d="M144.8,186c-0.3,0-0.6-0.1-0.9-0.2l-26.7-15.4c-0.8-0.5-1.1-1.5-0.6-2.3c0.5-0.8,1.5-1.1,2.3-0.6l26.7,15.4
	c0.8,0.5,1.1,1.5,0.6,2.3C146,185.7,145.4,186,144.8,186L144.8,186z"/>
<path class="st0" d="M108.4,211c-0.9,0-1.7-0.8-1.7-1.7v-18.9c0-0.9,0.8-1.7,1.7-1.7c0.9,0,1.7,0.8,1.7,1.7v18.9
	C110.1,210.3,109.3,211,108.4,211L108.4,211z"/>
<path class="st0" d="M109.5,214c-0.3,0-0.6-0.1-0.8-0.2l-10.3-5.9c-0.8-0.5-1.1-1.5-0.6-2.3c0.5-0.8,1.5-1.1,2.3-0.6l10.3,5.9
	c0.8,0.5,1.1,1.5,0.6,2.3C110.7,213.7,110.1,214,109.5,214L109.5,214z"/>
<path class="st0" d="M81.7,230.4c-0.3,0-0.6-0.1-0.9-0.2l-12.1-7c-0.8-0.5-1.1-1.5-0.6-2.3c0.5-0.8,1.5-1.1,2.3-0.6l12.1,7
	c0.8,0.5,1.1,1.5,0.6,2.3C82.8,230.1,82.3,230.4,81.7,230.4L81.7,230.4z"/>
<path class="st0" d="M31.1,210.7c-0.5,0-0.9-0.2-1.2-0.5c-2-2.1-1.7-4.1-1.5-6c0.1-0.9,1-1.6,1.9-1.5c0.9,0.1,1.6,1,1.5,1.9
	c-0.2,1.9-0.2,2.4,0.6,3.2c0.6,0.7,0.6,1.8-0.1,2.4C32,210.6,31.5,210.7,31.1,210.7L31.1,210.7z"/>
<path class="st0" d="M16.5,190.2c-0.6,0-1.2-0.3-1.5-0.9c-2.3-4.6,0.9-9,1.9-10.5c0.6-0.8,1.6-0.9,2.4-0.4c0.8,0.6,0.9,1.6,0.4,2.4
	c-2.1,2.9-2.6,5.1-1.6,7c0.4,0.8,0.1,1.9-0.8,2.3C17.1,190.1,16.8,190.2,16.5,190.2L16.5,190.2z"/>
<path class="st0" d="M18.3,181.4c-0.4,0-0.8-0.1-1.1-0.4c-0.7-0.6-0.8-1.7-0.3-2.4l1-1.3c0.6-0.7,1.7-0.9,2.4-0.3
	c0.7,0.6,0.9,1.7,0.3,2.4l-1,1.3C19.3,181.2,18.8,181.4,18.3,181.4L18.3,181.4z"/>
<path class="st0" d="M38.7,161.4c-0.5,0-0.9-0.2-1.3-0.6c-0.6-0.7-0.6-1.8,0.1-2.4l10.7-9.5c0.7-0.6,1.8-0.6,2.4,0.1
	c0.6,0.7,0.6,1.8-0.1,2.4l-10.7,9.5C39.5,161.2,39.1,161.4,38.7,161.4L38.7,161.4z"/>
<path class="st0" d="M3.5,144.9c-0.3,0-0.6-0.1-0.9-0.3c-1.5-1-2.4-2.4-2.6-4.2c-0.3-3.5,2.3-7.6,4.3-9.3c0.7-0.6,1.8-0.6,2.4,0.1
	c0.6,0.7,0.6,1.8-0.1,2.4c-1.4,1.3-3.3,4.3-3.1,6.4c0.1,0.7,0.4,1.2,1,1.6c0.8,0.5,1,1.6,0.5,2.4C4.6,144.7,4.1,144.9,3.5,144.9
	L3.5,144.9z"/>
<path class="st0" d="M5.4,134.1c-0.5,0-0.9-0.2-1.3-0.6c-0.6-0.7-0.6-1.8,0.1-2.4l22.1-19.7c0.7-0.6,1.8-0.6,2.4,0.1
	c0.6,0.7,0.6,1.8-0.1,2.4L6.6,133.7C6.2,134,5.8,134.1,5.4,134.1L5.4,134.1z"/>
<path class="st0" d="M47.9,119c-0.2,0-0.4,0-0.7-0.1l-0.1-0.1c-0.9-0.4-1.3-1.4-0.9-2.2c0.4-0.9,1.4-1.3,2.2-0.9l0.1,0.1
	c0.9,0.4,1.3,1.4,0.9,2.2C49.2,118.6,48.5,119,47.9,119L47.9,119z"/>
<path class="st0" d="M48.3,126.5c-0.3,0-0.6-0.1-0.9-0.2l-30.8-17.8c-0.8-0.5-1.1-1.5-0.6-2.3c0.5-0.8,1.5-1.1,2.3-0.6l30.8,17.8
	c0.8,0.5,1.1,1.5,0.6,2.3C49.5,126.2,48.9,126.5,48.3,126.5L48.3,126.5z"/>
<path class="st0" d="M17.5,108.7c-0.3,0-0.7-0.1-0.9-0.3c-2.4-1.6-3.1-4.6-1.9-8.1c1.4-3.9,4.9-7.6,8.6-7.3c0.9,0.1,1.6,0.9,1.6,1.9
	c-0.1,0.9-0.9,1.6-1.9,1.6c-1.7-0.1-4.1,2.3-5.1,5.1c-0.3,0.9-0.9,3.2,0.5,4.2c0.8,0.5,1,1.6,0.5,2.4
	C18.6,108.4,18,108.7,17.5,108.7L17.5,108.7z"/>
<path class="st0" d="M48.3,126.5c-0.3,0-0.6-0.1-0.9-0.3c-2.4-1.6-3.1-4.8-1.8-8.4c1.3-3.8,4.7-7.4,8.5-7c0.9,0.1,1.6,0.9,1.5,1.9
	c-0.1,0.9-0.9,1.6-1.9,1.5c-1.8-0.2-4,2-5,4.7c-0.5,1.5-0.8,3.6,0.5,4.4c0.8,0.5,1,1.6,0.5,2.4C49.4,126.2,48.9,126.5,48.3,126.5
	L48.3,126.5z"/>
<path class="st0" d="M66.3,108.6L66.3,108.6c-1,0-1.8-0.8-1.8-1.7c0-0.9,0.8-1.7,1.7-1.7c0.9,0,1.7,0.8,1.7,1.7
	C68,107.8,67.3,108.6,66.3,108.6L66.3,108.6z"/>
<path class="st0" d="M30.1,70.6c-0.8,0-1.6-0.6-1.7-1.5c-0.5-3.4,1.2-7.9,3.9-10.4c1.8-1.7,4-2.3,6.1-1.8c0.9,0.2,1.5,1.1,1.3,2.1
	c-0.2,0.9-1.1,1.5-2.1,1.3c-1-0.2-2,0.1-3,1c-1.9,1.7-3.2,5.1-2.8,7.3c0.1,0.9-0.5,1.8-1.4,2C30.2,70.6,30.1,70.6,30.1,70.6
	L30.1,70.6z"/>
<path class="st0" d="M68.8,78.1c-0.3,0-0.6-0.1-0.9-0.2L37.1,60.1c-0.8-0.5-1.1-1.5-0.6-2.3c0.5-0.8,1.5-1.1,2.3-0.6l30.8,17.8
	c0.8,0.5,1.1,1.5,0.6,2.3C70,77.8,69.4,78.1,68.8,78.1L68.8,78.1z"/>
<path class="st0" d="M60.9,88.3c-0.8,0-1.6-0.6-1.7-1.4c-0.5-3.4,1.1-7.8,3.9-10.3c1.8-1.7,4-2.4,6.2-1.8c0.9,0.2,1.5,1.1,1.3,2.1
	c-0.2,0.9-1.1,1.5-2.1,1.3c-1-0.2-2,0.1-3,1c-1.9,1.7-3.1,5-2.8,7.3c0.1,0.9-0.5,1.8-1.4,2C61,88.3,61,88.3,60.9,88.3L60.9,88.3z"/>
<path class="st0" d="M68.1,115.4c-0.8,0-1.4-0.5-1.7-1.3l-7.2-27.1c-0.2-0.9,0.3-1.9,1.2-2.1c0.9-0.2,1.8,0.3,2.1,1.2l7.2,27.1
	c0.2,0.9-0.3,1.8-1.2,2.1C68.4,115.4,68.3,115.4,68.1,115.4L68.1,115.4z"/>
<path class="st0" d="M54.3,36.5c-0.6,0-1.3-0.4-1.5-1c-0.4-0.9,0-1.9,0.8-2.3c1.6-0.8,2.6-1.1,4.7-0.4c0.9,0.3,1.4,1.3,1,2.2
	c-0.3,0.9-1.3,1.4-2.2,1c-0.9-0.3-0.9-0.3-2.1,0.3C54.8,36.4,54.6,36.5,54.3,36.5L54.3,36.5z"/>
<path class="st0" d="M88.6,53.9c-0.3,0-0.6-0.1-0.9-0.2L56.9,35.9c-0.8-0.5-1.1-1.5-0.6-2.3c0.5-0.8,1.5-1.1,2.3-0.6l30.8,17.8
	c0.8,0.5,1.1,1.5,0.6,2.3C89.8,53.6,89.2,53.9,88.6,53.9L88.6,53.9z"/>
<path class="st0" d="M81.7,65.8c-0.3,0-0.6-0.1-0.8-0.2L50,47.8c-0.8-0.5-1.1-1.5-0.6-2.3c0.5-0.8,1.5-1.1,2.3-0.6l30.8,17.8
	c0.8,0.5,1.1,1.5,0.6,2.3C82.8,65.5,82.3,65.8,81.7,65.8L81.7,65.8z"/>
<path class="st0" d="M96.5,26c-0.3,0-0.6-0.1-0.8-0.2c-0.8-0.5-1.1-1.5-0.6-2.3l10.6-18.4c0.5-0.8,1.5-1.1,2.3-0.6
	c0.8,0.5,1.1,1.5,0.6,2.3L98,25.2C97.7,25.7,97.1,26,96.5,26L96.5,26z"/>
<path class="st0" d="M107.1,7.7c-0.3,0-0.7-0.1-1-0.3c-0.8-0.5-1-1.6-0.5-2.4c1.1-1.6,4.3-6.4,8.9-4.6c0.9,0.3,1.3,1.3,1,2.2
	c-0.3,0.9-1.3,1.3-2.2,1c-1.5-0.6-3,0.5-4.9,3.3C108.1,7.4,107.6,7.7,107.1,7.7L107.1,7.7z"/>
<path class="st0" d="M118.1,59.7c-0.3,0-0.6-0.1-0.9-0.2c-0.8-0.5-1.1-1.5-0.6-2.3l19.8-34.3c0.5-0.8,1.5-1.1,2.3-0.6
	c0.8,0.5,1.1,1.5,0.6,2.3l-19.8,34.3C119.3,59.4,118.7,59.7,118.1,59.7L118.1,59.7z"/>
<path class="st0" d="M108.3,65.4c-0.3,0-0.6-0.1-0.8-0.2L76.7,47.3c-0.8-0.5-1.1-1.5-0.6-2.3c0.5-0.8,1.5-1.1,2.3-0.6l30.8,17.8
	c0.8,0.5,1.1,1.5,0.6,2.3C109.5,65.1,108.9,65.4,108.3,65.4L108.3,65.4z"/>
<path class="st0" d="M116.7,37.7c-0.3,0-0.6-0.1-0.9-0.2L85,19.7c-0.8-0.5-1.1-1.5-0.6-2.3c0.5-0.8,1.5-1.1,2.3-0.6l30.8,17.8
	c0.8,0.5,1.1,1.5,0.6,2.3C117.8,37.4,117.3,37.7,116.7,37.7L116.7,37.7z"/>
<path class="st0" d="M108.3,46.5C108.3,46.5,108.3,46.5,108.3,46.5c-1,0-1.8-0.8-1.7-1.8c0.1-3.1,2.2-7.6,5.3-9.6
	c1.7-1.1,3.6-1.4,5.4-0.7c0.9,0.3,1.3,1.3,1,2.2c-0.3,0.9-1.3,1.3-2.2,1c-0.7-0.3-1.5-0.2-2.3,0.4c-2.1,1.4-3.6,4.7-3.7,6.9
	C110,45.8,109.2,46.5,108.3,46.5L108.3,46.5z"/>
<path class="st0" d="M108.3,65.4c-0.9,0-1.7-0.8-1.7-1.7V44.8c0-0.9,0.8-1.7,1.7-1.7c0.9,0,1.7,0.8,1.7,1.7v18.9
	C110.1,64.6,109.3,65.4,108.3,65.4L108.3,65.4z"/>
<path class="st0" d="M146.4,78.2c-0.3,0-0.6-0.1-0.8-0.2L123.2,65c-0.8-0.5-1.1-1.5-0.6-2.3c0.5-0.8,1.5-1.1,2.3-0.6L147.3,75
	c0.8,0.5,1.1,1.5,0.6,2.3C147.6,77.9,147,78.2,146.4,78.2L146.4,78.2z"/>
<path class="st0" d="M136.6,118.8c-0.2,0-0.3-0.1-0.4-0.2l-3.2-5.6c-0.1-0.2-0.1-0.5,0.2-0.7c0.2-0.1,0.5-0.1,0.7,0.2l3.2,5.6
	c0.1,0.2,0.1,0.5-0.2,0.7C136.7,118.7,136.6,118.8,136.6,118.8L136.6,118.8z"/>
<path class="st0" d="M139.5,113c-0.2,0-0.3-0.1-0.4-0.2l-4.1-7.1c-0.1-0.2-0.1-0.5,0.2-0.7c0.2-0.1,0.5-0.1,0.7,0.2l4.1,7.1
	c0.1,0.2,0.1,0.5-0.2,0.7C139.7,113,139.6,113,139.5,113L139.5,113z"/>
<path class="st0" d="M153.4,118.3c-0.2,0-0.3-0.1-0.4-0.2l-12-20.7c-0.1-0.2-0.1-0.5,0.2-0.7c0.2-0.1,0.5-0.1,0.7,0.2l12,20.7
	c0.1,0.2,0.1,0.5-0.2,0.7C153.6,118.3,153.5,118.3,153.4,118.3L153.4,118.3z"/>
<path class="st0" d="M160.6,112.1c-0.2,0-0.3-0.1-0.4-0.2l-12.9-22.4c-0.1-0.2-0.1-0.5,0.2-0.7c0.2-0.1,0.5-0.1,0.7,0.2l12.9,22.4
	c0.1,0.2,0.1,0.5-0.2,0.7C160.8,112,160.7,112.1,160.6,112.1L160.6,112.1z"/>
<path class="st0" d="M167.8,105.7c-0.2,0-0.3-0.1-0.4-0.2l-12.7-21.9c-0.1-0.2-0.1-0.5,0.2-0.7c0.2-0.1,0.5-0.1,0.7,0.2l12.7,21.9
	c0.1,0.2,0.1,0.5-0.2,0.7C167.9,105.7,167.9,105.7,167.8,105.7L167.8,105.7z"/>
<path class="st0" d="M174.8,99.2c-0.2,0-0.3-0.1-0.4-0.2l-10.3-17.9c-0.1-0.2-0.1-0.5,0.2-0.7c0.2-0.1,0.5-0.1,0.7,0.2l10.3,17.9
	c0.1,0.2,0.1,0.5-0.2,0.7C175,99.2,174.9,99.2,174.8,99.2L174.8,99.2z"/>
<path class="st0" d="M181.9,92.7c-0.2,0-0.3-0.1-0.4-0.2L173.7,79c-0.1-0.2-0.1-0.5,0.2-0.7c0.2-0.1,0.5-0.1,0.7,0.2l7.8,13.5
	c0.1,0.2,0.1,0.5-0.2,0.7C182.1,92.7,182,92.7,181.9,92.7L181.9,92.7z"/>
<path class="st0" d="M136.8,159.1c-0.2,0-0.3-0.1-0.4-0.2l-15.2-26.3c-0.1-0.2-0.1-0.5,0.2-0.7c0.2-0.1,0.5-0.1,0.7,0.2l15.2,26.3
	c0.1,0.2,0.1,0.5-0.2,0.7C136.9,159.1,136.8,159.1,136.8,159.1L136.8,159.1z"/>
<path class="st0" d="M153.1,168.7c-0.2,0-0.3-0.1-0.4-0.2l-20.3-35.2c-0.1-0.2-0.1-0.5,0.2-0.7c0.2-0.1,0.5-0.1,0.7,0.2l20.3,35.2
	c0.1,0.2,0.1,0.5-0.2,0.7C153.3,168.7,153.2,168.7,153.1,168.7L153.1,168.7z"/>
<path class="st0" d="M145,135.9c-0.2,0-0.3-0.1-0.4-0.2l-0.1-0.2c-0.1-0.2-0.1-0.5,0.2-0.7s0.5,0,0.7,0.2l0.1,0.2
	c0.1,0.2,0.1,0.5-0.2,0.7C145.2,135.9,145.1,135.9,145,135.9L145,135.9z"/>
<path class="st0" d="M106.6,202.5c-0.2,0-0.3-0.1-0.4-0.2l-1.6-2.7c-0.1-0.2-0.1-0.5,0.2-0.7c0.2-0.1,0.5-0.1,0.7,0.2l1.6,2.7
	c0.1,0.2,0.1,0.5-0.2,0.7C106.8,202.5,106.7,202.5,106.6,202.5L106.6,202.5z"/>
<path class="st0" d="M75.9,224.1c-0.2,0-0.3-0.1-0.4-0.2l-3.6-6.3c-0.1-0.2-0.1-0.5,0.2-0.7c0.2-0.1,0.5-0.1,0.7,0.2l3.6,6.3
	c0.1,0.2,0.1,0.5-0.2,0.7C76.1,224.1,76,224.1,75.9,224.1L75.9,224.1z"/>
<path class="st0" d="M82.6,216.9c-0.2,0-0.3-0.1-0.4-0.2l-7.6-13.2c-0.1-0.2-0.1-0.5,0.2-0.7c0.2-0.1,0.5-0.1,0.7,0.2l7.6,13.2
	c0.1,0.2,0.1,0.5-0.2,0.7C82.8,216.9,82.7,216.9,82.6,216.9L82.6,216.9z"/>
<path class="st0" d="M88.1,207.7c-0.2,0-0.3-0.1-0.4-0.2l-10.4-17.9c-0.1-0.2-0.1-0.5,0.2-0.7c0.2-0.1,0.5-0.1,0.7,0.2l10.4,17.9
	c0.1,0.2,0.1,0.5-0.2,0.7C88.3,207.6,88.2,207.7,88.1,207.7L88.1,207.7z"/>
<path class="st0" d="M93.6,198.4c-0.2,0-0.3-0.1-0.4-0.2l-13.1-22.7c-0.1-0.2-0.1-0.5,0.2-0.7c0.2-0.1,0.5-0.1,0.7,0.2L94,197.7
	c0.1,0.2,0.1,0.5-0.2,0.7C93.8,198.4,93.7,198.4,93.6,198.4L93.6,198.4z"/>
<path class="st0" d="M99,189c-0.2,0-0.3-0.1-0.4-0.2l-13-22.6c-0.1-0.2-0.1-0.5,0.2-0.7c0.2-0.1,0.5-0.1,0.7,0.2l13,22.6
	c0.1,0.2,0.1,0.5-0.2,0.7C99.2,189,99.1,189,99,189L99,189z"/>
<path class="st0" d="M104.2,179.1c-0.2,0-0.3-0.1-0.4-0.2l-4.1-7.1c-0.1-0.2-0.1-0.5,0.2-0.7c0.2-0.1,0.5-0.1,0.7,0.2l4.1,7.1
	c0.1,0.2,0.1,0.5-0.2,0.7C104.3,179.1,104.3,179.1,104.2,179.1L104.2,179.1z"/>
<path class="st0" d="M93.6,164.7c-0.2,0-0.3-0.1-0.4-0.2l-2.2-3.9c-0.1-0.2-0.1-0.5,0.2-0.7c0.2-0.1,0.5-0.1,0.7,0.2l2.3,3.9
	c0.1,0.2,0.1,0.5-0.2,0.7C93.8,164.6,93.7,164.7,93.6,164.7L93.6,164.7z"/>
<path class="st0" d="M106.9,168.8c-0.2,0-0.3-0.1-0.4-0.2L97,152.3c-0.1-0.2-0.1-0.5,0.2-0.7c0.2-0.1,0.5-0.1,0.7,0.2l9.4,16.3
	c0.1,0.2,0.1,0.5-0.2,0.7C107,168.8,107,168.8,106.9,168.8L106.9,168.8z"/>
<path class="st0" d="M106.6,149.7c-0.2,0-0.3-0.1-0.4-0.2l-2.7-4.6c-0.1-0.2-0.1-0.5,0.2-0.7c0.2-0.1,0.5-0.1,0.7,0.2l2.7,4.6
	c0.1,0.2,0.1,0.5-0.2,0.7C106.8,149.6,106.7,149.7,106.6,149.7L106.6,149.7z"/>
<path class="st0" d="M49.4,218.4c-0.2,0-0.3-0.1-0.4-0.2l-7.4-12.8c-0.1-0.2-0.1-0.5,0.2-0.7c0.2-0.1,0.5-0.1,0.7,0.2l7.4,12.7
	c0.1,0.2,0.1,0.5-0.2,0.7C49.6,218.4,49.5,218.4,49.4,218.4L49.4,218.4z"/>
<path class="st0" d="M63,204.3c-0.2,0-0.3-0.1-0.4-0.2l-2.8-4.8c-0.1-0.2-0.1-0.5,0.2-0.7c0.2-0.1,0.5-0.1,0.7,0.2l2.8,4.8
	c0.1,0.2,0.1,0.5-0.2,0.7C63.1,204.3,63,204.3,63,204.3L63,204.3z"/>
<path class="st0" d="M36.3,198.6c-0.2,0-0.3-0.1-0.4-0.2l-7.1-12.3c-0.1-0.2-0.1-0.5,0.2-0.7c0.2-0.1,0.5-0.1,0.7,0.2l7.1,12.3
	c0.1,0.2,0.1,0.5-0.2,0.7C36.4,198.6,36.4,198.6,36.3,198.6L36.3,198.6z"/>
<path class="st0" d="M53.2,190.4c-0.2,0-0.3-0.1-0.4-0.2l-2.8-5c-0.1-0.2-0.1-0.5,0.2-0.7c0.2-0.1,0.5-0.1,0.7,0.2l2.8,5
	c0.1,0.2,0.1,0.5-0.2,0.7C53.3,190.4,53.2,190.4,53.2,190.4L53.2,190.4z"/>
<path class="st0" d="M56.8,153.1c-0.2,0-0.3-0.1-0.4-0.2l-2.7-4.7c-0.1-0.2-0.1-0.5,0.2-0.7c0.2-0.1,0.5-0.1,0.7,0.2l2.7,4.7
	c0.1,0.2,0.1,0.5-0.2,0.7C57,153.1,56.9,153.1,56.8,153.1L56.8,153.1z"/>
<path class="st0" d="M73.3,163c-0.2,0-0.3-0.1-0.4-0.2l-12.4-21.4c-0.1-0.2-0.1-0.5,0.2-0.7c0.2-0.1,0.5-0.1,0.7,0.2l12.4,21.4
	c0.1,0.2,0.1,0.5-0.2,0.7C73.5,163,73.4,163,73.3,163L73.3,163z"/>
<path class="st0" d="M80.8,157.1c-0.2,0-0.3-0.1-0.4-0.2l-12.7-21.9c-0.1-0.2-0.1-0.5,0.2-0.7c0.2-0.1,0.5-0.1,0.7,0.2l12.6,21.9
	c0.1,0.2,0.1,0.5-0.2,0.7C80.9,157,80.9,157.1,80.8,157.1L80.8,157.1z"/>
<path class="st0" d="M87,149.1c-0.2,0-0.3-0.1-0.4-0.2L75,128.7c-0.1-0.2-0.1-0.5,0.2-0.7c0.2-0.1,0.5-0.1,0.7,0.2l11.7,20.2
	c0.1,0.2,0.1,0.5-0.2,0.7C87.2,149.1,87.1,149.1,87,149.1L87,149.1z"/>
<path class="st0" d="M93.2,141c-0.2,0-0.3-0.1-0.4-0.2L86.5,130c-0.1-0.2-0.1-0.5,0.2-0.7c0.2-0.1,0.5-0.1,0.7,0.2l6.2,10.8
	c0.1,0.2,0.1,0.5-0.2,0.7C93.3,140.9,93.3,141,93.2,141L93.2,141z"/>
<path class="st0" d="M99.3,132.8c-0.2,0-0.3-0.1-0.4-0.2l-0.7-1.2c-0.1-0.2-0.1-0.5,0.2-0.7c0.2-0.1,0.5-0.1,0.7,0.2l0.7,1.2
	c0.1,0.2,0.1,0.5-0.2,0.7C99.4,132.8,99.3,132.8,99.3,132.8L99.3,132.8z"/>
<path class="st0" d="M21.9,179c-0.2,0-0.3-0.1-0.4-0.2l-12.1-21c-0.1-0.2-0.1-0.5,0.2-0.7c0.2-0.1,0.5-0.1,0.7,0.2l12.1,21
	c0.1,0.2,0.1,0.5-0.2,0.7C22.1,178.9,22,179,21.9,179L21.9,179z"/>
<path class="st0" d="M40.4,173.5c-0.2,0-0.3-0.1-0.4-0.2l-6.1-10.5c-0.1-0.2-0.1-0.5,0.2-0.7c0.2-0.1,0.5-0.1,0.7,0.2l6.1,10.5
	c0.1,0.2,0.1,0.5-0.2,0.7C40.6,173.4,40.5,173.5,40.4,173.5L40.4,173.5z"/>
<path class="st0" d="M59.2,168.6c-0.2,0-0.3-0.1-0.4-0.2l-9.1-15.8c-0.1-0.2-0.1-0.5,0.2-0.7c0.2-0.1,0.5-0.1,0.7,0.2l9.1,15.8
	c0.1,0.2,0.1,0.5-0.2,0.7C59.4,168.6,59.3,168.6,59.2,168.6L59.2,168.6z"/>
<path class="st0" d="M34.7,159.8c-0.3,0-0.5-0.2-0.5-0.5c0-0.3,0.2-0.5,0.5-0.5h0c0.3,0,0.5,0.2,0.5,0.5
	C35.2,159.6,35,159.8,34.7,159.8L34.7,159.8z"/>
<path class="st0" d="M21.7,152.8c-0.2,0-0.3-0.1-0.4-0.2l-12.6-22c-0.1-0.2-0.1-0.5,0.2-0.7c0.2-0.1,0.5-0.1,0.7,0.2l12.7,22
	c0.1,0.2,0.1,0.5-0.2,0.7C21.9,152.8,21.8,152.8,21.7,152.8L21.7,152.8z"/>
<path class="st0" d="M39.8,146.6c-0.2,0-0.3-0.1-0.4-0.2l-16.6-28.7c-0.1-0.2-0.1-0.5,0.2-0.7c0.2-0.1,0.5-0.1,0.7,0.2l16.6,28.7
	c0.1,0.2,0.1,0.5-0.2,0.7C40,146.6,39.9,146.6,39.8,146.6L39.8,146.6z"/>
<path class="st0" d="M53.7,133.1c-0.2,0-0.3-0.1-0.4-0.2l-3.5-6c-0.1-0.2-0.1-0.5,0.2-0.7c0.2-0.1,0.5-0.1,0.7,0.2l3.5,6
	c0.1,0.2,0.1,0.5-0.2,0.7C53.8,133.1,53.8,133.1,53.7,133.1L53.7,133.1z"/>
<path class="st0" d="M36.4,116.9c-0.2,0-0.3-0.1-0.4-0.2L24.1,96.1c-0.1-0.2-0.1-0.5,0.2-0.7c0.2-0.1,0.5-0.1,0.7,0.2l11.9,20.6
	c0.1,0.2,0.1,0.5-0.2,0.7C36.6,116.9,36.5,116.9,36.4,116.9L36.4,116.9z"/>
<path class="st0" d="M54.9,111.4c-0.2,0-0.3-0.1-0.4-0.2l-2.6-4.4c-0.1-0.2-0.1-0.5,0.2-0.7c0.2-0.1,0.5-0.1,0.7,0.2l2.6,4.4
	c0.1,0.2,0.1,0.5-0.2,0.7C55.1,111.4,55,111.4,54.9,111.4L54.9,111.4z"/>
<path class="st0" d="M41.6,97.1c-0.2,0-0.3-0.1-0.4-0.2l-6.4-11.2c-0.1-0.2-0.1-0.5,0.2-0.7c0.2-0.1,0.5-0.1,0.7,0.2L42,96.4
	c0.1,0.2,0.1,0.5-0.2,0.7C41.8,97.1,41.7,97.1,41.6,97.1L41.6,97.1z"/>
<path class="st0" d="M60.9,93.1c-0.2,0-0.3-0.1-0.4-0.2L43.8,63.8c-0.1-0.2-0.1-0.5,0.2-0.7c0.2-0.1,0.5-0.1,0.7,0.2l16.7,29.1
	c0.1,0.2,0.1,0.5-0.2,0.7C61.1,93.1,61,93.1,60.9,93.1L60.9,93.1z"/>
<path class="st0" d="M88.5,114.6c-0.2,0-0.3-0.1-0.4-0.2l-5.6-9.7c-0.1-0.2-0.1-0.5,0.2-0.7c0.2-0.1,0.5-0.1,0.7,0.2l5.6,9.7
	c0.1,0.2,0.1,0.5-0.2,0.7C88.6,114.6,88.6,114.6,88.5,114.6L88.5,114.6z"/>
<path class="st0" d="M99.7,115.3c-0.2,0-0.3-0.1-0.4-0.3l-0.4-0.8c-0.1-0.2,0-0.5,0.2-0.7c0.2-0.1,0.5,0,0.7,0.2l0.4,0.8
	c0.1,0.2,0,0.5-0.2,0.7C99.9,115.3,99.8,115.3,99.7,115.3L99.7,115.3z"/>
<path class="st0" d="M91,106.3c-0.2,0-0.3-0.1-0.4-0.2L78.4,84.9c-0.1-0.2-0.1-0.5,0.2-0.7c0.2-0.1,0.5-0.1,0.7,0.2l12.2,21.1
	c0.1,0.2,0.1,0.5-0.2,0.7C91.1,106.3,91,106.3,91,106.3L91,106.3z"/>
<path class="st0" d="M107.5,116.1c-0.2,0-0.3-0.1-0.4-0.2L77.8,65.1c-0.1-0.2-0.1-0.5,0.2-0.7c0.2-0.1,0.5-0.1,0.7,0.2l29.3,50.7
	c0.1,0.2,0.1,0.5-0.2,0.7C107.7,116.1,107.6,116.1,107.5,116.1L107.5,116.1z"/>
<path class="st0" d="M107,96.5c-0.2,0-0.3-0.1-0.4-0.2L92.9,72.7c-0.1-0.2-0.1-0.5,0.2-0.7c0.2-0.1,0.5-0.1,0.7,0.2l13.7,23.6
	c0.1,0.2,0.1,0.5-0.2,0.7C107.2,96.5,107.1,96.5,107,96.5L107,96.5z"/>
<path class="st0" d="M69.4,56c-0.2,0-0.3-0.1-0.4-0.2L57.9,36.6c-0.1-0.2-0.1-0.5,0.2-0.7c0.2-0.1,0.5-0.1,0.7,0.2l11.1,19.2
	c0.1,0.2,0.1,0.5-0.2,0.7C69.5,56,69.5,56,69.4,56L69.4,56z"/>
<path class="st0" d="M94.3,54.7c-0.2,0-0.3-0.1-0.4-0.2L78.2,27.3c-0.1-0.2-0.1-0.5,0.2-0.7c0.2-0.1,0.5-0.1,0.7,0.2l15.7,27.2
	c0.1,0.2,0.1,0.5-0.2,0.7C94.5,54.6,94.4,54.7,94.3,54.7L94.3,54.7z"/>
<path class="st0" d="M108,40.9c-0.2,0-0.3-0.1-0.4-0.2L101,29.1c-0.1-0.2-0.1-0.5,0.2-0.7c0.2-0.1,0.5-0.1,0.7,0.2l6.7,11.5
	c0.1,0.2,0.1,0.5-0.2,0.7C108.2,40.9,108.1,40.9,108,40.9L108,40.9z"/>
<path class="st0" d="M103.7,27.2c-0.2,0-0.3-0.1-0.4-0.2l-3.5-6c-0.1-0.2-0.1-0.5,0.2-0.7c0.2-0.1,0.5-0.1,0.7,0.2l3.5,6
	c0.1,0.2,0.1,0.5-0.2,0.7C103.9,27.1,103.8,27.2,103.7,27.2L103.7,27.2z"/>
<path class="st0" d="M130.4,35.8c-0.2,0-0.3-0.1-0.4-0.2l-19.1-33c-0.1-0.2-0.1-0.5,0.2-0.7c0.2-0.1,0.5-0.1,0.7,0.2l19.1,33
	c0.1,0.2,0.1,0.5-0.2,0.7C130.6,35.8,130.5,35.8,130.4,35.8L130.4,35.8z"/>
<path class="st0" d="M123.9,102.5c-0.2,0-0.3-0.1-0.4-0.2l-4.2-7.4c-0.1-0.2-0.1-0.5,0.2-0.7c0.2-0.1,0.5-0.1,0.7,0.2l4.2,7.4
	c0.1,0.2,0.1,0.5-0.2,0.7C124,102.5,123.9,102.5,123.9,102.5L123.9,102.5z"/>
<path class="st0" d="M130.4,95.1c-0.2,0-0.3-0.1-0.4-0.2l-11-19.1c-0.1-0.2-0.1-0.5,0.2-0.7c0.2-0.1,0.5-0.1,0.7,0.2l11,19.1
	c0.1,0.2,0.1,0.5-0.2,0.7C130.6,95,130.5,95.1,130.4,95.1L130.4,95.1z"/>
<path class="st0" d="M136.8,87.3c-0.2,0-0.3-0.1-0.4-0.2l-12.5-21.6c-0.1-0.2-0.1-0.5,0.2-0.7c0.2-0.1,0.5-0.1,0.7,0.2l12.5,21.6
	c0.1,0.2,0.1,0.5-0.2,0.7C136.9,87.3,136.8,87.3,136.8,87.3L136.8,87.3z"/>
<path class="st0" d="M142.7,78.8c-0.2,0-0.3-0.1-0.4-0.2l-1.8-3.1c-0.1-0.2-0.1-0.5,0.2-0.7c0.2-0.1,0.5-0.1,0.7,0.2l1.8,3.1
	c0.1,0.2,0.1,0.5-0.2,0.7C142.9,78.8,142.8,78.8,142.7,78.8L142.7,78.8z"/>
<path class="st0" d="M137.7,70.3c-0.2,0-0.3-0.1-0.4-0.2l-7.9-13.7c-0.1-0.2-0.1-0.5,0.2-0.7c0.2-0.1,0.5-0.1,0.7,0.2l7.9,13.7
	c0.1,0.2,0.1,0.5-0.2,0.7C137.8,70.3,137.8,70.3,137.7,70.3L137.7,70.3z"/>
<path class="st0" d="M147,67.7c-0.2,0-0.3-0.1-0.4-0.2l-11.9-20.6c-0.1-0.2-0.1-0.5,0.2-0.7c0.2-0.1,0.5-0.1,0.7,0.2l11.9,20.7
	c0.1,0.2,0.1,0.5-0.2,0.7C147.1,67.6,147.1,67.7,147,67.7L147,67.7z"/>
<path class="st0" d="M149.7,53.6c-0.2,0-0.3-0.1-0.4-0.2l-9.2-15.9c-0.1-0.2-0.1-0.5,0.2-0.7c0.2-0.1,0.5-0.1,0.7,0.2l9.2,15.9
	c0.1,0.2,0.1,0.5-0.2,0.7C149.9,53.6,149.8,53.6,149.7,53.6L149.7,53.6z"/>
<path class="st0" d="M152.5,39.6c-0.2,0-0.3-0.1-0.4-0.2l-6.4-11.1c-0.1-0.2-0.1-0.5,0.2-0.7c0.2-0.1,0.5-0.1,0.7,0.2l6.4,11.1
	c0.1,0.2,0.1,0.5-0.2,0.7C152.7,39.6,152.6,39.6,152.5,39.6L152.5,39.6z"/>
<path class="st0" d="M138.1,14.6c-0.2,0-0.3-0.1-0.4-0.2l-5.2-9c-0.1-0.2-0.1-0.5,0.2-0.7c0.2-0.1,0.5-0.1,0.7,0.2l5.2,9
	c0.1,0.2,0.1,0.5-0.2,0.7C138.2,14.6,138.1,14.6,138.1,14.6L138.1,14.6z"/>
<path class="st0" d="M155.6,26.3c-0.2,0-0.3-0.1-0.4-0.2l-6.6-11.4c-0.1-0.2-0.1-0.5,0.2-0.7c0.2-0.1,0.5-0.1,0.7,0.2l6.6,11.4
	c0.1,0.2,0.1,0.5-0.2,0.7C155.8,26.3,155.7,26.3,155.6,26.3L155.6,26.3z"/>
<path class="st0" d="M166.7,49.1c-0.2,0-0.3-0.1-0.4-0.2l-3.1-5.4c-0.1-0.2-0.1-0.5,0.2-0.7c0.2-0.1,0.5-0.1,0.7,0.2l3.1,5.4
	c0.1,0.2,0.1,0.5-0.2,0.7C166.9,49.1,166.8,49.1,166.7,49.1L166.7,49.1z"/>
<path class="st0" d="M173.1,41.5c-0.2,0-0.3-0.1-0.4-0.3l-0.4-0.8c-0.1-0.2,0-0.5,0.2-0.7c0.2-0.1,0.5,0,0.7,0.2l0.4,0.8
	c0.1,0.2,0,0.5-0.2,0.7C173.3,41.4,173.2,41.5,173.1,41.5L173.1,41.5z"/>
<path class="st0" d="M177,63.7c-0.2,0-0.3-0.1-0.4-0.2l-3.2-5.5c-0.1-0.2-0.1-0.5,0.2-0.7c0.2-0.1,0.5-0.1,0.7,0.2l3.2,5.5
	c0.1,0.2,0.1,0.5-0.2,0.7C177.1,63.7,177,63.7,177,63.7L177,63.7z"/>
<path class="st0" d="M186.2,61.1c-0.2,0-0.3-0.1-0.4-0.3l-0.6-1c-0.1-0.2,0-0.5,0.2-0.7c0.2-0.1,0.5,0,0.7,0.2l0.6,1
	c0.1,0.2,0,0.5-0.2,0.7C186.4,61.1,186.3,61.1,186.2,61.1L186.2,61.1z"/>
</svg>
