<?xml version="1.0" encoding="utf-8"?>
<!-- Generator: Adobe Illustrator 24.1.2, SVG Export Plug-In . SVG Version: 6.00 Build 0)  -->
<svg version="1.1" id="Layer_1" xmlns="http://www.w3.org/2000/svg" xmlns:xlink="http://www.w3.org/1999/xlink" x="0px" y="0px"
	 viewBox="0 0 1910.4 655.8" style="enable-background:new 0 0 1910.4 655.8;" xml:space="preserve">
<style type="text/css">
	.st0{fill:#FFFFFF;}
	.st1{fill-rule:evenodd;clip-rule:evenodd;fill:#ED7004;}
	.st2{fill:#999999;}
</style>
<path class="st0" d="M763,186.2c0-118.1-84-164.5-182.6-180C545.5,1.2,507.7,0,472.8,0C331.8,0,97.3,22.3,20,181.3
	C8.1,205.4,0,238.8,0,266.1C0,366.9,55.2,474.9,128,552c68.5,72.5,143.3,103.8,223.1,103.8c61.7,0,113.5-20.7,160.9-55.4
	C621.2,519.3,763,333.5,763,186.2L763,186.2z"/>
<path class="st1" d="M383.6,295.5c-25.3-12.6-49.3-24.1-49.3-44.3c0-17.1,18.3-24.7,37.3-24.7c19.6,0,37.9,6.9,53.1,19V217
	c-15.8-8.9-34.1-13.3-52.5-13.3c-34.2,0-72.1,17.1-72.1,56.3c0,32.3,28.5,46.2,55,58.8c24,11.4,46.2,21.5,46.2,42.4
	s-22.1,25.3-39.9,25.3c-16.4,0-42.3-7-63.2-18.3v29.1c20.3,8.2,39.8,12.7,62,12.7c35.4,0,77.8-14.6,77.8-56.9
	C438,324,410.2,308.8,383.6,295.5L383.6,295.5z M357.3,639h0.9c56.7-0.1,105.3-20.3,150.7-53.7c108.8-81,246.7-262.5,246.7-403.6
	C755.5,76,679,29.2,582.8,14C548,8.4,516.4,7.7,481.6,7.7c-145.5,0-370,25.3-442.1,174.6c-10.6,21.2-16.9,50.9-17.1,76v3
	c0.2,37.8,6,72.1,22.1,108.3c27.8,62,77.8,97.4,146.1,97.4c19,0,36.1-1.9,46.8-5.7c10.7-4.5,21.5-12.7,21.5-27.9
	c0-7.6-5.7-15.8-13.9-18.9c-8.8-3.2-16.4-3.8-39.8-5.1c-23.4-1.3-31.6-1.9-48.1-3.2c-25.9-2.5-39.2-19.6-39.2-36
	c0-14.6,10.1-27.2,29.1-36.1c-25.3-9.5-42.8-33.5-42.8-60.6c0-39.3,30.6-69.7,80.2-69.7c10.7,0,23.3,2.5,34.1,5.7
	c8.9,2.5,18.4,4.4,28.5,4.4c12,0,25.9-0.6,37.3-3.8v25.3c-6.3-1.3-26.6-2.6-37.3-2.6c10.1,11.4,15.8,27.2,15.8,42.4
	c0,35.4-27.8,65.1-77.2,65.1c-4.2,0-8.8-0.2-14.2-0.8c-5.2,1-9.8,3.2-13.4,6.2c-5.4,4.3-7.9,9.9-7.9,14.8c0,8.3,4.4,14.6,24.7,15.8
	l43.6,2.5c42.4,2.5,65.2,19.6,64.5,50c-1.3,34.8-29.1,60.1-96.2,60.1c-17.7,0-41.1-3.2-62-9.5c-15.2-4.4-29.7-12.6-42.4-22.1
	C139.4,554.7,240.4,638.8,357.3,639L357.3,639z M649.2,398c-10.7,0-28.5-7.5-51.8-32.9c-30.4-33.5-62.6-71.5-62.6-71.5l53.8-50.6
	c31.6-29.7,40.5-31.6,43-32.3h-50c-10.1,13.3-21.5,23.4-21.5,23.4l-57.6,53.8V118.4l-43.7,11.4c5.7,7.6,7.6,20.3,7.6,48.7v175.2
	c0,35.4-1.9,39.2-5.7,49.3h46.8c-3.2-8.2-5.1-13.9-5.1-49.3v-50.6c0,0,25.9,31,58.2,69.6c20.2,24,36.7,34.8,56.3,34.8
	c15.2,0,29.1-3.8,38.6-10.8C653.7,397.3,651.1,398,649.2,398L649.2,398z M186.7,320.2c-31,0-47.9-22.8-47.9-51.9
	c0-25.9,16-43.6,42.5-43.6c30.4,0,46.7,22.6,46.7,51.1C228,301.7,213.9,320.2,186.7,320.2L186.7,320.2z"/>
<path class="st2" d="M1910.1,496.1c0.2-1.3,0.2-3.1,0.2-4.6c0-25.5-8.9-44.1-36.6-44.1c-24,0-38.6,18.3-38.6,43.6
	c0,28.5,12.6,46.8,43,46.8c14.5,0,19.6-3.1,25.3-5.7v-15.8c-3.8,3.2-13.9,8.8-24.7,8.8c-15.2,0-26.6-12-26.6-29.1h58V496.1z
	 M1893.3,484h-41.1c1.3-10.7,5.7-24,21.5-24C1887.6,460,1893.3,470.8,1893.3,484z M1820,535.9v-51.3c0-23.4-9.5-37.3-31.6-37.3
	c-12,0-22.8,5.7-27.2,15.8h-0.6v-13.9h-15.2v86.6h15.8v-39.9c0-21.5,6.9-36.7,25.3-36c13.9,0.7,17.7,10.7,17.7,31v44.9L1820,535.9z
	 M1706.5,535.9h15.8v-86.6h-15.8V535.9z M1722.4,535.9h-15.8H1722.4z M1739.4,420.9c0-5-3.8-9.5-8.8-9.5s-9.5,4.4-9.5,9.5
	c0,5,4.4,8.8,9.5,8.8C1735.6,429.7,1739.4,425.9,1739.4,420.9z M1690.9,535.2c-6.3-1.9-7.6-6.3-7.6-12V415.8h-16.5v109.3
	c0,8.2,3.8,12.6,12.6,12.6C1685.2,537.8,1688.4,536.5,1690.9,535.2L1690.9,535.2z M1656.8,535.9l-49.7-62.1l45.4-56.1h-19.4
	l-41.7,52.5v-52.5h-16.6v118.2h16.6v-57.5l43.6,57.5H1656.8z M1551,535.9v-51.3c0-23.4-9.5-37.3-31.6-37.3c-12,0-20.9,5.1-26.6,14.6
	h-0.6v-46.1h-15.8v120.1h15.8V496c0-21.5,7-36.7,25.3-36c13.9,0.7,17.7,10.7,17.7,31v44.9H1551z M1461.5,535.2V522
	c-2.5,1.3-5.7,3.2-10.8,3.2c-7.6,0-13.3-5.7-13.3-15.8V462h21.5v-12.6h-21.5V424l-15.8,5v20.3h-15.2v12.6h15.2v50.6
	c0,17.7,10.1,25.3,26.6,25.3C1453.3,537.8,1458.4,536.5,1461.5,535.2L1461.5,535.2z M1376.4,535.9h15.8v-86.6h-15.8V535.9z
	 M1392.2,535.9h-15.8H1392.2z M1409.9,420.9c0-5-4.4-9.5-9.5-9.5s-8.8,4.4-8.8,9.5c0,5,3.8,8.8,8.9,8.8
	C1405.5,429.7,1409.9,425.9,1409.9,420.9L1409.9,420.9z M1355,535.9v-55.7c0-19-8.2-32.9-30.3-32.9c-7.6,0-20.9,4.4-26.6,16.4
	c-4.4-11.4-14.5-16.4-24.6-16.4c-12.6,0-21.5,4.4-27.8,14.6v-12.6h-15.2v86.6h15.8v-43.6c0-16.5,6.9-32.3,22.8-32.3
	c13.3,0,15.8,13.3,15.8,24v51.9h15.8v-43.6c0-16.5,6.3-32.3,22.8-32.3c12.6,0,15.2,13.3,15.2,24v51.9H1355z M1216.7,503
	c0-24-20.2-31-37.9-39.2c-3.2-1.2-6.3-2.5-8.9-4.4c-5.1-3.1-8.9-7.6-8.9-13.9c0-12.6,12.6-16.4,23.4-16.4c8.4,0,17.6,2.6,24,5.1
	l2.5-13.9c-8.9-3.2-19-5.1-27.2-5.1c-24,0-41.7,11.4-41.7,32.2c0,22.8,22.1,28.5,37.9,36c8.9,3.8,19,9.5,19,20.2
	c0,15.2-15.8,20.2-25.9,20.2c-9.5,0-21.1-3-27.8-5.7l-1.3,15.2c6.9,2.2,18.4,4.4,26.2,4.4C1196.2,537.8,1216.7,527.7,1216.7,503
	L1216.7,503z M1041.7,535.9l-27.8-45.6l25.3-41.1h-18.4l-16.4,31l-16.4-31h-19.6l25.3,41.1l-28.4,45.6h19l19-34.2l18.9,34.2H1041.7z
	 M870.7,535.2c-6.3-1.9-7.6-6.3-7.6-12V415.8h-16.4v109.3c0,8.2,3.8,12.6,12.6,12.6C865,537.8,868.8,536.5,870.7,535.2L870.7,535.2z
	 M827.1,532.7v-51.6H810v39.6c-4.4,1.3-7.6,1.9-19,1.9c-24.7,0-44.9-18.4-44.9-46.2c0-26.6,18.3-46.1,45.5-46.1
	c14.6,0,25.9,3.8,32.9,8.2l1.3-17.1c-10.1-3.8-17.7-6.3-34.8-6.3c-36,0-62.6,24.6-62.6,60.7c0,37.9,24.7,61.9,62,61.9
	C809.4,537.8,820.1,534.6,827.1,532.7L827.1,532.7z M1112.8,492.3c0,15.8-5.7,32.9-24,32.9c-19,0-24.6-17.1-24.6-32.9
	c0-16.5,6.9-32.3,24.6-32.3C1105.2,460,1112.8,475.8,1112.8,492.3L1112.8,492.3z M1129.9,492.3c0-25.9-15.2-44.9-41.1-44.9
	c-26.5,0-41.7,19-41.7,44.9c0,25.3,15.2,45.5,41.7,45.5C1114.7,537.8,1129.9,517.6,1129.9,492.3z M936.3,502.4
	c0,12.7-7,22.8-22.8,22.8c-7,0-14.5-5.1-14.5-14.6c0-15.2,19.6-16.4,27.8-16.4c3.8,0,6.3,0.6,9.5,0.6V502.4z M953.4,535.9
	c-0.6-2.6-0.6-7-0.6-17.1v-36c0-23.4-8.8-35.4-33.5-35.4c-11.4,0-19.6,3.1-27.8,8.2l1.3,13.3c6.3-5.1,14.5-8.9,24-8.9
	c15.8,0,19.6,7.6,19.6,22.8c-6.3-0.6-10.1-0.6-16.5-0.6c-16.4,0-37.9,7-37.9,28.4c0,19,12,27.2,30.3,27.2c14.6,0,22.1-8.2,25.3-13.3
	h0.7v11.4L953.4,535.9L953.4,535.9z"/>
</svg>
