<?xml version="1.0" encoding="utf-8"?>
<!-- Generator: Adobe Illustrator 24.1.2, SVG Export Plug-In . SVG Version: 6.00 Build 0)  -->
<svg version="1.1" id="Camada_1" xmlns="http://www.w3.org/2000/svg" xmlns:xlink="http://www.w3.org/1999/xlink" x="0px" y="0px"
	 viewBox="0 0 373 117" style="enable-background:new 0 0 373 117;" xml:space="preserve">
<style type="text/css">
	.st0{fill:#A1DAF8;}
	.st1{fill:#FFFFFF;}
</style>
<g>
	<polygon class="st0" points="259.2,13.8 255.3,13.8 255.3,11.1 266.2,11.1 266.2,13.8 262.3,13.8 262.3,23.9 259.2,23.9 	"/>
	<polygon class="st0" points="267.3,11.1 275.3,11.1 275.3,13.8 270.4,13.8 270.4,16.1 274.3,16.1 274.3,18.8 270.4,18.8 
		270.4,21.2 275.6,21.2 275.6,23.9 267.3,23.9 	"/>
	<g>
		<path class="st0" d="M281.8,16.9c1,0,1.6-0.6,1.6-1.6c0-1-0.4-1.5-1.9-1.5h-1.1v3.1H281.8z M277.4,11.1h4.4c1.3,0,1.9,0.1,2.5,0.3
			c1.4,0.6,2.4,1.9,2.4,3.7c0,1.4-0.6,2.8-1.9,3.5v0c0,0,0.2,0.2,0.5,0.8l2.5,4.5h-3.5l-2.3-4.3h-1.5v4.3h-3.1V11.1z"/>
		<path class="st0" d="M289.8,11.1h3.4l1.9,5.4c0.3,0.8,0.6,2.1,0.6,2.1h0c0,0,0.4-1.3,0.6-2.1l1.9-5.4h3.4l1,12.8h-3.1l-0.4-5.7
			c-0.1-1,0-2.1,0-2.1h0c0,0-0.4,1.3-0.7,2.1l-1.3,3.7h-2.7l-1.3-3.7c-0.3-0.8-0.7-2.1-0.7-2.1h0c0,0,0.1,1.2,0,2.1l-0.4,5.7h-3.1
			L289.8,11.1z"/>
	</g>
	<rect x="304.8" y="11.1" class="st0" width="3.1" height="12.8"/>
	<g>
		<path class="st0" d="M310.5,11.1h3.2l3.5,6c0.5,0.8,1.1,2.2,1.1,2.2h0c0,0-0.1-1.4-0.1-2.2v-6h3.1v12.8h-3.1l-3.6-5.9
			c-0.5-0.8-1.1-2.2-1.1-2.2h0c0,0,0.1,1.4,0.1,2.2v5.9h-3.1V11.1z"/>
		<path class="st0" d="M328.2,14c0,0-0.3,1.4-0.5,2.2l-0.7,2.5h2.5l-0.7-2.5C328.5,15.4,328.2,14,328.2,14L328.2,14z M330.2,21.2h-4
			l-0.8,2.7h-3.2l4.3-12.8h3.3l4.3,12.8H331L330.2,21.2z"/>
	</g>
	<polygon class="st0" points="335.2,11.1 338.3,11.1 338.3,21.2 343.5,21.2 343.5,23.9 335.2,23.9 	"/>
	<g>
		<path class="st0" d="M261.1,40.4c2.2,0,3.5-1.3,3.5-3.7c0-2.4-1.4-3.7-3.5-3.7h-1.3v7.4H261.1z M256.7,30.3h4.5
			c4,0,6.6,2.3,6.6,6.4c0,4-2.6,6.4-6.6,6.4h-4.5V30.3z"/>
	</g>
	<polygon class="st0" points="269.6,30.3 277.6,30.3 277.6,32.9 272.7,32.9 272.7,35.3 276.6,35.3 276.6,37.9 272.7,37.9 
		272.7,40.4 277.9,40.4 277.9,43 269.6,43 	"/>
	<g>
		<path class="st0" d="M289.1,30.1c3.2,0,4.8,1.8,4.8,1.8l-1.4,2.4c0,0-1.4-1.3-3.2-1.3c-2.4,0-3.6,1.8-3.6,3.6
			c0,1.9,1.2,3.8,3.6,3.8c1.9,0,3.4-1.6,3.4-1.6l1.6,2.3c0,0-1.8,2.1-5.1,2.1c-4,0-6.7-2.8-6.7-6.6
			C282.4,32.9,285.3,30.1,289.1,30.1"/>
		<path class="st0" d="M300.1,33.2c0,0-0.3,1.4-0.5,2.2l-0.7,2.5h2.5l-0.7-2.5C300.4,34.6,300.1,33.2,300.1,33.2L300.1,33.2z
			 M302.1,40.4h-4l-0.8,2.7h-3.2l4.3-12.8h3.3l4.3,12.8h-3.2L302.1,40.4z"/>
		<path class="st0" d="M311.5,36.1c1,0,1.6-0.6,1.6-1.6c0-1-0.4-1.5-1.9-1.5h-1.1v3.1H311.5z M307.1,30.3h4.4c1.3,0,1.9,0.1,2.5,0.3
			c1.4,0.6,2.4,1.9,2.4,3.7c0,1.4-0.6,2.8-1.9,3.5v0c0,0,0.2,0.2,0.5,0.8l2.5,4.5h-3.5l-2.3-4.3h-1.5V43h-3.1V30.3z"/>
		<path class="st0" d="M324.6,30.1c3.3,0,4.9,1.7,4.9,1.7l-1.5,2.3c0,0-1.3-1.2-3.1-1.2c-2.7,0-3.8,1.7-3.8,3.6
			c0,2.4,1.7,3.9,3.7,3.9c1.5,0,2.6-0.9,2.6-0.9v-1h-1.8v-2.7h4.6V43h-2.6v-0.4c0-0.3,0-0.5,0-0.5h0c0,0-1.2,1.1-3.4,1.1
			c-3.3,0-6.3-2.4-6.3-6.6C317.9,32.9,320.7,30.1,324.6,30.1"/>
		<path class="st0" d="M336.4,33.2c0,0-0.3,1.4-0.5,2.2l-0.7,2.5h2.5l-0.7-2.5C336.8,34.6,336.5,33.2,336.4,33.2L336.4,33.2z
			 M338.4,40.4h-4l-0.8,2.7h-3.2l4.3-12.8h3.3l4.3,12.8h-3.2L338.4,40.4z"/>
		<path class="st1" d="M263.4,78.6h-1.1c-0.3,0-0.2-0.1-0.3-0.4l-0.6-2h-3.5l-0.6,2c-0.1,0.3-0.1,0.4-0.4,0.4h-1
			c-0.2,0-0.2,0-0.1-0.5l2.8-9.3c0.1-0.3,0.2-0.4,0.5-0.4h1.1c0.3,0,0.4,0.1,0.5,0.4l2.8,9.3C263.8,78.6,263.7,78.6,263.4,78.6
			 M259.6,70.4l-1.4,4.7h2.7L259.6,70.4z"/>
		<path class="st1" d="M270.4,75.3h-4.1c0,1.6,0.8,2.3,2.1,2.3c1.1,0,1.8-0.2,2.1-0.3c0.3-0.1,0.4,0,0.4,0.1v0.7
			c0,0.3-0.1,0.3-0.5,0.4c-0.2,0.1-1.2,0.2-2.1,0.2c-2.4,0-3.6-1.1-3.6-3.8c0-2.7,1.1-4,3.2-4c1.9,0,3.1,1.1,3.1,2.9v0.9
			C271,75.1,271,75.3,270.4,75.3 M267.9,71.9c-1.1,0-1.6,0.9-1.6,2.1c0,0.2,0,0.3,0.2,0.3h2.8c0.1,0,0.2-0.1,0.2-0.3
			C269.5,72.7,269.1,71.9,267.9,71.9"/>
		<path class="st1" d="M276.4,72.1c0,0.1-0.1,0.2-0.2,0.2c-0.4,0-0.8,0.1-1.1,0.3c-0.6,0.4-1.1,0.9-1.1,1.3v4.2c0,0.4,0,0.5-0.3,0.5
			h-0.9c-0.3,0-0.4-0.2-0.4-0.5v-6.6c0-0.3,0.1-0.4,0.3-0.4h0.9c0.2,0,0.3,0.1,0.3,0.4v0.7c0.6-0.8,1.4-1.2,2.2-1.2
			c0.1,0,0.2,0,0.2,0.2L276.4,72.1z"/>
		<path class="st1" d="M280.6,78.8c-2.2,0-3.4-0.9-3.4-3.9c0-2.9,1.4-4,3.5-4c2.1,0,3.3,1.1,3.3,4C284,77.4,282.7,78.8,280.6,78.8
			 M282.4,74.1c0-1.2-0.4-2.1-1.7-2.1c-1,0-1.8,0.7-1.8,2.2v1.4c0,1.5,0.8,2.1,1.8,2.1c1.1,0,1.7-0.9,1.7-2.3V74.1z"/>
		<path class="st1" d="M289.2,78.8c-1.1,0-1.8-0.3-2.3-0.9v3.2c0,0.3-0.1,0.5-0.3,0.5h-0.9c-0.3,0-0.4-0.1-0.4-0.5v-9.5
			c0-0.3,0-0.5,0.4-0.5h0.9c0.2,0,0.3,0.1,0.3,0.4V72c0.5-0.8,1.4-1.1,2.3-1.1c1.6,0,2.4,1.5,2.4,3.9
			C291.7,77.7,290.7,78.8,289.2,78.8 M290.1,74.4c0-1.4-0.5-2.4-1.5-2.4c-1.1,0-1.5,1-1.5,1.7v2.7c0,0.4,0.6,1.3,1.5,1.3
			c1,0,1.5-0.8,1.5-2.2V74.4z"/>
		<path class="st1" d="M296.4,78.8c-2.2,0-3.4-0.9-3.4-3.9c0-2.9,1.4-4,3.5-4c2.1,0,3.3,1.1,3.3,4C299.7,77.4,298.4,78.8,296.4,78.8
			 M298.1,74.1c0-1.2-0.4-2.1-1.7-2.1c-1,0-1.8,0.7-1.8,2.2v1.4c0,1.5,0.8,2.1,1.8,2.1c1.1,0,1.7-0.9,1.7-2.3V74.1z"/>
		<path class="st1" d="M305.1,72.1c0,0.1-0.1,0.2-0.2,0.2c-0.4,0-0.8,0.1-1.1,0.3c-0.6,0.4-1.1,0.9-1.1,1.3v4.2c0,0.4,0,0.5-0.3,0.5
			h-0.9c-0.3,0-0.4-0.2-0.4-0.5v-6.6c0-0.3,0.1-0.4,0.3-0.4h0.9c0.2,0,0.3,0.1,0.3,0.4v0.7c0.6-0.8,1.4-1.2,2.2-1.2
			c0.1,0,0.2,0,0.2,0.2L305.1,72.1z"/>
		<path class="st1" d="M309.5,72.4h-1.3v4.5c0,0.5,0.2,0.7,0.6,0.7c0.3,0,0.4,0,0.7-0.1c0.2,0,0.3,1,0.1,1c-0.2,0.1-0.8,0.2-1.3,0.2
			c-1.3,0-1.7-0.9-1.7-1.8v-4.6h-0.7c-0.2,0-0.2-0.1-0.2-0.3v-0.5c0-0.2,0-0.3,0.3-0.3h0.7v-1.4c0-0.2,0.2-0.3,0.4-0.3l0.8-0.1
			c0.3-0.1,0.4,0.1,0.4,0.3v1.5h1.3c0.3,0,0.3,0.1,0.3,0.3v0.5C309.8,72.3,309.8,72.4,309.5,72.4"/>
		<path class="st1" d="M314.3,78.8c-2.2,0-3.4-0.9-3.4-3.9c0-2.9,1.4-4,3.5-4c2.1,0,3.3,1.1,3.3,4C317.6,77.4,316.3,78.8,314.3,78.8
			 M316,74.1c0-1.2-0.4-2.1-1.7-2.1c-1,0-1.8,0.7-1.8,2.2v1.4c0,1.5,0.8,2.1,1.8,2.1c1.1,0,1.7-0.9,1.7-2.3V74.1z"/>
		<path class="st1" d="M257.2,92h-1.1c-0.3,0-0.3-0.1-0.3-0.4v-9.5c0-0.3,0.1-0.3,0.4-0.3h1c0.2,0,0.3,0.1,0.3,0.4v9.5
			C257.5,91.9,257.4,92,257.2,92"/>
		<path class="st1" d="M265,92h-0.9c-0.2,0-0.4-0.2-0.4-0.5v-4.4c0-0.7-0.3-1.4-1.3-1.4c-1.1,0-1.5,0.9-1.5,1.6v4.2
			c0,0.4,0,0.5-0.3,0.5h-0.9c-0.3,0-0.4-0.2-0.4-0.5V85c0-0.3,0.1-0.4,0.3-0.4h0.9c0.2,0,0.3,0.2,0.3,0.9c0.5-0.7,1.2-1,2.2-1
			c1.2,0,2.2,0.6,2.2,2.4v4.6C265.3,91.8,265.2,92,265,92"/>
		<path class="st1" d="M270.4,85.8h-1.3v4.5c0,0.5,0.2,0.7,0.6,0.7c0.3,0,0.4,0,0.7-0.1c0.2,0,0.3,1,0.1,1c-0.2,0.1-0.8,0.2-1.3,0.2
			c-1.3,0-1.7-0.9-1.7-1.8v-4.6h-0.7c-0.2,0-0.2-0.1-0.2-0.3V85c0-0.2,0-0.3,0.3-0.3h0.7v-1.4c0-0.2,0.2-0.3,0.4-0.3l0.8-0.1
			c0.3-0.1,0.4,0.1,0.4,0.3v1.5h1.3c0.3,0,0.3,0.1,0.3,0.3v0.5C270.7,85.7,270.7,85.8,270.4,85.8"/>
		<path class="st1" d="M277.4,88.7h-4.1c0,1.6,0.8,2.3,2.1,2.3c1.1,0,1.8-0.2,2.1-0.3c0.3-0.1,0.4,0,0.4,0.1v0.7
			c0,0.3-0.1,0.3-0.5,0.4c-0.2,0.1-1.2,0.2-2.1,0.2c-2.4,0-3.6-1.1-3.6-3.8c0-2.7,1.1-4,3.2-4c1.9,0,3.1,1.1,3.1,2.9v0.9
			C278,88.5,278,88.7,277.4,88.7 M274.9,85.3c-1.1,0-1.6,0.9-1.6,2.1c0,0.2,0,0.3,0.2,0.3h2.8c0.1,0,0.2-0.1,0.2-0.3
			C276.5,86.1,276.1,85.3,274.9,85.3"/>
		<path class="st1" d="M283.4,85.5c0,0.1-0.1,0.2-0.2,0.2c-0.4,0-0.8,0.1-1.1,0.3c-0.6,0.4-1.1,0.9-1.1,1.3v4.2c0,0.4,0,0.5-0.3,0.5
			h-0.9c-0.3,0-0.4-0.2-0.4-0.5V85c0-0.3,0.1-0.4,0.3-0.4h0.9c0.2,0,0.3,0.1,0.3,0.4v0.7c0.6-0.8,1.4-1.2,2.2-1.2
			c0.1,0,0.2,0,0.2,0.2L283.4,85.5z"/>
		<path class="st1" d="M290.1,92h-0.9c-0.2,0-0.4-0.2-0.4-0.5v-4.4c0-0.7-0.3-1.4-1.3-1.4c-1.1,0-1.5,0.9-1.5,1.6v4.2
			c0,0.4,0,0.5-0.3,0.5h-0.9c-0.3,0-0.4-0.2-0.4-0.5V85c0-0.3,0.1-0.4,0.3-0.4h0.9c0.2,0,0.3,0.2,0.3,0.9c0.5-0.7,1.2-1,2.2-1
			c1.2,0,2.2,0.6,2.2,2.4v4.6C290.4,91.8,290.4,92,290.1,92"/>
		<path class="st1" d="M297.8,92h-0.9c-0.2,0-0.3,0-0.3-0.4V91c-0.3,0.6-1.2,1.1-2.3,1.1c-1.4,0-2.5-1.1-2.5-3.9c0-2.5,0.9-4,2.5-4
			c1.2,0,1.9,0.4,2.3,1.2v-0.6c0-0.2,0.1-0.3,0.3-0.3h0.9c0.4,0,0.4,0.1,0.4,0.4v6.5C298.2,91.8,298.1,92,297.8,92 M296.5,87.2
			c0-0.6-0.4-1.8-1.5-1.8c-1,0-1.5,0.7-1.5,2.3v1.2c0,1.4,0.5,2.2,1.5,2.2c0.9,0,1.5-1,1.5-1.4V87.2z"/>
		<path class="st1" d="M303,92.2c-2.2,0-3.4-0.9-3.4-3.9c0-2.9,1.4-4,3.5-4c1.2,0,2,0.3,2.6,1c0.2,0.3-1,1.1-1.1,0.8
			c-0.3-0.4-0.7-0.8-1.4-0.8c-1,0-1.8,0.7-1.8,2.2V89c0,1.5,0.8,2.1,1.8,2.1c0.6,0,1.1-0.4,1.4-0.9c0.1-0.3,1.3,0.2,1.2,0.5
			C305.2,91.6,304.3,92.2,303,92.2"/>
		<path class="st1" d="M308,83.2h-0.9c-0.3,0-0.3-0.1-0.3-0.5v-0.5c0-0.3,0.1-0.4,0.4-0.4h0.9c0.3,0,0.3,0.2,0.3,0.5v0.5
			C308.3,83.1,308.2,83.2,308,83.2 M308,92h-1c-0.3,0-0.3-0.1-0.3-0.5v-6.6c0-0.3,0.1-0.4,0.3-0.4h0.9c0.3,0,0.3,0.1,0.3,0.4v6.6
			C308.3,91.9,308.3,92,308,92"/>
		<path class="st1" d="M313.1,92.2c-2.2,0-3.4-0.9-3.4-3.9c0-2.9,1.4-4,3.5-4c2.1,0,3.3,1.1,3.3,4C316.5,90.8,315.2,92.2,313.1,92.2
			 M314.9,87.5c0-1.2-0.4-2.1-1.7-2.1c-1,0-1.8,0.7-1.8,2.2V89c0,1.5,0.8,2.1,1.8,2.1c1.1,0,1.7-0.9,1.7-2.3V87.5z"/>
		<path class="st1" d="M323.6,92h-0.9c-0.2,0-0.4-0.2-0.4-0.5v-4.4c0-0.7-0.4-1.4-1.3-1.4c-1.1,0-1.6,0.9-1.6,1.6v4.2
			c0,0.4,0,0.5-0.3,0.5h-0.9c-0.3,0-0.4-0.2-0.4-0.5V85c0-0.3,0.1-0.4,0.3-0.4h0.9c0.2,0,0.3,0.2,0.3,0.9c0.5-0.7,1.2-1,2.2-1
			c1.2,0,2.2,0.6,2.2,2.4v4.6C323.9,91.8,323.8,92,323.6,92"/>
		<path class="st1" d="M331.3,92h-0.9c-0.2,0-0.3,0-0.3-0.4V91c-0.3,0.6-1.2,1.1-2.3,1.1c-1.4,0-2.5-1.1-2.5-3.9c0-2.5,0.9-4,2.5-4
			c1.2,0,1.9,0.4,2.3,1.2v-0.6c0-0.2,0.1-0.3,0.3-0.3h0.9c0.4,0,0.4,0.1,0.4,0.4v6.5C331.6,91.8,331.6,92,331.3,92 M330,87.2
			c0-0.6-0.4-1.8-1.5-1.8c-0.9,0-1.5,0.7-1.5,2.3v1.2c0,1.4,0.5,2.2,1.5,2.2c1,0,1.5-1,1.5-1.4V87.2z"/>
		<path class="st1" d="M334.5,92h-0.9c-0.3,0-0.3-0.1-0.3-0.5V82c0-0.3,0.1-0.4,0.3-0.4h0.9c0.3,0,0.3,0.1,0.3,0.4v9.5
			C334.8,91.9,334.8,92,334.5,92"/>
		<path class="st1" d="M344.6,92.1h-0.9c-0.2,0-0.3,0-0.3-0.4v-0.4c-0.5,0.6-1.2,0.9-2.3,0.9c-1.4,0-2.4-1.1-2.4-3.9
			c0-2.5,0.9-4,2.5-4c1.1,0,1.8,0.3,2.3,1.1v-3.3c0-0.3,0.1-0.5,0.3-0.5h0.9c0.4,0,0.4,0.1,0.4,0.4v9.4
			C344.9,91.9,344.9,92.1,344.6,92.1 M343.3,87.1c0-0.7-0.4-1.7-1.5-1.7c-0.9,0-1.5,0.9-1.5,2.3v1.2c0,1.4,0.5,2.2,1.5,2.2
			c0.9,0,1.5-0.9,1.5-1.3V87.1z"/>
		<path class="st1" d="M352.1,88.8H348c0,1.6,0.8,2.3,2.1,2.3c1.1,0,1.8-0.2,2.1-0.3c0.3-0.1,0.4,0,0.4,0.1v0.7
			c0,0.3-0.1,0.3-0.5,0.4c-0.2,0.1-1.2,0.2-2.1,0.2c-2.4,0-3.6-1.1-3.6-3.8c0-2.7,1.1-4,3.2-4c1.9,0,3.1,1.1,3.1,2.9v0.9
			C352.7,88.6,352.6,88.8,352.1,88.8 M349.6,85.3c-1.1,0-1.6,1-1.6,2.1c0,0.2,0,0.3,0.2,0.3h2.8c0.1,0,0.2-0.1,0.2-0.3
			C351.1,86.1,350.7,85.3,349.6,85.3"/>
		<path class="st1" d="M259.2,105.5h-3.1c-0.3,0-0.3-0.1-0.3-0.4v-9.4c0-0.3,0-0.5,0.3-0.5h2.7c2.4,0,3.7,0.7,3.7,2.6
			c0,1.3-0.7,2.1-1.6,2.4c1,0.3,1.8,0.9,1.8,2.5C262.7,104.5,261.7,105.5,259.2,105.5 M258.7,96.4h-1.1c-0.2,0-0.3,0.1-0.3,0.3v2.7
			c0,0.2,0.1,0.3,0.3,0.3h1.1c1.5,0,2.1-0.5,2.1-1.6C260.8,96.8,260.1,96.4,258.7,96.4 M258.8,100.9h-1.1c-0.2,0-0.3,0.1-0.3,0.3
			v2.8c0,0.1,0,0.3,0.3,0.3h1.1c1.5,0,2.2-0.4,2.2-1.6C261,101.5,260.2,100.9,258.8,100.9"/>
		<path class="st1" d="M269.7,102.2h-4.1c0,1.6,0.8,2.3,2.1,2.3c1.1,0,1.8-0.2,2.1-0.3c0.3-0.1,0.4,0,0.4,0.1v0.7
			c0,0.3-0.1,0.3-0.5,0.4c-0.2,0.1-1.2,0.2-2.1,0.2c-2.4,0-3.6-1.1-3.6-3.8c0-2.7,1.1-4,3.2-4c1.9,0,3.1,1.1,3.1,2.9v0.9
			C270.3,102,270.2,102.2,269.7,102.2 M267.2,98.8c-1.1,0-1.6,1-1.6,2.1c0,0.2,0,0.3,0.2,0.3h2.8c0.1,0,0.2-0.1,0.2-0.3
			C268.7,99.5,268.3,98.8,267.2,98.8"/>
		<path class="st1" d="M273,105.5h-0.9c-0.3,0-0.3-0.1-0.3-0.5v-9.5c0-0.3,0.1-0.4,0.3-0.4h0.9c0.3,0,0.3,0.1,0.3,0.4v9.5
			C273.3,105.4,273.3,105.5,273,105.5"/>
		<path class="st1" d="M278.1,105.6c-2.2,0-3.4-0.9-3.4-3.9c0-2.9,1.4-4,3.5-4c2.1,0,3.3,1.1,3.3,4
			C281.4,104.3,280.2,105.6,278.1,105.6 M279.8,101c0-1.2-0.4-2.1-1.7-2.1c-1,0-1.8,0.7-1.8,2.2v1.4c0,1.5,0.8,2.1,1.8,2.1
			c1.1,0,1.7-0.9,1.7-2.3V101z"/>
		<path class="st1" d="M293.2,105.5h-1c-0.2,0-0.3-0.1-0.3-0.4v-4c0-0.3,0-0.3-0.3-0.3h-3.6c-0.2,0-0.2,0-0.2,0.2v4
			c0,0.4-0.1,0.4-0.4,0.4h-1c-0.2,0-0.3-0.1-0.3-0.5v-9.3c0-0.3,0.1-0.4,0.3-0.4h1c0.3,0,0.4,0.1,0.4,0.5v3.5c0,0.2,0.1,0.3,0.3,0.3
			h3.6c0.2,0,0.2-0.1,0.2-0.2v-3.6c0-0.3,0.1-0.4,0.4-0.4h1c0.3,0,0.3,0.1,0.3,0.4v9.4C293.5,105.4,293.5,105.5,293.2,105.5"/>
		<path class="st1" d="M298.6,105.6c-2.2,0-3.4-0.9-3.4-3.9c0-2.9,1.4-4,3.5-4c2.1,0,3.3,1.1,3.3,4
			C301.9,104.3,300.6,105.6,298.6,105.6 M300.3,101c0-1.2-0.4-2.1-1.7-2.1c-1,0-1.8,0.7-1.8,2.2v1.4c0,1.5,0.8,2.1,1.8,2.1
			c1.1,0,1.7-0.9,1.7-2.3V101z"/>
		<path class="st1" d="M307.3,98.9c0,0.1-0.1,0.2-0.2,0.2c-0.4,0-0.8,0.1-1.1,0.3c-0.6,0.4-1.1,0.9-1.1,1.3v4.2c0,0.4,0,0.5-0.3,0.5
			h-0.9c-0.3,0-0.4-0.2-0.4-0.5v-6.6c0-0.3,0.1-0.4,0.3-0.4h0.9c0.2,0,0.3,0.1,0.3,0.4v0.7c0.6-0.8,1.4-1.2,2.2-1.2
			c0.1,0,0.2,0,0.2,0.2L307.3,98.9z"/>
		<path class="st1" d="M309.5,96.6h-0.9c-0.3,0-0.4-0.1-0.4-0.5v-0.5c0-0.3,0.1-0.4,0.4-0.4h0.9c0.3,0,0.3,0.2,0.3,0.5v0.5
			C309.8,96.6,309.8,96.6,309.5,96.6 M309.5,105.5h-1c-0.3,0-0.3-0.1-0.3-0.5v-6.6c0-0.3,0.1-0.4,0.3-0.4h0.9c0.3,0,0.3,0.1,0.3,0.4
			v6.6C309.8,105.4,309.8,105.5,309.5,105.5"/>
		<path class="st1" d="M316.4,105.5h-4.9c-0.7,0-0.6-0.3-0.4-0.7l3.4-5.8h-3.1c-0.3,0-0.3,0-0.3-0.3v-0.5c0-0.2,0.1-0.3,0.3-0.3h4.8
			c0.5,0,0.6,0.1,0.4,0.5l-3.6,6h3.3c0.3,0,0.4,0,0.4,0.3v0.5C316.7,105.4,316.6,105.5,316.4,105.5"/>
		<path class="st1" d="M321.1,105.6c-2.2,0-3.4-0.9-3.4-3.9c0-2.9,1.4-4,3.5-4c2.1,0,3.3,1.1,3.3,4
			C324.4,104.3,323.1,105.6,321.1,105.6 M322.8,101c0-1.2-0.4-2.1-1.7-2.1c-1,0-1.8,0.7-1.8,2.2v1.4c0,1.5,0.8,2.1,1.8,2.1
			c1.1,0,1.7-0.9,1.7-2.3V101z"/>
		<path class="st1" d="M331.5,105.5h-0.9c-0.2,0-0.4-0.2-0.4-0.5v-4.4c0-0.7-0.3-1.4-1.3-1.4c-1.1,0-1.6,0.9-1.6,1.6v4.2
			c0,0.4,0,0.5-0.3,0.5h-0.9c-0.3,0-0.4-0.2-0.4-0.5v-6.6c0-0.3,0.1-0.4,0.3-0.4h0.9c0.2,0,0.3,0.2,0.3,0.9c0.5-0.7,1.2-1,2.2-1
			c1.2,0,2.2,0.6,2.2,2.4v4.6C331.8,105.3,331.7,105.5,331.5,105.5"/>
		<path class="st1" d="M336.9,99.2h-1.3v4.5c0,0.5,0.2,0.7,0.6,0.7c0.3,0,0.4,0,0.7-0.1c0.1,0,0.3,1,0.1,1c-0.2,0.1-0.8,0.2-1.3,0.2
			c-1.3,0-1.7-0.9-1.7-1.8v-4.6h-0.7c-0.2,0-0.2-0.1-0.2-0.3v-0.5c0-0.2,0-0.3,0.3-0.3h0.7v-1.4c0-0.3,0.2-0.3,0.4-0.3l0.8-0.1
			c0.3-0.1,0.4,0.1,0.4,0.4v1.5h1.3c0.3,0,0.3,0.1,0.3,0.3V99C337.2,99.1,337.2,99.2,336.9,99.2"/>
		<path class="st1" d="M344,102.2h-4.1c0,1.6,0.8,2.3,2.1,2.3c1.1,0,1.8-0.2,2.1-0.3c0.2-0.1,0.4,0,0.4,0.1v0.7
			c0,0.3-0.1,0.3-0.5,0.4c-0.2,0.1-1.2,0.2-2.1,0.2c-2.4,0-3.6-1.1-3.6-3.8c0-2.7,1.1-4,3.2-4c1.9,0,3.1,1.1,3.1,2.9v0.9
			C344.5,102,344.5,102.2,344,102.2 M341.4,98.8c-1.1,0-1.6,1-1.6,2.1c0,0.2,0,0.3,0.2,0.3h2.8c0.1,0,0.2-0.1,0.2-0.3
			C343,99.5,342.6,98.8,341.4,98.8"/>
	</g>
	<rect x="238.3" class="st1" width="0.2" height="117"/>
	<rect x="255.6" y="57.2" class="st1" width="108.9" height="0.2"/>
	<polygon class="st0" points="20.3,23.6 20.3,31.4 13.2,31.4 13.2,23.6 8.5,23.6 8.5,43 13.2,43 13.2,35.4 20.3,35.4 20.3,43 
		25.1,43 25.1,23.6 	"/>
	<g>
		<path class="st0" d="M28.7,23.6h4.8v12.3c0,2,1.3,3.1,3.4,3.1c2,0,3.4-1.1,3.4-3.1V23.6h4.8v12.3c0,4.4-3.2,7.5-8.1,7.5
			c-4.9,0-8.1-3.1-8.1-7.5V23.6z"/>
		<path class="st0" d="M56.1,39c1.4,0,2.1-1,2.1-2s-0.7-2-2-2h-2.9v4H56.1z M55.7,31.1c1.2,0,1.7-0.9,1.7-1.8c0-0.9-0.5-1.7-1.8-1.7
			h-2.4v3.4H55.7z M48.5,23.6h7.1c3.9,0,6.6,1.7,6.6,5.1c0,1.6-0.8,3.3-2.3,4.1v0.1c2.2,0.7,3,2.7,3,4.4c0,4.2-3.5,5.8-7.4,5.8h-7.1
			V23.6z"/>
	</g>
	<polygon class="st0" points="71.3,23.6 76,23.6 76,39 83.9,39 83.9,43 71.3,43 	"/>
	<g>
		<path class="st0" d="M94.5,39c2.9,0,5.2-2.5,5.2-5.8c0-3.2-2.3-5.6-5.2-5.6s-5.2,2.4-5.2,5.6C89.3,36.5,91.6,39,94.5,39
			 M94.5,23.3c5.9,0,10.2,4.3,10.2,9.9c0,5.7-4.3,10.2-10.2,10.2c-5.9,0-10.2-4.5-10.2-10.2C84.4,27.6,88.7,23.3,94.5,23.3"/>
		<path class="st0" d="M116.1,23.3c5,0,7.5,2.6,7.5,2.6l-2.3,3.6c0,0-2-1.8-4.7-1.8c-4.1,0-5.7,2.6-5.7,5.5c0,3.7,2.6,5.9,5.6,5.9
			c2.3,0,3.9-1.4,3.9-1.4v-1.5h-2.7v-4h6.9v11h-4v-0.5c0-0.4,0-0.8,0-0.8h-0.1c0,0-1.9,1.7-5.1,1.7c-5,0-9.5-3.7-9.5-10.1
			C105.9,27.6,110.2,23.3,116.1,23.3"/>
	</g>
	<path class="st0" d="M130.1,18.3h4.6l-3.2,4.1h-3.6L130.1,18.3z M127.5,23.6h4.8V43h-4.8V23.6z"/>
	<g>
		<path class="st0" d="M137.2,37c0,0,2.2,2,4.6,2c1,0,2-0.4,2-1.5c0-2.3-8.7-2.2-8.7-8.2c0-3.6,3-5.9,6.9-5.9c4.2,0,6.2,2.2,6.2,2.2
			l-2,3.9c0,0-2-1.7-4.3-1.7c-1,0-2.1,0.4-2.1,1.5c0,2.4,8.7,2,8.7,8.1c0,3.2-2.5,6-6.8,6c-4.6,0-7.1-2.8-7.1-2.8L137.2,37z"/>
	</g>
	<polygon class="st0" points="154.9,27.7 149,27.7 149,23.6 165.5,23.6 165.5,27.7 159.6,27.7 159.6,43 154.9,43 	"/>
	<rect x="167.2" y="23.6" class="st0" width="4.8" height="19.4"/>
	<g>
		<path class="st0" d="M184.7,23.3c4.8,0,7.3,2.7,7.3,2.7l-2.2,3.6c0,0-2.2-2-4.9-2c-3.7,0-5.5,2.7-5.5,5.5c0,2.9,1.9,5.8,5.5,5.8
			c2.9,0,5.2-2.4,5.2-2.4l2.4,3.5c0,0-2.7,3.3-7.8,3.3c-6.1,0-10.2-4.3-10.2-10.1C174.5,27.6,178.9,23.3,184.7,23.3"/>
		<path class="st0" d="M203.5,39c2.9,0,5.2-2.5,5.2-5.8c0-3.2-2.3-5.6-5.2-5.6c-2.9,0-5.2,2.4-5.2,5.6C198.2,36.5,200.5,39,203.5,39
			 M203.5,23.3c5.9,0,10.2,4.3,10.2,9.9c0,5.7-4.3,10.2-10.2,10.2c-5.9,0-10.2-4.5-10.2-10.2C193.3,27.6,197.6,23.3,203.5,23.3"/>
		<path class="st0" d="M39.1,52.6h5.2l2.8,8.2c0.4,1.2,1,3.2,1,3.2h0.1c0,0,0.5-2,1-3.2l2.8-8.2h5.2L58.6,72h-4.8l-0.6-8.7
			c-0.1-1.5,0-3.3,0-3.3h-0.1c0,0-0.7,2-1.1,3.3l-2,5.6H46l-2-5.6c-0.4-1.2-1.1-3.3-1.1-3.3h-0.1c0,0,0.1,1.8,0,3.3L42.3,72h-4.8
			L39.1,52.6z"/>
		<path class="st0" d="M61.6,52.6h4.8v12.3c0,2,1.3,3.1,3.4,3.1c2,0,3.4-1.1,3.4-3.1V52.6h4.8v12.3c0,4.4-3.2,7.5-8.1,7.5
			c-4.9,0-8.1-3.1-8.1-7.5V52.6z"/>
	</g>
	<polygon class="st0" points="81.5,52.6 86.2,52.6 86.2,68 94.2,68 94.2,72 81.5,72 	"/>
	<polygon class="st0" points="98.5,56.7 92.6,56.7 92.6,52.6 109.1,52.6 109.1,56.7 103.2,56.7 103.2,72 98.5,72 	"/>
	<rect x="110.8" y="52.6" class="st0" width="4.8" height="19.4"/>
	<g>
		<path class="st0" d="M120.4,52.6h5.2l2.8,8.2c0.4,1.2,1,3.2,1,3.2h0.1c0,0,0.5-2,1-3.2l2.8-8.2h5.2L140,72h-4.8l-0.6-8.7
			c-0.1-1.5,0-3.3,0-3.3h-0.1c0,0-0.7,2-1.1,3.3l-2,5.6h-4.1l-2-5.6c-0.4-1.2-1.1-3.3-1.1-3.3h-0.1c0,0,0.1,1.8,0,3.3l-0.6,8.7h-4.8
			L120.4,52.6z"/>
		<path class="st0" d="M152.1,68c2.9,0,5.2-2.5,5.2-5.8c0-3.2-2.3-5.6-5.2-5.6s-5.2,2.4-5.2,5.6C146.9,65.5,149.2,68,152.1,68
			 M152.1,52.3c5.9,0,10.2,4.3,10.2,9.9c0,5.7-4.3,10.2-10.2,10.2s-10.2-4.5-10.2-10.2C141.9,56.6,146.2,52.3,152.1,52.3"/>
		<path class="st0" d="M171.5,68c3.3,0,5.3-2,5.3-5.7c0-3.7-2.1-5.6-5.3-5.6h-2V68H171.5z M164.8,52.6h6.9c6.1,0,10,3.6,10,9.7
			c0,6.1-3.9,9.7-10,9.7h-6.9V52.6z"/>
		<path class="st0" d="M190.9,57c0,0-0.4,2.1-0.8,3.3l-1.1,3.8h3.8l-1.1-3.8C191.4,59.2,191,57,190.9,57L190.9,57z M194,68h-6.1
			l-1.2,4.1h-4.9l6.6-19.4h5l6.6,19.4h-4.9L194,68z"/>
	</g>
	<polygon class="st0" points="201.6,52.6 206.3,52.6 206.3,68 214.2,68 214.2,72 201.6,72 	"/>
	<rect x="50.3" y="91.1" class="st1" width="0.7" height="11"/>
	<g>
		<path class="st1" d="M54.4,91.1H55l6.3,8.6c0.4,0.5,0.9,1.4,0.9,1.4h0c0,0-0.1-0.8-0.1-1.4v-8.6h0.7v11h-0.6l-6.3-8.6
			C55.5,92.9,55,92,55,92h0c0,0,0.1,0.8,0.1,1.4v8.6h-0.7V91.1z"/>
	</g>
	<polygon class="st1" points="68.7,91.7 64.6,91.7 64.6,91.1 73.5,91.1 73.5,91.7 69.4,91.7 69.4,102.1 68.7,102.1 	"/>
	<polygon class="st1" points="75.3,91.1 81.4,91.1 81.4,91.7 76,91.7 76,96.2 80.4,96.2 80.4,96.8 76,96.8 76,101.4 81.7,101.4 
		81.7,102.1 75.3,102.1 	"/>
	<g>
		<path class="st1" d="M89,90.9c2.5,0,3.8,1.2,3.8,1.2l-0.4,0.5c0,0-1.3-1.1-3.4-1.1c-2.8,0-4.8,2.2-4.8,5c0,2.9,2,5,4.7,5
			c2.4,0,3.8-1.8,3.8-1.8v-2.1h-2V97h2.6v5h-0.7v-1c0-0.2,0-0.5,0-0.5h0c0,0-1.3,1.6-3.8,1.6c-3.1,0-5.4-2.5-5.4-5.7
			C83.5,93.4,85.8,90.9,89,90.9"/>
		<path class="st1" d="M99.8,96.6c1.4,0,2.4-1,2.4-2.5c0-1-0.5-1.8-1.3-2.1c-0.3-0.1-0.7-0.2-1.5-0.2h-2.5v4.9H99.8z M96.1,91.1h3.2
			c1,0,1.5,0.1,2,0.3c0.9,0.5,1.5,1.4,1.5,2.6c0,1.6-0.9,2.8-2.2,3v0c0,0,0.1,0.1,0.3,0.4l2.5,4.6h-0.8l-2.6-4.9h-3.2v4.9h-0.7V91.1
			z"/>
		<path class="st1" d="M108.9,91.8c0,0-0.2,0.8-0.4,1.3l-1.7,4.5h4.2l-1.7-4.5C109.2,92.7,109,91.8,108.9,91.8L108.9,91.8z
			 M111.3,98.3h-4.7l-1.4,3.8h-0.7l4.1-11h0.7l4.1,11h-0.7L111.3,98.3z"/>
		<path class="st1" d="M118.8,101.4c2.9,0,4.9-1.7,4.9-4.9c0-3.1-2-4.9-4.9-4.9h-2.7v9.8H118.8z M115.4,91.1h3.5
			c3.3,0,5.5,2,5.5,5.5c0,3.5-2.2,5.5-5.5,5.5h-3.5V91.1z"/>
		<path class="st1" d="M131.9,101.6c2.7,0,4.9-2.2,4.9-5.1c0-2.8-2.2-5-4.9-5c-2.7,0-4.9,2.2-4.9,5
			C127,99.4,129.2,101.6,131.9,101.6 M131.9,90.9c3.1,0,5.6,2.5,5.6,5.6c0,3.2-2.5,5.8-5.6,5.8s-5.6-2.5-5.6-5.8
			C126.3,93.3,128.8,90.9,131.9,90.9"/>
	</g>
	<rect x="139.1" y="101.1" class="st1" width="1" height="1"/>
	<g>
		<path class="st0" d="M152.2,90.9c2.5,0,3.8,1.2,3.8,1.2l-0.4,0.5c0,0-1.3-1.1-3.4-1.1c-2.8,0-4.8,2.2-4.8,5c0,2.9,2,5,4.7,5
			c2.4,0,3.8-1.8,3.8-1.8v-2.1h-2V97h2.6v5h-0.7v-1c0-0.2,0-0.5,0-0.5h0c0,0-1.3,1.6-3.8,1.6c-3.1,0-5.4-2.5-5.4-5.7
			C146.8,93.4,149.1,90.9,152.2,90.9"/>
	</g>
	<polygon class="st0" points="159.4,91.1 160.1,91.1 160.1,101.4 165.3,101.4 165.3,102.1 159.4,102.1 	"/>
	<g>
		<path class="st0" d="M171.6,101.6c2.7,0,4.9-2.2,4.9-5.1c0-2.8-2.2-5-4.9-5c-2.7,0-4.9,2.2-4.9,5
			C166.7,99.4,168.9,101.6,171.6,101.6 M171.6,90.9c3.1,0,5.6,2.5,5.6,5.6c0,3.2-2.5,5.8-5.6,5.8c-3.1,0-5.6-2.5-5.6-5.8
			C166,93.3,168.5,90.9,171.6,90.9"/>
		<path class="st0" d="M183.6,101.4c1.5,0,2.4-0.9,2.4-2.4s-1-2.4-2.4-2.4h-3.1v4.8H183.6z M183.5,96c1.2,0,2.1-0.8,2.1-2.2
			c0-1.3-0.8-2.1-2.1-2.1h-3V96H183.5z M179.8,91.1h3.7c1.6,0,2.8,1.1,2.8,2.8c0,1.2-0.6,2-1.4,2.4v0c1.1,0.3,1.9,1.4,1.9,2.8
			c0,1.8-1.3,3-3.1,3h-3.9V91.1z"/>
		<path class="st0" d="M192.6,91.8c0,0-0.2,0.8-0.4,1.3l-1.7,4.5h4.2l-1.7-4.5C192.9,92.7,192.6,91.8,192.6,91.8L192.6,91.8z
			 M194.9,98.3h-4.7l-1.4,3.8h-0.7l4.1-11h0.7l4.1,11h-0.7L194.9,98.3z"/>
	</g>
	<polygon class="st0" points="199.1,91.1 199.7,91.1 199.7,101.4 205,101.4 205,102.1 199.1,102.1 	"/>
	<rect x="206.8" y="101.1" class="st0" width="1" height="1"/>
	<g>
		<path class="st0" d="M203.5,10.7c-1.3,0-2.4,1.1-2.4,2.4c0,1.3,1.1,2.4,2.4,2.4c1.3,0,2.4-1.1,2.4-2.4
			C205.9,11.8,204.8,10.7,203.5,10.7 M203.5,16.6c-1.9,0-3.4-1.5-3.4-3.4c0-1.9,1.5-3.4,3.4-3.4c1.9,0,3.4,1.5,3.4,3.4
			C206.9,15,205.4,16.6,203.5,16.6"/>
	</g>
	
		<rect x="211.3" y="36.2" transform="matrix(0.7444 -0.6677 0.6677 0.7444 24.9796 152.5637)" class="st0" width="1" height="14.8"/>
	<g>
		<path class="st0" d="M219.6,48c-1,0-2.1,0.4-2.9,1.1c-0.9,0.8-1.4,1.9-1.5,3c-0.1,1.2,0.3,2.3,1.1,3.2c0.8,0.9,1.9,1.4,3,1.5
			c1.2,0.1,2.3-0.3,3.2-1.1c0.9-0.8,1.4-1.9,1.5-3c0.1-1.2-0.3-2.3-1.1-3.2C222,48.5,220.8,48,219.6,48 M219.6,57.8
			c-0.1,0-0.2,0-0.3,0c-1.4-0.1-2.8-0.7-3.7-1.8c-1-1.1-1.5-2.5-1.4-3.9c0.1-1.4,0.7-2.8,1.8-3.7c2.2-2,5.7-1.8,7.7,0.4
			c1,1.1,1.5,2.5,1.4,3.9c-0.1,1.4-0.7,2.8-1.8,3.7C222.3,57.3,221,57.8,219.6,57.8"/>
	</g>
	<rect x="208.6" y="28.3" transform="matrix(0.869 -0.4948 0.4948 0.869 13.5336 108.7937)" class="st0" width="7.3" height="1"/>
	<rect x="194.8" y="43.4" transform="matrix(0.5372 -0.8435 0.8435 0.5372 54.7821 187.7626)" class="st0" width="7.3" height="1"/>
	<g>
		<path class="st0" d="M217.5,23.9c-0.3,0-0.5,0.1-0.8,0.2c-0.8,0.4-1,1.4-0.6,2.2c0.4,0.8,1.4,1,2.2,0.6c0.8-0.4,1-1.4,0.6-2.2
			C218.6,24.2,218.1,23.9,217.5,23.9 M217.5,28.2c-0.9,0-1.8-0.5-2.3-1.3c-0.7-1.3-0.3-2.9,1-3.6c1.3-0.7,2.9-0.3,3.6,1
			c0.7,1.3,0.3,2.9-1,3.6v0C218.4,28.1,218,28.2,217.5,28.2"/>
		<path class="st0" d="M195.4,47.1c-0.3,0-0.5,0.1-0.8,0.2c-0.4,0.2-0.6,0.6-0.7,1c-0.1,0.4-0.1,0.8,0.2,1.2c0.4,0.8,1.4,1,2.2,0.6
			c0.8-0.4,1-1.4,0.6-2.2c-0.2-0.4-0.6-0.6-1-0.7C195.7,47.1,195.5,47.1,195.4,47.1 M195.4,51.3c-0.9,0-1.8-0.5-2.3-1.3
			c-0.3-0.6-0.4-1.3-0.3-2c0.2-0.7,0.6-1.2,1.2-1.6c0.6-0.3,1.3-0.4,2-0.3s1.2,0.6,1.6,1.2c0.7,1.3,0.3,2.9-1,3.6v0
			C196.3,51.2,195.8,51.3,195.4,51.3"/>
	</g>
	<rect x="203" y="16" class="st0" width="1" height="8.8"/>
	<g>
		<path class="st0" d="M344.2,39.1c0,0,1.4,1.3,3.1,1.3c0.6,0,1.3-0.2,1.3-1c0-1.5-5.7-1.5-5.7-5.4c0-2.4,2-3.9,4.5-3.9
			c2.7,0,4.1,1.4,4.1,1.4l-1.3,2.6c0,0-1.3-1.1-2.8-1.1c-0.6,0-1.4,0.3-1.4,1c0,1.6,5.7,1.3,5.7,5.4c0,2.1-1.6,4-4.5,4
			c-3,0-4.7-1.8-4.7-1.8L344.2,39.1z"/>
	</g>
</g>
</svg>
