<?xml version="1.0" encoding="utf-8"?>
<!-- Generator: Adobe Illustrator 24.1.2, SVG Export Plug-In . SVG Version: 6.00 Build 0)  -->
<svg version="1.1" id="Camada_1" xmlns="http://www.w3.org/2000/svg" xmlns:xlink="http://www.w3.org/1999/xlink" x="0px" y="0px"
	 viewBox="0 0 448.7 134.8" style="enable-background:new 0 0 448.7 134.8;" xml:space="preserve">
<style type="text/css">
	.st0{fill:#A1DAF8;}
	.st1{fill:#9D9D9C;}
	.st2{fill:#2C528B;}
</style>
<g>
	<polygon class="st0" points="15,25.9 15,35.7 6,35.7 6,25.9 0,25.9 0,50.5 6,50.5 6,40.8 15,40.8 15,50.5 21,50.5 21,25.9 	"/>
	<g>
		<path class="st0" d="M25.6,25.9h6v15.6c0,2.6,1.7,4,4.3,4c2.6,0,4.3-1.4,4.3-4V25.9h6v15.6c0,5.5-4.1,9.5-10.3,9.5
			c-6.3,0-10.3-3.9-10.3-9.5V25.9z"/>
		<path class="st0" d="M60.4,45.3c1.8,0,2.6-1.2,2.6-2.6c0-1.4-0.8-2.5-2.6-2.5h-3.6v5.1H60.4z M59.9,35.4c1.5,0,2.2-1.1,2.2-2.3
			c0-1.1-0.7-2.1-2.3-2.1h-3v4.4H59.9z M50.8,25.9h9.1c4.9,0,8.4,2.2,8.4,6.4c0,2.1-1,4.2-2.9,5.2v0.1c2.8,0.9,3.9,3.4,3.9,5.5
			c0,5.4-4.5,7.3-9.4,7.3h-9.1V25.9z"/>
	</g>
	<polygon class="st0" points="79.6,25.9 85.6,25.9 85.6,45.3 95.7,45.3 95.7,50.5 79.6,50.5 	"/>
	<g>
		<path class="st0" d="M109.1,45.4c3.7,0,6.6-3.2,6.6-7.4c0-4-3-7.1-6.6-7.1c-3.7,0-6.6,3-6.6,7.1C102.5,42.2,105.5,45.4,109.1,45.4
			 M109.1,25.4c7.4,0,12.9,5.5,12.9,12.6c0,7.2-5.4,12.9-12.9,12.9c-7.4,0-12.9-5.6-12.9-12.9C96.3,31,101.7,25.4,109.1,25.4"/>
		<path class="st0" d="M136.5,25.4c6.3,0,9.5,3.3,9.5,3.3l-2.9,4.5c0,0-2.5-2.3-6-2.3c-5.2,0-7.3,3.3-7.3,7c0,4.7,3.2,7.5,7.1,7.5
			c2.9,0,5-1.8,5-1.8v-1.9h-3.5v-5.1h8.8v13.9h-5v-0.7c0-0.5,0-1,0-1h-0.1c0,0-2.4,2.1-6.5,2.1c-6.3,0-12.1-4.7-12.1-12.8
			C123.6,31,129,25.4,136.5,25.4"/>
	</g>
	<path class="st0" d="M154.3,19.1h5.9l-4.1,5.2h-4.6L154.3,19.1z M150.9,25.9h6v24.6h-6V25.9z"/>
	<g>
		<path class="st0" d="M163.2,42.8c0,0,2.8,2.5,5.9,2.5c1.2,0,2.6-0.5,2.6-2c0-2.9-11.1-2.8-11.1-10.4c0-4.5,3.8-7.5,8.7-7.5
			c5.3,0,7.9,2.8,7.9,2.8l-2.5,4.9c0,0-2.5-2.2-5.4-2.2c-1.2,0-2.6,0.6-2.6,1.9c0,3.1,11.1,2.5,11.1,10.3c0,4.1-3.1,7.6-8.7,7.6
			c-5.8,0-9-3.5-9-3.5L163.2,42.8z"/>
	</g>
	<polygon class="st0" points="185.7,31 178.2,31 178.2,25.9 199.2,25.9 199.2,31 191.7,31 191.7,50.5 185.7,50.5 	"/>
	<rect x="201.4" y="25.9" class="st0" width="6" height="24.6"/>
	<g>
		<path class="st0" d="M223.5,25.4c6.1,0,9.2,3.5,9.2,3.5l-2.8,4.5c0,0-2.8-2.5-6.2-2.5c-4.7,0-7,3.5-7,7c0,3.6,2.4,7.4,7,7.4
			c3.7,0,6.5-3,6.5-3l3.1,4.4c0,0-3.5,4.1-9.9,4.1c-7.7,0-12.9-5.5-12.9-12.8C210.6,31,216.1,25.4,223.5,25.4"/>
		<path class="st0" d="M247.3,45.4c3.7,0,6.6-3.2,6.6-7.4c0-4-3-7.1-6.6-7.1c-3.7,0-6.6,3-6.6,7.1C240.6,42.2,243.6,45.4,247.3,45.4
			 M247.3,25.4c7.4,0,12.9,5.5,12.9,12.6c0,7.2-5.4,12.9-12.9,12.9c-7.4,0-12.9-5.6-12.9-12.9C234.4,31,239.8,25.4,247.3,25.4"/>
		<path class="st0" d="M38.8,62.6h6.5L48.9,73c0.6,1.6,1.2,4.1,1.2,4.1h0.1c0,0,0.7-2.5,1.2-4.1l3.6-10.4h6.5l2,24.6h-6l-0.8-11.1
			c-0.1-1.9,0-4.1,0-4.1h-0.1c0,0-0.8,2.6-1.4,4.1l-2.6,7.1h-5.2L45,76.2c-0.6-1.5-1.4-4.1-1.4-4.1h-0.1c0,0,0.1,2.3,0,4.1
			l-0.8,11.1h-6.1L38.8,62.6z"/>
		<path class="st0" d="M67.4,62.6h6v15.6c0,2.6,1.7,4,4.3,4s4.3-1.4,4.3-4V62.6h6v15.6c0,5.5-4.1,9.5-10.3,9.5
			c-6.3,0-10.3-3.9-10.3-9.5V62.6z"/>
	</g>
	<polygon class="st0" points="92.6,62.6 98.6,62.6 98.6,82.1 108.7,82.1 108.7,87.2 92.6,87.2 	"/>
	<polygon class="st0" points="114.1,67.8 106.6,67.8 106.6,62.6 127.6,62.6 127.6,67.8 120.1,67.8 120.1,87.2 114.1,87.2 	"/>
	<rect x="129.8" y="62.6" class="st0" width="6" height="24.6"/>
	<g>
		<path class="st0" d="M142,62.6h6.5l3.6,10.4c0.6,1.6,1.2,4.1,1.2,4.1h0.1c0,0,0.7-2.5,1.2-4.1l3.6-10.4h6.5l2,24.6h-6L160,76.2
			c-0.1-1.9,0-4.1,0-4.1h-0.1c0,0-0.8,2.6-1.4,4.1l-2.6,7.1h-5.2l-2.6-7.1c-0.6-1.5-1.4-4.1-1.4-4.1h-0.1c0,0,0.1,2.3,0,4.1
			L146,87.2H140L142,62.6z"/>
		<path class="st0" d="M182.1,82.2c3.7,0,6.6-3.2,6.6-7.4c0-4-3-7.1-6.6-7.1c-3.7,0-6.6,3-6.6,7.1C175.5,79,178.5,82.2,182.1,82.2
			 M182.1,62.2c7.4,0,12.9,5.5,12.9,12.6c0,7.2-5.4,12.9-12.9,12.9c-7.4,0-12.9-5.6-12.9-12.9C169.3,67.7,174.7,62.2,182.1,62.2"/>
		<path class="st0" d="M206.8,82.1c4.2,0,6.7-2.5,6.7-7.2c0-4.7-2.7-7.1-6.7-7.1h-2.5v14.3H206.8z M198.3,62.6h8.7
			c7.7,0,12.7,4.5,12.7,12.3s-5,12.4-12.7,12.4h-8.7V62.6z"/>
		<path class="st0" d="M231.4,68.2c0,0-0.6,2.7-1,4.2l-1.4,4.8h4.9l-1.4-4.8C232,70.9,231.5,68.2,231.4,68.2L231.4,68.2z
			 M235.3,82.1h-7.7l-1.5,5.2h-6.2l8.4-24.6h6.3l8.4,24.6h-6.2L235.3,82.1z"/>
	</g>
	<polygon class="st0" points="244.9,62.6 250.9,62.6 250.9,82.1 261,82.1 261,87.2 244.9,87.2 	"/>
	<rect x="53" y="111.4" class="st1" width="0.9" height="14"/>
	<g>
		<path class="st1" d="M58.2,111.4H59l8,11c0.5,0.6,1.1,1.8,1.1,1.8h0c0,0-0.1-1.1-0.1-1.8v-11h0.9v14h-0.8l-8-11
			c-0.5-0.6-1.1-1.8-1.1-1.8h0c0,0,0.1,1.1,0.1,1.8v11h-0.9V111.4z"/>
	</g>
	<polygon class="st1" points="76.4,112.2 71.2,112.2 71.2,111.4 82.5,111.4 82.5,112.2 77.3,112.2 77.3,125.3 76.4,125.3 	"/>
	<polygon class="st1" points="84.8,111.4 92.4,111.4 92.4,112.2 85.6,112.2 85.6,117.9 91.2,117.9 91.2,118.7 85.6,118.7 
		85.6,124.6 92.8,124.6 92.8,125.3 84.8,125.3 	"/>
	<g>
		<path class="st1" d="M102.1,111.1c3.2,0,4.9,1.6,4.9,1.6l-0.5,0.7c0,0-1.7-1.4-4.3-1.4c-3.5,0-6.1,2.8-6.1,6.4
			c0,3.6,2.5,6.4,5.9,6.4c3,0,4.8-2.3,4.8-2.3v-2.7h-2.5V119h3.4v6.4h-0.9v-1.2c0-0.3,0-0.6,0-0.6h0c0,0-1.7,2.1-4.8,2.1
			c-3.9,0-6.8-3.2-6.8-7.2C95.1,114.3,98.1,111.1,102.1,111.1"/>
		<path class="st1" d="M115.8,118.4c1.8,0,3-1.3,3-3.2c0-1.2-0.6-2.2-1.6-2.7c-0.4-0.2-0.8-0.3-2-0.3H112v6.2H115.8z M111.1,111.4
			h4.1c1.3,0,2,0.1,2.5,0.4c1.2,0.6,1.9,1.8,1.9,3.4c0,2-1.2,3.5-2.8,3.8v0c0,0,0.1,0.2,0.3,0.5l3.1,5.8h-1l-3.3-6.2h-4v6.2h-0.9
			V111.4z"/>
		<path class="st1" d="M127.4,112.4c0,0-0.3,1.1-0.5,1.7l-2.1,5.7h5.3l-2.1-5.7C127.7,113.5,127.4,112.4,127.4,112.4L127.4,112.4z
			 M130.4,120.5h-5.9l-1.8,4.8h-0.9l5.2-14h0.9l5.2,14h-0.9L130.4,120.5z"/>
		<path class="st1" d="M139.9,124.6c3.7,0,6.2-2.2,6.2-6.2c0-4-2.5-6.2-6.2-6.2h-3.4v12.4H139.9z M135.6,111.4h4.4c4.1,0,7,2.6,7,7
			c0,4.4-2.8,7-7,7h-4.4V111.4z"/>
		<path class="st1" d="M156.5,124.8c3.4,0,6.2-2.8,6.2-6.5c0-3.6-2.8-6.3-6.2-6.3c-3.4,0-6.2,2.7-6.2,6.3
			C150.3,121.9,153.1,124.8,156.5,124.8 M156.5,111.1c3.9,0,7.1,3.1,7.1,7.1c0,4.1-3.2,7.3-7.1,7.3c-3.9,0-7.1-3.2-7.1-7.3
			C149.4,114.3,152.6,111.1,156.5,111.1"/>
	</g>
	<rect x="165.7" y="124.1" class="st1" width="1.2" height="1.3"/>
	<g>
		<path class="st0" d="M182.3,111.1c3.2,0,4.9,1.6,4.9,1.6l-0.5,0.7c0,0-1.7-1.4-4.3-1.4c-3.5,0-6.1,2.8-6.1,6.4
			c0,3.6,2.5,6.4,5.9,6.4c3,0,4.8-2.3,4.8-2.3v-2.7h-2.5V119h3.4v6.4H187v-1.2c0-0.3,0-0.6,0-0.6h0c0,0-1.7,2.1-4.8,2.1
			c-3.9,0-6.8-3.2-6.8-7.2C175.4,114.3,178.4,111.1,182.3,111.1"/>
	</g>
	<polygon class="st0" points="191.4,111.4 192.3,111.4 192.3,124.6 198.9,124.6 198.9,125.3 191.4,125.3 	"/>
	<g>
		<path class="st0" d="M206.9,124.8c3.4,0,6.2-2.8,6.2-6.5c0-3.6-2.8-6.3-6.2-6.3c-3.4,0-6.2,2.7-6.2,6.3
			C200.7,121.9,203.5,124.8,206.9,124.8 M206.9,111.1c3.9,0,7.1,3.1,7.1,7.1c0,4.1-3.2,7.3-7.1,7.3c-3.9,0-7.1-3.2-7.1-7.3
			C199.8,114.3,203,111.1,206.9,111.1"/>
		<path class="st0" d="M222.1,124.6c1.9,0,3.1-1.2,3.1-3.1s-1.3-3.1-3.1-3.1h-3.9v6.1H222.1z M222,117.6c1.6,0,2.7-1.1,2.7-2.7
			c0-1.6-1-2.7-2.7-2.7h-3.8v5.4H222z M217.3,111.4h4.7c2,0,3.5,1.4,3.5,3.5c0,1.5-0.7,2.5-1.8,3.1v0c1.4,0.4,2.4,1.7,2.4,3.5
			c0,2.3-1.7,3.8-3.9,3.8h-4.9V111.4z"/>
		<path class="st0" d="M233.5,112.4c0,0-0.3,1.1-0.5,1.7l-2.1,5.7h5.3l-2.1-5.7C233.8,113.5,233.5,112.4,233.5,112.4L233.5,112.4z
			 M236.5,120.5h-5.9l-1.8,4.8h-0.9l5.2-14h0.9l5.2,14h-0.9L236.5,120.5z"/>
	</g>
	<polygon class="st0" points="241.7,111.4 242.6,111.4 242.6,124.6 249.2,124.6 249.2,125.3 241.7,125.3 	"/>
	<rect x="251.5" y="124.1" class="st0" width="1.2" height="1.3"/>
	<g>
		<path class="st2" d="M316.3,63.5h-1.6c-0.4,0-0.4-0.1-0.5-0.5l-0.9-2.9h-5.2l-0.9,2.9c-0.1,0.4-0.2,0.5-0.5,0.5h-1.5
			c-0.2,0-0.3-0.1-0.1-0.7l4.2-13.8c0.1-0.5,0.3-0.7,0.8-0.7h1.7c0.5,0,0.6,0.2,0.8,0.7l4.2,13.8C316.9,63.5,316.7,63.5,316.3,63.5
			 M310.7,51.3l-2,6.9h4L310.7,51.3z"/>
		<path class="st2" d="M326.8,58.6h-6.1c0,2.4,1.2,3.4,3.1,3.4c1.7,0,2.7-0.3,3.1-0.5c0.4-0.1,0.6,0,0.6,0.2v1
			c0,0.4-0.1,0.5-0.7,0.6c-0.3,0.1-1.8,0.4-3.1,0.4c-3.6,0-5.4-1.6-5.4-5.7c0-4,1.7-6,4.8-6c2.9,0,4.6,1.6,4.6,4.4v1.3
			C327.6,58.3,327.5,58.6,326.8,58.6 M323,53.6c-1.7,0-2.3,1.4-2.3,3.1c0,0.3,0,0.4,0.3,0.4h4.2c0.2,0,0.2-0.1,0.2-0.4
			C325.3,54.7,324.7,53.6,323,53.6"/>
		<path class="st2" d="M335.6,53.8c0,0.2-0.1,0.3-0.3,0.3c-0.6,0-1.2,0.1-1.7,0.4c-1,0.6-1.6,1.3-1.6,2v6.2c0,0.5,0,0.8-0.4,0.8
			h-1.3c-0.5,0-0.6-0.2-0.6-0.8V53c0-0.4,0.1-0.6,0.5-0.6h1.3c0.3,0,0.5,0.1,0.5,0.5V54c0.8-1.2,2-1.7,3.3-1.7c0.2,0,0.4,0,0.3,0.2
			L335.6,53.8z"/>
		<path class="st2" d="M341.9,63.8c-3.2,0-5.1-1.3-5.1-5.7c0-4.3,2-5.9,5.2-5.9c3.1,0,4.8,1.7,4.8,5.9
			C346.8,61.7,344.9,63.8,341.9,63.8 M344.4,56.9c0-1.8-0.7-3.2-2.5-3.2c-1.5,0-2.6,1-2.6,3.3v2c0,2.3,1.2,3.2,2.6,3.2
			c1.6,0,2.5-1.4,2.5-3.4V56.9z"/>
		<path class="st2" d="M354.6,63.8c-1.6,0-2.6-0.5-3.4-1.4v4.8c0,0.5-0.1,0.7-0.4,0.7h-1.4c-0.5,0-0.6-0.2-0.6-0.7v-14
			c0-0.5,0-0.7,0.5-0.7h1.3c0.3,0,0.5,0.2,0.5,0.6v0.8c0.8-1.1,2-1.6,3.5-1.6c2.3,0,3.6,2.3,3.6,5.8
			C358.3,62.2,356.7,63.8,354.6,63.8 M355.9,57.2c0-2.1-0.8-3.5-2.2-3.5c-1.6,0-2.3,1.5-2.3,2.6v4c0,0.6,0.8,1.9,2.2,1.9
			c1.5,0,2.2-1.2,2.2-3.3V57.2z"/>
		<path class="st2" d="M365.2,63.8c-3.2,0-5.1-1.3-5.1-5.7c0-4.3,2-5.9,5.2-5.9c3.1,0,4.8,1.7,4.8,5.9
			C370.1,61.7,368.3,63.8,365.2,63.8 M367.7,56.9c0-1.8-0.7-3.2-2.5-3.2c-1.5,0-2.6,1-2.6,3.3v2c0,2.3,1.2,3.2,2.7,3.2
			c1.6,0,2.5-1.4,2.5-3.4V56.9z"/>
		<path class="st2" d="M378.1,53.8c0,0.2-0.1,0.3-0.3,0.3c-0.6,0-1.2,0.1-1.7,0.4c-0.9,0.6-1.6,1.3-1.6,2v6.2c0,0.5,0,0.8-0.4,0.8
			h-1.3c-0.5,0-0.6-0.2-0.6-0.8V53c0-0.4,0.1-0.6,0.5-0.6h1.3c0.3,0,0.5,0.1,0.5,0.5V54c0.8-1.2,2-1.7,3.3-1.7c0.2,0,0.4,0,0.3,0.2
			L378.1,53.8z"/>
		<path class="st2" d="M384.7,54.3h-1.9V61c0,0.7,0.3,1.1,0.9,1.1c0.4,0,0.6,0,1-0.1c0.2,0,0.4,1.5,0.2,1.6
			c-0.3,0.1-1.2,0.2-1.9,0.2c-2,0-2.6-1.3-2.6-2.7v-6.8h-1c-0.3,0-0.3-0.2-0.3-0.4V53c0-0.3,0.1-0.4,0.5-0.4h1v-2.1
			c0-0.4,0.3-0.5,0.6-0.5l1.1-0.2c0.4-0.1,0.6,0.1,0.6,0.5v2.3h2c0.4,0,0.5,0.2,0.5,0.5v0.8C385.2,54.1,385.1,54.3,384.7,54.3"/>
		<path class="st2" d="M391.7,63.8c-3.2,0-5.1-1.3-5.1-5.7c0-4.3,2.1-5.9,5.2-5.9c3.1,0,4.8,1.7,4.8,5.9
			C396.6,61.7,394.8,63.8,391.7,63.8 M394.3,56.9c0-1.8-0.7-3.2-2.5-3.2c-1.5,0-2.6,1-2.6,3.3v2c0,2.3,1.2,3.2,2.6,3.2
			c1.6,0,2.5-1.4,2.5-3.4V56.9z"/>
		<path class="st2" d="M307.1,83.4h-1.6c-0.4,0-0.5-0.1-0.5-0.6V68.7c0-0.4,0.1-0.5,0.6-0.5h1.5c0.4,0,0.4,0.1,0.4,0.6v14.1
			C307.5,83.3,307.4,83.4,307.1,83.4"/>
		<path class="st2" d="M318.6,83.4h-1.3c-0.3,0-0.5-0.2-0.5-0.7v-6.6c0-1.1-0.5-2-2-2c-1.6,0-2.3,1.3-2.3,2.4v6.2
			c0,0.5,0,0.8-0.4,0.8h-1.3c-0.5,0-0.6-0.2-0.6-0.8v-9.7c0-0.4,0.1-0.6,0.5-0.6h1.3c0.4,0,0.5,0.4,0.5,1.3c0.7-1,1.7-1.6,3.3-1.6
			c1.8,0,3.3,0.9,3.3,3.6v6.9C319.1,83.1,319,83.4,318.6,83.4"/>
		<path class="st2" d="M326.7,74.1h-1.9v6.7c0,0.7,0.3,1.1,0.9,1.1c0.4,0,0.6,0,1-0.1c0.2,0,0.4,1.5,0.2,1.6
			c-0.3,0.1-1.2,0.2-1.9,0.2c-2,0-2.6-1.3-2.6-2.7v-6.8h-1c-0.3,0-0.3-0.2-0.3-0.4v-0.8c0-0.3,0.1-0.4,0.5-0.4h1v-2.1
			c0-0.4,0.2-0.5,0.6-0.5l1.1-0.2c0.4-0.1,0.6,0.1,0.6,0.5v2.3h2c0.4,0,0.5,0.2,0.5,0.5v0.8C327.2,74,327.1,74.1,326.7,74.1"/>
		<path class="st2" d="M337.1,78.5H331c0,2.4,1.2,3.4,3.1,3.4c1.7,0,2.7-0.3,3.1-0.5c0.4-0.1,0.6,0,0.6,0.2v1c0,0.4-0.1,0.5-0.7,0.6
			c-0.3,0.1-1.8,0.4-3.1,0.4c-3.6,0-5.4-1.6-5.4-5.7c0-4,1.7-6,4.8-6c2.9,0,4.6,1.6,4.6,4.4v1.3C338,78.2,337.9,78.5,337.1,78.5
			 M333.4,73.4c-1.7,0-2.3,1.4-2.3,3.1c0,0.3,0,0.4,0.3,0.4h4.2c0.2,0,0.2-0.1,0.2-0.4C335.7,74.5,335.1,73.4,333.4,73.4"/>
		<path class="st2" d="M346,73.6c0,0.2-0.1,0.3-0.3,0.3c-0.6,0-1.2,0.1-1.7,0.4c-1,0.6-1.6,1.3-1.6,2v6.2c0,0.5,0,0.8-0.4,0.8h-1.3
			c-0.5,0-0.6-0.2-0.6-0.8v-9.7c0-0.4,0.1-0.6,0.5-0.6h1.3c0.3,0,0.5,0.1,0.5,0.5v1.1c0.8-1.2,2-1.7,3.3-1.7c0.2,0,0.3,0,0.3,0.2
			L346,73.6z"/>
		<path class="st2" d="M355.9,83.4h-1.3c-0.4,0-0.5-0.2-0.5-0.7v-6.6c0-1.1-0.5-2-1.9-2c-1.6,0-2.3,1.3-2.3,2.4v6.2
			c0,0.5,0,0.8-0.4,0.8H348c-0.5,0-0.6-0.2-0.6-0.8v-9.7c0-0.4,0.1-0.6,0.5-0.6h1.3c0.4,0,0.5,0.4,0.5,1.3c0.7-1,1.7-1.6,3.3-1.6
			c1.8,0,3.3,0.9,3.3,3.6v6.9C356.3,83.1,356.3,83.4,355.9,83.4"/>
		<path class="st2" d="M367.3,83.4H366c-0.3,0-0.5-0.1-0.5-0.6v-0.9c-0.4,0.9-1.8,1.7-3.4,1.7c-2,0-3.7-1.6-3.7-5.7
			c0-3.6,1.3-5.9,3.7-5.9c1.8,0,2.8,0.7,3.4,1.7v-0.9c0-0.3,0.1-0.5,0.4-0.5h1.3c0.6,0,0.6,0.2,0.6,0.6v9.7
			C367.8,83.1,367.8,83.4,367.3,83.4 M365.4,76.2c0-0.9-0.6-2.6-2.3-2.6c-1.4,0-2.2,1-2.2,3.4v1.7c0,2,0.7,3.3,2.2,3.3
			c1.4,0,2.2-1.5,2.2-2.1V76.2z"/>
		<path class="st2" d="M375,83.6c-3.2,0-5.1-1.3-5.1-5.7c0-4.3,2.1-5.9,5.2-5.9c1.8,0,3,0.5,3.8,1.6c0.3,0.4-1.5,1.6-1.7,1.2
			c-0.4-0.7-1.1-1.2-2.1-1.2c-1.5,0-2.6,1-2.6,3.3v2c0,2.3,1.2,3.2,2.6,3.2c0.9,0,1.7-0.6,2.1-1.3c0.2-0.4,1.9,0.4,1.7,0.7
			C378.2,82.8,376.9,83.6,375,83.6"/>
		<path class="st2" d="M382.5,70.3h-1.4c-0.4,0-0.5-0.1-0.5-0.7v-0.7c0-0.5,0.1-0.6,0.6-0.6h1.3c0.5,0,0.4,0.2,0.4,0.7v0.7
			C382.9,70.1,382.8,70.3,382.5,70.3 M382.5,83.4H381c-0.4,0-0.4-0.2-0.4-0.7v-9.8c0-0.4,0.1-0.6,0.5-0.6h1.3c0.5,0,0.5,0.2,0.5,0.6
			v9.8C382.9,83.2,382.9,83.4,382.5,83.4"/>
		<path class="st2" d="M390.1,83.6c-3.2,0-5.1-1.3-5.1-5.7c0-4.3,2-5.9,5.2-5.9c3.1,0,4.8,1.7,4.8,5.9
			C395,81.6,393.1,83.6,390.1,83.6 M392.6,76.7c0-1.8-0.7-3.2-2.5-3.2c-1.5,0-2.6,1-2.6,3.3v2c0,2.3,1.2,3.2,2.7,3.2
			c1.6,0,2.5-1.4,2.5-3.4V76.7z"/>
		<path class="st2" d="M405.5,83.4h-1.3c-0.3,0-0.5-0.2-0.5-0.7v-6.6c0-1.1-0.5-2-1.9-2c-1.6,0-2.3,1.3-2.3,2.4v6.2
			c0,0.5,0,0.8-0.4,0.8h-1.3c-0.5,0-0.6-0.2-0.6-0.8v-9.7c0-0.4,0.1-0.6,0.5-0.6h1.3c0.4,0,0.5,0.4,0.5,1.3c0.7-1,1.7-1.6,3.3-1.6
			c1.8,0,3.3,0.9,3.3,3.6v6.9C406,83.1,405.9,83.4,405.5,83.4"/>
		<path class="st2" d="M417,83.4h-1.3c-0.3,0-0.5-0.1-0.5-0.6v-0.9c-0.4,0.9-1.8,1.7-3.4,1.7c-2,0-3.7-1.6-3.7-5.7
			c0-3.6,1.3-5.9,3.7-5.9c1.8,0,2.8,0.7,3.4,1.7v-0.9c0-0.3,0.1-0.5,0.4-0.5h1.3c0.6,0,0.6,0.2,0.6,0.6v9.7
			C417.5,83.1,417.4,83.4,417,83.4 M415,76.2c0-0.9-0.6-2.6-2.3-2.6c-1.4,0-2.2,1-2.2,3.4v1.7c0,2,0.7,3.3,2.2,3.3
			c1.4,0,2.2-1.5,2.2-2.1V76.2z"/>
		<path class="st2" d="M421.8,83.4h-1.4c-0.4,0-0.5-0.1-0.5-0.7V68.6c0-0.4,0.1-0.6,0.5-0.6h1.3c0.5,0,0.5,0.2,0.5,0.6v14
			C422.2,83.2,422.2,83.4,421.8,83.4"/>
		<path class="st2" d="M436.7,83.4h-1.3c-0.3,0-0.5,0-0.5-0.6v-0.6c-0.8,1-1.8,1.4-3.4,1.4c-2,0-3.6-1.6-3.6-5.7
			c0-3.6,1.3-5.9,3.7-5.9c1.6,0,2.6,0.5,3.4,1.6v-4.9c0-0.4,0.1-0.7,0.4-0.7h1.3c0.6,0,0.6,0.2,0.6,0.6v14
			C437.2,83.1,437.2,83.4,436.7,83.4 M434.7,76.1c0-1.1-0.6-2.5-2.3-2.5c-1.4,0-2.2,1.4-2.2,3.4v1.7c0,2,0.8,3.3,2.2,3.3
			c1.4,0,2.2-1.3,2.2-1.9V76.1z"/>
		<path class="st2" d="M447.8,78.5h-6.1c0,2.4,1.2,3.4,3.1,3.4c1.7,0,2.7-0.3,3.1-0.5c0.4-0.1,0.6,0,0.6,0.2v1
			c0,0.4-0.1,0.5-0.7,0.6c-0.3,0.1-1.8,0.4-3.1,0.4c-3.6,0-5.4-1.6-5.4-5.7c0-4,1.7-6,4.8-6c2.9,0,4.6,1.6,4.6,4.4v1.3
			C448.7,78.2,448.6,78.5,447.8,78.5 M444.1,73.5c-1.7,0-2.3,1.4-2.3,3.1c0,0.3,0,0.4,0.3,0.4h4.2c0.2,0,0.2-0.1,0.2-0.4
			C446.4,74.6,445.8,73.5,444.1,73.5"/>
		<path class="st2" d="M310.1,103.3h-4.6c-0.4,0-0.4-0.2-0.4-0.5V88.9c0-0.5,0-0.7,0.4-0.7h4c3.5,0,5.5,1,5.5,3.8
			c0,1.9-1,3.1-2.4,3.6c1.5,0.5,2.6,1.4,2.6,3.7C315.2,101.8,313.7,103.3,310.1,103.3 M309.4,89.9h-1.6c-0.3,0-0.4,0.2-0.4,0.4v4
			c0,0.3,0.1,0.4,0.4,0.4h1.7c2.2,0,3-0.7,3-2.4C312.5,90.5,311.4,89.9,309.4,89.9 M309.5,96.6h-1.7c-0.3,0-0.4,0.1-0.4,0.4v4.2
			c0,0.2,0.1,0.4,0.4,0.4h1.6c2.2,0,3.3-0.5,3.3-2.4C312.8,97.5,311.5,96.6,309.5,96.6"/>
		<path class="st2" d="M325.7,98.5h-6.1c0,2.4,1.2,3.4,3.1,3.4c1.7,0,2.7-0.3,3.1-0.5c0.4-0.1,0.6,0,0.6,0.2v1
			c0,0.4-0.1,0.5-0.7,0.6c-0.3,0.1-1.8,0.3-3.1,0.3c-3.6,0-5.4-1.6-5.4-5.7c0-4,1.7-6,4.8-6c2.9,0,4.6,1.6,4.6,4.4v1.3
			C326.5,98.2,326.4,98.5,325.7,98.5 M321.9,93.4c-1.7,0-2.3,1.4-2.3,3.1c0,0.3,0,0.4,0.3,0.4h4.2c0.2,0,0.2-0.1,0.2-0.4
			C324.2,94.5,323.6,93.4,321.9,93.4"/>
		<path class="st2" d="M330.5,103.3h-1.4c-0.4,0-0.5-0.1-0.5-0.7V88.5c0-0.4,0.1-0.6,0.5-0.6h1.3c0.5,0,0.5,0.2,0.5,0.6v14
			C330.9,103.2,330.9,103.3,330.5,103.3"/>
		<path class="st2" d="M338.1,103.6c-3.2,0-5.1-1.3-5.1-5.7c0-4.3,2.1-5.9,5.2-5.9c3.1,0,4.8,1.7,4.8,5.9
			C343,101.5,341.2,103.6,338.1,103.6 M340.7,96.7c0-1.8-0.7-3.2-2.5-3.2c-1.5,0-2.6,1-2.6,3.3v2c0,2.2,1.2,3.2,2.7,3.2
			c1.6,0,2.5-1.4,2.5-3.4V96.7z"/>
		<path class="st2" d="M360.5,103.3h-1.6c-0.3,0-0.5-0.2-0.5-0.6v-5.9c0-0.4-0.1-0.4-0.4-0.4h-5.4c-0.2,0-0.3,0-0.3,0.4v5.9
			c0,0.5-0.1,0.7-0.6,0.7h-1.4c-0.4,0-0.4-0.2-0.4-0.8V88.7c0-0.4,0.1-0.5,0.5-0.5h1.5c0.5,0,0.6,0.1,0.6,0.7v5.2
			c0,0.3,0.1,0.4,0.5,0.4h5.3c0.2,0,0.4-0.1,0.4-0.4v-5.4c0-0.4,0.1-0.6,0.6-0.6h1.4c0.5,0,0.5,0.2,0.5,0.5v14
			C361,103.2,360.9,103.3,360.5,103.3"/>
		<path class="st2" d="M368.4,103.6c-3.2,0-5.1-1.3-5.1-5.7c0-4.3,2-5.9,5.2-5.9c3.1,0,4.8,1.7,4.8,5.9
			C373.4,101.5,371.5,103.6,368.4,103.6 M371,96.7c0-1.8-0.7-3.2-2.5-3.2c-1.5,0-2.6,1-2.6,3.3v2c0,2.2,1.2,3.2,2.7,3.2
			c1.6,0,2.5-1.4,2.5-3.4V96.7z"/>
		<path class="st2" d="M381.3,93.6c0,0.2-0.1,0.3-0.3,0.3c-0.6,0-1.2,0.1-1.7,0.4c-0.9,0.6-1.6,1.3-1.6,2v6.2c0,0.5,0,0.8-0.4,0.8
			h-1.3c-0.5,0-0.6-0.2-0.6-0.8v-9.7c0-0.4,0.1-0.6,0.5-0.6h1.3c0.3,0,0.5,0.1,0.5,0.5v1.1c0.8-1.2,2-1.7,3.3-1.7
			c0.2,0,0.4,0,0.3,0.2L381.3,93.6z"/>
		<path class="st2" d="M384.7,90.2h-1.4c-0.4,0-0.5-0.1-0.5-0.7v-0.7c0-0.5,0.1-0.6,0.6-0.6h1.3c0.5,0,0.4,0.2,0.4,0.7v0.7
			C385.1,90.1,385,90.2,384.7,90.2 M384.7,103.3h-1.5c-0.4,0-0.4-0.2-0.4-0.7v-9.8c0-0.4,0.1-0.6,0.5-0.6h1.3c0.5,0,0.5,0.2,0.5,0.6
			v9.8C385.1,103.2,385.1,103.3,384.7,103.3"/>
		<path class="st2" d="M394.8,103.3h-7.3c-1,0-0.9-0.4-0.6-1l5.1-8.6h-4.6c-0.4,0-0.5,0-0.5-0.4v-0.7c0-0.4,0.1-0.4,0.4-0.4h7.1
			c0.7,0,0.9,0.2,0.6,0.7l-5.3,8.8h5c0.4,0,0.5,0,0.5,0.5v0.7C395.3,103.3,395.2,103.3,394.8,103.3"/>
		<path class="st2" d="M401.8,103.6c-3.2,0-5.1-1.3-5.1-5.7c0-4.3,2-5.9,5.2-5.9c3.1,0,4.8,1.7,4.8,5.9
			C406.7,101.5,404.9,103.6,401.8,103.6 M404.4,96.7c0-1.8-0.7-3.2-2.5-3.2c-1.5,0-2.6,1-2.6,3.3v2c0,2.2,1.2,3.2,2.7,3.2
			c1.6,0,2.5-1.4,2.5-3.4V96.7z"/>
		<path class="st2" d="M417.3,103.3h-1.3c-0.4,0-0.5-0.2-0.5-0.7V96c0-1.1-0.5-2-1.9-2c-1.6,0-2.3,1.3-2.3,2.4v6.2
			c0,0.5,0,0.8-0.4,0.8h-1.3c-0.5,0-0.6-0.2-0.6-0.8v-9.7c0-0.4,0.1-0.6,0.5-0.6h1.3c0.4,0,0.5,0.4,0.5,1.3c0.7-1,1.7-1.6,3.3-1.6
			c1.8,0,3.3,0.9,3.3,3.6v6.9C417.7,103.1,417.6,103.3,417.3,103.3"/>
		<path class="st2" d="M425.3,94.1h-1.9v6.7c0,0.7,0.3,1.1,0.9,1.1c0.4,0,0.6,0,1-0.1c0.2,0,0.4,1.5,0.2,1.6
			c-0.3,0.1-1.2,0.3-1.9,0.3c-2,0-2.6-1.3-2.6-2.7v-6.8h-1c-0.3,0-0.3-0.2-0.3-0.4v-0.8c0-0.3,0.1-0.4,0.5-0.4h1v-2.1
			c0-0.4,0.2-0.5,0.6-0.5l1.1-0.2c0.4-0.1,0.6,0.1,0.6,0.5v2.3h2c0.4,0,0.5,0.2,0.5,0.5v0.8C425.8,93.9,425.7,94.1,425.3,94.1"/>
		<path class="st2" d="M435.8,98.5h-6.1c0,2.4,1.2,3.4,3.1,3.4c1.7,0,2.7-0.3,3.1-0.5c0.4-0.1,0.6,0,0.6,0.2v1
			c0,0.4-0.1,0.5-0.7,0.6c-0.3,0.1-1.8,0.3-3.1,0.3c-3.6,0-5.4-1.6-5.4-5.7c0-4,1.7-6,4.8-6c2.9,0,4.6,1.6,4.6,4.4v1.3
			C436.6,98.2,436.5,98.5,435.8,98.5 M432,93.4c-1.7,0-2.3,1.4-2.3,3.1c0,0.3,0,0.4,0.3,0.4h4.2c0.2,0,0.2-0.1,0.2-0.4
			C434.3,94.5,433.7,93.4,432,93.4"/>
	</g>
	<rect x="281.5" class="st1" width="0.3" height="134.8"/>
	<g>
		<path class="st0" d="M247.3,9.5c-1.7,0-3,1.4-3,3s1.4,3,3,3c1.7,0,3-1.4,3-3S249,9.5,247.3,9.5 M247.3,16.9c-2.4,0-4.4-2-4.4-4.4
			c0-2.4,2-4.4,4.4-4.4c2.4,0,4.4,2,4.4,4.4C251.7,15,249.7,16.9,247.3,16.9"/>
	</g>
	
		<rect x="257.2" y="41.9" transform="matrix(0.7444 -0.6677 0.6677 0.7444 31.6714 185.2665)" class="st0" width="1.3" height="18.8"/>
	<g>
		<path class="st0" d="M267.8,56.8c-1.3,0-2.7,0.5-3.7,1.4c-1.1,1-1.8,2.4-1.8,3.8c-0.1,1.5,0.4,2.9,1.4,4c1,1.1,2.4,1.8,3.8,1.8
			c1.5,0.1,2.9-0.4,4-1.4c1.1-1,1.8-2.4,1.8-3.8c0.1-1.5-0.4-2.9-1.4-4C270.9,57.4,269.3,56.8,267.8,56.8 M267.8,69.2
			c-0.1,0-0.3,0-0.4,0c-1.8-0.1-3.5-0.9-4.8-2.3c-1.2-1.4-1.8-3.1-1.7-5c0.1-1.8,0.9-3.5,2.3-4.8c2.8-2.5,7.2-2.3,9.7,0.5
			c1.2,1.4,1.8,3.1,1.7,5c-0.1,1.8-0.9,3.5-2.3,4.8C271.1,68.6,269.5,69.2,267.8,69.2"/>
	</g>
	<rect x="253.8" y="31.8" transform="matrix(0.869 -0.4948 0.4948 0.869 17.7884 132.1299)" class="st0" width="9.2" height="1.3"/>
	<rect x="236.4" y="51" transform="matrix(0.537 -0.8436 0.8436 0.537 68.01 227.2169)" class="st0" width="9.2" height="1.3"/>
	<g>
		<path class="st0" d="M265.1,26.3c-0.3,0-0.7,0.1-1,0.3c-1,0.6-1.3,1.8-0.8,2.8c0.6,1,1.8,1.3,2.8,0.8c1-0.6,1.3-1.8,0.8-2.8
			C266.5,26.6,265.8,26.3,265.1,26.3 M265.1,31.6c-1.2,0-2.3-0.6-2.9-1.7c-0.9-1.6-0.4-3.6,1.3-4.6c1.6-0.9,3.6-0.4,4.6,1.3
			c0.9,1.6,0.4,3.6-1.3,4.6v0C266.3,31.5,265.7,31.6,265.1,31.6"/>
		<path class="st0" d="M237,55.6c-0.3,0-0.7,0.1-1,0.3c-0.5,0.3-0.8,0.7-0.9,1.2c-0.1,0.5-0.1,1.1,0.2,1.5c0.6,1,1.8,1.3,2.8,0.8
			c1-0.6,1.3-1.8,0.8-2.8c-0.3-0.5-0.7-0.8-1.2-0.9C237.4,55.6,237.2,55.6,237,55.6 M237.1,61c-1.2,0-2.3-0.6-2.9-1.7
			c-0.4-0.8-0.6-1.7-0.3-2.5c0.2-0.9,0.8-1.6,1.6-2c0.8-0.4,1.7-0.6,2.5-0.3c0.9,0.2,1.6,0.8,2,1.6c0.9,1.6,0.4,3.6-1.3,4.6
			C238.2,60.8,237.6,61,237.1,61"/>
	</g>
	<rect x="246.7" y="16.2" class="st0" width="1.3" height="11.2"/>
</g>
</svg>
