<?xml version="1.0" encoding="utf-8"?>
<!-- Generator: Adobe Illustrator 24.1.2, SVG Export Plug-In . SVG Version: 6.00 Build 0)  -->
<svg version="1.1" id="Camada_1" xmlns="http://www.w3.org/2000/svg" xmlns:xlink="http://www.w3.org/1999/xlink" x="0px" y="0px"
	 viewBox="0 0 369 129" style="enable-background:new 0 0 369 129;" xml:space="preserve">
<style type="text/css">
	.st0{fill:#A1DAF8;}
	.st1{fill:#FFFFFF;}
</style>
<g>
	<g>
		<path class="st0" d="M259.1,20c0,0-0.3,1.4-0.5,2.2l-0.7,2.5h2.5l-0.7-2.5C259.5,21.4,259.2,20,259.1,20L259.1,20z M261.1,27.2h-4
			l-0.8,2.7h-3.2l4.3-12.8h3.3l4.3,12.8h-3.2L261.1,27.2z"/>
	</g>
	<polygon class="st0" points="266.1,17.1 274.1,17.1 274.1,19.8 269.2,19.8 269.2,22.1 273.1,22.1 273.1,24.8 269.2,24.8 
		269.2,27.2 274.4,27.2 274.4,29.9 266.1,29.9 	"/>
	<g>
		<path class="st0" d="M280.6,22.9c1,0,1.6-0.6,1.6-1.6c0-1-0.4-1.5-1.9-1.5h-1.1v3.1H280.6z M276.2,17.1h4.4c1.3,0,1.9,0.1,2.5,0.3
			c1.4,0.6,2.4,1.9,2.4,3.7c0,1.4-0.6,2.8-1.9,3.5v0c0,0,0.2,0.2,0.5,0.8l2.5,4.5H283l-2.3-4.3h-1.5v4.3h-3.1V17.1z"/>
		<path class="st0" d="M293.6,27.2c1.9,0,3.4-1.6,3.4-3.8c0-2.1-1.5-3.7-3.4-3.7c-1.9,0-3.4,1.6-3.4,3.7
			C290.2,25.6,291.7,27.2,293.6,27.2 M293.6,16.9c3.9,0,6.7,2.9,6.7,6.5c0,3.7-2.8,6.7-6.7,6.7c-3.9,0-6.7-2.9-6.7-6.7
			C287,19.7,289.8,16.9,293.6,16.9"/>
		<path class="st0" d="M306.7,23.2c1.1,0,1.6-0.7,1.6-1.7c0-1-0.5-1.7-1.6-1.7h-1.6v3.5H306.7z M302,17.1h5.3c2.5,0,4.2,1.8,4.2,4.4
			c0,2.6-1.7,4.4-4.2,4.4h-2.2v3.9H302V17.1z"/>
		<path class="st0" d="M318.7,27.2c1.9,0,3.4-1.6,3.4-3.8c0-2.1-1.5-3.7-3.4-3.7c-1.9,0-3.4,1.6-3.4,3.7
			C315.2,25.6,316.8,27.2,318.7,27.2 M318.7,16.9c3.9,0,6.7,2.9,6.7,6.5c0,3.7-2.8,6.7-6.7,6.7c-3.9,0-6.7-2.9-6.7-6.7
			C312,19.7,314.8,16.9,318.7,16.9"/>
		<path class="st0" d="M331.5,22.9c1,0,1.6-0.6,1.6-1.6c0-1-0.4-1.5-1.9-1.5h-1.1v3.1H331.5z M327,17.1h4.4c1.3,0,1.9,0.1,2.5,0.3
			c1.4,0.6,2.4,1.9,2.4,3.7c0,1.4-0.6,2.8-1.9,3.5v0c0,0,0.2,0.2,0.5,0.8l2.5,4.5h-3.5l-2.3-4.3h-1.5v4.3H327V17.1z"/>
	</g>
	<polygon class="st0" points="341.2,19.8 337.4,19.8 337.4,17.1 348.2,17.1 348.2,19.8 344.4,19.8 344.4,29.9 341.2,29.9 	"/>
	<g>
		<path class="st0" d="M355.2,27.2c1.9,0,3.4-1.6,3.4-3.8c0-2.1-1.5-3.7-3.4-3.7c-1.9,0-3.4,1.6-3.4,3.7
			C351.7,25.6,353.3,27.2,355.2,27.2 M355.2,16.9c3.9,0,6.7,2.9,6.7,6.5c0,3.7-2.8,6.7-6.7,6.7c-3.9,0-6.7-2.9-6.7-6.7
			C348.5,19.7,351.3,16.9,355.2,16.9"/>
	</g>
	<rect x="254.7" y="36.3" class="st0" width="3.1" height="12.8"/>
	<g>
		<path class="st0" d="M260.4,36.3h3.2l3.5,6c0.5,0.8,1.1,2.2,1.1,2.2h0c0,0-0.1-1.4-0.1-2.2v-6h3.1V49h-3.1l-3.6-5.9
			c-0.5-0.8-1.1-2.2-1.1-2.2h0c0,0,0.1,1.4,0.1,2.2V49h-3.1V36.3z"/>
		<path class="st0" d="M278.2,46.4c2.2,0,3.5-1.3,3.5-3.7c0-2.4-1.4-3.7-3.5-3.7h-1.3v7.4H278.2z M273.7,36.3h4.5
			c4,0,6.6,2.3,6.6,6.4c0,4-2.6,6.4-6.6,6.4h-4.5V36.3z"/>
		<path class="st0" d="M286.4,36.3h3.1v8.1c0,1.3,0.9,2.1,2.2,2.1c1.3,0,2.2-0.7,2.2-2.1v-8.1h3.1v8.1c0,2.9-2.1,4.9-5.3,4.9
			c-3.2,0-5.4-2-5.4-4.9V36.3z"/>
		<path class="st0" d="M300.2,45.1c0,0,1.4,1.3,3.1,1.3c0.6,0,1.3-0.2,1.3-1c0-1.5-5.7-1.5-5.7-5.4c0-2.4,2-3.9,4.5-3.9
			c2.7,0,4.1,1.4,4.1,1.4l-1.3,2.6c0,0-1.3-1.1-2.8-1.1c-0.6,0-1.4,0.3-1.4,1c0,1.6,5.7,1.3,5.7,5.4c0,2.1-1.6,4-4.5,4
			c-3,0-4.7-1.8-4.7-1.8L300.2,45.1z"/>
	</g>
	<polygon class="st0" points="311.8,38.9 308,38.9 308,36.3 318.8,36.3 318.8,38.9 315,38.9 315,49 311.8,49 	"/>
	<g>
		<path class="st0" d="M324.4,42.1c1,0,1.6-0.6,1.6-1.6c0-1-0.4-1.5-1.9-1.5h-1.1v3.1H324.4z M320,36.3h4.4c1.3,0,1.9,0.1,2.5,0.3
			c1.4,0.6,2.4,1.9,2.4,3.7c0,1.4-0.6,2.8-1.9,3.5v0c0,0,0.2,0.2,0.5,0.8l2.5,4.5h-3.5l-2.3-4.3h-1.5V49H320V36.3z"/>
	</g>
	<rect x="331.7" y="36.3" class="st0" width="3.1" height="12.8"/>
	<g>
		<path class="st0" d="M341.7,39.2c0,0-0.3,1.4-0.5,2.2l-0.7,2.5h2.5l-0.7-2.5C342.1,40.6,341.8,39.2,341.7,39.2L341.7,39.2z
			 M343.7,46.4h-4L339,49h-3.2l4.3-12.8h3.3l4.3,12.8h-3.2L343.7,46.4z"/>
	</g>
	<polygon class="st0" points="348.7,36.3 351.8,36.3 351.8,46.4 357.1,46.4 357.1,49 348.7,49 	"/>
	<g>
		<path class="st1" d="M261.4,84.6h-1.1c-0.3,0-0.2-0.1-0.3-0.4l-0.6-2h-3.5l-0.6,2c-0.1,0.3-0.1,0.4-0.4,0.4h-1
			c-0.2,0-0.2,0-0.1-0.5l2.8-9.3c0.1-0.3,0.2-0.4,0.5-0.4h1.1c0.3,0,0.4,0.1,0.5,0.4l2.8,9.3C261.8,84.6,261.7,84.6,261.4,84.6
			 M257.6,76.4l-1.4,4.7h2.7L257.6,76.4z"/>
		<path class="st1" d="M268.4,81.3h-4.1c0,1.6,0.8,2.3,2.1,2.3c1.1,0,1.8-0.2,2.1-0.3c0.3-0.1,0.4,0,0.4,0.1v0.7
			c0,0.3-0.1,0.3-0.5,0.4c-0.2,0.1-1.2,0.2-2.1,0.2c-2.4,0-3.6-1.1-3.6-3.8c0-2.7,1.1-4,3.2-4c1.9,0,3.1,1.1,3.1,2.9v0.9
			C269,81.1,269,81.3,268.4,81.3 M265.9,77.9c-1.1,0-1.6,0.9-1.6,2.1c0,0.2,0,0.3,0.2,0.3h2.8c0.1,0,0.2-0.1,0.2-0.3
			C267.5,78.7,267.1,77.9,265.9,77.9"/>
		<path class="st1" d="M274.4,78.1c0,0.1-0.1,0.2-0.2,0.2c-0.4,0-0.8,0.1-1.1,0.3c-0.6,0.4-1.1,0.9-1.1,1.3v4.2c0,0.4,0,0.5-0.3,0.5
			h-0.9c-0.3,0-0.4-0.2-0.4-0.5v-6.6c0-0.3,0.1-0.4,0.3-0.4h0.9c0.2,0,0.3,0.1,0.3,0.4v0.7c0.6-0.8,1.4-1.2,2.2-1.2
			c0.1,0,0.2,0,0.2,0.2L274.4,78.1z"/>
		<path class="st1" d="M278.6,84.8c-2.2,0-3.4-0.9-3.4-3.9c0-2.9,1.4-4,3.5-4c2.1,0,3.3,1.1,3.3,4C282,83.4,280.7,84.8,278.6,84.8
			 M280.4,80.1c0-1.2-0.4-2.1-1.7-2.1c-1,0-1.8,0.7-1.8,2.2v1.4c0,1.5,0.8,2.1,1.8,2.1c1.1,0,1.7-0.9,1.7-2.3V80.1z"/>
		<path class="st1" d="M287.2,84.8c-1.1,0-1.8-0.3-2.3-0.9v3.2c0,0.3-0.1,0.5-0.3,0.5h-0.9c-0.3,0-0.4-0.1-0.4-0.5v-9.5
			c0-0.3,0-0.5,0.4-0.5h0.9c0.2,0,0.3,0.1,0.3,0.4V78c0.5-0.8,1.4-1.1,2.3-1.1c1.6,0,2.4,1.5,2.4,3.9
			C289.7,83.7,288.7,84.8,287.2,84.8 M288.1,80.4c0-1.4-0.5-2.4-1.5-2.4c-1.1,0-1.5,1-1.5,1.7v2.7c0,0.4,0.6,1.3,1.5,1.3
			c1,0,1.5-0.8,1.5-2.2V80.4z"/>
		<path class="st1" d="M294.4,84.8c-2.2,0-3.4-0.9-3.4-3.9c0-2.9,1.4-4,3.5-4c2.1,0,3.3,1.1,3.3,4C297.7,83.4,296.4,84.8,294.4,84.8
			 M296.1,80.1c0-1.2-0.4-2.1-1.7-2.1c-1,0-1.8,0.7-1.8,2.2v1.4c0,1.5,0.8,2.1,1.8,2.1c1.1,0,1.7-0.9,1.7-2.3V80.1z"/>
		<path class="st1" d="M303.1,78.1c0,0.1-0.1,0.2-0.2,0.2c-0.4,0-0.8,0.1-1.1,0.3c-0.6,0.4-1.1,0.9-1.1,1.3v4.2c0,0.4,0,0.5-0.3,0.5
			h-0.9c-0.3,0-0.4-0.2-0.4-0.5v-6.6c0-0.3,0.1-0.4,0.3-0.4h0.9c0.2,0,0.3,0.1,0.3,0.4v0.7c0.6-0.8,1.4-1.2,2.2-1.2
			c0.1,0,0.2,0,0.2,0.2L303.1,78.1z"/>
		<path class="st1" d="M307.5,78.4h-1.3v4.5c0,0.5,0.2,0.7,0.6,0.7c0.3,0,0.4,0,0.7-0.1c0.2,0,0.3,1,0.1,1c-0.2,0.1-0.8,0.2-1.3,0.2
			c-1.3,0-1.7-0.9-1.7-1.8v-4.6h-0.7c-0.2,0-0.2-0.1-0.2-0.3v-0.5c0-0.2,0-0.3,0.3-0.3h0.7v-1.4c0-0.2,0.2-0.3,0.4-0.3l0.8-0.1
			c0.3-0.1,0.4,0.1,0.4,0.3v1.5h1.3c0.3,0,0.3,0.1,0.3,0.3v0.5C307.8,78.3,307.8,78.4,307.5,78.4"/>
		<path class="st1" d="M312.3,84.8c-2.2,0-3.4-0.9-3.4-3.9c0-2.9,1.4-4,3.5-4c2.1,0,3.3,1.1,3.3,4C315.6,83.4,314.3,84.8,312.3,84.8
			 M314,80.1c0-1.2-0.4-2.1-1.7-2.1c-1,0-1.8,0.7-1.8,2.2v1.4c0,1.5,0.8,2.1,1.8,2.1c1.1,0,1.7-0.9,1.7-2.3V80.1z"/>
		<path class="st1" d="M255.2,98h-1.1c-0.3,0-0.3-0.1-0.3-0.4v-9.5c0-0.3,0.1-0.3,0.4-0.3h1c0.2,0,0.3,0.1,0.3,0.4v9.5
			C255.5,97.9,255.4,98,255.2,98"/>
		<path class="st1" d="M263,98h-0.9c-0.2,0-0.4-0.2-0.4-0.5v-4.4c0-0.7-0.3-1.4-1.3-1.4c-1.1,0-1.5,0.9-1.5,1.6v4.2
			c0,0.4,0,0.5-0.3,0.5h-0.9c-0.3,0-0.4-0.2-0.4-0.5V91c0-0.3,0.1-0.4,0.3-0.4h0.9c0.2,0,0.3,0.2,0.3,0.9c0.5-0.7,1.2-1,2.2-1
			c1.2,0,2.2,0.6,2.2,2.4v4.6C263.3,97.8,263.2,98,263,98"/>
		<path class="st1" d="M268.4,91.8h-1.3v4.5c0,0.5,0.2,0.7,0.6,0.7c0.3,0,0.4,0,0.7-0.1c0.2,0,0.3,1,0.1,1c-0.2,0.1-0.8,0.2-1.3,0.2
			c-1.3,0-1.7-0.9-1.7-1.8v-4.6h-0.7c-0.2,0-0.2-0.1-0.2-0.3V91c0-0.2,0-0.3,0.3-0.3h0.7v-1.4c0-0.2,0.2-0.3,0.4-0.3l0.8-0.1
			c0.3-0.1,0.4,0.1,0.4,0.3v1.5h1.3c0.3,0,0.3,0.1,0.3,0.3v0.5C268.7,91.7,268.7,91.8,268.4,91.8"/>
		<path class="st1" d="M275.4,94.7h-4.1c0,1.6,0.8,2.3,2.1,2.3c1.1,0,1.8-0.2,2.1-0.3c0.3-0.1,0.4,0,0.4,0.1v0.7
			c0,0.3-0.1,0.3-0.5,0.4c-0.2,0.1-1.2,0.2-2.1,0.2c-2.4,0-3.6-1.1-3.6-3.8c0-2.7,1.1-4,3.2-4c1.9,0,3.1,1.1,3.1,2.9v0.9
			C276,94.5,276,94.7,275.4,94.7 M272.9,91.3c-1.1,0-1.6,0.9-1.6,2.1c0,0.2,0,0.3,0.2,0.3h2.8c0.1,0,0.2-0.1,0.2-0.3
			C274.5,92.1,274.1,91.3,272.9,91.3"/>
		<path class="st1" d="M281.4,91.5c0,0.1-0.1,0.2-0.2,0.2c-0.4,0-0.8,0.1-1.1,0.3c-0.6,0.4-1.1,0.9-1.1,1.3v4.2c0,0.4,0,0.5-0.3,0.5
			h-0.9c-0.3,0-0.4-0.2-0.4-0.5V91c0-0.3,0.1-0.4,0.3-0.4h0.9c0.2,0,0.3,0.1,0.3,0.4v0.7c0.6-0.8,1.4-1.2,2.2-1.2
			c0.1,0,0.2,0,0.2,0.2L281.4,91.5z"/>
		<path class="st1" d="M288.1,98h-0.9c-0.2,0-0.4-0.2-0.4-0.5v-4.4c0-0.7-0.3-1.4-1.3-1.4c-1.1,0-1.5,0.9-1.5,1.6v4.2
			c0,0.4,0,0.5-0.3,0.5h-0.9c-0.3,0-0.4-0.2-0.4-0.5V91c0-0.3,0.1-0.4,0.3-0.4h0.9c0.2,0,0.3,0.2,0.3,0.9c0.5-0.7,1.2-1,2.2-1
			c1.2,0,2.2,0.6,2.2,2.4v4.6C288.4,97.8,288.4,98,288.1,98"/>
		<path class="st1" d="M295.8,98h-0.9c-0.2,0-0.3,0-0.3-0.4V97c-0.3,0.6-1.2,1.1-2.3,1.1c-1.4,0-2.5-1.1-2.5-3.9c0-2.5,0.9-4,2.5-4
			c1.2,0,1.9,0.4,2.3,1.2v-0.6c0-0.2,0.1-0.3,0.3-0.3h0.9c0.4,0,0.4,0.1,0.4,0.4v6.5C296.2,97.8,296.1,98,295.8,98 M294.5,93.2
			c0-0.6-0.4-1.8-1.5-1.8c-1,0-1.5,0.7-1.5,2.3v1.2c0,1.4,0.5,2.2,1.5,2.2c0.9,0,1.5-1,1.5-1.4V93.2z"/>
		<path class="st1" d="M301,98.2c-2.2,0-3.4-0.9-3.4-3.9c0-2.9,1.4-4,3.5-4c1.2,0,2,0.3,2.6,1c0.2,0.3-1,1.1-1.1,0.8
			c-0.3-0.4-0.7-0.8-1.4-0.8c-1,0-1.8,0.7-1.8,2.2V95c0,1.5,0.8,2.1,1.8,2.1c0.6,0,1.1-0.4,1.4-0.9c0.1-0.3,1.3,0.2,1.2,0.5
			C303.2,97.6,302.3,98.2,301,98.2"/>
		<path class="st1" d="M306,89.2h-0.9c-0.3,0-0.3-0.1-0.3-0.5v-0.5c0-0.3,0.1-0.4,0.4-0.4h0.9c0.3,0,0.3,0.2,0.3,0.5v0.5
			C306.3,89.1,306.2,89.2,306,89.2 M306,98h-1c-0.3,0-0.3-0.1-0.3-0.5v-6.6c0-0.3,0.1-0.4,0.3-0.4h0.9c0.3,0,0.3,0.1,0.3,0.4v6.6
			C306.3,97.9,306.3,98,306,98"/>
		<path class="st1" d="M311.1,98.2c-2.2,0-3.4-0.9-3.4-3.9c0-2.9,1.4-4,3.5-4c2.1,0,3.3,1.1,3.3,4C314.5,96.8,313.2,98.2,311.1,98.2
			 M312.9,93.5c0-1.2-0.4-2.1-1.7-2.1c-1,0-1.8,0.7-1.8,2.2V95c0,1.5,0.8,2.1,1.8,2.1c1.1,0,1.7-0.9,1.7-2.3V93.5z"/>
		<path class="st1" d="M321.6,98h-0.9c-0.2,0-0.4-0.2-0.4-0.5v-4.4c0-0.7-0.4-1.4-1.3-1.4c-1.1,0-1.6,0.9-1.6,1.6v4.2
			c0,0.4,0,0.5-0.3,0.5h-0.9c-0.3,0-0.4-0.2-0.4-0.5V91c0-0.3,0.1-0.4,0.3-0.4h0.9c0.2,0,0.3,0.2,0.3,0.9c0.5-0.7,1.2-1,2.2-1
			c1.2,0,2.2,0.6,2.2,2.4v4.6C321.9,97.8,321.8,98,321.6,98"/>
		<path class="st1" d="M329.3,98h-0.9c-0.2,0-0.3,0-0.3-0.4V97c-0.3,0.6-1.2,1.1-2.3,1.1c-1.4,0-2.5-1.1-2.5-3.9c0-2.5,0.9-4,2.5-4
			c1.2,0,1.9,0.4,2.3,1.2v-0.6c0-0.2,0.1-0.3,0.3-0.3h0.9c0.4,0,0.4,0.1,0.4,0.4v6.5C329.6,97.8,329.6,98,329.3,98 M328,93.2
			c0-0.6-0.4-1.8-1.5-1.8c-0.9,0-1.5,0.7-1.5,2.3v1.2c0,1.4,0.5,2.2,1.5,2.2c1,0,1.5-1,1.5-1.4V93.2z"/>
		<path class="st1" d="M332.5,98h-0.9c-0.3,0-0.3-0.1-0.3-0.5V88c0-0.3,0.1-0.4,0.3-0.4h0.9c0.3,0,0.3,0.1,0.3,0.4v9.5
			C332.8,97.9,332.8,98,332.5,98"/>
		<path class="st1" d="M342.6,98.1h-0.9c-0.2,0-0.3,0-0.3-0.4v-0.4c-0.5,0.6-1.2,0.9-2.3,0.9c-1.4,0-2.4-1.1-2.4-3.9
			c0-2.5,0.9-4,2.5-4c1.1,0,1.8,0.3,2.3,1.1v-3.3c0-0.3,0.1-0.5,0.3-0.5h0.9c0.4,0,0.4,0.1,0.4,0.4v9.4
			C342.9,97.9,342.9,98.1,342.6,98.1 M341.3,93.1c0-0.7-0.4-1.7-1.5-1.7c-0.9,0-1.5,0.9-1.5,2.3v1.2c0,1.4,0.5,2.2,1.5,2.2
			c0.9,0,1.5-0.9,1.5-1.3V93.1z"/>
		<path class="st1" d="M350.1,94.8H346c0,1.6,0.8,2.3,2.1,2.3c1.1,0,1.8-0.2,2.1-0.3c0.3-0.1,0.4,0,0.4,0.1v0.7
			c0,0.3-0.1,0.3-0.5,0.4c-0.2,0.1-1.2,0.2-2.1,0.2c-2.4,0-3.6-1.1-3.6-3.8c0-2.7,1.1-4,3.2-4c1.9,0,3.1,1.1,3.1,2.9v0.9
			C350.7,94.6,350.6,94.8,350.1,94.8 M347.6,91.3c-1.1,0-1.6,1-1.6,2.1c0,0.2,0,0.3,0.2,0.3h2.8c0.1,0,0.2-0.1,0.2-0.3
			C349.1,92.1,348.7,91.3,347.6,91.3"/>
		<path class="st1" d="M257.2,111.5h-3.1c-0.3,0-0.3-0.1-0.3-0.4v-9.4c0-0.3,0-0.5,0.3-0.5h2.7c2.4,0,3.7,0.7,3.7,2.6
			c0,1.3-0.7,2.1-1.6,2.4c1,0.3,1.8,0.9,1.8,2.5C260.7,110.5,259.7,111.5,257.2,111.5 M256.7,102.4h-1.1c-0.2,0-0.3,0.1-0.3,0.3v2.7
			c0,0.2,0.1,0.3,0.3,0.3h1.1c1.5,0,2.1-0.5,2.1-1.6C258.8,102.8,258.1,102.4,256.7,102.4 M256.8,106.9h-1.1c-0.2,0-0.3,0.1-0.3,0.3
			v2.8c0,0.1,0,0.3,0.3,0.3h1.1c1.5,0,2.2-0.4,2.2-1.6C259,107.5,258.2,106.9,256.8,106.9"/>
		<path class="st1" d="M267.7,108.2h-4.1c0,1.6,0.8,2.3,2.1,2.3c1.1,0,1.8-0.2,2.1-0.3c0.3-0.1,0.4,0,0.4,0.1v0.7
			c0,0.3-0.1,0.3-0.5,0.4c-0.2,0.1-1.2,0.2-2.1,0.2c-2.4,0-3.6-1.1-3.6-3.8c0-2.7,1.1-4,3.2-4c1.9,0,3.1,1.1,3.1,2.9v0.9
			C268.3,108,268.2,108.2,267.7,108.2 M265.2,104.8c-1.1,0-1.6,1-1.6,2.1c0,0.2,0,0.3,0.2,0.3h2.8c0.1,0,0.2-0.1,0.2-0.3
			C266.7,105.5,266.3,104.8,265.2,104.8"/>
		<path class="st1" d="M271,111.5h-0.9c-0.3,0-0.3-0.1-0.3-0.5v-9.5c0-0.3,0.1-0.4,0.3-0.4h0.9c0.3,0,0.3,0.1,0.3,0.4v9.5
			C271.3,111.4,271.3,111.5,271,111.5"/>
		<path class="st1" d="M276.1,111.6c-2.2,0-3.4-0.9-3.4-3.9c0-2.9,1.4-4,3.5-4c2.1,0,3.3,1.1,3.3,4
			C279.4,110.3,278.2,111.6,276.1,111.6 M277.8,107c0-1.2-0.4-2.1-1.7-2.1c-1,0-1.8,0.7-1.8,2.2v1.4c0,1.5,0.8,2.1,1.8,2.1
			c1.1,0,1.7-0.9,1.7-2.3V107z"/>
		<path class="st1" d="M291.2,111.5h-1c-0.2,0-0.3-0.1-0.3-0.4v-4c0-0.3,0-0.3-0.3-0.3h-3.6c-0.2,0-0.2,0-0.2,0.2v4
			c0,0.4-0.1,0.4-0.4,0.4h-1c-0.2,0-0.3-0.1-0.3-0.5v-9.3c0-0.3,0.1-0.4,0.3-0.4h1c0.3,0,0.4,0.1,0.4,0.5v3.5c0,0.2,0.1,0.3,0.3,0.3
			h3.6c0.2,0,0.2-0.1,0.2-0.2v-3.6c0-0.3,0.1-0.4,0.4-0.4h1c0.3,0,0.3,0.1,0.3,0.4v9.4C291.5,111.4,291.5,111.5,291.2,111.5"/>
		<path class="st1" d="M296.6,111.6c-2.2,0-3.4-0.9-3.4-3.9c0-2.9,1.4-4,3.5-4c2.1,0,3.3,1.1,3.3,4
			C299.9,110.3,298.6,111.6,296.6,111.6 M298.3,107c0-1.2-0.4-2.1-1.7-2.1c-1,0-1.8,0.7-1.8,2.2v1.4c0,1.5,0.8,2.1,1.8,2.1
			c1.1,0,1.7-0.9,1.7-2.3V107z"/>
		<path class="st1" d="M305.3,104.9c0,0.1-0.1,0.2-0.2,0.2c-0.4,0-0.8,0.1-1.1,0.3c-0.6,0.4-1.1,0.9-1.1,1.3v4.2
			c0,0.4,0,0.5-0.3,0.5h-0.9c-0.3,0-0.4-0.2-0.4-0.5v-6.6c0-0.3,0.1-0.4,0.3-0.4h0.9c0.2,0,0.3,0.1,0.3,0.4v0.7
			c0.6-0.8,1.4-1.2,2.2-1.2c0.1,0,0.2,0,0.2,0.2L305.3,104.9z"/>
		<path class="st1" d="M307.5,102.6h-0.9c-0.3,0-0.4-0.1-0.4-0.5v-0.5c0-0.3,0.1-0.4,0.4-0.4h0.9c0.3,0,0.3,0.2,0.3,0.5v0.5
			C307.8,102.6,307.8,102.6,307.5,102.6 M307.5,111.5h-1c-0.3,0-0.3-0.1-0.3-0.5v-6.6c0-0.3,0.1-0.4,0.3-0.4h0.9
			c0.3,0,0.3,0.1,0.3,0.4v6.6C307.8,111.4,307.8,111.5,307.5,111.5"/>
		<path class="st1" d="M314.4,111.5h-4.9c-0.7,0-0.6-0.3-0.4-0.7l3.4-5.8h-3.1c-0.3,0-0.3,0-0.3-0.3v-0.5c0-0.2,0.1-0.3,0.3-0.3h4.8
			c0.5,0,0.6,0.1,0.4,0.5l-3.6,6h3.3c0.3,0,0.4,0,0.4,0.3v0.5C314.7,111.4,314.6,111.5,314.4,111.5"/>
		<path class="st1" d="M319.1,111.6c-2.2,0-3.4-0.9-3.4-3.9c0-2.9,1.4-4,3.5-4c2.1,0,3.3,1.1,3.3,4
			C322.4,110.3,321.1,111.6,319.1,111.6 M320.8,107c0-1.2-0.4-2.1-1.7-2.1c-1,0-1.8,0.7-1.8,2.2v1.4c0,1.5,0.8,2.1,1.8,2.1
			c1.1,0,1.7-0.9,1.7-2.3V107z"/>
		<path class="st1" d="M329.5,111.5h-0.9c-0.2,0-0.4-0.2-0.4-0.5v-4.4c0-0.7-0.3-1.4-1.3-1.4c-1.1,0-1.6,0.9-1.6,1.6v4.2
			c0,0.4,0,0.5-0.3,0.5h-0.9c-0.3,0-0.4-0.2-0.4-0.5v-6.6c0-0.3,0.1-0.4,0.3-0.4h0.9c0.2,0,0.3,0.2,0.3,0.9c0.5-0.7,1.2-1,2.2-1
			c1.2,0,2.2,0.6,2.2,2.4v4.6C329.8,111.3,329.7,111.5,329.5,111.5"/>
		<path class="st1" d="M334.9,105.2h-1.3v4.5c0,0.5,0.2,0.7,0.6,0.7c0.3,0,0.4,0,0.7-0.1c0.1,0,0.3,1,0.1,1
			c-0.2,0.1-0.8,0.2-1.3,0.2c-1.3,0-1.7-0.9-1.7-1.8v-4.6h-0.7c-0.2,0-0.2-0.1-0.2-0.3v-0.5c0-0.2,0-0.3,0.3-0.3h0.7v-1.4
			c0-0.3,0.2-0.3,0.4-0.3l0.8-0.1c0.3-0.1,0.4,0.1,0.4,0.4v1.5h1.3c0.3,0,0.3,0.1,0.3,0.3v0.5C335.2,105.1,335.2,105.2,334.9,105.2"
			/>
		<path class="st1" d="M342,108.2h-4.1c0,1.6,0.8,2.3,2.1,2.3c1.1,0,1.8-0.2,2.1-0.3c0.2-0.1,0.4,0,0.4,0.1v0.7
			c0,0.3-0.1,0.3-0.5,0.4c-0.2,0.1-1.2,0.2-2.1,0.2c-2.4,0-3.6-1.1-3.6-3.8c0-2.7,1.1-4,3.2-4c1.9,0,3.1,1.1,3.1,2.9v0.9
			C342.5,108,342.5,108.2,342,108.2 M339.4,104.8c-1.1,0-1.6,1-1.6,2.1c0,0.2,0,0.3,0.2,0.3h2.8c0.1,0,0.2-0.1,0.2-0.3
			C341,105.5,340.6,104.8,339.4,104.8"/>
	</g>
	<rect x="236.3" y="6" class="st1" width="0.2" height="117"/>
	<rect x="253.6" y="63.2" class="st1" width="108.9" height="0.2"/>
	<polygon class="st0" points="18.3,29.8 18.3,37.6 11.2,37.6 11.2,29.8 6.5,29.8 6.5,49.2 11.2,49.2 11.2,41.6 18.3,41.6 18.3,49.2 
		23.1,49.2 23.1,29.8 	"/>
	<g>
		<path class="st0" d="M26.7,29.8h4.8v12.3c0,2,1.3,3.1,3.4,3.1c2,0,3.4-1.1,3.4-3.1V29.8h4.8v12.3c0,4.4-3.2,7.5-8.1,7.5
			c-4.9,0-8.1-3.1-8.1-7.5V29.8z"/>
		<path class="st0" d="M54.1,45.1c1.4,0,2.1-1,2.1-2c0-1.1-0.7-2-2-2h-2.9v4H54.1z M53.7,37.3c1.2,0,1.7-0.9,1.7-1.8
			c0-0.9-0.5-1.7-1.8-1.7h-2.4v3.4H53.7z M46.5,29.8h7.1c3.9,0,6.6,1.7,6.6,5.1c0,1.6-0.8,3.3-2.3,4.1V39c2.2,0.7,3,2.7,3,4.4
			c0,4.2-3.5,5.8-7.4,5.8h-7.1V29.8z"/>
	</g>
	<polygon class="st0" points="69.3,29.8 74,29.8 74,45.1 81.9,45.1 81.9,49.2 69.3,49.2 	"/>
	<g>
		<path class="st0" d="M92.5,45.2c2.9,0,5.2-2.5,5.2-5.8c0-3.2-2.3-5.6-5.2-5.6s-5.2,2.4-5.2,5.6C87.3,42.7,89.6,45.2,92.5,45.2
			 M92.5,29.5c5.9,0,10.2,4.3,10.2,9.9c0,5.7-4.3,10.2-10.2,10.2c-5.9,0-10.2-4.5-10.2-10.2C82.4,33.8,86.7,29.5,92.5,29.5"/>
		<path class="st0" d="M114.1,29.5c5,0,7.5,2.6,7.5,2.6l-2.3,3.6c0,0-2-1.8-4.7-1.8c-4.1,0-5.7,2.6-5.7,5.5c0,3.7,2.6,5.9,5.6,5.9
			c2.3,0,3.9-1.4,3.9-1.4v-1.5h-2.7v-4h6.9v11h-4v-0.5c0-0.4,0-0.8,0-0.8h-0.1c0,0-1.9,1.7-5.1,1.7c-5,0-9.5-3.7-9.5-10.1
			C103.9,33.8,108.2,29.5,114.1,29.5"/>
	</g>
	<path class="st0" d="M128.1,24.5h4.6l-3.2,4.1h-3.6L128.1,24.5z M125.5,29.8h4.8v19.4h-4.8V29.8z"/>
	<g>
		<path class="st0" d="M135.2,43.1c0,0,2.2,2,4.6,2c1,0,2-0.4,2-1.5c0-2.3-8.7-2.2-8.7-8.2c0-3.6,3-5.9,6.9-5.9
			c4.2,0,6.2,2.2,6.2,2.2l-2,3.9c0,0-2-1.7-4.3-1.7c-1,0-2.1,0.4-2.1,1.5c0,2.4,8.7,2,8.7,8.1c0,3.2-2.5,6-6.8,6
			c-4.6,0-7.1-2.8-7.1-2.8L135.2,43.1z"/>
	</g>
	<polygon class="st0" points="152.9,33.9 147,33.9 147,29.8 163.5,29.8 163.5,33.9 157.6,33.9 157.6,49.2 152.9,49.2 	"/>
	<rect x="165.2" y="29.8" class="st0" width="4.8" height="19.4"/>
	<g>
		<path class="st0" d="M182.7,29.5c4.8,0,7.3,2.7,7.3,2.7l-2.2,3.6c0,0-2.2-2-4.9-2c-3.7,0-5.5,2.7-5.5,5.5c0,2.9,1.9,5.8,5.5,5.8
			c2.9,0,5.2-2.4,5.2-2.4l2.4,3.5c0,0-2.7,3.3-7.8,3.3c-6.1,0-10.2-4.3-10.2-10.1C172.5,33.8,176.9,29.5,182.7,29.5"/>
		<path class="st0" d="M201.5,45.2c2.9,0,5.2-2.5,5.2-5.8c0-3.2-2.3-5.6-5.2-5.6c-2.9,0-5.2,2.4-5.2,5.6
			C196.2,42.7,198.5,45.2,201.5,45.2 M201.5,29.5c5.9,0,10.2,4.3,10.2,9.9c0,5.7-4.3,10.2-10.2,10.2c-5.9,0-10.2-4.5-10.2-10.2
			C191.3,33.8,195.6,29.5,201.5,29.5"/>
		<path class="st0" d="M37.1,58.8h5.2l2.8,8.2c0.4,1.2,1,3.2,1,3.2h0.1c0,0,0.5-2,1-3.2l2.8-8.2h5.2l1.6,19.4h-4.8l-0.6-8.7
			c-0.1-1.5,0-3.3,0-3.3h-0.1c0,0-0.7,2-1.1,3.3l-2,5.6H44l-2-5.6c-0.4-1.2-1.1-3.3-1.1-3.3h-0.1c0,0,0.1,1.8,0,3.3l-0.6,8.7h-4.8
			L37.1,58.8z"/>
		<path class="st0" d="M59.6,58.8h4.8v12.3c0,2,1.3,3.1,3.4,3.1c2,0,3.4-1.1,3.4-3.1V58.8h4.8v12.3c0,4.4-3.2,7.5-8.1,7.5
			c-4.9,0-8.1-3.1-8.1-7.5V58.8z"/>
	</g>
	<polygon class="st0" points="79.5,58.8 84.2,58.8 84.2,74.1 92.2,74.1 92.2,78.2 79.5,78.2 	"/>
	<polygon class="st0" points="96.5,62.9 90.6,62.9 90.6,58.8 107.1,58.8 107.1,62.9 101.2,62.9 101.2,78.2 96.5,78.2 	"/>
	<rect x="108.8" y="58.8" class="st0" width="4.8" height="19.4"/>
	<g>
		<path class="st0" d="M118.4,58.8h5.2l2.8,8.2c0.4,1.2,1,3.2,1,3.2h0.1c0,0,0.5-2,1-3.2l2.8-8.2h5.2l1.6,19.4h-4.8l-0.6-8.7
			c-0.1-1.5,0-3.3,0-3.3h-0.1c0,0-0.7,2-1.1,3.3l-2,5.6h-4.1l-2-5.6c-0.4-1.2-1.1-3.3-1.1-3.3h-0.1c0,0,0.1,1.8,0,3.3l-0.6,8.7h-4.8
			L118.4,58.8z"/>
		<path class="st0" d="M150.1,74.2c2.9,0,5.2-2.5,5.2-5.8c0-3.2-2.3-5.6-5.2-5.6s-5.2,2.4-5.2,5.6C144.9,71.7,147.2,74.2,150.1,74.2
			 M150.1,58.5c5.9,0,10.2,4.3,10.2,9.9c0,5.7-4.3,10.2-10.2,10.2s-10.2-4.5-10.2-10.2C139.9,62.8,144.2,58.5,150.1,58.5"/>
		<path class="st0" d="M169.5,74.1c3.3,0,5.3-2,5.3-5.7c0-3.7-2.1-5.6-5.3-5.6h-2v11.3H169.5z M162.8,58.8h6.9c6.1,0,10,3.6,10,9.7
			s-3.9,9.7-10,9.7h-6.9V58.8z"/>
		<path class="st0" d="M188.9,63.2c0,0-0.4,2.1-0.8,3.3l-1.1,3.8h3.8l-1.1-3.8C189.4,65.3,189,63.2,188.9,63.2L188.9,63.2z
			 M192,74.1h-6.1l-1.2,4.1h-4.9l6.6-19.4h5l6.6,19.4h-4.9L192,74.1z"/>
	</g>
	<polygon class="st0" points="199.6,58.8 204.3,58.8 204.3,74.1 212.2,74.1 212.2,78.2 199.6,78.2 	"/>
	<rect x="48.3" y="97.2" class="st1" width="0.7" height="11"/>
	<g>
		<path class="st1" d="M52.4,97.2H53l6.3,8.6c0.4,0.5,0.9,1.4,0.9,1.4h0c0,0-0.1-0.8-0.1-1.4v-8.6h0.7v11h-0.6l-6.3-8.6
			c-0.4-0.5-0.9-1.4-0.9-1.4h0c0,0,0.1,0.8,0.1,1.4v8.6h-0.7V97.2z"/>
	</g>
	<polygon class="st1" points="66.7,97.8 62.6,97.8 62.6,97.2 71.5,97.2 71.5,97.8 67.4,97.8 67.4,108.2 66.7,108.2 	"/>
	<polygon class="st1" points="73.3,97.2 79.4,97.2 79.4,97.8 74,97.8 74,102.4 78.4,102.4 78.4,103 74,103 74,107.6 79.7,107.6 
		79.7,108.2 73.3,108.2 	"/>
	<g>
		<path class="st1" d="M87,97c2.5,0,3.8,1.2,3.8,1.2l-0.4,0.5c0,0-1.3-1.1-3.4-1.1c-2.8,0-4.8,2.2-4.8,5c0,2.9,2,5,4.7,5
			c2.4,0,3.8-1.8,3.8-1.8v-2.1h-2v-0.6h2.6v5h-0.7v-1c0-0.2,0-0.5,0-0.5h0c0,0-1.3,1.6-3.8,1.6c-3.1,0-5.4-2.5-5.4-5.7
			C81.5,99.5,83.8,97,87,97"/>
		<path class="st1" d="M97.8,102.7c1.4,0,2.4-1,2.4-2.5c0-1-0.5-1.8-1.3-2.1c-0.3-0.1-0.7-0.2-1.5-0.2h-2.5v4.9H97.8z M94.1,97.2
			h3.2c1,0,1.5,0.1,2,0.3c0.9,0.5,1.5,1.4,1.5,2.6c0,1.6-0.9,2.8-2.2,3v0c0,0,0.1,0.1,0.3,0.4l2.5,4.6h-0.8l-2.6-4.9h-3.2v4.9h-0.7
			V97.2z"/>
		<path class="st1" d="M106.9,98c0,0-0.2,0.8-0.4,1.3l-1.7,4.5h4.2l-1.7-4.5C107.2,98.9,107,98,106.9,98L106.9,98z M109.3,104.4
			h-4.7l-1.4,3.8h-0.7l4.1-11h0.7l4.1,11h-0.7L109.3,104.4z"/>
		<path class="st1" d="M116.8,107.6c2.9,0,4.9-1.7,4.9-4.9c0-3.1-2-4.9-4.9-4.9h-2.7v9.8H116.8z M113.4,97.2h3.5
			c3.3,0,5.5,2,5.5,5.5c0,3.5-2.2,5.5-5.5,5.5h-3.5V97.2z"/>
		<path class="st1" d="M129.9,107.8c2.7,0,4.9-2.2,4.9-5.1c0-2.8-2.2-5-4.9-5c-2.7,0-4.9,2.2-4.9,5
			C125,105.5,127.2,107.8,129.9,107.8 M129.9,97c3.1,0,5.6,2.5,5.6,5.6c0,3.2-2.5,5.8-5.6,5.8s-5.6-2.5-5.6-5.8
			C124.3,99.5,126.8,97,129.9,97"/>
	</g>
	<rect x="137.1" y="107.2" class="st1" width="1" height="1"/>
	<g>
		<path class="st0" d="M150.2,97c2.5,0,3.8,1.2,3.8,1.2l-0.4,0.5c0,0-1.3-1.1-3.4-1.1c-2.8,0-4.8,2.2-4.8,5c0,2.9,2,5,4.7,5
			c2.4,0,3.8-1.8,3.8-1.8v-2.1h-2v-0.6h2.6v5h-0.7v-1c0-0.2,0-0.5,0-0.5h0c0,0-1.3,1.6-3.8,1.6c-3.1,0-5.4-2.5-5.4-5.7
			C144.8,99.5,147.1,97,150.2,97"/>
	</g>
	<polygon class="st0" points="157.4,97.2 158.1,97.2 158.1,107.6 163.3,107.6 163.3,108.2 157.4,108.2 	"/>
	<g>
		<path class="st0" d="M169.6,107.8c2.7,0,4.9-2.2,4.9-5.1c0-2.8-2.2-5-4.9-5c-2.7,0-4.9,2.2-4.9,5
			C164.7,105.5,166.9,107.8,169.6,107.8 M169.6,97c3.1,0,5.6,2.5,5.6,5.6c0,3.2-2.5,5.8-5.6,5.8c-3.1,0-5.6-2.5-5.6-5.8
			C164,99.5,166.5,97,169.6,97"/>
		<path class="st0" d="M181.6,107.6c1.5,0,2.4-0.9,2.4-2.4c0-1.5-1-2.4-2.4-2.4h-3.1v4.8H181.6z M181.5,102.1c1.2,0,2.1-0.8,2.1-2.2
			c0-1.3-0.8-2.1-2.1-2.1h-3v4.3H181.5z M177.8,97.2h3.7c1.6,0,2.8,1.1,2.8,2.8c0,1.2-0.6,2-1.4,2.4v0c1.1,0.3,1.9,1.4,1.9,2.8
			c0,1.8-1.3,3-3.1,3h-3.9V97.2z"/>
		<path class="st0" d="M190.6,98c0,0-0.2,0.8-0.4,1.3l-1.7,4.5h4.2l-1.7-4.5C190.9,98.9,190.6,98,190.6,98L190.6,98z M192.9,104.4
			h-4.7l-1.4,3.8h-0.7l4.1-11h0.7l4.1,11h-0.7L192.9,104.4z"/>
	</g>
	<polygon class="st0" points="197.1,97.2 197.7,97.2 197.7,107.6 203,107.6 203,108.2 197.1,108.2 	"/>
	<rect x="204.8" y="107.2" class="st0" width="1" height="1"/>
	<g>
		<path class="st0" d="M201.5,16.9c-1.3,0-2.4,1.1-2.4,2.4c0,1.3,1.1,2.4,2.4,2.4c1.3,0,2.4-1.1,2.4-2.4
			C203.9,18,202.8,16.9,201.5,16.9 M201.5,22.7c-1.9,0-3.4-1.5-3.4-3.4c0-1.9,1.5-3.4,3.4-3.4c1.9,0,3.4,1.5,3.4,3.4
			C204.9,21.2,203.4,22.7,201.5,22.7"/>
	</g>
	
		<rect x="209.3" y="42.4" transform="matrix(0.7444 -0.6677 0.6677 0.7444 20.3509 152.8044)" class="st0" width="1" height="14.8"/>
	<g>
		<path class="st0" d="M217.6,54.2c-1,0-2.1,0.4-2.9,1.1c-0.9,0.8-1.4,1.9-1.5,3c-0.1,1.2,0.3,2.3,1.1,3.2c0.8,0.9,1.9,1.4,3,1.5
			c1.2,0.1,2.3-0.3,3.2-1.1c0.9-0.8,1.4-1.9,1.5-3c0.1-1.2-0.3-2.3-1.1-3.2C220,54.7,218.8,54.2,217.6,54.2 M217.6,64
			c-0.1,0-0.2,0-0.3,0c-1.4-0.1-2.8-0.7-3.7-1.8c-1-1.1-1.5-2.5-1.4-3.9c0.1-1.4,0.7-2.8,1.8-3.7c2.2-2,5.7-1.8,7.7,0.4
			c1,1.1,1.5,2.5,1.4,3.9c-0.1,1.4-0.7,2.8-1.8,3.7C220.3,63.5,219,64,217.6,64"/>
	</g>
	<rect x="206.6" y="34.5" transform="matrix(0.869 -0.4948 0.4948 0.869 10.2205 108.6118)" class="st0" width="7.3" height="1"/>
	<rect x="192.8" y="49.6" transform="matrix(0.5372 -0.8435 0.8435 0.5372 48.655 188.9297)" class="st0" width="7.3" height="1"/>
	<g>
		<path class="st0" d="M215.5,30.1c-0.3,0-0.5,0.1-0.8,0.2c-0.8,0.4-1,1.4-0.6,2.2c0.4,0.8,1.4,1,2.2,0.6c0.8-0.4,1-1.4,0.6-2.2
			C216.6,30.4,216.1,30.1,215.5,30.1 M215.5,34.3c-0.9,0-1.8-0.5-2.3-1.3c-0.7-1.3-0.3-2.9,1-3.6c1.3-0.7,2.9-0.3,3.6,1
			c0.7,1.3,0.3,2.9-1,3.6v0C216.4,34.2,216,34.3,215.5,34.3"/>
		<path class="st0" d="M193.4,53.2c-0.3,0-0.5,0.1-0.8,0.2c-0.4,0.2-0.6,0.6-0.7,1c-0.1,0.4-0.1,0.8,0.2,1.2c0.4,0.8,1.4,1,2.2,0.6
			c0.8-0.4,1-1.4,0.6-2.2c-0.2-0.4-0.6-0.6-1-0.7C193.7,53.3,193.5,53.2,193.4,53.2 M193.4,57.5c-0.9,0-1.8-0.5-2.3-1.3
			c-0.3-0.6-0.4-1.3-0.3-2c0.2-0.7,0.6-1.2,1.2-1.6c0.6-0.3,1.3-0.4,2-0.3c0.7,0.2,1.2,0.6,1.6,1.2c0.7,1.3,0.3,2.9-1,3.6v0
			C194.3,57.4,193.8,57.5,193.4,57.5"/>
	</g>
	<rect x="201" y="22.2" class="st0" width="1" height="8.8"/>
</g>
</svg>
