<?xml version="1.0" encoding="utf-8"?>
<!-- Generator: Adobe Illustrator 24.1.2, SVG Export Plug-In . SVG Version: 6.00 Build 0)  -->
<svg version="1.1" id="Camada_1" xmlns="http://www.w3.org/2000/svg" xmlns:xlink="http://www.w3.org/1999/xlink" x="0px" y="0px"
	 viewBox="0 0 435.9 131" style="enable-background:new 0 0 435.9 131;" xml:space="preserve">
<style type="text/css">
	.st0{fill:#A1DAF8;}
	.st1{fill:#FFFFFF;}
</style>
<g>
	<polygon class="st0" points="22.9,26.8 22.9,35.9 14.5,35.9 14.5,26.8 8.9,26.8 8.9,49.7 14.5,49.7 14.5,40.7 22.9,40.7 22.9,49.7 
		28.5,49.7 28.5,26.8 	"/>
	<g>
		<path class="st0" d="M32.7,26.8h5.6v14.5c0,2.4,1.6,3.7,4,3.7c2.4,0,4-1.3,4-3.7V26.8h5.6v14.5c0,5.2-3.8,8.8-9.6,8.8
			c-5.8,0-9.6-3.7-9.6-8.8V26.8z"/>
		<path class="st0" d="M65.2,44.9c1.6,0,2.4-1.1,2.4-2.4c0-1.3-0.8-2.3-2.4-2.3h-3.4v4.7H65.2z M64.7,35.7c1.4,0,2-1,2-2.1
			c0-1.1-0.6-2-2.1-2h-2.8v4.1H64.7z M56.2,26.8h8.4c4.6,0,7.8,2.1,7.8,6c0,1.9-0.9,3.9-2.7,4.9v0.1c2.6,0.8,3.6,3.1,3.6,5.2
			c0,5-4.2,6.8-8.7,6.8h-8.4V26.8z"/>
	</g>
	<polygon class="st0" points="83.1,26.8 88.7,26.8 88.7,44.9 98.1,44.9 98.1,49.7 83.1,49.7 	"/>
	<g>
		<path class="st0" d="M110.6,45c3.4,0,6.2-3,6.2-6.9c0-3.8-2.8-6.6-6.2-6.6c-3.4,0-6.2,2.8-6.2,6.6C104.4,42,107.2,45,110.6,45
			 M110.6,26.4c6.9,0,12,5.1,12,11.7c0,6.7-5.1,12-12,12c-6.9,0-12-5.3-12-12C98.6,31.5,103.7,26.4,110.6,26.4"/>
		<path class="st0" d="M136.1,26.4c5.9,0,8.8,3,8.8,3l-2.7,4.2c0,0-2.3-2.1-5.6-2.1c-4.8,0-6.8,3.1-6.8,6.5c0,4.4,3,7,6.6,7
			c2.7,0,4.7-1.7,4.7-1.7v-1.8h-3.2v-4.8h8.2v13h-4.7v-0.6c0-0.5,0-1,0-1h-0.1c0,0-2.2,2-6,2c-5.9,0-11.3-4.4-11.3-11.9
			C124.1,31.5,129.1,26.4,136.1,26.4"/>
	</g>
	<path class="st0" d="M152.6,20.5h5.5l-3.8,4.8H150L152.6,20.5z M149.5,26.8h5.6v22.9h-5.6V26.8z"/>
	<g>
		<path class="st0" d="M161,42.6c0,0,2.6,2.4,5.5,2.4c1.2,0,2.4-0.4,2.4-1.8c0-2.7-10.3-2.6-10.3-9.7c0-4.2,3.6-7,8.1-7
			c4.9,0,7.4,2.6,7.4,2.6l-2.4,4.6c0,0-2.3-2-5.1-2c-1.2,0-2.4,0.5-2.4,1.8c0,2.9,10.3,2.4,10.3,9.6c0,3.8-2.9,7.1-8.1,7.1
			c-5.4,0-8.4-3.3-8.4-3.3L161,42.6z"/>
	</g>
	<polygon class="st0" points="181.9,31.6 175,31.6 175,26.8 194.5,26.8 194.5,31.6 187.5,31.6 187.5,49.7 181.9,49.7 	"/>
	<rect x="196.5" y="26.8" class="st0" width="5.6" height="22.9"/>
	<g>
		<path class="st0" d="M217.2,26.4c5.7,0,8.6,3.2,8.6,3.2l-2.6,4.2c0,0-2.6-2.3-5.7-2.3c-4.4,0-6.5,3.2-6.5,6.5
			c0,3.4,2.2,6.9,6.5,6.9c3.5,0,6.1-2.8,6.1-2.8l2.9,4.1c0,0-3.2,3.9-9.2,3.9c-7.2,0-12-5.1-12-11.9
			C205.2,31.5,210.3,26.4,217.2,26.4"/>
		<path class="st0" d="M239.3,45c3.4,0,6.2-3,6.2-6.9c0-3.8-2.8-6.6-6.2-6.6c-3.4,0-6.2,2.8-6.2,6.6C233.1,42,235.9,45,239.3,45
			 M239.3,26.4c6.9,0,12,5.1,12,11.7c0,6.7-5.1,12-12,12c-6.9,0-12-5.3-12-12C227.3,31.5,232.4,26.4,239.3,26.4"/>
		<path class="st0" d="M45.1,61h6.1l3.3,9.7c0.5,1.5,1.2,3.8,1.2,3.8h0.1c0,0,0.6-2.3,1.2-3.8l3.3-9.7h6.1L68.2,84h-5.6l-0.7-10.3
			c-0.1-1.7,0-3.9,0-3.9h-0.1c0,0-0.8,2.4-1.3,3.9l-2.4,6.6h-4.8l-2.4-6.6c-0.5-1.4-1.3-3.9-1.3-3.9h-0.1c0,0,0.1,2.1,0,3.9L48.8,84
			h-5.6L45.1,61z"/>
		<path class="st0" d="M71.7,61h5.6v14.5c0,2.4,1.6,3.7,4,3.7s4-1.3,4-3.7V61h5.6v14.5c0,5.2-3.8,8.8-9.6,8.8
			c-5.8,0-9.6-3.7-9.6-8.8V61z"/>
	</g>
	<polygon class="st0" points="95.2,61 100.8,61 100.8,79.2 110.2,79.2 110.2,84 95.2,84 	"/>
	<polygon class="st0" points="115.2,65.8 108.3,65.8 108.3,61 127.8,61 127.8,65.8 120.8,65.8 120.8,84 115.2,84 	"/>
	<rect x="129.8" y="61" class="st0" width="5.6" height="22.9"/>
	<g>
		<path class="st0" d="M141.2,61h6.1l3.3,9.7c0.5,1.5,1.2,3.8,1.2,3.8h0.1c0,0,0.6-2.3,1.2-3.8l3.3-9.7h6.1l1.9,22.9h-5.6L158,73.6
			c-0.1-1.7,0-3.9,0-3.9h-0.1c0,0-0.8,2.4-1.3,3.9l-2.4,6.6h-4.8l-2.4-6.6c-0.5-1.4-1.3-3.9-1.3-3.9h-0.1c0,0,0.1,2.1,0,3.9L145,84
			h-5.6L141.2,61z"/>
		<path class="st0" d="M178.6,79.2c3.4,0,6.2-3,6.2-6.9c0-3.8-2.8-6.6-6.2-6.6c-3.4,0-6.2,2.8-6.2,6.6
			C172.4,76.3,175.2,79.2,178.6,79.2 M178.6,60.6c6.9,0,12,5.1,12,11.7c0,6.7-5.1,12-12,12c-6.9,0-12-5.3-12-12
			C166.6,65.8,171.7,60.6,178.6,60.6"/>
		<path class="st0" d="M201.6,79.2c3.9,0,6.3-2.3,6.3-6.7c0-4.4-2.5-6.6-6.3-6.6h-2.3v13.3H201.6z M193.6,61h8.1
			c7.2,0,11.8,4.2,11.8,11.4S209,84,201.8,84h-8.1V61z"/>
		<path class="st0" d="M224.5,66.3c0,0-0.5,2.5-0.9,3.9l-1.3,4.5h4.5l-1.3-4.5C225.1,68.8,224.6,66.3,224.5,66.3L224.5,66.3z
			 M228.1,79.2H221l-1.4,4.8h-5.8l7.8-22.9h5.9l7.8,22.9h-5.8L228.1,79.2z"/>
	</g>
	<polygon class="st0" points="237.1,61 242.7,61 242.7,79.2 252.1,79.2 252.1,84 237.1,84 	"/>
	<rect x="58.3" y="106.5" class="st1" width="0.8" height="13"/>
	<g>
		<path class="st1" d="M63.1,106.5h0.7l7.4,10.2c0.4,0.6,1.1,1.6,1.1,1.6h0c0,0-0.1-1-0.1-1.6v-10.2h0.8v13h-0.7l-7.4-10.2
			c-0.4-0.6-1.1-1.6-1.1-1.6h0c0,0,0.1,1,0.1,1.6v10.2h-0.8V106.5z"/>
	</g>
	<polygon class="st1" points="80.1,107.2 75.3,107.2 75.3,106.5 85.8,106.5 85.8,107.2 80.9,107.2 80.9,119.5 80.1,119.5 	"/>
	<polygon class="st1" points="87.9,106.5 95,106.5 95,107.2 88.7,107.2 88.7,112.5 93.9,112.5 93.9,113.3 88.7,113.3 88.7,118.7 
		95.4,118.7 95.4,119.5 87.9,119.5 	"/>
	<g>
		<path class="st1" d="M104,106.2c2.9,0,4.5,1.5,4.5,1.5l-0.5,0.6c0,0-1.6-1.3-4.1-1.3c-3.3,0-5.7,2.6-5.7,6c0,3.4,2.3,6,5.5,6
			c2.8,0,4.5-2.1,4.5-2.1v-2.5H106v-0.7h3.1v5.9h-0.8v-1.1c0-0.3,0-0.6,0-0.6h0c0,0-1.6,1.9-4.4,1.9c-3.6,0-6.4-3-6.4-6.7
			C97.5,109.2,100.3,106.2,104,106.2"/>
		<path class="st1" d="M116.8,113c1.7,0,2.8-1.2,2.8-3c0-1.2-0.6-2.1-1.5-2.5c-0.4-0.2-0.8-0.3-1.8-0.3h-3v5.8H116.8z M112.5,106.5
			h3.8c1.2,0,1.8,0.1,2.3,0.4c1.1,0.5,1.8,1.6,1.8,3.1c0,1.9-1.1,3.3-2.6,3.6v0c0,0,0.1,0.1,0.3,0.5l2.9,5.4h-0.9l-3.1-5.8h-3.7v5.8
			h-0.8V106.5z"/>
		<path class="st1" d="M127.6,107.4c0,0-0.3,1-0.5,1.6l-2,5.3h5l-2-5.3C127.9,108.4,127.7,107.4,127.6,107.4L127.6,107.4z
			 M130.4,115h-5.5l-1.7,4.5h-0.9l4.9-13h0.9l4.9,13h-0.9L130.4,115z"/>
		<path class="st1" d="M139.2,118.7c3.5,0,5.8-2,5.8-5.8c0-3.7-2.3-5.8-5.8-5.8h-3.2v11.5H139.2z M135.3,106.5h4.1
			c3.9,0,6.5,2.4,6.5,6.5c0,4.1-2.6,6.5-6.5,6.5h-4.1V106.5z"/>
		<path class="st1" d="M154.7,118.9c3.2,0,5.7-2.6,5.7-6.1c0-3.3-2.6-5.9-5.7-5.9c-3.2,0-5.7,2.5-5.7,5.9
			C149,116.3,151.5,118.9,154.7,118.9 M154.7,106.2c3.6,0,6.6,2.9,6.6,6.6c0,3.8-3,6.8-6.6,6.8c-3.6,0-6.6-3-6.6-6.8
			C148.1,109.1,151.1,106.2,154.7,106.2"/>
	</g>
	<rect x="163.3" y="118.3" class="st1" width="1.1" height="1.2"/>
	<g>
		<path class="st0" d="M178.8,106.2c2.9,0,4.5,1.5,4.5,1.5l-0.5,0.6c0,0-1.6-1.3-4.1-1.3c-3.3,0-5.7,2.6-5.7,6c0,3.4,2.3,6,5.5,6
			c2.8,0,4.5-2.1,4.5-2.1v-2.5h-2.3v-0.7h3.1v5.9h-0.8v-1.1c0-0.3,0-0.6,0-0.6h0c0,0-1.6,1.9-4.4,1.9c-3.6,0-6.4-3-6.4-6.7
			C172.3,109.2,175.1,106.2,178.8,106.2"/>
	</g>
	<polygon class="st0" points="187.3,106.5 188.1,106.5 188.1,118.7 194.3,118.7 194.3,119.5 187.3,119.5 	"/>
	<g>
		<path class="st0" d="M201.7,118.9c3.2,0,5.7-2.6,5.7-6.1c0-3.3-2.6-5.9-5.7-5.9c-3.2,0-5.7,2.5-5.7,5.9
			C195.9,116.3,198.5,118.9,201.7,118.9 M201.7,106.2c3.6,0,6.6,2.9,6.6,6.6c0,3.8-3,6.8-6.6,6.8s-6.6-3-6.6-6.8
			C195.1,109.1,198.1,106.2,201.7,106.2"/>
		<path class="st0" d="M215.8,118.7c1.7,0,2.9-1.1,2.9-2.8s-1.2-2.9-2.9-2.9h-3.7v5.7H215.8z M215.7,112.3c1.4,0,2.5-1,2.5-2.5
			c0-1.5-1-2.5-2.5-2.5h-3.5v5.1H215.7z M211.4,106.5h4.4c1.9,0,3.3,1.3,3.3,3.3c0,1.4-0.7,2.4-1.7,2.8v0c1.3,0.4,2.2,1.6,2.2,3.3
			c0,2.2-1.5,3.6-3.6,3.6h-4.6V106.5z"/>
		<path class="st0" d="M226.5,107.4c0,0-0.3,1-0.5,1.6l-2,5.3h5l-2-5.3C226.8,108.4,226.5,107.4,226.5,107.4L226.5,107.4z
			 M229.2,115h-5.5l-1.7,4.5h-0.9l4.9-13h0.9l4.9,13h-0.9L229.2,115z"/>
	</g>
	<polygon class="st0" points="234.1,106.5 234.9,106.5 234.9,118.7 241.1,118.7 241.1,119.5 234.1,119.5 	"/>
	<rect x="243.2" y="118.3" class="st0" width="1.1" height="1.2"/>
	<g>
		<path class="st1" d="M303.6,61.9h-1.5c-0.4,0-0.3-0.1-0.5-0.5l-0.8-2.7H296l-0.8,2.7c-0.1,0.4-0.2,0.5-0.5,0.5h-1.4
			c-0.2,0-0.3-0.1-0.1-0.6l3.9-12.9c0.1-0.4,0.3-0.6,0.7-0.6h1.6c0.4,0,0.6,0.2,0.7,0.6l3.9,12.9C304.2,61.8,304,61.9,303.6,61.9
			 M298.4,50.5l-1.9,6.4h3.8L298.4,50.5z"/>
		<path class="st1" d="M313.4,57.3h-5.7c0,2.2,1.1,3.1,2.9,3.1c1.6,0,2.5-0.3,2.9-0.4c0.3-0.1,0.5,0,0.5,0.2v1
			c0,0.3-0.1,0.4-0.6,0.6c-0.3,0.1-1.7,0.3-2.8,0.3c-3.3,0-5-1.5-5-5.3c0-3.7,1.5-5.6,4.5-5.6c2.7,0,4.2,1.5,4.2,4.1v1.2
			C314.2,57,314.1,57.3,313.4,57.3 M309.9,52.6c-1.5,0-2.2,1.3-2.2,2.9c0,0.3,0,0.4,0.3,0.4h3.9c0.2,0,0.2-0.1,0.2-0.4
			C312,53.6,311.5,52.6,309.9,52.6"/>
		<path class="st1" d="M321.6,52.8c0,0.2-0.1,0.3-0.3,0.3c-0.5,0-1.1,0.1-1.6,0.4c-0.9,0.5-1.5,1.2-1.5,1.9v5.8c0,0.5,0,0.7-0.4,0.7
			h-1.2c-0.4,0-0.5-0.2-0.5-0.7v-9.1c0-0.4,0.1-0.6,0.5-0.6h1.2c0.3,0,0.5,0.1,0.5,0.5v1c0.8-1.1,1.9-1.6,3-1.6c0.2,0,0.3,0,0.3,0.2
			L321.6,52.8z"/>
		<path class="st1" d="M327.4,62.1c-3,0-4.7-1.2-4.7-5.3c0-4,1.9-5.5,4.8-5.5c2.9,0,4.5,1.5,4.5,5.5C332,60.2,330.3,62.1,327.4,62.1
			 M329.8,55.7c0-1.7-0.6-3-2.4-3c-1.4,0-2.4,1-2.4,3.1v1.9c0,2.1,1.1,3,2.5,3c1.5,0,2.4-1.3,2.4-3.2V55.7z"/>
		<path class="st1" d="M339.3,62.1c-1.5,0-2.4-0.4-3.1-1.3v4.5c0,0.5-0.1,0.6-0.3,0.6h-1.3c-0.5,0-0.5-0.2-0.5-0.6V52.2
			c0-0.4,0-0.7,0.5-0.7h1.2c0.3,0,0.5,0.1,0.5,0.5v0.7c0.7-1,1.9-1.5,3.2-1.5c2.1,0,3.3,2.1,3.3,5.4
			C342.8,60.6,341.3,62.1,339.3,62.1 M340.5,55.9c0-1.9-0.7-3.3-2-3.3c-1.5,0-2.1,1.4-2.1,2.4v3.7c0,0.5,0.8,1.8,2.1,1.8
			c1.4,0,2.1-1.2,2.1-3V55.9z"/>
		<path class="st1" d="M349.2,62.1c-3,0-4.7-1.2-4.7-5.3c0-4,1.9-5.5,4.8-5.5c2.9,0,4.5,1.5,4.5,5.5C353.8,60.2,352,62.1,349.2,62.1
			 M351.6,55.7c0-1.7-0.6-3-2.4-3c-1.4,0-2.5,1-2.5,3.1v1.9c0,2.1,1.1,3,2.5,3c1.5,0,2.4-1.3,2.4-3.2V55.7z"/>
		<path class="st1" d="M361.2,52.8c0,0.2-0.1,0.3-0.3,0.3c-0.5,0-1.1,0.1-1.6,0.4c-0.9,0.5-1.5,1.2-1.5,1.9v5.8c0,0.5,0,0.7-0.4,0.7
			h-1.2c-0.4,0-0.5-0.2-0.5-0.7v-9.1c0-0.4,0.1-0.6,0.5-0.6h1.2c0.3,0,0.5,0.1,0.5,0.5v1c0.8-1.1,1.9-1.6,3-1.6c0.2,0,0.3,0,0.3,0.2
			L361.2,52.8z"/>
		<path class="st1" d="M367.3,53.2h-1.8v6.3c0,0.6,0.3,1,0.8,1c0.4,0,0.6,0,1-0.1c0.2,0,0.4,1.4,0.2,1.4c-0.3,0.1-1.1,0.2-1.8,0.2
			c-1.9,0-2.4-1.3-2.4-2.5v-6.3h-1c-0.2,0-0.3-0.2-0.3-0.4v-0.7c0-0.3,0.1-0.4,0.4-0.4h0.9v-1.9c0-0.3,0.2-0.4,0.5-0.5l1-0.2
			c0.4-0.1,0.5,0.1,0.5,0.5v2.1h1.9c0.4,0,0.4,0.2,0.4,0.4v0.7C367.8,53.1,367.8,53.2,367.3,53.2"/>
		<path class="st1" d="M373.9,62.1c-3,0-4.7-1.2-4.7-5.3c0-4,1.9-5.5,4.8-5.5c2.9,0,4.5,1.5,4.5,5.5
			C378.5,60.2,376.8,62.1,373.9,62.1 M376.3,55.7c0-1.7-0.6-3-2.4-3c-1.4,0-2.4,1-2.4,3.1v1.9c0,2.1,1.1,3,2.5,3
			c1.5,0,2.4-1.3,2.4-3.2V55.7z"/>
		<path class="st1" d="M295,80.4h-1.5c-0.3,0-0.4-0.1-0.4-0.5V66.7c0-0.4,0.1-0.4,0.5-0.4h1.4c0.3,0,0.4,0.1,0.4,0.5v13.1
			C295.4,80.3,295.4,80.4,295,80.4"/>
		<path class="st1" d="M305.8,80.4h-1.3c-0.3,0-0.5-0.2-0.5-0.7v-6.1c0-1-0.5-1.9-1.8-1.9c-1.5,0-2.1,1.3-2.1,2.2v5.8
			c0,0.5,0,0.7-0.4,0.7h-1.2c-0.4,0-0.5-0.2-0.5-0.7v-9.1c0-0.4,0.1-0.6,0.5-0.6h1.2c0.3,0,0.5,0.3,0.5,1.2c0.7-0.9,1.6-1.4,3.1-1.4
			c1.6,0,3,0.9,3,3.3v6.4C306.2,80.1,306.2,80.4,305.8,80.4"/>
		<path class="st1" d="M313.3,71.7h-1.8V78c0,0.6,0.3,1,0.8,1c0.4,0,0.6,0,1-0.1c0.2,0,0.4,1.4,0.2,1.4c-0.3,0.1-1.1,0.2-1.8,0.2
			c-1.9,0-2.4-1.3-2.4-2.5v-6.3h-1c-0.3,0-0.3-0.2-0.3-0.4v-0.7c0-0.3,0.1-0.4,0.4-0.4h0.9v-1.9c0-0.3,0.2-0.4,0.5-0.5l1-0.2
			c0.4-0.1,0.5,0.1,0.5,0.5v2.1h1.9c0.4,0,0.4,0.2,0.4,0.4v0.7C313.7,71.6,313.7,71.7,313.3,71.7"/>
		<path class="st1" d="M323,75.8h-5.7c0,2.2,1.1,3.1,2.9,3.1c1.6,0,2.5-0.3,2.9-0.4c0.3-0.1,0.5,0,0.5,0.2v1c0,0.3-0.1,0.4-0.6,0.6
			c-0.3,0.1-1.7,0.3-2.9,0.3c-3.3,0-5-1.5-5-5.3c0-3.7,1.5-5.6,4.5-5.6c2.7,0,4.2,1.5,4.2,4.1V75C323.8,75.5,323.8,75.8,323,75.8
			 M319.6,71.1c-1.5,0-2.2,1.3-2.2,2.9c0,0.3,0,0.4,0.3,0.4h3.9c0.2,0,0.2-0.1,0.2-0.4C321.7,72.1,321.1,71.1,319.6,71.1"/>
		<path class="st1" d="M331.3,71.3c0,0.2-0.1,0.3-0.3,0.3c-0.5,0-1.1,0.1-1.6,0.4c-0.9,0.5-1.5,1.2-1.5,1.9v5.8c0,0.5,0,0.7-0.4,0.7
			h-1.2c-0.4,0-0.5-0.2-0.5-0.7v-9.1c0-0.4,0.1-0.6,0.5-0.6h1.2c0.3,0,0.5,0.1,0.5,0.5v1c0.8-1.1,1.9-1.6,3-1.6c0.2,0,0.3,0,0.3,0.2
			L331.3,71.3z"/>
		<path class="st1" d="M340.5,80.4h-1.3c-0.3,0-0.5-0.2-0.5-0.7v-6.1c0-1-0.5-1.9-1.8-1.9c-1.5,0-2.1,1.3-2.1,2.2v5.8
			c0,0.5,0,0.7-0.4,0.7h-1.2c-0.4,0-0.5-0.2-0.5-0.7v-9.1c0-0.4,0.1-0.6,0.5-0.6h1.2c0.3,0,0.5,0.3,0.5,1.2c0.7-0.9,1.6-1.4,3.1-1.4
			c1.6,0,3,0.9,3,3.3v6.4C341,80.1,340.9,80.4,340.5,80.4"/>
		<path class="st1" d="M351.2,80.4H350c-0.3,0-0.5-0.1-0.5-0.6V79c-0.4,0.8-1.6,1.6-3.1,1.6c-1.9,0-3.5-1.5-3.5-5.3
			c0-3.4,1.2-5.5,3.4-5.5c1.7,0,2.6,0.6,3.2,1.6v-0.8c0-0.3,0.1-0.5,0.3-0.5h1.2c0.5,0,0.6,0.2,0.6,0.6v9
			C351.7,80.1,351.6,80.4,351.2,80.4 M349.4,73.6c0-0.8-0.6-2.4-2.1-2.4c-1.3,0-2,0.9-2,3.2V76c0,1.9,0.7,3.1,2.1,3.1
			c1.3,0,2.1-1.4,2.1-1.9V73.6z"/>
		<path class="st1" d="M358.4,80.6c-3,0-4.7-1.2-4.7-5.3c0-4,1.9-5.5,4.8-5.5c1.6,0,2.8,0.4,3.5,1.4c0.3,0.4-1.4,1.5-1.6,1.1
			c-0.4-0.6-1-1.1-2-1.1c-1.4,0-2.5,1-2.5,3.1v1.9c0,2.1,1.1,3,2.5,3c0.9,0,1.5-0.5,2-1.2c0.2-0.4,1.8,0.3,1.6,0.7
			C361.3,79.8,360.1,80.6,358.4,80.6"/>
		<path class="st1" d="M365.3,68.1H364c-0.4,0-0.5-0.1-0.5-0.6v-0.7c0-0.4,0.1-0.6,0.5-0.6h1.2c0.4,0,0.4,0.2,0.4,0.7v0.7
			C365.7,68,365.6,68.1,365.3,68.1 M365.3,80.4h-1.4c-0.3,0-0.4-0.2-0.4-0.7v-9.1c0-0.4,0.1-0.6,0.5-0.6h1.2c0.5,0,0.5,0.2,0.5,0.6
			v9.1C365.7,80.2,365.6,80.4,365.3,80.4"/>
		<path class="st1" d="M372.4,80.6c-3,0-4.7-1.2-4.7-5.3c0-4,1.9-5.5,4.8-5.5c2.9,0,4.5,1.5,4.5,5.5C377,78.7,375.2,80.6,372.4,80.6
			 M374.8,74.2c0-1.7-0.6-3-2.4-3c-1.4,0-2.5,1-2.5,3.1v1.9c0,2.1,1.1,3,2.5,3c1.5,0,2.4-1.3,2.4-3.2V74.2z"/>
		<path class="st1" d="M386.8,80.4h-1.3c-0.3,0-0.5-0.2-0.5-0.7v-6.1c0-1-0.5-1.9-1.8-1.9c-1.5,0-2.1,1.3-2.1,2.2v5.8
			c0,0.5,0,0.7-0.4,0.7h-1.2c-0.4,0-0.5-0.2-0.5-0.7v-9.1c0-0.4,0.1-0.6,0.5-0.6h1.2c0.3,0,0.5,0.3,0.5,1.2c0.7-0.9,1.6-1.4,3.1-1.4
			c1.6,0,3,0.9,3,3.3v6.4C387.2,80.1,387.1,80.4,386.8,80.4"/>
		<path class="st1" d="M397.4,80.4h-1.2c-0.3,0-0.5-0.1-0.5-0.6V79c-0.4,0.8-1.6,1.6-3.1,1.6c-1.9,0-3.5-1.5-3.5-5.3
			c0-3.4,1.2-5.5,3.4-5.5c1.7,0,2.6,0.6,3.2,1.6v-0.8c0-0.3,0.1-0.5,0.3-0.5h1.2c0.5,0,0.6,0.2,0.6,0.6v9
			C397.9,80.1,397.9,80.4,397.4,80.4 M395.6,73.6c0-0.8-0.6-2.4-2.1-2.4c-1.3,0-2,0.9-2,3.2V76c0,1.9,0.7,3.1,2.1,3.1
			c1.3,0,2.1-1.4,2.1-1.9V73.6z"/>
		<path class="st1" d="M401.9,80.4h-1.3c-0.4,0-0.5-0.1-0.5-0.6V66.6c0-0.3,0.1-0.5,0.5-0.5h1.2c0.5,0,0.5,0.2,0.5,0.6v13.1
			C402.3,80.2,402.3,80.4,401.9,80.4"/>
		<path class="st1" d="M415.8,80.4h-1.2c-0.3,0-0.5,0-0.5-0.6v-0.5c-0.7,0.9-1.7,1.3-3.2,1.3c-1.9,0-3.4-1.5-3.4-5.3
			c0-3.4,1.2-5.5,3.4-5.5c1.5,0,2.4,0.4,3.2,1.5v-4.5c0-0.4,0.1-0.6,0.3-0.6h1.2c0.5,0,0.6,0.2,0.6,0.6v13
			C416.3,80.1,416.3,80.4,415.8,80.4 M414,73.6c0-1-0.6-2.4-2.1-2.4c-1.3,0-2,1.3-2,3.2V76c0,1.9,0.7,3.1,2.1,3.1
			c1.3,0,2.1-1.2,2.1-1.7V73.6z"/>
		<path class="st1" d="M426.2,75.9h-5.7c0,2.2,1.1,3.1,2.9,3.1c1.6,0,2.5-0.3,2.9-0.4c0.3-0.1,0.5,0,0.5,0.2v1
			c0,0.3-0.1,0.4-0.6,0.6c-0.3,0.1-1.7,0.3-2.9,0.3c-3.3,0-5-1.5-5-5.3c0-3.7,1.5-5.6,4.5-5.6c2.7,0,4.2,1.5,4.2,4.1V75
			C427,75.6,426.9,75.9,426.2,75.9 M422.7,71.1c-1.5,0-2.2,1.3-2.2,2.9c0,0.3,0,0.4,0.3,0.4h3.9c0.2,0,0.2-0.1,0.2-0.4
			C424.8,72.2,424.3,71.1,422.7,71.1"/>
		<path class="st1" d="M297.8,99h-4.3c-0.4,0-0.4-0.1-0.4-0.5V85.5c0-0.4,0-0.7,0.4-0.7h3.8c3.3,0,5.1,1,5.1,3.6
			c0,1.8-0.9,2.9-2.2,3.4c1.4,0.4,2.5,1.3,2.5,3.5C302.6,97.6,301.2,99,297.8,99 M297.2,86.5h-1.5c-0.3,0-0.3,0.2-0.3,0.3v3.7
			c0,0.3,0.1,0.4,0.4,0.4h1.6c2,0,2.8-0.7,2.8-2.2C300.1,87,299.1,86.5,297.2,86.5 M297.3,92.7h-1.6c-0.3,0-0.4,0.1-0.4,0.4V97
			c0,0.2,0.1,0.3,0.3,0.3h1.5c2,0,3.1-0.5,3.1-2.2C300.3,93.5,299.2,92.7,297.3,92.7"/>
		<path class="st1" d="M312.3,94.4h-5.7c0,2.2,1.1,3.1,2.9,3.1c1.6,0,2.5-0.3,2.9-0.4c0.3-0.1,0.5,0,0.5,0.2v1
			c0,0.3-0.1,0.4-0.6,0.6c-0.3,0.1-1.7,0.3-2.9,0.3c-3.3,0-5-1.5-5-5.3c0-3.7,1.5-5.6,4.5-5.6c2.7,0,4.2,1.5,4.2,4.1v1.2
			C313.1,94.1,313.1,94.4,312.3,94.4 M308.9,89.7c-1.5,0-2.2,1.3-2.2,2.9c0,0.3,0,0.4,0.2,0.4h3.9c0.2,0,0.2-0.1,0.2-0.4
			C311,90.7,310.4,89.7,308.9,89.7"/>
		<path class="st1" d="M316.9,99h-1.3c-0.4,0-0.5-0.1-0.5-0.6V85.2c0-0.3,0.1-0.5,0.5-0.5h1.2c0.5,0,0.5,0.2,0.5,0.6v13.1
			C317.3,98.8,317.3,99,316.9,99"/>
		<path class="st1" d="M324,99.2c-3,0-4.7-1.2-4.7-5.3c0-4,1.9-5.5,4.8-5.5c2.9,0,4.5,1.5,4.5,5.5C328.6,97.3,326.8,99.2,324,99.2
			 M326.4,92.8c0-1.7-0.6-2.9-2.4-2.9c-1.4,0-2.5,0.9-2.5,3v1.9c0,2.1,1.1,2.9,2.5,2.9c1.5,0,2.4-1.3,2.4-3.2V92.8z"/>
		<path class="st1" d="M344.8,99h-1.4c-0.3,0-0.5-0.1-0.5-0.6v-5.5c0-0.3-0.1-0.4-0.4-0.4h-5c-0.2,0-0.3,0-0.3,0.3v5.5
			c0,0.5-0.1,0.6-0.6,0.6h-1.4c-0.3,0-0.4-0.2-0.4-0.7V85.3c0-0.4,0.1-0.5,0.4-0.5h1.4c0.4,0,0.5,0.1,0.5,0.6v4.8
			c0,0.3,0.1,0.4,0.4,0.4h4.9c0.2,0,0.3-0.1,0.3-0.3v-5c0-0.4,0.1-0.5,0.5-0.5h1.3c0.4,0,0.4,0.2,0.4,0.5v13
			C345.2,98.9,345.2,99,344.8,99"/>
		<path class="st1" d="M352.2,99.2c-3,0-4.7-1.2-4.7-5.3c0-4,1.9-5.5,4.8-5.5c2.9,0,4.5,1.5,4.5,5.5
			C356.8,97.3,355.1,99.2,352.2,99.2 M354.6,92.8c0-1.7-0.6-2.9-2.4-2.9c-1.4,0-2.4,0.9-2.4,3v1.9c0,2.1,1.1,2.9,2.5,2.9
			c1.5,0,2.3-1.3,2.3-3.2V92.8z"/>
		<path class="st1" d="M364.2,89.9c0,0.2-0.1,0.3-0.3,0.3c-0.5,0-1.1,0.1-1.6,0.4c-0.9,0.5-1.5,1.2-1.5,1.9v5.8c0,0.5,0,0.7-0.4,0.7
			h-1.2c-0.4,0-0.5-0.2-0.5-0.7v-9.1c0-0.4,0.1-0.6,0.5-0.6h1.2c0.2,0,0.5,0.1,0.5,0.5v1c0.8-1.1,1.9-1.6,3-1.6c0.2,0,0.3,0,0.3,0.2
			L364.2,89.9z"/>
		<path class="st1" d="M367.4,86.7h-1.3c-0.4,0-0.5-0.1-0.5-0.6v-0.7c0-0.4,0.1-0.6,0.5-0.6h1.2c0.4,0,0.4,0.2,0.4,0.7v0.7
			C367.8,86.6,367.7,86.7,367.4,86.7 M367.4,99H366c-0.3,0-0.4-0.2-0.4-0.7v-9.1c0-0.4,0.1-0.6,0.5-0.6h1.2c0.5,0,0.5,0.2,0.5,0.6
			v9.1C367.8,98.8,367.7,99,367.4,99"/>
		<path class="st1" d="M376.8,99H370c-0.9,0-0.8-0.4-0.5-0.9l4.7-8H370c-0.4,0-0.5,0-0.5-0.4V89c0-0.3,0.1-0.4,0.4-0.4h6.6
			c0.7,0,0.9,0.2,0.5,0.7l-4.9,8.2h4.6c0.3,0,0.5,0,0.5,0.4v0.6C377.3,98.9,377.2,99,376.8,99"/>
		<path class="st1" d="M383.3,99.2c-3,0-4.7-1.2-4.7-5.3c0-4,1.9-5.5,4.8-5.5c2.9,0,4.5,1.5,4.5,5.5
			C387.9,97.3,386.2,99.2,383.3,99.2 M385.7,92.8c0-1.7-0.6-2.9-2.4-2.9c-1.4,0-2.5,0.9-2.5,3v1.9c0,2.1,1.1,2.9,2.5,2.9
			c1.5,0,2.4-1.3,2.4-3.2V92.8z"/>
		<path class="st1" d="M397.7,99h-1.3c-0.3,0-0.5-0.2-0.5-0.7v-6.1c0-1-0.5-1.9-1.8-1.9c-1.5,0-2.1,1.3-2.1,2.2v5.8
			c0,0.5,0,0.7-0.4,0.7h-1.2c-0.4,0-0.5-0.2-0.5-0.7v-9.1c0-0.4,0.1-0.6,0.5-0.6h1.2c0.3,0,0.5,0.3,0.5,1.2c0.7-0.9,1.6-1.4,3.1-1.4
			c1.6,0,3,0.9,3,3.3v6.4C398.1,98.7,398.1,99,397.7,99"/>
		<path class="st1" d="M405.2,90.3h-1.8v6.3c0,0.6,0.3,1,0.8,1c0.4,0,0.6,0,1-0.1c0.2,0,0.4,1.4,0.2,1.4c-0.3,0.1-1.1,0.2-1.8,0.2
			c-1.9,0-2.4-1.3-2.4-2.5v-6.3h-1c-0.3,0-0.3-0.2-0.3-0.4v-0.7c0-0.3,0.1-0.4,0.4-0.4h0.9v-1.9c0-0.3,0.2-0.4,0.5-0.5l1-0.2
			c0.4-0.1,0.5,0.1,0.5,0.5v2.1h1.9c0.4,0,0.4,0.2,0.4,0.4V90C405.7,90.2,405.6,90.3,405.2,90.3"/>
		<path class="st1" d="M414.9,94.4h-5.7c0,2.2,1.1,3.1,2.9,3.1c1.6,0,2.5-0.3,2.9-0.4c0.3-0.1,0.5,0,0.5,0.2v1
			c0,0.3-0.1,0.4-0.6,0.6c-0.3,0.1-1.7,0.3-2.9,0.3c-3.3,0-5-1.5-5-5.3c0-3.7,1.5-5.6,4.5-5.6c2.7,0,4.2,1.5,4.2,4.1v1.2
			C415.7,94.1,415.7,94.4,414.9,94.4 M411.5,89.7c-1.5,0-2.2,1.3-2.2,2.9c0,0.3,0,0.4,0.2,0.4h3.9c0.2,0,0.2-0.1,0.2-0.4
			C413.6,90.7,413,89.7,411.5,89.7"/>
	</g>
	<rect x="271.2" y="2.7" class="st1" width="0.2" height="125.6"/>
	<g>
		<path class="st0" d="M239.4,11.5c-1.6,0-2.8,1.3-2.8,2.8s1.3,2.8,2.8,2.8c1.6,0,2.8-1.3,2.8-2.8S240.9,11.5,239.4,11.5
			 M239.4,18.4c-2.2,0-4.1-1.8-4.1-4.1c0-2.2,1.8-4.1,4.1-4.1s4.1,1.8,4.1,4.1C243.4,16.6,241.6,18.4,239.4,18.4"/>
	</g>
	
		<rect x="248.5" y="41.7" transform="matrix(0.7444 -0.6677 0.6677 0.7444 30.0005 179.2608)" class="st0" width="1.2" height="17.5"/>
	<g>
		<path class="st0" d="M258.5,55.6c-1.2,0-2.5,0.4-3.5,1.3c-1,0.9-1.6,2.2-1.7,3.6c-0.1,1.4,0.4,2.7,1.3,3.7c0.9,1,2.2,1.6,3.6,1.7
			c1.4,0.1,2.7-0.4,3.7-1.3c1-0.9,1.6-2.2,1.7-3.6c0.1-1.4-0.4-2.7-1.3-3.7C261.3,56.2,259.9,55.6,258.5,55.6 M258.5,67.2
			c-0.1,0-0.2,0-0.4,0c-1.7-0.1-3.3-0.8-4.4-2.1c-1.1-1.3-1.7-2.9-1.6-4.6c0.1-1.7,0.8-3.3,2.1-4.4c2.6-2.4,6.7-2.1,9.1,0.5
			c1.1,1.3,1.7,2.9,1.6,4.6c-0.1,1.7-0.8,3.3-2.1,4.4C261.6,66.6,260.1,67.2,258.5,67.2"/>
	</g>
	<rect x="245.4" y="32.3" transform="matrix(0.869 -0.4948 0.4948 0.869 16.4176 127.8749)" class="st0" width="8.6" height="1.2"/>
	<rect x="229.2" y="50.2" transform="matrix(0.537 -0.8436 0.8436 0.537 65.2373 220.4715)" class="st0" width="8.6" height="1.2"/>
	<g>
		<path class="st0" d="M256,27.1c-0.3,0-0.6,0.1-0.9,0.2c-0.9,0.5-1.2,1.7-0.7,2.6c0.5,0.9,1.7,1.2,2.6,0.7c0.9-0.5,1.2-1.7,0.7-2.6
			C257.3,27.5,256.6,27.1,256,27.1 M256,32.1c-1.1,0-2.1-0.6-2.7-1.6c-0.9-1.5-0.3-3.4,1.2-4.2c1.5-0.9,3.4-0.3,4.2,1.2
			c0.9,1.5,0.3,3.4-1.2,4.2v0C257,32,256.5,32.1,256,32.1"/>
		<path class="st0" d="M229.8,54.5c-0.3,0-0.6,0.1-0.9,0.2c-0.4,0.2-0.8,0.7-0.9,1.1c-0.1,0.5-0.1,1,0.2,1.4
			c0.5,0.9,1.7,1.2,2.6,0.7c0.9-0.5,1.2-1.7,0.7-2.6c-0.2-0.4-0.7-0.8-1.1-0.9C230.1,54.5,229.9,54.5,229.8,54.5 M229.8,59.5
			c-1.1,0-2.1-0.6-2.7-1.6c-0.4-0.7-0.5-1.6-0.3-2.4c0.2-0.8,0.7-1.5,1.5-1.9c0.7-0.4,1.6-0.5,2.4-0.3c0.8,0.2,1.5,0.7,1.9,1.5
			c0.9,1.5,0.3,3.4-1.2,4.2C230.8,59.4,230.3,59.5,229.8,59.5"/>
	</g>
	<rect x="238.8" y="17.8" class="st0" width="1.2" height="10.4"/>
</g>
</svg>
