<?xml version="1.0" encoding="utf-8"?>
<!-- Generator: Adobe Illustrator 24.1.2, SVG Export Plug-In . SVG Version: 6.00 Build 0)  -->
<svg version="1.1" id="Camada_1" xmlns="http://www.w3.org/2000/svg" xmlns:xlink="http://www.w3.org/1999/xlink" x="0px" y="0px"
	 viewBox="0 0 382.1 125.6" style="enable-background:new 0 0 382.1 125.6;" xml:space="preserve">
<style type="text/css">
	.st0{fill:#A1DAF8;}
	.st1{fill:#2C528B;}
	.st2{fill:#9D9D9C;}
</style>
<g>
	<polygon class="st0" points="263.7,18.1 259.8,18.1 259.8,15.4 270.7,15.4 270.7,18.1 266.8,18.1 266.8,28.1 263.7,28.1 	"/>
	<polygon class="st0" points="271.8,15.4 279.8,15.4 279.8,18.1 275,18.1 275,20.4 278.9,20.4 278.9,23.1 275,23.1 275,25.5 
		280.1,25.5 280.1,28.1 271.8,28.1 	"/>
	<g>
		<path class="st0" d="M286.4,21.2c1,0,1.6-0.6,1.6-1.6c0-1-0.4-1.5-1.9-1.5H285v3.1H286.4z M281.9,15.4h4.4c1.3,0,1.9,0.1,2.5,0.3
			c1.4,0.6,2.4,1.9,2.4,3.7c0,1.4-0.6,2.8-1.9,3.5v0c0,0,0.2,0.2,0.5,0.8l2.5,4.5h-3.5l-2.3-4.3H285v4.3h-3.1V15.4z"/>
		<path class="st0" d="M294.3,15.4h3.4l1.9,5.4c0.3,0.8,0.6,2.1,0.6,2.1h0c0,0,0.4-1.3,0.6-2.1l1.9-5.4h3.4l1,12.8h-3.1l-0.4-5.7
			c-0.1-1,0-2.1,0-2.1h0c0,0-0.4,1.3-0.7,2.1l-1.3,3.7h-2.7l-1.3-3.7c-0.3-0.8-0.7-2.1-0.7-2.1h0c0,0,0.1,1.2,0,2.1l-0.4,5.7h-3.1
			L294.3,15.4z"/>
	</g>
	<rect x="309.3" y="15.4" class="st0" width="3.1" height="12.8"/>
	<g>
		<path class="st0" d="M315,15.4h3.2l3.5,6c0.5,0.8,1.1,2.2,1.1,2.2h0c0,0-0.1-1.4-0.1-2.2v-6h3.1v12.8h-3.1l-3.6-5.9
			c-0.5-0.8-1.1-2.2-1.1-2.2h0c0,0,0.1,1.4,0.1,2.2v5.9H315V15.4z"/>
		<path class="st0" d="M332.7,18.3c0,0-0.3,1.4-0.5,2.2l-0.7,2.5h2.5l-0.7-2.5C333.1,19.7,332.8,18.3,332.7,18.3L332.7,18.3z
			 M334.7,25.5h-4l-0.8,2.7h-3.2l4.3-12.8h3.3l4.3,12.8h-3.2L334.7,25.5z"/>
	</g>
	<polygon class="st0" points="339.7,15.4 342.8,15.4 342.8,25.5 348,25.5 348,28.1 339.7,28.1 	"/>
	<g>
		<path class="st0" d="M265.7,44.6c2.2,0,3.5-1.3,3.5-3.7c0-2.4-1.4-3.7-3.5-3.7h-1.3v7.4H265.7z M261.3,34.6h4.5
			c4,0,6.6,2.3,6.6,6.4c0,4-2.6,6.4-6.6,6.4h-4.5V34.6z"/>
	</g>
	<polygon class="st0" points="274.1,34.6 282.1,34.6 282.1,37.2 277.3,37.2 277.3,39.5 281.2,39.5 281.2,42.2 277.3,42.2 
		277.3,44.6 282.4,44.6 282.4,47.3 274.1,47.3 	"/>
	<g>
		<path class="st0" d="M293.7,34.3c3.2,0,4.8,1.8,4.8,1.8l-1.4,2.4c0,0-1.4-1.3-3.2-1.3c-2.4,0-3.6,1.8-3.6,3.6
			c0,1.9,1.2,3.8,3.6,3.8c1.9,0,3.4-1.6,3.4-1.6l1.6,2.3c0,0-1.8,2.1-5.1,2.1c-4,0-6.7-2.8-6.7-6.6C287,37.2,289.8,34.3,293.7,34.3"
			/>
		<path class="st0" d="M304.6,37.5c0,0-0.3,1.4-0.5,2.2l-0.7,2.5h2.5l-0.7-2.5C304.9,38.9,304.7,37.5,304.6,37.5L304.6,37.5z
			 M306.6,44.6h-4l-0.8,2.7h-3.2l4.3-12.8h3.3l4.3,12.8h-3.2L306.6,44.6z"/>
		<path class="st0" d="M316.1,40.3c1,0,1.6-0.6,1.6-1.6c0-1-0.4-1.5-1.9-1.5h-1.1v3.1H316.1z M311.6,34.6h4.4c1.3,0,1.9,0.1,2.5,0.3
			c1.4,0.6,2.4,1.9,2.4,3.7c0,1.4-0.6,2.8-1.9,3.5v0c0,0,0.2,0.2,0.5,0.8l2.5,4.5h-3.5l-2.3-4.3h-1.5v4.3h-3.1V34.6z"/>
		<path class="st0" d="M329.1,34.3c3.3,0,4.9,1.7,4.9,1.7l-1.5,2.3c0,0-1.3-1.2-3.1-1.2c-2.7,0-3.8,1.7-3.8,3.6
			c0,2.4,1.7,3.9,3.7,3.9c1.5,0,2.6-0.9,2.6-0.9v-1h-1.8v-2.7h4.6v7.2h-2.6V47c0-0.3,0-0.5,0-0.5h0c0,0-1.2,1.1-3.4,1.1
			c-3.3,0-6.3-2.4-6.3-6.6C322.4,37.2,325.2,34.3,329.1,34.3"/>
		<path class="st0" d="M341,37.5c0,0-0.3,1.4-0.5,2.2l-0.7,2.5h2.5l-0.7-2.5C341.3,38.9,341,37.5,341,37.5L341,37.5z M343,44.6h-4
			l-0.8,2.7H335l4.3-12.8h3.3l4.3,12.8h-3.2L343,44.6z"/>
		<path class="st1" d="M267.9,82.9h-1.1c-0.3,0-0.2-0.1-0.3-0.4l-0.6-2h-3.5l-0.6,2c-0.1,0.3-0.1,0.4-0.4,0.4h-1
			c-0.2,0-0.2,0-0.1-0.5l2.8-9.3c0.1-0.3,0.2-0.4,0.5-0.4h1.1c0.3,0,0.4,0.1,0.5,0.4l2.8,9.3C268.4,82.9,268.2,82.9,267.9,82.9
			 M264.2,74.7l-1.4,4.7h2.7L264.2,74.7z"/>
		<path class="st1" d="M275,79.6h-4.1c0,1.6,0.8,2.3,2.1,2.3c1.1,0,1.8-0.2,2.1-0.3c0.3-0.1,0.4,0,0.4,0.1v0.7
			c0,0.3-0.1,0.3-0.5,0.4c-0.2,0.1-1.2,0.2-2.1,0.2c-2.4,0-3.6-1.1-3.6-3.8c0-2.7,1.1-4,3.2-4c1.9,0,3.1,1.1,3.1,2.9V79
			C275.6,79.4,275.5,79.6,275,79.6 M272.5,76.2c-1.1,0-1.6,0.9-1.6,2.1c0,0.2,0,0.3,0.2,0.3h2.8c0.1,0,0.2-0.1,0.2-0.3
			C274,77,273.6,76.2,272.5,76.2"/>
		<path class="st1" d="M280.9,76.3c0,0.1-0.1,0.2-0.2,0.2c-0.4,0-0.8,0.1-1.1,0.3c-0.6,0.4-1.1,0.9-1.1,1.3v4.2c0,0.4,0,0.5-0.3,0.5
			h-0.9c-0.3,0-0.4-0.2-0.4-0.5v-6.6c0-0.3,0.1-0.4,0.3-0.4h0.9c0.2,0,0.3,0.1,0.3,0.4v0.7c0.6-0.8,1.4-1.2,2.2-1.2
			c0.1,0,0.2,0,0.2,0.2L280.9,76.3z"/>
		<path class="st1" d="M285.2,83.1c-2.2,0-3.4-0.9-3.4-3.9c0-2.9,1.4-4,3.5-4c2.1,0,3.3,1.1,3.3,4C288.5,81.7,287.2,83.1,285.2,83.1
			 M286.9,78.4c0-1.2-0.4-2.1-1.7-2.1c-1,0-1.8,0.7-1.8,2.2v1.4c0,1.5,0.8,2.1,1.8,2.1c1.1,0,1.7-0.9,1.7-2.3V78.4z"/>
		<path class="st1" d="M293.8,83.1c-1.1,0-1.8-0.3-2.3-0.9v3.2c0,0.3-0.1,0.5-0.3,0.5h-0.9c-0.3,0-0.4-0.1-0.4-0.5v-9.5
			c0-0.3,0-0.5,0.4-0.5h0.9c0.2,0,0.3,0.1,0.3,0.4v0.5c0.5-0.8,1.4-1.1,2.3-1.1c1.6,0,2.4,1.5,2.4,3.9
			C296.3,82,295.2,83.1,293.8,83.1 M294.6,78.6c0-1.4-0.5-2.4-1.5-2.4c-1.1,0-1.5,1-1.5,1.7v2.7c0,0.4,0.6,1.3,1.5,1.3
			c1,0,1.5-0.8,1.5-2.2V78.6z"/>
		<path class="st1" d="M300.9,83.1c-2.2,0-3.4-0.9-3.4-3.9c0-2.9,1.4-4,3.5-4c2.1,0,3.3,1.1,3.3,4C304.2,81.7,303,83.1,300.9,83.1
			 M302.6,78.4c0-1.2-0.4-2.1-1.7-2.1c-1,0-1.8,0.7-1.8,2.2v1.4c0,1.5,0.8,2.1,1.8,2.1c1.1,0,1.7-0.9,1.7-2.3V78.4z"/>
		<path class="st1" d="M309.6,76.3c0,0.1-0.1,0.2-0.2,0.2c-0.4,0-0.8,0.1-1.1,0.3c-0.6,0.4-1.1,0.9-1.1,1.3v4.2c0,0.4,0,0.5-0.3,0.5
			H306c-0.3,0-0.4-0.2-0.4-0.5v-6.6c0-0.3,0.1-0.4,0.3-0.4h0.9c0.2,0,0.3,0.1,0.3,0.4v0.7c0.6-0.8,1.4-1.2,2.2-1.2
			c0.1,0,0.2,0,0.2,0.2L309.6,76.3z"/>
		<path class="st1" d="M314,76.7h-1.3v4.5c0,0.5,0.2,0.7,0.6,0.7c0.3,0,0.4,0,0.7-0.1c0.2,0,0.3,1,0.1,1c-0.2,0.1-0.8,0.2-1.3,0.2
			c-1.3,0-1.7-0.9-1.7-1.8v-4.6h-0.7c-0.2,0-0.2-0.1-0.2-0.3v-0.5c0-0.2,0-0.3,0.3-0.3h0.7v-1.4c0-0.2,0.2-0.3,0.4-0.3l0.8-0.1
			c0.3-0.1,0.4,0.1,0.4,0.3v1.5h1.3c0.3,0,0.3,0.1,0.3,0.3v0.5C314.4,76.6,314.3,76.7,314,76.7"/>
		<path class="st1" d="M318.8,83.1c-2.2,0-3.4-0.9-3.4-3.9c0-2.9,1.4-4,3.5-4c2.1,0,3.3,1.1,3.3,4C322.1,81.7,320.9,83.1,318.8,83.1
			 M320.5,78.4c0-1.2-0.4-2.1-1.7-2.1c-1,0-1.8,0.7-1.8,2.2v1.4c0,1.5,0.8,2.1,1.8,2.1c1.1,0,1.7-0.9,1.7-2.3V78.4z"/>
		<path class="st1" d="M261.7,96.3h-1.1c-0.3,0-0.3-0.1-0.3-0.4v-9.5c0-0.3,0.1-0.3,0.4-0.3h1c0.2,0,0.3,0.1,0.3,0.4V96
			C262,96.2,262,96.3,261.7,96.3"/>
		<path class="st1" d="M269.5,96.3h-0.9c-0.2,0-0.4-0.2-0.4-0.5v-4.4c0-0.7-0.3-1.4-1.3-1.4c-1.1,0-1.5,0.9-1.5,1.6v4.2
			c0,0.4,0,0.5-0.3,0.5h-0.9c-0.3,0-0.4-0.2-0.4-0.5v-6.6c0-0.3,0.1-0.4,0.3-0.4h0.9c0.2,0,0.3,0.2,0.3,0.9c0.5-0.7,1.2-1,2.2-1
			c1.2,0,2.2,0.6,2.2,2.4v4.6C269.8,96.1,269.8,96.3,269.5,96.3"/>
		<path class="st1" d="M274.9,90.1h-1.3v4.5c0,0.5,0.2,0.7,0.6,0.7c0.3,0,0.4,0,0.7-0.1c0.2,0,0.3,1,0.1,1c-0.2,0.1-0.8,0.2-1.3,0.2
			c-1.3,0-1.7-0.9-1.7-1.8v-4.6h-0.7c-0.2,0-0.2-0.1-0.2-0.3v-0.5c0-0.2,0-0.3,0.3-0.3h0.7v-1.4c0-0.2,0.2-0.3,0.4-0.3l0.8-0.1
			c0.3-0.1,0.4,0.1,0.4,0.3V89h1.3c0.3,0,0.3,0.1,0.3,0.3v0.5C275.3,90,275.2,90.1,274.9,90.1"/>
		<path class="st1" d="M282,93h-4.1c0,1.6,0.8,2.3,2.1,2.3c1.1,0,1.8-0.2,2.1-0.3c0.3-0.1,0.4,0,0.4,0.1v0.7c0,0.3-0.1,0.3-0.5,0.4
			c-0.2,0.1-1.2,0.2-2.1,0.2c-2.4,0-3.6-1.1-3.6-3.8c0-2.7,1.1-4,3.2-4c1.9,0,3.1,1.1,3.1,2.9v0.9C282.6,92.8,282.5,93,282,93
			 M279.5,89.6c-1.1,0-1.6,0.9-1.6,2.1c0,0.2,0,0.3,0.2,0.3h2.8c0.1,0,0.2-0.1,0.2-0.3C281,90.4,280.6,89.6,279.5,89.6"/>
		<path class="st1" d="M287.9,89.7c0,0.1-0.1,0.2-0.2,0.2c-0.4,0-0.8,0.1-1.1,0.3c-0.6,0.4-1.1,0.9-1.1,1.3v4.2c0,0.4,0,0.5-0.3,0.5
			h-0.9c-0.3,0-0.4-0.2-0.4-0.5v-6.6c0-0.3,0.1-0.4,0.3-0.4h0.9c0.2,0,0.3,0.1,0.3,0.4v0.7c0.6-0.8,1.4-1.2,2.2-1.2
			c0.1,0,0.2,0,0.2,0.2L287.9,89.7z"/>
		<path class="st1" d="M294.6,96.3h-0.9c-0.2,0-0.4-0.2-0.4-0.5v-4.4c0-0.7-0.3-1.4-1.3-1.4c-1.1,0-1.5,0.9-1.5,1.6v4.2
			c0,0.4,0,0.5-0.3,0.5h-0.9c-0.3,0-0.4-0.2-0.4-0.5v-6.6c0-0.3,0.1-0.4,0.3-0.4h0.9c0.2,0,0.3,0.2,0.3,0.9c0.5-0.7,1.2-1,2.2-1
			c1.2,0,2.2,0.6,2.2,2.4v4.6C294.9,96.1,294.9,96.3,294.6,96.3"/>
		<path class="st1" d="M302.4,96.3h-0.9c-0.2,0-0.3,0-0.3-0.4v-0.6c-0.3,0.6-1.2,1.1-2.3,1.1c-1.4,0-2.5-1.1-2.5-3.9
			c0-2.5,0.9-4,2.5-4c1.2,0,1.9,0.4,2.3,1.2v-0.6c0-0.2,0.1-0.3,0.3-0.3h0.9c0.4,0,0.4,0.1,0.4,0.4v6.5
			C302.7,96.1,302.7,96.3,302.4,96.3 M301,91.4c0-0.6-0.4-1.8-1.5-1.8c-1,0-1.5,0.7-1.5,2.3v1.2c0,1.4,0.5,2.2,1.5,2.2
			c0.9,0,1.5-1,1.5-1.4V91.4z"/>
		<path class="st1" d="M307.5,96.5c-2.2,0-3.4-0.9-3.4-3.9c0-2.9,1.4-4,3.5-4c1.2,0,2,0.3,2.6,1c0.2,0.3-1,1.1-1.1,0.8
			c-0.3-0.4-0.7-0.8-1.4-0.8c-1,0-1.8,0.7-1.8,2.2v1.4c0,1.5,0.8,2.1,1.8,2.1c0.6,0,1.1-0.4,1.4-0.9c0.1-0.3,1.3,0.2,1.2,0.5
			C309.7,95.9,308.8,96.5,307.5,96.5"/>
		<path class="st1" d="M312.6,87.5h-0.9c-0.3,0-0.3-0.1-0.3-0.5v-0.5c0-0.3,0.1-0.4,0.4-0.4h0.9c0.3,0,0.3,0.2,0.3,0.5V87
			C312.8,87.4,312.8,87.5,312.6,87.5 M312.6,96.3h-1c-0.3,0-0.3-0.1-0.3-0.5v-6.6c0-0.3,0.1-0.4,0.3-0.4h0.9c0.3,0,0.3,0.1,0.3,0.4
			v6.6C312.8,96.2,312.8,96.3,312.6,96.3"/>
		<path class="st1" d="M317.7,96.5c-2.2,0-3.4-0.9-3.4-3.9c0-2.9,1.4-4,3.5-4c2.1,0,3.3,1.1,3.3,4C321,95.1,319.8,96.5,317.7,96.5
			 M319.4,91.8c0-1.2-0.4-2.1-1.7-2.1c-1,0-1.8,0.7-1.8,2.2v1.4c0,1.5,0.8,2.1,1.8,2.1c1.1,0,1.7-0.9,1.7-2.3V91.8z"/>
		<path class="st1" d="M328.1,96.3h-0.9c-0.2,0-0.4-0.2-0.4-0.5v-4.4c0-0.7-0.4-1.4-1.3-1.4c-1.1,0-1.6,0.9-1.6,1.6v4.2
			c0,0.4,0,0.5-0.3,0.5h-0.9c-0.3,0-0.4-0.2-0.4-0.5v-6.6c0-0.3,0.1-0.4,0.3-0.4h0.9c0.2,0,0.3,0.2,0.3,0.9c0.5-0.7,1.2-1,2.2-1
			c1.2,0,2.2,0.6,2.2,2.4v4.6C328.4,96.1,328.4,96.3,328.1,96.3"/>
		<path class="st1" d="M335.8,96.3H335c-0.2,0-0.3,0-0.3-0.4v-0.6c-0.3,0.6-1.2,1.1-2.3,1.1c-1.4,0-2.5-1.1-2.5-3.9
			c0-2.5,0.9-4,2.5-4c1.2,0,1.9,0.4,2.3,1.2v-0.6c0-0.2,0.1-0.3,0.3-0.3h0.9c0.4,0,0.4,0.1,0.4,0.4v6.5
			C336.2,96.1,336.1,96.3,335.8,96.3 M334.5,91.4c0-0.6-0.4-1.8-1.5-1.8c-0.9,0-1.5,0.7-1.5,2.3v1.2c0,1.4,0.5,2.2,1.5,2.2
			c1,0,1.5-1,1.5-1.4V91.4z"/>
		<path class="st1" d="M339.1,96.3h-0.9c-0.3,0-0.3-0.1-0.3-0.5v-9.5c0-0.3,0.1-0.4,0.3-0.4h0.9c0.3,0,0.3,0.1,0.3,0.4v9.5
			C339.3,96.2,339.3,96.3,339.1,96.3"/>
		<path class="st1" d="M349.1,96.3h-0.9c-0.2,0-0.3,0-0.3-0.4v-0.4c-0.5,0.6-1.2,0.9-2.3,0.9c-1.4,0-2.4-1.1-2.4-3.9
			c0-2.5,0.9-4,2.5-4c1.1,0,1.8,0.3,2.3,1.1v-3.3c0-0.3,0.1-0.5,0.3-0.5h0.9c0.4,0,0.4,0.1,0.4,0.4v9.4
			C349.5,96.1,349.4,96.3,349.1,96.3 M347.8,91.4c0-0.7-0.4-1.7-1.5-1.7c-0.9,0-1.5,0.9-1.5,2.3v1.2c0,1.4,0.5,2.2,1.5,2.2
			c0.9,0,1.5-0.9,1.5-1.3V91.4z"/>
		<path class="st1" d="M356.6,93h-4.1c0,1.6,0.8,2.3,2.1,2.3c1.1,0,1.8-0.2,2.1-0.3c0.3-0.1,0.4,0,0.4,0.1v0.7
			c0,0.3-0.1,0.3-0.5,0.4c-0.2,0.1-1.2,0.2-2.1,0.2c-2.4,0-3.6-1.1-3.6-3.8c0-2.7,1.1-4,3.2-4c1.9,0,3.1,1.1,3.1,2.9v0.9
			C357.2,92.8,357.2,93,356.6,93 M354.1,89.6c-1.1,0-1.6,1-1.6,2.1c0,0.2,0,0.3,0.2,0.3h2.8c0.1,0,0.2-0.1,0.2-0.3
			C355.7,90.4,355.3,89.6,354.1,89.6"/>
		<path class="st1" d="M263.7,109.8h-3.1c-0.3,0-0.3-0.1-0.3-0.4V100c0-0.3,0-0.5,0.3-0.5h2.7c2.4,0,3.7,0.7,3.7,2.6
			c0,1.3-0.7,2.1-1.6,2.4c1,0.3,1.8,0.9,1.8,2.5C267.2,108.8,266.2,109.8,263.7,109.8 M263.3,100.7h-1.1c-0.2,0-0.3,0.1-0.3,0.3v2.7
			c0,0.2,0.1,0.3,0.3,0.3h1.1c1.5,0,2.1-0.5,2.1-1.6C265.4,101.1,264.7,100.7,263.3,100.7 M263.4,105.2h-1.1c-0.2,0-0.3,0.1-0.3,0.3
			v2.8c0,0.1,0,0.3,0.3,0.3h1.1c1.5,0,2.2-0.4,2.2-1.6C265.6,105.8,264.7,105.2,263.4,105.2"/>
		<path class="st1" d="M274.2,106.5h-4.1c0,1.6,0.8,2.3,2.1,2.3c1.1,0,1.8-0.2,2.1-0.3c0.3-0.1,0.4,0,0.4,0.1v0.7
			c0,0.3-0.1,0.3-0.5,0.4c-0.2,0.1-1.2,0.2-2.1,0.2c-2.4,0-3.6-1.1-3.6-3.8c0-2.7,1.1-4,3.2-4c1.9,0,3.1,1.1,3.1,2.9v0.9
			C274.8,106.3,274.8,106.5,274.2,106.5 M271.7,103.1c-1.1,0-1.6,1-1.6,2.1c0,0.2,0,0.3,0.2,0.3h2.8c0.1,0,0.2-0.1,0.2-0.3
			C273.3,103.8,272.9,103.1,271.7,103.1"/>
		<path class="st1" d="M277.5,109.8h-0.9c-0.3,0-0.3-0.1-0.3-0.5v-9.5c0-0.3,0.1-0.4,0.3-0.4h0.9c0.3,0,0.3,0.1,0.3,0.4v9.5
			C277.8,109.6,277.8,109.8,277.5,109.8"/>
		<path class="st1" d="M282.6,109.9c-2.2,0-3.4-0.9-3.4-3.9c0-2.9,1.4-4,3.5-4c2.1,0,3.3,1.1,3.3,4
			C286,108.6,284.7,109.9,282.6,109.9 M284.4,105.3c0-1.2-0.4-2.1-1.7-2.1c-1,0-1.8,0.7-1.8,2.2v1.4c0,1.5,0.8,2.1,1.8,2.1
			c1.1,0,1.7-0.9,1.7-2.3V105.3z"/>
		<path class="st1" d="M297.7,109.8h-1c-0.2,0-0.3-0.1-0.3-0.4v-4c0-0.3,0-0.3-0.3-0.3h-3.6c-0.2,0-0.2,0-0.2,0.2v4
			c0,0.4-0.1,0.4-0.4,0.4h-1c-0.2,0-0.3-0.1-0.3-0.5v-9.3c0-0.3,0.1-0.4,0.3-0.4h1c0.3,0,0.4,0.1,0.4,0.5v3.5c0,0.2,0.1,0.3,0.3,0.3
			h3.6c0.2,0,0.2-0.1,0.2-0.2v-3.6c0-0.3,0.1-0.4,0.4-0.4h1c0.3,0,0.3,0.1,0.3,0.4v9.4C298,109.7,298,109.8,297.7,109.8"/>
		<path class="st1" d="M303.1,109.9c-2.2,0-3.4-0.9-3.4-3.9c0-2.9,1.4-4,3.5-4c2.1,0,3.3,1.1,3.3,4
			C306.4,108.6,305.2,109.9,303.1,109.9 M304.8,105.3c0-1.2-0.4-2.1-1.7-2.1c-1,0-1.8,0.7-1.8,2.2v1.4c0,1.5,0.8,2.1,1.8,2.1
			c1.1,0,1.7-0.9,1.7-2.3V105.3z"/>
		<path class="st1" d="M311.8,103.2c0,0.1-0.1,0.2-0.2,0.2c-0.4,0-0.8,0.1-1.1,0.3c-0.6,0.4-1.1,0.9-1.1,1.3v4.2
			c0,0.4,0,0.5-0.3,0.5h-0.9c-0.3,0-0.4-0.2-0.4-0.5v-6.6c0-0.3,0.1-0.4,0.3-0.4h0.9c0.2,0,0.3,0.1,0.3,0.4v0.7
			c0.6-0.8,1.4-1.2,2.2-1.2c0.1,0,0.2,0,0.2,0.2L311.8,103.2z"/>
		<path class="st1" d="M314.1,100.9h-0.9c-0.3,0-0.4-0.1-0.4-0.5V100c0-0.3,0.1-0.4,0.4-0.4h0.9c0.3,0,0.3,0.2,0.3,0.5v0.5
			C314.3,100.8,314.3,100.9,314.1,100.9 M314.1,109.8h-1c-0.3,0-0.3-0.1-0.3-0.5v-6.6c0-0.3,0.1-0.4,0.3-0.4h0.9
			c0.3,0,0.3,0.1,0.3,0.4v6.6C314.3,109.6,314.3,109.8,314.1,109.8"/>
		<path class="st1" d="M320.9,109.8H316c-0.7,0-0.6-0.3-0.4-0.7l3.4-5.8H316c-0.3,0-0.3,0-0.3-0.3v-0.5c0-0.2,0.1-0.3,0.3-0.3h4.8
			c0.5,0,0.6,0.1,0.4,0.5l-3.6,6h3.3c0.3,0,0.4,0,0.4,0.3v0.5C321.2,109.7,321.2,109.8,320.9,109.8"/>
		<path class="st1" d="M325.6,109.9c-2.2,0-3.4-0.9-3.4-3.9c0-2.9,1.4-4,3.5-4c2.1,0,3.3,1.1,3.3,4
			C328.9,108.6,327.7,109.9,325.6,109.9 M327.3,105.3c0-1.2-0.4-2.1-1.7-2.1c-1,0-1.8,0.7-1.8,2.2v1.4c0,1.5,0.8,2.1,1.8,2.1
			c1.1,0,1.7-0.9,1.7-2.3V105.3z"/>
		<path class="st1" d="M336,109.8h-0.9c-0.2,0-0.4-0.2-0.4-0.5v-4.4c0-0.7-0.3-1.4-1.3-1.4c-1.1,0-1.6,0.9-1.6,1.6v4.2
			c0,0.4,0,0.5-0.3,0.5h-0.9c-0.3,0-0.4-0.2-0.4-0.5v-6.6c0-0.3,0.1-0.4,0.3-0.4h0.9c0.2,0,0.3,0.2,0.3,0.9c0.5-0.7,1.2-1,2.2-1
			c1.2,0,2.2,0.6,2.2,2.4v4.6C336.3,109.6,336.3,109.8,336,109.8"/>
		<path class="st1" d="M341.4,103.5h-1.3v4.5c0,0.5,0.2,0.7,0.6,0.7c0.3,0,0.4,0,0.7-0.1c0.1,0,0.3,1,0.1,1
			c-0.2,0.1-0.8,0.2-1.3,0.2c-1.3,0-1.7-0.9-1.7-1.8v-4.6h-0.7c-0.2,0-0.2-0.1-0.2-0.3v-0.5c0-0.2,0-0.3,0.3-0.3h0.7V101
			c0-0.3,0.2-0.3,0.4-0.3l0.8-0.1c0.3-0.1,0.4,0.1,0.4,0.4v1.5h1.3c0.3,0,0.3,0.1,0.3,0.3v0.5C341.8,103.4,341.7,103.5,341.4,103.5"
			/>
		<path class="st1" d="M348.5,106.5h-4.1c0,1.6,0.8,2.3,2.1,2.3c1.1,0,1.8-0.2,2.1-0.3c0.2-0.1,0.4,0,0.4,0.1v0.7
			c0,0.3-0.1,0.3-0.5,0.4c-0.2,0.1-1.2,0.2-2.1,0.2c-2.4,0-3.6-1.1-3.6-3.8c0-2.7,1.1-4,3.2-4c1.9,0,3.1,1.1,3.1,2.9v0.9
			C349.1,106.3,349,106.5,348.5,106.5 M346,103.1c-1.1,0-1.6,1-1.6,2.1c0,0.2,0,0.3,0.2,0.3h2.8c0.1,0,0.2-0.1,0.2-0.3
			C347.5,103.8,347.1,103.1,346,103.1"/>
	</g>
	<rect x="242.8" y="4.3" class="st2" width="0.2" height="117"/>
	<rect x="260.2" y="61.5" class="st2" width="108.9" height="0.2"/>
	<polygon class="st0" points="24.8,27.9 24.8,35.7 17.8,35.7 17.8,27.9 13,27.9 13,47.3 17.8,47.3 17.8,39.7 24.8,39.7 24.8,47.3 
		29.6,47.3 29.6,27.9 	"/>
	<g>
		<path class="st0" d="M33.2,27.9h4.8v12.3c0,2,1.3,3.1,3.4,3.1c2,0,3.4-1.1,3.4-3.1V27.9h4.8v12.3c0,4.4-3.2,7.5-8.1,7.5
			c-4.9,0-8.1-3.1-8.1-7.5V27.9z"/>
		<path class="st0" d="M60.6,43.2c1.4,0,2.1-1,2.1-2c0-1.1-0.7-2-2-2h-2.9v4H60.6z M60.2,35.4c1.2,0,1.7-0.9,1.7-1.8
			c0-0.9-0.5-1.7-1.8-1.7h-2.4v3.4H60.2z M53,27.9h7.1c3.9,0,6.6,1.7,6.6,5.1c0,1.6-0.8,3.3-2.3,4.1v0.1c2.2,0.7,3,2.7,3,4.4
			c0,4.2-3.5,5.8-7.4,5.8H53V27.9z"/>
	</g>
	<polygon class="st0" points="75.8,27.9 80.5,27.9 80.5,43.2 88.5,43.2 88.5,47.3 75.8,47.3 	"/>
	<g>
		<path class="st0" d="M99.1,43.3c2.9,0,5.2-2.5,5.2-5.8c0-3.2-2.3-5.6-5.2-5.6c-2.9,0-5.2,2.4-5.2,5.6
			C93.8,40.8,96.2,43.3,99.1,43.3 M99.1,27.6c5.9,0,10.2,4.3,10.2,9.9c0,5.7-4.3,10.2-10.2,10.2c-5.9,0-10.2-4.5-10.2-10.2
			C88.9,31.9,93.2,27.6,99.1,27.6"/>
		<path class="st0" d="M120.7,27.6c5,0,7.5,2.6,7.5,2.6l-2.3,3.6c0,0-2-1.8-4.7-1.8c-4.1,0-5.7,2.6-5.7,5.5c0,3.7,2.6,5.9,5.6,5.9
			c2.3,0,3.9-1.4,3.9-1.4v-1.5h-2.7v-4h6.9v11h-4v-0.5c0-0.4,0-0.8,0-0.8h-0.1c0,0-1.9,1.7-5.1,1.7c-5,0-9.5-3.7-9.5-10.1
			C110.5,31.9,114.7,27.6,120.7,27.6"/>
	</g>
	<path class="st0" d="M134.6,22.6h4.6l-3.2,4.1h-3.6L134.6,22.6z M132,27.9h4.8v19.4H132V27.9z"/>
	<g>
		<path class="st0" d="M141.7,41.3c0,0,2.2,2,4.6,2c1,0,2-0.4,2-1.5c0-2.3-8.7-2.2-8.7-8.2c0-3.6,3-5.9,6.9-5.9
			c4.2,0,6.2,2.2,6.2,2.2l-2,3.9c0,0-2-1.7-4.3-1.7c-1,0-2.1,0.4-2.1,1.5c0,2.4,8.7,2,8.7,8.1c0,3.2-2.5,6-6.8,6
			c-4.6,0-7.1-2.8-7.1-2.8L141.7,41.3z"/>
	</g>
	<polygon class="st0" points="159.4,32 153.5,32 153.5,27.9 170.1,27.9 170.1,32 164.2,32 164.2,47.3 159.4,47.3 	"/>
	<rect x="171.8" y="27.9" class="st0" width="4.8" height="19.4"/>
	<g>
		<path class="st0" d="M189.3,27.6c4.8,0,7.3,2.7,7.3,2.7l-2.2,3.6c0,0-2.2-2-4.9-2c-3.7,0-5.5,2.7-5.5,5.5c0,2.9,1.9,5.8,5.5,5.8
			c2.9,0,5.2-2.4,5.2-2.4l2.4,3.5c0,0-2.7,3.3-7.8,3.3c-6.1,0-10.2-4.3-10.2-10.1C179.1,31.9,183.4,27.6,189.3,27.6"/>
		<path class="st0" d="M208,43.3c2.9,0,5.2-2.5,5.2-5.8c0-3.2-2.3-5.6-5.2-5.6c-2.9,0-5.2,2.4-5.2,5.6
			C202.7,40.8,205.1,43.3,208,43.3 M208,27.6c5.9,0,10.2,4.3,10.2,9.9c0,5.7-4.3,10.2-10.2,10.2c-5.9,0-10.2-4.5-10.2-10.2
			C197.8,31.9,202.1,27.6,208,27.6"/>
		<path class="st0" d="M43.6,56.9h5.2l2.8,8.2c0.4,1.2,1,3.2,1,3.2h0.1c0,0,0.5-2,1-3.2l2.8-8.2h5.2l1.6,19.4h-4.8l-0.6-8.7
			c-0.1-1.5,0-3.3,0-3.3h-0.1c0,0-0.7,2-1.1,3.3l-2,5.6h-4.1l-2-5.6c-0.4-1.2-1.1-3.3-1.1-3.3h-0.1c0,0,0.1,1.8,0,3.3l-0.6,8.7H42
			L43.6,56.9z"/>
		<path class="st0" d="M66.2,56.9h4.8v12.3c0,2,1.3,3.1,3.4,3.1c2,0,3.4-1.1,3.4-3.1V56.9h4.8v12.3c0,4.4-3.2,7.5-8.1,7.5
			c-4.9,0-8.1-3.1-8.1-7.5V56.9z"/>
	</g>
	<polygon class="st0" points="86,56.9 90.8,56.9 90.8,72.2 98.7,72.2 98.7,76.3 86,76.3 	"/>
	<polygon class="st0" points="103,61 97.1,61 97.1,56.9 113.6,56.9 113.6,61 107.7,61 107.7,76.3 103,76.3 	"/>
	<rect x="115.3" y="56.9" class="st0" width="4.8" height="19.4"/>
	<g>
		<path class="st0" d="M125,56.9h5.2l2.8,8.2c0.4,1.2,1,3.2,1,3.2h0.1c0,0,0.5-2,1-3.2l2.8-8.2h5.2l1.6,19.4h-4.8l-0.6-8.7
			c-0.1-1.5,0-3.3,0-3.3h-0.1c0,0-0.7,2-1.1,3.3l-2,5.6h-4.1l-2-5.6c-0.4-1.2-1.1-3.3-1.1-3.3h-0.1c0,0,0.1,1.8,0,3.3l-0.6,8.7h-4.8
			L125,56.9z"/>
		<path class="st0" d="M156.6,72.3c2.9,0,5.2-2.5,5.2-5.8c0-3.2-2.3-5.6-5.2-5.6s-5.2,2.4-5.2,5.6C151.4,69.8,153.7,72.3,156.6,72.3
			 M156.6,56.6c5.9,0,10.2,4.3,10.2,9.9c0,5.7-4.3,10.2-10.2,10.2c-5.9,0-10.2-4.5-10.2-10.2C146.5,60.9,150.8,56.6,156.6,56.6"/>
		<path class="st0" d="M176,72.2c3.3,0,5.3-2,5.3-5.7c0-3.7-2.1-5.6-5.3-5.6h-2v11.3H176z M169.3,56.9h6.9c6.1,0,10,3.6,10,9.7
			c0,6.1-3.9,9.7-10,9.7h-6.9V56.9z"/>
		<path class="st0" d="M195.5,61.3c0,0-0.4,2.1-0.8,3.3l-1.1,3.8h3.8l-1.1-3.8C196,63.4,195.5,61.3,195.5,61.3L195.5,61.3z
			 M198.5,72.2h-6.1l-1.2,4.1h-4.9l6.6-19.4h5l6.6,19.4h-4.9L198.5,72.2z"/>
	</g>
	<polygon class="st0" points="206.1,56.9 210.8,56.9 210.8,72.2 218.8,72.2 218.8,76.3 206.1,76.3 	"/>
	<rect x="54.8" y="95.3" class="st2" width="0.7" height="11"/>
	<g>
		<path class="st2" d="M58.9,95.3h0.6l6.3,8.6c0.4,0.5,0.9,1.4,0.9,1.4h0c0,0-0.1-0.8-0.1-1.4v-8.6h0.7v11h-0.6l-6.3-8.6
			c-0.4-0.5-0.9-1.4-0.9-1.4h0c0,0,0.1,0.8,0.1,1.4v8.6h-0.7V95.3z"/>
	</g>
	<polygon class="st2" points="73.3,96 69.2,96 69.2,95.3 78.1,95.3 78.1,96 73.9,96 73.9,106.3 73.3,106.3 	"/>
	<polygon class="st2" points="79.9,95.3 85.9,95.3 85.9,96 80.6,96 80.6,100.5 84.9,100.5 84.9,101.1 80.6,101.1 80.6,105.7 
		86.2,105.7 86.2,106.3 79.9,106.3 	"/>
	<g>
		<path class="st2" d="M93.5,95.1c2.5,0,3.8,1.2,3.8,1.2l-0.4,0.5c0,0-1.3-1.1-3.4-1.1c-2.8,0-4.8,2.2-4.8,5c0,2.9,2,5,4.7,5
			c2.4,0,3.8-1.8,3.8-1.8V102h-2v-0.6h2.6v5h-0.7v-1c0-0.2,0-0.5,0-0.5h0c0,0-1.3,1.6-3.8,1.6c-3.1,0-5.4-2.5-5.4-5.7
			C88,97.7,90.4,95.1,93.5,95.1"/>
		<path class="st2" d="M104.3,100.8c1.4,0,2.4-1,2.4-2.5c0-1-0.5-1.8-1.3-2.1c-0.3-0.1-0.7-0.2-1.5-0.2h-2.5v4.9H104.3z M100.7,95.3
			h3.2c1,0,1.5,0.1,2,0.3c0.9,0.5,1.5,1.4,1.5,2.6c0,1.6-0.9,2.8-2.2,3v0c0,0,0.1,0.1,0.3,0.4l2.5,4.6h-0.8l-2.6-4.9h-3.2v4.9h-0.7
			V95.3z"/>
		<path class="st2" d="M113.5,96.1c0,0-0.2,0.8-0.4,1.3l-1.7,4.5h4.2l-1.7-4.5C113.7,97,113.5,96.1,113.5,96.1L113.5,96.1z
			 M115.8,102.5h-4.7l-1.4,3.8H109l4.1-11h0.7l4.1,11h-0.7L115.8,102.5z"/>
		<path class="st2" d="M123.3,105.7c2.9,0,4.9-1.7,4.9-4.9c0-3.1-2-4.9-4.9-4.9h-2.7v9.8H123.3z M119.9,95.3h3.5
			c3.3,0,5.5,2,5.5,5.5c0,3.5-2.2,5.5-5.5,5.5h-3.5V95.3z"/>
		<path class="st2" d="M136.4,105.9c2.7,0,4.9-2.2,4.9-5.1c0-2.8-2.2-5-4.9-5c-2.7,0-4.9,2.2-4.9,5
			C131.5,103.7,133.7,105.9,136.4,105.9 M136.4,95.1c3.1,0,5.6,2.5,5.6,5.6c0,3.2-2.5,5.8-5.6,5.8c-3.1,0-5.6-2.5-5.6-5.8
			C130.8,97.6,133.3,95.1,136.4,95.1"/>
	</g>
	<rect x="143.6" y="105.4" class="st2" width="1" height="1"/>
	<g>
		<path class="st0" d="M156.8,95.1c2.5,0,3.8,1.2,3.8,1.2l-0.4,0.5c0,0-1.3-1.1-3.4-1.1c-2.8,0-4.8,2.2-4.8,5c0,2.9,2,5,4.7,5
			c2.4,0,3.8-1.8,3.8-1.8V102h-2v-0.6h2.6v5h-0.7v-1c0-0.2,0-0.5,0-0.5h0c0,0-1.3,1.6-3.8,1.6c-3.1,0-5.4-2.5-5.4-5.7
			C151.3,97.7,153.7,95.1,156.8,95.1"/>
	</g>
	<polygon class="st0" points="163.9,95.3 164.6,95.3 164.6,105.7 169.9,105.7 169.9,106.3 163.9,106.3 	"/>
	<g>
		<path class="st0" d="M176.1,105.9c2.7,0,4.9-2.2,4.9-5.1c0-2.8-2.2-5-4.9-5s-4.9,2.2-4.9,5C171.3,103.7,173.4,105.9,176.1,105.9
			 M176.1,95.1c3.1,0,5.6,2.5,5.6,5.6c0,3.2-2.5,5.8-5.6,5.8c-3.1,0-5.6-2.5-5.6-5.8C170.6,97.6,173.1,95.1,176.1,95.1"/>
		<path class="st0" d="M188.1,105.7c1.5,0,2.4-0.9,2.4-2.4s-1-2.4-2.4-2.4H185v4.8H188.1z M188,100.2c1.2,0,2.1-0.8,2.1-2.2
			c0-1.3-0.8-2.1-2.1-2.1h-3v4.3H188z M184.3,95.3h3.7c1.6,0,2.8,1.1,2.8,2.8c0,1.2-0.6,2-1.4,2.4v0c1.1,0.3,1.9,1.4,1.9,2.8
			c0,1.8-1.3,3-3.1,3h-3.9V95.3z"/>
		<path class="st0" d="M197.1,96.1c0,0-0.2,0.8-0.4,1.3l-1.7,4.5h4.2l-1.7-4.5C197.4,97,197.1,96.1,197.1,96.1L197.1,96.1z
			 M199.5,102.5h-4.7l-1.4,3.8h-0.7l4.1-11h0.7l4.1,11h-0.7L199.5,102.5z"/>
	</g>
	<polygon class="st0" points="203.6,95.3 204.3,95.3 204.3,105.7 209.5,105.7 209.5,106.3 203.6,106.3 	"/>
	<rect x="211.3" y="105.4" class="st0" width="1" height="1"/>
	<g>
		<path class="st0" d="M208,15c-1.3,0-2.4,1.1-2.4,2.4c0,1.3,1.1,2.4,2.4,2.4c1.3,0,2.4-1.1,2.4-2.4C210.4,16.1,209.3,15,208,15
			 M208,20.8c-1.9,0-3.4-1.5-3.4-3.4c0-1.9,1.5-3.4,3.4-3.4c1.9,0,3.4,1.5,3.4,3.4C211.5,19.3,209.9,20.8,208,20.8"/>
	</g>
	
		<rect x="215.8" y="40.5" transform="matrix(0.7444 -0.6677 0.6677 0.7444 23.2799 156.6861)" class="st0" width="1" height="14.8"/>
	<g>
		<path class="st0" d="M224.2,52.3c-1,0-2.1,0.4-2.9,1.1c-0.9,0.8-1.4,1.9-1.5,3c-0.1,1.2,0.3,2.3,1.1,3.2c0.8,0.9,1.9,1.4,3,1.5
			c1.2,0.1,2.3-0.3,3.2-1.1c0.9-0.8,1.4-1.9,1.5-3c0.1-1.2-0.3-2.3-1.1-3.2C226.6,52.8,225.4,52.3,224.2,52.3 M224.2,62.1
			c-0.1,0-0.2,0-0.3,0c-1.4-0.1-2.8-0.7-3.7-1.8c-1-1.1-1.5-2.5-1.4-3.9c0.1-1.4,0.7-2.8,1.8-3.7c2.2-2,5.7-1.8,7.7,0.4
			c1,1.1,1.5,2.5,1.4,3.9c-0.1,1.4-0.7,2.8-1.8,3.7C226.8,61.6,225.5,62.1,224.2,62.1"/>
	</g>
	<rect x="213.1" y="32.6" transform="matrix(0.869 -0.4948 0.4948 0.869 12.0093 111.5983)" class="st0" width="7.3" height="1"/>
	<rect x="199.4" y="47.7" transform="matrix(0.5372 -0.8435 0.8435 0.5372 53.2698 193.5693)" class="st0" width="7.3" height="1"/>
	<g>
		<path class="st0" d="M222.1,28.2c-0.3,0-0.5,0.1-0.8,0.2c-0.8,0.4-1,1.4-0.6,2.2c0.4,0.8,1.4,1,2.2,0.6c0.8-0.4,1-1.4,0.6-2.2
			C223.2,28.5,222.6,28.2,222.1,28.2 M222.1,32.5c-0.9,0-1.8-0.5-2.3-1.3c-0.7-1.3-0.3-2.9,1-3.6c1.3-0.7,2.9-0.3,3.6,1
			c0.7,1.3,0.3,2.9-1,3.6v0C223,32.3,222.5,32.5,222.1,32.5"/>
		<path class="st0" d="M199.9,51.4c-0.3,0-0.5,0.1-0.8,0.2c-0.4,0.2-0.6,0.6-0.7,1c-0.1,0.4-0.1,0.8,0.2,1.2c0.4,0.8,1.4,1,2.2,0.6
			c0.8-0.4,1-1.4,0.6-2.2c-0.2-0.4-0.6-0.6-1-0.7C200.2,51.4,200.1,51.4,199.9,51.4 M199.9,55.6c-0.9,0-1.8-0.5-2.3-1.3
			c-0.3-0.6-0.4-1.3-0.3-2c0.2-0.7,0.6-1.2,1.2-1.6c0.6-0.3,1.3-0.4,2-0.3c0.7,0.2,1.2,0.6,1.6,1.2c0.7,1.3,0.3,2.9-1,3.6v0
			C200.8,55.5,200.4,55.6,199.9,55.6"/>
	</g>
	<rect x="207.5" y="20.3" class="st0" width="1" height="8.8"/>
	<g>
		<path class="st0" d="M348.8,43.3c0,0,1.4,1.3,3.1,1.3c0.6,0,1.3-0.2,1.3-1c0-1.5-5.7-1.5-5.7-5.4c0-2.4,2-3.9,4.5-3.9
			c2.7,0,4.1,1.4,4.1,1.4l-1.3,2.6c0,0-1.3-1.1-2.8-1.1c-0.6,0-1.4,0.3-1.4,1c0,1.6,5.7,1.3,5.7,5.4c0,2.1-1.6,4-4.5,4
			c-3,0-4.7-1.8-4.7-1.8L348.8,43.3z"/>
	</g>
</g>
</svg>
