<?xml version="1.0" encoding="utf-8"?>
<!-- Generator: Adobe Illustrator 24.1.2, SVG Export Plug-In . SVG Version: 6.00 Build 0)  -->
<svg version="1.1" id="Camada_1" xmlns="http://www.w3.org/2000/svg" xmlns:xlink="http://www.w3.org/1999/xlink" x="0px" y="0px"
	 viewBox="0 0 396 157" style="enable-background:new 0 0 396 157;" xml:space="preserve">
<style type="text/css">
	.st0{fill:#233C7D;}
	.st1{fill:#2C528B;}
	.st2{fill:#9D9D9C;}
</style>
<g>
	<g>
		<path class="st0" d="M247.7,19.3h3.9l4.4,7.4c0.6,1,1.3,2.7,1.3,2.7h0c0,0-0.2-1.7-0.2-2.7v-7.4h3.9v15.9h-3.9l-4.4-7.4
			c-0.6-1-1.3-2.7-1.3-2.7h0c0,0,0.2,1.7,0.2,2.7v7.4h-3.9V19.3z"/>
		<path class="st0" d="M271.6,31.9c2.4,0,4.3-2.1,4.3-4.8c0-2.6-1.9-4.6-4.3-4.6c-2.4,0-4.3,2-4.3,4.6
			C267.3,29.9,269.2,31.9,271.6,31.9 M271.6,19c4.8,0,8.3,3.6,8.3,8.1c0,4.7-3.5,8.3-8.3,8.3c-4.8,0-8.3-3.7-8.3-8.3
			C263.3,22.6,266.8,19,271.6,19"/>
		<path class="st0" d="M280,19.3h4.2l2.8,9.1c0.3,1,0.6,2.6,0.6,2.6h0c0,0,0.3-1.6,0.6-2.6l2.9-9.1h4.2l-5.6,15.9h-4.1L280,19.3z"/>
		<path class="st0" d="M303.6,31.9c2.4,0,4.3-2.1,4.3-4.8c0-2.6-1.9-4.6-4.3-4.6c-2.4,0-4.3,2-4.3,4.6
			C299.3,29.9,301.2,31.9,303.6,31.9 M303.6,19c4.8,0,8.3,3.6,8.3,8.1c0,4.7-3.5,8.3-8.3,8.3c-4.8,0-8.3-3.7-8.3-8.3
			C295.3,22.6,298.8,19,303.6,19"/>
		<path class="st0" d="M314.9,30.3c0,0,1.8,1.6,3.8,1.6c0.8,0,1.7-0.3,1.7-1.3c0-1.9-7.2-1.8-7.2-6.7c0-2.9,2.5-4.9,5.6-4.9
			c3.4,0,5.1,1.8,5.1,1.8l-1.6,3.2c0,0-1.6-1.4-3.5-1.4c-0.8,0-1.7,0.4-1.7,1.2c0,2,7.2,1.6,7.2,6.7c0,2.7-2,4.9-5.6,4.9
			c-3.7,0-5.8-2.3-5.8-2.3L314.9,30.3z"/>
		<path class="st0" d="M247.7,43.2h3.9l4.4,7.4c0.6,1,1.3,2.7,1.3,2.7h0c0,0-0.2-1.7-0.2-2.7v-7.4h3.9v15.9h-3.9l-4.4-7.4
			c-0.6-1-1.3-2.7-1.3-2.7h0c0,0,0.2,1.7,0.2,2.7v7.4h-3.9V43.2z"/>
	</g>
	<polygon class="st0" points="264.4,43.2 274.4,43.2 274.4,46.6 268.3,46.6 268.3,49.5 273.1,49.5 273.1,52.8 268.3,52.8 
		268.3,55.8 274.7,55.8 274.7,59.2 264.4,59.2 	"/>
	<g>
		<path class="st0" d="M284.2,43c4.1,0,6.1,2.1,6.1,2.1l-1.9,2.9c0,0-1.6-1.5-3.9-1.5c-3.3,0-4.7,2.1-4.7,4.5c0,3,2.1,4.8,4.6,4.8
			c1.9,0,3.2-1.2,3.2-1.2v-1.2h-2.3v-3.3h5.7v9h-3.3v-0.4c0-0.3,0-0.7,0-0.7h0c0,0-1.5,1.4-4.2,1.4c-4.1,0-7.8-3.1-7.8-8.3
			C275.9,46.5,279.4,43,284.2,43"/>
		<path class="st0" d="M301,38.9h3.8l-2.6,3.3h-3L301,38.9z M300.8,55.9c2.4,0,4.3-2.1,4.3-4.8c0-2.6-1.9-4.6-4.3-4.6
			c-2.4,0-4.3,2-4.3,4.6C296.5,53.8,298.4,55.9,300.8,55.9 M300.8,43c4.8,0,8.3,3.6,8.3,8.1c0,4.7-3.5,8.3-8.3,8.3
			c-4.8,0-8.3-3.7-8.3-8.3C292.4,46.5,296,43,300.8,43"/>
		<path class="st0" d="M318.5,43c3.9,0,6,2.3,6,2.3l-1.8,2.9c0,0-1.8-1.6-4-1.6c-3.1,0-4.5,2.3-4.5,4.5c0,2.4,1.6,4.8,4.5,4.8
			c2.4,0,4.2-2,4.2-2l2,2.9c0,0-2.3,2.7-6.4,2.7c-5,0-8.4-3.5-8.4-8.3C310.1,46.5,313.7,43,318.5,43"/>
	</g>
	<rect x="326.7" y="43.2" class="st0" width="3.9" height="15.9"/>
	<g>
		<path class="st0" d="M341,55.9c2.4,0,4.3-2.1,4.3-4.8c0-2.6-1.9-4.6-4.3-4.6c-2.4,0-4.3,2-4.3,4.6C336.7,53.8,338.6,55.9,341,55.9
			 M341,43c4.8,0,8.3,3.6,8.3,8.1c0,4.7-3.5,8.3-8.3,8.3c-4.8,0-8.3-3.7-8.3-8.3C332.7,46.5,336.2,43,341,43"/>
		<path class="st0" d="M352.3,54.2c0,0,1.8,1.6,3.8,1.6c0.8,0,1.7-0.3,1.7-1.3c0-1.9-7.2-1.8-7.2-6.7c0-2.9,2.5-4.9,5.6-4.9
			c3.4,0,5.1,1.8,5.1,1.8l-1.6,3.2c0,0-1.6-1.4-3.5-1.4c-0.8,0-1.7,0.4-1.7,1.2c0,2,7.2,1.6,7.2,6.7c0,2.7-2,4.9-5.6,4.9
			c-3.7,0-5.8-2.3-5.8-2.3L352.3,54.2z"/>
		<path class="st1" d="M256,103.6h-1.4c-0.3,0-0.3-0.1-0.4-0.5l-0.8-2.4h-4.3l-0.7,2.4c-0.1,0.4-0.2,0.5-0.4,0.5h-1.3
			c-0.2,0-0.3-0.1-0.1-0.6l3.5-11.6c0.1-0.4,0.2-0.6,0.6-0.6h1.4c0.4,0,0.5,0.2,0.6,0.6l3.5,11.6C256.6,103.6,256.4,103.6,256,103.6
			 M251.3,93.4l-1.7,5.8h3.4L251.3,93.4z"/>
		<path class="st1" d="M264.9,99.5h-5.2c0,2,1,2.8,2.6,2.8c1.4,0,2.3-0.3,2.6-0.4c0.3-0.1,0.5,0,0.5,0.2v0.9c0,0.3-0.1,0.4-0.6,0.5
			c-0.2,0.1-1.5,0.3-2.6,0.3c-3,0-4.5-1.3-4.5-4.8c0-3.3,1.4-5,4-5c2.4,0,3.8,1.3,3.8,3.7v1.1C265.6,99.3,265.5,99.5,264.9,99.5
			 M261.7,95.3c-1.4,0-2,1.2-2,2.6c0,0.2,0,0.3,0.2,0.3h3.5c0.2,0,0.2-0.1,0.2-0.3C263.6,96.2,263.1,95.3,261.7,95.3"/>
		<path class="st1" d="M272.3,95.4c0,0.2-0.1,0.3-0.3,0.3c-0.5,0-1,0.1-1.4,0.4c-0.8,0.5-1.3,1.1-1.3,1.7v5.2c0,0.5,0,0.7-0.3,0.7
			h-1.1c-0.4,0-0.5-0.2-0.5-0.6v-8.2c0-0.3,0.1-0.5,0.4-0.5h1.1c0.2,0,0.4,0.1,0.4,0.5v0.9c0.7-1,1.7-1.5,2.8-1.5
			c0.1,0,0.3,0,0.3,0.2L272.3,95.4z"/>
		<path class="st1" d="M277.6,103.8c-2.7,0-4.3-1.1-4.3-4.8c0-3.6,1.7-5,4.4-5c2.6,0,4.1,1.4,4.1,5
			C281.7,102.1,280.2,103.8,277.6,103.8 M279.7,98c0-1.5-0.6-2.7-2.1-2.7c-1.3,0-2.2,0.9-2.2,2.8v1.7c0,1.9,1,2.7,2.2,2.7
			c1.3,0,2.1-1.1,2.1-2.9V98z"/>
		<path class="st1" d="M288.3,103.8c-1.3,0-2.2-0.4-2.8-1.2v4c0,0.4-0.1,0.6-0.3,0.6H284c-0.4,0-0.5-0.1-0.5-0.6V94.9
			c0-0.4,0-0.6,0.5-0.6h1.1c0.3,0,0.4,0.1,0.4,0.5v0.6c0.7-0.9,1.7-1.4,2.9-1.4c1.9,0,3,1.9,3,4.9
			C291.4,102.5,290.1,103.8,288.3,103.8 M289.4,98.3c0-1.7-0.7-2.9-1.8-2.9c-1.4,0-1.9,1.3-1.9,2.2v3.4c0,0.5,0.7,1.6,1.9,1.6
			c1.3,0,1.9-1,1.9-2.7V98.3z"/>
		<path class="st1" d="M297.2,103.8c-2.7,0-4.3-1.1-4.3-4.8c0-3.6,1.7-5,4.4-5c2.6,0,4.1,1.4,4.1,5
			C301.4,102.1,299.8,103.8,297.2,103.8 M299.4,98c0-1.5-0.6-2.7-2.1-2.7c-1.3,0-2.2,0.9-2.2,2.8v1.7c0,1.9,1,2.7,2.2,2.7
			c1.3,0,2.1-1.1,2.1-2.9V98z"/>
		<path class="st1" d="M308.1,95.4c0,0.2-0.1,0.3-0.3,0.3c-0.5,0-1,0.1-1.4,0.4c-0.8,0.5-1.3,1.1-1.3,1.7v5.2c0,0.5,0,0.7-0.4,0.7
			h-1.1c-0.4,0-0.5-0.2-0.5-0.6v-8.2c0-0.3,0.1-0.5,0.4-0.5h1.1c0.2,0,0.4,0.1,0.4,0.5v0.9c0.7-1,1.7-1.5,2.8-1.5
			c0.1,0,0.3,0,0.3,0.2L308.1,95.4z"/>
		<path class="st1" d="M313.6,95.9H312v5.7c0,0.6,0.3,0.9,0.7,0.9c0.3,0,0.5,0,0.9-0.1c0.2,0,0.3,1.2,0.2,1.3
			c-0.3,0.1-1,0.2-1.6,0.2c-1.7,0-2.2-1.1-2.2-2.3v-5.7h-0.9c-0.2,0-0.3-0.1-0.3-0.4v-0.7c0-0.3,0.1-0.3,0.4-0.3h0.8v-1.7
			c0-0.3,0.2-0.4,0.5-0.4l0.9-0.2c0.4-0.1,0.5,0.1,0.5,0.4v1.9h1.7c0.3,0,0.4,0.2,0.4,0.4v0.7C314,95.7,314,95.9,313.6,95.9"/>
		<path class="st1" d="M319.6,103.8c-2.7,0-4.3-1.1-4.3-4.8c0-3.6,1.7-5,4.4-5c2.6,0,4.1,1.4,4.1,5
			C323.7,102.1,322.2,103.8,319.6,103.8 M321.7,98c0-1.5-0.6-2.7-2.1-2.7c-1.3,0-2.2,0.9-2.2,2.8v1.7c0,1.9,1,2.7,2.2,2.7
			c1.3,0,2.1-1.1,2.1-2.9V98z"/>
		<path class="st1" d="M248.3,120.4h-1.3c-0.3,0-0.4-0.1-0.4-0.5V108c0-0.3,0.1-0.4,0.5-0.4h1.3c0.3,0,0.4,0.1,0.4,0.5V120
			C248.6,120.3,248.6,120.4,248.3,120.4"/>
		<path class="st1" d="M258,120.4h-1.1c-0.3,0-0.5-0.2-0.5-0.6v-5.5c0-0.9-0.4-1.7-1.6-1.7c-1.3,0-1.9,1.1-1.9,2v5.2
			c0,0.5,0,0.7-0.3,0.7h-1.1c-0.4,0-0.5-0.2-0.5-0.6v-8.2c0-0.3,0.1-0.5,0.4-0.5h1.1c0.3,0,0.4,0.3,0.4,1.1c0.6-0.8,1.4-1.3,2.8-1.3
			c1.5,0,2.8,0.8,2.8,3v5.8C258.4,120.1,258.3,120.4,258,120.4"/>
		<path class="st1" d="M264.8,112.6h-1.6v5.7c0,0.6,0.3,0.9,0.8,0.9c0.3,0,0.5,0,0.9-0.1c0.2,0,0.3,1.2,0.2,1.3
			c-0.3,0.1-1,0.2-1.6,0.2c-1.7,0-2.2-1.1-2.2-2.3v-5.7h-0.9c-0.2,0-0.3-0.1-0.3-0.4v-0.7c0-0.3,0.1-0.3,0.4-0.3h0.8v-1.7
			c0-0.3,0.2-0.4,0.5-0.4l0.9-0.2c0.4-0.1,0.5,0.1,0.5,0.4v1.9h1.7c0.3,0,0.4,0.2,0.4,0.4v0.7C265.2,112.5,265.1,112.6,264.8,112.6"
			/>
		<path class="st1" d="M273.6,116.3h-5.2c0,2,1,2.8,2.6,2.8c1.4,0,2.3-0.3,2.6-0.4c0.3-0.1,0.5,0,0.5,0.2v0.9c0,0.3-0.1,0.4-0.6,0.5
			c-0.2,0.1-1.6,0.3-2.6,0.3c-3,0-4.5-1.3-4.5-4.8c0-3.3,1.4-5,4-5c2.4,0,3.8,1.3,3.8,3.7v1.1C274.3,116,274.2,116.3,273.6,116.3
			 M270.4,112c-1.4,0-2,1.2-2,2.6c0,0.2,0,0.3,0.2,0.3h3.5c0.2,0,0.2-0.1,0.2-0.3C272.4,112.9,271.9,112,270.4,112"/>
		<path class="st1" d="M281,112.2c0,0.2-0.1,0.3-0.3,0.3c-0.5,0-1,0.1-1.4,0.4c-0.8,0.5-1.3,1.1-1.3,1.7v5.2c0,0.5,0,0.7-0.3,0.7
			h-1.1c-0.4,0-0.5-0.2-0.5-0.6v-8.2c0-0.3,0.1-0.5,0.4-0.5h1.1c0.2,0,0.4,0.1,0.4,0.5v0.9c0.7-1,1.7-1.5,2.8-1.5
			c0.1,0,0.3,0,0.3,0.2L281,112.2z"/>
		<path class="st1" d="M289.4,120.4h-1.1c-0.3,0-0.5-0.2-0.5-0.6v-5.5c0-0.9-0.4-1.7-1.6-1.7c-1.3,0-1.9,1.1-1.9,2v5.2
			c0,0.5,0,0.7-0.4,0.7h-1.1c-0.4,0-0.5-0.2-0.5-0.6v-8.2c0-0.3,0.1-0.5,0.4-0.5h1.1c0.3,0,0.4,0.3,0.4,1.1c0.6-0.8,1.4-1.3,2.8-1.3
			c1.5,0,2.8,0.8,2.8,3v5.8C289.8,120.1,289.7,120.4,289.4,120.4"/>
		<path class="st1" d="M299,120.4h-1.1c-0.3,0-0.4-0.1-0.4-0.5v-0.7c-0.3,0.7-1.5,1.4-2.8,1.4c-1.7,0-3.1-1.4-3.1-4.8
			c0-3.1,1.1-5,3.1-5c1.5,0,2.4,0.6,2.9,1.4v-0.8c0-0.3,0.1-0.4,0.3-0.4h1.1c0.5,0,0.5,0.2,0.5,0.5v8.2
			C299.5,120.1,299.4,120.4,299,120.4 M297.4,114.3c0-0.8-0.5-2.2-1.9-2.2c-1.2,0-1.8,0.8-1.8,2.9v1.5c0,1.7,0.6,2.8,1.9,2.8
			c1.2,0,1.9-1.3,1.9-1.8V114.3z"/>
		<path class="st1" d="M305.5,120.6c-2.7,0-4.3-1.1-4.3-4.8c0-3.6,1.7-5,4.4-5c1.5,0,2.5,0.4,3.2,1.3c0.2,0.3-1.2,1.3-1.4,1
			c-0.3-0.6-0.9-1-1.8-1c-1.3,0-2.2,0.9-2.2,2.8v1.7c0,1.9,1,2.7,2.2,2.7c0.8,0,1.4-0.5,1.8-1.1c0.2-0.4,1.6,0.3,1.4,0.6
			C308.2,119.9,307.1,120.6,305.5,120.6"/>
		<path class="st1" d="M311.8,109.3h-1.2c-0.3,0-0.4-0.1-0.4-0.6v-0.6c0-0.4,0.1-0.5,0.5-0.5h1.1c0.4,0,0.4,0.2,0.4,0.6v0.6
			C312.1,109.2,312,109.3,311.8,109.3 M311.8,120.4h-1.2c-0.3,0-0.4-0.2-0.4-0.6v-8.2c0-0.3,0.1-0.5,0.4-0.5h1.1
			c0.4,0,0.4,0.1,0.4,0.5v8.2C312.1,120.2,312.1,120.4,311.8,120.4"/>
		<path class="st1" d="M318.2,120.6c-2.7,0-4.3-1.1-4.3-4.8c0-3.6,1.7-5,4.4-5c2.6,0,4.1,1.4,4.1,5
			C322.3,118.9,320.8,120.6,318.2,120.6 M320.3,114.8c0-1.5-0.6-2.7-2.1-2.7c-1.3,0-2.2,0.9-2.2,2.8v1.7c0,1.9,1,2.7,2.2,2.7
			c1.3,0,2.1-1.1,2.1-2.9V114.8z"/>
		<path class="st1" d="M331.2,120.4h-1.1c-0.3,0-0.4-0.2-0.4-0.6v-5.5c0-0.9-0.4-1.7-1.6-1.7c-1.3,0-1.9,1.1-1.9,2v5.2
			c0,0.5,0,0.7-0.3,0.7h-1.1c-0.4,0-0.5-0.2-0.5-0.6v-8.2c0-0.3,0.1-0.5,0.4-0.5h1.1c0.3,0,0.4,0.3,0.4,1.1c0.6-0.8,1.4-1.3,2.8-1.3
			c1.5,0,2.8,0.8,2.8,3v5.8C331.6,120.1,331.5,120.4,331.2,120.4"/>
		<path class="st1" d="M340.8,120.4h-1.1c-0.3,0-0.4-0.1-0.4-0.5v-0.7c-0.4,0.7-1.5,1.4-2.8,1.4c-1.7,0-3.1-1.4-3.1-4.8
			c0-3.1,1.1-5,3.1-5c1.5,0,2.4,0.6,2.9,1.4v-0.8c0-0.3,0.1-0.4,0.3-0.4h1.1c0.5,0,0.5,0.2,0.5,0.5v8.2
			C341.3,120.1,341.2,120.4,340.8,120.4 M339.2,114.3c0-0.8-0.5-2.2-1.9-2.2c-1.2,0-1.8,0.8-1.8,2.9v1.5c0,1.7,0.6,2.8,1.9,2.8
			c1.2,0,1.9-1.3,1.9-1.8V114.3z"/>
		<path class="st1" d="M344.9,120.4h-1.2c-0.4,0-0.4-0.1-0.4-0.6v-11.9c0-0.3,0.1-0.5,0.4-0.5h1.1c0.4,0,0.4,0.1,0.4,0.5v11.8
			C345.2,120.2,345.2,120.4,344.9,120.4"/>
		<path class="st1" d="M357.5,120.4h-1.1c-0.3,0-0.4,0-0.4-0.5v-0.5c-0.6,0.8-1.6,1.2-2.9,1.2c-1.7,0-3.1-1.4-3.1-4.8
			c0-3.1,1.1-5,3.1-5c1.3,0,2.2,0.4,2.9,1.4V108c0-0.4,0.1-0.6,0.3-0.6h1.1c0.5,0,0.5,0.2,0.5,0.5v11.8
			C357.9,120.2,357.8,120.4,357.5,120.4 M355.8,114.2c0-0.9-0.5-2.1-1.9-2.1c-1.2,0-1.8,1.2-1.8,2.9v1.5c0,1.7,0.6,2.8,1.9,2.8
			c1.2,0,1.9-1.1,1.9-1.6V114.2z"/>
		<path class="st1" d="M366.8,116.3h-5.2c0,2,1,2.8,2.6,2.8c1.4,0,2.3-0.3,2.6-0.4c0.3-0.1,0.5,0,0.5,0.2v0.9c0,0.3-0.1,0.4-0.6,0.5
			c-0.2,0.1-1.6,0.3-2.6,0.3c-3,0-4.5-1.3-4.5-4.8c0-3.3,1.4-5,4-5c2.4,0,3.8,1.3,3.8,3.7v1.1C367.5,116,367.5,116.3,366.8,116.3
			 M363.7,112c-1.4,0-1.9,1.2-2,2.6c0,0.2,0,0.4,0.2,0.4h3.5c0.2,0,0.2-0.1,0.2-0.3C365.6,113,365.1,112,363.7,112"/>
		<path class="st1" d="M250.8,137.2h-3.9c-0.3,0-0.4-0.1-0.4-0.5V125c0-0.4,0-0.6,0.3-0.6h3.4c3,0,4.7,0.9,4.7,3.2
			c0,1.6-0.8,2.6-2,3.1c1.2,0.4,2.2,1.2,2.2,3.1C255.1,135.9,253.9,137.2,250.8,137.2 M250.2,125.9h-1.4c-0.3,0-0.3,0.2-0.3,0.3v3.4
			c0,0.2,0.1,0.3,0.3,0.3h1.4c1.8,0,2.6-0.6,2.6-2C252.9,126.4,252,125.9,250.2,125.9 M250.3,131.5h-1.4c-0.3,0-0.3,0.1-0.3,0.3v3.5
			c0,0.1,0.1,0.3,0.3,0.3h1.4c1.8,0,2.8-0.5,2.8-2C253.1,132.2,252,131.5,250.3,131.5"/>
		<path class="st1" d="M263.9,133.1h-5.2c0,2,1,2.8,2.6,2.8c1.4,0,2.3-0.3,2.6-0.4c0.3-0.1,0.5,0,0.5,0.2v0.9c0,0.3-0.1,0.4-0.6,0.5
			c-0.2,0.1-1.5,0.3-2.6,0.3c-3,0-4.5-1.3-4.5-4.8c0-3.3,1.4-5,4-5c2.4,0,3.8,1.3,3.8,3.7v1.1C264.6,132.8,264.6,133.1,263.9,133.1
			 M260.8,128.8c-1.4,0-2,1.2-2,2.6c0,0.2,0,0.4,0.2,0.4h3.5c0.2,0,0.2-0.1,0.2-0.3C262.7,129.7,262.2,128.8,260.8,128.8"/>
		<path class="st1" d="M268,137.2h-1.2c-0.4,0-0.4-0.1-0.4-0.6v-11.9c0-0.3,0.1-0.5,0.4-0.5h1.1c0.4,0,0.4,0.1,0.4,0.5v11.8
			C268.4,137,268.4,137.2,268,137.2"/>
		<path class="st1" d="M274.4,137.4c-2.7,0-4.3-1.1-4.3-4.8c0-3.6,1.7-5,4.4-5c2.6,0,4.1,1.4,4.1,5
			C278.6,135.7,277,137.4,274.4,137.4 M276.6,131.6c0-1.5-0.6-2.7-2.1-2.7c-1.3,0-2.2,0.9-2.2,2.8v1.7c0,1.9,1,2.7,2.2,2.7
			c1.3,0,2.1-1.2,2.1-2.9V131.6z"/>
		<path class="st1" d="M293.3,137.2H292c-0.3,0-0.4-0.1-0.4-0.5v-5c0-0.3-0.1-0.4-0.3-0.4h-4.5c-0.2,0-0.3,0-0.3,0.3v5
			c0,0.5-0.1,0.6-0.5,0.6h-1.2c-0.3,0-0.4-0.2-0.4-0.7v-11.7c0-0.3,0.1-0.5,0.4-0.5h1.3c0.4,0,0.5,0.1,0.5,0.6v4.4
			c0,0.3,0.1,0.3,0.4,0.3h4.4c0.2,0,0.3-0.1,0.3-0.3v-4.5c0-0.3,0.1-0.5,0.5-0.5h1.2c0.4,0,0.4,0.1,0.4,0.4v11.8
			C293.7,137.1,293.6,137.2,293.3,137.2"/>
		<path class="st1" d="M299.9,137.4c-2.7,0-4.3-1.1-4.3-4.8c0-3.6,1.7-5,4.4-5c2.6,0,4.1,1.4,4.1,5
			C304.1,135.7,302.5,137.4,299.9,137.4 M302.1,131.6c0-1.5-0.6-2.7-2.1-2.7c-1.3,0-2.2,0.9-2.2,2.8v1.7c0,1.9,1,2.7,2.2,2.7
			c1.3,0,2.1-1.2,2.1-2.9V131.6z"/>
		<path class="st1" d="M310.8,129c0,0.2-0.1,0.3-0.3,0.3c-0.5,0-1,0.1-1.4,0.4c-0.8,0.5-1.3,1.1-1.3,1.7v5.2c0,0.5,0,0.7-0.3,0.7
			h-1.1c-0.4,0-0.5-0.2-0.5-0.7v-8.2c0-0.3,0.1-0.5,0.4-0.5h1.1c0.2,0,0.4,0.1,0.4,0.5v0.9c0.7-1,1.7-1.5,2.8-1.5
			c0.1,0,0.3,0,0.3,0.2L310.8,129z"/>
		<path class="st1" d="M313.7,126.1h-1.2c-0.3,0-0.4-0.1-0.4-0.6v-0.6c0-0.4,0.1-0.5,0.5-0.5h1.1c0.4,0,0.4,0.2,0.4,0.6v0.6
			C314,126,313.9,126.1,313.7,126.1 M313.7,137.2h-1.2c-0.3,0-0.4-0.2-0.4-0.6v-8.2c0-0.3,0.1-0.5,0.4-0.5h1.1
			c0.4,0,0.4,0.1,0.4,0.5v8.2C314,137,314,137.2,313.7,137.2"/>
		<path class="st1" d="M322.2,137.2h-6.1c-0.8,0-0.8-0.4-0.5-0.8l4.3-7.2H316c-0.3,0-0.4,0-0.4-0.4v-0.6c0-0.3,0.1-0.3,0.4-0.3h6
			c0.6,0,0.8,0.1,0.5,0.6l-4.4,7.4h4.2c0.3,0,0.5,0,0.5,0.4v0.6C322.6,137.1,322.5,137.2,322.2,137.2"/>
		<path class="st1" d="M328.1,137.4c-2.7,0-4.3-1.1-4.3-4.8c0-3.6,1.7-5,4.4-5c2.6,0,4.1,1.4,4.1,5
			C332.2,135.7,330.7,137.4,328.1,137.4 M330.2,131.6c0-1.5-0.6-2.7-2.1-2.7c-1.3,0-2.2,0.9-2.2,2.8v1.7c0,1.9,1,2.7,2.2,2.7
			c1.3,0,2.1-1.2,2.1-2.9V131.6z"/>
		<path class="st1" d="M341.1,137.2H340c-0.3,0-0.5-0.2-0.5-0.6V131c0-0.9-0.4-1.7-1.6-1.7c-1.3,0-1.9,1.1-1.9,2v5.2
			c0,0.5,0,0.7-0.3,0.7h-1.1c-0.4,0-0.5-0.2-0.5-0.7v-8.2c0-0.3,0.1-0.5,0.4-0.5h1.1c0.3,0,0.4,0.3,0.4,1.1c0.6-0.8,1.4-1.3,2.8-1.3
			c1.5,0,2.8,0.8,2.8,3v5.8C341.5,136.9,341.4,137.2,341.1,137.2"/>
		<path class="st1" d="M347.8,129.4h-1.6v5.7c0,0.6,0.3,0.9,0.8,0.9c0.3,0,0.5,0,0.9-0.1c0.2,0,0.3,1.2,0.2,1.3
			c-0.3,0.1-1,0.2-1.6,0.2c-1.7,0-2.2-1.1-2.2-2.3v-5.7h-0.9c-0.2,0-0.3-0.1-0.3-0.4v-0.7c0-0.3,0.1-0.3,0.4-0.3h0.8v-1.7
			c0-0.3,0.2-0.4,0.5-0.4l0.9-0.2c0.4-0.1,0.5,0.1,0.5,0.4v1.9h1.7c0.3,0,0.4,0.2,0.4,0.4v0.7C348.3,129.3,348.2,129.4,347.8,129.4"
			/>
		<path class="st1" d="M356.7,133.1h-5.2c0,2,1,2.8,2.6,2.8c1.4,0,2.3-0.3,2.6-0.4c0.3-0.1,0.5,0,0.5,0.2v0.9c0,0.3-0.1,0.4-0.6,0.5
			c-0.2,0.1-1.5,0.3-2.6,0.3c-3,0-4.5-1.3-4.5-4.8c0-3.3,1.4-5,4-5c2.4,0,3.8,1.3,3.8,3.7v1.1C357.4,132.8,357.3,133.1,356.7,133.1
			 M353.5,128.8c-1.4,0-2,1.2-2,2.6c0,0.2,0,0.4,0.2,0.4h3.5c0.2,0,0.2-0.1,0.2-0.3C355.4,129.7,354.9,128.8,353.5,128.8"/>
	</g>
	<rect x="224.7" y="5.4" class="st2" width="0.3" height="146.1"/>
	<rect x="246.3" y="76.9" class="st2" width="136" height="0.3"/>
	<polygon class="st0" points="24.8,45.8 24.8,53 18.2,53 18.2,45.8 13.7,45.8 13.7,63.9 18.2,63.9 18.2,56.8 24.8,56.8 24.8,63.9 
		29.2,63.9 29.2,45.8 	"/>
	<g>
		<path class="st0" d="M32.6,45.8H37v11.5c0,1.9,1.2,2.9,3.1,2.9s3.1-1,3.1-2.9V45.8h4.4v11.5c0,4.1-3,7-7.6,7c-4.6,0-7.6-2.9-7.6-7
			V45.8z"/>
		<path class="st0" d="M58.2,60.1c1.3,0,1.9-0.9,1.9-1.9c0-1-0.6-1.9-1.9-1.9h-2.7v3.8H58.2z M57.8,52.8c1.1,0,1.6-0.8,1.6-1.7
			c0-0.8-0.5-1.5-1.7-1.5h-2.2v3.2H57.8z M51.1,45.8h6.7c3.6,0,6.2,1.6,6.2,4.7c0,1.5-0.7,3.1-2.1,3.9v0.1c2.1,0.6,2.8,2.5,2.8,4.1
			c0,4-3.3,5.4-6.9,5.4h-6.7V45.8z"/>
	</g>
	<polygon class="st0" points="72.4,45.8 76.8,45.8 76.8,60.1 84.2,60.1 84.2,63.9 72.4,63.9 	"/>
	<g>
		<path class="st0" d="M94.1,60.2c2.7,0,4.9-2.3,4.9-5.4c0-3-2.2-5.2-4.9-5.2c-2.7,0-4.9,2.2-4.9,5.2C89.2,57.8,91.4,60.2,94.1,60.2
			 M94.1,45.5c5.5,0,9.5,4.1,9.5,9.3c0,5.3-4,9.5-9.5,9.5s-9.5-4.2-9.5-9.5C84.7,49.5,88.7,45.5,94.1,45.5"/>
		<path class="st0" d="M114.3,45.5c4.6,0,7,2.4,7,2.4l-2.1,3.3c0,0-1.9-1.7-4.4-1.7c-3.8,0-5.4,2.4-5.4,5.1c0,3.4,2.4,5.5,5.2,5.5
			c2.1,0,3.7-1.3,3.7-1.3v-1.4h-2.6v-3.8h6.5v10.2h-3.7v-0.5c0-0.4,0-0.8,0-0.8h-0.1c0,0-1.7,1.6-4.8,1.6c-4.6,0-8.9-3.5-8.9-9.4
			C104.8,49.5,108.8,45.5,114.3,45.5"/>
	</g>
	<path class="st0" d="M127.4,40.8h4.3l-3,3.8h-3.4L127.4,40.8z M124.9,45.8h4.4v18.1h-4.4V45.8z"/>
	<g>
		<path class="st0" d="M134,58.3c0,0,2.1,1.9,4.3,1.9c0.9,0,1.9-0.4,1.9-1.4c0-2.2-8.2-2.1-8.2-7.7c0-3.3,2.8-5.6,6.4-5.6
			c3.9,0,5.8,2.1,5.8,2.1l-1.9,3.6c0,0-1.8-1.6-4-1.6c-0.9,0-1.9,0.4-1.9,1.4c0,2.3,8.2,1.9,8.2,7.6c0,3-2.3,5.6-6.4,5.6
			c-4.3,0-6.6-2.6-6.6-2.6L134,58.3z"/>
	</g>
	<polygon class="st0" points="150.5,49.6 145,49.6 145,45.8 160.5,45.8 160.5,49.6 155,49.6 155,63.9 150.5,63.9 	"/>
	<rect x="162.1" y="45.8" class="st0" width="4.4" height="18.1"/>
	<g>
		<path class="st0" d="M178.4,45.5c4.5,0,6.8,2.6,6.8,2.6l-2.1,3.3c0,0-2-1.9-4.5-1.9c-3.5,0-5.1,2.6-5.1,5.2c0,2.7,1.8,5.5,5.1,5.5
			c2.7,0,4.8-2.2,4.8-2.2l2.3,3.2c0,0-2.6,3-7.3,3c-5.7,0-9.5-4-9.5-9.4C168.9,49.5,172.9,45.5,178.4,45.5"/>
		<path class="st0" d="M195.9,60.2c2.7,0,4.9-2.3,4.9-5.4c0-3-2.2-5.2-4.9-5.2c-2.7,0-4.9,2.2-4.9,5.2
			C191,57.8,193.2,60.2,195.9,60.2 M195.9,45.5c5.5,0,9.5,4.1,9.5,9.3c0,5.3-4,9.5-9.5,9.5c-5.5,0-9.5-4.2-9.5-9.5
			C186.4,49.5,190.4,45.5,195.9,45.5"/>
		<path class="st0" d="M42.3,72.9h4.8l2.6,7.7c0.4,1.2,0.9,3,0.9,3h0.1c0,0,0.5-1.8,0.9-3l2.6-7.7h4.8L60.6,91h-4.4l-0.6-8.2
			c-0.1-1.4,0-3,0-3h-0.1c0,0-0.6,1.9-1,3l-1.9,5.3h-3.8l-1.9-5.3c-0.4-1.1-1-3-1-3h-0.1c0,0,0.1,1.7,0,3L45.3,91h-4.5L42.3,72.9z"
			/>
		<path class="st0" d="M63.4,72.9h4.4v11.5c0,1.9,1.2,2.9,3.1,2.9c1.9,0,3.1-1,3.1-2.9V72.9h4.4v11.5c0,4.1-3,7-7.6,7
			c-4.6,0-7.6-2.9-7.6-7V72.9z"/>
	</g>
	<polygon class="st0" points="81.9,72.9 86.4,72.9 86.4,87.2 93.8,87.2 93.8,91 81.9,91 	"/>
	<polygon class="st0" points="97.8,76.7 92.3,76.7 92.3,72.9 107.7,72.9 107.7,76.7 102.2,76.7 102.2,91 97.8,91 	"/>
	<rect x="109.3" y="72.9" class="st0" width="4.4" height="18.1"/>
	<g>
		<path class="st0" d="M118.3,72.9h4.8l2.6,7.7c0.4,1.2,0.9,3,0.9,3h0.1c0,0,0.5-1.8,0.9-3l2.6-7.7h4.8l1.5,18.1h-4.4l-0.6-8.2
			c-0.1-1.4,0-3,0-3h-0.1c0,0-0.6,1.9-1,3l-1.9,5.3h-3.8l-1.9-5.3c-0.4-1.1-1-3-1-3h-0.1c0,0,0.1,1.7,0,3l-0.6,8.2h-4.5L118.3,72.9z
			"/>
		<path class="st0" d="M147.9,87.3c2.7,0,4.9-2.3,4.9-5.4c0-3-2.2-5.2-4.9-5.2c-2.7,0-4.9,2.2-4.9,5.2
			C143,84.9,145.2,87.3,147.9,87.3 M147.9,72.6c5.5,0,9.5,4.1,9.5,9.3c0,5.3-4,9.5-9.5,9.5c-5.5,0-9.5-4.2-9.5-9.5
			C138.4,76.6,142.4,72.6,147.9,72.6"/>
		<path class="st0" d="M166,87.2c3.1,0,4.9-1.8,4.9-5.3c0-3.4-2-5.2-4.9-5.2h-1.8v10.5H166z M159.8,72.9h6.4c5.7,0,9.4,3.3,9.4,9
			c0,5.7-3.7,9.1-9.4,9.1h-6.4V72.9z"/>
		<path class="st0" d="M184.2,77c0,0-0.4,2-0.7,3.1l-1,3.5h3.6l-1-3.5C184.7,79,184.3,77,184.2,77L184.2,77z M187,87.2h-5.7
			l-1.1,3.8h-4.6l6.2-18.1h4.7l6.2,18.1h-4.6L187,87.2z"/>
	</g>
	<polygon class="st0" points="194.1,72.9 198.6,72.9 198.6,87.2 206,87.2 206,91 194.1,91 	"/>
	<rect x="52.8" y="108.8" class="st2" width="0.6" height="10.3"/>
	<g>
		<path class="st2" d="M56.6,108.8h0.6l5.9,8.1c0.3,0.5,0.8,1.3,0.8,1.3h0c0,0-0.1-0.8-0.1-1.3v-8.1h0.6v10.3h-0.6L58,111
			c-0.3-0.5-0.8-1.3-0.8-1.3h0c0,0,0.1,0.8,0.1,1.3v8.1h-0.6V108.8z"/>
	</g>
	<polygon class="st2" points="70,109.4 66.2,109.4 66.2,108.8 74.5,108.8 74.5,109.4 70.7,109.4 70.7,119.1 70,119.1 	"/>
	<polygon class="st2" points="76.2,108.8 81.8,108.8 81.8,109.4 76.8,109.4 76.8,113.6 80.9,113.6 80.9,114.2 76.8,114.2 
		76.8,118.5 82.1,118.5 82.1,119.1 76.2,119.1 	"/>
	<g>
		<path class="st2" d="M88.9,108.6c2.3,0,3.6,1.2,3.6,1.2l-0.4,0.5c0,0-1.2-1-3.2-1c-2.6,0-4.5,2.1-4.5,4.7c0,2.7,1.8,4.7,4.4,4.7
			c2.2,0,3.5-1.7,3.5-1.7v-2h-1.8v-0.6H93v4.7h-0.6v-0.9c0-0.2,0-0.4,0-0.4h0c0,0-1.2,1.5-3.5,1.5c-2.9,0-5-2.3-5-5.3
			C83.8,111,86,108.6,88.9,108.6"/>
		<path class="st2" d="M99,113.9c1.4,0,2.2-1,2.2-2.4c0-0.9-0.5-1.6-1.2-2c-0.3-0.1-0.6-0.2-1.4-0.2h-2.4v4.6H99z M95.6,108.8h3
			c1,0,1.4,0.1,1.9,0.3c0.9,0.4,1.4,1.3,1.4,2.5c0,1.5-0.9,2.6-2.1,2.8v0c0,0,0.1,0.1,0.2,0.4l2.3,4.3h-0.7l-2.4-4.6h-3v4.6h-0.6
			V108.8z"/>
		<path class="st2" d="M107.6,109.5c0,0-0.2,0.8-0.4,1.2l-1.6,4.2h3.9l-1.6-4.2C107.8,110.3,107.6,109.5,107.6,109.5L107.6,109.5z
			 M109.8,115.5h-4.4l-1.3,3.6h-0.7l3.8-10.3h0.7l3.8,10.3h-0.7L109.8,115.5z"/>
		<path class="st2" d="M116.8,118.5c2.7,0,4.6-1.6,4.6-4.6c0-2.9-1.8-4.6-4.6-4.6h-2.5v9.1H116.8z M113.6,108.8h3.2
			c3.1,0,5.1,1.9,5.1,5.1c0,3.3-2.1,5.1-5.1,5.1h-3.2V108.8z"/>
		<path class="st2" d="M129,118.7c2.5,0,4.5-2.1,4.5-4.8c0-2.6-2-4.6-4.5-4.6c-2.5,0-4.5,2-4.5,4.6
			C124.5,116.6,126.5,118.7,129,118.7 M129,108.6c2.9,0,5.2,2.3,5.2,5.2c0,3-2.3,5.4-5.2,5.4c-2.9,0-5.2-2.4-5.2-5.4
			C123.8,110.9,126.1,108.6,129,108.6"/>
	</g>
	<rect x="135.8" y="118.2" class="st2" width="0.9" height="0.9"/>
	<g>
		<path class="st0" d="M148.1,108.6c2.3,0,3.6,1.2,3.6,1.2l-0.4,0.5c0,0-1.2-1-3.2-1c-2.6,0-4.5,2.1-4.5,4.7c0,2.7,1.8,4.7,4.4,4.7
			c2.2,0,3.5-1.7,3.5-1.7v-2h-1.8v-0.6h2.5v4.7h-0.6v-0.9c0-0.2,0-0.4,0-0.4h0c0,0-1.2,1.5-3.5,1.5c-2.9,0-5-2.3-5-5.3
			C142.9,111,145.1,108.6,148.1,108.6"/>
	</g>
	<polygon class="st0" points="154.7,108.8 155.4,108.8 155.4,118.5 160.3,118.5 160.3,119.1 154.7,119.1 	"/>
	<g>
		<path class="st0" d="M166.1,118.7c2.5,0,4.5-2.1,4.5-4.8c0-2.6-2-4.6-4.5-4.6c-2.5,0-4.5,2-4.5,4.6
			C161.6,116.6,163.6,118.7,166.1,118.7 M166.1,108.6c2.9,0,5.2,2.3,5.2,5.2c0,3-2.3,5.4-5.2,5.4c-2.9,0-5.2-2.4-5.2-5.4
			C160.9,110.9,163.3,108.6,166.1,108.6"/>
		<path class="st0" d="M177.3,118.5c1.4,0,2.3-0.9,2.3-2.2c0-1.4-1-2.3-2.3-2.3h-2.9v4.5H177.3z M177.2,113.4c1.1,0,2-0.8,2-2
			c0-1.2-0.8-2-2-2h-2.8v4H177.2z M173.8,108.8h3.5c1.5,0,2.6,1,2.6,2.6c0,1.1-0.5,1.9-1.3,2.2v0c1,0.3,1.7,1.3,1.7,2.6
			c0,1.7-1.2,2.8-2.9,2.8h-3.6V108.8z"/>
		<path class="st0" d="M185.7,109.5c0,0-0.2,0.8-0.4,1.2l-1.6,4.2h3.9l-1.6-4.2C186,110.3,185.8,109.5,185.7,109.5L185.7,109.5z
			 M187.9,115.5h-4.4l-1.3,3.6h-0.7l3.9-10.3h0.7l3.8,10.3h-0.7L187.9,115.5z"/>
	</g>
	<polygon class="st0" points="191.8,108.8 192.4,108.8 192.4,118.5 197.3,118.5 197.3,119.1 191.8,119.1 	"/>
	<rect x="199" y="118.2" class="st0" width="0.9" height="0.9"/>
	<g>
		<path class="st0" d="M195.9,33.8c-1.2,0-2.2,1-2.2,2.2s1,2.2,2.2,2.2c1.2,0,2.2-1,2.2-2.2S197.2,33.8,195.9,33.8 M195.9,39.2
			c-1.8,0-3.2-1.4-3.2-3.2s1.4-3.2,3.2-3.2c1.8,0,3.2,1.4,3.2,3.2S197.7,39.2,195.9,39.2"/>
	</g>
	<rect x="203.2" y="57.6" transform="matrix(0.7444 -0.6677 0.6677 0.7444 8.9816 152.4762)" class="st0" width="1" height="13.8"/>
	<g>
		<path class="st0" d="M211,68.6c-1,0-2,0.3-2.7,1c-0.8,0.7-1.3,1.7-1.4,2.8c-0.1,1.1,0.3,2.1,1,3c0.7,0.8,1.7,1.3,2.8,1.4
			c1.1,0.1,2.1-0.3,3-1c0.8-0.7,1.3-1.7,1.4-2.8c0.1-1.1-0.3-2.1-1-3C213.3,69,212.1,68.6,211,68.6 M211,77.7c-0.1,0-0.2,0-0.3,0
			c-1.4-0.1-2.6-0.7-3.5-1.7c-0.9-1-1.4-2.3-1.3-3.7c0.1-1.4,0.7-2.6,1.7-3.5c2.1-1.9,5.3-1.7,7.2,0.4c0.9,1,1.4,2.3,1.3,3.7
			c-0.1,1.4-0.7,2.6-1.7,3.5C213.5,77.3,212.3,77.7,211,77.7"/>
	</g>
	<rect x="200.7" y="50.2" transform="matrix(0.8691 -0.4946 0.4946 0.8691 1.6587 107.5904)" class="st0" width="6.8" height="1"/>
	<rect x="187.9" y="64.3" transform="matrix(0.5372 -0.8435 0.8435 0.5372 33.862 191.3029)" class="st0" width="6.8" height="1"/>
	<g>
		<path class="st0" d="M209,46.1c-0.2,0-0.5,0.1-0.7,0.2c-0.7,0.4-1,1.3-0.6,2c0.4,0.7,1.3,1,2,0.6c0.7-0.4,1-1.3,0.6-2
			C210.1,46.4,209.6,46.1,209,46.1 M209.1,50c-0.9,0-1.7-0.4-2.1-1.2c-0.7-1.2-0.3-2.7,0.9-3.4c1.2-0.7,2.7-0.3,3.4,0.9
			c0.7,1.2,0.3,2.7-0.9,3.4h0C209.9,49.9,209.5,50,209.1,50"/>
		<path class="st0" d="M188.4,67.7c-0.3,0-0.5,0.1-0.7,0.2c-0.3,0.2-0.6,0.5-0.7,0.9c-0.1,0.4-0.1,0.8,0.1,1.1c0.4,0.7,1.3,1,2,0.6
			c0.7-0.4,1-1.3,0.6-2c-0.2-0.3-0.5-0.6-0.9-0.7C188.6,67.7,188.5,67.7,188.4,67.7 M188.4,71.7c-0.9,0-1.7-0.4-2.1-1.2
			c-0.3-0.6-0.4-1.2-0.2-1.9c0.2-0.6,0.6-1.2,1.2-1.5c0.6-0.3,1.2-0.4,1.9-0.2c0.6,0.2,1.2,0.6,1.5,1.2c0.7,1.2,0.3,2.7-0.9,3.4h0
			C189.2,71.6,188.8,71.7,188.4,71.7"/>
	</g>
	<rect x="195.4" y="38.7" class="st0" width="1" height="8.3"/>
</g>
</svg>
