<?xml version="1.0" encoding="utf-8"?>
<!-- Generator: Adobe Illustrator 24.1.2, SVG Export Plug-In . SVG Version: 6.00 Build 0)  -->
<svg version="1.1" id="Camada_1" xmlns="http://www.w3.org/2000/svg" xmlns:xlink="http://www.w3.org/1999/xlink" x="0px" y="0px"
	 viewBox="0 0 404.8 155" style="enable-background:new 0 0 404.8 155;" xml:space="preserve">
<style type="text/css">
	.st0{fill:#5B2A86;}
	.st1{fill:#2C528B;}
	.st2{fill:#9D9D9C;}
</style>
<g>
	<g>
		<path class="st0" d="M207.1,45c-0.3,0-0.5,0.1-0.7,0.2c-0.7,0.4-1,1.3-0.6,2c0.2,0.3,0.5,0.6,0.9,0.7c0.4,0.1,0.8,0.1,1.1-0.1
			c0.7-0.4,1-1.3,0.6-2c-0.2-0.3-0.5-0.6-0.9-0.7C207.4,45.1,207.2,45,207.1,45 M207.1,49c-0.2,0-0.4,0-0.7-0.1
			c-0.6-0.2-1.2-0.6-1.5-1.2c-0.7-1.2-0.3-2.7,0.9-3.4c0.6-0.3,1.2-0.4,1.9-0.2c0.6,0.2,1.2,0.6,1.5,1.2c0.7,1.2,0.3,2.7-0.9,3.4
			C208,48.9,207.5,49,207.1,49"/>
		<path class="st0" d="M250.9,25.5c1.2,0,2-0.7,2-2c0-1.2-0.4-1.9-2.4-1.9h-1.3v3.9H250.9z M245.3,18.3h5.5c1.6,0,2.4,0.1,3.1,0.4
			c1.8,0.7,2.9,2.3,2.9,4.6c0,1.7-0.8,3.5-2.4,4.3v0c0,0,0.2,0.3,0.6,1l3.1,5.6h-4.3l-2.8-5.4h-1.8v5.4h-3.9V18.3z"/>
		<path class="st0" d="M267.2,30.9c2.4,0,4.3-2.1,4.3-4.8c0-2.6-1.9-4.6-4.3-4.6c-2.4,0-4.3,2-4.3,4.6
			C262.9,28.9,264.8,30.9,267.2,30.9 M267.2,18c4.8,0,8.3,3.6,8.3,8.1c0,4.7-3.5,8.3-8.3,8.3c-4.8,0-8.3-3.7-8.3-8.3
			C258.8,21.6,262.4,18,267.2,18"/>
	</g>
	<polygon class="st0" points="280.7,21.6 275.8,21.6 275.8,18.3 289.4,18.3 289.4,21.6 284.6,21.6 284.6,34.2 280.7,34.2 	"/>
	<g>
		<path class="st0" d="M295.4,21.9c0,0-0.4,1.7-0.6,2.7l-0.9,3.1h3.1l-0.9-3.1C295.8,23.7,295.5,21.9,295.4,21.9L295.4,21.9z
			 M297.9,30.9h-5l-1,3.3h-4l5.4-15.9h4.1l5.4,15.9h-4L297.9,30.9z"/>
		<path class="st0" d="M305,29.3c0,0,1.8,1.6,3.8,1.6c0.8,0,1.7-0.3,1.7-1.3c0-1.9-7.2-1.8-7.2-6.7c0-2.9,2.5-4.9,5.6-4.9
			c3.4,0,5.1,1.8,5.1,1.8l-1.6,3.2c0,0-1.6-1.4-3.5-1.4c-0.8,0-1.7,0.4-1.7,1.2c0,2,7.2,1.6,7.2,6.7c0,2.7-2,4.9-5.6,4.9
			c-3.7,0-5.8-2.3-5.8-2.3L305,29.3z"/>
		<path class="st0" d="M250.9,49.5c1.2,0,2-0.7,2-2c0-1.2-0.4-1.9-2.4-1.9h-1.3v3.9H250.9z M245.3,42.2h5.5c1.6,0,2.4,0.1,3.1,0.4
			c1.8,0.7,2.9,2.3,2.9,4.6c0,1.7-0.8,3.5-2.4,4.3v0c0,0,0.2,0.3,0.6,1l3.1,5.6h-4.3l-2.8-5.4h-1.8v5.4h-3.9V42.2z"/>
		<path class="st0" d="M267.2,54.9c2.4,0,4.3-2.1,4.3-4.8c0-2.6-1.9-4.6-4.3-4.6c-2.4,0-4.3,2-4.3,4.6
			C262.9,52.8,264.8,54.9,267.2,54.9 M267.2,42c4.8,0,8.3,3.6,8.3,8.1c0,4.7-3.5,8.3-8.3,8.3c-4.8,0-8.3-3.7-8.3-8.3
			C258.8,45.5,262.4,42,267.2,42"/>
		<path class="st0" d="M283.1,54.8c2.7,0,4.3-1.6,4.3-4.7c0-3-1.7-4.6-4.3-4.6h-1.6v9.2H283.1z M277.6,42.2h5.7c5,0,8.2,2.9,8.2,7.9
			c0,5-3.2,8-8.2,8h-5.7V42.2z"/>
		<path class="st0" d="M300.9,54.9c2.4,0,4.3-2.1,4.3-4.8c0-2.6-1.9-4.6-4.3-4.6c-2.4,0-4.3,2-4.3,4.6
			C296.6,52.8,298.5,54.9,300.9,54.9 M300.9,42c4.8,0,8.3,3.6,8.3,8.1c0,4.7-3.5,8.3-8.3,8.3c-4.8,0-8.3-3.7-8.3-8.3
			C292.6,45.5,296.1,42,300.9,42"/>
		<path class="st0" d="M309.3,42.2h4.2l2.8,9.1c0.3,1,0.6,2.6,0.6,2.6h0c0,0,0.3-1.6,0.6-2.6l2.9-9.1h4.2l-5.6,15.9h-4.1L309.3,42.2
			z"/>
	</g>
	<rect x="325.7" y="42.2" class="st0" width="3.9" height="15.9"/>
	<g>
		<path class="st0" d="M338.3,45.9c0,0-0.4,1.7-0.6,2.7l-0.9,3.1h3.1l-0.9-3.1C338.7,47.6,338.4,45.9,338.3,45.9L338.3,45.9z
			 M338.5,37.9h3.8l-2.6,3.3h-3L338.5,37.9z M340.8,54.8h-5l-1,3.3h-4l5.4-15.9h4.1l5.4,15.9h-4L340.8,54.8z"/>
		<path class="st0" d="M352.6,49.5c1.2,0,2-0.7,2-2c0-1.2-0.4-1.9-2.4-1.9h-1.3v3.9H352.6z M347,42.2h5.5c1.6,0,2.4,0.1,3.1,0.4
			c1.8,0.7,2.9,2.3,2.9,4.6c0,1.7-0.8,3.5-2.4,4.3v0c0,0,0.2,0.3,0.6,1l3.1,5.6h-4.3l-2.8-5.4h-1.8v5.4H347V42.2z"/>
	</g>
	<rect x="361.7" y="42.2" class="st0" width="3.9" height="15.9"/>
	<g>
		<path class="st0" d="M374.2,45.9c0,0-0.4,1.7-0.6,2.7l-0.9,3.1h3.1l-0.9-3.1C374.6,47.6,374.3,45.9,374.2,45.9L374.2,45.9z
			 M376.7,54.8h-5l-1,3.3h-4l5.4-15.9h4.1l5.4,15.9h-4L376.7,54.8z"/>
		<path class="st0" d="M383.8,53.2c0,0,1.8,1.6,3.8,1.6c0.8,0,1.7-0.3,1.7-1.3c0-1.9-7.2-1.8-7.2-6.7c0-2.9,2.5-4.9,5.6-4.9
			c3.4,0,5.1,1.8,5.1,1.8l-1.6,3.2c0,0-1.6-1.4-3.5-1.4c-0.8,0-1.7,0.4-1.7,1.2c0,2,7.2,1.6,7.2,6.7c0,2.7-2,4.9-5.6,4.9
			c-3.7,0-5.8-2.3-5.8-2.3L383.8,53.2z"/>
		<path class="st1" d="M253.6,102.6h-1.4c-0.3,0-0.3-0.1-0.4-0.5l-0.8-2.4h-4.3l-0.7,2.4c-0.1,0.4-0.2,0.5-0.4,0.5h-1.3
			c-0.2,0-0.3-0.1-0.1-0.6l3.5-11.6c0.1-0.4,0.2-0.6,0.6-0.6h1.4c0.4,0,0.5,0.2,0.6,0.6l3.5,11.6C254.2,102.6,254,102.6,253.6,102.6
			 M248.9,92.4l-1.7,5.8h3.4L248.9,92.4z"/>
		<path class="st1" d="M262.5,98.5h-5.2c0,2,1,2.8,2.6,2.8c1.4,0,2.3-0.3,2.6-0.4c0.3-0.1,0.5,0,0.5,0.2v0.9c0,0.3-0.1,0.4-0.6,0.5
			c-0.2,0.1-1.5,0.3-2.6,0.3c-3,0-4.5-1.3-4.5-4.8c0-3.3,1.4-5,4-5c2.4,0,3.8,1.3,3.8,3.7v1.1C263.2,98.3,263.1,98.5,262.5,98.5
			 M259.3,94.3c-1.4,0-2,1.2-2,2.6c0,0.2,0,0.3,0.2,0.3h3.5c0.2,0,0.2-0.1,0.2-0.3C261.2,95.2,260.7,94.3,259.3,94.3"/>
		<path class="st1" d="M269.9,94.4c0,0.2-0.1,0.3-0.3,0.3c-0.5,0-1,0.1-1.4,0.4c-0.8,0.5-1.3,1.1-1.3,1.7v5.2c0,0.5,0,0.7-0.3,0.7
			h-1.1c-0.4,0-0.5-0.2-0.5-0.6v-8.2c0-0.3,0.1-0.5,0.4-0.5h1.1c0.2,0,0.4,0.1,0.4,0.5v0.9c0.7-1,1.7-1.5,2.8-1.5
			c0.1,0,0.3,0,0.3,0.2L269.9,94.4z"/>
		<path class="st1" d="M275.2,102.8c-2.7,0-4.3-1.1-4.3-4.8c0-3.6,1.7-5,4.4-5c2.6,0,4.1,1.4,4.1,5
			C279.3,101.1,277.8,102.8,275.2,102.8 M277.3,97c0-1.5-0.6-2.7-2.1-2.7c-1.3,0-2.2,0.9-2.2,2.8v1.7c0,1.9,1,2.7,2.2,2.7
			c1.3,0,2.1-1.1,2.1-2.9V97z"/>
		<path class="st1" d="M285.9,102.8c-1.3,0-2.2-0.4-2.8-1.2v4c0,0.4-0.1,0.6-0.3,0.6h-1.2c-0.4,0-0.5-0.1-0.5-0.6V93.9
			c0-0.4,0-0.6,0.5-0.6h1.1c0.3,0,0.4,0.1,0.4,0.5v0.6c0.7-0.9,1.7-1.4,2.9-1.4c1.9,0,3,1.9,3,4.9
			C289,101.5,287.7,102.8,285.9,102.8 M287,97.3c0-1.7-0.7-2.9-1.8-2.9c-1.4,0-1.9,1.3-1.9,2.2v3.4c0,0.5,0.7,1.6,1.9,1.6
			c1.3,0,1.9-1,1.9-2.7V97.3z"/>
		<path class="st1" d="M294.8,102.8c-2.7,0-4.3-1.1-4.3-4.8c0-3.6,1.7-5,4.4-5c2.6,0,4.1,1.4,4.1,5
			C299,101.1,297.4,102.8,294.8,102.8 M297,97c0-1.5-0.6-2.7-2.1-2.7c-1.3,0-2.2,0.9-2.2,2.8v1.7c0,1.9,1,2.7,2.2,2.7
			c1.3,0,2.1-1.1,2.1-2.9V97z"/>
		<path class="st1" d="M305.7,94.4c0,0.2-0.1,0.3-0.3,0.3c-0.5,0-1,0.1-1.4,0.4c-0.8,0.5-1.3,1.1-1.3,1.7v5.2c0,0.5,0,0.7-0.4,0.7
			h-1.1c-0.4,0-0.5-0.2-0.5-0.6v-8.2c0-0.3,0.1-0.5,0.4-0.5h1.1c0.2,0,0.4,0.1,0.4,0.5v0.9c0.7-1,1.7-1.5,2.8-1.5
			c0.1,0,0.3,0,0.3,0.2L305.7,94.4z"/>
		<path class="st1" d="M311.2,94.9h-1.6v5.7c0,0.6,0.3,0.9,0.7,0.9c0.3,0,0.5,0,0.9-0.1c0.2,0,0.3,1.2,0.2,1.3
			c-0.3,0.1-1,0.2-1.6,0.2c-1.7,0-2.2-1.1-2.2-2.3v-5.7h-0.9c-0.2,0-0.3-0.1-0.3-0.4v-0.7c0-0.3,0.1-0.3,0.4-0.3h0.8v-1.7
			c0-0.3,0.2-0.4,0.5-0.4l0.9-0.2c0.4-0.1,0.5,0.1,0.5,0.4v1.9h1.7c0.3,0,0.4,0.2,0.4,0.4v0.7C311.6,94.7,311.6,94.9,311.2,94.9"/>
		<path class="st1" d="M317.2,102.8c-2.7,0-4.3-1.1-4.3-4.8c0-3.6,1.7-5,4.4-5c2.6,0,4.1,1.4,4.1,5
			C321.3,101.1,319.8,102.8,317.2,102.8 M319.3,97c0-1.5-0.6-2.7-2.1-2.7c-1.3,0-2.2,0.9-2.2,2.8v1.7c0,1.9,1,2.7,2.2,2.7
			c1.3,0,2.1-1.1,2.1-2.9V97z"/>
		<path class="st1" d="M245.9,119.4h-1.3c-0.3,0-0.4-0.1-0.4-0.5V107c0-0.3,0.1-0.4,0.5-0.4h1.3c0.3,0,0.4,0.1,0.4,0.5V119
			C246.2,119.3,246.2,119.4,245.9,119.4"/>
		<path class="st1" d="M255.6,119.4h-1.1c-0.3,0-0.5-0.2-0.5-0.6v-5.5c0-0.9-0.4-1.7-1.6-1.7c-1.3,0-1.9,1.1-1.9,2v5.2
			c0,0.5,0,0.7-0.3,0.7H249c-0.4,0-0.5-0.2-0.5-0.6v-8.2c0-0.3,0.1-0.5,0.4-0.5h1.1c0.3,0,0.4,0.3,0.4,1.1c0.6-0.8,1.4-1.3,2.8-1.3
			c1.5,0,2.8,0.8,2.8,3v5.8C256,119.1,255.9,119.4,255.6,119.4"/>
		<path class="st1" d="M262.4,111.6h-1.6v5.7c0,0.6,0.3,0.9,0.8,0.9c0.3,0,0.5,0,0.9-0.1c0.2,0,0.3,1.2,0.2,1.3
			c-0.3,0.1-1,0.2-1.6,0.2c-1.7,0-2.2-1.1-2.2-2.3v-5.7h-0.9c-0.2,0-0.3-0.1-0.3-0.4v-0.7c0-0.3,0.1-0.3,0.4-0.3h0.8v-1.7
			c0-0.3,0.2-0.4,0.5-0.4l0.9-0.2c0.4-0.1,0.5,0.1,0.5,0.4v1.9h1.7c0.3,0,0.4,0.2,0.4,0.4v0.7C262.8,111.5,262.7,111.6,262.4,111.6"
			/>
		<path class="st1" d="M271.2,115.3H266c0,2,1,2.8,2.6,2.8c1.4,0,2.3-0.3,2.6-0.4c0.3-0.1,0.5,0,0.5,0.2v0.9c0,0.3-0.1,0.4-0.6,0.5
			c-0.2,0.1-1.6,0.3-2.6,0.3c-3,0-4.5-1.3-4.5-4.8c0-3.3,1.4-5,4-5c2.4,0,3.8,1.3,3.8,3.7v1.1C271.9,115,271.8,115.3,271.2,115.3
			 M268,111c-1.4,0-2,1.2-2,2.6c0,0.2,0,0.3,0.2,0.3h3.5c0.2,0,0.2-0.1,0.2-0.3C270,111.9,269.5,111,268,111"/>
		<path class="st1" d="M278.6,111.2c0,0.2-0.1,0.3-0.3,0.3c-0.5,0-1,0.1-1.4,0.4c-0.8,0.5-1.3,1.1-1.3,1.7v5.2c0,0.5,0,0.7-0.3,0.7
			h-1.1c-0.4,0-0.5-0.2-0.5-0.6v-8.2c0-0.3,0.1-0.5,0.4-0.5h1.1c0.2,0,0.4,0.1,0.4,0.5v0.9c0.7-1,1.7-1.5,2.8-1.5
			c0.1,0,0.3,0,0.3,0.2L278.6,111.2z"/>
		<path class="st1" d="M287,119.4h-1.1c-0.3,0-0.5-0.2-0.5-0.6v-5.5c0-0.9-0.4-1.7-1.6-1.7c-1.3,0-1.9,1.1-1.9,2v5.2
			c0,0.5,0,0.7-0.4,0.7h-1.1c-0.4,0-0.5-0.2-0.5-0.6v-8.2c0-0.3,0.1-0.5,0.4-0.5h1.1c0.3,0,0.4,0.3,0.4,1.1c0.6-0.8,1.4-1.3,2.8-1.3
			c1.5,0,2.8,0.8,2.8,3v5.8C287.4,119.1,287.3,119.4,287,119.4"/>
		<path class="st1" d="M296.6,119.4h-1.1c-0.3,0-0.4-0.1-0.4-0.5v-0.7c-0.3,0.7-1.5,1.4-2.8,1.4c-1.7,0-3.1-1.4-3.1-4.8
			c0-3.1,1.1-5,3.1-5c1.5,0,2.4,0.6,2.9,1.4v-0.8c0-0.3,0.1-0.4,0.3-0.4h1.1c0.5,0,0.5,0.2,0.5,0.5v8.2
			C297.1,119.1,297,119.4,296.6,119.4 M295,113.3c0-0.8-0.5-2.2-1.9-2.2c-1.2,0-1.8,0.8-1.8,2.9v1.5c0,1.7,0.6,2.8,1.9,2.8
			c1.2,0,1.9-1.3,1.9-1.8V113.3z"/>
		<path class="st1" d="M303.1,119.6c-2.7,0-4.3-1.1-4.3-4.8c0-3.6,1.7-5,4.4-5c1.5,0,2.5,0.4,3.2,1.3c0.2,0.3-1.2,1.3-1.4,1
			c-0.3-0.6-0.9-1-1.8-1c-1.3,0-2.2,0.9-2.2,2.8v1.7c0,1.9,1,2.7,2.2,2.7c0.8,0,1.4-0.5,1.8-1.1c0.2-0.4,1.6,0.3,1.4,0.6
			C305.8,118.9,304.7,119.6,303.1,119.6"/>
		<path class="st1" d="M309.4,108.3h-1.2c-0.3,0-0.4-0.1-0.4-0.6v-0.6c0-0.4,0.1-0.5,0.5-0.5h1.1c0.4,0,0.4,0.2,0.4,0.6v0.6
			C309.7,108.2,309.6,108.3,309.4,108.3 M309.4,119.4h-1.2c-0.3,0-0.4-0.2-0.4-0.6v-8.2c0-0.3,0.1-0.5,0.4-0.5h1.1
			c0.4,0,0.4,0.1,0.4,0.5v8.2C309.7,119.2,309.7,119.4,309.4,119.4"/>
		<path class="st1" d="M315.8,119.6c-2.7,0-4.3-1.1-4.3-4.8c0-3.6,1.7-5,4.4-5c2.6,0,4.1,1.4,4.1,5
			C319.9,117.9,318.4,119.6,315.8,119.6 M317.9,113.8c0-1.5-0.6-2.7-2.1-2.7c-1.3,0-2.2,0.9-2.2,2.8v1.7c0,1.9,1,2.7,2.2,2.7
			c1.3,0,2.1-1.1,2.1-2.9V113.8z"/>
		<path class="st1" d="M328.8,119.4h-1.1c-0.3,0-0.4-0.2-0.4-0.6v-5.5c0-0.9-0.4-1.7-1.6-1.7c-1.3,0-1.9,1.1-1.9,2v5.2
			c0,0.5,0,0.7-0.3,0.7h-1.1c-0.4,0-0.5-0.2-0.5-0.6v-8.2c0-0.3,0.1-0.5,0.4-0.5h1.1c0.3,0,0.4,0.3,0.4,1.1c0.6-0.8,1.4-1.3,2.8-1.3
			c1.5,0,2.8,0.8,2.8,3v5.8C329.2,119.1,329.1,119.4,328.8,119.4"/>
		<path class="st1" d="M338.4,119.4h-1.1c-0.3,0-0.4-0.1-0.4-0.5v-0.7c-0.4,0.7-1.5,1.4-2.8,1.4c-1.7,0-3.1-1.4-3.1-4.8
			c0-3.1,1.1-5,3.1-5c1.5,0,2.4,0.6,2.9,1.4v-0.8c0-0.3,0.1-0.4,0.3-0.4h1.1c0.5,0,0.5,0.2,0.5,0.5v8.2
			C338.9,119.1,338.8,119.4,338.4,119.4 M336.8,113.3c0-0.8-0.5-2.2-1.9-2.2c-1.2,0-1.8,0.8-1.8,2.9v1.5c0,1.7,0.6,2.8,1.9,2.8
			c1.2,0,1.9-1.3,1.9-1.8V113.3z"/>
		<path class="st1" d="M342.5,119.4h-1.2c-0.4,0-0.4-0.1-0.4-0.6v-11.9c0-0.3,0.1-0.5,0.4-0.5h1.1c0.4,0,0.4,0.1,0.4,0.5v11.8
			C342.8,119.2,342.8,119.4,342.5,119.4"/>
		<path class="st1" d="M355.1,119.4H354c-0.3,0-0.4,0-0.4-0.5v-0.5c-0.6,0.8-1.6,1.2-2.9,1.2c-1.7,0-3.1-1.4-3.1-4.8
			c0-3.1,1.1-5,3.1-5c1.3,0,2.2,0.4,2.9,1.4V107c0-0.4,0.1-0.6,0.3-0.6h1.1c0.5,0,0.5,0.2,0.5,0.5v11.8
			C355.5,119.2,355.4,119.4,355.1,119.4 M353.4,113.2c0-0.9-0.5-2.1-1.9-2.1c-1.2,0-1.8,1.2-1.8,2.9v1.5c0,1.7,0.6,2.8,1.9,2.8
			c1.2,0,1.9-1.1,1.9-1.6V113.2z"/>
		<path class="st1" d="M364.4,115.3h-5.2c0,2,1,2.8,2.6,2.8c1.4,0,2.3-0.3,2.6-0.4c0.3-0.1,0.5,0,0.5,0.2v0.9c0,0.3-0.1,0.4-0.6,0.5
			c-0.2,0.1-1.6,0.3-2.6,0.3c-3,0-4.5-1.3-4.5-4.8c0-3.3,1.4-5,4-5c2.4,0,3.8,1.3,3.8,3.7v1.1C365.1,115,365.1,115.3,364.4,115.3
			 M361.3,111c-1.4,0-1.9,1.2-2,2.6c0,0.2,0,0.4,0.2,0.4h3.5c0.2,0,0.2-0.1,0.2-0.3C363.2,112,362.7,111,361.3,111"/>
		<path class="st1" d="M248.4,136.2h-3.9c-0.3,0-0.4-0.1-0.4-0.5V124c0-0.4,0-0.6,0.3-0.6h3.4c3,0,4.7,0.9,4.7,3.2
			c0,1.6-0.8,2.6-2,3.1c1.2,0.4,2.2,1.2,2.2,3.1C252.7,134.9,251.5,136.2,248.4,136.2 M247.8,124.9h-1.4c-0.3,0-0.3,0.2-0.3,0.3v3.4
			c0,0.2,0.1,0.3,0.3,0.3h1.4c1.8,0,2.6-0.6,2.6-2C250.5,125.4,249.6,124.9,247.8,124.9 M247.9,130.5h-1.4c-0.3,0-0.3,0.1-0.3,0.3
			v3.5c0,0.1,0.1,0.3,0.3,0.3h1.4c1.8,0,2.8-0.5,2.8-2C250.7,131.2,249.6,130.5,247.9,130.5"/>
		<path class="st1" d="M261.5,132.1h-5.2c0,2,1,2.8,2.6,2.8c1.4,0,2.3-0.3,2.6-0.4c0.3-0.1,0.5,0,0.5,0.2v0.9c0,0.3-0.1,0.4-0.6,0.5
			c-0.2,0.1-1.5,0.3-2.6,0.3c-3,0-4.5-1.3-4.5-4.8c0-3.3,1.4-5,4-5c2.4,0,3.8,1.3,3.8,3.7v1.1C262.2,131.8,262.2,132.1,261.5,132.1
			 M258.4,127.8c-1.4,0-2,1.2-2,2.6c0,0.2,0,0.4,0.2,0.4h3.5c0.2,0,0.2-0.1,0.2-0.3C260.3,128.7,259.8,127.8,258.4,127.8"/>
		<path class="st1" d="M265.6,136.2h-1.2c-0.4,0-0.4-0.1-0.4-0.6v-11.9c0-0.3,0.1-0.5,0.4-0.5h1.1c0.4,0,0.4,0.1,0.4,0.5v11.8
			C266,136,266,136.2,265.6,136.2"/>
		<path class="st1" d="M272,136.4c-2.7,0-4.3-1.1-4.3-4.8c0-3.6,1.7-5,4.4-5c2.6,0,4.1,1.4,4.1,5C276.2,134.7,274.6,136.4,272,136.4
			 M274.2,130.6c0-1.5-0.6-2.7-2.1-2.7c-1.3,0-2.2,0.9-2.2,2.8v1.7c0,1.9,1,2.7,2.2,2.7c1.3,0,2.1-1.2,2.1-2.9V130.6z"/>
		<path class="st1" d="M290.9,136.2h-1.3c-0.3,0-0.4-0.1-0.4-0.5v-5c0-0.3-0.1-0.4-0.3-0.4h-4.5c-0.2,0-0.3,0-0.3,0.3v5
			c0,0.5-0.1,0.6-0.5,0.6h-1.2c-0.3,0-0.4-0.2-0.4-0.7v-11.7c0-0.3,0.1-0.5,0.4-0.5h1.3c0.4,0,0.5,0.1,0.5,0.6v4.4
			c0,0.3,0.1,0.3,0.4,0.3h4.4c0.2,0,0.3-0.1,0.3-0.3v-4.5c0-0.3,0.1-0.5,0.5-0.5h1.2c0.4,0,0.4,0.1,0.4,0.4v11.8
			C291.3,136.1,291.2,136.2,290.9,136.2"/>
		<path class="st1" d="M297.5,136.4c-2.7,0-4.3-1.1-4.3-4.8c0-3.6,1.7-5,4.4-5c2.6,0,4.1,1.4,4.1,5
			C301.7,134.7,300.1,136.4,297.5,136.4 M299.7,130.6c0-1.5-0.6-2.7-2.1-2.7c-1.3,0-2.2,0.9-2.2,2.8v1.7c0,1.9,1,2.7,2.2,2.7
			c1.3,0,2.1-1.2,2.1-2.9V130.6z"/>
		<path class="st1" d="M308.4,128c0,0.2-0.1,0.3-0.3,0.3c-0.5,0-1,0.1-1.4,0.4c-0.8,0.5-1.3,1.1-1.3,1.7v5.2c0,0.5,0,0.7-0.3,0.7
			H304c-0.4,0-0.5-0.2-0.5-0.7v-8.2c0-0.3,0.1-0.5,0.4-0.5h1.1c0.2,0,0.4,0.1,0.4,0.5v0.9c0.7-1,1.7-1.5,2.8-1.5
			c0.1,0,0.3,0,0.3,0.2L308.4,128z"/>
		<path class="st1" d="M311.3,125.1h-1.2c-0.3,0-0.4-0.1-0.4-0.6v-0.6c0-0.4,0.1-0.5,0.5-0.5h1.1c0.4,0,0.4,0.2,0.4,0.6v0.6
			C311.6,125,311.5,125.1,311.3,125.1 M311.3,136.2H310c-0.3,0-0.4-0.2-0.4-0.6v-8.2c0-0.3,0.1-0.5,0.4-0.5h1.1
			c0.4,0,0.4,0.1,0.4,0.5v8.2C311.6,136,311.6,136.2,311.3,136.2"/>
		<path class="st1" d="M319.8,136.2h-6.1c-0.8,0-0.8-0.4-0.5-0.8l4.3-7.2h-3.9c-0.3,0-0.4,0-0.4-0.4v-0.6c0-0.3,0.1-0.3,0.4-0.3h6
			c0.6,0,0.8,0.1,0.5,0.6l-4.4,7.4h4.2c0.3,0,0.5,0,0.5,0.4v0.6C320.2,136.1,320.1,136.2,319.8,136.2"/>
		<path class="st1" d="M325.7,136.4c-2.7,0-4.3-1.1-4.3-4.8c0-3.6,1.7-5,4.4-5c2.6,0,4.1,1.4,4.1,5
			C329.8,134.7,328.3,136.4,325.7,136.4 M327.8,130.6c0-1.5-0.6-2.7-2.1-2.7c-1.3,0-2.2,0.9-2.2,2.8v1.7c0,1.9,1,2.7,2.2,2.7
			c1.3,0,2.1-1.2,2.1-2.9V130.6z"/>
		<path class="st1" d="M338.7,136.2h-1.1c-0.3,0-0.5-0.2-0.5-0.6V130c0-0.9-0.4-1.7-1.6-1.7c-1.3,0-1.9,1.1-1.9,2v5.2
			c0,0.5,0,0.7-0.3,0.7h-1.1c-0.4,0-0.5-0.2-0.5-0.7v-8.2c0-0.3,0.1-0.5,0.4-0.5h1.1c0.3,0,0.4,0.3,0.4,1.1c0.6-0.8,1.4-1.3,2.8-1.3
			c1.5,0,2.8,0.8,2.8,3v5.8C339.1,135.9,339,136.2,338.7,136.2"/>
		<path class="st1" d="M345.4,128.4h-1.6v5.7c0,0.6,0.3,0.9,0.8,0.9c0.3,0,0.5,0,0.9-0.1c0.2,0,0.3,1.2,0.2,1.3
			c-0.3,0.1-1,0.2-1.6,0.2c-1.7,0-2.2-1.1-2.2-2.3v-5.7h-0.9c-0.2,0-0.3-0.1-0.3-0.4v-0.7c0-0.3,0.1-0.3,0.4-0.3h0.8v-1.7
			c0-0.3,0.2-0.4,0.5-0.4l0.9-0.2c0.4-0.1,0.5,0.1,0.5,0.4v1.9h1.7c0.3,0,0.4,0.2,0.4,0.4v0.7C345.9,128.3,345.8,128.4,345.4,128.4"
			/>
		<path class="st1" d="M354.3,132.1h-5.2c0,2,1,2.8,2.6,2.8c1.4,0,2.3-0.3,2.6-0.4c0.3-0.1,0.5,0,0.5,0.2v0.9c0,0.3-0.1,0.4-0.6,0.5
			c-0.2,0.1-1.5,0.3-2.6,0.3c-3,0-4.5-1.3-4.5-4.8c0-3.3,1.4-5,4-5c2.4,0,3.8,1.3,3.8,3.7v1.1C355,131.8,354.9,132.1,354.3,132.1
			 M351.1,127.8c-1.4,0-2,1.2-2,2.6c0,0.2,0,0.4,0.2,0.4h3.5c0.2,0,0.2-0.1,0.2-0.3C353,128.7,352.5,127.8,351.1,127.8"/>
	</g>
	<rect x="222.3" y="4.4" class="st2" width="0.3" height="146.1"/>
	<rect x="243.9" y="75.9" class="st2" width="136" height="0.3"/>
	<polygon class="st0" points="11.6,44.8 16.1,44.8 16.1,52 22.6,52 22.6,44.8 27.1,44.8 27.1,62.9 22.6,62.9 22.6,55.8 16.1,55.8 
		16.1,62.9 11.6,62.9 	"/>
	<g>
		<path class="st0" d="M30.5,44.8h4.4v11.5c0,1.9,1.2,2.9,3.1,2.9c1.9,0,3.1-1,3.1-2.9V44.8h4.4v11.5c0,4.1-3,7-7.6,7
			c-4.6,0-7.6-2.9-7.6-7V44.8z"/>
		<path class="st0" d="M56.1,59.1c1.3,0,1.9-0.9,1.9-1.9c0-1-0.6-1.9-1.9-1.9h-2.7v3.8H56.1z M55.7,51.8c1.1,0,1.6-0.8,1.6-1.7
			c0-0.8-0.5-1.5-1.7-1.5h-2.2v3.2H55.7z M49,44.8h6.7c3.6,0,6.2,1.6,6.2,4.7c0,1.5-0.7,3.1-2.1,3.9v0.1c2.1,0.6,2.8,2.5,2.8,4.1
			c0,4-3.3,5.4-6.9,5.4H49V44.8z"/>
	</g>
	<polygon class="st0" points="70.3,44.8 74.7,44.8 74.7,59.1 82.1,59.1 82.1,62.9 70.3,62.9 	"/>
	<g>
		<path class="st0" d="M92,59.2c2.7,0,4.9-2.3,4.9-5.4c0-3-2.2-5.2-4.9-5.2c-2.7,0-4.9,2.2-4.9,5.2C87.1,56.8,89.3,59.2,92,59.2
			 M92,44.5c5.5,0,9.5,4.1,9.5,9.3c0,5.3-4,9.5-9.5,9.5c-5.5,0-9.5-4.2-9.5-9.5C82.5,48.5,86.5,44.5,92,44.5"/>
		<path class="st0" d="M112.2,44.5c4.6,0,7,2.4,7,2.4l-2.1,3.3c0,0-1.9-1.7-4.4-1.7c-3.8,0-5.4,2.4-5.4,5.1c0,3.4,2.4,5.5,5.2,5.5
			c2.1,0,3.7-1.3,3.7-1.3v-1.4h-2.6v-3.8h6.5v10.2h-3.7v-0.5c0-0.4,0-0.8,0-0.8h-0.1c0,0-1.7,1.6-4.8,1.6c-4.6,0-8.9-3.5-8.9-9.4
			C102.7,48.5,106.6,44.5,112.2,44.5"/>
	</g>
	<path class="st0" d="M125.2,39.8h4.3l-3,3.8h-3.4L125.2,39.8z M122.8,44.8h4.4v18.1h-4.4V44.8z"/>
	<g>
		<path class="st0" d="M131.8,57.3c0,0,2.1,1.9,4.3,1.9c0.9,0,1.9-0.4,1.9-1.4c0-2.2-8.2-2.1-8.2-7.7c0-3.3,2.8-5.6,6.4-5.6
			c3.9,0,5.8,2.1,5.8,2.1l-1.9,3.6c0,0-1.8-1.6-4-1.6c-0.9,0-1.9,0.4-1.9,1.4c0,2.3,8.2,1.9,8.2,7.6c0,3-2.3,5.6-6.4,5.6
			c-4.3,0-6.6-2.6-6.6-2.6L131.8,57.3z"/>
	</g>
	<polygon class="st0" points="148.4,48.6 142.9,48.6 142.9,44.8 158.3,44.8 158.3,48.6 152.8,48.6 152.8,62.9 148.4,62.9 	"/>
	<rect x="159.9" y="44.8" class="st0" width="4.4" height="18.1"/>
	<g>
		<path class="st0" d="M176.3,44.5c4.5,0,6.8,2.6,6.8,2.6l-2.1,3.3c0,0-2-1.9-4.5-1.9c-3.5,0-5.1,2.6-5.1,5.2c0,2.7,1.8,5.5,5.1,5.5
			c2.7,0,4.8-2.2,4.8-2.2l2.3,3.2c0,0-2.6,3-7.3,3c-5.7,0-9.5-4-9.5-9.4C166.8,48.5,170.8,44.5,176.3,44.5"/>
		<path class="st0" d="M193.8,59.2c2.7,0,4.9-2.3,4.9-5.4c0-3-2.2-5.2-4.9-5.2c-2.7,0-4.9,2.2-4.9,5.2
			C188.9,56.8,191.1,59.2,193.8,59.2 M193.8,44.5c5.5,0,9.5,4.1,9.5,9.3c0,5.3-4,9.5-9.5,9.5c-5.5,0-9.5-4.2-9.5-9.5
			C184.3,48.5,188.3,44.5,193.8,44.5"/>
		<path class="st0" d="M40.2,71.9H45l2.6,7.7c0.4,1.2,0.9,3,0.9,3h0.1c0,0,0.5-1.8,0.9-3l2.6-7.7H57L58.5,90H54l-0.6-8.2
			c-0.1-1.4,0-3,0-3h-0.1c0,0-0.6,1.9-1,3l-1.9,5.3h-3.8l-1.9-5.3c-0.4-1.1-1-3-1-3h-0.1c0,0,0.1,1.7,0,3L43.2,90h-4.5L40.2,71.9z"
			/>
		<path class="st0" d="M61.3,71.9h4.4v11.5c0,1.9,1.2,2.9,3.1,2.9c1.9,0,3.1-1,3.1-2.9V71.9h4.4v11.5c0,4.1-3,7-7.6,7
			c-4.6,0-7.6-2.9-7.6-7V71.9z"/>
	</g>
	<polygon class="st0" points="79.8,71.9 84.3,71.9 84.3,86.2 91.7,86.2 91.7,90 79.8,90 	"/>
	<polygon class="st0" points="95.7,75.7 90.2,75.7 90.2,71.9 105.6,71.9 105.6,75.7 100.1,75.7 100.1,90 95.7,90 	"/>
	<rect x="107.2" y="71.9" class="st0" width="4.4" height="18.1"/>
	<g>
		<path class="st0" d="M116.2,71.9h4.8l2.6,7.7c0.4,1.2,0.9,3,0.9,3h0.1c0,0,0.5-1.8,0.9-3l2.6-7.7h4.8l1.5,18.1H130l-0.6-8.2
			c-0.1-1.4,0-3,0-3h-0.1c0,0-0.6,1.9-1,3l-1.9,5.3h-3.8l-1.9-5.3c-0.4-1.1-1-3-1-3h-0.1c0,0,0.1,1.7,0,3l-0.6,8.2h-4.5L116.2,71.9z
			"/>
		<path class="st0" d="M145.8,86.3c2.7,0,4.9-2.3,4.9-5.4c0-3-2.2-5.2-4.9-5.2c-2.7,0-4.9,2.2-4.9,5.2
			C140.9,83.9,143.1,86.3,145.8,86.3 M145.8,71.6c5.5,0,9.5,4.1,9.5,9.3c0,5.3-4,9.5-9.5,9.5c-5.5,0-9.5-4.2-9.5-9.5
			C136.3,75.6,140.3,71.6,145.8,71.6"/>
		<path class="st0" d="M163.9,86.2c3.1,0,4.9-1.8,4.9-5.3c0-3.4-2-5.2-4.9-5.2h-1.8v10.5H163.9z M157.7,71.9h6.4
			c5.7,0,9.4,3.3,9.4,9c0,5.7-3.7,9.1-9.4,9.1h-6.4V71.9z"/>
		<path class="st0" d="M182.1,76c0,0-0.4,2-0.7,3.1l-1,3.5h3.6l-1-3.5C182.5,78,182.1,76,182.1,76L182.1,76z M184.9,86.2h-5.7
			l-1.1,3.8h-4.6l6.2-18.1h4.7l6.2,18.1H186L184.9,86.2z"/>
	</g>
	<polygon class="st0" points="192,71.9 196.4,71.9 196.4,86.2 203.8,86.2 203.8,90 192,90 	"/>
	<rect x="50.7" y="107.8" class="st2" width="0.6" height="10.3"/>
	<g>
		<path class="st2" d="M54.5,107.8h0.6l5.9,8.1c0.3,0.5,0.8,1.3,0.8,1.3h0c0,0-0.1-0.8-0.1-1.3v-8.1h0.6v10.3h-0.6l-5.9-8.1
			c-0.3-0.5-0.8-1.3-0.8-1.3h0c0,0,0.1,0.8,0.1,1.3v8.1h-0.6V107.8z"/>
	</g>
	<polygon class="st2" points="67.9,108.4 64.1,108.4 64.1,107.8 72.4,107.8 72.4,108.4 68.5,108.4 68.5,118.1 67.9,118.1 	"/>
	<polygon class="st2" points="74.1,107.8 79.7,107.8 79.7,108.4 74.7,108.4 74.7,112.6 78.8,112.6 78.8,113.2 74.7,113.2 
		74.7,117.5 80,117.5 80,118.1 74.1,118.1 	"/>
	<g>
		<path class="st2" d="M86.8,107.6c2.3,0,3.6,1.2,3.6,1.2l-0.4,0.5c0,0-1.2-1-3.2-1c-2.6,0-4.5,2.1-4.5,4.7c0,2.7,1.8,4.7,4.4,4.7
			c2.2,0,3.5-1.7,3.5-1.7v-2h-1.8v-0.6h2.5v4.7h-0.6v-0.9c0-0.2,0-0.4,0-0.4h0c0,0-1.2,1.5-3.5,1.5c-2.9,0-5-2.3-5-5.3
			C81.7,110,83.9,107.6,86.8,107.6"/>
		<path class="st2" d="M96.9,112.9c1.4,0,2.2-1,2.2-2.4c0-0.9-0.5-1.6-1.2-2c-0.3-0.1-0.6-0.2-1.4-0.2h-2.4v4.6H96.9z M93.5,107.8h3
			c1,0,1.4,0.1,1.9,0.3c0.9,0.4,1.4,1.3,1.4,2.5c0,1.5-0.9,2.6-2.1,2.8v0c0,0,0.1,0.1,0.2,0.4l2.3,4.3h-0.7l-2.4-4.6h-3v4.6h-0.6
			V107.8z"/>
		<path class="st2" d="M105.5,108.5c0,0-0.2,0.8-0.4,1.2l-1.6,4.2h3.9l-1.6-4.2C105.7,109.3,105.5,108.5,105.5,108.5L105.5,108.5z
			 M107.6,114.5h-4.4l-1.3,3.6h-0.7l3.9-10.3h0.7l3.8,10.3H109L107.6,114.5z"/>
		<path class="st2" d="M114.6,117.5c2.7,0,4.6-1.6,4.6-4.6c0-2.9-1.8-4.6-4.6-4.6h-2.5v9.1H114.6z M111.5,107.8h3.2
			c3.1,0,5.1,1.9,5.1,5.1c0,3.3-2.1,5.1-5.1,5.1h-3.2V107.8z"/>
		<path class="st2" d="M126.9,117.7c2.5,0,4.5-2.1,4.5-4.8c0-2.6-2-4.6-4.5-4.6c-2.5,0-4.5,2-4.5,4.6
			C122.3,115.6,124.4,117.7,126.9,117.7 M126.9,107.6c2.9,0,5.2,2.3,5.2,5.2c0,3-2.3,5.4-5.2,5.4c-2.9,0-5.2-2.4-5.2-5.4
			C121.7,109.9,124,107.6,126.9,107.6"/>
	</g>
	<rect x="133.6" y="117.2" class="st2" width="0.9" height="0.9"/>
	<g>
		<path class="st0" d="M145.9,107.6c2.3,0,3.6,1.2,3.6,1.2l-0.4,0.5c0,0-1.2-1-3.2-1c-2.6,0-4.5,2.1-4.5,4.7c0,2.7,1.8,4.7,4.4,4.7
			c2.2,0,3.5-1.7,3.5-1.7v-2h-1.8v-0.6h2.5v4.7h-0.6v-0.9c0-0.2,0-0.4,0-0.4h0c0,0-1.2,1.5-3.5,1.5c-2.9,0-5-2.3-5-5.3
			C140.8,110,143,107.6,145.9,107.6"/>
	</g>
	<polygon class="st0" points="152.6,107.8 153.2,107.8 153.2,117.5 158.2,117.5 158.2,118.1 152.6,118.1 	"/>
	<g>
		<path class="st0" d="M164,117.7c2.5,0,4.5-2.1,4.5-4.8c0-2.6-2-4.6-4.5-4.6c-2.5,0-4.5,2-4.5,4.6
			C159.5,115.6,161.5,117.7,164,117.7 M164,107.6c2.9,0,5.2,2.3,5.2,5.2c0,3-2.3,5.4-5.2,5.4c-2.9,0-5.2-2.4-5.2-5.4
			C158.8,109.9,161.1,107.6,164,107.6"/>
		<path class="st0" d="M175.2,117.5c1.4,0,2.3-0.9,2.3-2.2c0-1.4-1-2.3-2.3-2.3h-2.9v4.5H175.2z M175.1,112.4c1.1,0,2-0.8,2-2
			c0-1.2-0.8-2-2-2h-2.8v4H175.1z M171.7,107.8h3.5c1.5,0,2.6,1,2.6,2.6c0,1.1-0.5,1.9-1.3,2.2v0c1,0.3,1.7,1.3,1.7,2.6
			c0,1.7-1.2,2.8-2.9,2.8h-3.6V107.8z"/>
		<path class="st0" d="M183.6,108.5c0,0-0.2,0.8-0.4,1.2l-1.6,4.2h3.9l-1.6-4.2C183.9,109.3,183.6,108.5,183.6,108.5L183.6,108.5z
			 M185.8,114.5h-4.4l-1.3,3.6h-0.7l3.9-10.3h0.7l3.9,10.3h-0.7L185.8,114.5z"/>
	</g>
	<polygon class="st0" points="189.7,107.8 190.3,107.8 190.3,117.5 195.2,117.5 195.2,118.1 189.7,118.1 	"/>
	<rect x="196.9" y="117.2" class="st0" width="0.9" height="0.9"/>
	<g>
		<path class="st0" d="M193.8,32.8c-1.2,0-2.2,1-2.2,2.2s1,2.2,2.2,2.2c1.2,0,2.2-1,2.2-2.2S195,32.8,193.8,32.8 M193.8,38.2
			c-1.8,0-3.2-1.4-3.2-3.2s1.4-3.2,3.2-3.2c1.8,0,3.2,1.4,3.2,3.2S195.6,38.2,193.8,38.2"/>
	</g>
	<rect x="201.1" y="56.6" transform="matrix(0.7444 -0.6677 0.6677 0.7444 9.1061 150.8014)" class="st0" width="1" height="13.8"/>
	<g>
		<path class="st0" d="M208.9,67.6c-1,0-2,0.3-2.7,1c-0.8,0.7-1.3,1.7-1.4,2.8c-0.1,1.1,0.3,2.1,1,3c0.7,0.8,1.7,1.3,2.8,1.4
			c1.1,0.1,2.1-0.3,3-1c0.8-0.7,1.3-1.7,1.4-2.8c0.1-1.1-0.3-2.1-1-3C211.1,68,210,67.6,208.9,67.6 M208.9,76.7c-0.1,0-0.2,0-0.3,0
			c-1.4-0.1-2.6-0.7-3.5-1.7c-0.9-1-1.4-2.3-1.3-3.7c0.1-1.4,0.7-2.6,1.7-3.5c2.1-1.9,5.3-1.7,7.2,0.4c0.9,1,1.4,2.3,1.3,3.7
			c-0.1,1.4-0.7,2.6-1.7,3.5C211.3,76.3,210.2,76.7,208.9,76.7"/>
	</g>
	<rect x="198.6" y="49.2" transform="matrix(0.8691 -0.4946 0.4946 0.8691 1.8761 106.4118)" class="st0" width="6.8" height="1"/>
	<rect x="185.7" y="63.3" transform="matrix(0.5372 -0.8435 0.8435 0.5372 33.7216 189.047)" class="st0" width="6.8" height="1"/>
	<g>
		<path class="st0" d="M206.9,45.1c-0.2,0-0.5,0.1-0.7,0.2c-0.7,0.4-1,1.3-0.6,2c0.4,0.7,1.3,1,2,0.6c0.7-0.4,1-1.3,0.6-2
			C207.9,45.4,207.4,45.1,206.9,45.1 M206.9,49c-0.9,0-1.7-0.4-2.1-1.2c-0.7-1.2-0.3-2.7,0.9-3.4c1.2-0.7,2.7-0.3,3.4,0.9
			c0.7,1.2,0.3,2.7-0.9,3.4h0C207.8,48.9,207.3,49,206.9,49"/>
		<path class="st0" d="M186.2,66.7c-0.3,0-0.5,0.1-0.7,0.2c-0.3,0.2-0.6,0.5-0.7,0.9c-0.1,0.4-0.1,0.8,0.1,1.1c0.4,0.7,1.3,1,2,0.6
			c0.7-0.4,1-1.3,0.6-2c-0.2-0.3-0.5-0.6-0.9-0.7C186.5,66.7,186.4,66.7,186.2,66.7 M186.2,70.7c-0.9,0-1.7-0.4-2.1-1.2
			c-0.3-0.6-0.4-1.2-0.2-1.9c0.2-0.6,0.6-1.2,1.2-1.5c0.6-0.3,1.2-0.4,1.9-0.2c0.6,0.2,1.2,0.6,1.5,1.2c0.7,1.2,0.3,2.7-0.9,3.4h0
			C187.1,70.6,186.6,70.7,186.2,70.7"/>
	</g>
	<rect x="193.3" y="37.7" class="st0" width="1" height="8.3"/>
</g>
</svg>
