<?xml version="1.0" encoding="utf-8"?>
<!-- Generator: Adobe Illustrator 24.1.2, SVG Export Plug-In . SVG Version: 6.00 Build 0)  -->
<svg version="1.1" id="Camada_1" xmlns="http://www.w3.org/2000/svg" xmlns:xlink="http://www.w3.org/1999/xlink" x="0px" y="0px"
	 viewBox="0 0 400.9 159" style="enable-background:new 0 0 400.9 159;" xml:space="preserve">
<style type="text/css">
	.st0{fill:#6D8D59;}
	.st1{fill:#2C528B;}
	.st2{fill:#9D9D9C;}
</style>
<g>
	<polygon class="st0" points="16.3,46.7 20.7,46.7 20.7,54 27.3,54 27.3,46.7 31.7,46.7 31.7,64.9 27.3,64.9 27.3,57.8 20.7,57.8 
		20.7,64.9 16.3,64.9 	"/>
	<g>
		<path class="st0" d="M35.1,46.7h4.4v11.5c0,1.9,1.2,2.9,3.1,2.9c1.9,0,3.1-1,3.1-2.9V46.7h4.4v11.5c0,4.1-3,7-7.6,7
			c-4.6,0-7.6-2.9-7.6-7V46.7z"/>
		<path class="st0" d="M60.8,61.1c1.3,0,1.9-0.9,1.9-1.9c0-1-0.6-1.9-1.9-1.9h-2.7v3.8H60.8z M60.4,53.8c1.1,0,1.6-0.8,1.6-1.7
			c0-0.8-0.5-1.5-1.7-1.5h-2.2v3.2H60.4z M53.7,46.7h6.7c3.6,0,6.2,1.6,6.2,4.7c0,1.5-0.7,3.1-2.1,3.9v0.1c2.1,0.6,2.8,2.5,2.8,4.1
			c0,4-3.3,5.4-6.9,5.4h-6.7V46.7z"/>
	</g>
	<polygon class="st0" points="75,46.7 79.4,46.7 79.4,61.1 86.8,61.1 86.8,64.9 75,64.9 	"/>
	<g>
		<path class="st0" d="M96.8,61.1c2.7,0,4.9-2.3,4.9-5.4c0-3-2.2-5.2-4.9-5.2c-2.7,0-4.9,2.2-4.9,5.2C91.9,58.8,94.1,61.1,96.8,61.1
			 M96.8,46.4c5.5,0,9.5,4.1,9.5,9.3c0,5.3-4,9.5-9.5,9.5c-5.5,0-9.5-4.2-9.5-9.5C87.3,50.5,91.3,46.4,96.8,46.4"/>
		<path class="st0" d="M117,46.4c4.6,0,7,2.4,7,2.4l-2.1,3.3c0,0-1.9-1.7-4.4-1.7c-3.8,0-5.4,2.4-5.4,5.1c0,3.5,2.4,5.5,5.2,5.5
			c2.1,0,3.7-1.3,3.7-1.3v-1.4h-2.6v-3.8h6.5v10.3h-3.7v-0.5c0-0.4,0-0.8,0-0.8h-0.1c0,0-1.8,1.6-4.8,1.6c-4.6,0-8.9-3.5-8.9-9.4
			C107.4,50.5,111.4,46.4,117,46.4"/>
	</g>
	<path class="st0" d="M130,41.8h4.3l-3,3.8H128L130,41.8z M127.6,46.7h4.4v18.2h-4.4V46.7z"/>
	<g>
		<path class="st0" d="M136.6,59.2c0,0,2.1,1.9,4.3,1.9c0.9,0,1.9-0.4,1.9-1.4c0-2.2-8.2-2.1-8.2-7.7c0-3.4,2.8-5.6,6.4-5.6
			c3.9,0,5.8,2.1,5.8,2.1l-1.9,3.6c0,0-1.8-1.6-4-1.6c-0.9,0-1.9,0.4-1.9,1.4c0,2.3,8.2,1.9,8.2,7.6c0,3-2.3,5.6-6.4,5.6
			c-4.3,0-6.6-2.6-6.6-2.6L136.6,59.2z"/>
	</g>
	<polygon class="st0" points="153.2,50.5 147.7,50.5 147.7,46.7 163.2,46.7 163.2,50.5 157.7,50.5 157.7,64.9 153.2,64.9 	"/>
	<rect x="164.8" y="46.7" class="st0" width="4.4" height="18.2"/>
	<g>
		<path class="st0" d="M181.1,46.4c4.5,0,6.8,2.6,6.8,2.6l-2.1,3.4c0,0-2-1.9-4.5-1.9c-3.5,0-5.1,2.6-5.1,5.2c0,2.7,1.8,5.5,5.1,5.5
			c2.7,0,4.8-2.2,4.8-2.2l2.3,3.3c0,0-2.6,3-7.3,3c-5.7,0-9.5-4-9.5-9.4C171.6,50.5,175.7,46.4,181.1,46.4"/>
		<path class="st0" d="M198.7,61.1c2.7,0,4.9-2.3,4.9-5.4c0-3-2.2-5.2-4.9-5.2c-2.7,0-4.9,2.2-4.9,5.2
			C193.8,58.8,196,61.1,198.7,61.1 M198.7,46.4c5.5,0,9.5,4.1,9.5,9.3c0,5.3-4,9.5-9.5,9.5c-5.5,0-9.5-4.2-9.5-9.5
			C189.2,50.5,193.2,46.4,198.7,46.4"/>
		<path class="st0" d="M44.9,73.9h4.8l2.6,7.7c0.4,1.2,0.9,3,0.9,3h0.1c0,0,0.5-1.8,0.9-3l2.6-7.7h4.8L63.2,92h-4.4l-0.6-8.2
			c-0.1-1.4,0-3,0-3h-0.1c0,0-0.6,1.9-1,3l-1.9,5.3h-3.8l-1.9-5.3c-0.4-1.1-1-3-1-3h-0.1c0,0,0.1,1.7,0,3L47.9,92h-4.5L44.9,73.9z"
			/>
		<path class="st0" d="M66,73.9h4.4v11.5c0,1.9,1.2,2.9,3.1,2.9c1.9,0,3.1-1,3.1-2.9V73.9h4.4v11.5c0,4.1-3,7-7.6,7
			c-4.6,0-7.6-2.9-7.6-7V73.9z"/>
	</g>
	<polygon class="st0" points="84.6,73.9 89,73.9 89,88.2 96.4,88.2 96.4,92 84.6,92 	"/>
	<polygon class="st0" points="100.4,77.7 94.9,77.7 94.9,73.9 110.4,73.9 110.4,77.7 104.9,77.7 104.9,92 100.4,92 	"/>
	<rect x="112" y="73.9" class="st0" width="4.4" height="18.2"/>
	<g>
		<path class="st0" d="M121,73.9h4.8l2.6,7.7c0.4,1.2,0.9,3,0.9,3h0.1c0,0,0.5-1.8,0.9-3l2.6-7.7h4.8l1.5,18.2h-4.4l-0.6-8.2
			c-0.1-1.4,0-3,0-3h-0.1c0,0-0.6,1.9-1,3l-1.9,5.3h-3.8l-1.9-5.3c-0.4-1.1-1-3-1-3h-0.1c0,0,0.1,1.7,0,3L124,92h-4.5L121,73.9z"/>
		<path class="st0" d="M150.6,88.3c2.7,0,4.9-2.3,4.9-5.4c0-3-2.2-5.2-4.9-5.2c-2.7,0-4.9,2.2-4.9,5.2
			C145.7,85.9,147.9,88.3,150.6,88.3 M150.6,73.6c5.5,0,9.5,4.1,9.5,9.3c0,5.3-4,9.5-9.5,9.5c-5.5,0-9.5-4.2-9.5-9.5
			C141.1,77.6,145.1,73.6,150.6,73.6"/>
		<path class="st0" d="M168.8,88.2c3.1,0,5-1.8,5-5.3c0-3.5-2-5.2-5-5.2h-1.8v10.5H168.8z M162.5,73.9h6.5c5.7,0,9.4,3.3,9.4,9
			c0,5.7-3.7,9.1-9.4,9.1h-6.5V73.9z"/>
		<path class="st0" d="M187,78c0,0-0.4,2-0.7,3.1l-1,3.5h3.6l-1-3.5C187.4,80,187,78,187,78L187,78z M189.8,88.2h-5.7l-1.1,3.8h-4.6
			l6.2-18.2h4.7l6.2,18.2h-4.6L189.8,88.2z"/>
	</g>
	<polygon class="st0" points="196.9,73.9 201.3,73.9 201.3,88.2 208.8,88.2 208.8,92 196.9,92 	"/>
	<g>
		<path class="st0" d="M257.3,20c3.9,0,6,2.3,6,2.3l-1.8,2.9c0,0-1.8-1.6-4-1.6c-3.1,0-4.5,2.3-4.5,4.5c0,2.4,1.6,4.8,4.5,4.8
			c2.4,0,4.2-2,4.2-2l2,2.9c0,0-2.3,2.7-6.4,2.7c-5,0-8.4-3.5-8.4-8.3C249,23.6,252.5,20,257.3,20"/>
	</g>
	<rect x="265.6" y="20.3" class="st0" width="3.9" height="15.9"/>
	<path class="st0" d="M275.9,15.9h3.7l2.2,3.3h-3l-1-1.8h0l-1,1.8h-3L275.9,15.9z M272.6,20.3h10v3.3h-6.1v2.9h4.9v3.3h-4.9v3h6.4
		v3.3h-10.3V20.3z"/>
	<g>
		<path class="st0" d="M285.2,20.3h3.9l4.4,7.4c0.6,1,1.3,2.7,1.3,2.7h0c0,0-0.2-1.7-0.2-2.7v-7.4h3.9v15.9h-3.9l-4.4-7.4
			c-0.6-1-1.3-2.7-1.3-2.7h0c0,0,0.2,1.7,0.2,2.7v7.4h-3.9V20.3z"/>
		<path class="st0" d="M309.1,20c3.9,0,6,2.3,6,2.3l-1.8,2.9c0,0-1.8-1.6-4-1.6c-3.1,0-4.5,2.3-4.5,4.5c0,2.4,1.6,4.8,4.5,4.8
			c2.4,0,4.2-2,4.2-2l2,2.9c0,0-2.3,2.7-6.4,2.7c-5,0-8.4-3.5-8.4-8.3C300.7,23.6,304.3,20,309.1,20"/>
	</g>
	<rect x="317.3" y="20.3" class="st0" width="3.9" height="15.9"/>
	<g>
		<path class="st0" d="M329.9,23.9c0,0-0.4,1.7-0.6,2.7l-0.9,3.1h3.1l-0.9-3.1C330.3,25.7,329.9,23.9,329.9,23.9L329.9,23.9z
			 M332.4,32.9h-5l-1,3.3h-4l5.4-15.9h4.1l5.4,15.9h-4L332.4,32.9z"/>
		<path class="st0" d="M339.5,31.3c0,0,1.8,1.6,3.8,1.6c0.8,0,1.7-0.3,1.7-1.3c0-1.9-7.2-1.8-7.2-6.7c0-2.9,2.5-4.9,5.6-4.9
			c3.4,0,5.1,1.8,5.1,1.8l-1.6,3.2c0,0-1.6-1.4-3.5-1.4c-0.8,0-1.7,0.4-1.7,1.2c0,2,7.2,1.6,7.2,6.7c0,2.7-2,4.9-5.6,4.9
			c-3.7,0-5.8-2.3-5.8-2.3L339.5,31.3z"/>
		<path class="st0" d="M260.1,56.8c2.7,0,4.3-1.6,4.3-4.7c0-3-1.7-4.6-4.3-4.6h-1.6v9.2H260.1z M254.6,44.2h5.7c5,0,8.2,2.9,8.2,7.9
			c0,5-3.2,8-8.2,8h-5.7V44.2z"/>
		<path class="st0" d="M276.1,47.9c0,0-0.4,1.7-0.6,2.7l-0.9,3.1h3.1l-0.9-3.1C276.5,49.6,276.1,47.9,276.1,47.9L276.1,47.9z
			 M278.6,56.8h-5l-1,3.3h-4l5.4-15.9h4.1l5.4,15.9h-4L278.6,56.8z"/>
		<path class="st0" d="M287.3,44.2h4.2l2.8,9.1c0.3,1,0.6,2.6,0.6,2.6h0c0,0,0.3-1.6,0.6-2.6l2.9-9.1h4.2L297,60.2H293L287.3,44.2z"
			/>
	</g>
	<rect x="303.8" y="44.2" class="st0" width="3.9" height="15.9"/>
	<g>
		<path class="st0" d="M316.4,56.8c2.7,0,4.3-1.6,4.3-4.7c0-3-1.7-4.6-4.3-4.6h-1.6v9.2H316.4z M310.9,44.2h5.7c5,0,8.2,2.9,8.2,7.9
			c0,5-3.2,8-8.2,8h-5.7V44.2z"/>
		<path class="st0" d="M332.4,47.9c0,0-0.4,1.7-0.6,2.7l-0.9,3.1h3.1l-0.9-3.1C332.8,49.6,332.4,47.9,332.4,47.9L332.4,47.9z
			 M334.9,56.8h-5l-1,3.3h-4l5.4-15.9h4.1l5.4,15.9h-4L334.9,56.8z"/>
		<path class="st1" d="M258.4,104.6H257c-0.3,0-0.3-0.1-0.4-0.5l-0.8-2.4h-4.3l-0.7,2.4c-0.1,0.4-0.2,0.5-0.4,0.5h-1.3
			c-0.2,0-0.3-0.1-0.1-0.6l3.5-11.6c0.1-0.4,0.2-0.6,0.6-0.6h1.4c0.4,0,0.5,0.2,0.6,0.6l3.5,11.6
			C258.9,104.6,258.7,104.6,258.4,104.6 M253.7,94.4l-1.7,5.8h3.4L253.7,94.4z"/>
		<path class="st1" d="M267.2,100.5H262c0,2,1,2.8,2.6,2.8c1.4,0,2.3-0.3,2.6-0.4c0.3-0.1,0.5,0,0.5,0.2v0.9c0,0.3-0.1,0.4-0.6,0.5
			c-0.2,0.1-1.5,0.3-2.6,0.3c-3,0-4.5-1.3-4.5-4.8c0-3.3,1.4-5,4-5c2.4,0,3.8,1.3,3.8,3.7v1.1C267.9,100.3,267.8,100.5,267.2,100.5
			 M264,96.3c-1.4,0-2,1.2-2,2.6c0,0.2,0,0.3,0.2,0.3h3.5c0.2,0,0.2-0.1,0.2-0.3C266,97.2,265.5,96.3,264,96.3"/>
		<path class="st1" d="M274.6,96.4c0,0.2-0.1,0.3-0.3,0.3c-0.5,0-1,0.1-1.4,0.4c-0.8,0.5-1.3,1.1-1.3,1.7v5.2c0,0.5,0,0.7-0.3,0.7
			h-1.1c-0.4,0-0.5-0.2-0.5-0.6v-8.2c0-0.3,0.1-0.5,0.4-0.5h1.1c0.2,0,0.4,0.1,0.4,0.5v0.9c0.7-1,1.7-1.5,2.8-1.5
			c0.1,0,0.3,0,0.3,0.2L274.6,96.4z"/>
		<path class="st1" d="M279.9,104.8c-2.7,0-4.3-1.1-4.3-4.8c0-3.6,1.7-5,4.4-5c2.6,0,4.1,1.4,4.1,5
			C284,103.1,282.5,104.8,279.9,104.8 M282.1,99c0-1.5-0.6-2.7-2.1-2.7c-1.3,0-2.2,0.9-2.2,2.8v1.7c0,1.9,1,2.7,2.2,2.7
			c1.3,0,2.1-1.1,2.1-2.9V99z"/>
		<path class="st1" d="M290.6,104.8c-1.3,0-2.2-0.4-2.8-1.2v4c0,0.4-0.1,0.6-0.3,0.6h-1.2c-0.4,0-0.5-0.1-0.5-0.6V95.9
			c0-0.4,0-0.6,0.5-0.6h1.1c0.3,0,0.4,0.1,0.4,0.5v0.6c0.7-0.9,1.7-1.4,2.9-1.4c1.9,0,3,1.9,3,4.9
			C293.7,103.5,292.4,104.8,290.6,104.8 M291.7,99.3c0-1.7-0.7-2.9-1.8-2.9c-1.4,0-1.9,1.3-1.9,2.2v3.4c0,0.5,0.7,1.6,1.9,1.6
			c1.3,0,1.9-1,1.9-2.7V99.3z"/>
		<path class="st1" d="M299.5,104.8c-2.7,0-4.3-1.1-4.3-4.8c0-3.6,1.7-5,4.4-5c2.6,0,4.1,1.4,4.1,5
			C303.7,103.1,302.1,104.8,299.5,104.8 M301.7,99c0-1.5-0.6-2.7-2.1-2.7c-1.3,0-2.2,0.9-2.2,2.8v1.7c0,1.9,1,2.7,2.2,2.7
			c1.3,0,2.1-1.1,2.1-2.9V99z"/>
		<path class="st1" d="M310.4,96.4c0,0.2-0.1,0.3-0.3,0.3c-0.5,0-1,0.1-1.4,0.4c-0.8,0.5-1.3,1.1-1.3,1.7v5.2c0,0.5,0,0.7-0.4,0.7
			H306c-0.4,0-0.5-0.2-0.5-0.6v-8.2c0-0.3,0.1-0.5,0.4-0.5h1.1c0.2,0,0.4,0.1,0.4,0.5v0.9c0.7-1,1.7-1.5,2.8-1.5
			c0.1,0,0.3,0,0.3,0.2L310.4,96.4z"/>
		<path class="st1" d="M316,96.9h-1.6v5.7c0,0.6,0.3,0.9,0.7,0.9c0.3,0,0.5,0,0.9-0.1c0.2,0,0.3,1.2,0.2,1.3c-0.3,0.1-1,0.2-1.6,0.2
			c-1.7,0-2.2-1.1-2.2-2.3v-5.7h-0.9c-0.2,0-0.3-0.1-0.3-0.4v-0.7c0-0.3,0.1-0.3,0.4-0.3h0.8v-1.7c0-0.3,0.2-0.4,0.5-0.4l0.9-0.2
			c0.4-0.1,0.5,0.1,0.5,0.4v1.9h1.7c0.3,0,0.4,0.2,0.4,0.4v0.7C316.4,96.7,316.3,96.9,316,96.9"/>
		<path class="st1" d="M321.9,104.8c-2.7,0-4.3-1.1-4.3-4.8c0-3.6,1.7-5,4.4-5c2.6,0,4.1,1.4,4.1,5
			C326,103.1,324.5,104.8,321.9,104.8 M324.1,99c0-1.5-0.6-2.7-2.1-2.7c-1.3,0-2.2,0.9-2.2,2.8v1.7c0,1.9,1,2.7,2.2,2.7
			c1.3,0,2.1-1.1,2.1-2.9V99z"/>
		<path class="st1" d="M250.6,121.4h-1.3c-0.3,0-0.4-0.1-0.4-0.5V109c0-0.3,0.1-0.4,0.5-0.4h1.3c0.3,0,0.4,0.1,0.4,0.5V121
			C251,121.3,250.9,121.4,250.6,121.4"/>
		<path class="st1" d="M260.3,121.4h-1.1c-0.3,0-0.5-0.2-0.5-0.6v-5.5c0-0.9-0.4-1.7-1.6-1.7c-1.3,0-1.9,1.1-1.9,2v5.2
			c0,0.5,0,0.7-0.3,0.7h-1.1c-0.4,0-0.5-0.2-0.5-0.6v-8.2c0-0.3,0.1-0.5,0.4-0.5h1.1c0.3,0,0.4,0.3,0.4,1.1c0.6-0.8,1.4-1.3,2.8-1.3
			c1.5,0,2.8,0.8,2.8,3v5.8C260.7,121.1,260.7,121.4,260.3,121.4"/>
		<path class="st1" d="M267.1,113.6h-1.6v5.7c0,0.6,0.3,0.9,0.8,0.9c0.3,0,0.5,0,0.9-0.1c0.2,0,0.3,1.2,0.2,1.3
			c-0.3,0.1-1,0.2-1.6,0.2c-1.7,0-2.2-1.1-2.2-2.3v-5.7h-0.9c-0.2,0-0.3-0.1-0.3-0.4v-0.7c0-0.3,0.1-0.3,0.4-0.3h0.8v-1.7
			c0-0.3,0.2-0.4,0.5-0.4l0.9-0.2c0.4-0.1,0.5,0.1,0.5,0.4v1.9h1.7c0.3,0,0.4,0.2,0.4,0.4v0.7C267.5,113.5,267.5,113.6,267.1,113.6"
			/>
		<path class="st1" d="M275.9,117.3h-5.2c0,2,1,2.8,2.6,2.8c1.4,0,2.3-0.3,2.6-0.4c0.3-0.1,0.5,0,0.5,0.2v0.9c0,0.3-0.1,0.4-0.6,0.5
			c-0.2,0.1-1.6,0.3-2.6,0.3c-3,0-4.5-1.3-4.5-4.8c0-3.3,1.4-5,4-5c2.4,0,3.8,1.3,3.8,3.7v1.1C276.6,117,276.6,117.3,275.9,117.3
			 M272.8,113c-1.4,0-2,1.2-2,2.6c0,0.2,0,0.3,0.2,0.3h3.5c0.2,0,0.2-0.1,0.2-0.3C274.7,113.9,274.2,113,272.8,113"/>
		<path class="st1" d="M283.4,113.2c0,0.2-0.1,0.3-0.3,0.3c-0.5,0-1,0.1-1.4,0.4c-0.8,0.5-1.3,1.1-1.3,1.7v5.2c0,0.5,0,0.7-0.3,0.7
			h-1.1c-0.4,0-0.5-0.2-0.5-0.6v-8.2c0-0.3,0.1-0.5,0.4-0.5h1.1c0.2,0,0.4,0.1,0.4,0.5v0.9c0.7-1,1.7-1.5,2.8-1.5
			c0.1,0,0.3,0,0.3,0.2L283.4,113.2z"/>
		<path class="st1" d="M291.7,121.4h-1.1c-0.3,0-0.5-0.2-0.5-0.6v-5.5c0-0.9-0.4-1.7-1.6-1.7c-1.3,0-1.9,1.1-1.9,2v5.2
			c0,0.5,0,0.7-0.4,0.7h-1.1c-0.4,0-0.5-0.2-0.5-0.6v-8.2c0-0.3,0.1-0.5,0.4-0.5h1.1c0.3,0,0.4,0.3,0.4,1.1c0.6-0.8,1.4-1.3,2.8-1.3
			c1.5,0,2.8,0.8,2.8,3v5.8C292.1,121.1,292,121.4,291.7,121.4"/>
		<path class="st1" d="M301.4,121.4h-1.1c-0.3,0-0.4-0.1-0.4-0.5v-0.7c-0.3,0.7-1.5,1.4-2.8,1.4c-1.7,0-3.1-1.4-3.1-4.8
			c0-3.1,1.1-5,3.1-5c1.5,0,2.4,0.6,2.9,1.4v-0.8c0-0.3,0.1-0.4,0.3-0.4h1.1c0.5,0,0.5,0.2,0.5,0.5v8.2
			C301.8,121.1,301.7,121.4,301.4,121.4 M299.7,115.3c0-0.8-0.5-2.2-1.9-2.2c-1.2,0-1.8,0.8-1.8,2.9v1.5c0,1.7,0.6,2.8,1.9,2.8
			c1.2,0,1.9-1.3,1.9-1.8V115.3z"/>
		<path class="st1" d="M307.8,121.6c-2.7,0-4.3-1.1-4.3-4.8c0-3.6,1.7-5,4.4-5c1.5,0,2.5,0.4,3.2,1.3c0.2,0.3-1.2,1.3-1.4,1
			c-0.3-0.6-0.9-1-1.8-1c-1.3,0-2.2,0.9-2.2,2.8v1.7c0,1.9,1,2.7,2.2,2.7c0.8,0,1.4-0.5,1.8-1.1c0.2-0.4,1.6,0.3,1.4,0.6
			C310.5,120.9,309.4,121.6,307.8,121.6"/>
		<path class="st1" d="M314.1,110.3h-1.2c-0.3,0-0.4-0.1-0.4-0.6v-0.6c0-0.4,0.1-0.5,0.5-0.5h1.1c0.4,0,0.4,0.2,0.4,0.6v0.6
			C314.4,110.2,314.4,110.3,314.1,110.3 M314.1,121.4h-1.2c-0.3,0-0.4-0.2-0.4-0.6v-8.2c0-0.3,0.1-0.5,0.4-0.5h1.1
			c0.4,0,0.4,0.1,0.4,0.5v8.2C314.4,121.2,314.4,121.4,314.1,121.4"/>
		<path class="st1" d="M320.5,121.6c-2.7,0-4.3-1.1-4.3-4.8c0-3.6,1.7-5,4.4-5c2.6,0,4.1,1.4,4.1,5
			C324.6,119.9,323.1,121.6,320.5,121.6 M322.7,115.8c0-1.5-0.6-2.7-2.1-2.7c-1.3,0-2.2,0.9-2.2,2.8v1.7c0,1.9,1,2.7,2.2,2.7
			c1.3,0,2.1-1.1,2.1-2.9V115.8z"/>
		<path class="st1" d="M333.5,121.4h-1.1c-0.3,0-0.4-0.2-0.4-0.6v-5.5c0-0.9-0.4-1.7-1.6-1.7c-1.3,0-1.9,1.1-1.9,2v5.2
			c0,0.5,0,0.7-0.3,0.7h-1.1c-0.4,0-0.5-0.2-0.5-0.6v-8.2c0-0.3,0.1-0.5,0.4-0.5h1.1c0.3,0,0.4,0.3,0.4,1.1c0.6-0.8,1.4-1.3,2.8-1.3
			c1.5,0,2.8,0.8,2.8,3v5.8C333.9,121.1,333.8,121.4,333.5,121.4"/>
		<path class="st1" d="M343.2,121.4h-1.1c-0.3,0-0.4-0.1-0.4-0.5v-0.7c-0.4,0.7-1.5,1.4-2.8,1.4c-1.7,0-3.1-1.4-3.1-4.8
			c0-3.1,1.1-5,3.1-5c1.5,0,2.4,0.6,2.9,1.4v-0.8c0-0.3,0.1-0.4,0.3-0.4h1.1c0.5,0,0.5,0.2,0.5,0.5v8.2
			C343.6,121.1,343.5,121.4,343.2,121.4 M341.5,115.3c0-0.8-0.5-2.2-1.9-2.2c-1.2,0-1.8,0.8-1.8,2.9v1.5c0,1.7,0.6,2.8,1.9,2.8
			c1.2,0,1.9-1.3,1.9-1.8V115.3z"/>
		<path class="st1" d="M347.2,121.4h-1.2c-0.4,0-0.4-0.1-0.4-0.6v-11.9c0-0.3,0.1-0.5,0.4-0.5h1.1c0.4,0,0.4,0.1,0.4,0.5v11.8
			C347.6,121.2,347.5,121.4,347.2,121.4"/>
		<path class="st1" d="M359.8,121.4h-1.1c-0.3,0-0.4,0-0.4-0.5v-0.5c-0.6,0.8-1.6,1.2-2.9,1.2c-1.7,0-3.1-1.4-3.1-4.8
			c0-3.1,1.1-5,3.1-5c1.3,0,2.2,0.4,2.9,1.4V109c0-0.4,0.1-0.6,0.3-0.6h1.1c0.5,0,0.5,0.2,0.5,0.5v11.8
			C360.2,121.2,360.2,121.4,359.8,121.4 M358.1,115.2c0-0.9-0.5-2.1-1.9-2.1c-1.2,0-1.8,1.2-1.8,2.9v1.5c0,1.7,0.6,2.8,1.9,2.8
			c1.2,0,1.9-1.1,1.9-1.6V115.2z"/>
		<path class="st1" d="M369.1,117.3H364c0,2,1,2.8,2.6,2.8c1.4,0,2.3-0.3,2.6-0.4c0.3-0.1,0.5,0,0.5,0.2v0.9c0,0.3-0.1,0.4-0.6,0.5
			c-0.2,0.1-1.6,0.3-2.6,0.3c-3,0-4.5-1.3-4.5-4.8c0-3.3,1.4-5,4-5c2.4,0,3.8,1.3,3.8,3.7v1.1C369.9,117,369.8,117.3,369.1,117.3
			 M366,113c-1.4,0-1.9,1.2-2,2.6c0,0.2,0,0.4,0.2,0.4h3.5c0.2,0,0.2-0.1,0.2-0.3C367.9,114,367.4,113,366,113"/>
		<path class="st1" d="M253.1,138.2h-3.9c-0.3,0-0.4-0.1-0.4-0.5V126c0-0.4,0-0.6,0.3-0.6h3.4c3,0,4.7,0.9,4.7,3.2
			c0,1.6-0.8,2.6-2,3.1c1.2,0.4,2.2,1.2,2.2,3.1C257.5,136.9,256.2,138.2,253.1,138.2 M252.6,126.9h-1.4c-0.3,0-0.3,0.2-0.3,0.3v3.4
			c0,0.2,0.1,0.3,0.3,0.3h1.4c1.8,0,2.6-0.6,2.6-2C255.2,127.4,254.3,126.9,252.6,126.9 M252.7,132.5h-1.4c-0.3,0-0.3,0.1-0.3,0.3
			v3.5c0,0.1,0.1,0.3,0.3,0.3h1.4c1.8,0,2.8-0.5,2.8-2C255.4,133.2,254.4,132.5,252.7,132.5"/>
		<path class="st1" d="M266.3,134.1h-5.2c0,2,1,2.8,2.6,2.8c1.4,0,2.3-0.3,2.6-0.4c0.3-0.1,0.5,0,0.5,0.2v0.9c0,0.3-0.1,0.4-0.6,0.5
			c-0.2,0.1-1.5,0.3-2.6,0.3c-3,0-4.5-1.3-4.5-4.8c0-3.3,1.4-5,4-5c2.4,0,3.8,1.3,3.8,3.7v1.1C267,133.8,266.9,134.1,266.3,134.1
			 M263.1,129.8c-1.4,0-2,1.2-2,2.6c0,0.2,0,0.4,0.2,0.4h3.5c0.2,0,0.2-0.1,0.2-0.3C265,130.7,264.5,129.8,263.1,129.8"/>
		<path class="st1" d="M270.4,138.2h-1.2c-0.4,0-0.4-0.1-0.4-0.6v-11.9c0-0.3,0.1-0.5,0.4-0.5h1.1c0.4,0,0.4,0.1,0.4,0.5v11.8
			C270.7,138,270.7,138.2,270.4,138.2"/>
		<path class="st1" d="M276.7,138.4c-2.7,0-4.3-1.1-4.3-4.8c0-3.6,1.7-5,4.4-5c2.6,0,4.1,1.4,4.1,5
			C280.9,136.7,279.3,138.4,276.7,138.4 M278.9,132.6c0-1.5-0.6-2.7-2.1-2.7c-1.3,0-2.2,0.9-2.2,2.8v1.7c0,1.9,1,2.7,2.2,2.7
			c1.3,0,2.1-1.2,2.1-2.9V132.6z"/>
		<path class="st1" d="M295.6,138.2h-1.3c-0.3,0-0.4-0.1-0.4-0.5v-5c0-0.3-0.1-0.4-0.3-0.4H289c-0.2,0-0.3,0-0.3,0.3v5
			c0,0.5-0.1,0.6-0.5,0.6H287c-0.3,0-0.4-0.2-0.4-0.7v-11.7c0-0.3,0.1-0.5,0.4-0.5h1.3c0.4,0,0.5,0.1,0.5,0.6v4.4
			c0,0.3,0.1,0.3,0.4,0.3h4.4c0.2,0,0.3-0.1,0.3-0.3v-4.5c0-0.3,0.1-0.5,0.5-0.5h1.2c0.4,0,0.4,0.1,0.4,0.4v11.8
			C296,138.1,295.9,138.2,295.6,138.2"/>
		<path class="st1" d="M302.3,138.4c-2.7,0-4.3-1.1-4.3-4.8c0-3.6,1.7-5,4.4-5c2.6,0,4.1,1.4,4.1,5
			C306.4,136.7,304.9,138.4,302.3,138.4 M304.4,132.6c0-1.5-0.6-2.7-2.1-2.7c-1.3,0-2.2,0.9-2.2,2.8v1.7c0,1.9,1,2.7,2.2,2.7
			c1.3,0,2.1-1.2,2.1-2.9V132.6z"/>
		<path class="st1" d="M313.1,130c0,0.2-0.1,0.3-0.3,0.3c-0.5,0-1,0.1-1.4,0.4c-0.8,0.5-1.3,1.1-1.3,1.7v5.2c0,0.5,0,0.7-0.3,0.7
			h-1.1c-0.4,0-0.5-0.2-0.5-0.7v-8.2c0-0.3,0.1-0.5,0.4-0.5h1.1c0.2,0,0.4,0.1,0.4,0.5v0.9c0.7-1,1.7-1.5,2.8-1.5
			c0.1,0,0.3,0,0.3,0.2L313.1,130z"/>
		<path class="st1" d="M316,127.1h-1.2c-0.3,0-0.4-0.1-0.4-0.6v-0.6c0-0.4,0.1-0.5,0.5-0.5h1.1c0.4,0,0.4,0.2,0.4,0.6v0.6
			C316.3,127,316.3,127.1,316,127.1 M316,138.2h-1.2c-0.3,0-0.4-0.2-0.4-0.6v-8.2c0-0.3,0.1-0.5,0.4-0.5h1.1c0.4,0,0.4,0.1,0.4,0.5
			v8.2C316.3,138,316.3,138.2,316,138.2"/>
		<path class="st1" d="M324.5,138.2h-6.1c-0.8,0-0.8-0.4-0.5-0.8l4.3-7.2h-3.9c-0.3,0-0.4,0-0.4-0.4v-0.6c0-0.3,0.1-0.3,0.4-0.3h6
			c0.6,0,0.8,0.1,0.5,0.6l-4.4,7.4h4.2c0.3,0,0.5,0,0.5,0.4v0.6C324.9,138.1,324.8,138.2,324.5,138.2"/>
		<path class="st1" d="M330.4,138.4c-2.7,0-4.3-1.1-4.3-4.8c0-3.6,1.7-5,4.4-5c2.6,0,4.1,1.4,4.1,5
			C334.5,136.7,333,138.4,330.4,138.4 M332.6,132.6c0-1.5-0.6-2.7-2.1-2.7c-1.3,0-2.2,0.9-2.2,2.8v1.7c0,1.9,1,2.7,2.2,2.7
			c1.3,0,2.1-1.2,2.1-2.9V132.6z"/>
		<path class="st1" d="M343.4,138.2h-1.1c-0.3,0-0.5-0.2-0.5-0.6V132c0-0.9-0.4-1.7-1.6-1.7c-1.3,0-1.9,1.1-1.9,2v5.2
			c0,0.5,0,0.7-0.3,0.7h-1.1c-0.4,0-0.5-0.2-0.5-0.7v-8.2c0-0.3,0.1-0.5,0.4-0.5h1.1c0.3,0,0.4,0.3,0.4,1.1c0.6-0.8,1.4-1.3,2.8-1.3
			c1.5,0,2.8,0.8,2.8,3v5.8C343.8,137.9,343.7,138.2,343.4,138.2"/>
		<path class="st1" d="M350.2,130.4h-1.6v5.7c0,0.6,0.3,0.9,0.8,0.9c0.3,0,0.5,0,0.9-0.1c0.2,0,0.3,1.2,0.2,1.3
			c-0.3,0.1-1,0.2-1.6,0.2c-1.7,0-2.2-1.1-2.2-2.3v-5.7h-0.9c-0.2,0-0.3-0.1-0.3-0.4v-0.7c0-0.3,0.1-0.3,0.4-0.3h0.8v-1.7
			c0-0.3,0.2-0.4,0.5-0.4l0.9-0.2c0.4-0.1,0.5,0.1,0.5,0.4v1.9h1.7c0.3,0,0.4,0.2,0.4,0.4v0.7C350.6,130.3,350.5,130.4,350.2,130.4"
			/>
		<path class="st1" d="M359,134.1h-5.2c0,2,1,2.8,2.6,2.8c1.4,0,2.3-0.3,2.6-0.4c0.3-0.1,0.5,0,0.5,0.2v0.9c0,0.3-0.1,0.4-0.6,0.5
			c-0.2,0.1-1.5,0.3-2.6,0.3c-3,0-4.5-1.3-4.5-4.8c0-3.3,1.4-5,4-5c2.4,0,3.8,1.3,3.8,3.7v1.1C359.7,133.8,359.6,134.1,359,134.1
			 M355.8,129.8c-1.4,0-2,1.2-2,2.6c0,0.2,0,0.4,0.2,0.4h3.5c0.2,0,0.2-0.1,0.2-0.3C357.8,130.7,357.3,129.8,355.8,129.8"/>
	</g>
	<rect x="227" y="6.4" class="st2" width="0.3" height="146.1"/>
	<rect x="248.7" y="77.9" class="st2" width="136" height="0.3"/>
	<polygon class="st0" points="16.3,46.8 20.7,46.8 20.7,54 27.3,54 27.3,46.8 31.7,46.8 31.7,64.9 27.3,64.9 27.3,57.8 20.7,57.8 
		20.7,64.9 16.3,64.9 	"/>
	<g>
		<path class="st0" d="M35.1,46.8h4.4v11.5c0,1.9,1.2,2.9,3.1,2.9c1.9,0,3.1-1,3.1-2.9V46.8h4.4v11.5c0,4.1-3,7-7.6,7
			c-4.6,0-7.6-2.9-7.6-7V46.8z"/>
		<path class="st0" d="M60.7,61.1c1.3,0,1.9-0.9,1.9-1.9c0-1-0.6-1.9-1.9-1.9h-2.7v3.8H60.7z M60.4,53.8c1.1,0,1.6-0.8,1.6-1.7
			c0-0.8-0.5-1.5-1.7-1.5h-2.2v3.2H60.4z M53.6,46.8h6.7c3.6,0,6.2,1.6,6.2,4.7c0,1.5-0.7,3.1-2.1,3.9v0.1c2.1,0.6,2.8,2.5,2.8,4.1
			c0,4-3.3,5.4-6.9,5.4h-6.7V46.8z"/>
	</g>
	<polygon class="st0" points="74.9,46.8 79.3,46.8 79.3,61.1 86.7,61.1 86.7,64.9 74.9,64.9 	"/>
	<g>
		<path class="st0" d="M96.7,61.2c2.7,0,4.9-2.3,4.9-5.4c0-3-2.2-5.2-4.9-5.2c-2.7,0-4.9,2.2-4.9,5.2C91.8,58.8,94,61.2,96.7,61.2
			 M96.7,46.5c5.5,0,9.5,4.1,9.5,9.3c0,5.3-4,9.5-9.5,9.5c-5.5,0-9.5-4.2-9.5-9.5C87.2,50.5,91.2,46.5,96.7,46.5"/>
		<path class="st0" d="M116.8,46.5c4.6,0,7,2.4,7,2.4l-2.1,3.3c0,0-1.9-1.7-4.4-1.7c-3.8,0-5.4,2.4-5.4,5.1c0,3.4,2.4,5.5,5.2,5.5
			c2.1,0,3.7-1.3,3.7-1.3v-1.4h-2.6v-3.8h6.5v10.2H121v-0.5c0-0.4,0-0.8,0-0.8H121c0,0-1.7,1.6-4.8,1.6c-4.6,0-8.9-3.5-8.9-9.4
			C107.3,50.5,111.3,46.5,116.8,46.5"/>
	</g>
	<path class="st0" d="M129.9,41.8h4.3l-3,3.8h-3.4L129.9,41.8z M127.4,46.8h4.4v18.1h-4.4V46.8z"/>
	<g>
		<path class="st0" d="M136.5,59.3c0,0,2.1,1.9,4.3,1.9c0.9,0,1.9-0.4,1.9-1.4c0-2.2-8.2-2.1-8.2-7.7c0-3.3,2.8-5.6,6.4-5.6
			c3.9,0,5.8,2.1,5.8,2.1l-1.9,3.6c0,0-1.8-1.6-4-1.6c-0.9,0-1.9,0.4-1.9,1.4c0,2.3,8.2,1.9,8.2,7.6c0,3-2.3,5.6-6.4,5.6
			c-4.3,0-6.6-2.6-6.6-2.6L136.5,59.3z"/>
	</g>
	<polygon class="st0" points="153,50.6 147.5,50.6 147.5,46.8 163,46.8 163,50.6 157.5,50.6 157.5,64.9 153,64.9 	"/>
	<rect x="164.6" y="46.8" class="st0" width="4.4" height="18.1"/>
	<g>
		<path class="st0" d="M180.9,46.5c4.5,0,6.8,2.6,6.8,2.6l-2.1,3.3c0,0-2-1.9-4.5-1.9c-3.5,0-5.1,2.6-5.1,5.2c0,2.7,1.8,5.5,5.1,5.5
			c2.7,0,4.8-2.2,4.8-2.2l2.3,3.2c0,0-2.6,3-7.3,3c-5.7,0-9.5-4-9.5-9.4C171.4,50.5,175.5,46.5,180.9,46.5"/>
		<path class="st0" d="M198.4,61.2c2.7,0,4.9-2.3,4.9-5.4c0-3-2.2-5.2-4.9-5.2c-2.7,0-4.9,2.2-4.9,5.2
			C193.5,58.8,195.7,61.2,198.4,61.2 M198.4,46.5c5.5,0,9.5,4.1,9.5,9.3c0,5.3-4,9.5-9.5,9.5c-5.5,0-9.5-4.2-9.5-9.5
			C188.9,50.5,192.9,46.5,198.4,46.5"/>
		<path class="st0" d="M44.8,73.9h4.8l2.6,7.7c0.4,1.2,0.9,3,0.9,3h0.1c0,0,0.5-1.8,0.9-3l2.6-7.7h4.8L63.1,92h-4.4l-0.6-8.2
			c-0.1-1.4,0-3,0-3h-0.1c0,0-0.6,1.9-1,3l-1.9,5.3h-3.8l-1.9-5.3c-0.4-1.1-1-3-1-3h-0.1c0,0,0.1,1.7,0,3L47.8,92h-4.5L44.8,73.9z"
			/>
		<path class="st0" d="M65.9,73.9h4.4v11.5c0,1.9,1.2,2.9,3.1,2.9c1.9,0,3.1-1,3.1-2.9V73.9h4.4v11.5c0,4.1-3,7-7.6,7
			c-4.6,0-7.6-2.9-7.6-7V73.9z"/>
	</g>
	<polygon class="st0" points="84.5,73.9 88.9,73.9 88.9,88.2 96.3,88.2 96.3,92 84.5,92 	"/>
	<polygon class="st0" points="100.3,77.7 94.8,77.7 94.8,73.9 110.3,73.9 110.3,77.7 104.8,77.7 104.8,92 100.3,92 	"/>
	<rect x="111.9" y="73.9" class="st0" width="4.4" height="18.1"/>
	<g>
		<path class="st0" d="M120.9,73.9h4.8l2.6,7.7c0.4,1.2,0.9,3,0.9,3h0.1c0,0,0.5-1.8,0.9-3l2.6-7.7h4.8l1.5,18.1h-4.4l-0.6-8.2
			c-0.1-1.4,0-3,0-3h-0.1c0,0-0.6,1.9-1,3l-1.9,5.3h-3.8l-1.9-5.3c-0.4-1.1-1-3-1-3h-0.1c0,0,0.1,1.7,0,3l-0.6,8.2h-4.5L120.9,73.9z
			"/>
		<path class="st0" d="M150.4,88.3c2.7,0,4.9-2.3,4.9-5.4c0-3-2.2-5.2-4.9-5.2c-2.7,0-4.9,2.2-4.9,5.2
			C145.5,85.9,147.7,88.3,150.4,88.3 M150.4,73.6c5.5,0,9.5,4.1,9.5,9.3c0,5.3-4,9.5-9.5,9.5c-5.5,0-9.5-4.2-9.5-9.5
			C140.9,77.6,145,73.6,150.4,73.6"/>
		<path class="st0" d="M168.6,88.2c3.1,0,4.9-1.8,4.9-5.3c0-3.4-2-5.2-4.9-5.2h-1.8v10.5H168.6z M162.3,73.9h6.4
			c5.7,0,9.4,3.3,9.4,9c0,5.7-3.7,9.1-9.4,9.1h-6.4V73.9z"/>
		<path class="st0" d="M186.7,78c0,0-0.4,2-0.7,3.1l-1,3.5h3.6l-1-3.5C187.2,80,186.8,78,186.7,78L186.7,78z M189.6,88.2h-5.7
			l-1.1,3.8h-4.6l6.2-18.1h4.7l6.2,18.1h-4.6L189.6,88.2z"/>
	</g>
	<polygon class="st0" points="196.6,73.9 201.1,73.9 201.1,88.2 208.5,88.2 208.5,92 196.6,92 	"/>
	<rect x="55.3" y="109.8" class="st2" width="0.6" height="10.3"/>
	<g>
		<path class="st2" d="M59.1,109.8h0.6l5.9,8.1c0.3,0.5,0.8,1.3,0.8,1.3h0c0,0-0.1-0.8-0.1-1.3v-8.1H67v10.3h-0.6l-5.9-8.1
			c-0.3-0.5-0.8-1.3-0.8-1.3h0c0,0,0.1,0.8,0.1,1.3v8.1h-0.6V109.8z"/>
	</g>
	<polygon class="st2" points="72.5,110.4 68.7,110.4 68.7,109.8 77,109.8 77,110.4 73.2,110.4 73.2,120.1 72.5,120.1 	"/>
	<polygon class="st2" points="78.7,109.8 84.3,109.8 84.3,110.4 79.4,110.4 79.4,114.6 83.5,114.6 83.5,115.2 79.4,115.2 
		79.4,119.5 84.6,119.5 84.6,120.1 78.7,120.1 	"/>
	<g>
		<path class="st2" d="M91.4,109.6c2.3,0,3.6,1.2,3.6,1.2l-0.4,0.5c0,0-1.2-1-3.2-1c-2.6,0-4.5,2.1-4.5,4.7c0,2.7,1.8,4.7,4.4,4.7
			c2.2,0,3.5-1.7,3.5-1.7v-2H93v-0.6h2.5v4.7h-0.6v-0.9c0-0.2,0-0.4,0-0.4h0c0,0-1.2,1.5-3.5,1.5c-2.9,0-5-2.3-5-5.3
			C86.3,112,88.5,109.6,91.4,109.6"/>
		<path class="st2" d="M101.6,114.9c1.4,0,2.2-1,2.2-2.4c0-0.9-0.5-1.6-1.2-2c-0.3-0.1-0.6-0.2-1.4-0.2h-2.4v4.6H101.6z M98.1,109.8
			h3c1,0,1.4,0.1,1.9,0.3c0.9,0.4,1.4,1.3,1.4,2.5c0,1.5-0.9,2.6-2.1,2.8v0c0,0,0.1,0.1,0.2,0.4l2.3,4.3h-0.7l-2.4-4.6h-3v4.6h-0.6
			V109.8z"/>
		<path class="st2" d="M110.1,110.5c0,0-0.2,0.8-0.4,1.2l-1.6,4.2h3.9l-1.6-4.2C110.4,111.3,110.1,110.5,110.1,110.5L110.1,110.5z
			 M112.3,116.5h-4.4l-1.3,3.6h-0.7l3.9-10.3h0.7l3.8,10.3h-0.7L112.3,116.5z"/>
		<path class="st2" d="M119.3,119.5c2.7,0,4.6-1.6,4.6-4.6c0-2.9-1.8-4.6-4.6-4.6h-2.5v9.1H119.3z M116.2,109.8h3.2
			c3.1,0,5.1,1.9,5.1,5.1c0,3.3-2.1,5.1-5.1,5.1h-3.2V109.8z"/>
		<path class="st2" d="M131.5,119.7c2.5,0,4.5-2.1,4.5-4.8c0-2.6-2-4.6-4.5-4.6c-2.5,0-4.5,2-4.5,4.6
			C127,117.6,129,119.7,131.5,119.7 M131.5,109.6c2.9,0,5.2,2.3,5.2,5.2c0,3-2.3,5.4-5.2,5.4c-2.9,0-5.2-2.4-5.2-5.4
			C126.3,111.9,128.7,109.6,131.5,109.6"/>
	</g>
	<rect x="138.3" y="119.2" class="st2" width="0.9" height="0.9"/>
	<g>
		<path class="st0" d="M150.6,109.6c2.3,0,3.6,1.2,3.6,1.2l-0.4,0.5c0,0-1.2-1-3.2-1c-2.6,0-4.5,2.1-4.5,4.7c0,2.7,1.8,4.7,4.4,4.7
			c2.2,0,3.5-1.7,3.5-1.7v-2h-1.8v-0.6h2.5v4.7H154v-0.9c0-0.2,0-0.4,0-0.4h0c0,0-1.2,1.5-3.5,1.5c-2.9,0-5-2.3-5-5.3
			C145.4,112,147.7,109.6,150.6,109.6"/>
	</g>
	<polygon class="st0" points="157.3,109.8 157.9,109.8 157.9,119.5 162.8,119.5 162.8,120.1 157.3,120.1 	"/>
	<g>
		<path class="st0" d="M168.7,119.7c2.5,0,4.5-2.1,4.5-4.8c0-2.6-2-4.6-4.5-4.6c-2.5,0-4.5,2-4.5,4.6
			C164.1,117.6,166.1,119.7,168.7,119.7 M168.7,109.6c2.9,0,5.2,2.3,5.2,5.2c0,3-2.3,5.4-5.2,5.4c-2.9,0-5.2-2.4-5.2-5.4
			C163.5,111.9,165.8,109.6,168.7,109.6"/>
		<path class="st0" d="M179.9,119.5c1.4,0,2.3-0.9,2.3-2.2c0-1.4-1-2.3-2.3-2.3h-2.9v4.5H179.9z M179.8,114.4c1.1,0,2-0.8,2-2
			c0-1.2-0.8-2-2-2h-2.8v4H179.8z M176.3,109.8h3.5c1.5,0,2.6,1,2.6,2.6c0,1.1-0.5,1.9-1.3,2.2v0c1,0.3,1.7,1.3,1.7,2.6
			c0,1.7-1.2,2.8-2.9,2.8h-3.6V109.8z"/>
		<path class="st0" d="M188.3,110.5c0,0-0.2,0.8-0.4,1.2l-1.6,4.2h3.9l-1.6-4.2C188.5,111.3,188.3,110.5,188.3,110.5L188.3,110.5z
			 M190.5,116.5h-4.4l-1.3,3.6h-0.7l3.9-10.3h0.7l3.9,10.3h-0.7L190.5,116.5z"/>
	</g>
	<polygon class="st0" points="194.3,109.8 194.9,109.8 194.9,119.5 199.9,119.5 199.9,120.1 194.3,120.1 	"/>
	<rect x="201.5" y="119.2" class="st0" width="0.9" height="0.9"/>
	<g>
		<path class="st0" d="M198.5,34.8c-1.2,0-2.2,1-2.2,2.2s1,2.2,2.2,2.2c1.2,0,2.2-1,2.2-2.2S199.7,34.8,198.5,34.8 M198.5,40.2
			c-1.8,0-3.2-1.4-3.2-3.2s1.4-3.2,3.2-3.2c1.8,0,3.2,1.4,3.2,3.2S200.2,40.2,198.5,40.2"/>
	</g>
	<rect x="205.7" y="58.6" transform="matrix(0.7444 -0.6677 0.6677 0.7444 8.959 154.4171)" class="st0" width="1" height="13.8"/>
	<g>
		<path class="st0" d="M213.5,69.6c-1,0-2,0.3-2.7,1c-0.8,0.7-1.3,1.7-1.4,2.8c-0.1,1.1,0.3,2.1,1,3c0.7,0.8,1.7,1.3,2.8,1.4
			c1.1,0.1,2.1-0.3,3-1c0.8-0.7,1.3-1.7,1.4-2.8c0.1-1.1-0.3-2.1-1-3C215.8,70,214.7,69.6,213.5,69.6 M213.6,78.7
			c-0.1,0-0.2,0-0.3,0c-1.4-0.1-2.6-0.7-3.5-1.7c-0.9-1-1.4-2.3-1.3-3.7c0.1-1.4,0.7-2.6,1.7-3.5c2.1-1.9,5.3-1.7,7.2,0.4
			c0.9,1,1.4,2.3,1.3,3.7c-0.1,1.4-0.7,2.6-1.7,3.5C216,78.3,214.8,78.7,213.6,78.7"/>
	</g>
	<rect x="203.2" y="51.2" transform="matrix(0.8688 -0.4952 0.4952 0.8688 1.53 109.0966)" class="st0" width="6.8" height="1"/>
	<rect x="190.4" y="65.3" transform="matrix(0.5372 -0.8435 0.8435 0.5372 34.1862 193.8937)" class="st0" width="6.8" height="1"/>
	<g>
		<path class="st0" d="M211.6,47.1c-0.2,0-0.5,0.1-0.7,0.2c-0.7,0.4-1,1.3-0.6,2c0.4,0.7,1.3,1,2,0.6c0.7-0.4,1-1.3,0.6-2
			C212.6,47.4,212.1,47.1,211.6,47.1 M211.6,51c-0.9,0-1.7-0.4-2.1-1.2c-0.7-1.2-0.3-2.7,0.9-3.4c1.2-0.7,2.7-0.3,3.4,0.9
			c0.7,1.2,0.3,2.7-0.9,3.4C212.4,50.9,212,51,211.6,51"/>
		<path class="st0" d="M190.9,68.7c-0.3,0-0.5,0.1-0.7,0.2c-0.3,0.2-0.6,0.5-0.7,0.9c-0.1,0.4-0.1,0.8,0.1,1.1c0.4,0.7,1.3,1,2,0.6
			c0.7-0.4,1-1.3,0.6-2c-0.2-0.3-0.5-0.6-0.9-0.7C191.1,68.7,191,68.7,190.9,68.7 M190.9,72.7c-0.9,0-1.7-0.4-2.1-1.2
			c-0.3-0.6-0.4-1.2-0.2-1.9c0.2-0.6,0.6-1.2,1.2-1.5c0.6-0.3,1.2-0.4,1.9-0.2c0.6,0.2,1.2,0.6,1.5,1.2c0.7,1.2,0.3,2.7-0.9,3.4
			C191.7,72.6,191.3,72.7,190.9,72.7"/>
	</g>
	<rect x="198" y="39.7" class="st0" width="1" height="8.3"/>
</g>
</svg>
