<?xml version="1.0" encoding="utf-8"?>
<!-- Generator: Adobe Illustrator 24.1.2, SVG Export Plug-In . SVG Version: 6.00 Build 0)  -->
<svg version="1.1" id="Camada_1" xmlns="http://www.w3.org/2000/svg" xmlns:xlink="http://www.w3.org/1999/xlink" x="0px" y="0px"
	 viewBox="0 0 398.6 131" style="enable-background:new 0 0 398.6 131;" xml:space="preserve">
<style type="text/css">
	.st0{fill:#A1DAF8;}
	.st1{fill:#2C528B;}
	.st2{fill:#9D9D9C;}
</style>
<g>
	<g>
		<path class="st0" d="M279.4,17.7c0,0-0.3,1.5-0.6,2.4l-0.8,2.7h2.7l-0.8-2.7C279.7,19.2,279.4,17.7,279.4,17.7L279.4,17.7z
			 M281.5,25.4h-4.3l-0.8,2.9H273l4.7-13.7h3.5l4.7,13.7h-3.4L281.5,25.4z"/>
	</g>
	<polygon class="st0" points="286.9,14.6 295.5,14.6 295.5,17.5 290.2,17.5 290.2,20 294.4,20 294.4,22.9 290.2,22.9 290.2,25.4 
		295.7,25.4 295.7,28.3 286.9,28.3 	"/>
	<g>
		<path class="st0" d="M302.5,20.8c1.1,0,1.7-0.6,1.7-1.7c0-1-0.4-1.6-2.1-1.6H301v3.3H302.5z M297.7,14.6h4.8
			c1.4,0,2.1,0.1,2.7,0.3c1.6,0.6,2.5,2,2.5,4c0,1.5-0.7,3-2,3.7v0c0,0,0.2,0.2,0.5,0.8l2.7,4.8H305l-2.4-4.6H301v4.6h-3.4V14.6z"/>
		<path class="st0" d="M316.4,25.5c2,0,3.7-1.8,3.7-4.1c0-2.2-1.6-3.9-3.7-3.9c-2,0-3.7,1.7-3.7,3.9
			C312.7,23.7,314.4,25.5,316.4,25.5 M316.4,14.4c4.1,0,7.2,3.1,7.2,7c0,4-3,7.2-7.2,7.2c-4.1,0-7.2-3.1-7.2-7.2
			C309.3,17.5,312.3,14.4,316.4,14.4"/>
		<path class="st0" d="M330.4,21.2c1.2,0,1.7-0.8,1.7-1.9s-0.6-1.8-1.7-1.8h-1.7v3.7H330.4z M325.4,14.6h5.7c2.7,0,4.5,2,4.5,4.7
			c0,2.8-1.8,4.8-4.5,4.8h-2.3v4.2h-3.4V14.6z"/>
		<path class="st0" d="M343.3,25.5c2,0,3.7-1.8,3.7-4.1c0-2.2-1.6-3.9-3.7-3.9c-2,0-3.7,1.7-3.7,3.9
			C339.6,23.7,341.2,25.5,343.3,25.5 M343.3,14.4c4.1,0,7.2,3.1,7.2,7c0,4-3,7.2-7.2,7.2c-4.1,0-7.2-3.1-7.2-7.2
			C336.1,17.5,339.2,14.4,343.3,14.4"/>
		<path class="st0" d="M357.1,20.8c1.1,0,1.7-0.6,1.7-1.7c0-1-0.4-1.6-2.1-1.6h-1.1v3.3H357.1z M352.3,14.6h4.8
			c1.4,0,2.1,0.1,2.7,0.3c1.6,0.6,2.5,2,2.5,4c0,1.5-0.7,3-2,3.7v0c0,0,0.2,0.2,0.5,0.8l2.7,4.8h-3.7l-2.4-4.6h-1.6v4.6h-3.4V14.6z"
			/>
	</g>
	<polygon class="st0" points="367.5,17.5 363.4,17.5 363.4,14.6 375,14.6 375,17.5 370.9,17.5 370.9,28.3 367.5,28.3 	"/>
	<g>
		<path class="st0" d="M382.5,25.5c2,0,3.7-1.8,3.7-4.1c0-2.2-1.6-3.9-3.7-3.9c-2,0-3.7,1.7-3.7,3.9
			C378.8,23.7,380.4,25.5,382.5,25.5 M382.5,14.4c4.1,0,7.2,3.1,7.2,7c0,4-3,7.2-7.2,7.2c-4.1,0-7.2-3.1-7.2-7.2
			C375.3,17.5,378.3,14.4,382.5,14.4"/>
	</g>
	<rect x="274.7" y="35.2" class="st0" width="3.4" height="13.7"/>
	<g>
		<path class="st0" d="M280.8,35.2h3.4l3.8,6.4c0.5,0.9,1.1,2.3,1.1,2.3h0c0,0-0.2-1.5-0.2-2.3v-6.4h3.4v13.7H289l-3.8-6.4
			c-0.5-0.9-1.1-2.3-1.1-2.3h0c0,0,0.2,1.5,0.2,2.3v6.4h-3.4V35.2z"/>
		<path class="st0" d="M299.8,46c2.3,0,3.7-1.4,3.7-4c0-2.6-1.5-3.9-3.7-3.9h-1.4V46H299.8z M295.1,35.2h4.9c4.3,0,7.1,2.5,7.1,6.8
			c0,4.3-2.8,6.9-7.1,6.9h-4.9V35.2z"/>
		<path class="st0" d="M308.7,35.2h3.4v8.7c0,1.4,0.9,2.2,2.4,2.2c1.4,0,2.4-0.8,2.4-2.2v-8.7h3.4v8.7c0,3.1-2.3,5.3-5.7,5.3
			c-3.5,0-5.7-2.2-5.7-5.3V35.2z"/>
		<path class="st0" d="M323.5,44.6c0,0,1.6,1.4,3.3,1.4c0.7,0,1.4-0.3,1.4-1.1c0-1.6-6.2-1.6-6.2-5.8c0-2.5,2.1-4.2,4.8-4.2
			c2.9,0,4.4,1.6,4.4,1.6l-1.4,2.7c0,0-1.4-1.2-3-1.2c-0.7,0-1.5,0.3-1.5,1.1c0,1.7,6.2,1.4,6.2,5.7c0,2.3-1.7,4.3-4.8,4.3
			c-3.2,0-5-2-5-2L323.5,44.6z"/>
	</g>
	<polygon class="st0" points="336,38.1 331.8,38.1 331.8,35.2 343.5,35.2 343.5,38.1 339.3,38.1 339.3,48.9 336,48.9 	"/>
	<g>
		<path class="st0" d="M349.5,41.4c1.1,0,1.7-0.6,1.7-1.7c0-1-0.4-1.6-2.1-1.6H348v3.3H349.5z M344.7,35.2h4.8
			c1.4,0,2.1,0.1,2.7,0.3c1.6,0.6,2.5,2,2.5,4c0,1.5-0.7,3-2,3.7v0c0,0,0.2,0.2,0.5,0.8l2.7,4.8H352l-2.4-4.6H348v4.6h-3.4V35.2z"/>
	</g>
	<rect x="357.3" y="35.2" class="st0" width="3.4" height="13.7"/>
	<g>
		<path class="st0" d="M368.1,38.3c0,0-0.3,1.5-0.6,2.4l-0.8,2.7h2.7l-0.8-2.7C368.4,39.8,368.1,38.3,368.1,38.3L368.1,38.3z
			 M370.2,46h-4.3l-0.8,2.9h-3.4l4.7-13.7h3.5l4.7,13.7H371L370.2,46z"/>
	</g>
	<polygon class="st0" points="375.6,35.2 378.9,35.2 378.9,46 384.5,46 384.5,48.9 375.6,48.9 	"/>
	<g>
		<path class="st1" d="M281.8,87.1h-1.2c-0.3,0-0.3-0.1-0.4-0.4l-0.6-2.1h-3.7l-0.6,2.1c-0.1,0.3-0.1,0.4-0.4,0.4h-1.1
			c-0.2,0-0.2,0-0.1-0.5l3-10c0.1-0.3,0.2-0.5,0.6-0.5h1.2c0.3,0,0.4,0.1,0.6,0.5l3,10C282.3,87.1,282.1,87.1,281.8,87.1
			 M277.8,78.3l-1.5,5h2.9L277.8,78.3z"/>
		<path class="st1" d="M289.4,83.6H285c0,1.7,0.9,2.4,2.3,2.4c1.2,0,1.9-0.2,2.2-0.3c0.3-0.1,0.4,0,0.4,0.1v0.8
			c0,0.3-0.1,0.3-0.5,0.4c-0.2,0.1-1.3,0.3-2.2,0.3c-2.6,0-3.9-1.2-3.9-4.1c0-2.9,1.2-4.3,3.5-4.3c2.1,0,3.3,1.1,3.3,3.2v0.9
			C290,83.4,290,83.6,289.4,83.6 M286.7,79.9c-1.2,0-1.7,1-1.7,2.2c0,0.2,0,0.3,0.2,0.3h3c0.2,0,0.2-0.1,0.2-0.3
			C288.4,80.7,287.9,79.9,286.7,79.9"/>
		<path class="st1" d="M295.8,80.1c0,0.2-0.1,0.2-0.2,0.2c-0.4,0-0.9,0.1-1.2,0.3c-0.7,0.4-1.1,1-1.1,1.4v4.5c0,0.4,0,0.6-0.3,0.6
			H292c-0.3,0-0.4-0.2-0.4-0.6v-7c0-0.3,0.1-0.5,0.4-0.5h1c0.2,0,0.4,0.1,0.4,0.4v0.8c0.6-0.9,1.5-1.3,2.4-1.3c0.1,0,0.3,0,0.2,0.2
			L295.8,80.1z"/>
		<path class="st1" d="M300.3,87.3c-2.3,0-3.7-1-3.7-4.2c0-3.1,1.5-4.3,3.7-4.3c2.2,0,3.5,1.2,3.5,4.3
			C303.9,85.8,302.6,87.3,300.3,87.3 M302.2,82.3c0-1.3-0.5-2.3-1.8-2.3c-1.1,0-1.9,0.7-1.9,2.4v1.5c0,1.6,0.9,2.3,1.9,2.3
			c1.1,0,1.8-1,1.8-2.5V82.3z"/>
		<path class="st1" d="M309.5,87.3c-1.1,0-1.9-0.3-2.4-1v3.5c0,0.4-0.1,0.5-0.3,0.5h-1c-0.4,0-0.4-0.1-0.4-0.5V79.6
			c0-0.3,0-0.5,0.4-0.5h0.9c0.2,0,0.4,0.1,0.4,0.4V80c0.6-0.8,1.5-1.2,2.5-1.2c1.7,0,2.6,1.7,2.6,4.2
			C312.2,86.1,311.1,87.3,309.5,87.3 M310.5,82.5c0-1.5-0.6-2.5-1.6-2.5c-1.2,0-1.6,1.1-1.6,1.9v2.9c0,0.4,0.6,1.4,1.6,1.4
			c1.1,0,1.6-0.9,1.6-2.4V82.5z"/>
		<path class="st1" d="M317.2,87.3c-2.3,0-3.7-1-3.7-4.2c0-3.1,1.5-4.3,3.7-4.3c2.2,0,3.5,1.2,3.5,4.3
			C320.8,85.8,319.4,87.3,317.2,87.3 M319.1,82.3c0-1.3-0.5-2.3-1.8-2.3c-1.1,0-1.9,0.7-1.9,2.4v1.5c0,1.6,0.9,2.3,1.9,2.3
			c1.1,0,1.8-1,1.8-2.5V82.3z"/>
		<path class="st1" d="M326.5,80.1c0,0.2-0.1,0.2-0.2,0.2c-0.4,0-0.9,0.1-1.2,0.3c-0.7,0.4-1.1,1-1.1,1.4v4.5c0,0.4,0,0.6-0.3,0.6
			h-0.9c-0.3,0-0.4-0.2-0.4-0.6v-7c0-0.3,0.1-0.5,0.4-0.5h1c0.2,0,0.4,0.1,0.4,0.4v0.8c0.6-0.9,1.5-1.3,2.4-1.3c0.1,0,0.3,0,0.2,0.2
			L326.5,80.1z"/>
		<path class="st1" d="M331.3,80.4h-1.4v4.9c0,0.5,0.2,0.8,0.6,0.8c0.3,0,0.4,0,0.8-0.1c0.2,0,0.3,1.1,0.1,1.1
			c-0.2,0.1-0.9,0.2-1.4,0.2c-1.4,0-1.9-1-1.9-2v-4.9h-0.8c-0.2,0-0.2-0.1-0.2-0.3v-0.6c0-0.2,0-0.3,0.3-0.3h0.7v-1.5
			c0-0.3,0.2-0.3,0.4-0.4l0.8-0.2c0.3-0.1,0.4,0.1,0.4,0.4v1.6h1.4c0.3,0,0.3,0.1,0.3,0.3v0.6C331.7,80.3,331.6,80.4,331.3,80.4"/>
		<path class="st1" d="M336.4,87.3c-2.3,0-3.7-1-3.7-4.2c0-3.1,1.5-4.3,3.7-4.3c2.2,0,3.5,1.2,3.5,4.3
			C340,85.8,338.6,87.3,336.4,87.3 M338.3,82.3c0-1.3-0.5-2.3-1.8-2.3c-1.1,0-1.9,0.7-1.9,2.4v1.5c0,1.6,0.9,2.3,1.9,2.3
			c1.1,0,1.8-1,1.8-2.5V82.3z"/>
		<path class="st1" d="M275.2,101.5H274c-0.3,0-0.3-0.1-0.3-0.4V90.8c0-0.3,0.1-0.3,0.4-0.3h1.1c0.3,0,0.3,0.1,0.3,0.4v10.2
			C275.5,101.4,275.4,101.5,275.2,101.5"/>
		<path class="st1" d="M283.5,101.5h-1c-0.3,0-0.4-0.2-0.4-0.5v-4.8c0-0.8-0.4-1.5-1.4-1.5c-1.2,0-1.7,1-1.7,1.7v4.5
			c0,0.4,0,0.6-0.3,0.6h-0.9c-0.3,0-0.4-0.2-0.4-0.6v-7c0-0.3,0.1-0.5,0.4-0.5h1c0.3,0,0.4,0.3,0.4,0.9c0.5-0.7,1.2-1.1,2.4-1.1
			c1.3,0,2.4,0.7,2.4,2.6v5C283.9,101.3,283.8,101.5,283.5,101.5"/>
		<path class="st1" d="M289.3,94.8h-1.4v4.9c0,0.5,0.2,0.8,0.6,0.8c0.3,0,0.5,0,0.7-0.1c0.2,0,0.3,1.1,0.2,1.1
			c-0.2,0.1-0.9,0.2-1.4,0.2c-1.4,0-1.9-1-1.9-2v-4.9h-0.8c-0.2,0-0.2-0.1-0.2-0.3v-0.6c0-0.2,0-0.3,0.3-0.3h0.7v-1.5
			c0-0.3,0.2-0.3,0.4-0.4l0.8-0.2c0.3-0.1,0.4,0.1,0.4,0.4v1.6h1.4c0.3,0,0.3,0.1,0.3,0.3v0.6C289.7,94.7,289.6,94.8,289.3,94.8"/>
		<path class="st1" d="M296.9,97.9h-4.5c0,1.7,0.9,2.4,2.3,2.4c1.2,0,1.9-0.2,2.2-0.3c0.3-0.1,0.4,0,0.4,0.1v0.8
			c0,0.3-0.1,0.3-0.5,0.4c-0.2,0.1-1.3,0.3-2.2,0.3c-2.6,0-3.9-1.2-3.9-4.1c0-2.9,1.2-4.3,3.5-4.3c2.1,0,3.3,1.1,3.3,3.2v0.9
			C297.5,97.7,297.5,97.9,296.9,97.9 M294.2,94.3c-1.2,0-1.7,1-1.7,2.2c0,0.2,0,0.3,0.2,0.3h3c0.1,0,0.2-0.1,0.2-0.3
			C295.9,95.1,295.4,94.3,294.2,94.3"/>
		<path class="st1" d="M303.3,94.4c0,0.2-0.1,0.2-0.2,0.2c-0.4,0-0.9,0.1-1.2,0.3c-0.7,0.4-1.1,1-1.1,1.4v4.5c0,0.4,0,0.6-0.3,0.6
			h-0.9c-0.3,0-0.4-0.2-0.4-0.6v-7c0-0.3,0.1-0.5,0.4-0.5h1c0.2,0,0.4,0.1,0.4,0.4v0.8c0.6-0.9,1.5-1.3,2.4-1.3c0.1,0,0.3,0,0.2,0.2
			L303.3,94.4z"/>
		<path class="st1" d="M310.5,101.5h-1c-0.3,0-0.4-0.2-0.4-0.5v-4.8c0-0.8-0.4-1.5-1.4-1.5c-1.2,0-1.7,1-1.7,1.7v4.5
			c0,0.4,0,0.6-0.3,0.6h-0.9c-0.3,0-0.4-0.2-0.4-0.6v-7c0-0.3,0.1-0.5,0.4-0.5h1c0.3,0,0.4,0.3,0.4,0.9c0.5-0.7,1.2-1.1,2.4-1.1
			c1.3,0,2.4,0.7,2.4,2.6v5C310.8,101.3,310.8,101.5,310.5,101.5"/>
		<path class="st1" d="M318.8,101.5h-0.9c-0.2,0-0.4,0-0.4-0.4v-0.6c-0.3,0.6-1.3,1.2-2.4,1.2c-1.5,0-2.7-1.2-2.7-4.2
			c0-2.6,0.9-4.3,2.7-4.3c1.3,0,2,0.5,2.5,1.2v-0.7c0-0.2,0.1-0.4,0.3-0.4h1c0.4,0,0.4,0.1,0.4,0.5v7
			C319.1,101.3,319.1,101.5,318.8,101.5 M317.4,96.3c0-0.7-0.5-1.9-1.6-1.9c-1,0-1.6,0.7-1.6,2.5v1.3c0,1.5,0.5,2.4,1.6,2.4
			c1,0,1.6-1.1,1.6-1.5V96.3z"/>
		<path class="st1" d="M324.3,101.6c-2.3,0-3.7-1-3.7-4.2c0-3.1,1.5-4.3,3.8-4.3c1.3,0,2.2,0.3,2.7,1.1c0.2,0.3-1.1,1.1-1.2,0.9
			c-0.3-0.5-0.8-0.8-1.5-0.8c-1.1,0-1.9,0.7-1.9,2.4v1.5c0,1.6,0.9,2.3,1.9,2.3c0.7,0,1.2-0.4,1.5-0.9c0.1-0.3,1.4,0.3,1.2,0.5
			C326.6,101.1,325.7,101.6,324.3,101.6"/>
		<path class="st1" d="M329.7,92h-1c-0.3,0-0.4-0.1-0.4-0.5V91c0-0.3,0.1-0.4,0.4-0.4h0.9c0.3,0,0.3,0.2,0.3,0.5v0.5
			C330,91.9,330,92,329.7,92 M329.7,101.5h-1.1c-0.3,0-0.3-0.1-0.3-0.5v-7.1c0-0.3,0.1-0.5,0.4-0.5h0.9c0.4,0,0.4,0.1,0.4,0.5v7.1
			C330,101.4,330,101.5,329.7,101.5"/>
		<path class="st1" d="M335.2,101.6c-2.3,0-3.7-1-3.7-4.2c0-3.1,1.5-4.3,3.7-4.3c2.2,0,3.5,1.2,3.5,4.3
			C338.8,100.2,337.4,101.6,335.2,101.6 M337.1,96.7c0-1.3-0.5-2.3-1.8-2.3c-1.1,0-1.9,0.7-1.9,2.4v1.5c0,1.6,0.9,2.3,1.9,2.3
			c1.1,0,1.8-1,1.8-2.5V96.7z"/>
		<path class="st1" d="M346.4,101.5h-1c-0.3,0-0.4-0.2-0.4-0.5v-4.8c0-0.8-0.4-1.5-1.4-1.5c-1.2,0-1.7,1-1.7,1.7v4.5
			c0,0.4,0,0.6-0.3,0.6h-0.9c-0.3,0-0.4-0.2-0.4-0.6v-7c0-0.3,0.1-0.5,0.4-0.5h1c0.3,0,0.4,0.3,0.4,0.9c0.5-0.7,1.2-1.1,2.4-1.1
			c1.3,0,2.4,0.7,2.4,2.6v5C346.7,101.3,346.7,101.5,346.4,101.5"/>
		<path class="st1" d="M354.7,101.5h-0.9c-0.2,0-0.4,0-0.4-0.4v-0.6c-0.3,0.6-1.3,1.2-2.4,1.2c-1.5,0-2.7-1.2-2.7-4.2
			c0-2.6,0.9-4.3,2.7-4.3c1.3,0,2,0.5,2.5,1.2v-0.7c0-0.2,0.1-0.4,0.3-0.4h1c0.4,0,0.4,0.1,0.4,0.5v7
			C355.1,101.3,355,101.5,354.7,101.5 M353.3,96.3c0-0.7-0.5-1.9-1.7-1.9c-1,0-1.6,0.7-1.6,2.5v1.3c0,1.5,0.5,2.4,1.6,2.4
			c1,0,1.6-1.1,1.6-1.5V96.3z"/>
		<path class="st1" d="M358.2,101.5h-1c-0.3,0-0.4-0.1-0.4-0.5V90.8c0-0.3,0.1-0.4,0.4-0.4h0.9c0.4,0,0.4,0.1,0.4,0.4V101
			C358.5,101.4,358.5,101.5,358.2,101.5"/>
		<path class="st1" d="M369,101.5H368c-0.2,0-0.4,0-0.4-0.4v-0.4c-0.6,0.7-1.3,1-2.5,1c-1.5,0-2.6-1.2-2.6-4.1
			c0-2.6,0.9-4.3,2.7-4.3c1.2,0,1.9,0.3,2.5,1.2v-3.5c0-0.3,0.1-0.5,0.3-0.5h1c0.4,0,0.4,0.1,0.4,0.5v10.1
			C369.3,101.3,369.3,101.5,369,101.5 M367.6,96.2c0-0.8-0.5-1.8-1.6-1.8c-1,0-1.6,1-1.6,2.5v1.3c0,1.5,0.6,2.4,1.6,2.4
			c1,0,1.6-0.9,1.6-1.3V96.2z"/>
		<path class="st1" d="M377,98h-4.4c0,1.7,0.9,2.4,2.3,2.4c1.2,0,2-0.2,2.2-0.3c0.3-0.1,0.4,0,0.4,0.1v0.8c0,0.3-0.1,0.3-0.5,0.5
			c-0.2,0.1-1.3,0.3-2.2,0.3c-2.6,0-3.9-1.2-3.9-4.1c0-2.9,1.2-4.3,3.5-4.3c2.1,0,3.3,1.2,3.3,3.2v0.9C377.6,97.8,377.6,98,377,98
			 M374.3,94.3c-1.2,0-1.7,1-1.7,2.2c0,0.2,0,0.3,0.2,0.3h3c0.2,0,0.2-0.1,0.2-0.3C376,95.1,375.5,94.3,374.3,94.3"/>
		<path class="st1" d="M277.3,115.9H274c-0.3,0-0.3-0.1-0.3-0.4v-10.1c0-0.3,0-0.5,0.3-0.5h2.9c2.6,0,4,0.8,4,2.8
			c0,1.4-0.7,2.3-1.7,2.6c1.1,0.3,1.9,1,1.9,2.7C281.1,114.8,280,115.9,277.3,115.9 M276.8,106.2h-1.2c-0.2,0-0.3,0.1-0.3,0.3v2.9
			c0,0.2,0.1,0.3,0.3,0.3h1.2c1.6,0,2.2-0.5,2.2-1.7C279.1,106.7,278.3,106.2,276.8,106.2 M276.9,111.1h-1.2c-0.2,0-0.3,0.1-0.3,0.3
			v3c0,0.1,0,0.3,0.3,0.3h1.2c1.6,0,2.4-0.4,2.4-1.7C279.3,111.7,278.4,111.1,276.9,111.1"/>
		<path class="st1" d="M288.6,112.4h-4.5c0,1.7,0.9,2.4,2.3,2.4c1.2,0,1.9-0.2,2.2-0.3c0.3-0.1,0.4,0,0.4,0.1v0.8
			c0,0.3-0.1,0.3-0.5,0.5c-0.2,0.1-1.3,0.3-2.2,0.3c-2.6,0-3.9-1.2-3.9-4.1c0-2.9,1.2-4.3,3.5-4.3c2.1,0,3.3,1.2,3.3,3.2v0.9
			C289.2,112.2,289.2,112.4,288.6,112.4 M285.9,108.7c-1.2,0-1.7,1-1.7,2.2c0,0.2,0,0.3,0.2,0.3h3c0.1,0,0.2-0.1,0.2-0.3
			C287.6,109.5,287.1,108.7,285.9,108.7"/>
		<path class="st1" d="M292.1,115.9h-1c-0.3,0-0.4-0.1-0.4-0.5v-10.2c0-0.3,0.1-0.4,0.4-0.4h0.9c0.4,0,0.4,0.1,0.4,0.5v10.2
			C292.4,115.8,292.4,115.9,292.1,115.9"/>
		<path class="st1" d="M297.6,116.1c-2.3,0-3.7-1-3.7-4.1c0-3.1,1.5-4.3,3.7-4.3c2.2,0,3.5,1.2,3.5,4.3
			C301.2,114.6,299.9,116.1,297.6,116.1 M299.5,111.1c0-1.3-0.5-2.3-1.8-2.3c-1.1,0-1.9,0.7-1.9,2.4v1.5c0,1.6,0.9,2.3,1.9,2.3
			c1.1,0,1.8-1,1.8-2.5V111.1z"/>
		<path class="st1" d="M313.8,115.9h-1.1c-0.2,0-0.4-0.1-0.4-0.4v-4.3c0-0.3,0-0.3-0.3-0.3h-3.9c-0.2,0-0.2,0-0.2,0.3v4.3
			c0,0.4-0.1,0.5-0.4,0.5h-1c-0.3,0-0.3-0.2-0.3-0.6v-10c0-0.3,0.1-0.4,0.3-0.4h1.1c0.3,0,0.4,0.1,0.4,0.5v3.8
			c0,0.2,0.1,0.3,0.3,0.3h3.8c0.2,0,0.3-0.1,0.3-0.3v-3.9c0-0.3,0.1-0.4,0.4-0.4h1c0.3,0,0.3,0.1,0.3,0.4v10.1
			C314.2,115.8,314.1,115.9,313.8,115.9"/>
		<path class="st1" d="M319.6,116.1c-2.3,0-3.7-1-3.7-4.1c0-3.1,1.5-4.3,3.7-4.3c2.2,0,3.5,1.2,3.5,4.3
			C323.1,114.6,321.8,116.1,319.6,116.1 M321.4,111.1c0-1.3-0.5-2.3-1.8-2.3c-1.1,0-1.9,0.7-1.9,2.4v1.5c0,1.6,0.9,2.3,1.9,2.3
			c1.1,0,1.8-1,1.8-2.5V111.1z"/>
		<path class="st1" d="M328.9,108.9c0,0.1-0.1,0.2-0.2,0.2c-0.4,0-0.9,0.1-1.2,0.3c-0.7,0.4-1.1,1-1.1,1.4v4.5c0,0.4,0,0.6-0.3,0.6
			h-0.9c-0.3,0-0.4-0.2-0.4-0.6v-7c0-0.3,0.1-0.5,0.4-0.5h1c0.2,0,0.4,0.1,0.4,0.4v0.8c0.6-0.9,1.5-1.3,2.4-1.3c0.1,0,0.3,0,0.2,0.2
			L328.9,108.9z"/>
		<path class="st1" d="M331.3,106.4h-1c-0.3,0-0.4-0.1-0.4-0.5v-0.5c0-0.3,0.1-0.4,0.4-0.4h0.9c0.3,0,0.3,0.2,0.3,0.5v0.5
			C331.6,106.3,331.6,106.4,331.3,106.4 M331.3,115.9h-1c-0.3,0-0.3-0.1-0.3-0.5v-7.1c0-0.3,0.1-0.4,0.4-0.4h0.9
			c0.4,0,0.4,0.1,0.4,0.4v7.1C331.6,115.8,331.6,115.9,331.3,115.9"/>
		<path class="st1" d="M338.7,115.9h-5.3c-0.7,0-0.7-0.3-0.4-0.7l3.7-6.2h-3.3c-0.3,0-0.4,0-0.4-0.3v-0.5c0-0.3,0.1-0.3,0.3-0.3h5.1
			c0.5,0,0.7,0.1,0.4,0.5l-3.8,6.4h3.6c0.3,0,0.4,0,0.4,0.3v0.5C339,115.9,339,115.9,338.7,115.9"/>
		<path class="st1" d="M343.7,116.1c-2.3,0-3.7-1-3.7-4.1c0-3.1,1.5-4.3,3.7-4.3c2.2,0,3.5,1.2,3.5,4.3
			C347.3,114.6,346,116.1,343.7,116.1 M345.6,111.1c0-1.3-0.5-2.3-1.8-2.3c-1.1,0-1.9,0.7-1.9,2.4v1.5c0,1.6,0.9,2.3,1.9,2.3
			c1.1,0,1.8-1,1.8-2.5V111.1z"/>
		<path class="st1" d="M354.9,115.9h-1c-0.3,0-0.4-0.2-0.4-0.5v-4.8c0-0.8-0.4-1.5-1.4-1.5c-1.2,0-1.7,1-1.7,1.7v4.5
			c0,0.4,0,0.6-0.3,0.6h-0.9c-0.3,0-0.4-0.2-0.4-0.6v-7c0-0.3,0.1-0.5,0.4-0.5h1c0.3,0,0.4,0.3,0.4,0.9c0.5-0.7,1.2-1.1,2.4-1.1
			c1.3,0,2.4,0.7,2.4,2.6v5C355.2,115.7,355.2,115.9,354.9,115.9"/>
		<path class="st1" d="M360.7,109.2h-1.4v4.9c0,0.5,0.2,0.8,0.6,0.8c0.3,0,0.4,0,0.7-0.1c0.2,0,0.3,1.1,0.2,1.1
			c-0.2,0.1-0.9,0.2-1.4,0.2c-1.4,0-1.9-1-1.9-2v-4.9h-0.7c-0.2,0-0.2-0.1-0.2-0.3v-0.6c0-0.2,0-0.3,0.3-0.3h0.7v-1.5
			c0-0.3,0.2-0.3,0.4-0.4l0.8-0.2c0.3-0.1,0.4,0.1,0.4,0.4v1.6h1.4c0.3,0,0.3,0.1,0.3,0.3v0.6C361.1,109.1,361,109.2,360.7,109.2"/>
		<path class="st1" d="M368.3,112.4h-4.4c0,1.7,0.9,2.4,2.3,2.4c1.2,0,1.9-0.2,2.2-0.3c0.3-0.1,0.4,0,0.4,0.1v0.8
			c0,0.3-0.1,0.3-0.5,0.5c-0.2,0.1-1.3,0.3-2.2,0.3c-2.6,0-3.9-1.2-3.9-4.1c0-2.9,1.2-4.3,3.5-4.3c2.1,0,3.3,1.2,3.3,3.2v0.9
			C368.9,112.2,368.9,112.4,368.3,112.4 M365.6,108.7c-1.2,0-1.7,1-1.7,2.2c0,0.2,0,0.3,0.2,0.3h3c0.1,0,0.2-0.1,0.2-0.3
			C367.3,109.5,366.8,108.7,365.6,108.7"/>
	</g>
	<rect x="254.9" y="2.7" class="st2" width="0.2" height="125.6"/>
	<rect x="273.5" y="64.1" class="st2" width="116.9" height="0.2"/>
	<polygon class="st0" points="20.9,28.2 20.9,36.6 13.4,36.6 13.4,28.2 8.3,28.2 8.3,49.1 13.4,49.1 13.4,40.9 20.9,40.9 20.9,49.1 
		26,49.1 26,28.2 	"/>
	<g>
		<path class="st0" d="M29.9,28.2H35v13.2c0,2.2,1.4,3.4,3.6,3.4c2.2,0,3.6-1.2,3.6-3.4V28.2h5.1v13.2c0,4.7-3.4,8-8.7,8
			c-5.3,0-8.7-3.3-8.7-8V28.2z"/>
		<path class="st0" d="M59.4,44.7c1.5,0,2.2-1,2.2-2.2c0-1.2-0.7-2.1-2.2-2.1h-3.1v4.3H59.4z M58.9,36.3c1.3,0,1.8-0.9,1.8-1.9
			c0-1-0.6-1.8-1.9-1.8h-2.5v3.7H58.9z M51.2,28.2h7.7c4.2,0,7.1,1.9,7.1,5.4c0,1.7-0.8,3.5-2.4,4.4v0.1c2.4,0.7,3.3,2.9,3.3,4.7
			c0,4.5-3.8,6.2-7.9,6.2h-7.7V28.2z"/>
	</g>
	<polygon class="st0" points="75.6,28.2 80.7,28.2 80.7,44.7 89.2,44.7 89.2,49.1 75.6,49.1 	"/>
	<g>
		<path class="st0" d="M100.6,44.8c3.1,0,5.6-2.7,5.6-6.2c0-3.4-2.5-6-5.6-6c-3.1,0-5.6,2.6-5.6,6C95,42.1,97.5,44.8,100.6,44.8
			 M100.6,27.9c6.3,0,10.9,4.7,10.9,10.6c0,6.1-4.6,10.9-10.9,10.9c-6.3,0-10.9-4.8-10.9-10.9C89.7,32.6,94.3,27.9,100.6,27.9"/>
		<path class="st0" d="M123.8,27.9c5.3,0,8,2.8,8,2.8l-2.4,3.8c0,0-2.1-1.9-5.1-1.9c-4.4,0-6.1,2.8-6.1,5.9c0,4,2.7,6.3,6,6.3
			c2.4,0,4.2-1.5,4.2-1.5v-1.6h-2.9v-4.3h7.5v11.8h-4.3v-0.6c0-0.4,0-0.9,0-0.9h-0.1c0,0-2,1.8-5.5,1.8c-5.3,0-10.2-4-10.2-10.8
			C112.9,32.6,117.4,27.9,123.8,27.9"/>
	</g>
	<path class="st0" d="M138.8,22.5h5l-3.4,4.4h-3.9L138.8,22.5z M136,28.2h5.1v20.8H136V28.2z"/>
	<g>
		<path class="st0" d="M146.4,42.6c0,0,2.4,2.2,5,2.2c1,0,2.2-0.4,2.2-1.7c0-2.5-9.4-2.4-9.4-8.8c0-3.8,3.2-6.4,7.4-6.4
			c4.5,0,6.7,2.4,6.7,2.4l-2.2,4.2c0,0-2.1-1.8-4.6-1.8c-1,0-2.2,0.5-2.2,1.6c0,2.6,9.4,2.2,9.4,8.7c0,3.5-2.7,6.5-7.3,6.5
			c-4.9,0-7.6-3-7.6-3L146.4,42.6z"/>
	</g>
	<polygon class="st0" points="165.4,32.6 159.1,32.6 159.1,28.2 176.8,28.2 176.8,32.6 170.5,32.6 170.5,49.1 165.4,49.1 	"/>
	<rect x="178.6" y="28.2" class="st0" width="5.1" height="20.8"/>
	<g>
		<path class="st0" d="M197.4,27.9c5.2,0,7.8,2.9,7.8,2.9l-2.4,3.8c0,0-2.3-2.1-5.2-2.1c-4,0-5.9,2.9-5.9,5.9c0,3.1,2,6.3,5.9,6.3
			c3.1,0,5.5-2.6,5.5-2.6l2.6,3.7c0,0-2.9,3.5-8.4,3.5c-6.5,0-10.9-4.6-10.9-10.8C186.5,32.6,191.1,27.9,197.4,27.9"/>
		<path class="st0" d="M217.5,44.8c3.1,0,5.6-2.7,5.6-6.2c0-3.4-2.5-6-5.6-6c-3.1,0-5.6,2.6-5.6,6C211.9,42.1,214.4,44.8,217.5,44.8
			 M217.5,27.9c6.3,0,10.9,4.7,10.9,10.6c0,6.1-4.6,10.9-10.9,10.9c-6.3,0-10.9-4.8-10.9-10.9C206.6,32.6,211.2,27.9,217.5,27.9"/>
		<path class="st0" d="M41.1,59.4h5.5l3,8.8c0.5,1.3,1,3.4,1,3.4h0.1c0,0,0.6-2.1,1-3.4l3-8.8h5.5l1.7,20.8H57l-0.6-9.4
			c-0.1-1.6,0-3.5,0-3.5h-0.1c0,0-0.7,2.2-1.2,3.5l-2.2,6h-4.4l-2.2-6c-0.5-1.3-1.2-3.5-1.2-3.5h-0.1c0,0,0.1,1.9,0,3.5l-0.6,9.4
			h-5.1L41.1,59.4z"/>
		<path class="st0" d="M65.3,59.4h5.1v13.2c0,2.2,1.4,3.4,3.6,3.4c2.2,0,3.6-1.2,3.6-3.4V59.4h5.1v13.2c0,4.7-3.4,8-8.7,8
			c-5.3,0-8.7-3.3-8.7-8V59.4z"/>
	</g>
	<polygon class="st0" points="86.6,59.4 91.7,59.4 91.7,75.8 100.2,75.8 100.2,80.2 86.6,80.2 	"/>
	<polygon class="st0" points="104.8,63.7 98.5,63.7 98.5,59.4 116.2,59.4 116.2,63.7 109.9,63.7 109.9,80.2 104.8,80.2 	"/>
	<rect x="118.1" y="59.4" class="st0" width="5.1" height="20.8"/>
	<g>
		<path class="st0" d="M128.4,59.4h5.5l3,8.8c0.5,1.3,1,3.4,1,3.4h0.1c0,0,0.6-2.1,1-3.4l3-8.8h5.5l1.7,20.8h-5.1l-0.6-9.4
			c-0.1-1.6,0-3.5,0-3.5h-0.1c0,0-0.7,2.2-1.2,3.5l-2.2,6h-4.4l-2.2-6c-0.5-1.3-1.2-3.5-1.2-3.5h-0.1c0,0,0.1,1.9,0,3.5l-0.6,9.4
			h-5.1L128.4,59.4z"/>
		<path class="st0" d="M162.4,75.9c3.1,0,5.6-2.7,5.6-6.2c0-3.4-2.5-6-5.6-6c-3.1,0-5.6,2.6-5.6,6C156.8,73.2,159.3,75.9,162.4,75.9
			 M162.4,59c6.3,0,10.9,4.7,10.9,10.6c0,6.1-4.6,10.9-10.9,10.9c-6.3,0-10.9-4.8-10.9-10.9C151.5,63.7,156.1,59,162.4,59"/>
		<path class="st0" d="M183.2,75.8c3.5,0,5.7-2.1,5.7-6.1c0-4-2.2-6-5.7-6h-2.1v12.1H183.2z M176,59.4h7.4c6.6,0,10.8,3.8,10.8,10.4
			s-4.2,10.5-10.8,10.5H176V59.4z"/>
		<path class="st0" d="M204.1,64.1c0,0-0.5,2.3-0.8,3.6l-1.2,4.1h4.1l-1.2-4.1C204.6,66.4,204.1,64.1,204.1,64.1L204.1,64.1z
			 M207.3,75.8h-6.5l-1.3,4.4h-5.2l7.1-20.8h5.4l7.1,20.8h-5.2L207.3,75.8z"/>
	</g>
	<polygon class="st0" points="215.5,59.4 220.6,59.4 220.6,75.8 229.1,75.8 229.1,80.2 215.5,80.2 	"/>
	<rect x="53.1" y="100.6" class="st2" width="0.7" height="11.8"/>
	<g>
		<path class="st2" d="M57.5,100.6h0.7l6.7,9.3c0.4,0.5,1,1.5,1,1.5h0c0,0-0.1-0.9-0.1-1.5v-9.3h0.7v11.8h-0.7l-6.7-9.3
			c-0.4-0.5-1-1.5-1-1.5h0c0,0,0.1,0.9,0.1,1.5v9.3h-0.7V100.6z"/>
	</g>
	<polygon class="st2" points="72.9,101.3 68.5,101.3 68.5,100.6 78.1,100.6 78.1,101.3 73.6,101.3 73.6,112.4 72.9,112.4 	"/>
	<polygon class="st2" points="80,100.6 86.5,100.6 86.5,101.3 80.7,101.3 80.7,106.1 85.4,106.1 85.4,106.8 80.7,106.8 80.7,111.8 
		86.8,111.8 86.8,112.4 80,112.4 	"/>
	<g>
		<path class="st2" d="M94.6,100.4c2.7,0,4.1,1.3,4.1,1.3l-0.4,0.6c0,0-1.4-1.2-3.7-1.2c-3,0-5.1,2.4-5.1,5.4c0,3.1,2.1,5.4,5,5.4
			c2.5,0,4.1-1.9,4.1-1.9v-2.3h-2.1V107h2.8v5.4h-0.7v-1c0-0.3,0-0.5,0-0.5h0c0,0-1.4,1.7-4,1.7c-3.3,0-5.8-2.7-5.8-6.1
			C88.7,103.1,91.3,100.4,94.6,100.4"/>
		<path class="st2" d="M106.2,106.5c1.6,0,2.5-1.1,2.5-2.7c0-1-0.5-1.9-1.4-2.3c-0.3-0.2-0.7-0.2-1.7-0.2H103v5.2H106.2z
			 M102.3,100.6h3.5c1.1,0,1.7,0.1,2.1,0.4c1,0.5,1.6,1.5,1.6,2.8c0,1.7-1,3-2.4,3.3v0c0,0,0.1,0.1,0.3,0.4l2.6,4.9h-0.9l-2.8-5.2
			H103v5.2h-0.7V100.6z"/>
		<path class="st2" d="M116.1,101.5c0,0-0.3,0.9-0.4,1.4l-1.8,4.8h4.5l-1.8-4.8C116.4,102.4,116.1,101.5,116.1,101.5L116.1,101.5z
			 M118.6,108.3h-5l-1.5,4.1h-0.8l4.4-11.8h0.8l4.4,11.8h-0.8L118.6,108.3z"/>
		<path class="st2" d="M126.6,111.8c3.1,0,5.2-1.8,5.2-5.2c0-3.4-2.1-5.2-5.2-5.2h-2.9v10.5H126.6z M123,100.6h3.7
			c3.5,0,5.9,2.2,5.9,5.9c0,3.8-2.4,5.9-5.9,5.9H123V100.6z"/>
		<path class="st2" d="M140.7,111.9c2.9,0,5.2-2.4,5.2-5.5c0-3-2.3-5.3-5.2-5.3c-2.9,0-5.2,2.3-5.2,5.3
			C135.5,109.5,137.8,111.9,140.7,111.9 M140.7,100.4c3.3,0,6,2.6,6,6c0,3.5-2.7,6.2-6,6.2c-3.3,0-6-2.7-6-6.2
			C134.7,103,137.4,100.4,140.7,100.4"/>
	</g>
	<rect x="148.4" y="111.4" class="st2" width="1" height="1.1"/>
	<g>
		<path class="st0" d="M162.5,100.4c2.7,0,4.1,1.3,4.1,1.3l-0.4,0.6c0,0-1.4-1.2-3.7-1.2c-3,0-5.1,2.4-5.1,5.4c0,3.1,2.1,5.4,5,5.4
			c2.5,0,4.1-1.9,4.1-1.9v-2.3h-2.1V107h2.8v5.4h-0.7v-1c0-0.3,0-0.5,0-0.5h0c0,0-1.4,1.7-4,1.7c-3.3,0-5.8-2.7-5.8-6.1
			C156.7,103.1,159.2,100.4,162.5,100.4"/>
	</g>
	<polygon class="st0" points="170.2,100.6 170.9,100.6 170.9,111.8 176.6,111.8 176.6,112.4 170.2,112.4 	"/>
	<g>
		<path class="st0" d="M183.3,111.9c2.9,0,5.2-2.4,5.2-5.5c0-3-2.3-5.3-5.2-5.3c-2.9,0-5.2,2.3-5.2,5.3
			C178.1,109.5,180.4,111.9,183.3,111.9 M183.3,100.4c3.3,0,6,2.6,6,6c0,3.5-2.7,6.2-6,6.2c-3.3,0-6-2.7-6-6.2
			C177.3,103,180,100.4,183.3,100.4"/>
		<path class="st0" d="M196.2,111.8c1.6,0,2.6-1,2.6-2.6c0-1.6-1.1-2.6-2.6-2.6h-3.3v5.2H196.2z M196.1,105.9c1.3,0,2.2-0.9,2.2-2.3
			c0-1.4-0.9-2.3-2.3-2.3h-3.2v4.6H196.1z M192.1,100.6h4c1.7,0,3,1.1,3,3c0,1.3-0.6,2.1-1.5,2.6v0c1.2,0.3,2,1.5,2,3
			c0,2-1.4,3.3-3.3,3.3h-4.1V100.6z"/>
		<path class="st0" d="M205.8,101.5c0,0-0.3,0.9-0.4,1.4l-1.8,4.8h4.5l-1.8-4.8C206.1,102.4,205.9,101.5,205.8,101.5L205.8,101.5z
			 M208.4,108.3h-5l-1.5,4.1H201l4.4-11.8h0.8l4.4,11.8h-0.8L208.4,108.3z"/>
	</g>
	<polygon class="st0" points="212.8,100.6 213.5,100.6 213.5,111.8 219.2,111.8 219.2,112.4 212.8,112.4 	"/>
	<rect x="221" y="111.4" class="st0" width="1" height="1.1"/>
	<g>
		<path class="st0" d="M217.5,14.4c-1.4,0-2.6,1.1-2.6,2.6c0,1.4,1.1,2.6,2.6,2.6c1.4,0,2.6-1.1,2.6-2.6
			C220.1,15.6,219,14.4,217.5,14.4 M217.5,20.7c-2,0-3.7-1.7-3.7-3.7c0-2,1.7-3.7,3.7-3.7c2,0,3.7,1.7,3.7,3.7
			C221.2,19,219.6,20.7,217.5,20.7"/>
	</g>
	
		<rect x="225.9" y="41.8" transform="matrix(0.7444 -0.6677 0.6677 0.7444 24.658 163.9078)" class="st0" width="1.1" height="15.9"/>
	<g>
		<path class="st0" d="M234.9,54.4c-1.1,0-2.2,0.4-3.1,1.2c-0.9,0.8-1.5,2-1.6,3.2c-0.1,1.3,0.4,2.5,1.2,3.4c0.8,0.9,2,1.5,3.2,1.6
			c1.3,0.1,2.5-0.4,3.4-1.2c0.9-0.8,1.5-2,1.6-3.2c0.1-1.3-0.4-2.5-1.2-3.4C237.5,54.9,236.2,54.4,234.9,54.4 M234.9,64.9
			c-0.1,0-0.2,0-0.3,0c-1.6-0.1-3-0.8-4-1.9c-1-1.2-1.6-2.7-1.5-4.2c0.1-1.6,0.8-3,1.9-4c2.4-2.1,6.1-1.9,8.2,0.4
			c1,1.2,1.6,2.7,1.5,4.2c-0.1,1.6-0.8,3-1.9,4C237.7,64.4,236.3,64.9,234.9,64.9"/>
	</g>
	<rect x="223" y="33.3" transform="matrix(0.869 -0.4948 0.4948 0.869 12.9802 116.7189)" class="st0" width="7.8" height="1.1"/>
	
		<rect x="208.3" y="49.5" transform="matrix(0.5372 -0.8435 0.8435 0.5372 55.9579 202.1353)" class="st0" width="7.8" height="1.1"/>
	<g>
		<path class="st0" d="M232.6,28.6c-0.3,0-0.6,0.1-0.8,0.2c-0.8,0.5-1.1,1.5-0.6,2.3c0.5,0.8,1.5,1.1,2.3,0.6
			c0.8-0.5,1.1-1.5,0.6-2.3C233.8,28.9,233.2,28.6,232.6,28.6 M232.6,33.1c-1,0-1.9-0.5-2.5-1.4c-0.8-1.4-0.3-3.1,1.1-3.9
			c1.4-0.8,3.1-0.3,3.9,1.1c0.8,1.4,0.3,3.1-1.1,3.9v0C233.6,33,233.1,33.1,232.6,33.1"/>
		<path class="st0" d="M208.8,53.4c-0.3,0-0.6,0.1-0.8,0.2c-0.4,0.2-0.7,0.6-0.8,1c-0.1,0.4-0.1,0.9,0.2,1.3
			c0.5,0.8,1.5,1.1,2.3,0.6c0.8-0.5,1.1-1.5,0.6-2.3c-0.2-0.4-0.6-0.7-1-0.8C209.1,53.4,209,53.4,208.8,53.4 M208.8,58
			c-1,0-1.9-0.5-2.5-1.4c-0.4-0.7-0.5-1.4-0.3-2.1c0.2-0.7,0.7-1.3,1.3-1.7c0.7-0.4,1.4-0.5,2.1-0.3c0.7,0.2,1.3,0.7,1.7,1.3
			c0.8,1.4,0.3,3.1-1.1,3.9v0C209.8,57.8,209.3,58,208.8,58"/>
	</g>
	<rect x="217" y="20.1" class="st0" width="1.1" height="9.5"/>
</g>
</svg>
