<?xml version="1.0" encoding="utf-8"?>
<!-- Generator: Adobe Illustrator 24.1.2, SVG Export Plug-In . SVG Version: 6.00 Build 0)  -->
<svg version="1.1" id="Camada_1" xmlns="http://www.w3.org/2000/svg" xmlns:xlink="http://www.w3.org/1999/xlink" x="0px" y="0px"
	 viewBox="0 0 381 151" style="enable-background:new 0 0 381 151;" xml:space="preserve">
<style type="text/css">
	.st0{fill:#233C7D;}
	.st1{fill:#FFFFFF;}
</style>
<g>
	<g>
		<path class="st0" d="M240.2,16.3h3.9l4.4,7.4c0.6,1,1.3,2.7,1.3,2.7h0c0,0-0.2-1.7-0.2-2.7v-7.4h3.9v15.9h-3.9l-4.4-7.4
			c-0.6-1-1.3-2.7-1.3-2.7h0c0,0,0.2,1.7,0.2,2.7v7.4h-3.9V16.3z"/>
		<path class="st0" d="M264.1,29c2.4,0,4.3-2.1,4.3-4.8c0-2.6-1.9-4.6-4.3-4.6c-2.4,0-4.3,2-4.3,4.6C259.8,26.9,261.7,29,264.1,29
			 M264.1,16.1c4.8,0,8.3,3.6,8.3,8.1c0,4.7-3.5,8.3-8.3,8.3c-4.8,0-8.3-3.7-8.3-8.3C255.8,19.6,259.3,16.1,264.1,16.1"/>
		<path class="st0" d="M272.4,16.3h4.2l2.8,9.1c0.3,1,0.6,2.6,0.6,2.6h0c0,0,0.3-1.6,0.6-2.6l2.9-9.1h4.2l-5.6,15.9h-4.1L272.4,16.3
			z"/>
		<path class="st0" d="M296.1,29c2.4,0,4.3-2.1,4.3-4.8c0-2.6-1.9-4.6-4.3-4.6c-2.4,0-4.3,2-4.3,4.6C291.8,26.9,293.7,29,296.1,29
			 M296.1,16.1c4.8,0,8.3,3.6,8.3,8.1c0,4.7-3.5,8.3-8.3,8.3c-4.8,0-8.3-3.7-8.3-8.3C287.7,19.6,291.3,16.1,296.1,16.1"/>
		<path class="st0" d="M307.4,27.3c0,0,1.8,1.6,3.8,1.6c0.8,0,1.7-0.3,1.7-1.3c0-1.9-7.2-1.8-7.2-6.7c0-2.9,2.5-4.9,5.6-4.9
			c3.4,0,5.1,1.8,5.1,1.8l-1.6,3.2c0,0-1.6-1.4-3.5-1.4c-0.8,0-1.7,0.4-1.7,1.2c0,2,7.2,1.6,7.2,6.7c0,2.7-2,4.9-5.6,4.9
			c-3.7,0-5.8-2.3-5.8-2.3L307.4,27.3z"/>
		<path class="st0" d="M240.2,40.3h3.9l4.4,7.4c0.6,1,1.3,2.7,1.3,2.7h0c0,0-0.2-1.7-0.2-2.7v-7.4h3.9v15.9h-3.9l-4.4-7.4
			c-0.6-1-1.3-2.7-1.3-2.7h0c0,0,0.2,1.7,0.2,2.7v7.4h-3.9V40.3z"/>
	</g>
	<polygon class="st0" points="256.9,40.3 266.8,40.3 266.8,43.6 260.8,43.6 260.8,46.5 265.6,46.5 265.6,49.8 260.8,49.8 
		260.8,52.9 267.2,52.9 267.2,56.2 256.9,56.2 	"/>
	<g>
		<path class="st0" d="M276.7,40c4.1,0,6.1,2.1,6.1,2.1l-1.9,2.9c0,0-1.6-1.5-3.9-1.5c-3.3,0-4.7,2.1-4.7,4.5c0,3,2.1,4.8,4.6,4.8
			c1.9,0,3.2-1.2,3.2-1.2v-1.2h-2.3v-3.3h5.7v9h-3.3v-0.4c0-0.3,0-0.7,0-0.7h0c0,0-1.5,1.4-4.2,1.4c-4.1,0-7.8-3.1-7.8-8.3
			C268.3,43.6,271.8,40,276.7,40"/>
		<path class="st0" d="M293.5,35.9h3.8l-2.6,3.3h-3L293.5,35.9z M293.3,52.9c2.4,0,4.3-2.1,4.3-4.8c0-2.6-1.9-4.6-4.3-4.6
			c-2.4,0-4.3,2-4.3,4.6C289,50.9,290.9,52.9,293.3,52.9 M293.3,40c4.8,0,8.3,3.6,8.3,8.1c0,4.7-3.5,8.3-8.3,8.3s-8.3-3.7-8.3-8.3
			C284.9,43.6,288.4,40,293.3,40"/>
		<path class="st0" d="M310.9,40c3.9,0,6,2.3,6,2.3l-1.8,2.9c0,0-1.8-1.6-4-1.6c-3.1,0-4.5,2.3-4.5,4.5c0,2.4,1.6,4.8,4.5,4.8
			c2.4,0,4.2-2,4.2-2l2,2.9c0,0-2.3,2.7-6.4,2.7c-5,0-8.4-3.5-8.4-8.3C302.6,43.6,306.2,40,310.9,40"/>
	</g>
	<rect x="319.2" y="40.3" class="st0" width="3.9" height="15.9"/>
	<g>
		<path class="st0" d="M333.5,52.9c2.4,0,4.3-2.1,4.3-4.8c0-2.6-1.9-4.6-4.3-4.6c-2.4,0-4.3,2-4.3,4.6
			C329.2,50.9,331.1,52.9,333.5,52.9 M333.5,40c4.8,0,8.3,3.6,8.3,8.1c0,4.7-3.5,8.3-8.3,8.3s-8.3-3.7-8.3-8.3
			C325.2,43.6,328.7,40,333.5,40"/>
		<path class="st0" d="M344.8,51.2c0,0,1.8,1.6,3.8,1.6c0.8,0,1.7-0.3,1.7-1.3c0-1.9-7.2-1.8-7.2-6.7c0-2.9,2.5-4.9,5.6-4.9
			c3.4,0,5.1,1.8,5.1,1.8l-1.6,3.2c0,0-1.6-1.4-3.5-1.4c-0.8,0-1.7,0.4-1.7,1.2c0,2,7.2,1.6,7.2,6.7c0,2.7-2,4.9-5.6,4.9
			c-3.7,0-5.8-2.3-5.8-2.3L344.8,51.2z"/>
		<path class="st1" d="M248.5,100.7h-1.4c-0.3,0-0.3-0.1-0.4-0.5l-0.8-2.4h-4.3l-0.7,2.4c-0.1,0.4-0.2,0.5-0.4,0.5h-1.3
			c-0.2,0-0.3-0.1-0.1-0.6l3.5-11.6c0.1-0.4,0.2-0.6,0.6-0.6h1.4c0.4,0,0.5,0.2,0.6,0.6l3.5,11.6
			C249.1,100.6,248.9,100.7,248.5,100.7 M243.8,90.4l-1.7,5.8h3.4L243.8,90.4z"/>
		<path class="st1" d="M257.3,96.5h-5.2c0,2,1,2.8,2.6,2.8c1.4,0,2.3-0.3,2.6-0.4c0.3-0.1,0.5,0,0.5,0.2v0.9c0,0.3-0.1,0.4-0.6,0.5
			c-0.2,0.1-1.5,0.3-2.6,0.3c-3,0-4.5-1.3-4.5-4.8c0-3.3,1.4-5,4-5c2.4,0,3.8,1.3,3.8,3.7v1.1C258,96.3,258,96.5,257.3,96.5
			 M254.2,92.3c-1.4,0-2,1.2-2,2.6c0,0.2,0,0.3,0.2,0.3h3.5c0.2,0,0.2-0.1,0.2-0.3C256.1,93.2,255.6,92.3,254.2,92.3"/>
		<path class="st1" d="M264.8,92.4c0,0.2-0.1,0.3-0.3,0.3c-0.5,0-1,0.1-1.4,0.4c-0.8,0.5-1.3,1.1-1.3,1.7v5.2c0,0.5,0,0.7-0.3,0.7
			h-1.1c-0.4,0-0.5-0.2-0.5-0.6v-8.2c0-0.3,0.1-0.5,0.4-0.5h1.1c0.2,0,0.4,0.1,0.4,0.5v0.9c0.7-1,1.7-1.5,2.8-1.5
			c0.1,0,0.3,0,0.3,0.2L264.8,92.4z"/>
		<path class="st1" d="M270,100.9c-2.7,0-4.3-1.1-4.3-4.8c0-3.6,1.7-5,4.4-5c2.6,0,4.1,1.4,4.1,5C274.2,99.1,272.6,100.9,270,100.9
			 M272.2,95c0-1.5-0.6-2.7-2.1-2.7c-1.3,0-2.2,0.9-2.2,2.8v1.7c0,1.9,1,2.7,2.2,2.7c1.3,0,2.1-1.1,2.1-2.9V95z"/>
		<path class="st1" d="M280.8,100.9c-1.3,0-2.2-0.4-2.8-1.2v4c0,0.4-0.1,0.6-0.3,0.6h-1.2c-0.4,0-0.5-0.1-0.5-0.6V91.9
			c0-0.4,0-0.6,0.5-0.6h1.1c0.3,0,0.4,0.1,0.4,0.5v0.6c0.7-0.9,1.7-1.4,2.9-1.4c1.9,0,3,1.9,3,4.9
			C283.9,99.5,282.6,100.9,280.8,100.9 M281.8,95.3c0-1.7-0.7-2.9-1.8-2.9c-1.4,0-1.9,1.3-1.9,2.2v3.4c0,0.5,0.7,1.6,1.9,1.6
			c1.3,0,1.9-1,1.9-2.7V95.3z"/>
		<path class="st1" d="M289.7,100.9c-2.7,0-4.3-1.1-4.3-4.8c0-3.6,1.7-5,4.4-5c2.6,0,4.1,1.4,4.1,5
			C293.8,99.1,292.3,100.9,289.7,100.9 M291.8,95c0-1.5-0.6-2.7-2.1-2.7c-1.3,0-2.2,0.9-2.2,2.8v1.7c0,1.9,1,2.7,2.2,2.7
			c1.3,0,2.1-1.1,2.1-2.9V95z"/>
		<path class="st1" d="M300.5,92.4c0,0.2-0.1,0.3-0.3,0.3c-0.5,0-1,0.1-1.4,0.4c-0.8,0.5-1.3,1.1-1.3,1.7v5.2c0,0.5,0,0.7-0.4,0.7
			h-1.1c-0.4,0-0.5-0.2-0.5-0.6v-8.2c0-0.3,0.1-0.5,0.4-0.5h1.1c0.2,0,0.4,0.1,0.4,0.5v0.9c0.7-1,1.7-1.5,2.8-1.5
			c0.1,0,0.3,0,0.3,0.2L300.5,92.4z"/>
		<path class="st1" d="M306.1,92.9h-1.6v5.7c0,0.6,0.3,0.9,0.7,0.9c0.3,0,0.5,0,0.9-0.1c0.2,0,0.3,1.2,0.2,1.3
			c-0.3,0.1-1,0.2-1.6,0.2c-1.7,0-2.2-1.1-2.2-2.3v-5.7h-0.9c-0.2,0-0.3-0.1-0.3-0.4v-0.7c0-0.3,0.1-0.3,0.4-0.3h0.8v-1.7
			c0-0.3,0.2-0.4,0.5-0.4l0.9-0.2c0.4-0.1,0.5,0.1,0.5,0.4v1.9h1.7c0.3,0,0.4,0.2,0.4,0.4v0.7C306.5,92.7,306.5,92.9,306.1,92.9"/>
		<path class="st1" d="M312,100.9c-2.7,0-4.3-1.1-4.3-4.8c0-3.6,1.7-5,4.4-5c2.6,0,4.1,1.4,4.1,5C316.2,99.1,314.6,100.9,312,100.9
			 M314.2,95c0-1.5-0.6-2.7-2.1-2.7c-1.3,0-2.2,0.9-2.2,2.8v1.7c0,1.9,1,2.7,2.2,2.7c1.3,0,2.1-1.1,2.1-2.9V95z"/>
		<path class="st1" d="M240.8,117.4h-1.3c-0.3,0-0.4-0.1-0.4-0.5V105c0-0.3,0.1-0.4,0.5-0.4h1.3c0.3,0,0.4,0.1,0.4,0.5V117
			C241.1,117.3,241.1,117.4,240.8,117.4"/>
		<path class="st1" d="M250.5,117.4h-1.1c-0.3,0-0.5-0.2-0.5-0.6v-5.5c0-0.9-0.4-1.7-1.6-1.7c-1.3,0-1.9,1.1-1.9,2v5.2
			c0,0.5,0,0.7-0.3,0.7h-1.1c-0.4,0-0.5-0.2-0.5-0.6v-8.2c0-0.3,0.1-0.5,0.4-0.5h1.1c0.3,0,0.4,0.3,0.4,1.1c0.6-0.8,1.4-1.3,2.8-1.3
			c1.5,0,2.8,0.8,2.8,3v5.8C250.9,117.2,250.8,117.4,250.5,117.4"/>
		<path class="st1" d="M257.2,109.6h-1.6v5.7c0,0.6,0.3,0.9,0.8,0.9c0.3,0,0.5,0,0.9-0.1c0.2,0,0.3,1.2,0.2,1.3
			c-0.3,0.1-1,0.2-1.6,0.2c-1.7,0-2.2-1.1-2.2-2.3v-5.7h-0.9c-0.2,0-0.3-0.1-0.3-0.4v-0.7c0-0.3,0.1-0.3,0.4-0.3h0.8v-1.7
			c0-0.3,0.2-0.4,0.5-0.4l0.9-0.2c0.4-0.1,0.5,0.1,0.5,0.4v1.9h1.7c0.3,0,0.4,0.2,0.4,0.4v0.7C257.7,109.5,257.6,109.6,257.2,109.6"
			/>
		<path class="st1" d="M266.1,113.3h-5.2c0,2,1,2.8,2.6,2.8c1.4,0,2.3-0.3,2.6-0.4c0.3-0.1,0.5,0,0.5,0.2v0.9c0,0.3-0.1,0.4-0.6,0.5
			c-0.2,0.1-1.6,0.3-2.6,0.3c-3,0-4.5-1.3-4.5-4.8c0-3.3,1.4-5,4-5c2.4,0,3.8,1.3,3.8,3.7v1.1C266.8,113,266.7,113.3,266.1,113.3
			 M262.9,109c-1.4,0-2,1.2-2,2.6c0,0.2,0,0.3,0.2,0.3h3.5c0.2,0,0.2-0.1,0.2-0.3C264.8,109.9,264.3,109,262.9,109"/>
		<path class="st1" d="M273.5,109.2c0,0.2-0.1,0.3-0.3,0.3c-0.5,0-1,0.1-1.4,0.4c-0.8,0.5-1.3,1.1-1.3,1.7v5.2c0,0.5,0,0.7-0.3,0.7
			h-1.1c-0.4,0-0.5-0.2-0.5-0.6v-8.2c0-0.3,0.1-0.5,0.4-0.5h1.1c0.2,0,0.4,0.1,0.4,0.5v0.9c0.7-1,1.7-1.5,2.8-1.5
			c0.1,0,0.3,0,0.3,0.2L273.5,109.2z"/>
		<path class="st1" d="M281.9,117.4h-1.1c-0.3,0-0.5-0.2-0.5-0.6v-5.5c0-0.9-0.4-1.7-1.6-1.7c-1.3,0-1.9,1.1-1.9,2v5.2
			c0,0.5,0,0.7-0.4,0.7h-1.1c-0.4,0-0.5-0.2-0.5-0.6v-8.2c0-0.3,0.1-0.5,0.4-0.5h1.1c0.3,0,0.4,0.3,0.4,1.1c0.6-0.8,1.4-1.3,2.8-1.3
			c1.5,0,2.8,0.8,2.8,3v5.8C282.2,117.2,282.2,117.4,281.9,117.4"/>
		<path class="st1" d="M291.5,117.4h-1.1c-0.3,0-0.4-0.1-0.4-0.5v-0.7c-0.3,0.7-1.5,1.4-2.8,1.4c-1.7,0-3.1-1.4-3.1-4.8
			c0-3.1,1.1-5,3.1-5c1.5,0,2.4,0.6,2.9,1.4v-0.8c0-0.3,0.1-0.4,0.3-0.4h1.1c0.5,0,0.5,0.2,0.5,0.5v8.2
			C291.9,117.2,291.9,117.4,291.5,117.4 M289.9,111.3c0-0.8-0.5-2.2-1.9-2.2c-1.2,0-1.8,0.8-1.8,2.9v1.5c0,1.7,0.6,2.8,1.9,2.8
			c1.2,0,1.9-1.3,1.9-1.8V111.3z"/>
		<path class="st1" d="M298,117.6c-2.7,0-4.3-1.1-4.3-4.8c0-3.6,1.7-5,4.4-5c1.5,0,2.5,0.4,3.2,1.3c0.2,0.3-1.2,1.3-1.4,1
			c-0.3-0.6-0.9-1-1.8-1c-1.3,0-2.2,0.9-2.2,2.8v1.7c0,1.9,1,2.7,2.2,2.7c0.8,0,1.4-0.5,1.8-1.1c0.2-0.4,1.6,0.3,1.4,0.6
			C300.7,116.9,299.6,117.6,298,117.6"/>
		<path class="st1" d="M304.2,106.3h-1.2c-0.3,0-0.4-0.1-0.4-0.6v-0.6c0-0.4,0.1-0.5,0.5-0.5h1.1c0.4,0,0.4,0.2,0.4,0.6v0.6
			C304.6,106.2,304.5,106.3,304.2,106.3 M304.2,117.4H303c-0.3,0-0.4-0.2-0.4-0.6v-8.2c0-0.3,0.1-0.5,0.4-0.5h1.1
			c0.4,0,0.4,0.1,0.4,0.5v8.2C304.6,117.2,304.6,117.4,304.2,117.4"/>
		<path class="st1" d="M310.6,117.6c-2.7,0-4.3-1.1-4.3-4.8c0-3.6,1.7-5,4.4-5c2.6,0,4.1,1.4,4.1,5
			C314.8,115.9,313.2,117.6,310.6,117.6 M312.8,111.8c0-1.5-0.6-2.7-2.1-2.7c-1.3,0-2.2,0.9-2.2,2.8v1.7c0,1.9,1,2.7,2.2,2.7
			c1.3,0,2.1-1.1,2.1-2.9V111.8z"/>
		<path class="st1" d="M323.7,117.4h-1.1c-0.3,0-0.4-0.2-0.4-0.6v-5.5c0-0.9-0.4-1.7-1.6-1.7c-1.3,0-1.9,1.1-1.9,2v5.2
			c0,0.5,0,0.7-0.3,0.7h-1.1c-0.4,0-0.5-0.2-0.5-0.6v-8.2c0-0.3,0.1-0.5,0.4-0.5h1.1c0.3,0,0.4,0.3,0.4,1.1c0.6-0.8,1.4-1.3,2.8-1.3
			c1.5,0,2.8,0.8,2.8,3v5.8C324.1,117.2,324,117.4,323.7,117.4"/>
		<path class="st1" d="M333.3,117.4h-1.1c-0.3,0-0.4-0.1-0.4-0.5v-0.7c-0.4,0.7-1.5,1.4-2.8,1.4c-1.7,0-3.1-1.4-3.1-4.8
			c0-3.1,1.1-5,3.1-5c1.5,0,2.4,0.6,2.9,1.4v-0.8c0-0.3,0.1-0.4,0.3-0.4h1.1c0.5,0,0.5,0.2,0.5,0.5v8.2
			C333.7,117.2,333.7,117.4,333.3,117.4 M331.7,111.3c0-0.8-0.5-2.2-1.9-2.2c-1.2,0-1.8,0.8-1.8,2.9v1.5c0,1.7,0.6,2.8,1.9,2.8
			c1.2,0,1.9-1.3,1.9-1.8V111.3z"/>
		<path class="st1" d="M337.4,117.4h-1.2c-0.4,0-0.4-0.1-0.4-0.6v-11.9c0-0.3,0.1-0.5,0.4-0.5h1.1c0.4,0,0.4,0.1,0.4,0.5v11.8
			C337.7,117.2,337.7,117.4,337.4,117.4"/>
		<path class="st1" d="M349.9,117.4h-1.1c-0.3,0-0.4,0-0.4-0.5v-0.5c-0.6,0.8-1.6,1.2-2.9,1.2c-1.7,0-3.1-1.4-3.1-4.8
			c0-3.1,1.1-5,3.1-5c1.3,0,2.2,0.4,2.9,1.4V105c0-0.4,0.1-0.6,0.3-0.6h1.1c0.5,0,0.5,0.2,0.5,0.5v11.8
			C350.3,117.2,350.3,117.4,349.9,117.4 M348.3,111.2c0-0.9-0.5-2.1-1.9-2.1c-1.2,0-1.8,1.2-1.8,2.9v1.5c0,1.7,0.6,2.8,1.9,2.8
			c1.2,0,1.9-1.1,1.9-1.6V111.2z"/>
		<path class="st1" d="M359.3,113.3h-5.2c0,2,1,2.8,2.6,2.8c1.4,0,2.3-0.3,2.6-0.4c0.3-0.1,0.5,0,0.5,0.2v0.9c0,0.3-0.1,0.4-0.6,0.5
			c-0.2,0.1-1.6,0.3-2.6,0.3c-3,0-4.5-1.3-4.5-4.8c0-3.3,1.4-5,4-5c2.4,0,3.8,1.3,3.8,3.7v1.1C360,113.1,359.9,113.3,359.3,113.3
			 M356.1,109c-1.4,0-1.9,1.2-2,2.6c0,0.2,0,0.4,0.2,0.4h3.5c0.2,0,0.2-0.1,0.2-0.3C358.1,110,357.6,109,356.1,109"/>
		<path class="st1" d="M243.3,134.2h-3.9c-0.3,0-0.4-0.1-0.4-0.5V122c0-0.4,0-0.6,0.3-0.6h3.4c3,0,4.7,0.9,4.7,3.2
			c0,1.6-0.8,2.6-2,3.1c1.2,0.4,2.2,1.2,2.2,3.1C247.6,132.9,246.4,134.2,243.3,134.2 M242.7,122.9h-1.4c-0.3,0-0.3,0.2-0.3,0.3v3.4
			c0,0.2,0.1,0.3,0.3,0.3h1.4c1.8,0,2.6-0.6,2.6-2C245.3,123.4,244.4,122.9,242.7,122.9 M242.8,128.5h-1.4c-0.3,0-0.3,0.1-0.3,0.3
			v3.5c0,0.1,0.1,0.3,0.3,0.3h1.4c1.8,0,2.8-0.5,2.8-2C245.5,129.2,244.5,128.5,242.8,128.5"/>
		<path class="st1" d="M256.4,130.1h-5.2c0,2,1,2.8,2.6,2.8c1.4,0,2.3-0.3,2.6-0.4c0.3-0.1,0.5,0,0.5,0.2v0.9c0,0.3-0.1,0.4-0.6,0.5
			c-0.2,0.1-1.5,0.3-2.6,0.3c-3,0-4.5-1.3-4.5-4.8c0-3.3,1.4-5,4-5c2.4,0,3.8,1.3,3.8,3.7v1.1C257.1,129.8,257,130.1,256.4,130.1
			 M253.2,125.8c-1.4,0-2,1.2-2,2.6c0,0.2,0,0.4,0.2,0.4h3.5c0.2,0,0.2-0.1,0.2-0.3C255.2,126.8,254.7,125.8,253.2,125.8"/>
		<path class="st1" d="M260.5,134.2h-1.2c-0.4,0-0.4-0.1-0.4-0.6v-11.9c0-0.3,0.1-0.5,0.4-0.5h1.1c0.4,0,0.4,0.1,0.4,0.5v11.8
			C260.8,134,260.8,134.2,260.5,134.2"/>
		<path class="st1" d="M266.9,134.4c-2.7,0-4.3-1.1-4.3-4.8c0-3.6,1.7-5,4.4-5c2.6,0,4.1,1.4,4.1,5
			C271,132.7,269.5,134.4,266.9,134.4 M269.1,128.6c0-1.5-0.6-2.7-2.1-2.7c-1.3,0-2.2,0.9-2.2,2.8v1.7c0,1.9,1,2.7,2.2,2.7
			c1.3,0,2.1-1.1,2.1-2.9V128.6z"/>
		<path class="st1" d="M285.7,134.2h-1.3c-0.3,0-0.4-0.1-0.4-0.5v-5c0-0.3-0.1-0.4-0.3-0.4h-4.5c-0.2,0-0.3,0-0.3,0.3v5
			c0,0.5-0.1,0.6-0.5,0.6h-1.2c-0.3,0-0.4-0.2-0.4-0.7v-11.7c0-0.3,0.1-0.5,0.4-0.5h1.3c0.4,0,0.5,0.1,0.5,0.6v4.4
			c0,0.3,0.1,0.3,0.4,0.3h4.4c0.2,0,0.3-0.1,0.3-0.3v-4.5c0-0.3,0.1-0.5,0.5-0.5h1.2c0.4,0,0.4,0.1,0.4,0.4v11.8
			C286.1,134.1,286.1,134.2,285.7,134.2"/>
		<path class="st1" d="M292.4,134.4c-2.7,0-4.3-1.1-4.3-4.8c0-3.6,1.7-5,4.4-5c2.6,0,4.1,1.4,4.1,5
			C296.6,132.7,295,134.4,292.4,134.4 M294.6,128.6c0-1.5-0.6-2.7-2.1-2.7c-1.3,0-2.2,0.9-2.2,2.8v1.7c0,1.9,1,2.7,2.2,2.7
			c1.3,0,2.1-1.1,2.1-2.9V128.6z"/>
		<path class="st1" d="M303.3,126c0,0.2-0.1,0.3-0.3,0.3c-0.5,0-1,0.1-1.4,0.4c-0.8,0.5-1.3,1.1-1.3,1.7v5.2c0,0.5,0,0.7-0.3,0.7
			h-1.1c-0.4,0-0.5-0.2-0.5-0.7v-8.2c0-0.3,0.1-0.5,0.4-0.5h1.1c0.2,0,0.4,0.1,0.4,0.5v0.9c0.7-1,1.7-1.5,2.8-1.5
			c0.1,0,0.3,0,0.3,0.2L303.3,126z"/>
		<path class="st1" d="M306.1,123.1H305c-0.3,0-0.4-0.1-0.4-0.6v-0.6c0-0.4,0.1-0.5,0.5-0.5h1.1c0.4,0,0.4,0.2,0.4,0.6v0.6
			C306.5,123,306.4,123.1,306.1,123.1 M306.1,134.2h-1.2c-0.3,0-0.4-0.2-0.4-0.6v-8.2c0-0.3,0.1-0.5,0.4-0.5h1.1
			c0.4,0,0.4,0.1,0.4,0.5v8.2C306.5,134,306.5,134.2,306.1,134.2"/>
		<path class="st1" d="M314.7,134.2h-6.1c-0.8,0-0.8-0.4-0.5-0.8l4.3-7.2h-3.9c-0.3,0-0.4,0-0.4-0.4v-0.6c0-0.3,0.1-0.3,0.4-0.3h6
			c0.6,0,0.8,0.1,0.5,0.6l-4.4,7.4h4.2c0.3,0,0.5,0,0.5,0.4v0.6C315.1,134.1,315,134.2,314.7,134.2"/>
		<path class="st1" d="M320.5,134.4c-2.7,0-4.3-1.1-4.3-4.8c0-3.6,1.7-5,4.4-5c2.6,0,4.1,1.4,4.1,5
			C324.7,132.7,323.1,134.4,320.5,134.4 M322.7,128.6c0-1.5-0.6-2.7-2.1-2.7c-1.3,0-2.2,0.9-2.2,2.8v1.7c0,1.9,1,2.7,2.2,2.7
			c1.3,0,2.1-1.1,2.1-2.9V128.6z"/>
		<path class="st1" d="M333.6,134.2h-1.1c-0.3,0-0.5-0.2-0.5-0.6V128c0-0.9-0.4-1.7-1.6-1.7c-1.3,0-1.9,1.1-1.9,2v5.2
			c0,0.5,0,0.7-0.3,0.7H327c-0.4,0-0.5-0.2-0.5-0.7v-8.2c0-0.3,0.1-0.5,0.4-0.5h1.1c0.3,0,0.4,0.3,0.4,1.1c0.6-0.8,1.4-1.3,2.8-1.3
			c1.5,0,2.8,0.8,2.8,3v5.8C333.9,134,333.9,134.2,333.6,134.2"/>
		<path class="st1" d="M340.3,126.4h-1.6v5.7c0,0.6,0.3,0.9,0.8,0.9c0.3,0,0.5,0,0.9-0.1c0.2,0,0.3,1.2,0.2,1.3
			c-0.3,0.1-1,0.2-1.6,0.2c-1.7,0-2.2-1.1-2.2-2.3v-5.7h-0.9c-0.2,0-0.3-0.1-0.3-0.4v-0.7c0-0.3,0.1-0.3,0.4-0.3h0.8v-1.7
			c0-0.3,0.2-0.4,0.5-0.4l0.9-0.2c0.4-0.1,0.5,0.1,0.5,0.4v1.9h1.7c0.3,0,0.4,0.2,0.4,0.4v0.7C340.7,126.3,340.7,126.4,340.3,126.4"
			/>
		<path class="st1" d="M349.1,130.1H344c0,2,1,2.8,2.6,2.8c1.4,0,2.3-0.3,2.6-0.4c0.3-0.1,0.5,0,0.5,0.2v0.9c0,0.3-0.1,0.4-0.6,0.5
			c-0.2,0.1-1.5,0.3-2.6,0.3c-3,0-4.5-1.3-4.5-4.8c0-3.3,1.4-5,4-5c2.4,0,3.8,1.3,3.8,3.7v1.1C349.9,129.8,349.8,130.1,349.1,130.1
			 M346,125.8c-1.4,0-2,1.2-2,2.6c0,0.2,0,0.4,0.2,0.4h3.5c0.2,0,0.2-0.1,0.2-0.3C347.9,126.8,347.4,125.8,346,125.8"/>
	</g>
	<rect x="217.2" y="2.5" class="st1" width="0.3" height="146.1"/>
	<rect x="238.8" y="73.9" class="st1" width="136" height="0.3"/>
	<polygon class="st0" points="17.2,42.8 17.2,50.1 10.7,50.1 10.7,42.8 6.2,42.8 6.2,60.9 10.7,60.9 10.7,53.8 17.2,53.8 17.2,60.9 
		21.7,60.9 21.7,42.8 	"/>
	<g>
		<path class="st0" d="M25.1,42.8h4.4v11.5c0,1.9,1.2,2.9,3.1,2.9s3.1-1,3.1-2.9V42.8h4.4v11.5c0,4.1-3,7-7.6,7
			c-4.6,0-7.6-2.9-7.6-7V42.8z"/>
		<path class="st0" d="M50.7,57.1c1.3,0,1.9-0.9,1.9-1.9c0-1-0.6-1.9-1.9-1.9H48v3.8H50.7z M50.3,49.8c1.1,0,1.6-0.8,1.6-1.7
			c0-0.8-0.5-1.5-1.7-1.5H48v3.2H50.3z M43.6,42.8h6.7c3.6,0,6.2,1.6,6.2,4.7c0,1.5-0.7,3.1-2.1,3.9v0.1c2.1,0.6,2.8,2.5,2.8,4.1
			c0,4-3.3,5.4-6.9,5.4h-6.7V42.8z"/>
	</g>
	<polygon class="st0" points="64.9,42.8 69.3,42.8 69.3,57.1 76.7,57.1 76.7,60.9 64.9,60.9 	"/>
	<g>
		<path class="st0" d="M86.6,57.2c2.7,0,4.9-2.3,4.9-5.4c0-3-2.2-5.2-4.9-5.2c-2.7,0-4.9,2.2-4.9,5.2C81.7,54.9,83.9,57.2,86.6,57.2
			 M86.6,42.5c5.5,0,9.5,4.1,9.5,9.3c0,5.3-4,9.5-9.5,9.5c-5.5,0-9.5-4.2-9.5-9.5C77.1,46.6,81.1,42.5,86.6,42.5"/>
		<path class="st0" d="M106.8,42.5c4.6,0,7,2.4,7,2.4l-2.1,3.3c0,0-1.9-1.7-4.4-1.7c-3.8,0-5.4,2.4-5.4,5.1c0,3.4,2.4,5.5,5.2,5.5
			c2.1,0,3.7-1.3,3.7-1.3v-1.4h-2.6v-3.8h6.5v10.2H111v-0.5c0-0.4,0-0.8,0-0.8h-0.1c0,0-1.7,1.6-4.8,1.6c-4.6,0-8.9-3.5-8.9-9.4
			C97.3,46.6,101.3,42.5,106.8,42.5"/>
	</g>
	<path class="st0" d="M119.8,37.8h4.3l-3,3.8h-3.4L119.8,37.8z M117.4,42.8h4.4v18.1h-4.4V42.8z"/>
	<g>
		<path class="st0" d="M126.4,55.3c0,0,2.1,1.9,4.3,1.9c0.9,0,1.9-0.4,1.9-1.4c0-2.2-8.2-2.1-8.2-7.7c0-3.3,2.8-5.6,6.4-5.6
			c3.9,0,5.8,2.1,5.8,2.1l-1.9,3.6c0,0-1.8-1.6-4-1.6c-0.9,0-1.9,0.4-1.9,1.4c0,2.3,8.2,1.9,8.2,7.6c0,3-2.3,5.6-6.4,5.6
			c-4.3,0-6.6-2.6-6.6-2.6L126.4,55.3z"/>
	</g>
	<polygon class="st0" points="143,46.6 137.5,46.6 137.5,42.8 152.9,42.8 152.9,46.6 147.4,46.6 147.4,60.9 143,60.9 	"/>
	<rect x="154.5" y="42.8" class="st0" width="4.4" height="18.1"/>
	<g>
		<path class="st0" d="M170.9,42.5c4.5,0,6.8,2.6,6.8,2.6l-2.1,3.3c0,0-2-1.9-4.5-1.9c-3.5,0-5.1,2.6-5.1,5.2c0,2.7,1.8,5.5,5.1,5.5
			c2.7,0,4.8-2.2,4.8-2.2l2.3,3.2c0,0-2.6,3-7.3,3c-5.7,0-9.5-4-9.5-9.4C161.4,46.6,165.4,42.5,170.9,42.5"/>
		<path class="st0" d="M188.4,57.2c2.7,0,4.9-2.3,4.9-5.4c0-3-2.2-5.2-4.9-5.2c-2.7,0-4.9,2.2-4.9,5.2
			C183.5,54.9,185.7,57.2,188.4,57.2 M188.4,42.5c5.5,0,9.5,4.1,9.5,9.3c0,5.3-4,9.5-9.5,9.5s-9.5-4.2-9.5-9.5
			C178.9,46.6,182.9,42.5,188.4,42.5"/>
		<path class="st0" d="M34.8,69.9h4.8l2.6,7.7c0.4,1.2,0.9,3,0.9,3h0.1c0,0,0.5-1.8,0.9-3l2.6-7.7h4.8L53.1,88h-4.4l-0.6-8.2
			c-0.1-1.4,0-3,0-3H48c0,0-0.6,1.9-1,3l-1.9,5.3h-3.8l-1.9-5.3c-0.4-1.1-1-3-1-3h-0.1c0,0,0.1,1.7,0,3L37.8,88h-4.5L34.8,69.9z"/>
		<path class="st0" d="M55.9,69.9h4.4v11.5c0,1.9,1.2,2.9,3.1,2.9c1.9,0,3.1-1,3.1-2.9V69.9H71v11.5c0,4.1-3,7-7.6,7
			c-4.6,0-7.6-2.9-7.6-7V69.9z"/>
	</g>
	<polygon class="st0" points="74.4,69.9 78.9,69.9 78.9,84.2 86.3,84.2 86.3,88 74.4,88 	"/>
	<polygon class="st0" points="90.3,73.7 84.8,73.7 84.8,69.9 100.2,69.9 100.2,73.7 94.7,73.7 94.7,88 90.3,88 	"/>
	<rect x="101.8" y="69.9" class="st0" width="4.4" height="18.1"/>
	<g>
		<path class="st0" d="M110.8,69.9h4.8l2.6,7.7c0.4,1.2,0.9,3,0.9,3h0.1c0,0,0.5-1.8,0.9-3l2.6-7.7h4.8l1.5,18.1h-4.4l-0.6-8.2
			c-0.1-1.4,0-3,0-3H124c0,0-0.6,1.9-1,3l-1.9,5.3h-3.8l-1.9-5.3c-0.4-1.1-1-3-1-3h-0.1c0,0,0.1,1.7,0,3l-0.6,8.2h-4.5L110.8,69.9z"
			/>
		<path class="st0" d="M140.4,84.3c2.7,0,4.9-2.3,4.9-5.4c0-3-2.2-5.2-4.9-5.2s-4.9,2.2-4.9,5.2C135.5,81.9,137.7,84.3,140.4,84.3
			 M140.4,69.6c5.5,0,9.5,4.1,9.5,9.3c0,5.3-4,9.5-9.5,9.5s-9.5-4.2-9.5-9.5C130.9,73.6,134.9,69.6,140.4,69.6"/>
		<path class="st0" d="M158.5,84.2c3.1,0,4.9-1.8,4.9-5.3c0-3.4-2-5.2-4.9-5.2h-1.8v10.5H158.5z M152.3,69.9h6.4
			c5.7,0,9.4,3.3,9.4,9c0,5.7-3.7,9.1-9.4,9.1h-6.4V69.9z"/>
		<path class="st0" d="M176.7,74c0,0-0.4,2-0.7,3.1l-1,3.5h3.6l-1-3.5C177.1,76,176.7,74,176.7,74L176.7,74z M179.5,84.2h-5.7
			l-1.1,3.8h-4.6l6.2-18.1h4.7l6.2,18.1h-4.6L179.5,84.2z"/>
	</g>
	<polygon class="st0" points="186.6,69.9 191,69.9 191,84.2 198.4,84.2 198.4,88 186.6,88 	"/>
	<rect x="45.3" y="105.8" class="st1" width="0.6" height="10.3"/>
	<g>
		<path class="st1" d="M49.1,105.8h0.6l5.9,8.1c0.3,0.5,0.8,1.3,0.8,1.3h0c0,0-0.1-0.8-0.1-1.3v-8.1H57v10.3h-0.6l-5.9-8.1
			c-0.3-0.5-0.8-1.3-0.8-1.3h0c0,0,0.1,0.8,0.1,1.3v8.1h-0.6V105.8z"/>
	</g>
	<polygon class="st1" points="62.5,106.4 58.7,106.4 58.7,105.8 67,105.8 67,106.4 63.1,106.4 63.1,116.1 62.5,116.1 	"/>
	<polygon class="st1" points="68.7,105.8 74.3,105.8 74.3,106.4 69.3,106.4 69.3,110.6 73.4,110.6 73.4,111.2 69.3,111.2 
		69.3,115.5 74.6,115.5 74.6,116.1 68.7,116.1 	"/>
	<g>
		<path class="st1" d="M81.4,105.6c2.3,0,3.6,1.2,3.6,1.2l-0.4,0.5c0,0-1.2-1-3.2-1c-2.6,0-4.5,2.1-4.5,4.7c0,2.7,1.8,4.7,4.4,4.7
			c2.2,0,3.5-1.7,3.5-1.7v-2H83v-0.6h2.5v4.7h-0.6v-0.9c0-0.2,0-0.4,0-0.4h0c0,0-1.2,1.5-3.5,1.5c-2.9,0-5-2.3-5-5.3
			C76.3,108,78.5,105.6,81.4,105.6"/>
		<path class="st1" d="M91.5,111c1.4,0,2.2-1,2.2-2.4c0-0.9-0.5-1.6-1.2-2c-0.3-0.1-0.6-0.2-1.4-0.2h-2.4v4.6H91.5z M88.1,105.8h3
			c1,0,1.4,0.1,1.9,0.3c0.9,0.4,1.4,1.3,1.4,2.5c0,1.5-0.9,2.6-2.1,2.8v0c0,0,0.1,0.1,0.2,0.4l2.3,4.3h-0.7l-2.4-4.6h-3v4.6h-0.6
			V105.8z"/>
		<path class="st1" d="M100.1,106.5c0,0-0.2,0.8-0.4,1.2l-1.6,4.2h3.9l-1.6-4.2C100.3,107.3,100.1,106.5,100.1,106.5L100.1,106.5z
			 M102.2,112.5h-4.4l-1.3,3.6h-0.7l3.8-10.3h0.7l3.8,10.3h-0.7L102.2,112.5z"/>
		<path class="st1" d="M109.2,115.5c2.7,0,4.6-1.6,4.6-4.6c0-2.9-1.8-4.6-4.6-4.6h-2.5v9.1H109.2z M106.1,105.8h3.2
			c3.1,0,5.1,1.9,5.1,5.1c0,3.3-2.1,5.1-5.1,5.1h-3.2V105.8z"/>
		<path class="st1" d="M121.5,115.7c2.5,0,4.5-2.1,4.5-4.8c0-2.6-2-4.6-4.5-4.6c-2.5,0-4.5,2-4.5,4.6
			C116.9,113.6,119,115.7,121.5,115.7 M121.5,105.6c2.9,0,5.2,2.3,5.2,5.2c0,3-2.3,5.4-5.2,5.4c-2.9,0-5.2-2.4-5.2-5.4
			C116.3,107.9,118.6,105.6,121.5,105.6"/>
	</g>
	<rect x="128.2" y="115.2" class="st1" width="0.9" height="0.9"/>
	<g>
		<path class="st0" d="M140.5,105.6c2.3,0,3.6,1.2,3.6,1.2l-0.4,0.5c0,0-1.2-1-3.2-1c-2.6,0-4.5,2.1-4.5,4.7c0,2.7,1.8,4.7,4.4,4.7
			c2.2,0,3.5-1.7,3.5-1.7v-2h-1.8v-0.6h2.5v4.7H144v-0.9c0-0.2,0-0.4,0-0.4h0c0,0-1.2,1.5-3.5,1.5c-2.9,0-5-2.3-5-5.3
			C135.4,108,137.6,105.6,140.5,105.6"/>
	</g>
	<polygon class="st0" points="147.2,105.8 147.8,105.8 147.8,115.5 152.8,115.5 152.8,116.1 147.2,116.1 	"/>
	<g>
		<path class="st0" d="M158.6,115.7c2.5,0,4.5-2.1,4.5-4.8c0-2.6-2-4.6-4.5-4.6s-4.5,2-4.5,4.6C154.1,113.6,156.1,115.7,158.6,115.7
			 M158.6,105.6c2.9,0,5.2,2.3,5.2,5.2c0,3-2.3,5.4-5.2,5.4c-2.9,0-5.2-2.4-5.2-5.4C153.4,107.9,155.7,105.6,158.6,105.6"/>
		<path class="st0" d="M169.8,115.5c1.4,0,2.3-0.9,2.3-2.2c0-1.4-1-2.3-2.3-2.3h-2.9v4.5H169.8z M169.7,110.4c1.1,0,2-0.8,2-2
			c0-1.2-0.8-2-2-2h-2.8v4H169.7z M166.3,105.8h3.5c1.5,0,2.6,1,2.6,2.6c0,1.1-0.5,1.9-1.3,2.2v0c1,0.3,1.7,1.3,1.7,2.6
			c0,1.7-1.2,2.8-2.9,2.8h-3.6V105.8z"/>
		<path class="st0" d="M178.2,106.5c0,0-0.2,0.8-0.4,1.2l-1.6,4.2h3.9l-1.6-4.2C178.5,107.3,178.2,106.5,178.2,106.5L178.2,106.5z
			 M180.4,112.5H176l-1.3,3.6H174l3.9-10.3h0.7l3.8,10.3h-0.7L180.4,112.5z"/>
	</g>
	<polygon class="st0" points="184.3,105.8 184.9,105.8 184.9,115.5 189.8,115.5 189.8,116.1 184.3,116.1 	"/>
	<rect x="191.5" y="115.2" class="st0" width="0.9" height="0.9"/>
	<g>
		<path class="st0" d="M188.4,30.8c-1.2,0-2.2,1-2.2,2.2c0,1.2,1,2.2,2.2,2.2c1.2,0,2.2-1,2.2-2.2C190.6,31.8,189.6,30.8,188.4,30.8
			 M188.4,36.2c-1.8,0-3.2-1.4-3.2-3.2c0-1.8,1.4-3.2,3.2-3.2c1.8,0,3.2,1.4,3.2,3.2C191.6,34.8,190.2,36.2,188.4,36.2"/>
	</g>
	<rect x="195.7" y="54.6" transform="matrix(0.7444 -0.6677 0.6677 0.7444 9.0502 146.69)" class="st0" width="1" height="13.8"/>
	<g>
		<path class="st0" d="M203.5,65.6c-1,0-2,0.3-2.7,1c-0.8,0.7-1.3,1.7-1.4,2.8c-0.1,1.1,0.3,2.1,1,3c0.7,0.8,1.7,1.3,2.8,1.4
			c1.1,0.1,2.1-0.3,3-1c0.8-0.7,1.3-1.7,1.4-2.8c0.1-1.1-0.3-2.1-1-3C205.7,66,204.6,65.6,203.5,65.6 M203.5,74.8
			c-0.1,0-0.2,0-0.3,0c-1.4-0.1-2.6-0.7-3.5-1.7c-0.9-1-1.4-2.3-1.3-3.7c0.1-1.4,0.7-2.6,1.7-3.5c2.1-1.9,5.3-1.7,7.2,0.4
			c0.9,1,1.4,2.3,1.3,3.7c-0.1,1.4-0.7,2.6-1.7,3.5C205.9,74.3,204.8,74.8,203.5,74.8"/>
	</g>
	<rect x="193.2" y="47.2" transform="matrix(0.8691 -0.4946 0.4946 0.8691 2.1492 103.4784)" class="st0" width="6.8" height="1"/>
	<rect x="180.3" y="61.3" transform="matrix(0.5372 -0.8435 0.8435 0.5372 32.8956 183.5762)" class="st0" width="6.8" height="1"/>
	<g>
		<path class="st0" d="M201.5,43.1c-0.2,0-0.5,0.1-0.7,0.2c-0.7,0.4-1,1.3-0.6,2c0.4,0.7,1.3,1,2,0.6c0.7-0.4,1-1.3,0.6-2
			C202.5,43.4,202,43.1,201.5,43.1 M201.5,47.1c-0.9,0-1.7-0.4-2.1-1.2c-0.7-1.2-0.3-2.7,0.9-3.4c1.2-0.7,2.7-0.3,3.4,0.9
			c0.7,1.2,0.3,2.7-0.9,3.4h0C202.4,47,201.9,47.1,201.5,47.1"/>
		<path class="st0" d="M180.8,64.7c-0.3,0-0.5,0.1-0.7,0.2c-0.3,0.2-0.6,0.5-0.7,0.9c-0.1,0.4-0.1,0.8,0.1,1.1c0.4,0.7,1.3,1,2,0.6
			c0.7-0.4,1-1.3,0.6-2c-0.2-0.3-0.5-0.6-0.9-0.7C181.1,64.7,181,64.7,180.8,64.7 M180.8,68.7c-0.9,0-1.7-0.4-2.1-1.2
			c-0.3-0.6-0.4-1.2-0.2-1.9c0.2-0.6,0.6-1.2,1.2-1.5c0.6-0.3,1.2-0.4,1.9-0.2c0.6,0.2,1.2,0.6,1.5,1.2c0.7,1.2,0.3,2.7-0.9,3.4h0
			C181.7,68.6,181.2,68.7,180.8,68.7"/>
	</g>
	<rect x="187.9" y="35.7" class="st0" width="1" height="8.3"/>
</g>
</svg>
