<?xml version="1.0" encoding="utf-8"?>
<!-- Generator: Adobe Illustrator 24.1.2, SVG Export Plug-In . SVG Version: 6.00 Build 0)  -->
<svg version="1.1" id="Camada_1" xmlns="http://www.w3.org/2000/svg" xmlns:xlink="http://www.w3.org/1999/xlink" x="0px" y="0px"
	 viewBox="0 0 395 146.1" style="enable-background:new 0 0 395 146.1;" xml:space="preserve">
<style type="text/css">
	.st0{fill:#5B2A86;}
	.st1{fill:#FFFFFF;}
</style>
<g>
	<g>
		<path class="st0" d="M202.2,40.6c-0.3,0-0.5,0.1-0.7,0.2c-0.7,0.4-1,1.3-0.6,2c0.2,0.3,0.5,0.6,0.9,0.7c0.4,0.1,0.8,0.1,1.1-0.1
			c0.7-0.4,1-1.3,0.6-2c-0.2-0.3-0.5-0.6-0.9-0.7C202.5,40.6,202.3,40.6,202.2,40.6 M202.2,44.5c-0.2,0-0.4,0-0.7-0.1
			c-0.6-0.2-1.2-0.6-1.5-1.2c-0.7-1.2-0.3-2.7,0.9-3.4c0.6-0.3,1.2-0.4,1.9-0.2c0.6,0.2,1.2,0.6,1.5,1.2c0.7,1.2,0.3,2.7-0.9,3.4
			C203,44.4,202.6,44.5,202.2,44.5"/>
		<path class="st0" d="M246,21.1c1.2,0,2-0.7,2-2c0-1.2-0.4-1.9-2.4-1.9h-1.3v3.9H246z M240.4,13.9h5.5c1.6,0,2.4,0.1,3.1,0.4
			c1.8,0.7,2.9,2.3,2.9,4.6c0,1.7-0.8,3.5-2.4,4.3v0c0,0,0.2,0.3,0.6,1l3.1,5.6H249l-2.8-5.4h-1.8v5.4h-3.9V13.9z"/>
		<path class="st0" d="M262.3,26.5c2.4,0,4.3-2.1,4.3-4.8c0-2.6-1.9-4.6-4.3-4.6c-2.4,0-4.3,2-4.3,4.6
			C258,24.4,259.9,26.5,262.3,26.5 M262.3,13.6c4.8,0,8.3,3.6,8.3,8.1c0,4.7-3.5,8.3-8.3,8.3c-4.8,0-8.3-3.7-8.3-8.3
			C253.9,17.2,257.4,13.6,262.3,13.6"/>
	</g>
	<polygon class="st0" points="275.7,17.2 270.9,17.2 270.9,13.9 284.5,13.9 284.5,17.2 279.6,17.2 279.6,29.8 275.7,29.8 	"/>
	<g>
		<path class="st0" d="M290.5,17.5c0,0-0.4,1.7-0.6,2.7l-0.9,3.1h3.1l-0.9-3.1C290.9,19.2,290.6,17.5,290.5,17.5L290.5,17.5z
			 M293,26.4h-5l-1,3.3h-4l5.4-15.9h4.1l5.4,15.9h-4L293,26.4z"/>
		<path class="st0" d="M300.1,24.8c0,0,1.8,1.6,3.8,1.6c0.8,0,1.7-0.3,1.7-1.3c0-1.9-7.2-1.8-7.2-6.7c0-2.9,2.5-4.9,5.6-4.9
			c3.4,0,5.1,1.8,5.1,1.8l-1.6,3.2c0,0-1.6-1.4-3.5-1.4c-0.8,0-1.7,0.4-1.7,1.2c0,2,7.2,1.6,7.2,6.7c0,2.7-2,4.9-5.6,4.9
			c-3.7,0-5.8-2.3-5.8-2.3L300.1,24.8z"/>
		<path class="st0" d="M246,45c1.2,0,2-0.7,2-2c0-1.2-0.4-1.9-2.4-1.9h-1.3V45H246z M240.4,37.8h5.5c1.6,0,2.4,0.1,3.1,0.4
			c1.8,0.7,2.9,2.3,2.9,4.6c0,1.7-0.8,3.5-2.4,4.3v0c0,0,0.2,0.3,0.6,1l3.1,5.6H249l-2.8-5.4h-1.8v5.4h-3.9V37.8z"/>
		<path class="st0" d="M262.3,50.4c2.4,0,4.3-2.1,4.3-4.8c0-2.6-1.9-4.6-4.3-4.6c-2.4,0-4.3,2-4.3,4.6
			C258,48.4,259.9,50.4,262.3,50.4 M262.3,37.5c4.8,0,8.3,3.6,8.3,8.1c0,4.7-3.5,8.3-8.3,8.3c-4.8,0-8.3-3.7-8.3-8.3
			C253.9,41.1,257.4,37.5,262.3,37.5"/>
		<path class="st0" d="M278.2,50.4c2.7,0,4.3-1.6,4.3-4.7c0-3-1.7-4.6-4.3-4.6h-1.6v9.2H278.2z M272.7,37.8h5.7c5,0,8.2,2.9,8.2,7.9
			c0,5-3.2,8-8.2,8h-5.7V37.8z"/>
		<path class="st0" d="M296,50.4c2.4,0,4.3-2.1,4.3-4.8c0-2.6-1.9-4.6-4.3-4.6c-2.4,0-4.3,2-4.3,4.6C291.7,48.4,293.6,50.4,296,50.4
			 M296,37.5c4.8,0,8.3,3.6,8.3,8.1c0,4.7-3.5,8.3-8.3,8.3c-4.8,0-8.3-3.7-8.3-8.3C287.7,41.1,291.2,37.5,296,37.5"/>
		<path class="st0" d="M304.3,37.8h4.2l2.8,9.1c0.3,1,0.6,2.6,0.6,2.6h0c0,0,0.3-1.6,0.6-2.6l2.9-9.1h4.2L314,53.7H310L304.3,37.8z"
			/>
	</g>
	<rect x="320.8" y="37.8" class="st0" width="3.9" height="15.9"/>
	<g>
		<path class="st0" d="M333.4,41.4c0,0-0.4,1.7-0.6,2.7l-0.9,3.1h3.1l-0.9-3.1C333.8,43.2,333.4,41.4,333.4,41.4L333.4,41.4z
			 M333.6,33.4h3.8l-2.6,3.3h-3L333.6,33.4z M335.9,50.4h-5l-1,3.3h-4l5.4-15.9h4.1l5.4,15.9h-4L335.9,50.4z"/>
		<path class="st0" d="M347.7,45c1.2,0,2-0.7,2-2c0-1.2-0.4-1.9-2.4-1.9H346V45H347.7z M342.1,37.8h5.5c1.6,0,2.4,0.1,3.1,0.4
			c1.8,0.7,2.9,2.3,2.9,4.6c0,1.7-0.8,3.5-2.4,4.3v0c0,0,0.2,0.3,0.6,1l3.1,5.6h-4.3l-2.8-5.4H346v5.4h-3.9V37.8z"/>
	</g>
	<rect x="356.8" y="37.8" class="st0" width="3.9" height="15.9"/>
	<g>
		<path class="st0" d="M369.3,41.4c0,0-0.4,1.7-0.6,2.7l-0.9,3.1h3.1l-0.9-3.1C369.7,43.2,369.4,41.4,369.3,41.4L369.3,41.4z
			 M371.8,50.4h-5l-1,3.3h-4l5.4-15.9h4.1l5.4,15.9h-4L371.8,50.4z"/>
		<path class="st0" d="M378.9,48.8c0,0,1.8,1.6,3.8,1.6c0.8,0,1.7-0.3,1.7-1.3c0-1.9-7.2-1.8-7.2-6.7c0-2.9,2.5-4.9,5.6-4.9
			c3.4,0,5.1,1.8,5.1,1.8l-1.6,3.2c0,0-1.6-1.4-3.5-1.4c-0.8,0-1.7,0.4-1.7,1.2c0,2,7.2,1.6,7.2,6.7c0,2.7-2,4.9-5.6,4.9
			c-3.7,0-5.8-2.3-5.8-2.3L378.9,48.8z"/>
		<path class="st1" d="M248.7,98.2h-1.4c-0.3,0-0.3-0.1-0.4-0.5l-0.8-2.4h-4.3l-0.7,2.4c-0.1,0.4-0.2,0.5-0.4,0.5h-1.3
			c-0.2,0-0.3-0.1-0.1-0.6l3.5-11.6c0.1-0.4,0.2-0.6,0.6-0.6h1.4c0.4,0,0.5,0.2,0.6,0.6l3.5,11.6C249.3,98.2,249.1,98.2,248.7,98.2
			 M244,87.9l-1.7,5.8h3.4L244,87.9z"/>
		<path class="st1" d="M257.5,94.1h-5.2c0,2,1,2.8,2.6,2.8c1.4,0,2.3-0.3,2.6-0.4c0.3-0.1,0.5,0,0.5,0.2v0.9c0,0.3-0.1,0.4-0.6,0.5
			c-0.2,0.1-1.5,0.3-2.6,0.3c-3,0-4.5-1.3-4.5-4.8c0-3.3,1.4-5,4-5c2.4,0,3.8,1.3,3.8,3.7v1.1C258.3,93.8,258.2,94.1,257.5,94.1
			 M254.4,89.8c-1.4,0-2,1.2-2,2.6c0,0.2,0,0.3,0.2,0.3h3.5c0.2,0,0.2-0.1,0.2-0.3C256.3,90.8,255.8,89.8,254.4,89.8"/>
		<path class="st1" d="M265,90c0,0.2-0.1,0.3-0.3,0.3c-0.5,0-1,0.1-1.4,0.4c-0.8,0.5-1.3,1.1-1.3,1.7v5.2c0,0.5,0,0.7-0.3,0.7h-1.1
			c-0.4,0-0.5-0.2-0.5-0.6v-8.2c0-0.3,0.1-0.5,0.4-0.5h1.1c0.2,0,0.4,0.1,0.4,0.5v0.9c0.7-1,1.7-1.5,2.8-1.5c0.1,0,0.3,0,0.3,0.2
			L265,90z"/>
		<path class="st1" d="M270.3,98.4c-2.7,0-4.3-1.1-4.3-4.8c0-3.6,1.7-5,4.4-5c2.6,0,4.1,1.4,4.1,5C274.4,96.7,272.9,98.4,270.3,98.4
			 M272.4,92.6c0-1.5-0.6-2.7-2.1-2.7c-1.3,0-2.2,0.9-2.2,2.8v1.7c0,1.9,1,2.7,2.2,2.7c1.3,0,2.1-1.1,2.1-2.9V92.6z"/>
		<path class="st1" d="M281,98.4c-1.3,0-2.2-0.4-2.8-1.2v4c0,0.4-0.1,0.6-0.3,0.6h-1.2c-0.4,0-0.5-0.1-0.5-0.6V89.4
			c0-0.4,0-0.6,0.5-0.6h1.1c0.3,0,0.4,0.1,0.4,0.5V90c0.7-0.9,1.7-1.4,2.9-1.4c1.9,0,3,1.9,3,4.9C284.1,97.1,282.8,98.4,281,98.4
			 M282,92.8c0-1.7-0.7-2.9-1.8-2.9c-1.4,0-1.9,1.3-1.9,2.2v3.4c0,0.5,0.7,1.6,1.9,1.6c1.3,0,1.9-1,1.9-2.7V92.8z"/>
		<path class="st1" d="M289.9,98.4c-2.7,0-4.3-1.1-4.3-4.8c0-3.6,1.7-5,4.4-5c2.6,0,4.1,1.4,4.1,5C294,96.7,292.5,98.4,289.9,98.4
			 M292.1,92.6c0-1.5-0.6-2.7-2.1-2.7c-1.3,0-2.2,0.9-2.2,2.8v1.7c0,1.9,1,2.7,2.2,2.7c1.3,0,2.1-1.1,2.1-2.9V92.6z"/>
		<path class="st1" d="M300.8,90c0,0.2-0.1,0.3-0.3,0.3c-0.5,0-1,0.1-1.4,0.4c-0.8,0.5-1.3,1.1-1.3,1.7v5.2c0,0.5,0,0.7-0.4,0.7
			h-1.1c-0.4,0-0.5-0.2-0.5-0.6v-8.2c0-0.3,0.1-0.5,0.4-0.5h1.1c0.2,0,0.4,0.1,0.4,0.5v0.9c0.7-1,1.7-1.5,2.8-1.5
			c0.1,0,0.3,0,0.3,0.2L300.8,90z"/>
		<path class="st1" d="M306.3,90.4h-1.6v5.7c0,0.6,0.3,0.9,0.7,0.9c0.3,0,0.5,0,0.9-0.1c0.2,0,0.3,1.2,0.2,1.3
			c-0.3,0.1-1,0.2-1.6,0.2c-1.7,0-2.2-1.1-2.2-2.3v-5.7h-0.9c-0.2,0-0.3-0.1-0.3-0.4v-0.7c0-0.3,0.1-0.3,0.4-0.3h0.8v-1.7
			c0-0.3,0.2-0.4,0.5-0.4l0.9-0.2c0.4-0.1,0.5,0.1,0.5,0.4V89h1.7c0.3,0,0.4,0.2,0.4,0.4v0.7C306.7,90.3,306.7,90.4,306.3,90.4"/>
		<path class="st1" d="M312.2,98.4c-2.7,0-4.3-1.1-4.3-4.8c0-3.6,1.7-5,4.4-5c2.6,0,4.1,1.4,4.1,5C316.4,96.7,314.8,98.4,312.2,98.4
			 M314.4,92.6c0-1.5-0.6-2.7-2.1-2.7c-1.3,0-2.2,0.9-2.2,2.8v1.7c0,1.9,1,2.7,2.2,2.7c1.3,0,2.1-1.1,2.1-2.9V92.6z"/>
		<path class="st1" d="M241,114.9h-1.3c-0.3,0-0.4-0.1-0.4-0.5v-11.9c0-0.3,0.1-0.4,0.5-0.4h1.3c0.3,0,0.4,0.1,0.4,0.5v11.9
			C241.3,114.8,241.3,114.9,241,114.9"/>
		<path class="st1" d="M250.7,114.9h-1.1c-0.3,0-0.5-0.2-0.5-0.6v-5.5c0-0.9-0.4-1.7-1.6-1.7c-1.3,0-1.9,1.1-1.9,2v5.2
			c0,0.5,0,0.7-0.3,0.7h-1.1c-0.4,0-0.5-0.2-0.5-0.6v-8.2c0-0.3,0.1-0.5,0.4-0.5h1.1c0.3,0,0.4,0.3,0.4,1.1c0.6-0.8,1.4-1.3,2.8-1.3
			c1.5,0,2.8,0.8,2.8,3v5.8C251.1,114.7,251,114.9,250.7,114.9"/>
		<path class="st1" d="M257.5,107.1h-1.6v5.7c0,0.6,0.3,0.9,0.8,0.9c0.3,0,0.5,0,0.9-0.1c0.2,0,0.3,1.2,0.2,1.3
			c-0.3,0.1-1,0.2-1.6,0.2c-1.7,0-2.2-1.1-2.2-2.3v-5.7H253c-0.2,0-0.3-0.1-0.3-0.4v-0.7c0-0.3,0.1-0.3,0.4-0.3h0.8V104
			c0-0.3,0.2-0.4,0.5-0.4l0.9-0.2c0.4-0.1,0.5,0.1,0.5,0.4v1.9h1.7c0.3,0,0.4,0.2,0.4,0.4v0.7C257.9,107,257.8,107.1,257.5,107.1"/>
		<path class="st1" d="M266.3,110.8h-5.2c0,2,1,2.8,2.6,2.8c1.4,0,2.3-0.3,2.6-0.4c0.3-0.1,0.5,0,0.5,0.2v0.9c0,0.3-0.1,0.4-0.6,0.5
			c-0.2,0.1-1.6,0.3-2.6,0.3c-3,0-4.5-1.3-4.5-4.8c0-3.3,1.4-5,4-5c2.4,0,3.8,1.3,3.8,3.7v1.1C267,110.6,266.9,110.8,266.3,110.8
			 M263.1,106.6c-1.4,0-2,1.2-2,2.6c0,0.2,0,0.3,0.2,0.3h3.5c0.2,0,0.2-0.1,0.2-0.3C265.1,107.5,264.6,106.6,263.1,106.6"/>
		<path class="st1" d="M273.7,106.7c0,0.2-0.1,0.3-0.3,0.3c-0.5,0-1,0.1-1.4,0.4c-0.8,0.5-1.3,1.1-1.3,1.7v5.2c0,0.5,0,0.7-0.3,0.7
			h-1.1c-0.4,0-0.5-0.2-0.5-0.6v-8.2c0-0.3,0.1-0.5,0.4-0.5h1.1c0.2,0,0.4,0.1,0.4,0.5v0.9c0.7-1,1.7-1.5,2.8-1.5
			c0.1,0,0.3,0,0.3,0.2L273.7,106.7z"/>
		<path class="st1" d="M282.1,114.9h-1.1c-0.3,0-0.5-0.2-0.5-0.6v-5.5c0-0.9-0.4-1.7-1.6-1.7c-1.3,0-1.9,1.1-1.9,2v5.2
			c0,0.5,0,0.7-0.4,0.7h-1.1c-0.4,0-0.5-0.2-0.5-0.6v-8.2c0-0.3,0.1-0.5,0.4-0.5h1.1c0.3,0,0.4,0.3,0.4,1.1c0.6-0.8,1.4-1.3,2.8-1.3
			c1.5,0,2.8,0.8,2.8,3v5.8C282.5,114.7,282.4,114.9,282.1,114.9"/>
		<path class="st1" d="M291.7,114.9h-1.1c-0.3,0-0.4-0.1-0.4-0.5v-0.7c-0.3,0.7-1.5,1.4-2.8,1.4c-1.7,0-3.1-1.4-3.1-4.8
			c0-3.1,1.1-5,3.1-5c1.5,0,2.4,0.6,2.9,1.4V106c0-0.3,0.1-0.4,0.3-0.4h1.1c0.5,0,0.5,0.2,0.5,0.5v8.2
			C292.1,114.7,292.1,114.9,291.7,114.9 M290.1,108.8c0-0.8-0.5-2.2-1.9-2.2c-1.2,0-1.8,0.8-1.8,2.9v1.5c0,1.7,0.6,2.8,1.9,2.8
			c1.2,0,1.9-1.3,1.9-1.8V108.8z"/>
		<path class="st1" d="M298.2,115.1c-2.7,0-4.3-1.1-4.3-4.8c0-3.6,1.7-5,4.4-5c1.5,0,2.5,0.4,3.2,1.3c0.2,0.3-1.2,1.3-1.4,1
			c-0.3-0.6-0.9-1-1.8-1c-1.3,0-2.2,0.9-2.2,2.8v1.7c0,1.9,1,2.7,2.2,2.7c0.8,0,1.4-0.5,1.8-1.1c0.2-0.4,1.6,0.3,1.4,0.6
			C300.9,114.4,299.8,115.1,298.2,115.1"/>
		<path class="st1" d="M304.5,103.9h-1.2c-0.3,0-0.4-0.1-0.4-0.6v-0.6c0-0.4,0.1-0.5,0.5-0.5h1.1c0.4,0,0.4,0.2,0.4,0.6v0.6
			C304.8,103.8,304.7,103.9,304.5,103.9 M304.5,114.9h-1.2c-0.3,0-0.4-0.2-0.4-0.6v-8.2c0-0.3,0.1-0.5,0.4-0.5h1.1
			c0.4,0,0.4,0.1,0.4,0.5v8.2C304.8,114.8,304.8,114.9,304.5,114.9"/>
		<path class="st1" d="M310.9,115.1c-2.7,0-4.3-1.1-4.3-4.8c0-3.6,1.7-5,4.4-5c2.6,0,4.1,1.4,4.1,5
			C315,113.4,313.4,115.1,310.9,115.1 M313,109.3c0-1.5-0.6-2.7-2.1-2.7c-1.3,0-2.2,0.9-2.2,2.8v1.7c0,1.9,1,2.7,2.2,2.7
			c1.3,0,2.1-1.1,2.1-2.9V109.3z"/>
		<path class="st1" d="M323.9,114.9h-1.1c-0.3,0-0.4-0.2-0.4-0.6v-5.5c0-0.9-0.4-1.7-1.6-1.7c-1.3,0-1.9,1.1-1.9,2v5.2
			c0,0.5,0,0.7-0.3,0.7h-1.1c-0.4,0-0.5-0.2-0.5-0.6v-8.2c0-0.3,0.1-0.5,0.4-0.5h1.1c0.3,0,0.4,0.3,0.4,1.1c0.6-0.8,1.4-1.3,2.8-1.3
			c1.5,0,2.8,0.8,2.8,3v5.8C324.3,114.7,324.2,114.9,323.9,114.9"/>
		<path class="st1" d="M333.5,114.9h-1.1c-0.3,0-0.4-0.1-0.4-0.5v-0.7c-0.4,0.7-1.5,1.4-2.8,1.4c-1.7,0-3.1-1.4-3.1-4.8
			c0-3.1,1.1-5,3.1-5c1.5,0,2.4,0.6,2.9,1.4V106c0-0.3,0.1-0.4,0.3-0.4h1.1c0.5,0,0.5,0.2,0.5,0.5v8.2
			C333.9,114.7,333.9,114.9,333.5,114.9 M331.9,108.8c0-0.8-0.5-2.2-1.9-2.2c-1.2,0-1.8,0.8-1.8,2.9v1.5c0,1.7,0.6,2.8,1.9,2.8
			c1.2,0,1.9-1.3,1.9-1.8V108.8z"/>
		<path class="st1" d="M337.6,114.9h-1.2c-0.4,0-0.4-0.1-0.4-0.6v-11.9c0-0.3,0.1-0.5,0.4-0.5h1.1c0.4,0,0.4,0.1,0.4,0.5v11.8
			C337.9,114.8,337.9,114.9,337.6,114.9"/>
		<path class="st1" d="M350.1,115H349c-0.3,0-0.4,0-0.4-0.5V114c-0.6,0.8-1.6,1.2-2.9,1.2c-1.7,0-3.1-1.4-3.1-4.8c0-3.1,1.1-5,3.1-5
			c1.3,0,2.2,0.4,2.9,1.4v-4.1c0-0.4,0.1-0.6,0.3-0.6h1.1c0.5,0,0.5,0.2,0.5,0.5v11.8C350.6,114.7,350.5,115,350.1,115 M348.5,108.8
			c0-0.9-0.5-2.1-1.9-2.1c-1.2,0-1.8,1.2-1.8,2.9v1.5c0,1.7,0.6,2.8,1.9,2.8c1.2,0,1.9-1.1,1.9-1.6V108.8z"/>
		<path class="st1" d="M359.5,110.8h-5.2c0,2,1,2.8,2.6,2.8c1.4,0,2.3-0.3,2.6-0.4c0.3-0.1,0.5,0,0.5,0.2v0.9c0,0.3-0.1,0.4-0.6,0.5
			c-0.2,0.1-1.6,0.3-2.6,0.3c-3,0-4.5-1.3-4.5-4.8c0-3.3,1.4-5,4-5c2.4,0,3.8,1.3,3.8,3.7v1.1C360.2,110.6,360.2,110.8,359.5,110.8
			 M356.4,106.6c-1.4,0-1.9,1.2-2,2.6c0,0.2,0,0.4,0.2,0.4h3.5c0.2,0,0.2-0.1,0.2-0.3C358.3,107.5,357.8,106.6,356.4,106.6"/>
		<path class="st1" d="M243.5,131.7h-3.9c-0.3,0-0.4-0.1-0.4-0.5v-11.7c0-0.4,0-0.6,0.3-0.6h3.4c3,0,4.7,0.9,4.7,3.2
			c0,1.6-0.8,2.6-2,3.1c1.2,0.4,2.2,1.2,2.2,3.1C247.8,130.5,246.6,131.7,243.5,131.7 M242.9,120.4h-1.4c-0.3,0-0.3,0.2-0.3,0.3v3.4
			c0,0.2,0.1,0.3,0.3,0.3h1.4c1.8,0,2.6-0.6,2.6-2C245.6,120.9,244.6,120.4,242.9,120.4 M243,126.1h-1.4c-0.3,0-0.3,0.1-0.3,0.3v3.5
			c0,0.1,0.1,0.3,0.3,0.3h1.4c1.8,0,2.8-0.5,2.8-2C245.8,126.8,244.7,126.1,243,126.1"/>
		<path class="st1" d="M256.6,127.6h-5.2c0,2,1,2.8,2.6,2.8c1.4,0,2.3-0.3,2.6-0.4c0.3-0.1,0.5,0,0.5,0.2v0.9c0,0.3-0.1,0.4-0.6,0.5
			c-0.2,0.1-1.5,0.3-2.6,0.3c-3,0-4.5-1.3-4.5-4.8c0-3.3,1.4-5,4-5c2.4,0,3.8,1.3,3.8,3.7v1.1C257.3,127.4,257.3,127.6,256.6,127.6
			 M253.5,123.4c-1.4,0-2,1.2-2,2.6c0,0.2,0,0.4,0.2,0.4h3.5c0.2,0,0.2-0.1,0.2-0.3C255.4,124.3,254.9,123.4,253.5,123.4"/>
		<path class="st1" d="M260.7,131.7h-1.2c-0.4,0-0.4-0.1-0.4-0.6v-11.9c0-0.3,0.1-0.5,0.4-0.5h1.1c0.4,0,0.4,0.1,0.4,0.5v11.8
			C261.1,131.6,261,131.7,260.7,131.7"/>
		<path class="st1" d="M267.1,131.9c-2.7,0-4.3-1.1-4.3-4.8c0-3.6,1.7-5,4.4-5c2.6,0,4.1,1.4,4.1,5
			C271.3,130.2,269.7,131.9,267.1,131.9 M269.3,126.1c0-1.5-0.6-2.7-2.1-2.7c-1.3,0-2.2,0.9-2.2,2.8v1.7c0,1.9,1,2.7,2.2,2.7
			c1.3,0,2.1-1.1,2.1-2.9V126.1z"/>
		<path class="st1" d="M286,131.7h-1.3c-0.3,0-0.4-0.1-0.4-0.5v-5c0-0.3-0.1-0.4-0.3-0.4h-4.5c-0.2,0-0.3,0-0.3,0.3v5
			c0,0.5-0.1,0.6-0.5,0.6h-1.2c-0.3,0-0.4-0.2-0.4-0.7v-11.7c0-0.3,0.1-0.5,0.4-0.5h1.3c0.4,0,0.5,0.1,0.5,0.6v4.4
			c0,0.3,0.1,0.3,0.4,0.3h4.4c0.2,0,0.3-0.1,0.3-0.3v-4.5c0-0.3,0.1-0.5,0.5-0.5h1.2c0.4,0,0.4,0.1,0.4,0.4v11.8
			C286.3,131.6,286.3,131.7,286,131.7"/>
		<path class="st1" d="M292.6,131.9c-2.7,0-4.3-1.1-4.3-4.8c0-3.6,1.7-5,4.4-5c2.6,0,4.1,1.4,4.1,5
			C296.8,130.2,295.2,131.9,292.6,131.9 M294.8,126.1c0-1.5-0.6-2.7-2.1-2.7c-1.3,0-2.2,0.9-2.2,2.8v1.7c0,1.9,1,2.7,2.2,2.7
			c1.3,0,2.1-1.1,2.1-2.9V126.1z"/>
		<path class="st1" d="M303.5,123.5c0,0.2-0.1,0.3-0.3,0.3c-0.5,0-1,0.1-1.4,0.4c-0.8,0.5-1.3,1.1-1.3,1.7v5.2c0,0.5,0,0.7-0.3,0.7
			h-1.1c-0.4,0-0.5-0.2-0.5-0.7v-8.2c0-0.3,0.1-0.5,0.4-0.5h1.1c0.2,0,0.4,0.1,0.4,0.5v0.9c0.7-1,1.7-1.5,2.8-1.5
			c0.1,0,0.3,0,0.3,0.2L303.5,123.5z"/>
		<path class="st1" d="M306.3,120.7h-1.2c-0.3,0-0.4-0.1-0.4-0.6v-0.6c0-0.4,0.1-0.5,0.5-0.5h1.1c0.4,0,0.4,0.2,0.4,0.6v0.6
			C306.7,120.6,306.6,120.7,306.3,120.7 M306.3,131.7h-1.2c-0.3,0-0.4-0.2-0.4-0.6v-8.2c0-0.3,0.1-0.5,0.4-0.5h1.1
			c0.4,0,0.4,0.1,0.4,0.5v8.2C306.7,131.6,306.7,131.7,306.3,131.7"/>
		<path class="st1" d="M314.9,131.7h-6.1c-0.8,0-0.8-0.4-0.5-0.8l4.3-7.2h-3.9c-0.3,0-0.4,0-0.4-0.4v-0.6c0-0.3,0.1-0.3,0.4-0.3h6
			c0.6,0,0.8,0.1,0.5,0.6l-4.4,7.4h4.2c0.3,0,0.5,0,0.5,0.4v0.6C315.3,131.7,315.2,131.7,314.9,131.7"/>
		<path class="st1" d="M320.7,131.9c-2.7,0-4.3-1.1-4.3-4.8c0-3.6,1.7-5,4.4-5c2.6,0,4.1,1.4,4.1,5
			C324.9,130.2,323.3,131.9,320.7,131.9 M322.9,126.1c0-1.5-0.6-2.7-2.1-2.7c-1.3,0-2.2,0.9-2.2,2.8v1.7c0,1.9,1,2.7,2.2,2.7
			c1.3,0,2.1-1.1,2.1-2.9V126.1z"/>
		<path class="st1" d="M333.8,131.7h-1.1c-0.3,0-0.5-0.2-0.5-0.6v-5.5c0-0.9-0.4-1.7-1.6-1.7c-1.3,0-1.9,1.1-1.9,2v5.2
			c0,0.5,0,0.7-0.3,0.7h-1.1c-0.4,0-0.5-0.2-0.5-0.7v-8.2c0-0.3,0.1-0.5,0.4-0.5h1.1c0.3,0,0.4,0.3,0.4,1.1c0.6-0.8,1.4-1.3,2.8-1.3
			c1.5,0,2.8,0.8,2.8,3v5.8C334.2,131.5,334.1,131.7,333.8,131.7"/>
		<path class="st1" d="M340.5,123.9h-1.6v5.7c0,0.6,0.3,0.9,0.8,0.9c0.3,0,0.5,0,0.9-0.1c0.2,0,0.3,1.2,0.2,1.3
			c-0.3,0.1-1,0.2-1.6,0.2c-1.7,0-2.2-1.1-2.2-2.3v-5.7H336c-0.2,0-0.3-0.1-0.3-0.4v-0.7c0-0.3,0.1-0.3,0.4-0.3h0.8v-1.7
			c0-0.3,0.2-0.4,0.5-0.4l0.9-0.2c0.4-0.1,0.5,0.1,0.5,0.4v1.9h1.7c0.3,0,0.4,0.2,0.4,0.4v0.7C340.9,123.8,340.9,123.9,340.5,123.9"
			/>
		<path class="st1" d="M349.3,127.6h-5.2c0,2,1,2.8,2.6,2.8c1.4,0,2.3-0.3,2.6-0.4c0.3-0.1,0.5,0,0.5,0.2v0.9c0,0.3-0.1,0.4-0.6,0.5
			c-0.2,0.1-1.5,0.3-2.6,0.3c-3,0-4.5-1.3-4.5-4.8c0-3.3,1.4-5,4-5c2.4,0,3.8,1.3,3.8,3.7v1.1C350.1,127.4,350,127.6,349.3,127.6
			 M346.2,123.4c-1.4,0-2,1.2-2,2.6c0,0.2,0,0.4,0.2,0.4h3.5c0.2,0,0.2-0.1,0.2-0.3C348.1,124.3,347.6,123.4,346.2,123.4"/>
	</g>
	<rect x="217.4" class="st1" width="0.3" height="146.1"/>
	<rect x="239" y="71.5" class="st1" width="136" height="0.3"/>
	<polygon class="st0" points="6.7,40.3 11.1,40.3 11.1,47.6 17.7,47.6 17.7,40.3 22.2,40.3 22.2,58.5 17.7,58.5 17.7,51.4 
		11.1,51.4 11.1,58.5 6.7,58.5 	"/>
	<g>
		<path class="st0" d="M25.5,40.3H30v11.5c0,1.9,1.2,2.9,3.1,2.9c1.9,0,3.1-1,3.1-2.9V40.3h4.4v11.5c0,4.1-3,7-7.6,7
			c-4.6,0-7.6-2.9-7.6-7V40.3z"/>
		<path class="st0" d="M51.2,54.7c1.3,0,1.9-0.9,1.9-1.9c0-1-0.6-1.9-1.9-1.9h-2.7v3.8H51.2z M50.8,47.4c1.1,0,1.6-0.8,1.6-1.7
			c0-0.8-0.5-1.5-1.7-1.5h-2.2v3.2H50.8z M44.1,40.3h6.7c3.6,0,6.2,1.6,6.2,4.7c0,1.5-0.7,3.1-2.1,3.9V49c2.1,0.6,2.8,2.5,2.8,4.1
			c0,4-3.3,5.4-6.9,5.4h-6.7V40.3z"/>
	</g>
	<polygon class="st0" points="65.3,40.3 69.8,40.3 69.8,54.7 77.2,54.7 77.2,58.5 65.3,58.5 	"/>
	<g>
		<path class="st0" d="M87.1,54.7c2.7,0,4.9-2.3,4.9-5.4c0-3-2.2-5.2-4.9-5.2c-2.7,0-4.9,2.2-4.9,5.2C82.2,52.4,84.4,54.7,87.1,54.7
			 M87.1,40c5.5,0,9.5,4.1,9.5,9.3c0,5.3-4,9.5-9.5,9.5c-5.5,0-9.5-4.2-9.5-9.5C77.6,44.1,81.6,40,87.1,40"/>
		<path class="st0" d="M107.3,40c4.6,0,7,2.4,7,2.4l-2.1,3.3c0,0-1.9-1.7-4.4-1.7c-3.8,0-5.4,2.4-5.4,5.1c0,3.4,2.4,5.5,5.2,5.5
			c2.1,0,3.7-1.3,3.7-1.3V52h-2.6v-3.8h6.5v10.2h-3.7V58c0-0.4,0-0.8,0-0.8h-0.1c0,0-1.7,1.6-4.8,1.6c-4.6,0-8.9-3.5-8.9-9.4
			C97.8,44.1,101.7,40,107.3,40"/>
	</g>
	<path class="st0" d="M120.3,35.4h4.3l-3,3.8h-3.4L120.3,35.4z M117.9,40.3h4.4v18.1h-4.4V40.3z"/>
	<g>
		<path class="st0" d="M126.9,52.8c0,0,2.1,1.9,4.3,1.9c0.9,0,1.9-0.4,1.9-1.4c0-2.2-8.2-2.1-8.2-7.7c0-3.3,2.8-5.6,6.4-5.6
			c3.9,0,5.8,2.1,5.8,2.1l-1.9,3.6c0,0-1.8-1.6-4-1.6c-0.9,0-1.9,0.4-1.9,1.4c0,2.3,8.2,1.9,8.2,7.6c0,3-2.3,5.6-6.4,5.6
			c-4.3,0-6.6-2.6-6.6-2.6L126.9,52.8z"/>
	</g>
	<polygon class="st0" points="143.5,44.1 138,44.1 138,40.3 153.4,40.3 153.4,44.1 147.9,44.1 147.9,58.5 143.5,58.5 	"/>
	<rect x="155" y="40.3" class="st0" width="4.4" height="18.1"/>
	<g>
		<path class="st0" d="M171.4,40c4.5,0,6.8,2.6,6.8,2.6l-2.1,3.3c0,0-2-1.9-4.5-1.9c-3.5,0-5.1,2.6-5.1,5.2c0,2.7,1.8,5.5,5.1,5.5
			c2.7,0,4.8-2.2,4.8-2.2l2.3,3.2c0,0-2.6,3-7.3,3c-5.7,0-9.5-4-9.5-9.4C161.8,44.1,165.9,40,171.4,40"/>
		<path class="st0" d="M188.9,54.7c2.7,0,4.9-2.3,4.9-5.4c0-3-2.2-5.2-4.9-5.2c-2.7,0-4.9,2.2-4.9,5.2
			C184,52.4,186.1,54.7,188.9,54.7 M188.9,40c5.5,0,9.5,4.1,9.5,9.3c0,5.3-4,9.5-9.5,9.5c-5.5,0-9.5-4.2-9.5-9.5
			C179.4,44.1,183.4,40,188.9,40"/>
		<path class="st0" d="M35.3,67.4h4.8l2.6,7.7c0.4,1.2,0.9,3,0.9,3h0.1c0,0,0.5-1.8,0.9-3l2.6-7.7h4.8l1.5,18.1h-4.4l-0.6-8.2
			c-0.1-1.4,0-3,0-3h-0.1c0,0-0.6,1.9-1,3l-1.9,5.3h-3.8l-1.9-5.3c-0.4-1.1-1-3-1-3h-0.1c0,0,0.1,1.7,0,3l-0.6,8.2h-4.5L35.3,67.4z"
			/>
		<path class="st0" d="M56.4,67.4h4.4v11.5c0,1.9,1.2,2.9,3.1,2.9c1.9,0,3.1-1,3.1-2.9V67.4h4.4v11.5c0,4.1-3,7-7.6,7
			c-4.6,0-7.6-2.9-7.6-7V67.4z"/>
	</g>
	<polygon class="st0" points="74.9,67.4 79.3,67.4 79.3,81.8 86.7,81.8 86.7,85.6 74.9,85.6 	"/>
	<polygon class="st0" points="90.8,71.2 85.3,71.2 85.3,67.4 100.7,67.4 100.7,71.2 95.2,71.2 95.2,85.6 90.8,85.6 	"/>
	<rect x="102.3" y="67.4" class="st0" width="4.4" height="18.1"/>
	<g>
		<path class="st0" d="M111.3,67.4h4.8l2.6,7.7c0.4,1.2,0.9,3,0.9,3h0.1c0,0,0.5-1.8,0.9-3l2.6-7.7h4.8l1.5,18.1h-4.4l-0.6-8.2
			c-0.1-1.4,0-3,0-3h-0.1c0,0-0.6,1.9-1,3l-1.9,5.3h-3.8l-1.9-5.3c-0.4-1.1-1-3-1-3h-0.1c0,0,0.1,1.7,0,3l-0.6,8.2h-4.5L111.3,67.4z
			"/>
		<path class="st0" d="M140.9,81.8c2.7,0,4.9-2.3,4.9-5.4c0-3-2.2-5.2-4.9-5.2c-2.7,0-4.9,2.2-4.9,5.2
			C136,79.5,138.2,81.8,140.9,81.8 M140.9,67.1c5.5,0,9.5,4.1,9.5,9.3c0,5.3-4,9.5-9.5,9.5c-5.5,0-9.5-4.2-9.5-9.5
			C131.4,71.2,135.4,67.1,140.9,67.1"/>
		<path class="st0" d="M159,81.8c3.1,0,4.9-1.8,4.9-5.3c0-3.4-2-5.2-4.9-5.2h-1.8v10.5H159z M152.7,67.4h6.4c5.7,0,9.4,3.3,9.4,9
			s-3.7,9.1-9.4,9.1h-6.4V67.4z"/>
		<path class="st0" d="M177.2,71.6c0,0-0.4,2-0.7,3.1l-1,3.5h3.6l-1-3.5C177.6,73.5,177.2,71.6,177.2,71.6L177.2,71.6z M180,81.8
			h-5.7l-1.1,3.8h-4.6l6.2-18.1h4.7l6.2,18.1h-4.6L180,81.8z"/>
	</g>
	<polygon class="st0" points="187.1,67.4 191.5,67.4 191.5,81.8 198.9,81.8 198.9,85.6 187.1,85.6 	"/>
	<rect x="45.8" y="103.3" class="st1" width="0.6" height="10.3"/>
	<g>
		<path class="st1" d="M49.6,103.3h0.6l5.9,8.1c0.3,0.5,0.8,1.3,0.8,1.3h0c0,0-0.1-0.8-0.1-1.3v-8.1h0.6v10.3h-0.6l-5.9-8.1
			c-0.3-0.5-0.8-1.3-0.8-1.3h0c0,0,0.1,0.8,0.1,1.3v8.1h-0.6V103.3z"/>
	</g>
	<polygon class="st1" points="63,103.9 59.2,103.9 59.2,103.3 67.5,103.3 67.5,103.9 63.6,103.9 63.6,113.6 63,113.6 	"/>
	<polygon class="st1" points="69.2,103.3 74.8,103.3 74.8,103.9 69.8,103.9 69.8,108.2 73.9,108.2 73.9,108.7 69.8,108.7 69.8,113 
		75.1,113 75.1,113.6 69.2,113.6 	"/>
	<g>
		<path class="st1" d="M81.9,103.2c2.3,0,3.6,1.2,3.6,1.2l-0.4,0.5c0,0-1.2-1-3.2-1c-2.6,0-4.5,2.1-4.5,4.7c0,2.7,1.8,4.7,4.4,4.7
			c2.2,0,3.5-1.7,3.5-1.7v-2h-1.8v-0.6H86v4.7h-0.6v-0.9c0-0.2,0-0.4,0-0.4h0c0,0-1.2,1.5-3.5,1.5c-2.9,0-5-2.3-5-5.3
			C76.8,105.5,79,103.2,81.9,103.2"/>
		<path class="st1" d="M92,108.5c1.4,0,2.2-1,2.2-2.4c0-0.9-0.5-1.6-1.2-2c-0.3-0.1-0.6-0.2-1.4-0.2h-2.4v4.6H92z M88.6,103.3h3
			c1,0,1.4,0.1,1.9,0.3c0.9,0.4,1.4,1.3,1.4,2.5c0,1.5-0.9,2.6-2.1,2.8v0c0,0,0.1,0.1,0.2,0.4l2.3,4.3h-0.7l-2.4-4.6h-3v4.6h-0.6
			V103.3z"/>
		<path class="st1" d="M100.5,104.1c0,0-0.2,0.8-0.4,1.2l-1.6,4.2h3.9l-1.6-4.2C100.8,104.9,100.6,104.1,100.5,104.1L100.5,104.1z
			 M102.7,110.1h-4.4l-1.3,3.6h-0.7l3.9-10.3h0.7l3.8,10.3h-0.7L102.7,110.1z"/>
		<path class="st1" d="M109.7,113c2.7,0,4.6-1.6,4.6-4.6c0-2.9-1.8-4.6-4.6-4.6h-2.5v9.1H109.7z M106.6,103.3h3.2
			c3.1,0,5.1,1.9,5.1,5.1c0,3.3-2.1,5.1-5.1,5.1h-3.2V103.3z"/>
		<path class="st1" d="M122,113.2c2.5,0,4.5-2.1,4.5-4.8c0-2.6-2-4.6-4.5-4.6c-2.5,0-4.5,2-4.5,4.6
			C117.4,111.1,119.5,113.2,122,113.2 M122,103.2c2.9,0,5.2,2.3,5.2,5.2c0,3-2.3,5.4-5.2,5.4c-2.9,0-5.2-2.4-5.2-5.4
			C116.8,105.5,119.1,103.2,122,103.2"/>
	</g>
	<rect x="128.7" y="112.7" class="st1" width="0.9" height="0.9"/>
	<g>
		<path class="st0" d="M141,103.2c2.3,0,3.6,1.2,3.6,1.2l-0.4,0.5c0,0-1.2-1-3.2-1c-2.6,0-4.5,2.1-4.5,4.7c0,2.7,1.8,4.7,4.4,4.7
			c2.2,0,3.5-1.7,3.5-1.7v-2h-1.8v-0.6h2.5v4.7h-0.6v-0.9c0-0.2,0-0.4,0-0.4h0c0,0-1.2,1.5-3.5,1.5c-2.9,0-5-2.3-5-5.3
			C135.9,105.5,138.1,103.2,141,103.2"/>
	</g>
	<polygon class="st0" points="147.7,103.3 148.3,103.3 148.3,113 153.2,113 153.2,113.6 147.7,113.6 	"/>
	<g>
		<path class="st0" d="M159.1,113.2c2.5,0,4.5-2.1,4.5-4.8c0-2.6-2-4.6-4.5-4.6c-2.5,0-4.5,2-4.5,4.6
			C154.6,111.1,156.6,113.2,159.1,113.2 M159.1,103.2c2.9,0,5.2,2.3,5.2,5.2c0,3-2.3,5.4-5.2,5.4c-2.9,0-5.2-2.4-5.2-5.4
			C153.9,105.5,156.2,103.2,159.1,103.2"/>
		<path class="st0" d="M170.3,113c1.4,0,2.3-0.9,2.3-2.2s-1-2.3-2.3-2.3h-2.9v4.5H170.3z M170.2,107.9c1.1,0,2-0.8,2-2
			c0-1.2-0.8-2-2-2h-2.8v4H170.2z M166.8,103.3h3.5c1.5,0,2.6,1,2.6,2.6c0,1.1-0.5,1.9-1.3,2.2v0c1,0.3,1.7,1.3,1.7,2.6
			c0,1.7-1.2,2.8-2.9,2.8h-3.6V103.3z"/>
		<path class="st0" d="M178.7,104.1c0,0-0.2,0.8-0.4,1.2l-1.6,4.2h3.9l-1.6-4.2C179,104.9,178.7,104.1,178.7,104.1L178.7,104.1z
			 M180.9,110.1h-4.4l-1.3,3.6h-0.7l3.9-10.3h0.7l3.9,10.3h-0.7L180.9,110.1z"/>
	</g>
	<polygon class="st0" points="184.8,103.3 185.4,103.3 185.4,113 190.3,113 190.3,113.6 184.8,113.6 	"/>
	<rect x="191.9" y="112.7" class="st0" width="0.9" height="0.9"/>
	<g>
		<path class="st0" d="M188.9,28.3c-1.2,0-2.2,1-2.2,2.2c0,1.2,1,2.2,2.2,2.2c1.2,0,2.2-1,2.2-2.2C191.1,29.3,190.1,28.3,188.9,28.3
			 M188.9,33.7c-1.8,0-3.2-1.4-3.2-3.2s1.4-3.2,3.2-3.2c1.8,0,3.2,1.4,3.2,3.2S190.7,33.7,188.9,33.7"/>
	</g>
	
		<rect x="196.1" y="52.1" transform="matrix(0.7444 -0.6677 0.6677 0.7444 10.8196 146.3853)" class="st0" width="1" height="13.8"/>
	<g>
		<path class="st0" d="M204,63.1c-1,0-2,0.3-2.7,1c-0.8,0.7-1.3,1.7-1.4,2.8c-0.1,1.1,0.3,2.1,1,3c0.7,0.8,1.7,1.3,2.8,1.4
			c1.1,0.1,2.1-0.3,3-1c0.8-0.7,1.3-1.7,1.4-2.8c0.1-1.1-0.3-2.1-1-3C206.2,63.6,205.1,63.1,204,63.1 M204,72.3c-0.1,0-0.2,0-0.3,0
			c-1.4-0.1-2.6-0.7-3.5-1.7c-0.9-1-1.4-2.3-1.3-3.7c0.1-1.4,0.7-2.6,1.7-3.5c2.1-1.9,5.3-1.7,7.2,0.4c0.9,1,1.4,2.3,1.3,3.7
			c-0.1,1.4-0.7,2.6-1.7,3.5C206.4,71.8,205.2,72.3,204,72.3"/>
	</g>
	<rect x="193.7" y="44.7" transform="matrix(0.8691 -0.4946 0.4946 0.8691 3.4325 103.4001)" class="st0" width="6.8" height="1"/>
	<rect x="180.8" y="58.9" transform="matrix(0.5372 -0.8435 0.8435 0.5372 35.1987 182.8461)" class="st0" width="6.8" height="1"/>
	<g>
		<path class="st0" d="M202,40.6c-0.2,0-0.5,0.1-0.7,0.2c-0.7,0.4-1,1.3-0.6,2c0.4,0.7,1.3,1,2,0.6c0.7-0.4,1-1.3,0.6-2
			C203,40.9,202.5,40.6,202,40.6 M202,44.6c-0.9,0-1.7-0.4-2.1-1.2c-0.7-1.2-0.3-2.7,0.9-3.4c1.2-0.7,2.7-0.3,3.4,0.9
			c0.7,1.2,0.3,2.7-0.9,3.4h0C202.8,44.5,202.4,44.6,202,44.6"/>
		<path class="st0" d="M181.3,62.3c-0.3,0-0.5,0.1-0.7,0.2c-0.3,0.2-0.6,0.5-0.7,0.9c-0.1,0.4-0.1,0.8,0.1,1.1c0.4,0.7,1.3,1,2,0.6
			c0.7-0.4,1-1.3,0.6-2c-0.2-0.3-0.5-0.6-0.9-0.7C181.6,62.3,181.4,62.3,181.3,62.3 M181.3,66.2c-0.9,0-1.7-0.4-2.1-1.2
			c-0.3-0.6-0.4-1.2-0.2-1.9c0.2-0.6,0.6-1.2,1.2-1.5c0.6-0.3,1.2-0.4,1.9-0.2c0.6,0.2,1.2,0.6,1.5,1.2c0.7,1.2,0.3,2.7-0.9,3.4h0
			C182.2,66.1,181.7,66.2,181.3,66.2"/>
	</g>
	<rect x="188.4" y="33.3" class="st0" width="1" height="8.3"/>
</g>
</svg>
