<?xml version="1.0" encoding="utf-8"?>
<!-- Generator: Adobe Illustrator 24.1.2, SVG Export Plug-In . SVG Version: 6.00 Build 0)  -->
<svg version="1.1" id="Camada_1" xmlns="http://www.w3.org/2000/svg" xmlns:xlink="http://www.w3.org/1999/xlink" x="0px" y="0px"
	 viewBox="0 0 383 146.1" style="enable-background:new 0 0 383 146.1;" xml:space="preserve">
<style type="text/css">
	.st0{fill:#6D8D59;}
	.st1{fill:#FFFFFF;}
</style>
<g>
	<polygon class="st0" points="7.3,40.3 11.8,40.3 11.8,47.6 18.4,47.6 18.4,40.3 22.8,40.3 22.8,58.5 18.4,58.5 18.4,51.3 
		11.8,51.3 11.8,58.5 7.3,58.5 	"/>
	<g>
		<path class="st0" d="M26.2,40.3h4.4v11.5c0,1.9,1.2,2.9,3.1,2.9c1.9,0,3.1-1,3.1-2.9V40.3h4.4v11.5c0,4.1-3,7-7.6,7
			c-4.6,0-7.6-2.9-7.6-7V40.3z"/>
		<path class="st0" d="M51.9,54.6c1.3,0,1.9-0.9,1.9-1.9c0-1-0.6-1.9-1.9-1.9h-2.7v3.8H51.9z M51.5,47.3c1.1,0,1.6-0.8,1.6-1.7
			c0-0.8-0.5-1.5-1.7-1.5h-2.2v3.2H51.5z M44.8,40.3h6.7c3.6,0,6.2,1.6,6.2,4.7c0,1.5-0.7,3.1-2.1,3.9V49c2.1,0.6,2.8,2.5,2.8,4.1
			c0,4-3.3,5.4-6.9,5.4h-6.7V40.3z"/>
	</g>
	<polygon class="st0" points="66,40.3 70.5,40.3 70.5,54.6 77.9,54.6 77.9,58.5 66,58.5 	"/>
	<g>
		<path class="st0" d="M87.8,54.7c2.7,0,4.9-2.3,4.9-5.4c0-3-2.2-5.2-4.9-5.2c-2.7,0-4.9,2.2-4.9,5.2C82.9,52.4,85.1,54.7,87.8,54.7
			 M87.8,40c5.5,0,9.5,4.1,9.5,9.3c0,5.3-4,9.5-9.5,9.5c-5.5,0-9.5-4.2-9.5-9.5C78.3,44.1,82.3,40,87.8,40"/>
		<path class="st0" d="M108,40c4.6,0,7,2.4,7,2.4l-2.1,3.3c0,0-1.9-1.7-4.4-1.7c-3.8,0-5.4,2.4-5.4,5.1c0,3.5,2.4,5.5,5.2,5.5
			c2.1,0,3.7-1.3,3.7-1.3V52h-2.6v-3.8h6.5v10.3h-3.7v-0.5c0-0.4,0-0.8,0-0.8h-0.1c0,0-1.8,1.6-4.8,1.6c-4.6,0-8.9-3.5-8.9-9.4
			C98.5,44.1,102.5,40,108,40"/>
	</g>
	<path class="st0" d="M121.1,35.3h4.3l-3,3.8H119L121.1,35.3z M118.6,40.3h4.4v18.2h-4.4V40.3z"/>
	<g>
		<path class="st0" d="M127.7,52.8c0,0,2.1,1.9,4.3,1.9c0.9,0,1.9-0.4,1.9-1.4c0-2.2-8.2-2.1-8.2-7.7c0-3.4,2.8-5.6,6.4-5.6
			c3.9,0,5.8,2.1,5.8,2.1l-1.9,3.6c0,0-1.8-1.6-4-1.6c-0.9,0-1.9,0.4-1.9,1.4c0,2.3,8.2,1.9,8.2,7.6c0,3-2.3,5.6-6.4,5.6
			c-4.3,0-6.6-2.6-6.6-2.6L127.7,52.8z"/>
	</g>
	<polygon class="st0" points="144.3,44.1 138.8,44.1 138.8,40.3 154.2,40.3 154.2,44.1 148.7,44.1 148.7,58.5 144.3,58.5 	"/>
	<rect x="155.8" y="40.3" class="st0" width="4.4" height="18.2"/>
	<g>
		<path class="st0" d="M172.2,40c4.5,0,6.8,2.6,6.8,2.6l-2.1,3.4c0,0-2-1.9-4.5-1.9c-3.5,0-5.1,2.6-5.1,5.2c0,2.7,1.8,5.5,5.1,5.5
			c2.7,0,4.8-2.2,4.8-2.2l2.3,3.3c0,0-2.6,3-7.3,3c-5.7,0-9.5-4-9.5-9.4C162.7,44.1,166.7,40,172.2,40"/>
		<path class="st0" d="M189.7,54.7c2.7,0,4.9-2.3,4.9-5.4c0-3-2.2-5.2-4.9-5.2c-2.7,0-4.9,2.2-4.9,5.2
			C184.8,52.4,187,54.7,189.7,54.7 M189.7,40c5.5,0,9.5,4.1,9.5,9.3c0,5.3-4,9.5-9.5,9.5c-5.5,0-9.5-4.2-9.5-9.5
			C180.2,44.1,184.2,40,189.7,40"/>
		<path class="st0" d="M35.9,67.4h4.8l2.6,7.7c0.4,1.2,0.9,3,0.9,3h0.1c0,0,0.5-1.8,0.9-3l2.6-7.7h4.8l1.5,18.2h-4.4l-0.6-8.2
			c-0.1-1.4,0-3,0-3h-0.1c0,0-0.6,1.9-1,3l-1.9,5.3h-3.8l-1.9-5.3c-0.4-1.1-1-3-1-3h-0.1c0,0,0.1,1.7,0,3l-0.6,8.2h-4.5L35.9,67.4z"
			/>
		<path class="st0" d="M57,67.4h4.4v11.5c0,1.9,1.2,2.9,3.1,2.9c1.9,0,3.1-1,3.1-2.9V67.4h4.4v11.5c0,4.1-3,7-7.6,7
			c-4.6,0-7.6-2.9-7.6-7V67.4z"/>
	</g>
	<polygon class="st0" points="75.6,67.4 80.1,67.4 80.1,81.8 87.5,81.8 87.5,85.6 75.6,85.6 	"/>
	<polygon class="st0" points="91.5,71.2 86,71.2 86,67.4 101.4,67.4 101.4,71.2 95.9,71.2 95.9,85.6 91.5,85.6 	"/>
	<rect x="103" y="67.4" class="st0" width="4.4" height="18.2"/>
	<g>
		<path class="st0" d="M112.1,67.4h4.8l2.6,7.7c0.4,1.2,0.9,3,0.9,3h0.1c0,0,0.5-1.8,0.9-3l2.6-7.7h4.8l1.5,18.2h-4.4l-0.6-8.2
			c-0.1-1.4,0-3,0-3h-0.1c0,0-0.6,1.9-1,3l-1.9,5.3h-3.8l-1.9-5.3c-0.4-1.1-1-3-1-3h-0.1c0,0,0.1,1.7,0,3l-0.6,8.2h-4.5L112.1,67.4z
			"/>
		<path class="st0" d="M141.7,81.8c2.7,0,4.9-2.3,4.9-5.4c0-3-2.2-5.2-4.9-5.2c-2.7,0-4.9,2.2-4.9,5.2
			C136.8,79.5,139,81.8,141.7,81.8 M141.7,67.1c5.5,0,9.5,4.1,9.5,9.3c0,5.3-4,9.5-9.5,9.5c-5.5,0-9.5-4.2-9.5-9.5
			C132.2,71.2,136.2,67.1,141.7,67.1"/>
		<path class="st0" d="M159.8,81.8c3.1,0,5-1.8,5-5.3c0-3.5-2-5.2-5-5.2H158v10.5H159.8z M153.6,67.4h6.5c5.7,0,9.4,3.3,9.4,9
			c0,5.7-3.7,9.1-9.4,9.1h-6.5V67.4z"/>
		<path class="st0" d="M178,71.6c0,0-0.4,2-0.7,3.1l-1,3.5h3.6l-1-3.5C178.5,73.5,178.1,71.6,178,71.6L178,71.6z M180.9,81.8h-5.7
			l-1.1,3.8h-4.6l6.2-18.2h4.7l6.2,18.2H182L180.9,81.8z"/>
	</g>
	<polygon class="st0" points="188,67.4 192.4,67.4 192.4,81.8 199.8,81.8 199.8,85.6 188,85.6 	"/>
	<g>
		<path class="st0" d="M248.4,13.6c3.9,0,6,2.3,6,2.3l-1.8,2.9c0,0-1.8-1.6-4-1.6c-3.1,0-4.5,2.3-4.5,4.5c0,2.4,1.6,4.8,4.5,4.8
			c2.4,0,4.2-2,4.2-2l2,2.9c0,0-2.3,2.7-6.4,2.7c-5,0-8.4-3.5-8.4-8.3C240,17.2,243.6,13.6,248.4,13.6"/>
	</g>
	<rect x="256.6" y="13.9" class="st0" width="3.9" height="15.9"/>
	<path class="st0" d="M267,9.5h3.7l2.2,3.3h-3l-1-1.8h0l-1,1.8h-3L267,9.5z M263.7,13.9h10v3.3h-6.1v2.9h4.9v3.3h-4.9v3h6.4v3.3
		h-10.3V13.9z"/>
	<g>
		<path class="st0" d="M276.2,13.9h3.9l4.4,7.4c0.6,1,1.3,2.7,1.3,2.7h0c0,0-0.2-1.7-0.2-2.7v-7.4h3.9v15.9h-3.9l-4.4-7.4
			c-0.6-1-1.3-2.7-1.3-2.7h0c0,0,0.2,1.7,0.2,2.7v7.4h-3.9V13.9z"/>
		<path class="st0" d="M300.2,13.6c3.9,0,6,2.3,6,2.3l-1.8,2.9c0,0-1.8-1.6-4-1.6c-3.1,0-4.5,2.3-4.5,4.5c0,2.4,1.6,4.8,4.5,4.8
			c2.4,0,4.2-2,4.2-2l2,2.9c0,0-2.3,2.7-6.4,2.7c-5,0-8.4-3.5-8.4-8.3C291.8,17.2,295.4,13.6,300.2,13.6"/>
	</g>
	<rect x="308.4" y="13.9" class="st0" width="3.9" height="15.9"/>
	<g>
		<path class="st0" d="M321,17.5c0,0-0.4,1.7-0.6,2.7l-0.9,3.1h3.1l-0.9-3.1C321.4,19.2,321,17.5,321,17.5L321,17.5z M323.5,26.4h-5
			l-1,3.3h-4l5.4-15.9h4.1l5.4,15.9h-4L323.5,26.4z"/>
		<path class="st0" d="M330.5,24.8c0,0,1.8,1.6,3.8,1.6c0.8,0,1.7-0.3,1.7-1.3c0-1.9-7.2-1.8-7.2-6.7c0-2.9,2.5-4.9,5.6-4.9
			c3.4,0,5.1,1.8,5.1,1.8l-1.6,3.2c0,0-1.6-1.4-3.5-1.4c-0.8,0-1.7,0.4-1.7,1.2c0,2,7.2,1.6,7.2,6.7c0,2.7-2,4.9-5.6,4.9
			c-3.7,0-5.8-2.3-5.8-2.3L330.5,24.8z"/>
		<path class="st0" d="M251.2,50.4c2.7,0,4.3-1.6,4.3-4.7c0-3-1.7-4.6-4.3-4.6h-1.6v9.2H251.2z M245.7,37.8h5.7c5,0,8.2,2.9,8.2,7.9
			c0,5-3.2,8-8.2,8h-5.7V37.8z"/>
		<path class="st0" d="M267.1,41.4c0,0-0.4,1.7-0.6,2.7l-0.9,3.1h3.1l-0.9-3.1C267.5,43.2,267.2,41.4,267.1,41.4L267.1,41.4z
			 M269.6,50.4h-5l-1,3.3h-4l5.4-15.9h4.1l5.4,15.9h-4L269.6,50.4z"/>
		<path class="st0" d="M278.4,37.8h4.2l2.8,9.1c0.3,1,0.6,2.6,0.6,2.6h0c0,0,0.3-1.6,0.6-2.6l2.9-9.1h4.2l-5.6,15.9H284L278.4,37.8z
			"/>
	</g>
	<rect x="294.9" y="37.8" class="st0" width="3.9" height="15.9"/>
	<g>
		<path class="st0" d="M307.5,50.4c2.7,0,4.3-1.6,4.3-4.7c0-3-1.7-4.6-4.3-4.6h-1.6v9.2H307.5z M302,37.8h5.7c5,0,8.2,2.9,8.2,7.9
			c0,5-3.2,8-8.2,8H302V37.8z"/>
		<path class="st0" d="M323.4,41.4c0,0-0.4,1.7-0.6,2.7l-0.9,3.1h3.1l-0.9-3.1C323.8,43.2,323.5,41.4,323.4,41.4L323.4,41.4z
			 M325.9,50.4h-5l-1,3.3h-4l5.4-15.9h4.1l5.4,15.9h-4L325.9,50.4z"/>
		<path class="st1" d="M249.4,98.2h-1.4c-0.3,0-0.3-0.1-0.4-0.5l-0.8-2.4h-4.3l-0.7,2.4c-0.1,0.4-0.2,0.5-0.4,0.5h-1.3
			c-0.2,0-0.3-0.1-0.1-0.6l3.5-11.6c0.1-0.4,0.2-0.6,0.6-0.6h1.4c0.4,0,0.5,0.2,0.6,0.6l3.5,11.6C250,98.2,249.8,98.2,249.4,98.2
			 M244.7,87.9l-1.7,5.8h3.4L244.7,87.9z"/>
		<path class="st1" d="M258.2,94.1h-5.2c0,2,1,2.8,2.6,2.8c1.4,0,2.3-0.3,2.6-0.4c0.3-0.1,0.5,0,0.5,0.2v0.9c0,0.3-0.1,0.4-0.6,0.5
			c-0.2,0.1-1.5,0.3-2.6,0.3c-3,0-4.5-1.3-4.5-4.8c0-3.3,1.4-5,4-5c2.4,0,3.8,1.3,3.8,3.7v1.1C259,93.8,258.9,94.1,258.2,94.1
			 M255.1,89.8c-1.4,0-2,1.2-2,2.6c0,0.2,0,0.3,0.2,0.3h3.5c0.2,0,0.2-0.1,0.2-0.3C257,90.8,256.5,89.8,255.1,89.8"/>
		<path class="st1" d="M265.7,90c0,0.2-0.1,0.3-0.3,0.3c-0.5,0-1,0.1-1.4,0.4c-0.8,0.5-1.3,1.1-1.3,1.7v5.2c0,0.5,0,0.7-0.3,0.7
			h-1.1c-0.4,0-0.5-0.2-0.5-0.6v-8.2c0-0.3,0.1-0.5,0.4-0.5h1.1c0.2,0,0.4,0.1,0.4,0.5v0.9c0.7-1,1.7-1.5,2.8-1.5
			c0.1,0,0.3,0,0.3,0.2L265.7,90z"/>
		<path class="st1" d="M271,98.4c-2.7,0-4.3-1.1-4.3-4.8c0-3.6,1.7-5,4.4-5c2.6,0,4.1,1.4,4.1,5C275.1,96.7,273.6,98.4,271,98.4
			 M273.1,92.6c0-1.5-0.6-2.7-2.1-2.7c-1.3,0-2.2,0.9-2.2,2.8v1.7c0,1.9,1,2.7,2.2,2.7c1.3,0,2.1-1.1,2.1-2.9V92.6z"/>
		<path class="st1" d="M281.7,98.4c-1.3,0-2.2-0.4-2.8-1.2v4c0,0.4-0.1,0.6-0.3,0.6h-1.2c-0.4,0-0.5-0.1-0.5-0.6V89.4
			c0-0.4,0-0.6,0.5-0.6h1.1c0.3,0,0.4,0.1,0.4,0.5V90c0.7-0.9,1.7-1.4,2.9-1.4c1.9,0,3,1.9,3,4.9C284.8,97.1,283.5,98.4,281.7,98.4
			 M282.7,92.8c0-1.7-0.7-2.9-1.8-2.9c-1.4,0-1.9,1.3-1.9,2.2v3.4c0,0.5,0.7,1.6,1.9,1.6c1.3,0,1.9-1,1.9-2.7V92.8z"/>
		<path class="st1" d="M290.6,98.4c-2.7,0-4.3-1.1-4.3-4.8c0-3.6,1.7-5,4.4-5c2.6,0,4.1,1.4,4.1,5C294.7,96.7,293.2,98.4,290.6,98.4
			 M292.8,92.6c0-1.5-0.6-2.7-2.1-2.7c-1.3,0-2.2,0.9-2.2,2.8v1.7c0,1.9,1,2.7,2.2,2.7c1.3,0,2.1-1.1,2.1-2.9V92.6z"/>
		<path class="st1" d="M301.5,90c0,0.2-0.1,0.3-0.3,0.3c-0.5,0-1,0.1-1.4,0.4c-0.8,0.5-1.3,1.1-1.3,1.7v5.2c0,0.5,0,0.7-0.4,0.7H297
			c-0.4,0-0.5-0.2-0.5-0.6v-8.2c0-0.3,0.1-0.5,0.4-0.5h1.1c0.2,0,0.4,0.1,0.4,0.5v0.9c0.7-1,1.7-1.5,2.8-1.5c0.1,0,0.3,0,0.3,0.2
			L301.5,90z"/>
		<path class="st1" d="M307,90.4h-1.6v5.7c0,0.6,0.3,0.9,0.7,0.9c0.3,0,0.5,0,0.9-0.1c0.2,0,0.3,1.2,0.2,1.3c-0.3,0.1-1,0.2-1.6,0.2
			c-1.7,0-2.2-1.1-2.2-2.3v-5.7h-0.9c-0.2,0-0.3-0.1-0.3-0.4v-0.7c0-0.3,0.1-0.3,0.4-0.3h0.8v-1.7c0-0.3,0.2-0.4,0.5-0.4l0.9-0.2
			c0.4-0.1,0.5,0.1,0.5,0.4V89h1.7c0.3,0,0.4,0.2,0.4,0.4v0.7C307.4,90.3,307.4,90.4,307,90.4"/>
		<path class="st1" d="M312.9,98.4c-2.7,0-4.3-1.1-4.3-4.8c0-3.6,1.7-5,4.4-5c2.6,0,4.1,1.4,4.1,5C317.1,96.7,315.6,98.4,312.9,98.4
			 M315.1,92.6c0-1.5-0.6-2.7-2.1-2.7c-1.3,0-2.2,0.9-2.2,2.8v1.7c0,1.9,1,2.7,2.2,2.7c1.3,0,2.1-1.1,2.1-2.9V92.6z"/>
		<path class="st1" d="M241.7,114.9h-1.3c-0.3,0-0.4-0.1-0.4-0.5v-11.9c0-0.3,0.1-0.4,0.5-0.4h1.3c0.3,0,0.4,0.1,0.4,0.5v11.9
			C242,114.8,242,114.9,241.7,114.9"/>
		<path class="st1" d="M251.4,114.9h-1.1c-0.3,0-0.5-0.2-0.5-0.6v-5.5c0-0.9-0.4-1.7-1.6-1.7c-1.3,0-1.9,1.1-1.9,2v5.2
			c0,0.5,0,0.7-0.3,0.7h-1.1c-0.4,0-0.5-0.2-0.5-0.6v-8.2c0-0.3,0.1-0.5,0.4-0.5h1.1c0.3,0,0.4,0.3,0.4,1.1c0.6-0.8,1.4-1.3,2.8-1.3
			c1.5,0,2.8,0.8,2.8,3v5.8C251.8,114.7,251.7,114.9,251.4,114.9"/>
		<path class="st1" d="M258.2,107.1h-1.6v5.7c0,0.6,0.3,0.9,0.8,0.9c0.3,0,0.5,0,0.9-0.1c0.2,0,0.3,1.2,0.2,1.3
			c-0.3,0.1-1,0.2-1.6,0.2c-1.7,0-2.2-1.1-2.2-2.3v-5.7h-0.9c-0.2,0-0.3-0.1-0.3-0.4v-0.7c0-0.3,0.1-0.3,0.4-0.3h0.8V104
			c0-0.3,0.2-0.4,0.5-0.4l0.9-0.2c0.4-0.1,0.5,0.1,0.5,0.4v1.9h1.7c0.3,0,0.4,0.2,0.4,0.4v0.7C258.6,107,258.5,107.1,258.2,107.1"/>
		<path class="st1" d="M267,110.8h-5.2c0,2,1,2.8,2.6,2.8c1.4,0,2.3-0.3,2.6-0.4c0.3-0.1,0.5,0,0.5,0.2v0.9c0,0.3-0.1,0.4-0.6,0.5
			c-0.2,0.1-1.6,0.3-2.6,0.3c-3,0-4.5-1.3-4.5-4.8c0-3.3,1.4-5,4-5c2.4,0,3.8,1.3,3.8,3.7v1.1C267.7,110.6,267.6,110.8,267,110.8
			 M263.8,106.6c-1.4,0-2,1.2-2,2.6c0,0.2,0,0.3,0.2,0.3h3.5c0.2,0,0.2-0.1,0.2-0.3C265.8,107.5,265.3,106.6,263.8,106.6"/>
		<path class="st1" d="M274.4,106.7c0,0.2-0.1,0.3-0.3,0.3c-0.5,0-1,0.1-1.4,0.4c-0.8,0.5-1.3,1.1-1.3,1.7v5.2c0,0.5,0,0.7-0.3,0.7
			H270c-0.4,0-0.5-0.2-0.5-0.6v-8.2c0-0.3,0.1-0.5,0.4-0.5h1.1c0.2,0,0.4,0.1,0.4,0.5v0.9c0.7-1,1.7-1.5,2.8-1.5
			c0.1,0,0.3,0,0.3,0.2L274.4,106.7z"/>
		<path class="st1" d="M282.8,114.9h-1.1c-0.3,0-0.5-0.2-0.5-0.6v-5.5c0-0.9-0.4-1.7-1.6-1.7c-1.3,0-1.9,1.1-1.9,2v5.2
			c0,0.5,0,0.7-0.4,0.7h-1.1c-0.4,0-0.5-0.2-0.5-0.6v-8.2c0-0.3,0.1-0.5,0.4-0.5h1.1c0.3,0,0.4,0.3,0.4,1.1c0.6-0.8,1.4-1.3,2.8-1.3
			c1.5,0,2.8,0.8,2.8,3v5.8C283.2,114.7,283.1,114.9,282.8,114.9"/>
		<path class="st1" d="M292.4,114.9h-1.1c-0.3,0-0.4-0.1-0.4-0.5v-0.7c-0.3,0.7-1.5,1.4-2.8,1.4c-1.7,0-3.1-1.4-3.1-4.8
			c0-3.1,1.1-5,3.1-5c1.5,0,2.4,0.6,2.9,1.4V106c0-0.3,0.1-0.4,0.3-0.4h1.1c0.5,0,0.5,0.2,0.5,0.5v8.2
			C292.8,114.7,292.8,114.9,292.4,114.9 M290.8,108.8c0-0.8-0.5-2.2-1.9-2.2c-1.2,0-1.8,0.8-1.8,2.9v1.5c0,1.7,0.6,2.8,1.9,2.8
			c1.2,0,1.9-1.3,1.9-1.8V108.8z"/>
		<path class="st1" d="M298.9,115.1c-2.7,0-4.3-1.1-4.3-4.8c0-3.6,1.7-5,4.4-5c1.5,0,2.5,0.4,3.2,1.3c0.2,0.3-1.2,1.3-1.4,1
			c-0.3-0.6-0.9-1-1.8-1c-1.3,0-2.2,0.9-2.2,2.8v1.7c0,1.9,1,2.7,2.2,2.7c0.8,0,1.4-0.5,1.8-1.1c0.2-0.4,1.6,0.3,1.4,0.6
			C301.6,114.4,300.5,115.1,298.9,115.1"/>
		<path class="st1" d="M305.2,103.9H304c-0.3,0-0.4-0.1-0.4-0.6v-0.6c0-0.4,0.1-0.5,0.5-0.5h1.1c0.4,0,0.4,0.2,0.4,0.6v0.6
			C305.5,103.8,305.4,103.9,305.2,103.9 M305.2,114.9h-1.2c-0.3,0-0.4-0.2-0.4-0.6v-8.2c0-0.3,0.1-0.5,0.4-0.5h1.1
			c0.4,0,0.4,0.1,0.4,0.5v8.2C305.5,114.8,305.5,114.9,305.2,114.9"/>
		<path class="st1" d="M311.6,115.1c-2.7,0-4.3-1.1-4.3-4.8c0-3.6,1.7-5,4.4-5c2.6,0,4.1,1.4,4.1,5
			C315.7,113.4,314.2,115.1,311.6,115.1 M313.7,109.3c0-1.5-0.6-2.7-2.1-2.7c-1.3,0-2.2,0.9-2.2,2.8v1.7c0,1.9,1,2.7,2.2,2.7
			c1.3,0,2.1-1.1,2.1-2.9V109.3z"/>
		<path class="st1" d="M324.6,114.9h-1.1c-0.3,0-0.4-0.2-0.4-0.6v-5.5c0-0.9-0.4-1.7-1.6-1.7c-1.3,0-1.9,1.1-1.9,2v5.2
			c0,0.5,0,0.7-0.3,0.7H318c-0.4,0-0.5-0.2-0.5-0.6v-8.2c0-0.3,0.1-0.5,0.4-0.5h1.1c0.3,0,0.4,0.3,0.4,1.1c0.6-0.8,1.4-1.3,2.8-1.3
			c1.5,0,2.8,0.8,2.8,3v5.8C325,114.7,324.9,114.9,324.6,114.9"/>
		<path class="st1" d="M334.2,114.9h-1.1c-0.3,0-0.4-0.1-0.4-0.5v-0.7c-0.4,0.7-1.5,1.4-2.8,1.4c-1.7,0-3.1-1.4-3.1-4.8
			c0-3.1,1.1-5,3.1-5c1.5,0,2.4,0.6,2.9,1.4V106c0-0.3,0.1-0.4,0.3-0.4h1.1c0.5,0,0.5,0.2,0.5,0.5v8.2
			C334.6,114.7,334.6,114.9,334.2,114.9 M332.6,108.8c0-0.8-0.5-2.2-1.9-2.2c-1.2,0-1.8,0.8-1.8,2.9v1.5c0,1.7,0.6,2.8,1.9,2.8
			c1.2,0,1.9-1.3,1.9-1.8V108.8z"/>
		<path class="st1" d="M338.3,114.9h-1.2c-0.4,0-0.4-0.1-0.4-0.6v-11.9c0-0.3,0.1-0.5,0.4-0.5h1.1c0.4,0,0.4,0.1,0.4,0.5v11.8
			C338.6,114.8,338.6,114.9,338.3,114.9"/>
		<path class="st1" d="M350.8,115h-1.1c-0.3,0-0.4,0-0.4-0.5V114c-0.6,0.8-1.6,1.2-2.9,1.2c-1.7,0-3.1-1.4-3.1-4.8
			c0-3.1,1.1-5,3.1-5c1.3,0,2.2,0.4,2.9,1.4v-4.1c0-0.4,0.1-0.6,0.3-0.6h1.1c0.5,0,0.5,0.2,0.5,0.5v11.8
			C351.3,114.7,351.2,115,350.8,115 M349.2,108.8c0-0.9-0.5-2.1-1.9-2.1c-1.2,0-1.8,1.2-1.8,2.9v1.5c0,1.7,0.6,2.8,1.9,2.8
			c1.2,0,1.9-1.1,1.9-1.6V108.8z"/>
		<path class="st1" d="M360.2,110.8H355c0,2,1,2.8,2.6,2.8c1.4,0,2.3-0.3,2.6-0.4c0.3-0.1,0.5,0,0.5,0.2v0.9c0,0.3-0.1,0.4-0.6,0.5
			c-0.2,0.1-1.6,0.3-2.6,0.3c-3,0-4.5-1.3-4.5-4.8c0-3.3,1.4-5,4-5c2.4,0,3.8,1.3,3.8,3.7v1.1C360.9,110.6,360.9,110.8,360.2,110.8
			 M357.1,106.6c-1.4,0-1.9,1.2-2,2.6c0,0.2,0,0.4,0.2,0.4h3.5c0.2,0,0.2-0.1,0.2-0.3C359,107.5,358.5,106.6,357.1,106.6"/>
		<path class="st1" d="M244.2,131.7h-3.9c-0.3,0-0.4-0.1-0.4-0.5v-11.7c0-0.4,0-0.6,0.3-0.6h3.4c3,0,4.7,0.9,4.7,3.2
			c0,1.6-0.8,2.6-2,3.1c1.2,0.4,2.2,1.2,2.2,3.1C248.5,130.5,247.3,131.7,244.2,131.7 M243.6,120.4h-1.4c-0.3,0-0.3,0.2-0.3,0.3v3.4
			c0,0.2,0.1,0.3,0.3,0.3h1.4c1.8,0,2.6-0.6,2.6-2C246.3,120.9,245.3,120.4,243.6,120.4 M243.7,126.1h-1.4c-0.3,0-0.3,0.1-0.3,0.3
			v3.5c0,0.1,0.1,0.3,0.3,0.3h1.4c1.8,0,2.8-0.5,2.8-2C246.5,126.8,245.4,126.1,243.7,126.1"/>
		<path class="st1" d="M257.3,127.6h-5.2c0,2,1,2.8,2.6,2.8c1.4,0,2.3-0.3,2.6-0.4c0.3-0.1,0.5,0,0.5,0.2v0.9c0,0.3-0.1,0.4-0.6,0.5
			c-0.2,0.1-1.5,0.3-2.6,0.3c-3,0-4.5-1.3-4.5-4.8c0-3.3,1.4-5,4-5c2.4,0,3.8,1.3,3.8,3.7v1.1C258,127.4,258,127.6,257.3,127.6
			 M254.2,123.4c-1.4,0-2,1.2-2,2.6c0,0.2,0,0.4,0.2,0.4h3.5c0.2,0,0.2-0.1,0.2-0.3C256.1,124.3,255.6,123.4,254.2,123.4"/>
		<path class="st1" d="M261.4,131.7h-1.2c-0.4,0-0.4-0.1-0.4-0.6v-11.9c0-0.3,0.1-0.5,0.4-0.5h1.1c0.4,0,0.4,0.1,0.4,0.5v11.8
			C261.8,131.6,261.7,131.7,261.4,131.7"/>
		<path class="st1" d="M267.8,131.9c-2.7,0-4.3-1.1-4.3-4.8c0-3.6,1.7-5,4.4-5c2.6,0,4.1,1.4,4.1,5
			C272,130.2,270.4,131.9,267.8,131.9 M270,126.1c0-1.5-0.6-2.7-2.1-2.7c-1.3,0-2.2,0.9-2.2,2.8v1.7c0,1.9,1,2.7,2.2,2.7
			c1.3,0,2.1-1.1,2.1-2.9V126.1z"/>
		<path class="st1" d="M286.7,131.7h-1.3c-0.3,0-0.4-0.1-0.4-0.5v-5c0-0.3-0.1-0.4-0.3-0.4h-4.5c-0.2,0-0.3,0-0.3,0.3v5
			c0,0.5-0.1,0.6-0.5,0.6H278c-0.3,0-0.4-0.2-0.4-0.7v-11.7c0-0.3,0.1-0.5,0.4-0.5h1.3c0.4,0,0.5,0.1,0.5,0.6v4.4
			c0,0.3,0.1,0.3,0.4,0.3h4.4c0.2,0,0.3-0.1,0.3-0.3v-4.5c0-0.3,0.1-0.5,0.5-0.5h1.2c0.4,0,0.4,0.1,0.4,0.4v11.8
			C287,131.6,287,131.7,286.7,131.7"/>
		<path class="st1" d="M293.3,131.9c-2.7,0-4.3-1.1-4.3-4.8c0-3.6,1.7-5,4.4-5c2.6,0,4.1,1.4,4.1,5
			C297.5,130.2,295.9,131.9,293.3,131.9 M295.5,126.1c0-1.5-0.6-2.7-2.1-2.7c-1.3,0-2.2,0.9-2.2,2.8v1.7c0,1.9,1,2.7,2.2,2.7
			c1.3,0,2.1-1.1,2.1-2.9V126.1z"/>
		<path class="st1" d="M304.2,123.5c0,0.2-0.1,0.3-0.3,0.3c-0.5,0-1,0.1-1.4,0.4c-0.8,0.5-1.3,1.1-1.3,1.7v5.2c0,0.5,0,0.7-0.3,0.7
			h-1.1c-0.4,0-0.5-0.2-0.5-0.7v-8.2c0-0.3,0.1-0.5,0.4-0.5h1.1c0.2,0,0.4,0.1,0.4,0.5v0.9c0.7-1,1.7-1.5,2.8-1.5
			c0.1,0,0.3,0,0.3,0.2L304.2,123.5z"/>
		<path class="st1" d="M307,120.7h-1.2c-0.3,0-0.4-0.1-0.4-0.6v-0.6c0-0.4,0.1-0.5,0.5-0.5h1.1c0.4,0,0.4,0.2,0.4,0.6v0.6
			C307.4,120.6,307.3,120.7,307,120.7 M307,131.7h-1.2c-0.3,0-0.4-0.2-0.4-0.6v-8.2c0-0.3,0.1-0.5,0.4-0.5h1.1
			c0.4,0,0.4,0.1,0.4,0.5v8.2C307.4,131.6,307.4,131.7,307,131.7"/>
		<path class="st1" d="M315.6,131.7h-6.1c-0.8,0-0.8-0.4-0.5-0.8l4.3-7.2h-3.9c-0.3,0-0.4,0-0.4-0.4v-0.6c0-0.3,0.1-0.3,0.4-0.3h6
			c0.6,0,0.8,0.1,0.5,0.6l-4.4,7.4h4.2c0.3,0,0.5,0,0.5,0.4v0.6C316,131.7,315.9,131.7,315.6,131.7"/>
		<path class="st1" d="M321.5,131.9c-2.7,0-4.3-1.1-4.3-4.8c0-3.6,1.7-5,4.4-5c2.6,0,4.1,1.4,4.1,5
			C325.6,130.2,324.1,131.9,321.5,131.9 M323.6,126.1c0-1.5-0.6-2.7-2.1-2.7c-1.3,0-2.2,0.9-2.2,2.8v1.7c0,1.9,1,2.7,2.2,2.7
			c1.3,0,2.1-1.1,2.1-2.9V126.1z"/>
		<path class="st1" d="M334.5,131.7h-1.1c-0.3,0-0.5-0.2-0.5-0.6v-5.5c0-0.9-0.4-1.7-1.6-1.7c-1.3,0-1.9,1.1-1.9,2v5.2
			c0,0.5,0,0.7-0.3,0.7h-1.1c-0.4,0-0.5-0.2-0.5-0.7v-8.2c0-0.3,0.1-0.5,0.4-0.5h1.1c0.3,0,0.4,0.3,0.4,1.1c0.6-0.8,1.4-1.3,2.8-1.3
			c1.5,0,2.8,0.8,2.8,3v5.8C334.9,131.5,334.8,131.7,334.5,131.7"/>
		<path class="st1" d="M341.2,123.9h-1.6v5.7c0,0.6,0.3,0.9,0.8,0.9c0.3,0,0.5,0,0.9-0.1c0.2,0,0.3,1.2,0.2,1.3
			c-0.3,0.1-1,0.2-1.6,0.2c-1.7,0-2.2-1.1-2.2-2.3v-5.7h-0.9c-0.2,0-0.3-0.1-0.3-0.4v-0.7c0-0.3,0.1-0.3,0.4-0.3h0.8v-1.7
			c0-0.3,0.2-0.4,0.5-0.4l0.9-0.2c0.4-0.1,0.5,0.1,0.5,0.4v1.9h1.7c0.3,0,0.4,0.2,0.4,0.4v0.7C341.6,123.8,341.6,123.9,341.2,123.9"
			/>
		<path class="st1" d="M350,127.6h-5.2c0,2,1,2.8,2.6,2.8c1.4,0,2.3-0.3,2.6-0.4c0.3-0.1,0.5,0,0.5,0.2v0.9c0,0.3-0.1,0.4-0.6,0.5
			c-0.2,0.1-1.5,0.3-2.6,0.3c-3,0-4.5-1.3-4.5-4.8c0-3.3,1.4-5,4-5c2.4,0,3.8,1.3,3.8,3.7v1.1C350.8,127.4,350.7,127.6,350,127.6
			 M346.9,123.4c-1.4,0-2,1.2-2,2.6c0,0.2,0,0.4,0.2,0.4h3.5c0.2,0,0.2-0.1,0.2-0.3C348.8,124.3,348.3,123.4,346.9,123.4"/>
	</g>
	<rect x="218.1" class="st1" width="0.3" height="146.1"/>
	<rect x="239.7" y="71.5" class="st1" width="136" height="0.3"/>
	<polygon class="st0" points="7.3,40.3 11.8,40.3 11.8,47.6 18.4,47.6 18.4,40.3 22.8,40.3 22.8,58.5 18.4,58.5 18.4,51.4 
		11.8,51.4 11.8,58.5 7.3,58.5 	"/>
	<g>
		<path class="st0" d="M26.2,40.3h4.4v11.5c0,1.9,1.2,2.9,3.1,2.9c1.9,0,3.1-1,3.1-2.9V40.3h4.4v11.5c0,4.1-3,7-7.6,7
			c-4.6,0-7.6-2.9-7.6-7V40.3z"/>
		<path class="st0" d="M51.8,54.7c1.3,0,1.9-0.9,1.9-1.9c0-1-0.6-1.9-1.9-1.9h-2.7v3.8H51.8z M51.4,47.4c1.1,0,1.6-0.8,1.6-1.7
			c0-0.8-0.5-1.5-1.7-1.5h-2.2v3.2H51.4z M44.7,40.3h6.7c3.6,0,6.2,1.6,6.2,4.7c0,1.5-0.7,3.1-2.1,3.9V49c2.1,0.6,2.8,2.5,2.8,4.1
			c0,4-3.3,5.4-6.9,5.4h-6.7V40.3z"/>
	</g>
	<polygon class="st0" points="66,40.3 70.4,40.3 70.4,54.7 77.8,54.7 77.8,58.5 66,58.5 	"/>
	<g>
		<path class="st0" d="M87.7,54.7c2.7,0,4.9-2.3,4.9-5.4c0-3-2.2-5.2-4.9-5.2c-2.7,0-4.9,2.2-4.9,5.2C82.8,52.4,85,54.7,87.7,54.7
			 M87.7,40c5.5,0,9.5,4.1,9.5,9.3c0,5.3-4,9.5-9.5,9.5c-5.5,0-9.5-4.2-9.5-9.5C78.2,44.1,82.2,40,87.7,40"/>
		<path class="st0" d="M107.9,40c4.6,0,7,2.4,7,2.4l-2.1,3.3c0,0-1.9-1.7-4.4-1.7c-3.8,0-5.4,2.4-5.4,5.1c0,3.4,2.4,5.5,5.2,5.5
			c2.1,0,3.7-1.3,3.7-1.3V52h-2.6v-3.8h6.5v10.2h-3.7V58c0-0.4,0-0.8,0-0.8H112c0,0-1.7,1.6-4.8,1.6c-4.6,0-8.9-3.5-8.9-9.4
			C98.4,44.1,102.4,40,107.9,40"/>
	</g>
	<path class="st0" d="M121,35.4h4.3l-3,3.8h-3.4L121,35.4z M118.5,40.3h4.4v18.1h-4.4V40.3z"/>
	<g>
		<path class="st0" d="M127.5,52.8c0,0,2.1,1.9,4.3,1.9c0.9,0,1.9-0.4,1.9-1.4c0-2.2-8.2-2.1-8.2-7.7c0-3.3,2.8-5.6,6.4-5.6
			c3.9,0,5.8,2.1,5.8,2.1l-1.9,3.6c0,0-1.8-1.6-4-1.6c-0.9,0-1.9,0.4-1.9,1.4c0,2.3,8.2,1.9,8.2,7.6c0,3-2.3,5.6-6.4,5.6
			c-4.3,0-6.6-2.6-6.6-2.6L127.5,52.8z"/>
	</g>
	<polygon class="st0" points="144.1,44.1 138.6,44.1 138.6,40.3 154,40.3 154,44.1 148.5,44.1 148.5,58.5 144.1,58.5 	"/>
	<rect x="155.6" y="40.3" class="st0" width="4.4" height="18.1"/>
	<g>
		<path class="st0" d="M172,40c4.5,0,6.8,2.6,6.8,2.6l-2.1,3.3c0,0-2-1.9-4.5-1.9c-3.5,0-5.1,2.6-5.1,5.2c0,2.7,1.8,5.5,5.1,5.5
			c2.7,0,4.8-2.2,4.8-2.2l2.3,3.2c0,0-2.6,3-7.3,3c-5.7,0-9.5-4-9.5-9.4C162.5,44.1,166.5,40,172,40"/>
		<path class="st0" d="M189.5,54.7c2.7,0,4.9-2.3,4.9-5.4c0-3-2.2-5.2-4.9-5.2c-2.7,0-4.9,2.2-4.9,5.2
			C184.6,52.4,186.8,54.7,189.5,54.7 M189.5,40c5.5,0,9.5,4.1,9.5,9.3c0,5.3-4,9.5-9.5,9.5c-5.5,0-9.5-4.2-9.5-9.5
			C180,44.1,184,40,189.5,40"/>
		<path class="st0" d="M35.9,67.4h4.8l2.6,7.7c0.4,1.2,0.9,3,0.9,3h0.1c0,0,0.5-1.8,0.9-3l2.6-7.7h4.8l1.5,18.1h-4.4l-0.6-8.2
			c-0.1-1.4,0-3,0-3h-0.1c0,0-0.6,1.9-1,3l-1.9,5.3h-3.8l-1.9-5.3c-0.4-1.1-1-3-1-3h-0.1c0,0,0.1,1.7,0,3l-0.6,8.2h-4.5L35.9,67.4z"
			/>
		<path class="st0" d="M57,67.4h4.4v11.5c0,1.9,1.2,2.9,3.1,2.9c1.9,0,3.1-1,3.1-2.9V67.4h4.4v11.5c0,4.1-3,7-7.6,7
			c-4.6,0-7.6-2.9-7.6-7V67.4z"/>
	</g>
	<polygon class="st0" points="75.5,67.4 80,67.4 80,81.8 87.4,81.8 87.4,85.6 75.5,85.6 	"/>
	<polygon class="st0" points="91.4,71.2 85.9,71.2 85.9,67.4 101.3,67.4 101.3,71.2 95.8,71.2 95.8,85.6 91.4,85.6 	"/>
	<rect x="102.9" y="67.4" class="st0" width="4.4" height="18.1"/>
	<g>
		<path class="st0" d="M111.9,67.4h4.8l2.6,7.7c0.4,1.2,0.9,3,0.9,3h0.1c0,0,0.5-1.8,0.9-3l2.6-7.7h4.8l1.5,18.1h-4.4l-0.6-8.2
			c-0.1-1.4,0-3,0-3h-0.1c0,0-0.6,1.9-1,3l-1.9,5.3h-3.8l-1.9-5.3c-0.4-1.1-1-3-1-3h-0.1c0,0,0.1,1.7,0,3l-0.6,8.2h-4.5L111.9,67.4z
			"/>
		<path class="st0" d="M141.5,81.8c2.7,0,4.9-2.3,4.9-5.4c0-3-2.2-5.2-4.9-5.2c-2.7,0-4.9,2.2-4.9,5.2
			C136.6,79.5,138.8,81.8,141.5,81.8 M141.5,67.1c5.5,0,9.5,4.1,9.5,9.3c0,5.3-4,9.5-9.5,9.5c-5.5,0-9.5-4.2-9.5-9.5
			C132,71.2,136,67.1,141.5,67.1"/>
		<path class="st0" d="M159.6,81.8c3.1,0,4.9-1.8,4.9-5.3c0-3.4-2-5.2-4.9-5.2h-1.8v10.5H159.6z M153.4,67.4h6.4
			c5.7,0,9.4,3.3,9.4,9s-3.7,9.1-9.4,9.1h-6.4V67.4z"/>
		<path class="st0" d="M177.8,71.6c0,0-0.4,2-0.7,3.1l-1,3.5h3.6l-1-3.5C178.2,73.5,177.8,71.6,177.8,71.6L177.8,71.6z M180.6,81.8
			H175l-1.1,3.8h-4.6l6.2-18.1h4.7l6.2,18.1h-4.6L180.6,81.8z"/>
	</g>
	<polygon class="st0" points="187.7,67.4 192.1,67.4 192.1,81.8 199.5,81.8 199.5,85.6 187.7,85.6 	"/>
	<rect x="46.4" y="103.3" class="st1" width="0.6" height="10.3"/>
	<g>
		<path class="st1" d="M50.2,103.3h0.6l5.9,8.1c0.3,0.5,0.8,1.3,0.8,1.3h0c0,0-0.1-0.8-0.1-1.3v-8.1h0.6v10.3h-0.6l-5.9-8.1
			c-0.3-0.5-0.8-1.3-0.8-1.3h0c0,0,0.1,0.8,0.1,1.3v8.1h-0.6V103.3z"/>
	</g>
	<polygon class="st1" points="63.6,103.9 59.8,103.9 59.8,103.3 68.1,103.3 68.1,103.9 64.2,103.9 64.2,113.6 63.6,113.6 	"/>
	<polygon class="st1" points="69.8,103.3 75.4,103.3 75.4,103.9 70.4,103.9 70.4,108.2 74.5,108.2 74.5,108.7 70.4,108.7 70.4,113 
		75.7,113 75.7,113.6 69.8,113.6 	"/>
	<g>
		<path class="st1" d="M82.5,103.2c2.3,0,3.6,1.2,3.6,1.2l-0.4,0.5c0,0-1.2-1-3.2-1c-2.6,0-4.5,2.1-4.5,4.7c0,2.7,1.8,4.7,4.4,4.7
			c2.2,0,3.5-1.7,3.5-1.7v-2h-1.8v-0.6h2.5v4.7h-0.6v-0.9c0-0.2,0-0.4,0-0.4h0c0,0-1.2,1.5-3.5,1.5c-2.9,0-5-2.3-5-5.3
			C77.4,105.5,79.6,103.2,82.5,103.2"/>
		<path class="st1" d="M92.6,108.5c1.4,0,2.2-1,2.2-2.4c0-0.9-0.5-1.6-1.2-2c-0.3-0.1-0.6-0.2-1.4-0.2h-2.4v4.6H92.6z M89.2,103.3h3
			c1,0,1.4,0.1,1.9,0.3c0.9,0.4,1.4,1.3,1.4,2.5c0,1.5-0.9,2.6-2.1,2.8v0c0,0,0.1,0.1,0.2,0.4l2.3,4.3h-0.7l-2.4-4.6h-3v4.6h-0.6
			V103.3z"/>
		<path class="st1" d="M101.2,104.1c0,0-0.2,0.8-0.4,1.2l-1.6,4.2h3.9l-1.6-4.2C101.4,104.9,101.2,104.1,101.2,104.1L101.2,104.1z
			 M103.4,110.1H99l-1.3,3.6H97l3.9-10.3h0.7l3.8,10.3h-0.7L103.4,110.1z"/>
		<path class="st1" d="M110.4,113c2.7,0,4.6-1.6,4.6-4.6c0-2.9-1.8-4.6-4.6-4.6h-2.5v9.1H110.4z M107.2,103.3h3.2
			c3.1,0,5.1,1.9,5.1,5.1c0,3.3-2.1,5.1-5.1,5.1h-3.2V103.3z"/>
		<path class="st1" d="M122.6,113.2c2.5,0,4.5-2.1,4.5-4.8c0-2.6-2-4.6-4.5-4.6c-2.5,0-4.5,2-4.5,4.6
			C118.1,111.1,120.1,113.2,122.6,113.2 M122.6,103.2c2.9,0,5.2,2.3,5.2,5.2c0,3-2.3,5.4-5.2,5.4c-2.9,0-5.2-2.4-5.2-5.4
			C117.4,105.5,119.7,103.2,122.6,103.2"/>
	</g>
	<rect x="129.3" y="112.7" class="st1" width="0.9" height="0.9"/>
	<g>
		<path class="st0" d="M141.6,103.2c2.3,0,3.6,1.2,3.6,1.2l-0.4,0.5c0,0-1.2-1-3.2-1c-2.6,0-4.5,2.1-4.5,4.7c0,2.7,1.8,4.7,4.4,4.7
			c2.2,0,3.5-1.7,3.5-1.7v-2h-1.8v-0.6h2.5v4.7h-0.6v-0.9c0-0.2,0-0.4,0-0.4h0c0,0-1.2,1.5-3.5,1.5c-2.9,0-5-2.3-5-5.3
			C136.5,105.5,138.7,103.2,141.6,103.2"/>
	</g>
	<polygon class="st0" points="148.3,103.3 149,103.3 149,113 153.9,113 153.9,113.6 148.3,113.6 	"/>
	<g>
		<path class="st0" d="M159.7,113.2c2.5,0,4.5-2.1,4.5-4.8c0-2.6-2-4.6-4.5-4.6c-2.5,0-4.5,2-4.5,4.6
			C155.2,111.1,157.2,113.2,159.7,113.2 M159.7,103.2c2.9,0,5.2,2.3,5.2,5.2c0,3-2.3,5.4-5.2,5.4c-2.9,0-5.2-2.4-5.2-5.4
			C154.5,105.5,156.9,103.2,159.7,103.2"/>
		<path class="st0" d="M170.9,113c1.4,0,2.3-0.9,2.3-2.2s-1-2.3-2.3-2.3H168v4.5H170.9z M170.8,107.9c1.1,0,2-0.8,2-2
			c0-1.2-0.8-2-2-2H168v4H170.8z M167.4,103.3h3.5c1.5,0,2.6,1,2.6,2.6c0,1.1-0.5,1.9-1.3,2.2v0c1,0.3,1.7,1.3,1.7,2.6
			c0,1.7-1.2,2.8-2.9,2.8h-3.6V103.3z"/>
		<path class="st0" d="M179.3,104.1c0,0-0.2,0.8-0.4,1.2l-1.6,4.2h3.9l-1.6-4.2C179.6,104.9,179.4,104.1,179.3,104.1L179.3,104.1z
			 M181.5,110.1h-4.4l-1.3,3.6h-0.7l3.9-10.3h0.7l3.9,10.3h-0.7L181.5,110.1z"/>
	</g>
	<polygon class="st0" points="185.4,103.3 186,103.3 186,113 190.9,113 190.9,113.6 185.4,113.6 	"/>
	<rect x="192.6" y="112.7" class="st0" width="0.9" height="0.9"/>
	<g>
		<path class="st0" d="M189.5,28.3c-1.2,0-2.2,1-2.2,2.2c0,1.2,1,2.2,2.2,2.2c1.2,0,2.2-1,2.2-2.2C191.7,29.3,190.7,28.3,189.5,28.3
			 M189.5,33.7c-1.8,0-3.2-1.4-3.2-3.2s1.4-3.2,3.2-3.2c1.8,0,3.2,1.4,3.2,3.2S191.3,33.7,189.5,33.7"/>
	</g>
	
		<rect x="196.8" y="52.1" transform="matrix(0.7444 -0.6677 0.6677 0.7444 10.9786 146.8007)" class="st0" width="1" height="13.8"/>
	<g>
		<path class="st0" d="M204.6,63.1c-1,0-2,0.3-2.7,1c-0.8,0.7-1.3,1.7-1.4,2.8c-0.1,1.1,0.3,2.1,1,3c0.7,0.8,1.7,1.3,2.8,1.4
			c1.1,0.1,2.1-0.3,3-1c0.8-0.7,1.3-1.7,1.4-2.8c0.1-1.1-0.3-2.1-1-3C206.8,63.6,205.7,63.1,204.6,63.1 M204.6,72.3
			c-0.1,0-0.2,0-0.3,0c-1.4-0.1-2.6-0.7-3.5-1.7c-0.9-1-1.4-2.3-1.3-3.7c0.1-1.4,0.7-2.6,1.7-3.5c2.1-1.9,5.3-1.7,7.2,0.4
			c0.9,1,1.4,2.3,1.3,3.7c-0.1,1.4-0.7,2.6-1.7,3.5C207.1,71.8,205.9,72.3,204.6,72.3"/>
	</g>
	<rect x="194.3" y="44.7" transform="matrix(0.8688 -0.4952 0.4952 0.8688 3.5491 103.8244)" class="st0" width="6.8" height="1"/>
	<rect x="181.4" y="58.9" transform="matrix(0.5372 -0.8435 0.8435 0.5372 35.4863 183.3701)" class="st0" width="6.8" height="1"/>
	<g>
		<path class="st0" d="M202.6,40.6c-0.2,0-0.5,0.1-0.7,0.2c-0.7,0.4-1,1.3-0.6,2c0.4,0.7,1.3,1,2,0.6c0.7-0.4,1-1.3,0.6-2
			C203.7,40.9,203.1,40.6,202.6,40.6 M202.6,44.6c-0.9,0-1.7-0.4-2.1-1.2c-0.7-1.2-0.3-2.7,0.9-3.4c1.2-0.7,2.7-0.3,3.4,0.9
			c0.7,1.2,0.3,2.7-0.9,3.4C203.5,44.5,203,44.6,202.6,44.6"/>
		<path class="st0" d="M181.9,62.3c-0.3,0-0.5,0.1-0.7,0.2c-0.3,0.2-0.6,0.5-0.7,0.9c-0.1,0.4-0.1,0.8,0.1,1.1c0.4,0.7,1.3,1,2,0.6
			c0.7-0.4,1-1.3,0.6-2c-0.2-0.3-0.5-0.6-0.9-0.7C182.2,62.3,182.1,62.3,181.9,62.3 M181.9,66.2c-0.9,0-1.7-0.4-2.1-1.2
			c-0.3-0.6-0.4-1.2-0.2-1.9c0.2-0.6,0.6-1.2,1.2-1.5c0.6-0.3,1.2-0.4,1.9-0.2c0.6,0.2,1.2,0.6,1.5,1.2c0.7,1.2,0.3,2.7-0.9,3.4
			C182.8,66.1,182.4,66.2,181.9,66.2"/>
	</g>
	<rect x="189" y="33.3" class="st0" width="1" height="8.3"/>
</g>
</svg>
