<?xml version="1.0" encoding="utf-8"?>
<!-- Generator: Adobe Illustrator 24.1.2, SVG Export Plug-In . SVG Version: 6.00 Build 0)  -->
<svg version="1.1" id="Camada_1" xmlns="http://www.w3.org/2000/svg" xmlns:xlink="http://www.w3.org/1999/xlink" x="0px" y="0px"
	 viewBox="0 0 595.3 141.3" style="enable-background:new 0 0 595.3 141.3;" xml:space="preserve">
<style type="text/css">
	.st0{fill:#A7A9AB;}
	.st1{fill:#097BBF;}
</style>
<g>
	<g>
		<g>
			<path class="st0" d="M37.9,130.3c-1.6,0.5-3.3,0.6-5,0.7c-5.7,0.4-10.3-2-14.4-5.8c-4.6-4.3-5-9.6-4.2-15.2
				c0.6-4.8,3.4-8.5,6.7-11.8c2.8-2.7,5.6-5.3,8.3-8.1c4-3.9,7.3-8.4,8.6-13.9c1.8-7.5-0.3-14.7-7-19.4c-2.9-2-6-3.9-9-5.8
				c-4-2.6-6.4-6.2-6.9-10.9c-0.4-4.1,0.9-7.8,4.2-10.7c0.6-0.5,1.2-1,1.9-1.4c-1.4,0.8-2.7,1.7-4,2.8c-3.3,2.8-4.6,6.5-4.2,10.7
				c0.5,4.6,2.9,8.3,6.9,10.9c3,1.9,6,3.8,9,5.8c6.8,4.6,8.8,11.9,7,19.4c-1.3,5.5-4.6,10-8.6,13.9c-2.7,2.7-5.6,5.4-8.3,8.1
				c-3.3,3.3-6.1,7-6.7,11.8c-0.8,5.7-0.3,11,4.2,15.2c4.1,3.8,8.7,6.2,14.4,5.8c1.7-0.1,3.4-0.2,5-0.7c1.7-0.5,3.2-1.5,4.7-2.4
				c0.4-0.3,0.9-0.5,1.3-0.8C40.5,129.2,39.2,129.9,37.9,130.3z"/>
		</g>
		<g>
			<path class="st0" d="M64.1,46.5c1.4,2.3,2,4.6,1.5,7.2c-0.6,3.1-1.8,5.8-4.1,7.6c3.7-1.8,5.4-5.1,6.2-9c0.5-2.6-0.1-4.8-1.5-7.2
				c-2.3-3.6-5.4-6.5-7.8-10c-2.4-3.4-3.6-7.2-2.4-11.3c0.7-2.3,1.4-4.7,2.5-6.9c1.2-2.3,2.7-4.2,4.5-5.6c-2.8,1.4-5,3.7-6.6,6.9
				c-1.1,2.2-1.8,4.5-2.5,6.9c-1.2,4.2,0,7.9,2.4,11.3C58.7,39.9,61.9,42.8,64.1,46.5z"/>
		</g>
		<g>
			<path class="st0" d="M78.6,112.2c-2.4,0.2-4.8,0.2-7.1-0.4c-4.6-1.1-7.4-4.1-9.6-8.1c-2.2-4-2.1-8-0.7-12
				c1.8-5.1,3.8-10.1,5.6-15.2c0.5-1.3,0.9-2.7,1.2-4c0.4-2.9-1-5-3.8-5.8c-2.6-0.7-5.1-0.6-7.6,0.3c-1.1,0.4-2.3,0.9-3.3,1.5
				c-0.4,0.2-0.7,0.5-1.1,0.7c0.7-0.4,1.4-0.7,2.2-0.9c2.5-0.9,5.1-1,7.6-0.3c2.8,0.8,4.3,2.9,3.8,5.8c-0.2,1.4-0.7,2.7-1.2,4
				c-1.9,5.1-3.9,10.1-5.6,15.2c-1.4,4-1.5,8,0.7,12c2.2,4,5,7,9.6,8.1c2.3,0.6,4.7,0.6,7.1,0.4c1.7-0.2,3.4-0.5,4.9-1.5
				c0.4-0.2,0.7-0.5,1-0.7C81.2,111.8,80,112.1,78.6,112.2z"/>
		</g>
	</g>
</g>
<path class="st1" d="M36,24.1c3-0.1,6.1,0.8,8.8,3.2c1.9,1.7,3.1,4,3.7,6.5c0.8,3.3,0.7,6.5,0.3,9.8c-0.3,2.6-0.4,5.3-0.2,7.9
	c0.3,3.8,1.6,7.4,5,9.7c2,1.4,4.2,1.8,6.5,1.2c1.1-0.3,2.2-0.5,3.2-0.9c4.1-1.7,6-5.1,6.8-9.2c0.5-2.6-0.1-4.8-1.5-7.2
	c-2.3-3.6-5.4-6.5-7.8-10c-2.4-3.4-3.6-7.2-2.4-11.3c0.7-2.3,1.4-4.7,2.5-6.9c2.7-5.5,7.3-8.3,13.5-8.6c3.4-0.1,6.7,0.4,9.9,1.7
	c2.9,1.2,4.9,3.5,6.5,6.1c2.7,4.5,3.3,9.4,1.9,14.5c-0.8,2.9-2.5,5.2-4.5,7.3c-2.5,2.5-5.1,4.9-7.7,7.3c-2.2,2.1-3.9,4.6-5.2,7.4
	c-1.5,3.2-2.1,6.6-1.1,10c0.6,1.9,1.4,3.8,2.3,5.6c3.3,6.3,8,11.7,12,17.5c1.5,2.2,2.9,4.6,3.9,7c0.8,1.9,1,4.1,0.7,6.3
	c-0.6,5.1-3.1,9-7.4,11.8c-1.5,1-3.1,1.3-4.9,1.5c-2.4,0.2-4.8,0.2-7.1-0.4c-4.6-1.1-7.4-4.1-9.6-8.1c-2.2-4-2.1-8-0.7-12
	c1.8-5.1,3.8-10.1,5.6-15.2c0.5-1.3,0.9-2.7,1.2-4c0.4-2.9-1-5-3.8-5.8c-2.6-0.7-5.1-0.6-7.6,0.3c-1.1,0.4-2.3,0.9-3.3,1.5
	c-3.4,2.1-5.3,5.2-5.3,9.3c0,2.6,0.8,4.9,1.7,7.3c0.9,2.3,1.7,4.7,2.5,7.1c0.5,1.5,0.8,3.1,1.2,4.6c1.2,4.5,1.2,9.1,0.6,13.6
	c-1,7.6-4.7,13.5-11.3,17.5c-1.5,0.9-3.1,1.9-4.7,2.4c-1.6,0.5-3.3,0.6-5,0.7c-5.7,0.4-10.3-2-14.4-5.8c-4.6-4.3-5-9.6-4.2-15.2
	c0.6-4.8,3.4-8.5,6.7-11.8c2.8-2.7,5.6-5.3,8.3-8.1c4-3.9,7.3-8.4,8.6-13.9c1.8-7.5-0.3-14.7-7-19.4c-2.9-2-6-3.9-9-5.8
	c-4-2.6-6.4-6.2-6.9-10.9c-0.4-4.1,0.9-7.8,4.2-10.7C25.4,26,30.1,24.1,36,24.1z"/>
<path class="st0" d="M520.8,61.6c-0.4,0.4-0.7,0.6-0.9,0.9c-0.8,1.7-1.5,3.4-2.2,5.1c-1.1,2.5-2.3,5.1-3.5,7.6
	c-1.1,2.5-2.2,5-3.4,7.5c-0.8,1.9-1.7,3.7-2.6,5.6c-0.8,1.7-1.5,3.4-2.2,5.1c-0.3,0.7-0.8,1-1.5,0.9c-1.9,0-3.8,0-5.8,0
	c-0.8,0-1.5-0.3-1.8-1.1c-1-2.4-2.2-4.7-3.2-7c-1.3-2.8-2.5-5.6-3.8-8.4c-0.8-1.7-1.7-3.3-2.5-5c-0.8-1.7-1.5-3.5-2.3-5.2
	c-0.9-1.9-1.8-3.7-2.8-5.6c-0.1-0.2-0.2-0.4-0.4-0.6c-0.1,0-0.2,0.1-0.3,0.1c0,0.3-0.1,0.7-0.1,1c0,10.2,0,20.3,0.1,30.5
	c0,0.9-0.3,1.3-1.2,1.3c-1.8,0-3.6,0-5.4,0c-0.8,0-1.3-0.4-1.3-1.3c0-9.2,0-18.3,0-27.5c0-3.5,0-6.9,0-10.4c0-1.5,0.4-1.8,1.9-1.8
	c2.8,0,5.5,0,8.3,0c1.2,0,1.9,0.4,2.5,1.6c2.8,5.8,5.7,11.4,8.5,17.2c1.8,3.7,3.5,7.4,5.3,11.1c0.3,0.7,0.6,1.4,1,2.1
	c0.1,0.3,0.5,0.5,0.7,0.5c0.2,0,0.5-0.4,0.7-0.6c1.9-4.2,3.9-8.4,5.8-12.6c1.8-4,3.6-8,5.4-12c0.9-2.1,1.9-4.2,2.9-6.2
	c0.2-0.4,0.9-0.8,1.3-0.8c3.2-0.1,6.4-0.1,9.6-0.1c0.9,0,1.3,0.5,1.3,1.3c0,0.5,0,1,0,1.5c0,11.9,0,23.7,0,35.6c0,2.6,0,2.6-2.6,2.6
	c-1.4,0-2.8,0-4.1,0c-0.8,0-1.3-0.4-1.3-1.3c0-8.7,0-17.3,0-26c0-1.5,0-3,0-4.5C521,62.2,520.9,62,520.8,61.6z"/>
<path class="st0" d="M118.3,70.9c0-7.3,0-14.5,0-21.8c0-1.5,0.3-1.8,1.7-1.8c2.2,0,4.3,0,6.5,0c1.1,0,1.5,0.3,1.5,1.4
	c0,5.8,0,11.5,0,17.3c0,1.3,0.1,1.5,1.4,1.5c9.1,0,18.2,0,27.4,0c1.4,0,1.5-0.2,1.5-1.7c0-5.7,0-11.3,0-17c0-1.2,0.4-1.6,1.7-1.6
	c2.1,0,4.1,0,6.2,0c1.1,0,1.5,0.3,1.5,1.4c0,0.4,0,0.7,0,1.1c0,14.3,0,28.7,0,43c0,1.1-0.2,1.4-1.3,1.4c-2.2,0-4.4,0-6.6,0
	c-1.3,0-1.5-0.3-1.5-1.5c0-6,0-12.1,0.1-18.1c0-0.6-0.3-1-0.9-1c-0.3,0-0.6,0-0.9,0c-9,0-18,0-27,0c-1.6,0-1.6,0.1-1.6,1.7
	c0,5.9,0,11.9,0,17.8c0,0.8-0.4,1.2-1.1,1.2c-2.5,0-5,0-7.6,0c-0.8,0-1.1-0.5-1.1-1.3C118.3,85.6,118.3,78.3,118.3,70.9
	C118.3,70.9,118.3,70.9,118.3,70.9z"/>
<path class="st0" d="M422.6,73.9c0-6.3,0-12.6,0-18.9c0-0.9,0.4-1.2,1.2-1.3c0.2,0,0.5,0,0.7,0c8.5,0,17.1-0.1,25.6,0.1
	c3.1,0.1,6.4,0.5,9.2,2.1c3.6,2,5.7,5.3,5.4,9.6c-0.3,3.9-2.4,6.5-5.8,8.1c-0.9,0.4-1.8,0.6-2.7,0.9c-0.2,0.1-0.6,0.3-0.6,0.4
	c0,0.2,0.2,0.5,0.4,0.6c0.8,0.4,1.6,0.8,2.4,1.2c3.7,2.2,4.7,5.8,5.1,9.8c0.2,1.4,0.2,2.9,0.3,4.3c0.1,0.7,0.3,1.4,0.6,2.1
	c0.3,0.8,0.1,1.2-0.7,1.2c-2.2,0-4.4,0-6.6,0c-0.8,0-1.3-0.6-1.4-1.4c-0.1-0.8-0.1-1.7-0.2-2.5c-0.4-2.2-0.5-4.5-1.2-6.6
	c-0.7-2.3-2.2-4.1-4.5-5.2c-1.7-0.8-3.5-1.1-5.3-1.5c-4-0.9-8-0.3-12.1-0.4c-1.8-0.1-1.8,0-1.8,1.8c0,4.9,0,9.8,0,14.6
	c0,0.8-0.4,1.2-1.1,1.2c-2.1,0-4.1,0-6.2,0c-0.8,0-1.1-0.5-1.1-1.3C422.6,86.6,422.6,80.3,422.6,73.9z M440.9,58.8
	c-2.9,0-5.9,0-8.8,0c-1.1,0-1.3,0.3-1.3,1.3c0,3.3,0,6.7,0,10c0,0.9,0.3,1.3,1.2,1.3c6.3-0.3,12.6,0.5,18.9-0.5
	c3.8-0.6,5.7-3.7,5-7.3c-0.4-2-1.6-3.5-3.6-4.1c-1.1-0.4-2.3-0.6-3.5-0.6C446.2,58.8,443.6,58.8,440.9,58.8z"/>
<path class="st0" d="M296.1,52.8c1.1,0,2.3-0.1,3.4,0c1.6,0.2,3.2,0.5,4.8,0.8c1,0.2,2,0.5,3,0.8c4.3,1.4,7.7,4,9.8,8.1
	c2.7,5.1,2.9,10.5,2.2,16c-0.4,3.2-1.4,6.2-3.4,8.8c-1.8,2.3-4,4.1-6.8,5.2c-1.4,0.5-2.7,1.2-4.2,1.6c-1.3,0.4-2.8,0.3-4.1,0.7
	c-2,0.7-4.1,0.4-6.1,0.4c-0.6,0-1.3,0.1-1.9,0c-2-0.2-4-0.6-5.9-0.8c-2.2-0.3-4.2-1.1-6.1-2c-3.4-1.7-5.9-4.2-7.5-7.7
	c-1.7-3.9-2.4-8-2.2-12.2c0.3-5.5,1.9-10.5,6.3-14.3c2-1.7,4.1-3.1,6.7-3.7c2.5-0.6,5-1.3,7.5-1.7C293.2,52.6,294.7,52.8,296.1,52.8
	C296.1,52.8,296.1,52.8,296.1,52.8z M310.9,74.5c0.3-2.8-0.2-5.6-1-8.3c-0.3-1.1-0.8-2.1-1.4-3.1c-1.1-1.7-2.6-3-4.6-3.6
	c-1.9-0.6-3.9-1.4-5.8-1.6c-3.1-0.3-6.3-0.2-9.3,0.9c-1.7,0.6-3.4,1.4-4.7,2.6c-2.5,2.2-3.4,5.2-3.8,8.3c-0.6,3.8-0.4,7.7,0.6,11.4
	c0.5,1.8,1.3,3.5,2.6,4.9c2.5,2.8,5.9,3.7,9.3,4c4.1,0.4,8.2,0.1,12-1.7c2.5-1.2,4.4-3.2,5.2-5.8C310.7,79.9,311.2,77.3,310.9,74.5z
	"/>
<path class="st0" d="M353.5,73.6c-5.1,0-10.1,0-15.2,0c-1.7,0-1.7,0-1.7,1.7c0,5.9,0,11.9,0,17.8c0,0.8-0.3,1.2-1.2,1.2
	c-2.3,0-4.6,0-6.9,0c-1.1,0-1.4-0.3-1.4-1.4c0-9.6,0-19.2,0-28.8c0-2.5,0.1-5.1,1.3-7.4c1.5-2.9,3.6-5.3,6.5-6.8
	c1.4-0.8,3-1.4,4.5-1.9c0.9-0.3,1.9-0.5,2.8-0.6c1.8-0.2,3.6-0.5,5.4-0.5c6.9-0.1,13.9,0,20.8,0c1.8,0,1.9,0.2,1.9,2
	c0,0.9,0,1.9,0,2.8c0,0.8-0.4,1.2-1.1,1.3c-0.3,0-0.7,0-1,0c-6.4,0-12.7-0.1-19.1,0c-2.8,0.1-5.6,0.6-8.1,2.1
	c-3,1.7-4.1,4.6-4.4,7.8c-0.1,1.1-0.1,2.2-0.1,3.3c0,1.2,0.1,1.3,1.3,1.3c10.2,0,20.4,0,30.6,0c1.9,0,2,0.1,2,2c0,0.8,0,1.7,0,2.5
	c0,1.2-0.3,1.5-1.5,1.6c-1.2,0-2.4,0-3.6,0C361.5,73.6,357.5,73.6,353.5,73.6z"/>
<path class="st0" d="M585.8,92.9c0,0.3,0,0.7,0,1.3c-0.4,0-0.9,0.1-1.3,0.1c-2,0-4,0-6.1,0c-0.9,0-1.5-0.3-1.9-1.2
	c-1.3-2.9-2.7-5.8-4-8.7c-0.4-0.9-1.1-1-1.9-1c-4.4,0-8.9,0-13.3,0c-2.3,0-4.5,0-6.8,0c-2.1,0-2.3,0.2-3.1,2.1
	c-1.2,2.7-2.5,5.2-3.8,7.9c-0.3,0.6-0.7,0.9-1.4,0.9c-2,0-4,0-6.1,0c-1.3,0-1.5-0.4-0.9-1.5c1.8-3.4,3.5-6.8,5.2-10.2
	c1.4-2.7,2.8-5.3,4.2-8c1.5-3,3-6,4.5-9c1.4-2.8,2.9-5.6,4.3-8.4c0.5-1,1-1.9,1.5-2.9c0.3-0.7,0.8-1,1.5-1c2.8,0,5.6,0,8.4,0
	c1.2,0,1.6,1,2,1.8c1.6,3.2,3.2,6.5,4.8,9.8c1.1,2.4,2.2,4.8,3.4,7.2c1.2,2.4,2.4,4.8,3.5,7.2c1.1,2.3,2.2,4.6,3.3,6.9
	c1,2.1,2,4.1,3.1,6.1C585,92.5,585.4,92.6,585.8,92.9z M560.1,78.3c2.7,0,5.3,0,8,0c1.1,0,1.2-0.3,0.8-1.2c-0.3-0.7-0.7-1.5-1-2.2
	c-1.1-2.5-2.2-5-3.3-7.4c-1.2-2.6-2.4-5.2-3.6-7.8c-0.1-0.2-0.3-0.4-0.5-0.6c-0.2,0.2-0.4,0.3-0.5,0.5c-1.7,3.5-3.3,7-5,10.5
	c-1.1,2.3-2.2,4.5-3.3,6.8c-0.2,0.3-0.4,0.8-0.3,1.1c0.1,0.2,0.7,0.4,1,0.4C555,78.4,557.6,78.3,560.1,78.3z"/>
<path class="st0" d="M392.4,53.2c1.1,0,2.2,0,3.3,0c1.6,0,2.1,0.4,2.8,1.8c1.6,3.3,3.2,6.5,4.7,9.8c1.2,2.4,2.3,4.9,3.4,7.3
	c1.1,2.4,2.3,4.7,3.5,7.1c1.1,2.3,2.2,4.6,3.3,6.9c1.2,2.3,2.4,4.6,3.6,6.9c0.4,0.7,0.2,1.3-0.7,1.3c-2.3,0-4.5,0-6.8,0
	c-0.4,0-1-0.4-1.2-0.8c-0.7-1.4-1.4-2.8-2-4.3c-0.7-1.6-1.5-3.2-2.2-4.8c-0.4-0.8-1.1-0.9-1.9-0.9c-4.3,0-8.6,0-12.9,0
	c-2.4,0-4.8,0-7.2,0c-2.1,0-2.3,0.2-3.1,2.1c-1.2,2.7-2.5,5.3-3.8,7.9c-0.3,0.6-0.7,0.9-1.4,0.9c-2,0-4,0-6.1,0
	c-1.3,0-1.5-0.4-0.9-1.5c1.8-3.4,3.5-6.8,5.2-10.2c1.4-2.7,2.8-5.3,4.1-8c1.6-3.1,3.1-6.2,4.7-9.3c1.4-2.8,2.8-5.5,4.3-8.2
	c0.5-1,1-1.9,1.5-2.9c0.3-0.7,0.8-1,1.5-1C389.6,53.3,391,53.2,392.4,53.2C392.4,53.2,392.4,53.2,392.4,53.2z M391.9,78.3
	C391.9,78.3,391.9,78.3,391.9,78.3c2.6,0,5.3,0,7.9,0c1.1,0,1.3-0.3,0.8-1.3c-0.7-1.5-1.4-3-2-4.5c-0.8-1.7-1.5-3.5-2.3-5.2
	c-1.1-2.5-2.3-4.9-3.4-7.4c-0.1-0.3-0.4-0.5-0.6-0.8c-0.2,0.3-0.4,0.5-0.6,0.8c-1.2,2.4-2.3,4.8-3.4,7.2c-0.8,1.7-1.5,3.4-2.3,5
	c-0.8,1.6-1.6,3.2-2.4,4.9c-0.2,0.3-0.3,0.8-0.2,1.1c0.1,0.2,0.6,0.3,1,0.3C386.7,78.3,389.3,78.3,391.9,78.3z"/>
<path class="st0" d="M226.8,74c0-6.3,0-12.6,0-18.9c0-0.8,0.4-1.3,1.2-1.3c0.3,0,0.5,0,0.8,0c8,0,16-0.1,23.9,0.1
	c4.3,0.1,8.4,1.3,11.5,4.7c2.1,2.5,2.8,5.4,2.7,8.6c-0.2,4.3-2.1,7.7-5.7,10c-1,0.6-2.1,1-3.2,1.3c-5.9,1.6-11.9,0.8-17.9,1
	c-1.3,0-2.6,0-3.8,0c-0.9,0-1.2,0.4-1.2,1.3c0.1,4.1,0.1,8.1,0.1,12.2c0,0.8-0.4,1.2-1.1,1.2c-2.1,0-4.1,0-6.2,0
	c-0.8,0-1.1-0.5-1.1-1.3C226.8,86.6,226.8,80.3,226.8,74z M243.6,58.8c-2.5,0-4.9,0-7.4,0c-1.1,0-1.3,0.3-1.2,1.3
	c0,4.2,0,8.4,0,12.6c0,1.4,0.1,1.6,1.6,1.6c4.1,0,8.1-0.1,12.2,0c1.9,0,3.7-0.2,5.3-1c1.1-0.5,2-1.4,2.7-2.4c1.4-1.8,1.3-4,1.1-6.1
	c-0.3-2.6-1.6-4.6-4.2-5.5c-1.2-0.4-2.5-0.6-3.8-0.6C247.8,58.8,245.7,58.8,243.6,58.8z"/>
<path class="st0" d="M193.4,85.9c0-2.3,0.1-4.5,0-6.8c0-0.8-0.3-1.6-0.8-2.2c-3.7-4.5-7.4-9-11.1-13.5c-2.3-2.8-4.7-5.6-7-8.5
	c-0.3-0.4-0.4-0.9-0.5-1.4c0.4-0.1,0.9-0.3,1.3-0.3c2.1,0,4.2,0,6.3,0c0.8,0,1.3,0.2,1.8,0.9c3.2,4.2,6.4,8.3,9.6,12.4
	c1.3,1.6,2.5,3.2,3.8,4.9c0.7,0.9,1.1,1,1.8,0c1.7-2.3,3.4-4.6,5.2-7c2.6-3.5,5.3-7,8-10.4c0.4-0.5,1.2-0.7,1.8-0.8
	c2.2-0.1,4.4,0,6.7-0.1c0.7,0,0.9,0.3,0.6,0.9c-0.2,0.3-0.3,0.7-0.6,1c-4.9,6-9.8,11.9-14.7,17.9c-1.1,1.3-2.2,2.6-3.3,4
	c-0.4,0.6-0.7,1.3-0.7,2c0,4.6,0,9.3,0,13.9c0,0.9-0.4,1.3-1.2,1.3c-2,0-4,0-6,0c-0.8,0-1.2-0.5-1.2-1.3
	C193.4,90.6,193.4,88.2,193.4,85.9C193.4,85.9,193.4,85.9,193.4,85.9z"/>
</svg>
