<?xml version="1.0" encoding="utf-8"?>
<!-- Generator: Adobe Illustrator 24.1.2, SVG Export Plug-In . SVG Version: 6.00 Build 0)  -->
<svg version="1.1" id="Camada_1" xmlns="http://www.w3.org/2000/svg" xmlns:xlink="http://www.w3.org/1999/xlink" x="0px" y="0px"
	 viewBox="0 0 327 365.6" style="enable-background:new 0 0 327 365.6;" xml:space="preserve">
<style type="text/css">
	.st0{fill:#007AC0;}
</style>
<path class="st0" d="M181.3,288.2c-0.4,0-0.9-0.1-1.2-0.3l-80.2-47.6c-0.8-0.5-1.2-1.3-1.2-2.2l0.1-16.5c0-0.9,0.5-1.7,1.2-2.2
	c0.8-0.4,1.7-0.4,2.5,0l80.2,47.6c0.8,0.5,1.2,1.3,1.2,2.2l-0.1,16.5c0,0.9-0.5,1.7-1.2,2.2C182.1,288,181.7,288.2,181.3,288.2
	L181.3,288.2z M103.6,236.5l75.2,44.7l0.1-10.6l-75.2-44.7L103.6,236.5L103.6,236.5z"/>
<path class="st0" d="M181.3,288.2c-0.4,0-0.9-0.1-1.2-0.3c-0.8-0.5-1.2-1.3-1.2-2.2l0.1-16.5c0-0.9,0.5-1.7,1.2-2.2l143.2-84.8
	c0.8-0.5,1.7-0.5,2.5,0c0.8,0.5,1.2,1.3,1.2,2.2l-0.1,16.5c0,0.9-0.5,1.7-1.2,2.2l-143.2,84.9C182.1,288,181.7,288.2,181.3,288.2
	L181.3,288.2z M183.8,270.6l-0.1,10.6L322,199.3l0.1-10.6L183.8,270.6L183.8,270.6z"/>
<path class="st0" d="M314.8,192.5c-0.4,0-0.9-0.1-1.2-0.3l-70.4-41.8c-0.8-0.5-1.2-1.3-1.2-2.2v-11.6c0-0.9,0.5-1.8,1.2-2.2
	c0.8-0.5,1.7-0.5,2.5,0l80.1,47.7c0.8,0.5,1.2,1.3,1.2,2.2c0,0.9-0.5,1.8-1.3,2.2l-9.8,5.7C315.6,192.4,315.2,192.5,314.8,192.5
	L314.8,192.5z M246.9,146.7l67.9,40.3l4.8-2.8L246.9,141V146.7L246.9,146.7z"/>
<path class="st0" d="M111,229.9c-0.4,0-0.9-0.1-1.2-0.3l-9.8-5.8c-0.8-0.5-1.2-1.3-1.2-2.2c0-0.9,0.5-1.8,1.2-2.2l143.2-84.9
	c0.8-0.5,1.7-0.5,2.5,0c0.8,0.5,1.2,1.3,1.2,2.2v11.6c0,0.9-0.5,1.8-1.2,2.2l-133.4,79.1C111.8,229.8,111.4,229.9,111,229.9
	L111,229.9z M106.1,221.5l4.8,2.9l130.9-77.6V141L106.1,221.5L106.1,221.5z"/>
<path class="st0" d="M181.4,271.7c-0.4,0-0.9-0.1-1.2-0.3l-70.4-41.8c-0.8-0.5-1.2-1.3-1.2-2.2c0-0.9,0.5-1.8,1.2-2.2L243.1,146
	c0.8-0.5,1.7-0.5,2.5,0l70.4,41.8c0.8,0.5,1.2,1.3,1.2,2.2c0,0.9-0.5,1.8-1.2,2.2l-133.4,79.1C182.2,271.6,181.8,271.7,181.4,271.7
	L181.4,271.7z M115.9,227.3l65.4,38.8L309.8,190l-65.4-38.8L115.9,227.3L115.9,227.3z"/>
<path class="st0" d="M245.7,185.2c-0.4,0-0.9-0.1-1.2-0.3l-14.1-8.4c-0.8-0.5-1.2-1.3-1.2-2.2l0.1-10.8c0-0.9,0.5-1.7,1.3-2.2
	c0.8-0.5,1.7-0.5,2.5,0l14.1,8.4c0.8,0.5,1.2,1.3,1.2,2.2v10.8c0,0.9-0.5,1.8-1.2,2.2C246.5,185.1,246.1,185.2,245.7,185.2
	L245.7,185.2z M234,172.8l9.2,5.4v-4.9l-9.1-5.4L234,172.8L234,172.8z"/>
<path class="st0" d="M245.7,174.4c-0.4,0-0.9-0.1-1.2-0.3l-14.1-8.4c-0.8-0.5-1.2-1.3-1.2-2.2c0-0.9,0.5-1.7,1.2-2.2l13.5-8.2
	c0.8-0.5,1.7-0.5,2.5,0l14.3,8.5c0.8,0.5,1.2,1.3,1.2,2.2c0,0.9-0.5,1.8-1.2,2.2l-13.7,8.1C246.5,174.3,246.1,174.4,245.7,174.4
	L245.7,174.4z M236.5,163.4l9.2,5.5l8.7-5.2l-9.3-5.5L236.5,163.4L236.5,163.4z"/>
<path class="st0" d="M245.7,185.2c-0.4,0-0.9-0.1-1.2-0.3c-0.8-0.5-1.2-1.3-1.2-2.2v-10.8c0-0.9,0.5-1.8,1.2-2.2l13.7-8.1
	c0.8-0.5,1.7-0.5,2.5,0c0.8,0.5,1.2,1.3,1.2,2.2v10.8c0,0.9-0.5,1.8-1.2,2.2l-13.7,8.1C246.5,185.1,246.1,185.2,245.7,185.2
	L245.7,185.2z M248.1,173.3v4.9l8.7-5.1v-4.9L248.1,173.3L248.1,173.3z"/>
<path class="st0" d="M181.4,307.9c-0.4,0-0.9-0.1-1.2-0.3L99.9,260c-0.8-0.5-1.2-1.3-1.2-2.2L98.6,238c0-0.9,0.5-1.8,1.2-2.2
	c0.8-0.5,1.7-0.5,2.5,0l80.3,47.6c0.8,0.5,1.2,1.3,1.2,2.2v19.8c0,0.9-0.5,1.8-1.2,2.2C182.2,307.8,181.8,307.9,181.4,307.9
	L181.4,307.9z M103.6,256.3l75.2,44.7v-13.9l-75.3-44.7L103.6,256.3L103.6,256.3z"/>
<path class="st0" d="M181.4,307.9c-0.4,0-0.9-0.1-1.2-0.3c-0.8-0.5-1.2-1.3-1.2-2.2v-19.8c0-0.9,0.5-1.8,1.2-2.2l143.1-84.9
	c0.8-0.5,1.7-0.5,2.5,0c0.8,0.5,1.2,1.3,1.2,2.2l0.1,21c0,0.9-0.5,1.8-1.3,2.2l-143.2,83.7C182.2,307.8,181.8,307.9,181.4,307.9
	L181.4,307.9z M183.8,287.1V301L322,220.2l-0.1-15.1L183.8,287.1L183.8,287.1z"/>
<path class="st0" d="M181.3,365.6c-0.4,0-0.9-0.1-1.2-0.3l-55.3-32.9c-1.2-0.7-1.6-2.3-0.9-3.5c0.7-1.2,2.2-1.6,3.4-0.9l51.6,30.7
	l0.1-51.8l-75.2-44.7v13.8c0,1.4-1.1,2.6-2.5,2.6c-1.4,0-2.5-1.1-2.5-2.6v-18.2c0-0.9,0.5-1.8,1.2-2.2c0.8-0.5,1.7-0.5,2.5,0
	l80.1,47.6c0.8,0.5,1.2,1.3,1.2,2.2l-0.1,57.7c0,0.9-0.5,1.8-1.2,2.2C182.1,365.5,181.7,365.6,181.3,365.6L181.3,365.6z"/>
<path class="st0" d="M181.3,365.6c-0.4,0-0.9-0.1-1.2-0.3c-0.8-0.5-1.2-1.3-1.2-2.2l0.1-57.6c0-0.9,0.5-1.8,1.2-2.2l143.2-84.9
	c0.8-0.5,1.7-0.5,2.5,0c0.8,0.5,1.2,1.3,1.2,2.2l-0.1,57.6c0,0.9-0.5,1.8-1.2,2.2l-143.2,84.9C182.1,365.5,181.7,365.6,181.3,365.6
	L181.3,365.6z M183.8,306.9l-0.1,51.7l138.2-81.9L322,225L183.8,306.9L183.8,306.9z"/>
<path class="st0" d="M218.3,201.4c-0.4,0-0.9-0.1-1.2-0.3l-14.1-8.4c-0.8-0.5-1.2-1.3-1.2-2.2v-10.8c0-0.9,0.5-1.8,1.2-2.2
	c0.8-0.5,1.7-0.5,2.5,0l14.1,8.4c0.8,0.5,1.2,1.3,1.2,2.2v10.8c0,0.9-0.5,1.8-1.2,2.2C219.2,201.2,218.8,201.4,218.3,201.4
	L218.3,201.4z M206.7,189l9.1,5.4v-4.9l-9.1-5.4V189L206.7,189z"/>
<path class="st0" d="M218.3,190.5c-0.4,0-0.9-0.1-1.2-0.3l-14.1-8.4c-0.8-0.5-1.2-1.3-1.2-2.2c0-0.9,0.5-1.7,1.2-2.2l13.4-8.2
	c0.8-0.5,1.7-0.5,2.5,0l14.3,8.5c0.8,0.5,1.2,1.3,1.2,2.2c0,0.9-0.5,1.8-1.2,2.2l-13.7,8.1C219.2,190.4,218.8,190.5,218.3,190.5
	L218.3,190.5z M209.2,179.6l9.2,5.4l8.7-5.1l-9.3-5.5L209.2,179.6L209.2,179.6z"/>
<path class="st0" d="M218.3,201.4c-0.4,0-0.9-0.1-1.2-0.3c-0.8-0.5-1.2-1.3-1.2-2.2V188c0-0.9,0.5-1.8,1.2-2.2l13.7-8.1
	c0.8-0.5,1.7-0.5,2.5,0c0.8,0.5,1.2,1.3,1.2,2.2v10.8c0,0.9-0.5,1.8-1.2,2.2l-13.7,8.1C219.2,201.2,218.8,201.4,218.3,201.4
	L218.3,201.4z M220.8,189.5v4.9l8.7-5.1v-4.9L220.8,189.5L220.8,189.5z"/>
<path class="st0" d="M286.6,303.1c-0.4,0-0.9-0.1-1.2-0.3c-0.8-0.5-1.2-1.3-1.2-2.2V266c0-0.9,0.5-1.8,1.2-2.2l30.2-17.9
	c0.8-0.5,1.7-0.5,2.5,0c0.8,0.5,1.2,1.3,1.2,2.2l-0.1,34.6c0,0.9-0.5,1.7-1.2,2.2l-30.1,17.9C287.5,303,287,303.1,286.6,303.1
	L286.6,303.1z M289.1,267.4v28.7l25.2-15l0-28.7L289.1,267.4L289.1,267.4z"/>
<path class="st0" d="M82.6,358.3c-0.4,0-0.9-0.1-1.2-0.3L1.2,310.4c-0.8-0.5-1.2-1.3-1.2-2.2l0.1-39.5c0-0.9,0.5-1.7,1.2-2.2
	c0.8-0.5,1.7-0.5,2.5,0l80.1,47.6c0.8,0.5,1.2,1.3,1.2,2.2l-0.1,39.4c0,0.9-0.5,1.8-1.2,2.2C83.5,358.2,83,358.3,82.6,358.3
	L82.6,358.3z M5,306.7l75.2,44.6l0-33.6L5,273.1L5,306.7L5,306.7z"/>
<path class="st0" d="M82.6,358.3c-0.4,0-0.9-0.1-1.2-0.3c-0.8-0.5-1.2-1.3-1.2-2.2l0.1-39.5c0-0.9,0.5-1.8,1.2-2.2l43.3-25.6
	c0.8-0.5,1.7-0.5,2.5,0c0.8,0.5,1.2,1.3,1.2,2.2l-0.1,39.5c0,0.9-0.5,1.8-1.2,2.2l-43.3,25.6C83.5,358.2,83,358.3,82.6,358.3
	L82.6,358.3z M85.2,317.7l0,33.6l38.3-22.6l0-33.6L85.2,317.7L85.2,317.7z"/>
<path class="st0" d="M125.8,31.7c-0.3,0-0.6-0.1-0.9-0.2c-1.3-0.5-1.9-2-1.4-3.3c1.9-4.8,3.8-8.7,7.3-13.8c0,0,0.1-0.1,0.1-0.1
	c10.1-13,21.3-17.4,30.9-12.2c1.2,0.7,1.7,2.2,1,3.5c-0.6,1.2-2.1,1.7-3.4,1.1c-9.8-5.4-19.6,4.5-24.6,10.9
	c-2.8,4.1-4.6,7.4-6.7,12.7C127.7,31.1,126.8,31.7,125.8,31.7L125.8,31.7z"/>
<path class="st0" d="M99.3,88.7c-0.5,0-1-0.2-1.4-0.5c-5.1-3.8-2.3-15.4-1.7-17.7c0,0,0-0.1,0-0.1c3.2-10,9.2-18.5,16.8-23.8
	c0,0,0.1-0.1,0.1-0.1c2.2-1.3,4-2.4,6.8-2.9c4.1-5.5,8.4-9,13.3-11.1c1.8-4.4,3.6-8.1,6.8-12.7c0,0,0.1-0.1,0.1-0.1
	c4.8-6.2,9.6-10.8,17.4-13.5c0.1,0,0.1,0,0.2-0.1c4.8-1.3,8.2-1.4,13.3,1.3c1.2,0.7,1.7,2.2,1,3.4c-0.6,1.2-2.1,1.7-3.4,1.1
	c-3.6-1.9-5.7-1.9-9.6-0.9c-6.6,2.3-10.6,6.2-15,11.8c-2.8,4.1-4.5,7.3-6.6,12.6c-0.3,0.7-0.8,1.2-1.5,1.4
	c-4.6,1.7-8.6,5.1-12.6,10.6c-0.4,0.6-1,0.9-1.7,1c-2.3,0.3-3.6,0.9-5.8,2.3c-6.7,4.7-11.9,12.2-14.8,21.1
	c-1.4,5.3-1.5,11.2-0.2,12.1c1.1,0.8,1.4,2.4,0.6,3.6C100.9,88.3,100.1,88.7,99.3,88.7L99.3,88.7z"/>
<path class="st0" d="M90.2,83.3c-0.5,0-1-0.2-1.4-0.5c-4-2.9-3-11.3-2.6-13.7c1.5-7.5,4.7-14.1,10.1-20.9c3.5-4.1,8.3-8.7,14.5-9.9
	c4.4-5.8,9.1-9.5,14.2-11.4c1.3-0.5,2.7,0.2,3.2,1.5c0.5,1.3-0.2,2.8-1.5,3.3c-4.5,1.7-8.6,5.1-12.6,10.6c-0.4,0.6-1,0.9-1.7,1
	c-5.1,0.6-9.3,4.8-12.4,8.3c-4.9,6.1-7.7,12-9,18.5c-0.6,4-0.2,8.1,0.6,8.7c1.1,0.8,1.4,2.4,0.6,3.6C91.7,82.9,90.9,83.3,90.2,83.3
	L90.2,83.3z"/>
<path class="st0" d="M170.1,46.5c-0.4,0-0.8-0.1-1.2-0.3c-1.2-0.7-1.7-2.2-1-3.5c1.6-3.1,2.8-6.3,3.7-9.5c0.9-3.3,1.4-6.3,1.4-9
	c0.2-6.7-1.9-11.3-5.9-13c-2.3-1-5.1-1-8.2-0.1c-3.4,1-6.9,3.2-10.2,6.3c-4.8,4.6-8.8,10.8-11.4,18.1c-0.3,0.7-0.8,1.3-1.5,1.5
	c-2,0.7-4.1,1.9-6.1,3.6c-1.1,0.9-2.6,0.7-3.5-0.4c-0.9-1.1-0.7-2.7,0.4-3.6c2-1.7,4.3-3.1,6.5-4c2.9-7.5,7.1-14.1,12.3-19
	c3.8-3.6,8-6.1,12.1-7.4c4.2-1.3,8.2-1.2,11.6,0.3c3.4,1.5,9.2,5.8,8.9,17.7c0,3.1-0.5,6.5-1.6,10.3c-1,3.5-2.3,7.1-4.1,10.5
	C171.8,46,171,46.5,170.1,46.5L170.1,46.5z"/>
<path class="st0" d="M166.1,51c-0.9,0-1.7-0.5-2.2-1.3c-0.7-1.2-0.2-2.8,1-3.5c0.6-0.3,1.1-0.8,1.5-1.3c0,0,0.1-0.1,0.1-0.1
	c0.6-0.6,1-1.3,1.4-2c0.6-1.3,2.1-1.8,3.3-1.1c1.2,0.6,1.7,2.2,1.1,3.4c-0.6,1.2-1.3,2.3-2.2,3.2c-0.8,0.9-1.7,1.8-2.8,2.4
	C166.9,50.9,166.5,51,166.1,51L166.1,51z"/>
<path class="st0" d="M100.8,89.1c-0.5,0-1-0.1-1.5-0.2c-0.9-0.2-2.7-1.1-3.6-3.8c-0.4-1.3,0.3-2.8,1.6-3.2c1.3-0.4,2.7,0.3,3.1,1.7
	c0.1,0.4,0.2,0.5,0.2,0.5c0.1,0,0.6,0,1.2-0.4c1.2-0.7,2.7-0.4,3.4,0.9c0.7,1.2,0.3,2.8-0.8,3.5C103.2,88.7,102,89.1,100.8,89.1
	L100.8,89.1z"/>
<path class="st0" d="M98.1,86.8c-1,0-2-0.7-2.3-1.7c-0.3-1-0.5-1.9-0.6-2.8l-0.1-0.4c0-0.1,0-0.2,0-0.2l0-0.7
	c-0.1-0.8-0.1-1.7-0.1-2.6c0.1-3.2,0.8-6.7,2.2-10.6c1.7-4.5,4.3-9.1,7.2-12.9c3.2-4.2,6.8-7.4,10.2-9.3c1.8-1.1,3.6-1.8,5.4-2.1
	c2-2.7,4.4-5.1,6.8-7.1c1.1-0.9,2.6-0.7,3.5,0.4c0.8,1.1,0.7,2.7-0.4,3.6c-2.3,1.9-4.6,4.3-6.5,7c-0.4,0.6-1.1,1-1.8,1
	c-1.4,0.1-3,0.7-4.6,1.6c-2.9,1.6-5.9,4.4-8.7,8c-2.6,3.4-4.9,7.5-6.4,11.5c-1.2,3.3-1.8,6.3-1.9,8.8c0,0.7,0.1,1.4,0.1,2.2l0.1,0.9
	c0.1,0.7,0.2,1.4,0.4,1.9c0.5,1.3-0.2,2.8-1.5,3.3C98.6,86.8,98.4,86.8,98.1,86.8L98.1,86.8z"/>
<path class="st0" d="M244.3,328.2c-0.4,0-0.9-0.1-1.2-0.3c-0.8-0.5-1.2-1.3-1.2-2.2v-34.6c0-0.9,0.5-1.8,1.2-2.2l30.2-17.9
	c0.8-0.5,1.7-0.5,2.5,0c0.8,0.5,1.2,1.3,1.2,2.2l-0.1,34.6c0,0.9-0.5,1.7-1.2,2.2l-30.1,17.9C245.1,328.1,244.7,328.2,244.3,328.2
	L244.3,328.2z M246.7,292.6v28.7l25.1-15l0.1-28.7L246.7,292.6L246.7,292.6z"/>
<path class="st0" d="M82.8,318.8c-0.5,0-1-0.2-1.4-0.5l-24.4-14.5c-0.1,0-0.2-0.1-0.3-0.2L1.3,270.9c-0.8-0.5-1.2-1.3-1.2-2.2
	c0-0.9,0.5-1.8,1.2-2.2l34.2-20.3c1.2-0.7,2.7-0.3,3.4,0.9c0.7,1.2,0.3,2.8-0.9,3.5L7.5,268.7l51.3,30.5c0.1,0,0.2,0.1,0.3,0.2
	l23.7,14l38.3-22.7l-21-12.4c-0.8-0.4-1.5-1.3-1.5-2.3v-27c0-0.2,0-0.4,0.1-0.6v-26.8c0-0.9,0.5-1.7,1.2-2.2l23.6-14.1l12.9-7.7
	l-4.5-2.7l-5.9,3.5c-1.2,0.7-2.7,0.3-3.4-0.9c-0.7-1.2-0.3-2.8,0.9-3.5l7.2-4.2c0.8-0.4,1.7-0.5,2.5,0l9.5,5.6
	c0.8,0.5,1.2,1.3,1.2,2.2c0,0.9-0.5,1.8-1.2,2.2l-39,23.2v25.7c0,0.2,0,0.4-0.1,0.6v25.1l23.7,14.1c0.8,0.5,1.3,1.4,1.2,2.4
	c-0.1,1-0.7,1.8-1.5,2.2l-43,25.5C83.6,318.7,83.2,318.8,82.8,318.8L82.8,318.8z"/>
<path class="st0" d="M101.2,251.4c-1.4,0-2.5-1.1-2.5-2.5L98.6,238l0.1-16.5c0-0.9,0.5-1.7,1.2-2.2l22.4-13.3V104.9
	c0-1.4,1.1-2.6,2.5-2.6c1.4,0,2.5,1.1,2.5,2.6v102.6c0,0.9-0.5,1.8-1.2,2.2L103.6,223l-0.1,15l0.1,10.9
	C103.7,250.3,102.6,251.4,101.2,251.4C101.2,251.4,101.2,251.4,101.2,251.4L101.2,251.4z"/>
<path class="st0" d="M101.2,251.4c-0.2,0-0.4,0-0.6-0.1c-0.7-0.2-1.3-0.4-2.1-0.6c-0.1,0-0.1,0-0.2-0.1c-5.7-2.1-9-5.4-9.8-9.6
	c-0.3-1.4,0.6-2.7,1.9-3c1.3-0.3,2.7,0.6,2.9,2c0.5,2.4,2.6,4.3,6.6,5.8c0.6,0.2,1.2,0.4,1.8,0.5c1.3,0.3,2.2,1.7,1.9,3.1
	C103.3,250.6,102.3,251.4,101.2,251.4L101.2,251.4z"/>
<path class="st0" d="M107.4,116.6c-0.1,0-0.3,0-0.4,0c-3-0.1-5.2-0.5-7.8-1.3c-6.2-2-9.8-5.4-10.8-9.9c-0.3-1.4,0.6-2.7,1.9-3
	c1.3-0.3,2.7,0.6,2.9,2c0.5,2.6,3,4.6,7.3,6.1c2.1,0.6,4,0.9,6.5,1c2.9,0,5.3-0.3,7.9-1.1c3.1-1,5.1-2.3,6.5-4.1
	c0.5-0.8,0.7-1.2,0.8-1.8c0.3-1.4,1.5-2.3,2.9-2c1.3,0.3,2.2,1.6,2,3c-0.3,1.7-0.9,2.7-1.5,3.7c0,0.1-0.1,0.1-0.1,0.1
	c-2.6,3.6-6.2,5.1-9.1,6.1C113.5,116.2,110.8,116.6,107.4,116.6L107.4,116.6z"/>
<path class="st0" d="M104.1,116.3c-0.1,0-0.2,0-0.3,0c-4.5-0.6-8-2-11.1-4.3c0,0-0.1-0.1-0.1-0.1c-1.8-1.5-3.5-3.4-4.1-6.5
	c-0.3-1.4,0.6-2.7,2-3c1.4-0.3,2.6,0.6,2.9,2c0.2,1.3,0.8,2.2,2.3,3.5c2.4,1.8,5.1,2.9,8.7,3.4c1.4,0.2,2.3,1.5,2.1,2.9
	C106.4,115.4,105.3,116.3,104.1,116.3L104.1,116.3z"/>
<path class="st0" d="M101.2,251.5c-1.4,0-2.5-1.1-2.5-2.5L98.6,238l0.1-16.5c0-0.9,0.5-1.8,1.3-2.2l1.7-1V113.8
	c0-1.4,1.1-2.6,2.5-2.6c1.4,0,2.5,1.1,2.5,2.6v106c0,0.9-0.5,1.8-1.3,2.2l-1.7,1l-0.1,15l0.1,10.9
	C103.7,250.3,102.6,251.5,101.2,251.5C101.2,251.5,101.2,251.5,101.2,251.5L101.2,251.5z"/>
<path class="st0" d="M107.9,116.6c-4.8,0-9.6-1.1-13.3-3.3c-4-2.4-6.2-5.7-6.2-9.3c0-3.7,2.2-7,6.2-9.4c0,0,0,0,0,0
	c7.5-4.4,19.1-4.4,26.6,0c4,2.4,6.2,5.7,6.2,9.4c0,3.6-2.2,7-6.2,9.3C117.5,115.5,112.7,116.6,107.9,116.6L107.9,116.6z M97.1,99
	c-2.4,1.4-3.8,3.2-3.8,5c0,1.7,1.4,3.5,3.7,4.9c5.9,3.5,15.8,3.5,21.6,0c2.4-1.4,3.7-3.2,3.7-4.9c0-1.7-1.4-3.5-3.7-5
	C112.8,95.5,102.9,95.5,97.1,99L97.1,99z"/>
<path class="st0" d="M107.8,141.2c-2.6,0-5.1-0.3-7.7-1c-6.7-2-10.6-5.4-11.6-10.2c-0.3-1.4,0.6-2.7,1.9-3c1.3-0.3,2.7,0.6,2.9,2
	c0.6,2.7,3.3,4.9,8,6.3c3.1,0.8,6,1,9.4,0.7c2.9-0.4,5-1,7.4-2.2c2.6-1.5,3.8-2.8,4.2-4.8c0.3-1.4,1.6-2.3,2.9-2
	c1.3,0.3,2.2,1.6,1.9,3c-0.9,4.4-4.1,6.7-6.7,8.3c-2.9,1.5-5.6,2.3-9.1,2.7C110.2,141.1,109,141.2,107.8,141.2L107.8,141.2z"/>
<path class="st0" d="M107.7,128c-3.5,0-6.8-0.6-10.1-1.8c-3.5-1.5-8.1-4-9.1-9.4c-0.3-1.4,0.6-2.7,1.9-3c1.4-0.3,2.7,0.6,2.9,2
	c0.4,2.3,2.3,4,6.1,5.6c4.4,1.7,9.3,1.9,14.3,0.8c3.5-0.9,7.9-2.8,8.6-6.4c0.3-1.4,1.6-2.3,2.9-2c1.3,0.3,2.2,1.6,1.9,3
	c-0.7,3.4-3.4,8-12.3,10.4C112.5,127.7,110.1,128,107.7,128L107.7,128z"/>
<path class="st0" d="M104.1,140.9c-0.1,0-0.2,0-0.3,0c-3-0.4-5.7-1.2-8.4-2.6c-2.8-1.6-6-3.9-6.9-8.3c-0.3-1.4,0.6-2.7,2-3
	c1.3-0.3,2.7,0.6,2.9,2c0.4,1.9,1.6,3.3,4.3,4.8c2.1,1.1,4.3,1.7,6.7,2.1c1.4,0.2,2.3,1.5,2.1,2.9
	C106.4,140,105.4,140.9,104.1,140.9L104.1,140.9z"/>
<path class="st0" d="M104.1,127.7c-0.1,0-0.2,0-0.3,0c-3.1-0.4-5.8-1.2-8.4-2.6c-2.8-1.5-6-3.8-6.9-8.3c-0.3-1.4,0.6-2.7,2-3
	c1.3-0.3,2.7,0.6,2.9,2c0.4,1.9,1.6,3.3,4.3,4.8c2.1,1.1,4.2,1.7,6.8,2.1c1.4,0.2,2.3,1.5,2.1,2.9
	C106.4,126.7,105.4,127.7,104.1,127.7L104.1,127.7z"/>
<path class="st0" d="M70.6,275.4c-0.1,0-0.2,0-0.3,0c-1.4-0.2-2.3-1.5-2.1-2.9l0-0.3V136.6c0-1.4,1.1-2.6,2.5-2.6
	c1.4,0,2.5,1.1,2.5,2.6v135.7c0,0.1,0,0.2,0,0.3l-0.1,0.5C72.9,274.4,71.8,275.4,70.6,275.4L70.6,275.4z"/>
<path class="st0" d="M53.7,284c-4.2,0-8.4-0.8-11.8-2.5c-1.5-0.7-3-1.7-4.1-2.6c0,0-0.1-0.1-0.1-0.1c-0.6-0.6-1.3-1.3-1.9-2.2
	c-0.6-0.9-1.1-1.9-1.4-3.1c-0.3-1.4,0.5-2.8,1.8-3.1c1.3-0.4,2.7,0.5,3,1.8c0.1,0.6,0.4,1.1,0.6,1.5c0,0,0.1,0.1,0.1,0.1
	c0.3,0.4,0.7,0.8,1.1,1.3c0.7,0.6,1.8,1.3,2.9,1.9c4.9,2.4,12,2.7,17.6,0.8c1.3-0.5,2.5-1,3.4-1.7c0.9-0.6,1.5-1.1,1.9-1.6
	c0.3-0.4,0.6-0.7,0.8-1.1c0.2-0.3,0.4-0.8,0.5-1.1c0.3-1.4,1.7-2.2,3-1.9c1.3,0.3,2.2,1.7,1.8,3.1c-0.2,0.9-0.6,1.8-1.1,2.6
	c-0.4,0.6-0.8,1.2-1.3,1.8c-0.7,0.8-1.7,1.7-3,2.5c-1.2,0.8-2.8,1.6-4.5,2.2C60.2,283.5,56.9,284,53.7,284L53.7,284z"/>
<path class="st0" d="M36.9,275.4c-1,0-1.9-0.6-2.3-1.7l-0.2-0.5c-0.1-0.3-0.2-0.6-0.2-0.9V136.6c0-1.4,1.1-2.6,2.5-2.6
	c1.4,0,2.5,1.1,2.5,2.6v135.2l0,0.1c0.5,1.3-0.2,2.8-1.4,3.3C37.5,275.3,37.2,275.4,36.9,275.4L36.9,275.4z"/>
<path class="st0" d="M53.8,148.3c-5.6,0-11-1.5-14.7-4.2c-1.2-0.9-2.3-1.9-3.1-3.1c0-0.1-0.1-0.1-0.1-0.2c-0.5-0.9-0.9-1.7-1.2-2.4
	c-0.1-0.3-0.2-0.7-0.3-1.2c-0.3-1.4,0.5-2.8,1.8-3.1c1.3-0.3,2.7,0.5,3,1.9c0.1,0.3,0.1,0.5,0.2,0.7c0.1,0.4,0.3,0.8,0.6,1.3
	c0.5,0.7,1.2,1.4,2,1.9c4,2.9,9.8,3.5,14,3.2c3.8-0.3,7.2-1.5,9.6-3.2c0.9-0.7,1.7-1.5,2.2-2.3c0.2-0.3,0.4-0.8,0.5-1.2
	c0.3-1.4,1.7-2.2,3-1.9c1.3,0.3,2.2,1.7,1.8,3.1c-0.2,0.8-0.6,1.8-1,2.6c-0.9,1.5-2.1,2.8-3.6,3.9c-3.9,2.8-8.7,3.8-12,4.1
	C55.5,148.3,54.6,148.3,53.8,148.3L53.8,148.3z"/>
<path class="st0" d="M49.9,283.8c-0.1,0-0.2,0-0.3,0c-4-0.5-7.5-1.8-10.5-3.9c-1.9-1.5-4-3.4-4.8-6.9c-0.3-1.4,0.5-2.8,1.8-3.1
	c1.3-0.3,2.7,0.5,3,1.9c0.4,1.6,1.2,2.7,2.9,4c2.3,1.6,5.1,2.6,8.2,3c1.4,0.2,2.3,1.4,2.2,2.8C52.2,282.8,51.2,283.8,49.9,283.8
	L49.9,283.8z"/>
<path class="st0" d="M49.9,148.1c-0.1,0-0.2,0-0.3,0c-4.4-0.6-8-2-11.1-4.4c0,0-0.1-0.1-0.1-0.1c-1.7-1.4-3.4-3.2-4.1-6.4
	c-0.3-1.4,0.5-2.7,1.9-3.1c1.3-0.3,2.7,0.5,3,1.9c0.3,1.4,0.9,2.3,2.4,3.6c2.4,1.8,5.2,2.9,8.8,3.4c1.4,0.2,2.3,1.5,2.1,2.9
	C52.2,147.2,51.1,148.1,49.9,148.1L49.9,148.1z"/>
<path class="st0" d="M53.7,148.4c-4.8,0-9.6-1.1-13.3-3.3c-4-2.4-6.2-5.7-6.2-9.3c0-3.7,2.2-7,6.3-9.4c7.4-4.4,19-4.4,26.5,0
	c4,2.4,6.2,5.7,6.2,9.4c0,3.6-2.2,7-6.2,9.3C63.3,147.3,58.5,148.4,53.7,148.4L53.7,148.4z M53.7,128.1c-3.9,0-7.8,0.9-10.7,2.6
	c0,0,0,0,0,0c-2.4,1.4-3.8,3.3-3.8,5c0,1.7,1.4,3.5,3.7,4.9c5.9,3.5,15.8,3.5,21.6,0c2.4-1.4,3.8-3.2,3.8-4.9c0-1.7-1.4-3.5-3.8-5
	C61.6,129,57.6,128.1,53.7,128.1L53.7,128.1z M41.7,128.5L41.7,128.5L41.7,128.5L41.7,128.5z"/>
<path class="st0" d="M53.7,172.9c-2.7,0-5.2-0.3-7.8-1c-6.7-2-10.6-5.4-11.6-10.1c-0.3-1.4,0.6-2.7,1.9-3c1.3-0.3,2.7,0.6,3,1.9
	c0.6,2.8,3.3,4.9,8.1,6.3c3.1,0.8,6,1,9.5,0.7c2.4-0.3,4.7-0.9,7.2-2.2c2.6-1.5,3.8-2.8,4.2-4.8c0.3-1.4,1.6-2.3,2.9-2
	c1.3,0.3,2.2,1.6,2,3c-0.9,4.4-4.1,6.8-6.8,8.3c-2.8,1.4-5.4,2.2-9,2.7C56.1,172.8,54.9,172.9,53.7,172.9L53.7,172.9z"/>
<path class="st0" d="M53.6,159.7c-3.5,0-6.8-0.6-10.1-1.8c-3.4-1.4-8.1-3.9-9.2-9.3c-0.3-1.4,0.5-2.7,1.9-3c1.3-0.3,2.7,0.6,3,1.9
	c0.5,2.4,2.4,4.1,6.2,5.7c4.5,1.7,9.3,2,14.3,0.8c3.5-0.9,7.9-2.8,8.6-6.4c0.3-1.4,1.6-2.3,2.9-2c1.3,0.3,2.2,1.6,1.9,3
	c-1,5-5.2,8.5-12.3,10.4C58.3,159.4,55.9,159.7,53.6,159.7L53.6,159.7z"/>
<path class="st0" d="M49.9,172.7c-0.1,0-0.2,0-0.3,0c-3-0.4-5.7-1.2-8.4-2.6c0,0-0.1-0.1-0.1-0.1c-2.6-1.5-5.8-3.9-6.7-8.2
	c-0.3-1.4,0.5-2.7,1.9-3.1c1.3-0.3,2.7,0.6,3,1.9c0.4,1.9,1.6,3.3,4.3,4.9c2.2,1.1,4.4,1.8,6.8,2.1c1.4,0.2,2.3,1.4,2.2,2.8
	C52.2,171.7,51.2,172.7,49.9,172.7L49.9,172.7z"/>
<path class="st0" d="M49.9,159.4c-0.1,0-0.2,0-0.3,0c-2.9-0.4-5.6-1.2-8.4-2.6c-0.1,0-0.1-0.1-0.2-0.1c-2.6-1.5-5.8-3.9-6.7-8.2
	c-0.3-1.4,0.5-2.7,1.9-3.1c1.3-0.3,2.7,0.6,3,1.9c0.4,1.9,1.6,3.3,4.3,4.8c2.3,1.1,4.4,1.8,6.8,2.1c1.4,0.2,2.3,1.5,2.1,2.9
	C52.2,158.5,51.1,159.4,49.9,159.4L49.9,159.4z"/>
<path class="st0" d="M169.7,12.3c-0.4,0-0.8-0.1-1.2-0.3l-9.2-5.4c-1.2-0.7-1.6-2.3-0.9-3.5c0.7-1.2,2.2-1.6,3.4-0.9l9.2,5.4
	c1.2,0.7,1.6,2.3,0.9,3.5C171.4,11.9,170.6,12.3,169.7,12.3L169.7,12.3z"/>
<path class="st0" d="M99.3,88.7c-0.4,0-0.8-0.1-1.2-0.3l-9.2-5.5c-1.2-0.7-1.6-2.3-0.9-3.5c0.7-1.2,2.2-1.6,3.4-0.9l9.2,5.5
	c1.2,0.7,1.6,2.3,0.9,3.5C101,88.3,100.2,88.7,99.3,88.7L99.3,88.7z"/>
<path class="st0" d="M103.1,88.4c-0.9,0-1.7-0.5-2.2-1.3c-0.7-1.2-0.3-2.8,0.9-3.5l63-37.4c1.2-0.7,2.7-0.3,3.4,0.9s0.3,2.8-0.9,3.5
	l-63,37.4C104,88.2,103.5,88.4,103.1,88.4L103.1,88.4z"/>
<path class="st0" d="M293.5,281.8c-0.9,0-1.7-0.5-2.2-1.3c-0.7-1.2-0.3-2.8,0.9-3.5l16.4-9.8c1.2-0.7,2.7-0.3,3.4,0.9
	c0.7,1.2,0.3,2.8-0.9,3.5l-16.4,9.8C294.3,281.7,293.9,281.8,293.5,281.8L293.5,281.8z"/>
<path class="st0" d="M293.5,273.2c-0.9,0-1.7-0.5-2.2-1.3c-0.7-1.2-0.3-2.8,0.9-3.5l16.4-9.8c1.2-0.7,2.7-0.3,3.4,0.9
	c0.7,1.2,0.3,2.8-0.9,3.5l-16.4,9.8C294.3,273.1,293.9,273.2,293.5,273.2L293.5,273.2z"/>
<path class="st0" d="M293.5,290.3c-0.9,0-1.7-0.5-2.2-1.3c-0.7-1.2-0.3-2.8,0.9-3.5l16.4-9.8c1.2-0.7,2.7-0.3,3.4,0.9
	c0.7,1.2,0.3,2.8-0.9,3.5l-16.4,9.8C294.3,290.2,293.9,290.3,293.5,290.3L293.5,290.3z"/>
<path class="st0" d="M251.1,306.9c-0.9,0-1.7-0.5-2.2-1.3c-0.7-1.2-0.3-2.8,0.9-3.5l16.5-9.8c1.2-0.7,2.7-0.3,3.4,0.9
	c0.7,1.2,0.3,2.8-0.9,3.5l-16.5,9.8C252,306.8,251.5,306.9,251.1,306.9L251.1,306.9z"/>
<path class="st0" d="M251.1,298.3c-0.9,0-1.7-0.5-2.2-1.3c-0.7-1.2-0.3-2.8,0.9-3.5l16.5-9.8c1.2-0.7,2.7-0.3,3.4,0.9
	c0.7,1.2,0.3,2.8-0.9,3.5l-16.5,9.8C252,298.2,251.5,298.3,251.1,298.3L251.1,298.3z"/>
<path class="st0" d="M251.1,315.5c-0.9,0-1.7-0.5-2.2-1.3c-0.7-1.2-0.3-2.8,0.9-3.5l16.5-9.8c1.2-0.7,2.7-0.3,3.4,0.9
	c0.7,1.2,0.3,2.8-0.9,3.5l-16.5,9.8C252,315.4,251.5,315.5,251.1,315.5L251.1,315.5z"/>
<path class="st0" d="M70.7,230.8c-0.9,0-1.7-0.5-2.2-1.3c-0.7-1.2-0.3-2.8,0.9-3.5l20.2-12c1.2-0.7,2.7-0.3,3.4,0.9
	c0.7,1.2,0.3,2.8-0.9,3.5l-20.2,12C71.6,230.7,71.1,230.8,70.7,230.8L70.7,230.8z"/>
<path class="st0" d="M91,243.1c-1.4,0-2.5-1.1-2.5-2.6V104.9c0-1.4,1.1-2.6,2.5-2.6c1.4,0,2.5,1.1,2.5,2.6v135.7
	C93.4,242,92.3,243.1,91,243.1L91,243.1z"/>
<path class="st0" d="M49.9,283.8c-1.4,0-2.5-1.1-2.5-2.6V145.5c0-1.4,1.1-2.6,2.5-2.6c1.4,0,2.5,1.1,2.5,2.6v135.7
	C52.4,282.6,51.3,283.8,49.9,283.8L49.9,283.8z"/>
<path class="st0" d="M49.9,172.7c-1.4,0-2.5-1.1-2.5-2.6v-13.2c0-1.4,1.1-2.6,2.5-2.6c1.4,0,2.5,1.1,2.5,2.6v13.2
	C52.4,171.5,51.3,172.7,49.9,172.7L49.9,172.7z"/>
<path class="st0" d="M15.2,274.2c-0.2,0-0.5-0.1-0.6-0.4l-4-7.2c-0.2-0.3-0.1-0.8,0.3-1c0.3-0.2,0.8-0.1,1,0.3l4,7.2
	c0.2,0.3,0.1,0.8-0.3,1C15.5,274.1,15.4,274.2,15.2,274.2L15.2,274.2z"/>
<path class="st0" d="M62.6,302.5c-0.2,0-0.5-0.1-0.6-0.4l-10.3-18.4c-0.2-0.3-0.1-0.8,0.3-1c0.3-0.2,0.8-0.1,1,0.3l10.3,18.4
	c0.2,0.3,0.1,0.8-0.3,1C62.9,302.5,62.8,302.5,62.6,302.5L62.6,302.5z"/>
<path class="st0" d="M96.9,307.5c-0.2,0-0.5-0.1-0.6-0.4l-24.4-43.6c-0.2-0.3-0.1-0.8,0.3-1c0.3-0.2,0.8-0.1,1,0.3l24.4,43.6
	c0.2,0.3,0.1,0.8-0.3,1C97.1,307.5,97,307.5,96.9,307.5L96.9,307.5z"/>
<path class="st0" d="M119.8,292.2c-0.2,0-0.5-0.1-0.6-0.4l-1.5-2.7c-0.2-0.3-0.1-0.8,0.2-1c0.3-0.2,0.8-0.1,1,0.3l1.5,2.7
	c0.2,0.3,0.1,0.8-0.2,1C120,292.2,119.9,292.2,119.8,292.2L119.8,292.2z"/>
<path class="st0" d="M98.8,254.9c-0.2,0-0.5-0.1-0.6-0.4l-2.6-4.6c-0.2-0.3-0.1-0.8,0.3-1c0.3-0.2,0.8-0.1,1,0.3l2.6,4.6
	c0.2,0.3,0.1,0.8-0.3,1C99,254.9,98.9,254.9,98.8,254.9L98.8,254.9z"/>
<path class="st0" d="M88.8,237.1c-0.2,0-0.5-0.1-0.6-0.4l-6.9-12.3c-0.2-0.3-0.1-0.8,0.3-1c0.3-0.2,0.8-0.1,1,0.3l6.9,12.3
	c0.2,0.3,0.1,0.8-0.3,1C89.1,237.1,89,237.1,88.8,237.1L88.8,237.1z"/>
<path class="st0" d="M50.7,144.2c-0.4,0-0.7-0.3-0.7-0.7v-15.7c0-0.4,0.3-0.7,0.7-0.7c0.4,0,0.7,0.3,0.7,0.7v15.7
	C51.4,143.9,51.1,144.2,50.7,144.2L50.7,144.2z"/>
<path class="st0" d="M64.4,141.7c-0.4,0-0.7-0.3-0.7-0.7v-10.7c0-0.4,0.3-0.7,0.7-0.7c0.4,0,0.7,0.3,0.7,0.7v10.7
	C65.1,141.3,64.8,141.7,64.4,141.7L64.4,141.7z"/>
<path class="st0" d="M42.6,276.9c-0.2,0-0.5-0.1-0.6-0.4l-3.4-6.1c-0.2-0.3-0.1-0.8,0.3-1c0.3-0.2,0.8-0.1,1,0.3l3.4,6.1
	c0.2,0.3,0.1,0.8-0.3,1C42.8,276.9,42.7,276.9,42.6,276.9L42.6,276.9z"/>
<path class="st0" d="M47.8,230.1c-0.2,0-0.5-0.1-0.6-0.4l-8.8-15.6c-0.2-0.3-0.1-0.8,0.3-1c0.3-0.2,0.8-0.1,1,0.3l8.8,15.6
	c0.2,0.3,0.1,0.8-0.3,1C48,230.1,47.9,230.1,47.8,230.1L47.8,230.1z"/>
<path class="st0" d="M47.5,173.6c-0.2,0-0.5-0.1-0.6-0.3l-0.4-0.7c-0.2-0.3-0.1-0.8,0.2-1c0.3-0.2,0.8-0.1,1,0.2l0.4,0.7
	c0.2,0.3,0.1,0.8-0.2,1C47.8,173.5,47.7,173.6,47.5,173.6L47.5,173.6z"/>
<path class="st0" d="M105.2,112.5c-0.4,0-0.7-0.3-0.7-0.7V96c0-0.4,0.3-0.7,0.7-0.7c0.4,0,0.7,0.3,0.7,0.7v15.8
	C105.9,112.2,105.5,112.5,105.2,112.5L105.2,112.5z"/>
<path class="st0" d="M118.8,109.9c-0.4,0-0.7-0.3-0.7-0.7V98.6c0-0.4,0.3-0.7,0.7-0.7c0.4,0,0.7,0.3,0.7,0.7v10.5
	C119.5,109.6,119.2,109.9,118.8,109.9L118.8,109.9z"/>
<path class="st0" d="M303.1,289.2c-0.1,0-0.2,0-0.4-0.1l-14.3-8.5c-0.3-0.2-0.5-0.6-0.3-1c0.2-0.3,0.6-0.5,1-0.3l14.3,8.5
	c0.3,0.2,0.4,0.6,0.3,1C303.5,289,303.3,289.2,303.1,289.2L303.1,289.2z"/>
<path class="st0" d="M315.1,280.2c-0.1,0-0.2,0-0.4-0.1l-23.9-14.2c-0.3-0.2-0.4-0.6-0.3-1c0.2-0.3,0.6-0.5,1-0.3l23.9,14.2
	c0.3,0.2,0.5,0.6,0.3,1C315.6,280.1,315.4,280.2,315.1,280.2L315.1,280.2z"/>
<path class="st0" d="M314.7,263.7c-0.1,0-0.2,0-0.3-0.1l-9.4-5.5c-0.3-0.2-0.4-0.6-0.3-1c0.2-0.3,0.6-0.5,1-0.3l9.4,5.5
	c0.3,0.2,0.5,0.6,0.3,1C315.2,263.6,314.9,263.7,314.7,263.7L314.7,263.7z"/>
<path class="st0" d="M260.4,314.4c-0.1,0-0.2,0-0.4-0.1l-14-8.4c-0.3-0.2-0.5-0.6-0.3-1c0.2-0.3,0.6-0.5,1-0.3l14.1,8.4
	c0.3,0.2,0.4,0.6,0.3,1C260.9,314.3,260.7,314.4,260.4,314.4L260.4,314.4z"/>
<path class="st0" d="M272.7,305.6c-0.1,0-0.2,0-0.3-0.1l-24.1-14.4c-0.3-0.2-0.5-0.6-0.3-1c0.2-0.3,0.6-0.5,1-0.3l24.1,14.4
	c0.3,0.2,0.4,0.6,0.3,1C273.2,305.5,273,305.6,272.7,305.6L272.7,305.6z"/>
<path class="st0" d="M272.3,289.1c-0.1,0-0.2,0-0.4-0.1l-9.6-5.7c-0.3-0.2-0.4-0.6-0.3-1c0.2-0.3,0.6-0.5,1-0.3l9.6,5.7
	c0.3,0.2,0.5,0.6,0.3,1C272.8,289,272.6,289.1,272.3,289.1L272.3,289.1z"/>
<path class="st0" d="M130,236.6c-0.2,0-0.5-0.1-0.6-0.4l-7.3-13.1c-0.2-0.3-0.1-0.8,0.3-1c0.3-0.2,0.8-0.1,1,0.3l7.3,13.1
	c0.2,0.3,0.1,0.8-0.3,1C130.3,236.6,130.1,236.6,130,236.6L130,236.6z"/>
<path class="st0" d="M178,266.1c-0.2,0-0.5-0.1-0.6-0.4l-32.6-58c-0.2-0.3-0.1-0.8,0.3-1c0.3-0.2,0.8-0.1,1,0.3l32.6,58
	c0.2,0.3,0.1,0.8-0.3,1C178.2,266.1,178.1,266.1,178,266.1L178,266.1z"/>
<path class="st0" d="M203.9,256.3c-0.2,0-0.5-0.1-0.6-0.4l-34.9-62.3c-0.2-0.3-0.1-0.8,0.3-1c0.3-0.2,0.8-0.1,1,0.3l34.9,62.3
	c0.2,0.3,0.1,0.8-0.3,1C204.1,256.2,204,256.3,203.9,256.3L203.9,256.3z"/>
<path class="st0" d="M227.5,242.3c-0.2,0-0.5-0.1-0.6-0.4l-35-62.3c-0.2-0.3-0.1-0.8,0.3-1c0.3-0.2,0.8-0.1,1,0.3l35,62.3
	c0.2,0.3,0.1,0.8-0.3,1C227.7,242.2,227.6,242.3,227.5,242.3L227.5,242.3z"/>
<path class="st0" d="M250.6,227.4c-0.2,0-0.5-0.1-0.6-0.4l-19.2-34.1c-0.2-0.3-0.1-0.8,0.3-1c0.3-0.2,0.8-0.1,1,0.3l19.2,34.1
	c0.2,0.3,0.1,0.8-0.3,1C250.9,227.3,250.7,227.4,250.6,227.4L250.6,227.4z"/>
<path class="st0" d="M218.2,169.7c-0.2,0-0.5-0.1-0.6-0.4l-1-1.7c-0.2-0.3-0.1-0.8,0.3-1c0.3-0.2,0.8-0.1,1,0.3l1,1.7
	c0.2,0.3,0.1,0.8-0.3,1C218.4,169.6,218.3,169.7,218.2,169.7L218.2,169.7z"/>
<path class="st0" d="M274.1,213.4c-0.2,0-0.5-0.1-0.6-0.4l-19.1-34.1c-0.2-0.3-0.1-0.8,0.3-1c0.3-0.2,0.8-0.1,1,0.3l19.1,34.1
	c0.2,0.3,0.1,0.8-0.3,1C274.4,213.4,274.3,213.4,274.1,213.4L274.1,213.4z"/>
<path class="st0" d="M241.5,155.2c-0.2,0-0.5-0.1-0.6-0.4l-0.7-1.2c-0.2-0.3-0.1-0.8,0.3-1c0.3-0.2,0.8-0.1,1,0.3l0.7,1.2
	c0.2,0.3,0.1,0.8-0.3,1C241.8,155.2,241.6,155.2,241.5,155.2L241.5,155.2z"/>
<path class="st0" d="M297.6,199.1c-0.2,0-0.5-0.1-0.6-0.4l-13.7-24.3c-0.2-0.3-0.1-0.8,0.3-1c0.3-0.2,0.8-0.1,1,0.3l13.7,24.3
	c0.2,0.3,0.1,0.8-0.3,1C297.9,199,297.7,199.1,297.6,199.1L297.6,199.1z"/>
<path class="st0" d="M189.1,298.8c-0.1,0-0.2,0-0.3-0.1l-5.3-3.2c-0.3-0.2-0.5-0.6-0.3-1c0.2-0.3,0.6-0.5,1-0.3l5.3,3.2
	c0.3,0.2,0.5,0.6,0.3,1C189.5,298.7,189.3,298.8,189.1,298.8L189.1,298.8z"/>
<path class="st0" d="M202.9,290.9c-0.1,0-0.2,0-0.3-0.1l-12.5-7.4c-0.3-0.2-0.5-0.6-0.3-1c0.2-0.3,0.6-0.5,1-0.3l12.5,7.4
	c0.3,0.2,0.4,0.6,0.3,1C203.4,290.7,203.2,290.9,202.9,290.9L202.9,290.9z"/>
<path class="st0" d="M216.5,282.8c-0.1,0-0.2,0-0.4-0.1l-12.5-7.5c-0.3-0.2-0.4-0.6-0.3-1c0.2-0.3,0.6-0.5,1-0.3l12.5,7.5
	c0.3,0.2,0.5,0.6,0.3,1C217,282.7,216.8,282.8,216.5,282.8L216.5,282.8z"/>
<path class="st0" d="M230.2,274.7c-0.1,0-0.2,0-0.4-0.1l-12.5-7.5c-0.3-0.2-0.5-0.6-0.3-1c0.2-0.3,0.6-0.5,1-0.3l12.5,7.5
	c0.3,0.2,0.5,0.6,0.3,1C230.6,274.6,230.4,274.7,230.2,274.7L230.2,274.7z"/>
<path class="st0" d="M243.8,266.7c-0.1,0-0.2,0-0.4-0.1l-12.5-7.5c-0.3-0.2-0.5-0.6-0.3-1c0.2-0.3,0.6-0.5,1-0.3l12.5,7.5
	c0.3,0.2,0.5,0.6,0.3,1C244.3,266.5,244.1,266.7,243.8,266.7L243.8,266.7z"/>
<path class="st0" d="M257.4,258.6c-0.1,0-0.2,0-0.4-0.1l-12.5-7.5c-0.3-0.2-0.5-0.6-0.3-1c0.2-0.3,0.6-0.5,1-0.3l12.5,7.5
	c0.3,0.2,0.5,0.6,0.3,1C257.9,258.4,257.6,258.6,257.4,258.6L257.4,258.6z"/>
<path class="st0" d="M271.1,250.5c-0.1,0-0.2,0-0.4-0.1l-12.5-7.5c-0.3-0.2-0.5-0.6-0.3-1c0.2-0.3,0.6-0.5,1-0.3l12.5,7.5
	c0.3,0.2,0.5,0.6,0.3,1C271.6,250.4,271.3,250.5,271.1,250.5L271.1,250.5z"/>
<path class="st0" d="M284.7,242.4c-0.1,0-0.2,0-0.4-0.1l-12.5-7.5c-0.3-0.2-0.5-0.6-0.3-1c0.2-0.3,0.6-0.5,1-0.3l12.5,7.5
	c0.3,0.2,0.4,0.6,0.3,1C285.1,242.3,284.9,242.4,284.7,242.4L284.7,242.4z"/>
<path class="st0" d="M298.3,234.3c-0.1,0-0.2,0-0.3-0.1l-12.6-7.5c-0.3-0.2-0.5-0.6-0.3-1c0.2-0.3,0.6-0.5,1-0.3l12.6,7.5
	c0.3,0.2,0.5,0.6,0.3,1C298.8,234.2,298.6,234.3,298.3,234.3L298.3,234.3z"/>
<path class="st0" d="M311.9,226.3c-0.1,0-0.2,0-0.4-0.1l-12.6-7.5c-0.3-0.2-0.4-0.6-0.3-1c0.2-0.3,0.6-0.5,1-0.3l12.6,7.5
	c0.3,0.2,0.5,0.6,0.3,1C312.4,226.1,312.2,226.3,311.9,226.3L311.9,226.3z"/>
<path class="st0" d="M322.3,216.3c-0.1,0-0.2,0-0.3-0.1l-9.2-5.5c-0.3-0.2-0.5-0.6-0.3-1c0.2-0.3,0.6-0.5,1-0.3l9.2,5.5
	c0.3,0.2,0.5,0.6,0.3,1C322.8,216.2,322.6,216.3,322.3,216.3L322.3,216.3z"/>
<path class="st0" d="M168.9,296.1c-0.2,0-0.5-0.1-0.6-0.4c-0.2-0.3-0.1-0.8,0.3-1l10.4-6.2c0.3-0.2,0.8-0.1,1,0.3
	c0.2,0.3,0.1,0.8-0.3,1l-10.4,6.2C169.1,296,169,296.1,168.9,296.1L168.9,296.1z"/>
<path class="st0" d="M155.2,288c-0.2,0-0.5-0.1-0.6-0.4c-0.2-0.3-0.1-0.8,0.3-1l12.4-7.4c0.3-0.2,0.8-0.1,1,0.3
	c0.2,0.3,0.1,0.8-0.3,1l-12.4,7.4C155.5,288,155.4,288,155.2,288L155.2,288z"/>
<path class="st0" d="M141.6,279.9c-0.2,0-0.5-0.1-0.6-0.4c-0.2-0.3-0.1-0.8,0.3-1l12.5-7.4c0.3-0.2,0.8-0.1,1,0.3
	c0.2,0.3,0.1,0.8-0.3,1l-12.5,7.4C141.8,279.9,141.7,279.9,141.6,279.9L141.6,279.9z"/>
<path class="st0" d="M128,271.8c-0.2,0-0.5-0.1-0.6-0.4c-0.2-0.3-0.1-0.8,0.3-1l12.5-7.4c0.3-0.2,0.8-0.1,1,0.3
	c0.2,0.3,0.1,0.8-0.3,1l-12.5,7.4C128.2,271.8,128.1,271.8,128,271.8L128,271.8z"/>
<path class="st0" d="M114.4,263.8c-0.2,0-0.5-0.1-0.6-0.4c-0.2-0.3-0.1-0.8,0.3-1l12.4-7.4c0.3-0.2,0.8-0.1,1,0.3
	c0.2,0.3,0.1,0.8-0.3,1l-12.4,7.4C114.6,263.7,114.5,263.8,114.4,263.8L114.4,263.8z"/>
<path class="st0" d="M103.4,254.1c-0.2,0-0.5-0.1-0.6-0.4c-0.2-0.3-0.1-0.8,0.3-1l9.7-5.8c0.3-0.2,0.8-0.1,1,0.3
	c0.2,0.3,0.1,0.8-0.3,1l-9.7,5.8C103.7,254.1,103.5,254.1,103.4,254.1L103.4,254.1z"/>
<path class="st0" d="M155.7,268.5c-0.2,0-0.5-0.1-0.6-0.4c-0.2-0.3-0.1-0.8,0.3-1l9.6-5.7c0.3-0.2,0.8-0.1,1,0.3
	c0.2,0.3,0.1,0.8-0.3,1l-9.6,5.7C155.9,268.4,155.8,268.5,155.7,268.5L155.7,268.5z"/>
<path class="st0" d="M128.5,252.3c-0.2,0-0.5-0.1-0.6-0.4c-0.2-0.3-0.1-0.8,0.3-1l9.6-5.7c0.3-0.2,0.8-0.1,1,0.3
	c0.2,0.3,0.1,0.8-0.3,1l-9.6,5.7C128.7,252.3,128.6,252.3,128.5,252.3L128.5,252.3z"/>
<path class="st0" d="M103.5,234.8c-0.2,0-0.5-0.1-0.6-0.4c-0.2-0.3-0.1-0.8,0.3-1l7.2-4.3c0.3-0.2,0.8-0.1,1,0.3
	c0.2,0.3,0.1,0.8-0.3,1l-7.2,4.3C103.8,234.8,103.7,234.8,103.5,234.8L103.5,234.8z"/>
<path class="st0" d="M98.3,246.1c-0.2,0-0.5-0.1-0.6-0.4l-4.9-8.8c-0.2-0.3-0.1-0.8,0.3-1c0.3-0.2,0.8-0.1,1,0.3l4.9,8.8
	c0.2,0.3,0.1,0.8-0.3,1C98.5,246,98.4,246.1,98.3,246.1L98.3,246.1z"/>
<path class="st0" d="M102,196.6c-0.2,0-0.5-0.1-0.6-0.4l-8.8-15.6c-0.2-0.3-0.1-0.8,0.3-1c0.3-0.2,0.8-0.1,1,0.3l8.8,15.6
	c0.2,0.3,0.1,0.8-0.3,1C102.2,196.6,102.1,196.6,102,196.6L102,196.6z"/>
<path class="st0" d="M151.9,344.4c-0.2,0-0.5-0.1-0.6-0.4c-0.2-0.3-0.1-0.8,0.3-1l27.9-16.5c0.3-0.2,0.8-0.1,1,0.3
	c0.2,0.3,0.1,0.8-0.3,1l-27.9,16.5C152.2,344.4,152.1,344.4,151.9,344.4L151.9,344.4z"/>
<path class="st0" d="M127.1,326.8c-0.2,0-0.5-0.1-0.6-0.4c-0.2-0.3-0.1-0.8,0.3-1l43.6-25.9c0.3-0.2,0.8-0.1,1,0.3
	c0.2,0.3,0.1,0.8-0.3,1l-43.6,25.9C127.3,326.8,127.2,326.8,127.1,326.8L127.1,326.8z"/>
<path class="st0" d="M128,293.9c-0.2,0-0.5-0.1-0.6-0.4c-0.2-0.3-0.1-0.8,0.3-1l14.4-8.6c0.3-0.2,0.8-0.1,1,0.3
	c0.2,0.3,0.1,0.8-0.3,1l-14.4,8.6C128.3,293.9,128.2,293.9,128,293.9L128,293.9z"/>
<path class="st0" d="M104.2,275.8c-0.2,0-0.5-0.1-0.6-0.4c-0.2-0.3-0.1-0.8,0.3-1l10.9-6.5c0.3-0.2,0.8-0.1,1,0.3
	c0.2,0.3,0.1,0.8-0.3,1l-10.9,6.5C104.4,275.8,104.3,275.8,104.2,275.8L104.2,275.8z"/>
<path class="st0" d="M68.3,345.5c-0.2,0-0.5-0.1-0.6-0.4c-0.2-0.3-0.1-0.8,0.3-1l12.3-7.3c0.3-0.2,0.8-0.1,1,0.3
	c0.2,0.3,0.1,0.8-0.3,1l-12.3,7.3C68.6,345.5,68.4,345.5,68.3,345.5L68.3,345.5z"/>
<path class="st0" d="M54.2,337.7c-0.2,0-0.5-0.1-0.6-0.4c-0.2-0.3-0.1-0.8,0.3-1l26.9-15.9c0.3-0.2,0.8-0.1,1,0.3
	c0.2,0.3,0.1,0.8-0.3,1l-26.9,15.9C54.5,337.7,54.4,337.7,54.2,337.7L54.2,337.7z"/>
<path class="st0" d="M40.5,329.7c-0.2,0-0.5-0.1-0.6-0.4c-0.2-0.3-0.1-0.8,0.3-1l30.3-18c0.3-0.2,0.8-0.1,1,0.3
	c0.2,0.3,0.1,0.8-0.3,1l-30.3,18C40.8,329.6,40.6,329.7,40.5,329.7L40.5,329.7z"/>
<path class="st0" d="M26.9,321.6c-0.2,0-0.5-0.1-0.6-0.4c-0.2-0.3-0.1-0.8,0.3-1l30.3-18c0.3-0.2,0.8-0.1,1,0.3
	c0.2,0.3,0.1,0.8-0.3,1l-30.3,18C27.2,321.6,27.1,321.6,26.9,321.6L26.9,321.6z"/>
<path class="st0" d="M13.3,313.5c-0.2,0-0.5-0.1-0.6-0.4c-0.2-0.3-0.1-0.8,0.3-1l30.3-18c0.3-0.2,0.8-0.1,1,0.3
	c0.2,0.3,0.1,0.8-0.3,1l-30.3,18C13.5,313.5,13.4,313.5,13.3,313.5L13.3,313.5z"/>
<path class="st0" d="M4.2,302.8c-0.2,0-0.5-0.1-0.6-0.4c-0.2-0.3-0.1-0.8,0.3-1l25.6-15.2c0.3-0.2,0.8-0.1,1,0.3
	c0.2,0.3,0.1,0.8-0.3,1L4.5,302.7C4.4,302.7,4.3,302.8,4.2,302.8L4.2,302.8z"/>
<path class="st0" d="M4.7,286.3c-0.2,0-0.5-0.1-0.6-0.4c-0.2-0.3-0.1-0.8,0.3-1l11-6.5c0.3-0.2,0.8-0.1,1,0.3c0.2,0.3,0.1,0.8-0.3,1
	l-11,6.5C5,286.2,4.8,286.3,4.7,286.3L4.7,286.3z"/>
<path class="st0" d="M104.7,55.5c-0.2,0-0.5-0.1-0.6-0.4l-3-5.4c-0.2-0.3-0.1-0.8,0.3-1c0.3-0.2,0.8-0.1,1,0.3l3,5.4
	c0.2,0.3,0.1,0.8-0.3,1C105,55.5,104.9,55.5,104.7,55.5L104.7,55.5z"/>
<path class="st0" d="M126.3,37.9c-0.2,0-0.5-0.1-0.6-0.4l-2.5-4.4c-0.2-0.3-0.1-0.8,0.2-1c0.3-0.2,0.8-0.1,1,0.3l2.5,4.4
	c0.2,0.3,0.1,0.8-0.2,1C126.6,37.8,126.4,37.9,126.3,37.9L126.3,37.9z"/>
<path class="st0" d="M145,15.2c-0.2,0-0.5-0.1-0.6-0.4l-2.8-4.9c-0.2-0.3-0.1-0.8,0.3-1c0.3-0.2,0.8-0.1,1,0.3l2.8,4.9
	c0.2,0.3,0.1,0.8-0.3,1C145.3,15.2,145.1,15.2,145,15.2L145,15.2z"/>
<path class="st0" d="M206.9,185.2c-0.2,0-0.5-0.1-0.6-0.3c-0.2-0.3-0.1-0.8,0.2-1l0.4-0.2c0.3-0.2,0.8-0.1,1,0.2
	c0.2,0.3,0.1,0.8-0.2,1l-0.4,0.2C207.1,185.1,207,185.2,206.9,185.2L206.9,185.2z"/>
<path class="st0" d="M234.1,169c-0.2,0-0.5-0.1-0.6-0.4c-0.2-0.3-0.1-0.8,0.3-1l0.4-0.2c0.3-0.2,0.8-0.1,1,0.3
	c0.2,0.3,0.1,0.8-0.3,1l-0.4,0.2C234.3,169,234.2,169,234.1,169L234.1,169z"/>
</svg>
