<?xml version="1.0" encoding="utf-8"?>
<!-- Generator: Adobe Illustrator 24.1.2, SVG Export Plug-In . SVG Version: 6.00 Build 0)  -->
<svg version="1.1" id="Camada_1" xmlns="http://www.w3.org/2000/svg" xmlns:xlink="http://www.w3.org/1999/xlink" x="0px" y="0px"
	 viewBox="0 0 2405.3 1477.3" style="enable-background:new 0 0 2405.3 1477.3;" xml:space="preserve">
<style type="text/css">
	.st0{fill-rule:evenodd;clip-rule:evenodd;}
	.st1{fill-rule:evenodd;clip-rule:evenodd;fill:#0088CC;}
</style>
<path class="st0" d="M900.2,1394.5l0.1-24.7c-45,6.1-103.7-17-102.6-70.1c0-51.6,42.8-71.2,102.7-70.4l0-25.1
	c-66.8-2.4-138.6,18.7-140.3,95.4C760.9,1369.7,820.9,1399.9,900.2,1394.5L900.2,1394.5z M350.2,1399.2c53.1,0,96.4-44.8,96.4-99.7
	c0-54.9-43.3-99.7-96.4-99.7s-96.4,44.8-96.4,99.7C253.7,1354.4,297.1,1399.2,350.2,1399.2z M350.2,1372c33.5,0,60.8-32.6,60.8-72.5
	c0-39.9-27.3-72.5-60.8-72.5c-33.5,0-60.8,32.6-60.8,72.5C289.3,1339.4,316.7,1372,350.2,1372z M1831.1,1399.2
	c53.1,0,96.4-44.8,96.4-99.7c0-54.9-43.3-99.7-96.4-99.7c-53.1,0-96.4,44.8-96.4,99.7C1734.6,1354.4,1778,1399.2,1831.1,1399.2z
	 M1831.1,1372c33.5,0,60.8-32.6,60.8-72.5c0-39.9-27.3-72.5-60.8-72.5c-33.5,0-60.8,32.6-60.8,72.5
	C1770.2,1339.4,1797.6,1372,1831.1,1372z M71,1205.4h32.6v190.4H71V1205.4z M694.1,1205.4h32.6v190.4h-32.6V1205.4z M1455.6,1205.4
	h32.6v190.4h-32.6V1205.4z M614.8,1205.4h30.9v190.4h-27c-25.7-64.5-77.4-127.8-111.3-147.9v147.9h-30.9v-190.4h24
	c49.9,31.7,94.3,78,114.2,118.3L614.8,1205.4L614.8,1205.4z M1675.5,1205.4h30.9v190.4h-26.9c-25.8-64.5-77.4-127.8-111.3-147.9
	v147.9h-30.9v-190.4h24c49.8,31.7,94.2,78,114.2,118.3L1675.5,1205.4L1675.5,1205.4L1675.5,1205.4z M166.3,1283
	c39.5,31,65.8,69.3,79.9,112.8H210c-9.7-27.1-42.1-79.4-89-107.8l78.4-82.6h40.3L166.3,1283L166.3,1283z M913.6,1395.4h32.3
	l53-123.4l63.8,123.8l38.1-0.4l-101.1-192.2L913.6,1395.4L913.6,1395.4z M1957.5,1205.4h34.1v165.4h75.4v25h-109.5V1205.4z
	 M2182.8,1205.4v24.8h-48.7v165.6h-32.6v-165.6h-48.7v-24.8H2182.8z M2163.2,1395.4h32.3l53-123.4l63.8,123.8l38.1-0.4l-101.1-192.2
	L2163.2,1395.4z M1177.3,1395.4l35,0.4c8.8-41.8,18-83.6,27.6-124.7c21.4,35,36.5,71.6,49.7,108.6h23.7
	c13.2-37,28.3-73.6,49.7-108.6c9.6,41.5,18.8,83,27.6,124.7l35-0.4c-17.2-64.1-30-128.2-53.8-192.2c-24.4,32-56.4,88.6-70.2,127.8
	c-12.3-39.8-45.8-95.8-70.2-127.8C1207.4,1267.3,1194.6,1331.4,1177.3,1395.4L1177.3,1395.4z"/>
<path class="st1" d="M1573.3,198.6c69.5,59.2,119.1,128.7,146.7,211.8c0,5.1-2.6,9.6-7.1,10.9l-77.2,2.6l-424.8,3.2H800.3
	l-133.2-1.9c-3.9-1.3-6.4-5.1-6.4-8.4c8.4-35.4,25.1-65,43.8-96.5c126.2-197.6,357.2-285.1,592.1-247.8
	C1398.9,90.5,1492.8,129.8,1573.3,198.6z M1716.2,674.3c5.2,1.3,8.4,7.1,6.4,12.2c-63.1,203.4-272.2,334-478.2,348.9
	c-222.7,15.4-437.7-80.5-549-268.4c-12.9-26.4-26.4-52.8-33.5-81.7c-1.3-5.1,2.6-8.4,5.8-9.7l18-2.6l321.8-1.3h634L1716.2,674.3z
	 M1731,612.5c12.9,9.6,2.6,27.7,1.3,41.2c-2.6,2.6-2.6,7.1-7.7,7.1l-81.7-1.9l-280-16.1l-183.4-7.1l-293.5,13.5l-178.3,11.6
	c-18-1.3-36,3.9-52.8-1.3c-5.8-11.6-9.7-25.1-8.4-39.3c10.9-9.7,26.4-2.6,39.3-6.4l410.6,10.9h208.5l271.6-8.4
	C1627.4,613.8,1681.4,612.5,1731,612.5L1731,612.5z M1743.2,559.7c1.9,12.2,0.7,24.5-1.3,36c-7.7,9.7-19.3,3.9-29,5.1l-204.7-9.6
	l-200.8-8.4l-244.6,1.3L894.3,590l-222.7,12.2c-8.4,0.6-19.3,1.9-27.7-1.3c-5.8-10.9-5.8-26.4-3.9-39.9l6.4-3.9h51.5l328.9,12.2
	l199.5,1.3l153.2-2.6l336-14.2C1724.6,555.2,1736.8,550.1,1743.2,559.7L1743.2,559.7z M1739.4,499.9c2.6,11.6,9.6,33.5-3.9,41.8
	h-72.1l-279.3-12.2l-250.4-0.6L972.8,532l-309.6,12.2c-8.4-1.3-19.3,3.2-23.8-6.4c-1.3-11.6-1.3-23.8,0.6-34.8
	c7.7-11.6,20.6-3.2,30.3-5.8l345.6,18c95.3,2.6,196.3,1.3,289,1.3l199.5-9.6l207.2-12.2C1720,494.7,1733.5,490.2,1739.4,499.9
	L1739.4,499.9z M1727.1,438.1c6.4,12.2,10.9,26.4,7.1,41.2l-5.8,3.2l-114.6-0.6l-282.5-6.4l-203.4-1.3l-197.6,5.1l-242,5.8l-36-1.3
	c-15.4-7.1-3.2-25.1-2.6-37.3c2.6-3.2,5.1-8.4,9.6-8.4l81.1,2.6l240.7,13.5l218.8,9.6l385.5-21.9c45.7-3.9,91.4-7.1,137.1-7.1
	L1727.1,438.1L1727.1,438.1z"/>
</svg>
