<?xml version="1.0" encoding="utf-8"?>
<!-- Generator: Adobe Illustrator 24.1.2, SVG Export Plug-In . SVG Version: 6.00 Build 0)  -->
<svg version="1.1" id="Camada_1" xmlns="http://www.w3.org/2000/svg" xmlns:xlink="http://www.w3.org/1999/xlink" x="0px" y="0px"
	 viewBox="0 0 384.5 291.1" style="enable-background:new 0 0 384.5 291.1;" xml:space="preserve">
<style type="text/css">
	.st0{fill:#FFFFFF;}
</style>
<g>
	<path class="st0" d="M172.2,33.3c0.3,1.6,0.5,2.9,0.8,4.2c1.7,6.4,3.4,12.8,5.1,19.1c1.6,5.9,3.2,11.8,4.8,17.8
		c2.4,9.1,4.8,18.2,7.2,27.2c2.2,8.4,4.5,16.8,6.7,25.2c0.3,1,0.6,2,0.8,3c0.3,1.1,0.9,1.7,2,1.6c0.3,0,0.6,0,1,0
		c10.2,0,20.3,0,30.5,0c0.8,0,1.6-0.1,2.6-0.1c0-1.2,0.1-2.2,0.1-3.2c0-38.5,0-76.9,0-115.4c0-2.2,0.2-4.3,1.3-6.2
		c1.5-2.8,3.8-4.6,6.8-5.6C244,0.1,246,0,248,0c13.8,0,27.7,0,41.5,0c3.5,0,6.6,1,9.1,3.5c2.2,2.2,3.4,4.8,3.4,7.9
		c0,4.4,0,8.8,0,13.2c0,64,0,128.1,0,192.1c0,2.6,0.3,5,1.4,7.4c2.6,5.6,4,11.6,3.9,17.8c0,0.4,0.1,0.8,0.1,1.5c1,0.1,2,0.2,3,0.2
		c20.6,0,41.1,0,61.7,0c4.4,0,8,1.6,10.5,5.2c4.8,6.9,0.6,16-6.6,17.5c-1.9,0.4-3.9,0.7-5.9,0.7c-22.1,0-44.1,0.1-66.2,0
		c-2.2,0-3.4,0.7-4.6,2.5c-6.1,9.2-14.6,15.5-25,19c-2.9,1-5.9,1.8-9.1,1.8c-2.3,0-4.6,0.7-6.9,0.6c-16.1-1-29-7.8-38.4-21.1
		c-0.3-0.5-0.7-0.9-0.9-1.4c-0.5-1.1-1.4-1.5-2.5-1.4c-0.6,0-1.1,0-1.7,0c-37.7,0-75.5,0-113.2,0c-3.5,0-3.4,0-4.8,3.2
		c-4,9.1-10.7,15.2-20.1,18.7c-3.4,1.2-6.8,1.8-10.3,1.9c-6,0.2-11.7-1.2-17-4.1c-7.5-4.1-12.8-10.2-15.9-18.2
		c-0.5-1.3-1.2-1.8-2.4-2c-2.8-0.4-5.5-0.8-8.2-1.7c-8.6-3.1-15-8.7-19.1-16.8C1.2,243.3,0,238.1,0,232.6c0.1-16-0.1-32,0.1-48
		c0.2-14.7,5.8-27.3,16.2-37.7c5.3-5.3,11.6-9.3,18.6-12c2.7-1.1,5.6-1.7,8.7-2.7c0-0.9,0-2,0-3c0-35.8,0-71.6,0-107.5
		c0-3.9,1.4-7,4.4-9.4c2.1-1.8,4.6-2.5,7.3-2.5c2.1-0.1,4.2,0,6.2,0c39.6,0,79.2,0,118.7,0c2.3,0,4.6,0.2,6.7,1.3
		c4.9,2.6,7.3,7.7,6.1,12.8c-1.2,5.1-5.6,8.8-11,9.1c-2.4,0.1-4.8,0-7.2,0.1C174.1,33.2,173.3,33.2,172.2,33.3z M66.5,33.1
		c0,9.6,0,18.9,0,28.2c0,9.4,0,18.7,0,28.1c0,9.4,0,18.9,0,28.3c0,9.4,0,18.7,0,28.1c0,9.3-0.2,18.6,0.1,28c37.4,0,74.5,0,111.7,0
		c0.1-0.8,0.2-1.4,0.2-2c0-8.2,0-16.3,0-24.5c0-0.8-0.1-1.6-0.3-2.4c-1.6-6.2-3.3-12.5-5-18.7c-1.5-5.5-2.9-11.1-4.4-16.6
		c-1.2-4.3-2.5-8.6-3.6-12.9c-1.2-4.3-2.3-8.6-3.4-12.9c-1.1-4.2-2.2-8.5-3.4-12.7c-1.1-4.2-2.3-8.4-3.5-12.7
		c-1.1-3.9-2.1-7.8-3.2-11.8c-1.1-4-2.1-8-3.1-12c-0.3-1-0.8-1.7-2-1.6c-0.5,0-1,0-1.4,0c-25.2,0-50.4,0-75.6,0
		C68.6,33.1,67.7,33.1,66.5,33.1z M43.6,156.9c-2.2-0.2-3.6,1-5,1.9c-10.1,6.3-15.3,15.4-15.4,27.2c-0.1,15.4-0.1,30.7,0,46.1
		c0,5.3,2.4,9.1,7.5,11.1c2.2,0.9,3.1,0.6,4.2-1.5c7.2-14,22.5-21.5,37.9-18.1c7.4,1.6,13.7,5.3,18.5,11.2c2.2,2.7,4,5.7,6,8.7
		c37.9,0,76,0,114,0c0.2-0.3,0.3-0.4,0.3-0.6c0-0.5,0.1-1,0.1-1.4c-0.1-4.5,0.9-8.8,2.3-13.1c3.3-10.4,9.6-18.6,18.5-24.8
		c1.2-0.9,1.8-1.8,1.7-3.3c-0.1-14.4,0-28.8,0-43.2c0-0.7-0.1-1.4-0.1-2c-2.5-0.6-30.3-0.5-32.3,0.1c0,0.9,0,1.8,0,2.8
		c0,9.3,0,18.6,0,27.8c0,3.7-1.6,6.7-4.5,9.1c-2.7,2.1-5.7,2.6-9,2.6c-43.6,0-87.2,0-130.7,0c-0.6,0-1.3,0-1.9,0
		c-7.6-0.1-12.1-6.5-11.8-12.1c0.3-6,0.1-12,0.1-18C43.6,163.9,43.6,160.5,43.6,156.9z M257.1,23.6c0,57.1,0,114.1,0,171.1
		c3.8,0.4,7.5,0.5,11.1,1.2c3.6,0.7,7,1.9,10.5,2.9c0.6-2.2,0.5-173,0-175.1C271.6,23.6,264.5,23.6,257.1,23.6z M259.4,218.4
		c-13-0.3-24.8,10.4-24.8,24.7c0,14.1,11.5,24.6,24.6,24.7c13.5,0,24.9-10.6,24.9-24.6C284.2,228.7,272.4,218.1,259.4,218.4z
		 M65.3,267.7c5.3,0.4,10.8-4.5,10.8-10.7c0-6.4-5.5-11-10.9-10.9c-5.4,0-10.8,4.7-10.8,10.8C54.4,262.7,59.6,268,65.3,267.7z"/>
</g>
</svg>
