<?xml version="1.0" encoding="utf-8"?>
<!-- Generator: Adobe Illustrator 24.1.2, SVG Export Plug-In . SVG Version: 6.00 Build 0)  -->
<svg version="1.1" id="Camada_1" xmlns="http://www.w3.org/2000/svg" xmlns:xlink="http://www.w3.org/1999/xlink" x="0px" y="0px"
	 viewBox="0 0 398 406" style="enable-background:new 0 0 398 406;" xml:space="preserve">
<style type="text/css">
	.st0{fill:#FFFFFF;}
</style>
<path class="st0" d="M198.1,12C300.4,11.8,387,95.7,385,203c-1.8,98.7-83.2,185.2-191.9,182.8C95.2,383.7,8.4,302.6,11.2,193.3
	C13.7,95,94.3,12.2,198.1,12z M198.2,358.8c86.6,0.3,164.8-72.6,159.3-169.4c-2.3-40.7-18.3-75.7-47.4-104.1
	c-33.8-33.1-74.9-48.5-122.2-45.7c-39.8,2.3-74.2,17.9-102.4,46.1c-33.9,33.9-49.5,75.3-47,123.1
	C42.9,288.2,109.3,358.4,198.2,358.8z"/>
<path class="st0" d="M291,291.5c-13,0-25.6,0-38.7,0c0-1.2,0-2.3,0-3.4c0-21.1,0.2-42.3-0.1-63.4c-0.1-4.9-1.2-9.9-2.5-14.7
	c-1.6-5.7-5.6-9.2-11.5-10.6c-5.9-1.5-11.7-0.9-17.1,1.7c-6.4,3-9.2,8.8-10.4,15.3c-0.8,4.1-1.1,8.3-1.2,12.4
	c-0.1,19.8-0.1,39.6-0.1,59.4c0,1,0,2.1,0,3.2c-13,0-25.7,0-38.9,0c0-1,0-2,0-3c0-39.1,0-78.3-0.1-117.4c0-3,0.9-3.6,3.7-3.6
	c11,0.2,22.1,0.1,33.5,0.1c0,5.6,0,11.1,0,17.3c2.3-2.8,3.9-5.2,5.8-7.3c8.1-8.6,18.3-12.5,30-12.8c7.9-0.3,15.7,0.7,23.1,3.7
	c11.6,4.7,18,13.9,21.3,25.6c2.6,9.1,3.2,18.5,3.2,27.8c0.2,22.7,0.1,45.3,0.1,68C291.1,290.3,291.1,290.7,291,291.5z"/>
<path class="st0" d="M108.5,167.6c12.8,0,25.2,0,38,0c0,41.2,0,82.4,0,123.8c-12.6,0-25.2,0-38,0C108.5,250.2,108.5,209,108.5,167.6
	z"/>
<path class="st0" d="M127.6,106.3c12.2-0.2,22.2,9.4,22.4,22c0.1,13.2-10.3,22.9-23.2,22.7c-11.7-0.2-22-10.7-21.7-22.6
	C105.3,115.6,115.5,105.8,127.6,106.3z"/>
</svg>
