<?xml version="1.0" encoding="utf-8"?>
<!-- Generator: Adobe Illustrator 24.1.2, SVG Export Plug-In . SVG Version: 6.00 Build 0)  -->
<svg version="1.1" id="Camada_1" xmlns="http://www.w3.org/2000/svg" xmlns:xlink="http://www.w3.org/1999/xlink" x="0px" y="0px"
	 viewBox="0 0 174.9 251" style="enable-background:new 0 0 174.9 251;" xml:space="preserve">
<style type="text/css">
	.st0{fill:#007AC0;}
</style>
<path class="st0" d="M95.1,251c-0.4,0-0.8-0.1-1.2-0.4c-6.2-4.8-13.3-9.7-20.7-14.9c-15.7-11-32-22.4-43.3-34.4
	c-9.8-10.6-14.8-25.7-14.8-44.9c0-50.3,35.4-111.6,79-136.7c21.4-12.4,41.7-14.3,57-5.5c15.3,8.9,23.8,27.4,23.8,52.1
	c0,18.9-5,40-14.4,60.8c-11.2,24.7-27.2,54.5-42.7,83.3c-7.6,14.1-14.7,27.4-21.1,39.6c-0.3,0.5-0.7,0.9-1.3,1
	C95.3,251,95.2,251,95.1,251L95.1,251z M129.9,12.5C119.5,12.5,108,16,96,22.9C53.5,47.4,19,107.2,19,156.3
	c0,18.2,4.6,32.5,13.7,42.3c11,11.7,27.1,23,42.7,33.9c6.8,4.7,13.2,9.2,19,13.6c6.1-11.7,12.9-24.3,20-37.6
	c15.5-28.8,31.5-58.5,42.6-83.1c9.2-20.4,14-40.8,14-59.2c0-23.3-7.8-40.7-21.9-48.8C143.5,14.1,136.9,12.5,129.9,12.5L129.9,12.5z"
	/>
<path class="st0" d="M69.4,187.4c-5.8,0-11.2-1.4-15.9-4.1c-11.5-6.6-17.8-20.4-17.8-38.9c0-37.2,26.2-82.6,58.4-101.2
	c15.9-9.2,31-10.7,42.5-4c11.5,6.6,17.8,20.4,17.8,38.9c0,37.2-26.2,82.6-58.4,101.2C86.7,184.6,77.6,187.4,69.4,187.4L69.4,187.4z
	 M120.7,39c-7.5,0-15.9,2.6-24.7,7.6l0,0c-31.2,18-56.5,61.8-56.5,97.8c0,17,5.6,29.6,15.9,35.5c10.2,5.9,24,4.5,38.7-4
	c31.1-18,56.5-61.9,56.5-97.8c0-17-5.6-29.6-15.9-35.5C130.5,40.1,125.8,39,120.7,39L120.7,39z M95.1,44.9L95.1,44.9L95.1,44.9
	L95.1,44.9z"/>
<path class="st0" d="M79.8,157.3c-3.6,0-6.9-0.8-9.9-2.6c-7.1-4.1-11-12.5-11-23.8c0-22.4,15.8-49.7,35.2-60.9
	c9.8-5.6,19-6.5,26.1-2.4c7.1,4.1,11,12.6,11,23.8c0,22.4-15.8,49.7-35.2,60.9C90.3,155.7,84.8,157.3,79.8,157.3L79.8,157.3z
	 M110.3,69c-4.3,0-9.2,1.5-14.3,4.4c0,0,0,0,0,0C77.7,84,62.8,109.8,62.8,131c0,9.8,3.2,17.1,9,20.5c5.8,3.4,13.7,2.5,22.3-2.4
	c18.3-10.6,33.2-36.4,33.2-57.5c0-9.8-3.2-17.1-9.1-20.5C115.9,69.7,113.2,69,110.3,69L110.3,69z M95.1,71.7L95.1,71.7L95.1,71.7
	L95.1,71.7z"/>
<path class="st0" d="M56,146.5c-0.4,0-0.7-0.1-1-0.3c-6.3-4-10.1-10.7-10.9-19.4C42.2,107,55.1,82.1,68.7,69.4
	c21.2-19.9,33.3-12.6,47.2-4.3c1.4,0.8,2.9,1.7,4.3,2.6c0.9,0.5,1.2,1.7,0.7,2.6c-0.5,0.9-1.7,1.2-2.6,0.7c-1.5-0.9-3-1.7-4.4-2.6
	c-13.6-8.2-23.4-14.1-42.5,3.8c-14.5,13.5-25,37.8-23.4,54.2c0.7,7.6,3.8,13.1,9.1,16.5c0.9,0.6,1.2,1.8,0.6,2.7
	C57.3,146.1,56.6,146.5,56,146.5L56,146.5z"/>
<path class="st0" d="M16.4,193.2c-0.5,0-1.1-0.2-1.5-0.7C-4.4,170.4-1.5,139,4.4,116.6c6.6-25.3,20.8-53.2,37.2-72.9
	c5.8-6.9,21.4-24.2,41.9-35.1C103-1.7,121.3-2.8,136.2,5.5c0.9,0.5,1.3,1.7,0.8,2.6c-0.5,0.9-1.7,1.3-2.6,0.8
	c-14-7.7-30.5-6.6-49.1,3.2C65.3,22.6,50.1,39.4,44.5,46.2c-16,19.3-30,46.7-36.4,71.4c-5.6,21.5-8.4,51.5,9.8,72.4
	c0.7,0.8,0.6,2-0.2,2.7C17.3,193.1,16.8,193.2,16.4,193.2L16.4,193.2z"/>
<path class="st0" d="M95.1,251c-0.3,0-0.7-0.1-1-0.3c-14.2-8.2-17.9-10.8-25.2-16.1c-2.7-1.9-5.7-4.1-9.8-7l-2.7-1.9
	c-14.6-10.2-28.3-19.8-41.3-33c-0.7-0.8-0.7-2,0-2.7c0.8-0.7,2-0.7,2.7,0c4.1,4.1,8.1,7.9,12.3,11.4c-29.8-34-9.3-92.7,8.1-122.9
	C59.4,41.8,108.7-8.1,151,14c0.9,0.5,1.3,1.7,0.8,2.6c-0.5,0.9-1.7,1.3-2.6,0.8C126.9,5.8,103.6,16.8,88,28.1
	C67.5,42.9,50.6,64.8,41.6,80.4C24.2,110.5,3.3,170,35.9,201.8c10.6,10.4,25.8,21.1,40.6,31.5c7.1,5,13.8,9.7,19.8,14.3
	c0.8,0.6,1,1.8,0.4,2.6C96.3,250.7,95.7,251,95.1,251L95.1,251z"/>
<path class="st0" d="M55,178.8c-2.5,0-4.9-0.2-7.3-0.7c-1-0.2-1.7-1.2-1.5-2.3c0.2-1,1.2-1.7,2.3-1.5c28.9,5.9,59.9-29.1,72.6-52.5
	c12.9-23.9,23.1-65.3,5.2-82.6c-0.6-0.6-0.8-1.5-0.4-2.3c0.4-0.8,1.3-1.2,2.1-1c3.2,0.7,6.1,1.8,8.7,3.3c13.7,8.7,19.7,24.6,17.5,46
	c-1.6,15.7-7.9,34.6-16.7,50.4c-0.5,0.9-1.7,1.3-2.6,0.7c-0.9-0.5-1.3-1.7-0.7-2.6c15.2-27.2,27.9-74,0.6-91.3
	c-0.4-0.3-0.9-0.5-1.4-0.7c5.7,8.9,7.7,21.6,5.7,37.3c-1.9,14.7-7.3,31.4-14.5,44.6c-7.8,14.3-19.6,28.8-31.6,38.9
	C79.8,173.3,66.9,178.8,55,178.8L55,178.8z"/>
<path class="st0" d="M70.8,155c-0.3,0-0.7-0.1-1-0.3L55,146.2c-0.9-0.5-1.2-1.7-0.7-2.6c0.5-0.9,1.7-1.2,2.6-0.7l14.8,8.6
	c0.9,0.5,1.2,1.7,0.7,2.6C72.2,154.7,71.5,155,70.8,155L70.8,155z"/>
<path class="st0" d="M150.1,17.7c-0.3,0-0.7-0.1-1-0.3l-14.8-8.6c-0.9-0.5-1.2-1.7-0.7-2.6c0.5-0.9,1.7-1.2,2.6-0.7l14.8,8.6
	c0.9,0.5,1.2,1.7,0.7,2.6C151.5,17.3,150.8,17.7,150.1,17.7L150.1,17.7z"/>
<path class="st0" d="M59.4,133.6c-0.2,0-0.4-0.1-0.5-0.3l-11.1-19.2c-0.2-0.3-0.1-0.6,0.2-0.7c0.3-0.2,0.6-0.1,0.7,0.2l11.1,19.2
	c0.2,0.3,0.1,0.6-0.2,0.7C59.6,133.6,59.5,133.6,59.4,133.6L59.4,133.6z"/>
<path class="st0" d="M61.6,116.3c-0.2,0-0.4-0.1-0.5-0.3L52,100.2c-0.2-0.3-0.1-0.6,0.2-0.7c0.3-0.1,0.6-0.1,0.7,0.2l9.1,15.8
	c0.1,0.3,0.1,0.6-0.2,0.7C61.8,116.2,61.7,116.3,61.6,116.3L61.6,116.3z"/>
<path class="st0" d="M66.4,103.4c-0.2,0-0.4-0.1-0.5-0.3l-8.3-14.4c-0.1-0.3-0.1-0.6,0.2-0.7c0.3-0.1,0.6-0.1,0.7,0.2l8.3,14.4
	c0.2,0.3,0.1,0.6-0.2,0.7C66.6,103.4,66.5,103.4,66.4,103.4L66.4,103.4z"/>
<path class="st0" d="M72.5,92.6c-0.2,0-0.4-0.1-0.5-0.3L64.3,79c-0.2-0.3-0.1-0.6,0.2-0.7c0.3-0.2,0.6-0.1,0.7,0.2L73,91.8
	c0.2,0.3,0.1,0.6-0.2,0.7C72.7,92.6,72.6,92.6,72.5,92.6L72.5,92.6z"/>
<path class="st0" d="M79.5,83.5c-0.2,0-0.4-0.1-0.5-0.3L71.9,71c-0.2-0.3-0.1-0.6,0.2-0.7c0.3-0.2,0.6-0.1,0.7,0.2l7.1,12.3
	c0.1,0.3,0.1,0.6-0.2,0.7C79.6,83.5,79.5,83.5,79.5,83.5L79.5,83.5z"/>
<path class="st0" d="M87.3,75.9c-0.2,0-0.4-0.1-0.5-0.3l-6.4-11.1c-0.2-0.3-0.1-0.6,0.2-0.7c0.3-0.2,0.6-0.1,0.7,0.2L87.7,75
	c0.1,0.3,0.1,0.6-0.2,0.7C87.4,75.8,87.3,75.9,87.3,75.9L87.3,75.9z"/>
<path class="st0" d="M96.1,69.9c-0.2,0-0.4-0.1-0.5-0.3l-5.1-8.9c-0.2-0.3-0.1-0.6,0.2-0.7c0.3-0.1,0.6-0.1,0.7,0.2l5.1,8.9
	c0.2,0.3,0.1,0.6-0.2,0.7C96.3,69.9,96.2,69.9,96.1,69.9L96.1,69.9z"/>
<path class="st0" d="M106.1,66.1c-0.2,0-0.4-0.1-0.5-0.3l-1.3-2.3c-0.1-0.3-0.1-0.6,0.2-0.7c0.3-0.1,0.6-0.1,0.7,0.2l1.3,2.3
	c0.1,0.3,0.1,0.6-0.2,0.7C106.3,66.1,106.2,66.1,106.1,66.1L106.1,66.1z"/>
<path class="st0" d="M68.1,184.2c-0.2,0-0.4-0.1-0.5-0.3l-3.6-6.1c-0.1-0.3-0.1-0.6,0.2-0.7c0.3-0.2,0.6-0.1,0.7,0.2l3.6,6.1
	c0.2,0.3,0.1,0.6-0.2,0.7C68.3,184.2,68.2,184.2,68.1,184.2L68.1,184.2z"/>
<path class="st0" d="M79.6,182.9c-0.2,0-0.4-0.1-0.5-0.3l-4.9-8.5c-0.1-0.3-0.1-0.6,0.2-0.7c0.3-0.2,0.6-0.1,0.7,0.2l4.9,8.5
	c0.2,0.3,0.1,0.6-0.2,0.7C79.8,182.9,79.7,182.9,79.6,182.9L79.6,182.9z"/>
<path class="st0" d="M89.6,179c-0.2,0-0.4-0.1-0.5-0.3l-5.7-9.8c-0.2-0.3-0.1-0.6,0.2-0.7c0.3-0.2,0.6-0.1,0.7,0.2l5.7,9.8
	c0.2,0.3,0.1,0.6-0.2,0.7C89.8,179,89.7,179,89.6,179L89.6,179z"/>
<path class="st0" d="M98.7,173.6c-0.2,0-0.4-0.1-0.5-0.3L92,162.6c-0.1-0.3-0.1-0.6,0.2-0.7c0.3-0.2,0.6-0.1,0.7,0.2l6.2,10.7
	c0.2,0.3,0.1,0.6-0.2,0.7C98.9,173.6,98.8,173.6,98.7,173.6L98.7,173.6z"/>
<path class="st0" d="M107.2,167.1c-0.2,0-0.4-0.1-0.5-0.3l-6.7-11.6c-0.1-0.3-0.1-0.6,0.2-0.7c0.3-0.2,0.6-0.1,0.7,0.2l6.7,11.6
	c0.2,0.3,0.1,0.6-0.2,0.7C107.4,167.1,107.3,167.1,107.2,167.1L107.2,167.1z"/>
<path class="st0" d="M115.2,159.8c-0.2,0-0.4-0.1-0.5-0.3l-7.2-12.5c-0.1-0.3-0.1-0.6,0.2-0.7c0.3-0.1,0.6-0.1,0.7,0.2l7.2,12.5
	c0.2,0.3,0.1,0.6-0.2,0.7C115.4,159.8,115.3,159.8,115.2,159.8L115.2,159.8z"/>
<path class="st0" d="M122.7,151.5c-0.2,0-0.4-0.1-0.5-0.3l-7.7-13.3c-0.2-0.3-0.1-0.6,0.2-0.7c0.3-0.2,0.6-0.1,0.7,0.2l7.7,13.3
	c0.1,0.3,0.1,0.6-0.2,0.7C122.9,151.5,122.8,151.5,122.7,151.5L122.7,151.5z"/>
<path class="st0" d="M129.6,142.2c-0.2,0-0.4-0.1-0.5-0.3l-8-13.9c-0.2-0.3-0.1-0.6,0.2-0.7c0.3-0.2,0.6-0.1,0.7,0.2l8,13.9
	c0.2,0.3,0.1,0.6-0.2,0.7C129.8,142.2,129.7,142.2,129.6,142.2L129.6,142.2z"/>
<path class="st0" d="M135.9,131.9c-0.2,0-0.4-0.1-0.5-0.3l-8.4-14.6c-0.2-0.3-0.1-0.6,0.2-0.7c0.3-0.1,0.6-0.1,0.7,0.2l8.4,14.6
	c0.1,0.3,0.1,0.6-0.2,0.7C136,131.9,135.9,131.9,135.9,131.9L135.9,131.9z"/>
<path class="st0" d="M141.4,120.2c-0.2,0-0.4-0.1-0.5-0.3l-8.9-15.4c-0.2-0.3-0.1-0.6,0.2-0.7c0.3-0.1,0.6-0.1,0.7,0.2l8.9,15.4
	c0.2,0.3,0.1,0.6-0.2,0.7C141.5,120.2,141.5,120.2,141.4,120.2L141.4,120.2z"/>
<path class="st0" d="M146.1,107.2c-0.2,0-0.4-0.1-0.5-0.3l-9.5-16.5c-0.2-0.3-0.1-0.6,0.2-0.7c0.3-0.1,0.6-0.1,0.7,0.2l9.5,16.5
	c0.1,0.3,0.1,0.6-0.2,0.7C146.3,107.2,146.2,107.2,146.1,107.2L146.1,107.2z"/>
<path class="st0" d="M149.7,92.2c-0.2,0-0.4-0.1-0.5-0.3l-10.5-18.1c-0.2-0.3-0.1-0.6,0.2-0.7c0.3-0.1,0.6-0.1,0.7,0.2l10.5,18.1
	c0.2,0.3,0.1,0.6-0.2,0.7C149.9,92.2,149.8,92.2,149.7,92.2L149.7,92.2z"/>
<path class="st0" d="M150.8,73c-0.2,0-0.4-0.1-0.5-0.3L134.9,46c-0.1-0.3-0.1-0.6,0.2-0.7c0.3-0.2,0.6-0.1,0.7,0.2l15.4,26.7
	c0.1,0.3,0.1,0.6-0.2,0.7C151,73,150.9,73,150.8,73L150.8,73z"/>
<path class="st0" d="M23.1,196c-0.2,0-0.4-0.1-0.5-0.3L5,165.2c-0.2-0.3-0.1-0.6,0.2-0.7c0.3-0.1,0.6-0.1,0.7,0.2l17.7,30.6
	c0.1,0.3,0.1,0.6-0.2,0.7C23.3,196,23.2,196,23.1,196L23.1,196z"/>
<path class="st0" d="M15.6,161.8c-0.2,0-0.4-0.1-0.5-0.3L3.5,141.4c-0.2-0.3-0.1-0.6,0.2-0.7c0.3-0.1,0.6-0.1,0.7,0.2L16,161
	c0.2,0.3,0.1,0.6-0.2,0.7C15.8,161.8,15.7,161.8,15.6,161.8L15.6,161.8z"/>
<path class="st0" d="M16.5,142.2c-0.2,0-0.4-0.1-0.5-0.3L5.8,124.3c-0.2-0.3-0.1-0.6,0.2-0.7c0.3-0.2,0.6-0.1,0.7,0.2L17,141.4
	c0.2,0.3,0.1,0.6-0.2,0.7C16.7,142.2,16.6,142.2,16.5,142.2L16.5,142.2z"/>
<path class="st0" d="M19.6,126.3c-0.2,0-0.4-0.1-0.5-0.3l-9.5-16.4c-0.2-0.3-0.1-0.6,0.2-0.7c0.3-0.2,0.6-0.1,0.7,0.2l9.5,16.4
	c0.2,0.3,0.1,0.6-0.2,0.7C19.8,126.3,19.7,126.3,19.6,126.3L19.6,126.3z"/>
<path class="st0" d="M23.7,112.3c-0.2,0-0.4-0.1-0.5-0.3l-8.9-15.5c-0.2-0.3-0.1-0.6,0.2-0.7c0.3-0.2,0.6-0.1,0.7,0.2l8.9,15.5
	c0.2,0.3,0.1,0.6-0.2,0.7C23.9,112.2,23.8,112.3,23.7,112.3L23.7,112.3z"/>
<path class="st0" d="M28.6,99.5c-0.2,0-0.4-0.1-0.5-0.3l-8.6-14.8c-0.1-0.3-0.1-0.6,0.2-0.7c0.3-0.2,0.6-0.1,0.7,0.2l8.6,14.8
	c0.2,0.3,0.1,0.6-0.2,0.7C28.8,99.5,28.7,99.5,28.6,99.5L28.6,99.5z"/>
<path class="st0" d="M34.1,87.8c-0.2,0-0.4-0.1-0.5-0.3l-8.2-14.3c-0.1-0.3-0.1-0.6,0.2-0.7c0.3-0.1,0.6-0.1,0.7,0.2L34.5,87
	c0.2,0.3,0.1,0.6-0.2,0.7C34.3,87.8,34.2,87.8,34.1,87.8L34.1,87.8z"/>
<path class="st0" d="M40,76.9c-0.2,0-0.4-0.1-0.5-0.3l-8-13.8c-0.2-0.3-0.1-0.6,0.2-0.7c0.3-0.2,0.6-0.1,0.7,0.2l8,13.8
	c0.1,0.3,0.1,0.6-0.2,0.7C40.2,76.9,40.1,76.9,40,76.9L40,76.9z"/>
<path class="st0" d="M46.5,66.9c-0.2,0-0.4-0.1-0.5-0.3l-7.8-13.5c-0.2-0.3-0.1-0.6,0.2-0.7c0.3-0.1,0.6-0.1,0.7,0.2L47,66.1
	c0.2,0.3,0.1,0.6-0.2,0.7C46.7,66.9,46.6,66.9,46.5,66.9L46.5,66.9z"/>
<path class="st0" d="M53.4,57.6c-0.2,0-0.4-0.1-0.5-0.3l-7.6-13.1c-0.2-0.3-0.1-0.6,0.2-0.7c0.3-0.2,0.6-0.1,0.7,0.2l7.6,13.1
	c0.1,0.3,0.1,0.6-0.2,0.7C53.6,57.6,53.5,57.6,53.4,57.6L53.4,57.6z"/>
<path class="st0" d="M60.6,48.9c-0.2,0-0.4-0.1-0.5-0.3l-7.2-12.5c-0.1-0.3-0.1-0.6,0.2-0.7c0.3-0.1,0.6-0.1,0.7,0.2L61.1,48
	c0.1,0.3,0.1,0.6-0.2,0.7C60.8,48.8,60.7,48.9,60.6,48.9L60.6,48.9z"/>
<path class="st0" d="M68.2,40.8c-0.2,0-0.4-0.1-0.5-0.3l-6.8-11.9c-0.2-0.3-0.1-0.6,0.2-0.7c0.3-0.1,0.6-0.1,0.7,0.2L68.6,40
	c0.1,0.3,0.1,0.6-0.2,0.7C68.4,40.8,68.3,40.8,68.2,40.8L68.2,40.8z"/>
<path class="st0" d="M76.2,33.5c-0.2,0-0.4-0.1-0.5-0.3l-6.5-11.3c-0.1-0.3-0.1-0.6,0.2-0.7c0.3-0.1,0.6-0.1,0.7,0.2l6.5,11.3
	c0.2,0.3,0.1,0.6-0.2,0.7C76.4,33.4,76.3,33.5,76.2,33.5L76.2,33.5z"/>
<path class="st0" d="M84.6,26.8c-0.2,0-0.4-0.1-0.5-0.3l-6.2-10.6c-0.1-0.3-0.1-0.6,0.2-0.7c0.3-0.2,0.6-0.1,0.7,0.2L85,26
	c0.2,0.3,0.1,0.6-0.2,0.7C84.8,26.8,84.7,26.8,84.6,26.8L84.6,26.8z"/>
<path class="st0" d="M93.4,20.9c-0.2,0-0.4-0.1-0.5-0.3l-5.7-9.8c-0.1-0.3-0.1-0.6,0.2-0.7c0.3-0.1,0.6-0.1,0.7,0.2l5.7,9.8
	c0.2,0.3,0.1,0.6-0.2,0.7C93.6,20.9,93.5,20.9,93.4,20.9L93.4,20.9z"/>
<path class="st0" d="M102.7,15.8c-0.2,0-0.4-0.1-0.5-0.3l-5.1-8.8C97,6.5,97.1,6.1,97.4,6c0.3-0.1,0.6-0.1,0.7,0.2l5.1,8.8
	c0.1,0.3,0.1,0.6-0.2,0.7C102.9,15.8,102.8,15.8,102.7,15.8L102.7,15.8z"/>
<path class="st0" d="M112.7,12c-0.2,0-0.4-0.1-0.5-0.3L108,4.3c-0.1-0.3-0.1-0.6,0.2-0.7c0.3-0.1,0.6-0.1,0.7,0.2l4.2,7.4
	c0.1,0.3,0.1,0.6-0.2,0.7C112.9,12,112.8,12,112.7,12L112.7,12z"/>
<path class="st0" d="M123.6,9.7c-0.2,0-0.4-0.1-0.5-0.3l-2.8-5c-0.1-0.3-0.1-0.6,0.2-0.7c0.3-0.1,0.6-0.1,0.7,0.2l2.8,5
	c0.1,0.3,0.1,0.6-0.2,0.7C123.8,9.6,123.7,9.7,123.6,9.7L123.6,9.7z"/>
</svg>
