<?xml version="1.0" encoding="utf-8"?>
<!-- Generator: Adobe Illustrator 24.1.2, SVG Export Plug-In . SVG Version: 6.00 Build 0)  -->
<svg version="1.1" id="Camada_1" xmlns="http://www.w3.org/2000/svg" xmlns:xlink="http://www.w3.org/1999/xlink" x="0px" y="0px"
	 viewBox="0 0 575.3 192" style="enable-background:new 0 0 575.3 192;" xml:space="preserve">
<style type="text/css">
	.st0{fill:#B6555D;}
	.st1{fill:#B5565E;}
	.st2{fill:#5B5A5D;}
</style>
<g>
	<path class="st0" d="M66.5,81.5c-1.9-2.2-1.9-4.9-2.2-7.4c-0.3-2.6-1.6-4.3-4.1-5c-0.8-0.2-1.6-0.5-2.5-0.8c-3-1-4.6-3.1-4.9-6.2
		c-0.1-1.2-0.3-2.3-0.5-3.5c-0.3-2.1-1.6-3.3-3.5-3.9c-0.8-0.3-1.6-0.5-2.4-0.7c-1.8-0.5-3.2-1.6-4.2-3.1c-1.3-2-1-4.7,0.8-6.2
		c1.8-1.5,4.5-1.5,6.3,0.1c1.3,1.2,1.9,2.8,2.2,4.5c0.2,1.3,0.5,2.6,0.7,4c0.3,1.5,1.1,2.6,2.6,3.2c1.3,0.5,2.6,1.1,3.9,1.5
		c2.6,0.9,4.1,2.7,4.5,5.3c0.2,1.4,0.5,2.8,0.7,4.2c0.3,1.9,1.4,3,3.1,3.7c1.9,0.8,3.9,1.3,5.6,2.7c1.8,1.5,2.5,3.6,1.6,5.7
		c-0.9,2.1-2.7,3.1-5.1,2.9c-0.6-0.1-1.3-0.2-1.8-0.2c-0.2,0.3,0,0.4,0.1,0.6c1.5,2.4,1,5.2-1.2,6.7c-2.1,1.5-5,0.9-6.7-1.1
		c-0.9-1-1.5-2.2-2-3.5c-1.3-3.2-3.6-4.5-7-4.1c-0.9,0.1-1.7,0.1-2.6,0c-2.3-0.1-4-1.2-5.2-3.2c-0.7-1.2-1.2-2.4-1.9-3.6
		c-1.2-2.3-3.1-3.2-5.7-2.9c-2,0.2-4,0.2-5.9-0.8c-2.7-1.4-3.6-4.4-2.1-6.8c1.5-2.5,4.6-3,7.1-1.3c1.2,0.9,2.1,2.1,2.7,3.5
		c1.6,4,4.3,5.5,8.5,5c3.5-0.4,5.8,1.3,7.4,4.4c2.7,5.1,2.8,5.1,8.5,5.2C63.1,80.3,64.8,80.7,66.5,81.5z"/>
	<path class="st0" d="M60.9,119.4c-0.4,0-0.8,0-1.2-0.1c-2.9-0.4-4.9,0.8-6.2,3.5c-0.4,0.9-0.9,1.9-1.5,2.7c-1.3,2-3.1,3-5.4,3
		c-1.5,0-2.9-0.1-4.4-0.2c-2.1,0-3.6,0.9-4.6,2.8c-0.5,1-1,2-1.6,3c-1.4,2.3-4,3.6-6.1,3.2c-2.3-0.5-3.9-2.4-3.9-4.7
		c0-2.3,1.7-4.3,4.1-4.9c1.8-0.4,3.5-0.3,5.3-0.2c2.6,0.2,4.4-0.9,5.6-3.1c0.5-0.9,1-1.7,1.5-2.6c1.3-2.3,3.3-3.3,5.9-3.4
		c1.3,0,2.6,0,3.9,0c2.1,0.1,3.6-0.8,4.7-2.6c1-1.7,1.9-3.5,3.5-4.8c1.4-1.2,3-1.7,4.8-1.2c1.9,0.6,2.9,1.9,3.3,3.8
		c0.5,2.7-1.8,5.4-4.9,5.7C62.8,119.5,61.8,119.4,60.9,119.4C60.9,119.4,60.9,119.4,60.9,119.4z"/>
	<path class="st0" d="M23.4,106c1.7,0,3.3,0.6,4.8,1.4c2.9,1.4,5.5,1.2,7.8-1.2c3.1-3.3,6.6-3.8,10.6-1.7c0.7,0.4,1.5,0.5,2.3,0.8
		c1.3,0.5,2.6,0.2,3.7-0.6c1.2-0.9,2.3-1.8,3.5-2.7c1.4-1,3-1.8,4.8-1.6c2.7,0.4,4.6,2.9,4.1,5.5c-0.5,2.7-3.2,4.5-5.9,3.9
		c-1.5-0.3-3-1-4.4-1.6c-2.6-1.3-5-1-7,1.2c-3.2,3.6-6.8,4.3-11.1,1.9c-1.2-0.7-2.6-1.1-4.1-0.9c-1.5,0.3-2.5,1.2-3.6,2.2
		c-1.3,1.3-2.7,2.4-4.6,2.8c-2,0.5-3.7,0-5-1.6c-1.3-1.5-1.5-3.3-0.6-5.1C19.6,107,21.3,106,23.4,106z"/>
	<path class="st0" d="M110.7,117.6c1.9,1.9,2.5,4.4,2.7,7c0.2,3.1,1.8,5.1,4.8,5.8c0.2,0,0.3,0.1,0.5,0.2c4.2,1,6.2,3.8,6.4,8
		c0,0.6,0.2,1.2,0.3,1.8c0.3,2,1.4,3.3,3.4,4.1c1.8,0.7,3.6,1.2,5.1,2.4c2,1.5,2.7,3.4,2,5.6c-0.6,1.9-2.5,3.3-4.5,3.3
		c-2.1,0-4-1.4-4.8-3.6c-0.6-1.6-0.6-3.2-0.8-4.8c-0.3-2.5-1.5-4.2-3.9-4.9c-0.9-0.3-1.8-0.6-2.7-0.9c-2.9-0.9-4.4-3-4.8-6
		c-0.1-0.9-0.2-1.8-0.3-2.7c-0.3-2.8-1.5-4.3-4.3-5c-1.9-0.5-3.7-1.1-5.1-2.5c-1.9-2-2.2-4.5-0.8-6.5c1.5-2,3.8-2.5,6.4-1.3
		C110.4,117.6,110.6,117.6,110.7,117.6L110.7,117.6z"/>
	<path class="st0" d="M60.1,99.7c-1.7,0-3.1-0.8-4.4-1.9c-0.9-0.8-1.8-1.7-2.8-2.5c-1.5-1.3-3.1-1.6-5-0.9c-1.2,0.4-2.3,0.9-3.5,1.3
		c-2.5,0.9-4.8,0.6-6.8-1.2c-1-0.9-1.9-1.8-2.9-2.6c-1.7-1.6-3.6-1.9-5.8-0.9c-1.2,0.5-2.3,1.1-3.6,1.4c-1.3,0.3-2.6,0.2-3.8-0.2
		c-2.5-0.9-3.8-3.6-2.9-6.1c1-2.6,3.7-3.8,6.5-2.8c1.4,0.5,2.6,1.4,3.6,2.5c2.5,2.8,5.4,3.5,8.8,1.7c3.6-1.9,6.8-1,9.5,1.8
		c0.3,0.3,0.7,0.6,1,0.9c1.9,2,4.1,2.4,6.6,1.3c1.6-0.7,3.3-1.2,5.1-1.2c2.8-0.1,5.1,2,5.1,4.8C64.9,97.6,62.8,99.7,60.1,99.7z"/>
	<path class="st0" d="M71.3,37.5c0,1.9-0.6,3.8-0.9,5.6c-0.3,1.8,0.2,3.2,1.5,4.4c0.9,0.8,1.7,1.6,2.6,2.3c2.4,1.9,3.2,4.4,2.6,7.4
		c-0.2,0.8-0.3,1.7-0.5,2.5c-0.7,2.5,0,4.6,2.1,6.2c1.4,1.1,2.7,2.2,3.6,3.7c1.2,2,1.3,4,0,5.7c-1.2,1.6-3.3,2.3-5.2,1.8
		c-2.1-0.6-3.4-2.5-3.5-4.8c-0.1-1.6,0.4-3.2,0.8-4.7c0.8-2.8,0.1-5-2.3-6.7c-0.8-0.6-1.6-1.2-2.3-1.8c-1.9-1.7-2.5-3.8-2-6.3
		c0.2-1.2,0.5-2.4,0.8-3.5c0.5-2.4-0.2-4.3-2.1-5.7c-1.1-0.8-2.3-1.5-3.2-2.7c-1.2-1.6-2-3.3-1.4-5.3c0.6-2.4,2.8-3.8,5.2-3.4
		C69.6,32.4,71.3,34.6,71.3,37.5z"/>
	<path class="st0" d="M104,127.7c0,1.7-0.6,3.5-0.9,5.4c-0.3,1.8,0.3,3.2,1.6,4.4c0.6,0.6,1.3,1.2,2,1.7c3.3,2.3,4,5.4,3,9
		c0,0.1-0.1,0.2-0.1,0.2c-1,3.3-0.3,6,2.6,8c1.1,0.8,2.1,1.8,2.8,3c1.3,2,1.3,4.1,0,5.8c-1.2,1.6-3.3,2.3-5.2,1.7
		c-2-0.6-3.4-2.6-3.4-4.9c0-1.6,0.4-3.1,0.8-4.6c0.8-2.9,0-5.1-2.4-6.8c-0.8-0.6-1.7-1.2-2.4-1.9c-1.8-1.7-2.4-3.8-1.9-6.1
		c0.2-1.1,0.5-2.2,0.7-3.3c0.7-2.7-0.1-4.7-2.5-6.2c-1.6-1-3-2.2-3.8-4c-0.9-2.1-0.7-4.2,0.7-5.7c1.4-1.5,3.2-1.9,5.1-1.2
		c1.9,0.6,3.1,2.5,3.3,4.7C104,127.1,104,127.3,104,127.7z"/>
	<path class="st0" d="M40.9,149.9c0.1-1.6,1.1-3,2.9-4c1.4-0.8,3-1.3,4.6-1.8c2.4-0.7,3.7-2.2,4-4.7c0.2-1.3,0.5-2.6,0.8-3.8
		c0.5-1.9,1.6-3.3,3.5-4.1c1.4-0.6,2.8-1.1,4.2-1.6c2.1-0.7,3.3-2.1,3.7-4.2c0.3-1.9,0.6-3.8,1.5-5.5c1.1-2.1,2.8-3.1,5.1-2.8
		c1.9,0.2,3.6,1.8,4,3.7c0.4,2.1-0.5,4.1-2.4,5.3c-0.9,0.6-2,0.9-3,1.2c-0.9,0.3-1.7,0.5-2.6,0.8c-2,0.7-3,2.1-3.3,4.1
		c-0.2,1.2-0.3,2.4-0.5,3.6c-0.5,2.6-2,4.4-4.5,5.2c-1.4,0.4-2.7,0.8-4.1,1.3c-1.8,0.6-2.8,2-3.1,3.8c-0.2,1.2-0.3,2.3-0.5,3.5
		c-0.3,1.5-1,2.8-2.1,3.9c-1.3,1.4-3.4,1.7-5.2,1C42,154.1,40.9,152.4,40.9,149.9z"/>
	<path class="st0" d="M110.8,117.6c0.4-0.4-0.1-0.6-0.3-0.8c-1.6-2.2-1.4-5,0.5-6.7c2-1.7,4.8-1.5,6.8,0.4c1.2,1.2,2,2.7,2.7,4.2
		c1.2,2.7,3.2,4,6.2,3.7c4.8-0.6,8,1.4,9.8,5.9c1.1,2.7,3.1,4,6.1,3.8c1.6-0.1,3.3,0,4.9,0.5c2.3,0.8,3.6,2.3,3.6,4.5
		c0,2.1-1.1,3.8-3,4.5c-2,0.8-4.2,0.2-5.7-1.6c-0.6-0.7-1-1.5-1.4-2.3c-0.5-0.9-1-1.9-1.5-2.9c-0.9-1.6-2.3-2.4-4.2-2.4
		c-1.5,0-2.9,0.1-4.4,0c-2.2-0.1-3.9-1-5-2.9c-0.8-1.3-1.4-2.7-2.2-4c-1.1-2-2.7-2.9-5-2.8c-2.7,0.2-5.3,0.3-7.6-1.4
		C111,117.4,110.8,117.6,110.8,117.6C110.7,117.6,110.8,117.6,110.8,117.6z"/>
	<path class="st0" d="M106.9,81.8c-1.6,0-3.4-1.1-4.1-2.8c-0.8-1.9-0.4-3.6,0.9-5.2c1.3-1.6,3.3-2.1,5.1-2.7
		c0.8-0.3,1.5-0.5,2.3-0.8c1.4-0.6,2.3-1.6,2.6-3.1c0.3-1.6,0.6-3.1,1-4.7c0.5-2.2,1.8-3.6,3.8-4.4c1.3-0.5,2.7-1,4-1.5
		c2.2-0.7,3.3-2.2,3.7-4.4c0.3-1.8,0.6-3.6,1.4-5.2c1.2-2.3,3-3.3,5.4-2.9c1.9,0.3,3.4,2,3.8,4c0.3,2-0.8,4.2-2.8,5.2
		c-1.3,0.7-2.7,1.1-4.2,1.4c-3,0.7-4.4,2.7-4.6,5.6c-0.1,1.1-0.2,2.1-0.5,3.2c-0.6,2.1-1.9,3.5-4,4.3c-1,0.4-2,0.7-3,1
		c-3.6,1.1-4.5,2.3-4.8,6c-0.1,2-0.7,3.8-2,5.4C109.9,81.2,108.7,81.9,106.9,81.8z"/>
	<path class="st0" d="M143.5,71.4c-0.6,0-1.3,0-1.9,0c-2.2-0.1-3.7,0.9-4.7,2.8c-0.5,0.9-0.9,1.7-1.4,2.6c-1.4,2.7-3.6,4-6.7,3.8
		c-1.1-0.1-2.2-0.1-3.4-0.1c-2.5-0.1-4.1,1-5.1,3.2c-0.8,1.8-1.7,3.6-3.5,4.8c-1.8,1.2-3.7,1.5-5.6,0.3c-1.7-1-2.4-2.7-2.2-4.6
		c0.2-2,1.8-3.6,3.9-4.2c1.6-0.4,3.3-0.4,4.9-0.2c3,0.3,5.2-0.8,6.4-3.6c1.9-4.4,5.2-6.1,9.8-5.5c3.1,0.4,5.2-0.8,6.5-3.6
		c0.7-1.4,1.6-2.8,2.9-3.8c1.8-1.6,3.8-1.9,5.7-0.8c1.7,1,2.7,2.9,2.4,4.8c-0.3,2.1-2,3.8-4.2,4.2C146,71.7,144.8,71.6,143.5,71.4z"
		/>
	<path class="st0" d="M93.9,128.9c0.1,1.1-0.3,2.2-0.9,3.2c-0.6,1.2-1.3,2.3-2,3.5c-1.1,1.8-1.1,3.6-0.1,5.4
		c0.6,1.1,1.2,2.2,1.8,3.3c1.2,2.1,1.2,4.3,0,6.4c-0.6,1.1-1.3,2.3-2,3.3c-1.3,1.9-1.3,3.8-0.1,5.8c0.9,1.6,1.9,3.1,2.2,4.9
		c0.5,2.3-0.1,4.3-1.9,5.5c-1.6,1.1-3.9,1-5.5-0.2c-1.7-1.2-2.3-3.4-1.7-5.6c0.3-1,0.8-1.8,1.3-2.6c0.5-0.8,1-1.5,1.5-2.3
		c1.2-1.9,1.2-3.8,0-5.7c-0.5-0.8-1-1.6-1.5-2.4c-1.7-2.6-1.7-5.3,0.1-7.9c0.5-0.7,1-1.4,1.4-2.2c1.7-2.7,1.7-4.3-0.1-6.9
		c-1.2-1.7-2.2-3.5-2.2-5.7c0.1-2.8,2-4.9,4.7-4.9C91.9,123.8,93.9,125.9,93.9,128.9z"/>
	<path class="st0" d="M60.9,162c0.1-1.8,0.9-3.2,2.3-4.4c1.1-1,2.2-1.9,3.4-2.8c1.6-1.3,2.1-2.9,1.7-4.9c-0.2-1.1-0.4-2.1-0.6-3.2
		c-0.5-2.7,0.2-5,2.4-6.8c0.8-0.6,1.5-1.3,2.3-1.9c2.4-1.6,2.9-3.8,2.4-6.5c-0.4-1.7-0.6-3.5-0.2-5.3c0.5-2.5,1.9-3.7,4.5-3.8
		c2.4-0.1,3.8,0.7,4.6,2.6c0.9,2.1,0.2,4-1.2,5.6c-1,1.1-2.2,1.9-3.4,2.7c-2.3,1.6-3,3.7-2.3,6.3c0.2,0.7,0.3,1.4,0.5,2.2
		c0.7,3.2-0.3,5.7-3,7.5c-0.8,0.6-1.6,1.2-2.4,1.8c-1.9,1.5-2.5,3.3-1.9,5.6c0.4,1.7,0.9,3.4,0.6,5.2c-0.4,2.1-1.3,3.8-3.5,4.4
		c-1.9,0.6-3.6,0.1-5-1.4C61.2,164.4,60.9,163.3,60.9,162z"/>
	<path class="st0" d="M98.4,76.9c-1.9,0-3.4-0.8-4.2-2.5c-1-1.9-0.7-3.8,0.6-5.5c1-1.4,2.4-2.4,3.7-3.4c2.2-1.6,3.1-3.6,2.5-6.3
		c-0.2-0.8-0.3-1.6-0.4-2.4c-0.5-2.7,0.1-5,2.3-6.8c1.1-0.9,2.2-1.8,3.3-2.7c1.4-1.1,1.9-2.6,1.7-4.4c-0.2-2.1-0.9-4.2-0.4-6.4
		c0.6-3,2.6-4.3,5.6-4c2.1,0.3,3.1,1.4,3.7,3.1c0.7,2-0.1,3.7-1.4,5.1c-1,1.1-2.3,2-3.5,2.8c-2.1,1.5-2.9,3.5-2.2,6.1
		c0.3,1.2,0.5,2.5,0.7,3.7c0.2,2.1-0.4,3.8-2,5.2c-1.1,0.9-2.2,1.8-3.4,2.6c-1.9,1.5-2.6,3.4-2,5.7c0.6,2.3,1.1,4.6,0.1,7
		C101.9,75.8,100.4,76.9,98.4,76.9z"/>
	<path class="st0" d="M83.8,71.4c-0.3-1.4-0.1-2.7,0.7-4c0.7-1.2,1.4-2.4,2.2-3.5c1.2-1.9,1.3-3.8,0.1-5.7c-0.5-0.8-0.9-1.5-1.4-2.3
		c-1.8-2.8-1.8-5.5,0.1-8.2c0.7-1,1.3-2,1.9-3.1c0.9-1.6,0.8-3.3-0.1-4.9c-0.6-1-1.2-1.9-1.8-2.8c-0.9-1.5-1.1-3.1-0.9-4.8
		c0.3-2.3,2.5-4,4.7-4c2.5,0.1,4.5,2,4.6,4.4c0.1,1.4-0.2,2.7-0.9,3.9c-0.7,1.2-1.4,2.5-2.2,3.7c-1,1.7-1,3.4-0.1,5.2
		c0.6,1.2,1.3,2.3,2,3.5c1.1,2,1.1,4,0,6.1c-0.6,1.1-1.1,2.1-1.8,3.1c-1.5,2.2-1.6,4.3-0.1,6.6c1,1.5,1.8,3.1,2.2,5
		c0.5,2.4-0.7,4.7-2.8,5.5c-2.2,0.9-4.5,0.1-5.7-1.9c0-0.4,0.1-0.9-0.5-0.9c-0.1,0-0.1-0.1,0-0.1C84,71.8,84,71.6,83.8,71.4z"/>
	<path class="st1" d="M117.1,145.5c1.7,0,3.2,1.3,3.2,3c0.1,1.8-1.3,3.2-3.1,3.3c-1.8,0-3.2-1.4-3.2-3.2
		C114,146.9,115.3,145.5,117.1,145.5z"/>
	<path class="st1" d="M60.3,151.8c-1.7,0-3.1-1.4-3.1-3.1c0-1.8,1.5-3.2,3.2-3.2c1.7,0,3.1,1.5,3.1,3.2
		C63.4,150.4,62,151.8,60.3,151.8z"/>
	<path class="st0" d="M48.3,136c0,1.7-1.4,3.1-3.1,3.1c-1.7,0-3.1-1.4-3.2-3.1c0-1.7,1.4-3.2,3.2-3.2C47,132.8,48.3,134.2,48.3,136z
		"/>
	<path class="st1" d="M35.4,115.7c1.7,0,3.1,1.4,3.1,3.2c0,1.7-1.5,3.1-3.2,3.1c-1.7,0-3.1-1.4-3.1-3.1
		C32.2,117.1,33.6,115.7,35.4,115.7z"/>
	<path class="st1" d="M101.7,43.5c0,1.7-1.4,3.1-3.1,3.1c-1.7,0-3.1-1.4-3.1-3.1c0-1.8,1.5-3.2,3.2-3.2
		C100.4,40.4,101.8,41.8,101.7,43.5z"/>
	<path class="st1" d="M117.2,47.1c1.7,0,3.1,1.5,3.2,3.1c0,1.7-1.5,3.2-3.2,3.2c-1.7,0-3.1-1.5-3-3.2
		C114.1,48.4,115.4,47.1,117.2,47.1z"/>
	<path class="st1" d="M12.5,82.5c1.7,0,3.2,1.3,3.2,3c0.1,1.7-1.4,3.2-3.2,3.3c-1.7,0-3.1-1.4-3.1-3.1C9.4,83.9,10.7,82.5,12.5,82.5
		z"/>
	<path class="st1" d="M116.1,22.8c1.7,0,3.1,1.4,3.1,3.2c0,1.7-1.4,3.1-3.1,3.1c-1.8,0-3.2-1.5-3.2-3.3
		C112.9,24.1,114.3,22.8,116.1,22.8z"/>
	<path class="st1" d="M39.3,36.3c1.7,0,3.1,1.4,3.1,3.1c0,1.7-1.4,3.1-3.1,3.1c-1.7,0-3.2-1.4-3.2-3.1C36,37.7,37.4,36.3,39.3,36.3z
		"/>
	<path class="st1" d="M142.6,39.5c0,1.7-1.3,3.1-3.1,3.1c-1.8,0-3.2-1.3-3.2-3c0-1.8,1.4-3.2,3.2-3.2
		C141.1,36.4,142.5,37.8,142.6,39.5z"/>
	<path class="st1" d="M63.5,50.3c0,1.7-1.5,3.1-3.2,3.1c-1.8,0-3.1-1.5-3.1-3.3c0-1.7,1.5-3.1,3.2-3.1
		C62.1,47.1,63.5,48.5,63.5,50.3z"/>
	<path class="st1" d="M21.9,57.2c1.9,0,3.1,1.1,3.1,2.9c0,1.8-1.5,3.2-3.2,3.2c-1.7,0-3.1-1.5-3.1-3.2
		C18.7,58.3,19.9,57.2,21.9,57.2z"/>
	<path class="st1" d="M132.3,66.1c-1.7,0-3.2-1.3-3.2-3.1c0-1.8,1.4-3.3,3.1-3.2c1.7,0,3.1,1.5,3.1,3.2
		C135.4,64.6,134,66.1,132.3,66.1z"/>
	<path class="st1" d="M156.4,63.6c-1.7,0-3.2-1.3-3.2-3.1c0-1.8,1.4-3.3,3.1-3.2c1.7,0,3.1,1.5,3.1,3.2
		C159.6,62.1,158.1,63.5,156.4,63.6z"/>
	<path class="st0" d="M129.1,136c0-1.8,1.3-3.1,3.1-3.2c1.7,0,3.2,1.3,3.2,3c0.1,1.7-1.4,3.2-3.2,3.3
		C130.5,139.1,129.1,137.8,129.1,136z"/>
	<path class="st0" d="M153.4,137.9c0-1.8,1.3-3.1,3.1-3.2c1.7,0,3.2,1.3,3.2,3c0.1,1.7-1.4,3.2-3.2,3.3
		C154.7,141,153.4,139.6,153.4,137.9z"/>
	<path class="st0" d="M21.8,141.3c-1.8,0-3.3-1.4-3.2-3.2c0-1.7,1.4-3.1,3.1-3.1c1.8,0,3.1,1.3,3.1,3.1
		C24.9,139.8,23.6,141.2,21.8,141.3z"/>
	<path class="st1" d="M101.7,155.4c0,1.8-1.3,3.2-3,3.2c-1.7,0-3.2-1.5-3.2-3.2c0-1.7,1.5-3.1,3.2-3.1
		C100.3,152.2,101.7,153.6,101.7,155.4z"/>
	<path class="st1" d="M82,43.5c0,1.8-1.4,3.1-3.1,3.1c-1.7,0-3.1-1.5-3.1-3.1c0-1.7,1.5-3.2,3.3-3.2C80.7,40.4,82,41.8,82,43.5z"/>
	<path class="st1" d="M45.3,66c-1.8,0-3.2-1.3-3.2-3c0-1.7,1.4-3.3,3.2-3.2c1.7,0,3.1,1.4,3.1,3.1C48.4,64.6,47,66,45.3,66z"/>
	<path class="st0" d="M92.4,177.1c0,1.7-1.4,3.1-3.1,3.1c-1.7,0-3.2-1.4-3.2-3.1c0-1.7,1.5-3.3,3.2-3.2
		C91,174,92.4,175.4,92.4,177.1z"/>
	<path class="st1" d="M142.5,158.9c0,1.8-1.3,3.1-3.1,3.1c-1.7,0-3.1-1.3-3.2-3.1c0-1.8,1.4-3.2,3.2-3.2
		C141.1,155.8,142.5,157.2,142.5,158.9z"/>
	<path class="st1" d="M62.6,169.3c1.7,0,3.1,1.5,3.1,3.2c0,1.7-1.4,3.1-3.2,3.1c-1.8,0-3.2-1.5-3.2-3.2
		C59.5,170.6,60.9,169.2,62.6,169.3z"/>
	<path class="st1" d="M31.9,96.3c1.7,0,3.2,1.4,3.2,3.1c0,1.7-1.3,3.2-3,3.2c-1.7,0.1-3.2-1.4-3.3-3.2
		C28.7,97.7,30.1,96.3,31.9,96.3z"/>
	<path class="st1" d="M89.3,18.1c1.7,0,3.1,1.3,3.2,3.1c0,1.7-1.5,3.3-3.2,3.2c-1.7,0-3.1-1.5-3.1-3.2
		C86.2,19.5,87.6,18.1,89.3,18.1z"/>
	<path class="st1" d="M82,155.3c0,1.8-1.4,3.3-3.2,3.2c-1.7,0-3.1-1.4-3.1-3.1c0-1.7,1.4-3.2,3.1-3.2
		C80.5,152.2,81.9,153.6,82,155.3z"/>
	<path class="st1" d="M38.6,79.5c0,1.7-1.3,3.1-3.1,3.2c-1.7,0-3.2-1.3-3.3-3c-0.1-1.7,1.4-3.3,3.2-3.3
		C37.2,76.4,38.6,77.8,38.6,79.5z"/>
	<path class="st1" d="M42.3,158.8c0,1.7-1.3,3.2-3.1,3.2c-1.7,0-3.3-1.5-3.2-3.2c0-1.7,1.4-3.1,3.2-3.1
		C40.9,155.7,42.2,157.1,42.3,158.8z"/>
	<path class="st1" d="M115.9,169.3c1.7,0,3.1,1.4,3.2,3.1c0,1.8-1.4,3.2-3.2,3.2c-1.8,0-3.1-1.4-3.1-3.1
		C112.8,170.7,114.1,169.3,115.9,169.3z"/>
	<path class="st1" d="M59.6,25.8c0-1.8,1.4-3.1,3.2-3c1.8,0,3.1,1.4,3.1,3.1c0,1.8-1.5,3.2-3.2,3.1C60.8,29,59.5,27.6,59.6,25.8z"/>
	<path class="st1" d="M12.2,109.8c0.9-0.5,1.9-0.1,2.7,0.8c0.6,0.6,0.8,1.4,0.8,2.3c-0.1,1.7-1.6,3-3.3,3c-1.8-0.1-3.1-1.6-3-3.4
		C9.5,110.9,10.7,109.7,12.2,109.8z"/>
	<path class="st1" d="M84,72.2c0.6,0.1,0.5,0.5,0.5,0.9C84.2,72.9,84,72.6,84,72.2z"/>
	<path class="st1" d="M83.8,71.4C84,71.6,84,71.8,84,72C83.8,71.9,83.8,71.7,83.8,71.4z"/>
</g>
<g>
	<g>
		<path class="st2" d="M542,103.4c-4.3,0-8.6,0-12.9,0c-1.6,0-2.3,0.7-1.7,2.1c0.5,1.3,1.2,2.5,2.1,3.5c4.2,4.4,9.5,5.1,15.2,4
			c2-0.4,4-1,6-1.5c1.6-0.4,2.7,0.2,3.3,1.7c0.9,2.1,1,2.2-1,3.5c-1,0.7-2.2,1.2-3.4,1.6c-4.6,1.7-9.3,2.5-14.2,1.7
			c-5.4-0.8-10.1-2.9-13.5-7.4c-3.3-4.3-4-9.2-3.6-14.4c0.2-1.9,0.5-3.9,1.2-5.7c1-2.6,2.4-5.1,4.6-7c5.7-4.9,12.3-6.1,19.5-4.3
			c3.8,1,6.7,3.1,8.9,6.2c1.3,1.9,2.1,4,2.9,6.2c0.9,2.7,0.8,5.4,1,8.1c0.1,1.3-0.3,1.7-1.6,1.7C550.6,103.5,546.3,103.5,542,103.4
			C542,103.5,542,103.5,542,103.4z M537.3,96.9C537.3,96.9,537.3,96.9,537.3,96.9c2.8,0,5.5,0,8.3,0c1.5,0,2-0.5,1.8-2.1
			c-0.1-1.8-1.1-3.2-2.2-4.5c-2.6-3.1-7-4.2-10.7-2.9c-0.7,0.3-1.5,0.5-2.1,0.9c-2.5,1.5-4.4,3.6-5.1,6.5c-0.4,1.5,0.2,2.1,1.8,2.1
			C531.8,96.9,534.6,96.9,537.3,96.9z"/>
		<path class="st2" d="M250.8,100.7c0.5,2.6-0.5,5.3-1.7,7.8c-3.6,7.5-9.8,11.3-18.1,11.8c-4.3,0.2-8.2-1-11.8-3.2
			c-2.3-1.4-4.5-3.3-5.8-5.8c-0.8-1.4-1.8-2.7-2.3-4.1c-0.6-1.8-0.9-3.8-0.9-5.7c0-2.4,0.3-4.9,0.7-7.2c0.2-1.3,1-2.4,1.6-3.6
			c1.3-2.4,3.2-4.5,5.4-6.1c2.5-1.9,5.5-3,8.6-3.7c4-0.8,8-0.4,11.8,1c4.3,1.7,7.7,4.5,10,8.7C249.8,93.8,251,96.9,250.8,100.7z
			 M218.8,100.5c-0.4,2.7,0.6,5.1,1.9,7.2c1.3,2.2,3.2,3.9,5.7,5c3.7,1.6,7.2,1.1,10.4-1.1c3-2,4.6-5,4.9-8.7
			c0.5-4.6-0.2-8.9-3.7-12.3c-5.5-5.4-13.8-3.5-17.5,2.8C219.3,95.5,218.4,97.9,218.8,100.5z"/>
		<path class="st2" d="M327.6,100.5c-0.4-3,0.3-5.8,1.6-8.4c1.5-3.1,3.7-5.8,6.6-7.9c3.3-2.3,7-3.4,11-3.7c4.4-0.3,8.5,0.8,12.2,3.2
			c2.8,1.8,5,4.2,6.6,7c0.9,1.7,1.5,3.6,1.9,5.5c0.5,2.5,0.4,5.2,0.1,7.8c-0.4,3.2-1.7,6-3.8,8.4c-1.4,1.7-3,3.3-4.8,4.5
			c-2.8,1.8-5.9,3-9.3,3.3c-3.9,0.4-7.6-0.3-11.1-1.9c-2.5-1.1-4.7-2.7-6.5-4.8c-2.5-2.9-4.3-6.2-4.7-10.1
			C327.5,102.5,327.6,101.5,327.6,100.5z M359.4,101.1c0-3.4-0.9-5.9-2.3-8.4c-2.4-4-7.3-6-11.6-5c-5.7,1.3-8.9,6-9.4,11.6
			c-0.5,4.9,1.3,8.9,5.3,12c5.8,4.5,13.7,2,16.7-4.3C358.9,105,359.6,102.8,359.4,101.1z"/>
		<path class="st2" d="M258,100.3c0-5.7,0-11.4,0-17.1c0-1.2,0.5-1.6,1.6-1.4c2.1,0.4,4.1,1,5.9,2.3c1.2,1,1.8,1,3.2,0
			c2.5-1.8,5.3-2.9,8.4-3.3c3-0.5,5.9,0,8.5,1.1c1.9,0.8,3.4,2.2,4.4,4.2c1.2,2.4,1.6,4.9,1.6,7.6c0,7.2,0,14.5,0,21.7
			c0,0.7,0.1,1.5,0.1,2.2c0,1-0.4,1.6-1.5,1.7c-2,0.1-3.9,0.1-5.9,0.1c-0.9,0-1.3-0.5-1.3-1.7c0-2.1,0-4.2,0-6.3
			c0-5.2-0.1-10.5,0-15.7c0-1.9-0.5-3.6-1.6-5c-0.6-0.9-1.7-1.7-2.7-2.1c-2.8-1.1-5.6-0.7-8.2,0.8c-1.4,0.8-2.8,1.5-3.7,2.9
			c-0.4,0.6-0.7,1.4-0.7,2.2c0,6.9,0,13.9,0,20.8c0,0.8,0.1,1.7,0.1,2.5c0,1.1-0.5,1.6-1.6,1.6c-1.8,0-3.5,0-5.3,0
			c-1.1,0-1.5-0.5-1.5-1.8c0-2.8,0-5.7,0.1-8.5C258,106,258,103.2,258,100.3C258,100.3,258,100.3,258,100.3z"/>
		<path class="st2" d="M477.6,100.3c0-5.7,0-11.5,0-17.2c0-1.1,0.5-1.6,1.6-1.4c2.1,0.3,4.1,1,5.8,2.3c1.3,1,1.9,1,3.3,0
			c4.2-3,8.8-4.1,13.8-3.2c2.7,0.5,5.2,1.6,6.7,3.9c1,1.6,2.1,3.3,2.1,5.3c0,4.9,0.1,9.8,0.2,14.7c0.1,4.3,0.1,8.5,0.1,12.8
			c0,1.1-0.5,1.6-1.6,1.7c-1.8,0-3.7,0-5.5,0c-0.9,0-1.3-0.4-1.4-1.3c0-0.5,0-0.9,0-1.4c0-6.8-0.1-13.6-0.1-20.4
			c0-2-0.5-3.8-1.5-5.4c-0.6-0.9-1.5-1.8-2.5-2.2c-2.8-1.1-5.6-0.9-8.2,0.6c-1,0.6-2,1.2-2.9,1.8c-1.2,0.9-1.7,2-1.7,3.6
			c0.1,7,0.1,14.1,0.1,21.1c0,0.7,0.1,1.4,0.1,2c0,1.1-0.5,1.6-1.5,1.6c-1.8,0-3.7,0-5.5,0c-1,0-1.4-0.5-1.4-1.7c0-1.6,0-3.2,0-4.8
			C477.7,108.6,477.7,104.5,477.6,100.3C477.7,100.3,477.7,100.3,477.6,100.3z"/>
		<path class="st2" d="M408.8,97.7c0,4.7,0,9.4,0,14.1c0,0.1,0,0.3,0,0.4c0.2,3-0.6,3.9-3.4,5.3c-5,2.5-10.2,3.1-15.7,2.7
			c-3.6-0.2-6.9-1.3-9.7-3.6c-3.6-2.9-4.9-6.8-4.9-11.3c0-5.1,0-10.3,0-15.4c0-2.2-0.1-4.5-0.1-6.7c0-1.2,0.4-1.7,1.6-1.7
			c1.8,0,3.7-0.1,5.2,1.2c0.5,0.4,1,1,1.2,1.6c0.3,1.1,0.4,2.2,0.5,3.3c0,5.3-0.1,10.6,0,15.8c0,2.3,0.5,4.5,1.8,6.5
			c1.3,2,3.3,3,5.5,3.4c3,0.6,5.8,0,8.4-1.4c1-0.6,1.1-1.5,1.1-2.5c0-5.9,0-11.8-0.1-17.7c0-2.8-0.1-5.6-0.1-8.4
			c0-1.2,0.4-1.7,1.5-1.7c1.9-0.1,3.8-0.1,5.7,0c1.2,0,1.5,0.5,1.5,1.7c0,4.8,0,9.6,0,14.4C408.9,97.7,408.8,97.7,408.8,97.7z"/>
		<path class="st2" d="M192.2,120.4c-6.8-0.2-12.4-2.9-16.4-8.5c-3.6-5-4.6-10.7-3-16.7c1.4-5.2,4.5-9.1,9.1-11.8
			c5-2.9,10.4-3.7,16-2.1c2.2,0.6,4.2,1.4,6.1,2.6c1.2,0.7,1.2,1.5,0.2,2.5c-0.2,0.2-0.5,0.4-0.6,0.7c-0.9,1.4-2.2,1.7-3.7,1.4
			c-1.8-0.3-3.6-0.7-5.5-0.9c-4.7-0.5-8.6,1.2-11.3,5.1c-1.8,2.5-2.4,5.5-2.3,8.5c0.1,3.1,1.1,5.9,3.2,8.3c2,2.2,4.4,3.6,7.3,4.1
			c2.6,0.5,5.3,0.2,7.8-0.9c0.4-0.2,0.9-0.3,1.3-0.5c2.3-1,4.1-0.1,5.5,1.7c0.5,0.7,0.5,1.4-0.2,1.9
			C201.9,118.7,196.7,120.5,192.2,120.4z"/>
		<path class="st2" d="M305.4,103.9c0-4.4,0-8.8,0-13.2c0-2-0.5-2.4-2.5-2.4c-1.1,0-2.2,0-3.3,0c-0.9,0-1.4-0.4-1.4-1.3
			c0-1.2,0-2.4,0.1-3.6c0.1-1.2,0.5-1.7,1.8-1.7c1.1,0,2.2,0,3.2,0c1.6,0,2.1-0.5,2.1-2.1c0-2,0-4,0.1-6c0.1-2.3,1.9-4.2,4.2-4.5
			c0.8-0.1,1.6-0.3,2.4-0.3c1.1-0.1,1.7,0.4,1.7,1.5c0,2.9-0.1,5.9-0.2,8.8c-0.1,2.1,0.5,2.7,2.6,2.7c1.8,0,3.6-0.1,5.4-0.1
			c1.3,0,1.7,0.3,1.7,1.7c0,1,0,2,0,3c0,1.4-0.4,1.9-1.9,2c-1.4,0.1-2.8,0-4.3,0c-0.4,0-0.9,0-1.3,0c-1.6,0.1-2.2,0.7-2.2,2.4
			c0,3.3,0.1,6.6,0.1,9.8c0,5.1,0,10.2,0,15.3c0,0.6,0.1,1.1,0.1,1.7c0,1.1-0.5,1.6-1.6,1.6c-1.8,0-3.6,0-5.4,0
			c-1.1,0-1.5-0.5-1.4-1.7c0-2.8,0-5.6,0.1-8.4C305.4,107.4,305.4,105.6,305.4,103.9C305.4,103.9,305.4,103.9,305.4,103.9z"/>
		<path class="st2" d="M450.6,119.2c-0.9,0-1.9,0-2.8,0c-1.3-0.1-1.6-0.6-1.5-1.9c0.1-1,0.1-2,0.1-3c0-15.1,0-30.2,0-45.4
			c0-2.1-0.1-4.1,0.5-6.1c0.3-1.1,0.7-2,1.5-2.8c1.5-1.3,3.1-2.2,5.2-2.2c0.9,0,1.3,0.4,1.3,1.3c-0.1,10.3-0.1,20.6-0.1,30.9
			c0,8.6,0,17.1,0,25.7c0,0.6,0.1,1.1,0.2,1.7c0.1,1.1-0.3,1.6-1.4,1.7C452.6,119.2,451.6,119.2,450.6,119.2
			C450.6,119.2,450.6,119.2,450.6,119.2z"/>
		<path class="st2" d="M424.5,106.7c0,3.6,0,7.3,0,10.9c0,1.1-0.4,1.5-1.5,1.5c-1.8,0-3.5,0-5.3,0c-1.5,0-1.9-0.6-1.8-2.1
			c0.1-2.4,0.1-4.7,0.1-7.1c0-8.1,0-16.2,0-24.3c0-0.8-0.1-1.7-0.1-2.5c0-0.9,0.4-1.5,1.3-1.4c2.3,0,4.5,0.5,6.3,2.1
			c0.9,0.8,1.8,0.7,2.6-0.1c4-3.9,7.8-3.8,12.3-2c0.8,0.3,1.1,0.9,0.7,1.7c-0.9,1.8-1.8,3.5-2.7,5.3c-0.5,1-0.9,1.1-1.9,0.4
			c-2.1-1.5-5.4-0.8-7.2,1c-2.2,2.3-3,5-3,8.1c0,2.8,0,5.6,0,8.4C424.4,106.7,424.5,106.7,424.5,106.7z"/>
		<path class="st2" d="M470.5,100.3c0,5.7,0,11.4,0,17.1c0,1.4-0.4,1.8-1.8,1.8c-1.7,0-3.3,0-5,0c-1.2,0-1.7-0.5-1.7-1.6
			c0-5.7,0.1-11.5,0.1-17.2c0-3.9,0-7.8,0-11.8c0-0.4,0-0.8,0-1.2c0-3.4,2-4.7,4.8-5.5c0.6-0.2,1.3-0.2,1.9-0.3
			c1.3-0.1,1.7,0.3,1.7,1.5c0,4.4,0,8.7-0.1,13.1C470.4,97.6,470.4,99,470.5,100.3C470.5,100.3,470.5,100.3,470.5,100.3z"/>
		<path class="st2" d="M471.8,71.2c0.2,2.9-2.6,5.5-5.6,5.4c-3.1-0.1-5.5-2-5.4-5.5c0.1-3.5,2.3-5.2,5.5-5.3
			C469.3,65.6,471.8,68.1,471.8,71.2z"/>
	</g>
</g>
<g>
	<path class="st2" d="M557.3,69.3c3.4,0,6.3,2.8,6.3,6.4c-0.1,3.3-2.8,6.2-6.4,6.1c-3.4,0-6.2-2.8-6.2-6.4
		C551.1,72.1,553.8,69.3,557.3,69.3z M557.3,70.8c-2.6,0-4.7,2.1-4.7,4.6c-0.1,2.8,2.1,4.8,4.6,4.9c2.8,0.1,4.8-2.2,4.9-4.6
		C562.1,72.9,559.9,70.8,557.3,70.8z"/>
	<path class="st2" d="M555.3,78.5C555.3,78.5,555.3,78.4,555.3,78.5c0-2,0-3.8,0-5.7c0-0.1,0-0.1,0.1-0.1c0.6-0.1,1.3-0.1,1.9-0.1
		c0.4,0,0.9,0.1,1.3,0.2c0.5,0.2,0.8,0.6,0.9,1.1c0.1,0.4,0,0.8-0.3,1.2c-0.2,0.2-0.4,0.4-0.7,0.5c0,0,0,0-0.1,0c0,0,0,0,0,0
		c0.1,0,0.1,0.1,0.2,0.1c0.3,0.2,0.4,0.4,0.5,0.7c0.1,0.5,0.3,0.9,0.4,1.4c0,0.2,0.1,0.3,0.2,0.5c0,0,0,0-0.1,0c-0.4,0-0.8,0-1.2,0
		c-0.1,0-0.1,0-0.1-0.1c-0.1-0.4-0.2-0.7-0.3-1.1c-0.1-0.2-0.1-0.5-0.2-0.7c-0.1-0.3-0.4-0.5-0.7-0.5c-0.2,0-0.3,0-0.5,0
		c0,0.8,0,1.5,0,2.3C556.1,78.5,555.7,78.5,555.3,78.5z M556.6,75.2c0.2,0,0.4,0,0.5,0c0.2,0,0.3,0,0.5-0.1c0.6-0.2,0.7-0.9,0.4-1.2
		c-0.2-0.2-0.4-0.3-0.7-0.3c-0.2,0-0.4,0-0.7,0c-0.1,0-0.1,0-0.1,0.1C556.6,74.2,556.6,74.7,556.6,75.2
		C556.6,75.2,556.6,75.2,556.6,75.2z"/>
</g>
</svg>
