<?xml version="1.0" encoding="utf-8"?>
<!-- Generator: Adobe Illustrator 24.1.2, SVG Export Plug-In . SVG Version: 6.00 Build 0)  -->
<svg version="1.1" id="Layer_1" xmlns="http://www.w3.org/2000/svg" xmlns:xlink="http://www.w3.org/1999/xlink" x="0px" y="0px"
	 viewBox="0 0 425.2 425.2" style="enable-background:new 0 0 425.2 425.2;" xml:space="preserve">
<style type="text/css">
	.st0{fill:#1F3B6F;}
</style>
<g>
	<path class="st0" d="M6.2,139.8c0,0,30.8,21.2,43.2,32c0,0,75.7-52.2,163.5-90.8c0,0-54.8-4.3-87.7-3.3
		C125.2,77.7,92.3,89.7,6.2,139.8z"/>
	<path class="st0" d="M163.2,62.2c0,0,71.7,22.3,137,62.8l6.2-45c0,0-49.5-22.8-93-33.5C213.3,46.5,193.8,51.3,163.2,62.2z"/>
	<path class="st0" d="M348.3,100c0,0-49.7,20.7-134.5,82.5c0,0,58.3,8.5,121.8,23.3c0,0,46.8-41.2,84-66
		C419.7,139.8,381.3,115.8,348.3,100z"/>
	<path class="st0" d="M292.8,244.2l-79.7,75.7c0,0-103.7-99-128.2-118.5c0,0,33.2-65,40.8-76.2C125.8,125.2,221.5,183.5,292.8,244.2
		z"/>
	<ellipse class="st0" cx="212.7" cy="125.6" rx="50.3" ry="28.9"/>
</g>
<g>
	<path class="st0" d="M352.6,354.9c0,0,0.3,3.4,0.3,5.8c0,2.3,0,29.7,0,29.7h10.5c0,0,0.1-15,0.1-18.5s1.8-7.2,5.3-7.9
		c3.5-0.7,5.2,0.1,5.2,0.1v-8.9c0,0-3.7-0.3-6.3,0.8c-2.6,1.1-5,5.4-5,5.4l-0.6-6.3L352.6,354.9z"/>
	<path class="st0" d="M305.9,339.7l-0.1,20.5c0,0-2.7-5.6-10.1-5.5c-7.4,0.1-11.5,6.9-11.5,17.6s4.8,18.6,12.5,18.6s9.2-5.8,9.2-5.8
		l0.8,5.2h9.5v-50.6H305.9z M300.3,383.4c-3.2,0-5.3-2.9-5.3-11s2.2-11,5.3-11s5.4,4.1,5.4,11S303.5,383.4,300.3,383.4z"/>
	<polygon class="st0" points="222.2,390.3 222.2,339.8 250.1,339.8 250.1,348.1 233.3,348.1 233.3,360.4 249.4,360.4 249.4,368.8 
		233.3,368.8 233.3,390.4 	"/>
	<path class="st0" d="M135.9,355h18.5v-7.1l10.6-3.4v10.7h6.8v7.3h-7c0,0,0,13.8,0,17.5s5.5,4.3,7.1,2.8v7.4c0,0-2.4,0.8-7.3,0.8
		c-4.8,0-10.3-2.8-10.3-10.8s0-17.5,0-17.5h-7.9v27.8H136L135.9,355z"/>
	<path class="st0" d="M101.4,355.3c0,0-3.8-0.9-11.5-0.5s-14.4,7.4-14.4,18.3s7,17.8,15.3,17.8s10.8-0.5,10.8-0.5v-8.3
		c0,0-1.9,0.5-8.1,0.5c-6.2,0-6.8-8.3-6.8-10.9c0-2.6,2-8.2,6.3-8.7s7.9,0.1,7.9,0.1L101.4,355.3z"/>
	<path class="st0" d="M34.7,368.5c-1.3-2.6-4.3-3.3-4.3-3.3s9.7-3.1,9.7-12.6s-9.4-13-12.7-13s-21.5,0-21.5,0v50.8h11.8v-20.9
		c0,0,3.4-0.5,5.5,1.7c2.5,2.5,6.6,19.2,6.6,19.2h12.4C42.1,390.3,35.9,371.1,34.7,368.5z M22.8,361.3c-0.9,0-5.5,0-5.5,0V348
		c0,0,4,0.2,5.2,0.2s5.6,1.3,5.6,6.3S23.7,361.3,22.8,361.3z"/>
	<path class="st0" d="M52.1,375.4h20.8c0-18.3-9.1-20.8-14.7-20.8s-15.9,3-15.9,17.4c0,14.4,8.8,18.8,16.8,18.8s11.8-0.7,11.8-0.7
		v-7.9c0,0-2.6,1.7-9.4,1.7C51.8,383.9,52.1,375.4,52.1,375.4z M57.8,360.9c5.9,0,5.7,8.8,5.7,8.8l-11.3-0.1
		C52.2,369.7,51.7,360.9,57.8,360.9z"/>
	<path class="st0" d="M112,375.4h20.8c0-18.3-9.1-20.8-14.7-20.8s-15.9,3-15.9,17.4c0,14.4,8.8,18.8,16.8,18.8s11.8-0.7,11.8-0.7
		v-7.9c0,0-2.6,1.7-9.4,1.7C111.7,383.9,112,375.4,112,375.4z M117.7,360.9c5.9,0,5.7,8.8,5.7,8.8l-11.3-0.1
		C112.1,369.7,111.6,360.9,117.7,360.9z"/>
	<path class="st0" d="M260.8,375.4h20.8c0-18.3-9.1-20.8-14.7-20.8c-5.6,0-15.9,3-15.9,17.4c0,14.4,8.8,18.8,16.7,18.8
		c7.9,0,11.8-0.7,11.8-0.7v-7.9c0,0-2.6,1.7-9.4,1.7C260.4,383.9,260.8,375.4,260.8,375.4z M266.4,360.9c5.9,0,5.7,8.8,5.7,8.8
		l-11.3-0.1C260.8,369.7,260.3,360.9,266.4,360.9z"/>
	<path class="st0" d="M329.3,375.4H350c0-18.3-9.1-20.8-14.7-20.8c-5.6,0-15.9,3-15.9,17.4c0,14.4,8.8,18.8,16.8,18.8
		c7.9,0,11.8-0.7,11.8-0.7v-7.9c0,0-2.6,1.7-9.4,1.7C328.9,383.9,329.3,375.4,329.3,375.4z M334.9,360.9c5.9,0,5.7,8.8,5.7,8.8
		l-11.3-0.1C329.3,369.7,328.8,360.9,334.9,360.9z"/>
	<rect x="135.9" y="339.6" class="st0" width="10.8" height="9.1"/>
	<path class="st0" d="M191.6,354.7c-10.4,0-13.8,0.4-13.8,0.4v8.8c0,0,4.3-2.3,10.4-2.3c6.1,0,6.5,4.2,6.5,6.8c0,0-3.4-0.4-9.4,0.4
		c-6,0.8-11.4,3.8-11.4,12c0,8.2,8.2,10,11,10c5.3,0,9.7-4.8,9.7-4.8v4.4h9.8c0,0,0-22.8,0-25.4S202,354.7,191.6,354.7z M194.4,378
		c0,1.1-1.8,6-6.5,6s-4.3-4.8-4.3-5.4c0-0.6,0.9-3.3,4.2-4.4c3.3-1.1,5.3-1,6.8-0.9C194.6,373.3,194.4,376.9,194.4,378z"/>
	<path class="st0" d="M391,354.7c-10.4,0-13.8,0.4-13.8,0.4v8.8c0,0,4.3-2.3,10.4-2.3c6.1,0,6.5,4.2,6.5,6.8c0,0-3.4-0.4-9.4,0.4
		c-6,0.8-11.4,3.8-11.4,12c0,8.2,8.2,10,11,10c5.3,0,9.7-4.8,9.7-4.8v4.4h9.8c0,0,0-22.8,0-25.4S401.4,354.7,391,354.7z M393.8,378
		c0,1.1-1.8,6-6.5,6s-4.3-4.8-4.3-5.4c0-0.6,0.9-3.3,4.2-4.4c3.3-1.1,5.3-1,6.8-0.9C394,373.3,393.8,376.9,393.8,378z"/>
	<rect x="408.4" y="339.6" class="st0" width="10.6" height="50.8"/>
</g>
</svg>
