<?xml version="1.0" encoding="utf-8"?>
<!-- Generator: Adobe Illustrator 24.1.2, SVG Export Plug-In . SVG Version: 6.00 Build 0)  -->
<svg version="1.1" id="Camada_1" xmlns="http://www.w3.org/2000/svg" xmlns:xlink="http://www.w3.org/1999/xlink" x="0px" y="0px"
	 viewBox="0 0 435.6 119.1" style="enable-background:new 0 0 435.6 119.1;" xml:space="preserve">
<style type="text/css">
	.st0{fill:#B8CE24;}
	.st1{fill:#7BB0BA;}
	.st2{fill:#107D8D;}
	.st3{fill:#0E7D8D;}
</style>
<path class="st0" d="M371.8,99.6c-1.6-0.1-3.2-0.1-4.8-0.3c-0.7-0.1-0.8-0.3-0.5-1c1.7-3.7,2.6-7.6,2.7-11.7
	c0.4-12-4.3-21.5-13.9-28.6c-5.1-3.8-10.9-5.7-17.1-6.2c-1.1-0.1-1.1-0.4-0.8-1.3c5.1-14.1,18.5-23.7,33.4-24.1
	c18.2-0.5,34,12.4,37.1,30.4c3.6,20.3-10.8,39.8-31.3,42.5C375,99.5,373.4,99.5,371.8,99.6z"/>
<path class="st1" d="M365.2,85.1c0.1,15-11.9,29-29.1,29.1c-16.6,0-29.2-13.1-29.3-29.3c0-16.1,13.3-29.2,29.5-29.1
	C352.2,55.8,365.2,69,365.2,85.1z"/>
<path class="st2" d="M76.1,43.7c2.3-2,5.1-2.7,7.9-3c6.8-0.7,13.1,0.5,18.4,5.1c3.4,2.9,5.3,6.8,6.2,11.1c1.2,5.6,1.1,11.1-0.3,16.6
	c-1.9,7.5-6.8,12.1-14.1,14.4c-4.2,1.3-8.6,1.8-13,1.9c-5.8,0.1-11.5,0-17.3,0.1c-1.1,0-1-0.5-1-1.3c0-18.3,0-36.7,0-55c0-3,0-6,0-9
	c0-0.8,0.2-1,1-1c3.7,0,7.4,0,11,0c0.9,0,1,0.3,1,1.1C76,30.6,76,36.6,76,42.5C76,42.9,75.9,43.3,76.1,43.7z M75.9,68.6
	C75.9,68.6,75.9,68.6,75.9,68.6c0,4.1,0,8.1,0,12.2c0,0.6,0,1.1,0.9,1c3.3-0.1,6.6-0.2,9.9-0.9c5.5-1.3,8.8-4.7,9.7-10.3
	c0.6-3.5,0.6-7,0.1-10.5c-0.3-2.5-1-5-2.3-7.2c-2.3-3.9-6.1-5.5-10.5-4.5c-4.7,1.1-7.7,4.8-7.7,9.6C75.9,61.5,75.9,65,75.9,68.6z"/>
<path class="st3" d="M51.7,70.1c0,6.2,0,12.4,0,18.6c0,0.9-0.1,1.2-1.1,1.2c-7.6,0-15.1,0-22.7,0c-4.2,0-8.4-0.6-12.3-2.4
	c-5.3-2.4-7.9-6.6-8.2-12.4c-0.1-2.9,0.2-5.7,1.1-8.4c2-5.8,6.3-8.7,12.1-9.7c2.4-0.5,4.9-0.5,7.4-0.5c3.6,0,7.1-0.1,10.7,0
	c0.8,0,1.1-0.2,1.1-1.1c-0.1-1.8,0-3.7-0.4-5.5c-0.5-2.4-1.9-4.1-4.2-4.8c-3-0.9-6.1-1.2-9.2-0.4c-3,0.7-5.1,2.5-5.8,5.6
	c-0.1,0.6-0.4,0.8-1,0.8c-3.5,0-7,0-10.4,0C8,51.1,8,50.7,8,50c0.4-4.8,3.1-8.1,7.1-10.3c5.4-3,11.3-3.7,17.4-3.4
	c4.4,0.3,8.6,1.2,12.3,3.5c4.4,2.7,6.7,6.7,6.8,11.8C51.8,57.8,51.7,63.9,51.7,70.1C51.7,70.1,51.7,70.1,51.7,70.1z M39.9,72.9
	C39.9,72.9,39.9,72.9,39.9,72.9c0-2.6,0-5.3,0-7.9c0-0.7-0.2-1-0.9-1c-1.5,0-3,0-4.4,0c-3.3,0.1-6.6,0.2-9.8,1.5
	c-2.3,1-4.1,2.6-4.7,5.1c-1.2,5.1,0,9.9,6.7,11c0.3,0.1,0.6,0.1,0.9,0.1c3.8,0.5,7.7,0,11.5,0c0.7,0,0.8-0.4,0.7-0.9
	C39.9,78.2,39.9,75.5,39.9,72.9z"/>
<path class="st2" d="M185.3,63.2c-4.9,0-9.8,0-14.6,0c-1.1,0-1.3,0.3-1.3,1.3c0.1,3.1,0.5,6.1,1.6,9c2.2,5.5,6.1,8.2,12,8.2
	c4.8,0,9.5,0.1,14.3,0c0.9,0,1.2,0.2,1.2,1.2c-0.1,2,0,4,0,6c0,0.6-0.1,0.9-0.8,0.9c-6.5-0.1-13,0.4-19.5-0.3
	c-8.3-0.9-15.3-4.2-19.9-11.5c-2.3-3.5-3.4-7.5-3.7-11.6c-0.5-5.3-0.1-10.5,1.5-15.6c2.3-7.2,7.2-11.7,14.5-13.6
	c4.8-1.2,9.6-1.4,14.5-0.7c7.7,1.2,12.5,5.8,14.6,13.2c1.1,4.1,1.4,8.3,1.5,12.5c0,0.8-0.3,0.9-1,0.9
	C195.2,63.2,190.3,63.2,185.3,63.2C185.3,63.2,185.3,63.2,185.3,63.2z M178.9,56.1C178.9,56.1,178.9,56.1,178.9,56.1
	c3,0,5.9-0.1,8.9,0c0.7,0,0.9-0.2,0.9-0.9c-0.1-1.5-0.2-2.9-0.5-4.4c-0.9-4.2-3.2-6.2-7.4-6.7c-5.3-0.6-9.3,2-10.7,6.9
	c-0.4,1.3-0.5,2.6-0.6,3.9c-0.1,0.9,0.1,1.3,1.1,1.2C173.4,56.1,176.2,56.1,178.9,56.1z"/>
<path class="st3" d="M220.5,89.9c-2.7,0-5.4,0-8,0c-0.7,0-1.1-0.1-1-1c0.1-2,0.1-4,0-6c0-0.9,0.3-1,1.1-1c4,0,8,0,12,0
	c1.9,0,3.7-0.4,5.3-1.4c3.2-2.1,3.7-6.1,1.2-8.9c-1.4-1.5-3.2-2.5-5-3.4c-2.3-1.1-4.6-2.2-6.9-3.3c-1.2-0.6-2.4-1.3-3.5-2.1
	c-6.4-4.4-8.4-12-4.8-18.8c2-3.8,5.4-5.7,9.4-6.7c2.7-0.7,5.4-1,8.2-1c4.7,0,9.4,0,14,0c0.8,0,1.1,0.2,1.1,1.1
	c-0.1,1.9-0.1,3.8,0,5.8c0,0.8-0.2,1.1-1.1,1.1c-3.9,0-7.8,0-11.8,0c-1.4,0-2.7,0.1-4,0.7c-2.3,1-3.6,2.7-3.9,5.2
	c-0.2,2.4,0.9,4,2.8,5.2c2.5,1.6,5.4,2.5,8.2,3.5c2.9,1.1,5.8,2.2,8.4,4.1c5.9,4.2,7.9,12.6,4.4,18.8c-1.8,3.2-4.7,5.1-8,6.3
	c-3.6,1.4-7.4,1.9-11.3,2C224.9,89.9,222.7,89.9,220.5,89.9C220.5,89.9,220.5,89.9,220.5,89.9z"/>
<path class="st2" d="M260.9,60.1c0-5,0-9.9,0-14.9c0-0.9-0.3-1.2-1.1-1.1c-2,0.1-4,0-6,0c-0.8,0-1.1-0.1-1.1-1c0.1-2,0-4,0-6
	c0-0.7,0.2-1,0.9-1c1.3,0,2.6-0.1,3.9-0.5c1.9-0.5,3.3-1.6,3.9-3.5c0.2-0.4,0.4-0.9,0.5-1.4c0.9-3.3,3.1-5.3,6.4-6.2
	c1.6-0.4,3.2-0.7,4.8-0.9c0.8-0.1,1.1,0.1,1.1,1c0,3.5,0,7,0,10.4c0,0.9,0.2,1.2,1.2,1.2c3.3-0.1,6.6,0,9.8,0c0.8,0,1.1,0.1,1.1,1
	c-0.1,2-0.1,3.9,0,5.9c0,0.8-0.3,1-1,1c-3.4,0-6.7,0-10.1,0c-0.6,0-1,0-1,0.9c0,9.4,0.1,18.9,0.1,28.3c0,0.6,0.1,1.1,0.2,1.7
	c0.7,4.2,3,6.3,7.2,6.8c2.4,0.3,4.9,0.1,7.3,0.1c0.9,0,1.3,0.2,1.2,1.2c-0.1,2,0,3.9,0,5.9c0,0.5,0,1-0.7,0.9
	c-4.9-0.1-9.9,0.5-14.8-0.4c-1.5-0.3-3-0.7-4.5-1.3c-5.9-2.5-9-7-9.2-13.4C260.8,69.8,260.9,64.9,260.9,60.1
	C260.9,60.1,260.9,60.1,260.9,60.1z"/>
<path class="st0" d="M322.3,32.6c0-14.2,9.6-24.8,22.2-26.1c10.8-1.1,21.1,5.1,25.2,14.9c0.3,0.7,0.2,0.9-0.6,1
	c-16.6,1.2-30.5,12-35.8,27.7c-0.4,1.1-0.6,1-1.4,0.4C325.6,45.5,322.5,39,322.3,32.6z"/>
<path class="st3" d="M121.2,60.3c0-5,0-10.1,0-15.1c0-0.9-0.2-1.1-1.1-1.1c-2,0.1-4.1,0-6.1,0c-0.7,0-1.1-0.2-1-1c0.1-2,0-4.1,0-6.1
	c0-0.7,0.2-0.9,0.9-0.9c1.3,0,2.5-0.1,3.8-0.5c2-0.5,3.3-1.7,3.9-3.7c0.1-0.3,0.2-0.7,0.3-1c0.7-3.7,3.1-5.6,6.6-6.5
	c1.4-0.4,2.9-0.6,4.4-0.8c0.8-0.1,1,0.1,1,0.9c0,3.5,0,7,0,10.4c0,1,0.2,1.3,1.2,1.3c3.3-0.1,6.6,0,9.8,0c0.8,0,1.1,0.2,1.1,1.1
	c-0.1,1.9-0.1,3.8,0,5.8c0,0.9-0.3,1.1-1.1,1.1c-3.3,0-6.6,0-10,0c-0.8,0-1.1,0.2-1.1,1.1c0,9,0,18,0,27c0,0.9,0.1,1.8,0.2,2.6
	c0.6,4.2,3,6.5,7.3,6.9c2.4,0.3,4.9,0.1,7.3,0.1c0.9,0,1.2,0.3,1.1,1.1c-0.1,2,0,4,0,6c0,0.5,0,0.9-0.7,0.9
	c-4.9-0.1-9.9,0.6-14.7-0.5c-6-1.2-10.5-4.4-12.5-10.5c-0.5-1.7-0.7-3.4-0.7-5.2C121.2,69.2,121.2,64.7,121.2,60.3z"/>
<path class="st1" d="M412.6,64c0.1-8.1-1.9-15.7-6.2-22.5c-4.3-6.9-10.2-12-17.5-15.5c6.1-7,16.8-10,26.3-6.1
	c10,4.1,15.4,14.1,14.4,23.8C428.4,55.3,419.9,62.3,412.6,64z"/>
<path class="st0" d="M410.6,75.7c2.9,2.5,4.8,5.7,5.3,9.5c1.5,10.5-6.6,19.3-17.1,18.5c-3.3-0.2-6.2-1.5-8.7-3.6
	c-0.4-0.3-0.7-0.5,0-0.9c9.9-5.1,16.6-12.9,20.4-23.3C410.4,75.9,410.5,75.9,410.6,75.7z"/>
</svg>
