<?xml version="1.0" encoding="utf-8"?>
<!-- Generator: Adobe Illustrator 24.1.2, SVG Export Plug-In . SVG Version: 6.00 Build 0)  -->
<svg version="1.1" id="Camada_1" xmlns="http://www.w3.org/2000/svg" xmlns:xlink="http://www.w3.org/1999/xlink" x="0px" y="0px"
	 viewBox="0 0 250.6 198.5" style="enable-background:new 0 0 250.6 198.5;" xml:space="preserve">
<style type="text/css">
	.st0{fill:#007AC0;}
</style>
<path class="st0" d="M189.6,198.5c-4.7,0-9.1-1.2-12.8-3.7c0,0-0.1,0-0.1-0.1l-15.5-9c0,0-0.1,0-0.1-0.1c0,0-0.1,0-0.1-0.1
	c-4-3-6.8-6.7-8.7-11.5c-0.6,0.7-1.2,1.3-1.8,1.8c-3.3,2.8-7.2,4.1-10.9,3.6c-0.9,2.3-2.5,4.7-8.6,4.8c-0.1,0.3-0.3,0.6-0.5,0.8
	c-1.2,1.5-3.6,2.3-6.5,2.3c-0.1,0-0.1,0-0.1,0c0,0-0.1,0-0.1,0l-18-2.4c-1.6-0.2-2.9-0.7-4.2-1.8l-15.3-12.1l-10.9-0.3
	c0,0,0,0-0.1,0c-2.2-0.1-4.1-0.9-5.8-2.4c0,0,0,0,0,0l-1.9-1.7c0,0,0,0,0,0c-2-1.8-3-4.1-3-6.8v-3.4c-1.8-0.5-3.2-1.5-4.4-3
	l-3.3-4.1c-1.3-1.6-2-3.4-2-5.5l-0.1-2.1l-0.1,0c-2.2-0.8-3.8-2.1-5.1-4.1c0,0,0,0,0,0c0,0,0,0,0,0c0,0,0,0,0,0l-2.1-3.5
	c-1.6-2.6-2.3-5.3-2.1-8.4c0,0,0,0,0,0l0-0.4c-3-1.7-5.2-4.1-6.5-7.2c-4.4-0.2-8.3-1.4-11.7-3.7c-0.1,0-0.1-0.1-0.2-0.1l-15.5-9
	c0,0-0.1,0-0.1-0.1c0,0-0.1-0.1-0.1-0.1c-5.8-4.4-8.1-9.2-9.9-15.4c0,0,0-0.1,0-0.1c-2.6-11.4-1-21,1.2-29.6
	c3.7-13,9.1-23.7,17.6-34.8c9-11.2,17.7-18.2,28.2-22.7c0,0,0.1,0,0.1,0c7.7-2.8,14.4-4,22.5-0.5c0,0,0.1,0,0.1,0.1
	c0,0,0.1,0,0.1,0.1l15.4,8.9c0.1,0,0.1,0.1,0.2,0.1c6.3,3,10.8,9,12.9,17.1c18.1,0.7,34.9,5.4,43.5,8.1c4.8,1.5,8.4,4.7,10.4,9.2
	l6,12.9c0,0,0,0,0,0c0.8,1.8,1.3,3.4,1.5,5.1l4.3,3.8c7.6,6.7,11.2,11,13.5,13.8c3,3.7,4,4.9,10,6.6c4.9-3.3,9.8-5.5,15.5-6.9
	c0,0,0.1,0,0.1,0c5.8-1.1,10.3-1.2,16.3,1.4c0,0,0.1,0,0.1,0.1c0,0,0.1,0,0.1,0.1l15.3,8.9c0,0,0.1,0,0.1,0.1
	c9.1,4.3,14.3,14.8,14.3,28.8c0,26.7-18.8,59.2-41.8,72.5l0,0C202.1,196.6,195.5,198.5,189.6,198.5L189.6,198.5z M226.3,92.7
	c-5.3,0-11.3,1.8-17.4,5.4c-22.1,12.8-40.2,44-40.2,69.6c0,10.8,3.3,19.2,9.3,23.8c0.2,0.2,0.4,0.3,0.6,0.4c7.2,5,17.6,4.3,28.6-2.1
	l0,0c22.1-12.8,40.1-44,40.1-69.5c0-12.6-4.5-22-12.4-25.7c0,0,0,0,0,0c-0.1,0-0.1-0.1-0.2-0.1C232.1,93.2,229.3,92.7,226.3,92.7
	L226.3,92.7z M208,191.2L208,191.2L208,191.2L208,191.2z M163,182.8l6.4,3.7c-2.8-5.1-4.2-11.5-4.2-19c0-26.7,18.8-59.2,41.9-72.5
	c6.5-3.7,12.8-5.7,18.6-5.8l-6.5-3.7c-5.2-2.2-9.1-2.1-14.2-1.2c-5.4,1.4-10.2,3.5-15,6.8c0,0-0.1,0-0.1,0.1
	c-2.1,1.3-4.1,2.9-6.7,5.1c-1.1,1-2.6,2.3-3.8,3.5c-4.9,5-9.4,10.7-13.3,17.1c-3.7,6.2-6.8,12.6-9,19l0,0c0,0.1,0,0.2-0.1,0.3
	c-2.2,6.8-3.4,12.9-3.9,20v1c0,0,0,0.1,0,0.1c-0.1,4.7,0.3,8.5,1.2,11.9c0,0,0,0,0,0C155.9,175.1,158.7,179.6,163,182.8L163,182.8z
	 M124.1,184c0.5,0,1,0,1.4-0.1c-7-0.9-14.7-2.8-19.8-7.3c-4.9-4.3-13.2-12.2-15.9-15.1c-0.6-0.7-0.6-1.8,0.1-2.4
	c0.7-0.6,1.8-0.6,2.4,0.1C95,162,103.1,169.7,108,174c5.2,4.6,14.1,6.1,21.4,6.9c0.1,0,0.2,0,0.3,0c4.3,0.1,5.7-0.7,6.4-1.7
	c-8.3-0.7-15.1-3.3-20.7-7.9c-5.9-4.9-16.4-16.5-18.8-19.3c-0.6-0.7-0.5-1.8,0.2-2.4c0.7-0.6,1.8-0.5,2.4,0.2
	c2.3,2.7,12.7,14.2,18.4,18.9c5.6,4.6,12.5,7,21.2,7.3c0.1,0,0.1,0,0.2,0c0.1,0,0.2,0,0.3,0.1c3.2,0.9,6-0.4,7.8-1.5
	c1.4-0.9,2.4-1.9,3.1-2.8c-6.5-0.1-13.5-0.7-19.8-6.2c-5.8-5.1-21.6-19.5-24.8-23c-0.6-0.7-0.6-1.8,0.1-2.4c0.7-0.6,1.8-0.6,2.4,0.1
	c3.1,3.3,18.8,17.7,24.6,22.8c5.5,4.8,11.6,5.2,18.1,5.3c-0.6-2.9-0.9-6-0.9-9.7c-3.2-1.4-6-3-8.3-5.1c-6.7-5.8-20-17.7-22.6-21.1
	c-0.6-0.8-0.4-1.8,0.3-2.4c0.8-0.6,1.8-0.4,2.4,0.3c2.2,2.8,14.8,14.3,22.1,20.6c1.8,1.5,3.8,2.9,6.1,4c0.5-6.6,1.7-12.5,3.8-18.9
	l-6.9-10.8l-10.8-10.8l0,0c-5.5-5.5-8.4-12.3-8.7-20.1c0,0,0,0,0,0l-0.3-8.6c-0.1-0.3-0.1-0.5-0.1-0.7c-0.1-0.6-0.1-1.1-0.1-1.6
	c0-0.4,0-0.8-0.1-1l0,0c0,0-0.2-0.2-0.9-0.3c-0.1,0-0.2,0-0.2,0l0,0c-0.3,0-0.5,0-0.8-0.1l-0.2,0l-15.7-1.5c-1.8,0-2.9,0.2-4.1,1.1
	l-0.1,0.1c-0.1,0.1-0.1,0.1-0.2,0.2c0,0-0.1,0.1-0.1,0.1c-0.2,0.2-0.3,0.3-0.5,0.4c0,0-0.1,0.1-0.1,0.1l-6.7,8c0,0,0,0,0,0
	c-3.2,3.8-7.7,5.3-11.8,4l-8.8-2.7c0,0,0,0,0,0c0,0,0,0-0.1,0c-1.3-0.5-2.2-1.3-2.7-2.5L72.9,89c-0.1,0-0.2,0-0.2-0.1
	c-0.2-0.1-0.4-0.2-0.5-0.3c-0.2-0.2-0.4-0.4-0.5-0.6c-0.1-0.2-0.2-0.5-0.2-0.7c0-0.2,0-0.4,0.1-0.6c0-0.1,0.1-0.1,0.1-0.2
	c1.9-4.3,4.2-8.8,8.1-12.8c0.3-0.3,1-1,2.1-1.1l2.9-4.5c0-0.1,0.1-0.1,0.1-0.2l7.4-11.7c0,0,0,0,0,0c1.3-2,3-3.5,4.9-4.2
	c0.6-0.2,1.2-0.4,1.8-0.5c0,0,0.1,0,0.1,0l39-6.1c0,0,0,0,0.1,0c0,0,0,0,0,0c1.3-0.1,2.5,0.3,3.6,1.3l14.4,12.7l-5.7-12.3
	c0,0,0,0,0,0c-1.7-3.6-4.5-6.1-8.4-7.3c-8.6-2.7-25.6-7.4-43.8-8c0,0,0,0-0.1,0c-4.9-0.1-9.5,0.1-13.7,0.5c0,0,0,0,0,0
	c-3.4,0.4-6.7,1-9.8,1.8c-9,2.4-16.2,6.7-21.3,12.6c-4.9,6.1-8.2,11.8-11,19.1c-3.3,9.3-4.1,16.7-2.5,23.9c0.3,1,0.6,1.9,0.9,2.7
	c0,0.1,0.1,0.2,0.1,0.3c0.2,0.6,0.5,1.1,0.8,1.7c1-0.5,2.2-0.6,3.3-0.7c2-0.2,4,0.1,5.7,0.9c0,0,0,0,0,0l1.9,0.9
	c2.1,0.9,3.1,2,4.4,3.7c1.2,1.5,1.9,3.3,2.1,5.4l0.1,1.1c0,0,0,0.1,0,0.2v2.6l1.3,0.6c0.2,0.1,0.3,0.2,0.4,0.3l2.5,2.2
	c2.4,2.1,3.7,5,3.6,8.2l-0.2,5.8c0.8,0.4,1.5,0.8,2.4,1.5h0v0l0,0h0c0,0,0,0,0,0l2.5,2v0c2.4,1.9,4.1,5.7,4,9l-0.2,7
	c2.4,0.4,3.9,1.6,6.1,3.4c2.1,1.8,3.4,4,3.8,6.6c0,0,0,0,0,0l1.1,7l2.6,6.7c0,0,0,0.1,0,0.1l14.6,11.6c0,0,0,0,0,0
	c0.8,0.6,1.5,0.9,2.4,1c0,0,0,0,0,0L124.1,184L124.1,184z M75.5,167.4l9.4,0.3l-1.8-4.5c0-0.1-0.1-0.2-0.1-0.4l-1.1-7.2c0,0,0,0,0,0
	c-0.3-1.8-1.1-3.3-2.5-4.5c-2.5-2-3.4-2.7-5.8-2.8c0,0,0,0,0,0c-1.7,0.1-2.8,0.3-3.6,0.8l5.6,4.1c0.5,0.4,0.8,0.9,0.7,1.5l-0.1,1.4
	c0,0.1,0,0.2,0,0.3c0,0.2,0,0.4-0.1,0.6l-0.3,3.9c-0.1,1.3-1.1,2.2-2.4,2.2c-0.1,0-0.3,0-0.4,0c-0.1,0-0.3,0-0.4,0
	c-1.7,0-3.2-0.7-4.3-1.9c0,0,0,0,0,0c0,0,0-0.1-0.1-0.1c0,0-0.1-0.1-0.1-0.1c0.2,1.3,0.8,2.3,1.8,3.3l1.9,1.7
	C72.8,166.8,74,167.3,75.5,167.4L75.5,167.4z M70.8,158.8C70.8,158.8,70.8,158.8,70.8,158.8c0.5,0.5,1,0.8,1.6,0.8l0.4-4.3l-2.4-1.8
	v2.5C70.3,157.1,70.6,158.4,70.8,158.8L70.8,158.8z M62.8,151.4C62.8,151.4,62.8,151.4,62.8,151.4c0.5,0.7,1.1,1.1,1.8,1.5
	c0.2-2.6,1-4.5,2.3-5.8c1.2-1.2,2.9-1.9,5.1-2.1l0.2-7c0,0,0,0,0,0c0.1-2.2-1.1-5-2.7-6.2c0,0,0,0,0,0l-2.5-1.9
	c-0.8-0.6-1.5-1-2.5-1.5c-2.3-0.1-4.1,0.3-5.1,1c0.1,0,0.2,0.1,0.2,0.2l5.9,4.6c0.4,0.3,0.7,0.8,0.7,1.4l0,1.7
	c0,0.2,0.1,0.3,0.1,0.5v0.4c0,0.2,0,0.4-0.1,0.5l0,4c0,0,0,0,0,0c0,0.6-0.2,1.2-0.7,1.7c0,0-0.1,0.1-0.1,0.1c-0.5,0.4-1,0.6-1.6,0.6
	c-0.1,0-0.2,0-0.4,0c-0.1,0-0.3,0-0.4,0c-1.7,0-3.2-0.7-4.3-2l-0.6-0.6c0,0,0,0,0,0c0,0,0,0,0,0c-0.1-0.1-0.1-0.1-0.2-0.2l0.1,1.8
	c0,0,0,0,0,0c0,1.3,0.4,2.3,1.3,3.4l0,0c0,0,0,0,0,0c0,0,0,0,0,0L62.8,151.4L62.8,151.4z M61.5,140.7c0.4,0.4,0.8,0.7,1.4,0.7l0-5.3
	l-2.5-1.9l0,4.2c0,0.6,0.2,1.1,0.5,1.5L61.5,140.7C61.5,140.6,61.5,140.7,61.5,140.7C61.5,140.7,61.5,140.7,61.5,140.7L61.5,140.7z
	 M52.4,136c0.6,0.9,1.2,1.6,2.1,2.1c-0.3-4-0.5-8.2,2.1-10.8c1.5-1.5,3.7-2.3,6.8-2.4l0.2-5.2c0,0,0,0,0,0c0.1-2.2-0.7-4.1-2.4-5.5
	c0,0,0,0,0,0l-2.3-2l-1.7-0.8c-2.9-0.1-5,0.1-6.4,0.7c-0.4,0.2-0.8,0.4-1.1,0.7l4.8,3.2c0.2,0.1,0.4,0.2,0.5,0.3l0.5,0.3
	c0.5,0.3,0.8,0.9,0.8,1.4l0,0.7c0,0.1,0,0.2,0,0.3l0,6.7c0,0.7-0.3,1.4-0.8,1.8c-0.6,0.5-1.4,0.7-2,0.6c-0.1,0-0.2,0-0.3,0
	c-1.7,0-3.2-0.7-4.3-1.9c0,0,0,0,0,0c0,0,0,0,0,0l0,0c-0.1,2.4,0.4,4.3,1.6,6.3l0,0c0,0,0,0,0,0c0,0,0,0,0,0L52.4,136L52.4,136z
	 M149.5,123l5.6,8.7c2.2-5.6,4.9-11.2,8.2-16.5c4-6.6,8.7-12.6,13.8-17.8c1.3-1.3,2.8-2.7,4-3.7c1.5-1.3,2.9-2.4,4.1-3.3
	c-4.8-1.8-6.3-3.5-9.1-6.9c-2.3-2.7-5.7-6.9-13.2-13.4c0,0,0,0,0,0l-4.7-4.2c0,0,0,0,0,0l-18.8-16.5c0,0,0,0,0,0
	c-0.2-0.2-0.6-0.5-0.9-0.5l-38.9,6.1c-0.4,0.1-0.8,0.2-1.1,0.3c-1.6,0.6-2.7,1.9-3.3,2.9l-7.5,11.8c0,0.1-0.1,0.1-0.1,0.2L85.6,73
	l1.5,0.2c0.9,0.1,1.8,0.6,2.3,1.4c1.5,2.4-0.7,5.9-8.3,14.1c-0.2,0.3-0.4,0.5-0.6,0.7l5.6,1.7c0,0,0,0,0,0c2.8,0.9,5.9-0.2,8.2-3
	l7.1-8.5c0.1-0.2,0.2-0.3,0.3-0.4c0,0,0,0,0,0c0,0,0,0,0-0.1c1.1-2,0.3-4.1-0.3-5.5c-0.1-0.2-0.2-0.5-0.2-0.6
	c-0.3-0.8,0.1-1.7,0.9-2.1c0.8-0.4,1.7-0.1,2.2,0.6c0.3,0.4,0.6,0.9,0.9,1.4c1,1.7,2,3.3,4,3.9l15.6,1.5c4.9-0.4,6-1,7.7-1.9
	c0.3-0.1,0.5-0.3,0.8-0.4c0.8-0.4,1.7-0.2,2.2,0.6c0.5,0.7,0.4,1.7-0.3,2.3c-0.6,0.5-1.2,0.9-1.7,1.3c-1.9,1.4-3.1,2.2-3.2,5.1
	l0.3,8.8c0.3,7.1,2.8,12.9,7.7,17.8c0,0,0,0,0,0l10.9,10.9c0,0,0.1,0.1,0.1,0.2C149.4,122.9,149.4,123,149.5,123L149.5,123z
	 M51.4,123.9c0.4,0.5,0.9,0.7,1.5,0.8l0-5.4l-0.3-0.5l-2.3-1.5v4.5c0,0,0,0.1,0,0.1c0,0,0,0,0,0c0,0.6,0.2,1,0.6,1.5c0,0,0,0,0,0v0
	l0,0L51.4,123.9L51.4,123.9z M41.7,116.1c0.7,2.1,1.9,3.8,3.6,5.2c0,0,0,0,0,0c-0.1-1.4-0.1-2.7-0.1-3.9c0-0.6,0-1.2,0.1-1.8
	c0,0,0-0.1,0-0.1c0-0.1,0-0.2,0-0.3c-0.6-0.1-1.1-0.4-1.8-1.1l0,0l-2.1-2.1c0,0,0,0,0,0l0,0c0,0,0,0,0,0l0,0
	c-0.1-0.1-0.1-0.1-0.2-0.2l0,0.5c0,0,0,0,0,0c0,1.3,0.1,2.5,0.6,3.7C41.7,116,41.7,116.1,41.7,116.1L41.7,116.1z M76.5,12.5
	c-5.3,0-11.3,1.8-17.4,5.3C37,30.6,19,61.7,19,87.3c0,11.2,3.5,19.8,9.9,24.2c2.6,1.9,5.6,2.9,9,3.2c-0.1-0.9-0.2-1.7-0.2-2.7
	l0.1-3.6l0.3-6.2l-4-2.3c0,0-0.1,0-0.1-0.1c0,0-0.1,0-0.1-0.1c-3.1-2.4-4.8-4.6-6.4-8.5c-2.8-7.7-2.1-14.5-1-20.7
	c2.6-11.9,7.9-22.4,16.2-32.1c7.1-7.8,13.3-12.1,20.9-14.5c0,0,0.1,0,0.1,0c4.3-1,7.7-1.3,12.3,0.2c0,0,0,0,0.1,0c0,0,0,0,0.1,0
	l1.1,0.4c0.1,0,0.2,0.1,0.2,0.1l5.4,3.2c0.2,0.1,0.4,0.2,0.7,0.3c0.4,0.2,0.7,0.4,1.1,0.6c3.5-0.4,7.3-0.5,11.4-0.5
	c-2-6.8-5.8-11.6-11.1-14.1C82.4,13,79.6,12.5,76.5,12.5L76.5,12.5z M43.7,109.6l0.7,0.7l0.3-5.3l-1.8-1.4l-0.1,4.8
	C42.9,108.7,43.5,109.3,43.7,109.6L43.7,109.6z M42.5,98.8l5.2,4c0.5,0.4,0.7,0.9,0.7,1.5l-0.4,5.4c0.4-0.3,0.9-0.6,1.5-0.9
	c1.6-0.7,3.7-1,6.4-1V106l-0.1-1c0,0,0,0,0,0c-0.1-1.4-0.6-2.6-1.4-3.6c-1.2-1.6-1.8-2.1-3.1-2.7c0,0,0,0,0,0l-1.9-0.9c0,0,0,0,0,0
	c-1.1-0.5-2.5-0.7-3.9-0.6c-1.6,0.1-2.4,0.4-2.8,0.8c0,0,0,0-0.1,0.1c0,0,0,0,0,0c-0.1,0.1-0.3,0.3-0.4,0.6
	C42.3,98.7,42.4,98.8,42.5,98.8L42.5,98.8z M13.3,102.6l6.5,3.7c-2.8-5.1-4.2-11.5-4.2-19c0-26.7,18.8-59.2,41.9-72.5
	C63.9,11.1,70.2,9.2,76,9l-6.5-3.7c-7-3-13-1.9-19.9,0.6c-10,4.3-18.2,11-26.8,21.7c-8.1,10.7-13.4,21.1-17,33.6
	C3.1,72.3,2.7,80.4,4.7,89C6.3,94.7,8.2,98.8,13.3,102.6L13.3,102.6z M35.8,97.1l2.7,1.6c0.2-0.7,0.4-1.3,0.7-1.9
	c-0.6-1-1.1-2-1.5-3c0-0.1-0.1-0.2-0.1-0.2c-0.4-0.9-0.7-1.8-1-2.9c0,0,0-0.1,0-0.1c-1.8-7.9-1-15.9,2.6-25.9
	C42.1,57,45.6,51,50.7,44.6c5.6-6.5,13.3-11.2,23-13.8c1.7-0.5,3.4-0.8,5.2-1.2l-3.1-1.8l-0.9-0.4c-3.8-1.3-6.6-1-10.3-0.1
	c-7,2.2-12.8,6.3-19.3,13.5c-7.9,9.3-13,19.3-15.4,30.5c-1.2,6.6-1.5,12.4,0.8,18.8C31.9,93.4,33.2,95.1,35.8,97.1L35.8,97.1z
	 M75.7,86l2.7,0.5c0.1-0.1,0.2-0.2,0.2-0.3c5.8-6.1,7.4-8.7,7.7-9.8l-3.8-0.4c0,0-0.1,0-0.1,0l-0.2,0c0,0,0,0-0.1,0.1
	C79.2,79.2,77.3,82.6,75.7,86L75.7,86z"/>
<path class="st0" d="M19.5,105.8c-0.1,0-0.2,0-0.2-0.1l-9.4-5.4c-0.2-0.1-0.3-0.4-0.2-0.7c0.1-0.2,0.4-0.3,0.7-0.2l9.4,5.4
	c0.2,0.1,0.3,0.4,0.2,0.7C19.8,105.7,19.7,105.8,19.5,105.8L19.5,105.8z"/>
<path class="st0" d="M16.2,93c-0.1,0-0.2,0-0.2-0.1L3.4,85.6C3.1,85.5,3,85.2,3.2,85c0.1-0.2,0.4-0.3,0.7-0.2L16.4,92
	c0.2,0.1,0.3,0.4,0.2,0.7C16.5,92.9,16.3,93,16.2,93L16.2,93z"/>
<path class="st0" d="M16.3,82.1c-0.1,0-0.2,0-0.2-0.1L3,74.5c-0.2-0.1-0.3-0.4-0.2-0.7c0.1-0.2,0.4-0.3,0.7-0.2l13,7.6
	c0.2,0.1,0.3,0.4,0.2,0.7C16.6,82,16.4,82.1,16.3,82.1L16.3,82.1z"/>
<path class="st0" d="M18,72.2c-0.1,0-0.2,0-0.2-0.1L4.5,64.5c-0.2-0.1-0.3-0.4-0.2-0.7c0.1-0.2,0.4-0.3,0.7-0.2l13.3,7.7
	c0.2,0.1,0.3,0.4,0.2,0.7C18.3,72.1,18.1,72.2,18,72.2L18,72.2z"/>
<path class="st0" d="M20.7,62.9c-0.1,0-0.2,0-0.2-0.1L7.1,55.1C6.9,55,6.8,54.7,7,54.5c0.1-0.2,0.4-0.3,0.7-0.2L21,62
	c0.2,0.1,0.3,0.4,0.2,0.7C21.1,62.8,20.9,62.9,20.7,62.9L20.7,62.9z"/>
<path class="st0" d="M24.4,54.1c-0.1,0-0.2,0-0.2-0.1l-13.4-7.8c-0.2-0.1-0.3-0.4-0.2-0.7c0.1-0.2,0.4-0.3,0.7-0.2l13.4,7.8
	c0.2,0.1,0.3,0.4,0.2,0.7C24.7,54,24.6,54.1,24.4,54.1L24.4,54.1z"/>
<path class="st0" d="M28.8,45.8c-0.1,0-0.2,0-0.2-0.1L15.2,38c-0.2-0.1-0.3-0.4-0.2-0.7c0.1-0.2,0.4-0.3,0.7-0.2l13.4,7.8
	c0.2,0.1,0.3,0.4,0.2,0.7C29.2,45.7,29,45.8,28.8,45.8L28.8,45.8z"/>
<path class="st0" d="M34,37.9c-0.1,0-0.2,0-0.2-0.1l-13.4-7.8c-0.2-0.1-0.3-0.4-0.2-0.7c0.1-0.2,0.4-0.3,0.7-0.2L34.3,37
	c0.2,0.1,0.3,0.4,0.2,0.7C34.4,37.8,34.2,37.9,34,37.9L34,37.9z"/>
<path class="st0" d="M40,30.4c-0.1,0-0.2,0-0.2-0.1l-13.3-7.7c-0.2-0.1-0.3-0.4-0.2-0.7c0.1-0.2,0.4-0.3,0.7-0.2l13.3,7.7
	c0.2,0.1,0.3,0.4,0.2,0.7C40.3,30.4,40.2,30.4,40,30.4L40,30.4z"/>
<path class="st0" d="M46.9,23.5c-0.1,0-0.2,0-0.2-0.1l-13.3-7.7c-0.2-0.1-0.3-0.4-0.2-0.7c0.1-0.2,0.4-0.3,0.7-0.2l13.3,7.7
	c0.2,0.1,0.3,0.4,0.2,0.7C47.3,23.4,47.1,23.5,46.9,23.5L46.9,23.5z"/>
<path class="st0" d="M55,17.3c-0.1,0-0.2,0-0.2-0.1l-13-7.5c-0.2-0.1-0.3-0.4-0.2-0.7c0.1-0.2,0.4-0.3,0.7-0.2l13,7.5
	c0.2,0.1,0.3,0.4,0.2,0.7C55.3,17.2,55.2,17.3,55,17.3L55,17.3z"/>
<path class="st0" d="M64.9,12.1c-0.1,0-0.2,0-0.2-0.1L52.3,4.9c-0.2-0.1-0.3-0.4-0.2-0.7C52.3,4,52.6,4,52.8,4.1l12.4,7.1
	c0.2,0.1,0.3,0.4,0.2,0.7C65.3,12.1,65.1,12.1,64.9,12.1L64.9,12.1z"/>
<path class="st0" d="M34.7,115.5c-0.2,0-0.3-0.1-0.4-0.2L18,87.2c-0.1-0.2-0.1-0.5,0.2-0.7c0.2-0.1,0.5-0.1,0.7,0.2l16.2,28.1
	c0.1,0.2,0.1,0.5-0.2,0.7C34.8,115.5,34.7,115.5,34.7,115.5L34.7,115.5z"/>
<path class="st0" d="M27.9,66c-0.2,0-0.3-0.1-0.4-0.2l-3.3-5.7c-0.1-0.2-0.1-0.5,0.2-0.7c0.2-0.1,0.5-0.1,0.7,0.2l3.3,5.7
	c0.1,0.2,0.1,0.5-0.2,0.7C28.1,66,28,66,27.9,66L27.9,66z"/>
<path class="st0" d="M37.8,45.5c-0.2,0-0.3-0.1-0.4-0.2l-2.6-4.5c-0.1-0.2-0.1-0.5,0.2-0.7c0.2-0.1,0.5-0.1,0.7,0.2l2.6,4.5
	c0.1,0.2,0.1,0.5-0.2,0.7C38,45.5,37.9,45.5,37.8,45.5L37.8,45.5z"/>
<path class="st0" d="M51.3,31.2c-0.2,0-0.3-0.1-0.4-0.2l-3-5.2c-0.1-0.2-0.1-0.5,0.2-0.7c0.2-0.1,0.5-0.1,0.7,0.2l3,5.2
	c0.1,0.2,0.1,0.5-0.2,0.7C51.5,31.1,51.4,31.2,51.3,31.2L51.3,31.2z"/>
<path class="st0" d="M69,23.9c-0.2,0-0.3-0.1-0.4-0.2l-4.9-8.5c-0.1-0.2-0.1-0.5,0.2-0.7c0.2-0.1,0.5-0.1,0.7,0.2l4.9,8.5
	c0.1,0.2,0.1,0.5-0.2,0.7C69.2,23.9,69.1,23.9,69,23.9L69,23.9z"/>
<path class="st0" d="M93.9,29.3c-0.2,0-0.3-0.1-0.4-0.2l-8.5-14.8c-0.1-0.2-0.1-0.5,0.2-0.7c0.2-0.1,0.5-0.1,0.7,0.2l8.5,14.8
	c0.1,0.2,0.1,0.5-0.2,0.7C94,29.3,94,29.3,93.9,29.3L93.9,29.3z"/>
<path class="st0" d="M143.1,118.6c-0.2,0-0.3-0.1-0.4-0.2c-0.1-0.2-0.1-0.5,0.2-0.7l32.7-18.9c0.2-0.1,0.5-0.1,0.7,0.2
	c0.1,0.2,0.1,0.5-0.2,0.7l-32.7,18.9C143.2,118.6,143.1,118.6,143.1,118.6L143.1,118.6z"/>
<path class="st0" d="M130.9,103.9c-0.2,0-0.3-0.1-0.4-0.2c-0.1-0.2-0.1-0.5,0.2-0.7l43.1-24.9c0.2-0.1,0.5-0.1,0.7,0.2
	c0.1,0.2,0.1,0.5-0.2,0.7l-43.1,24.9C131.1,103.8,131,103.9,130.9,103.9L130.9,103.9z"/>
<path class="st0" d="M132.6,81.1c-0.2,0-0.3-0.1-0.4-0.2c-0.1-0.2-0.1-0.5,0.2-0.7l26.5-15.3c0.2-0.1,0.5-0.1,0.7,0.2
	c0.1,0.2,0.1,0.5-0.2,0.7L132.9,81C132.8,81.1,132.7,81.1,132.6,81.1L132.6,81.1z"/>
<path class="st0" d="M104.7,75.4c-0.2,0-0.3-0.1-0.4-0.2c-0.1-0.2-0.1-0.5,0.2-0.7l39.9-23c0.2-0.1,0.5-0.1,0.7,0.2
	c0.1,0.2,0.1,0.5-0.2,0.7l-39.9,23C104.9,75.4,104.8,75.4,104.7,75.4L104.7,75.4z"/>
<path class="st0" d="M80.8,89.2c-0.2,0-0.3-0.1-0.4-0.2c-0.1-0.2-0.1-0.5,0.2-0.7l22.3-12.8c0.2-0.1,0.5-0.1,0.7,0.2
	c0.1,0.2,0.1,0.5-0.2,0.7L81,89.1C80.9,89.2,80.8,89.2,80.8,89.2L80.8,89.2z"/>
<path class="st0" d="M94.3,59.6c-0.2,0-0.3-0.1-0.4-0.2c-0.1-0.2-0.1-0.5,0.2-0.7l8.5-4.9c0.2-0.1,0.5-0.1,0.7,0.2
	c0.1,0.2,0.1,0.5-0.2,0.7l-8.5,4.9C94.5,59.6,94.4,59.6,94.3,59.6L94.3,59.6z"/>
<path class="st0" d="M169.2,185.9c-0.1,0-0.2,0-0.2-0.1l-9.4-5.4c-0.2-0.1-0.3-0.4-0.2-0.7c0.1-0.2,0.4-0.3,0.7-0.2l9.4,5.4
	c0.2,0.1,0.3,0.4,0.2,0.7C169.5,185.8,169.3,185.9,169.2,185.9L169.2,185.9z"/>
<path class="st0" d="M165.9,173.1c-0.1,0-0.2,0-0.2-0.1l-12.6-7.3c-0.2-0.1-0.3-0.4-0.2-0.7c0.1-0.2,0.4-0.3,0.7-0.2l12.6,7.3
	c0.2,0.1,0.3,0.4,0.2,0.7C166.2,173,166,173.1,165.9,173.1L165.9,173.1z"/>
<path class="st0" d="M166,162.3c-0.1,0-0.2,0-0.2-0.1l-13.1-7.6c-0.2-0.1-0.3-0.4-0.2-0.7c0.1-0.2,0.4-0.3,0.7-0.2l13.1,7.6
	c0.2,0.1,0.3,0.4,0.2,0.7C166.4,162.2,166.2,162.3,166,162.3L166,162.3z"/>
<path class="st0" d="M167.7,152.3c-0.1,0-0.2,0-0.2-0.1l-13.3-7.7c-0.2-0.1-0.3-0.4-0.2-0.7c0.1-0.2,0.4-0.3,0.7-0.2l13.3,7.7
	c0.2,0.1,0.3,0.4,0.2,0.7C168,152.2,167.9,152.3,167.7,152.3L167.7,152.3z"/>
<path class="st0" d="M170.5,143.1c-0.1,0-0.2,0-0.2-0.1l-13.5-7.8c-0.2-0.1-0.3-0.4-0.2-0.7c0.1-0.2,0.4-0.3,0.7-0.2l13.5,7.8
	c0.2,0.1,0.3,0.4,0.2,0.7C170.8,143,170.7,143.1,170.5,143.1L170.5,143.1z"/>
<path class="st0" d="M174.2,134.3c-0.1,0-0.2,0-0.2-0.1l-13.4-7.8c-0.2-0.1-0.3-0.4-0.2-0.7c0.1-0.2,0.4-0.3,0.7-0.2l13.4,7.8
	c0.2,0.1,0.3,0.4,0.2,0.7C174.5,134.2,174.3,134.3,174.2,134.3L174.2,134.3z"/>
<path class="st0" d="M178.6,126c-0.1,0-0.2,0-0.2-0.1l-13.5-7.8c-0.2-0.1-0.3-0.4-0.2-0.7c0.1-0.2,0.4-0.3,0.7-0.2l13.5,7.8
	c0.2,0.1,0.3,0.4,0.2,0.7C179,125.9,178.8,126,178.6,126L178.6,126z"/>
<path class="st0" d="M183.8,118.1c-0.1,0-0.2,0-0.2-0.1l-13.5-7.8c-0.2-0.1-0.3-0.4-0.2-0.7c0.1-0.2,0.4-0.3,0.7-0.2l13.5,7.8
	c0.2,0.1,0.3,0.4,0.2,0.7C184.2,118,184,118.1,183.8,118.1L183.8,118.1z"/>
<path class="st0" d="M189.8,110.6c-0.1,0-0.2,0-0.2-0.1l-13.4-7.7c-0.2-0.1-0.3-0.4-0.2-0.7c0.1-0.2,0.4-0.3,0.7-0.2l13.4,7.7
	c0.2,0.1,0.3,0.4,0.2,0.7C190.1,110.5,190,110.6,189.8,110.6L189.8,110.6z"/>
<path class="st0" d="M196.7,103.7c-0.1,0-0.2,0-0.2-0.1L183.2,96c-0.2-0.1-0.3-0.4-0.2-0.7c0.1-0.2,0.4-0.3,0.7-0.2l13.3,7.7
	c0.2,0.1,0.3,0.4,0.2,0.7C197,103.6,196.9,103.7,196.7,103.7L196.7,103.7z"/>
<path class="st0" d="M204.8,97.5c-0.1,0-0.2,0-0.2-0.1l-13-7.5c-0.2-0.1-0.3-0.4-0.2-0.7c0.1-0.2,0.4-0.3,0.7-0.2l13,7.5
	c0.2,0.1,0.3,0.4,0.2,0.7C205.1,97.4,205,97.5,204.8,97.5L204.8,97.5z"/>
<path class="st0" d="M214.8,92.3c-0.1,0-0.2,0-0.2-0.1l-12.4-7.1c-0.2-0.1-0.3-0.4-0.2-0.7c0.1-0.2,0.4-0.3,0.7-0.2l12.4,7.1
	c0.2,0.1,0.3,0.4,0.2,0.7C215.1,92.3,214.9,92.3,214.8,92.3L214.8,92.3z"/>
<path class="st0" d="M184.4,195.7c-0.2,0-0.3-0.1-0.4-0.2l-16.3-28.1c-0.1-0.2-0.1-0.5,0.2-0.7c0.2-0.1,0.5-0.1,0.7,0.2l16.3,28.1
	c0.1,0.2,0.1,0.5-0.2,0.7C184.6,195.7,184.5,195.7,184.4,195.7L184.4,195.7z"/>
<path class="st0" d="M205,193.7c-0.2,0-0.3-0.1-0.4-0.2L173,138.7c-0.1-0.2-0.1-0.5,0.2-0.7c0.2-0.1,0.5-0.1,0.7,0.2l31.6,54.7
	c0.1,0.2,0.1,0.5-0.2,0.7C205.2,193.7,205.1,193.7,205,193.7L205,193.7z"/>
<path class="st0" d="M220.6,183c-0.2,0-0.3-0.1-0.4-0.2L183.4,119c-0.1-0.2-0.1-0.5,0.2-0.7c0.2-0.1,0.5-0.1,0.7,0.2l36.8,63.7
	c0.1,0.2,0.1,0.5-0.2,0.7C220.8,183,220.7,183,220.6,183L220.6,183z"/>
<path class="st0" d="M233.5,167.5c-0.2,0-0.3-0.1-0.4-0.2L196.6,104c-0.1-0.2-0.1-0.5,0.2-0.7c0.2-0.1,0.5-0.1,0.7,0.2l36.5,63.2
	c0.1,0.2,0.1,0.5-0.2,0.7C233.7,167.5,233.6,167.5,233.5,167.5L233.5,167.5z"/>
<path class="st0" d="M243.5,147.1c-0.2,0-0.3-0.1-0.4-0.2l-30.5-52.9c-0.1-0.2-0.1-0.5,0.2-0.7c0.2-0.1,0.5-0.1,0.7,0.2l30.5,52.9
	c0.1,0.2,0.1,0.5-0.2,0.7C243.7,147,243.6,147.1,243.5,147.1L243.5,147.1z"/>
<path class="st0" d="M247.4,116c-0.2,0-0.3-0.1-0.4-0.2l-12.4-21.5c-0.1-0.2-0.1-0.5,0.2-0.7c0.2-0.1,0.5-0.1,0.7,0.2l12.4,21.5
	c0.1,0.2,0.1,0.5-0.2,0.7C247.5,116,247.5,116,247.4,116L247.4,116z"/>
<path class="st0" d="M74.5,152.9c-0.2,0-0.3-0.1-0.4-0.2c-0.1-0.2-0.1-0.5,0.2-0.7l3.9-2.3c0.2-0.1,0.5-0.1,0.7,0.2
	c0.1,0.2,0.1,0.5-0.2,0.7l-3.9,2.3C74.6,152.9,74.5,152.9,74.5,152.9L74.5,152.9z"/>
<path class="st0" d="M66.2,135.3c-0.2,0-0.3-0.1-0.4-0.2c-0.1-0.2-0.1-0.5,0.2-0.7l4.3-2.5c0.2-0.1,0.5-0.1,0.7,0.2
	c0.1,0.2,0.1,0.5-0.2,0.7l-4.3,2.5C66.3,135.3,66.3,135.3,66.2,135.3L66.2,135.3z"/>
<path class="st0" d="M56.1,121.2c-0.2,0-0.3-0.1-0.4-0.2c-0.1-0.2-0.1-0.5,0.2-0.7l7.2-4.2c0.2-0.1,0.5-0.1,0.7,0.2
	c0.1,0.2,0.1,0.5-0.2,0.7l-7.2,4.2C56.3,121.2,56.2,121.2,56.1,121.2L56.1,121.2z"/>
</svg>
