<?xml version="1.0" encoding="utf-8"?>
<!-- Generator: Adobe Illustrator 24.1.2, SVG Export Plug-In . SVG Version: 6.00 Build 0)  -->
<svg version="1.1" id="Camada_1" xmlns="http://www.w3.org/2000/svg" xmlns:xlink="http://www.w3.org/1999/xlink" x="0px" y="0px"
	 viewBox="0 0 169.1 197" style="enable-background:new 0 0 169.1 197;" xml:space="preserve">
<style type="text/css">
	.st0{fill:#007AC0;}
</style>
<path class="st0" d="M166.1,170.5c-0.1,0-0.2,0-0.2,0l-62.1-10.9c-0.7-0.1-1.2-0.7-1.2-1.4V12c0-0.4,0.2-0.8,0.5-1.1
	c0.3-0.3,0.7-0.4,1.1-0.3l62.1,11c0.7,0.1,1.1,0.7,1.1,1.4v146.1c0,0.4-0.2,0.8-0.5,1.1C166.7,170.4,166.4,170.5,166.1,170.5
	L166.1,170.5z M105.4,157l59.3,10.5V24.2l-59.3-10.5V157L105.4,157z"/>
<path class="st0" d="M70,197c-0.2,0-0.3,0-0.5-0.1c-0.5-0.2-0.9-0.7-0.9-1.3V49.5c0-0.3,0.1-0.7,0.4-0.9l34-37.5
	c0.4-0.4,1-0.6,1.5-0.4c0.5,0.2,0.9,0.7,0.9,1.3v146.1c0,0.3-0.1,0.7-0.4,0.9l-34,37.4C70.7,196.9,70.4,197,70,197L70,197z M71.4,50
	v142l31.2-34.4v-142L71.4,50L71.4,50z"/>
<path class="st0" d="M70,197H1.4c-0.8,0-1.4-0.6-1.4-1.4V49.5c0-0.8,0.6-1.4,1.4-1.4H70c0.8,0,1.4,0.6,1.4,1.4v146.1
	C71.4,196.4,70.8,197,70,197L70,197z M2.8,194.2h65.8V50.9H2.8V194.2L2.8,194.2z"/>
<path class="st0" d="M166.1,170.5c0,0-0.1,0-0.1,0c-0.7-0.1-1.3-0.7-1.3-1.4V23c0-0.1,0-0.2,0-0.2l1.7-9.5c0.1-0.7,0.8-1.2,1.5-1.1
	c0.7,0.1,1.3,0.7,1.3,1.4v146.1c0,0.1,0,0.2,0,0.2l-1.7,9.5C167.3,170,166.7,170.5,166.1,170.5L166.1,170.5z"/>
<path class="st0" d="M70,50.9H1.4c-0.8,0-1.4-0.6-1.4-1.4v-9.6c0-0.8,0.6-1.4,1.4-1.4h62.4l34.2-38c0.3-0.4,0.8-0.5,1.3-0.4
	L168,12.2c0.8,0.1,1.3,0.9,1.1,1.6l-1.7,9.5c-0.1,0.4-0.3,0.7-0.6,0.9c-0.3,0.2-0.7,0.3-1,0.2l-61.3-10.8L71,50.4
	C70.8,50.7,70.4,50.9,70,50.9L70,50.9z M2.8,48.1h66.6l33.6-37c0.3-0.4,0.8-0.5,1.3-0.4l60.7,10.7l1.2-6.7L99.5,2.9L65.4,40.8
	c-0.3,0.3-0.6,0.5-1,0.5H2.8V48.1L2.8,48.1z"/>
<path class="st0" d="M142,166.3c-0.1,0-0.2,0-0.2,0l-10.8-1.9c-0.7-0.1-1.1-0.7-1.1-1.4v-27.1l-26.1-4.6c-0.7-0.1-1.2-0.7-1.2-1.4
	v-11.5c0-0.4,0.2-0.8,0.5-1.1c0.3-0.3,0.7-0.4,1.1-0.3l25.6,4.5V75.1l-26.1-4.6c-0.7-0.1-1.2-0.7-1.2-1.4V57.7
	c0-0.4,0.2-0.8,0.5-1.1c0.3-0.3,0.7-0.4,1.1-0.3l25.6,4.5v-44c0-0.4,0.2-0.8,0.5-1.1c0.3-0.3,0.7-0.4,1.1-0.3l10.8,1.9
	c0.7,0.1,1.1,0.7,1.1,1.4v44.4l22.9,4c0.7,0.1,1.2,0.7,1.2,1.4v11.5c0,0.4-0.2,0.8-0.5,1.1c-0.3,0.3-0.7,0.4-1.1,0.3l-22.4-4v46.6
	l22.9,4c0.7,0.1,1.2,0.7,1.2,1.4v11.5c0,0.4-0.2,0.8-0.5,1.1c-0.3,0.3-0.7,0.4-1.1,0.3l-22.4-4v26.6c0,0.4-0.2,0.8-0.5,1.1
	C142.7,166.2,142.4,166.3,142,166.3L142,166.3z M132.6,161.8l8,1.4v-26.6c0-0.4,0.2-0.8,0.5-1.1c0.3-0.3,0.7-0.4,1.1-0.3l22.4,4
	v-8.6l-22.9-4c-0.7-0.1-1.1-0.7-1.1-1.4V75.8c0-0.4,0.2-0.8,0.5-1.1c0.3-0.3,0.7-0.4,1.1-0.3l22.4,4v-8.6l-22.9-4
	c-0.7-0.1-1.1-0.7-1.1-1.4V19.9l-8-1.4v44c0,0.4-0.2,0.8-0.5,1.1c-0.3,0.3-0.7,0.4-1.1,0.3l-25.6-4.5V68l26.1,4.6
	c0.7,0.1,1.1,0.7,1.1,1.4v49.4c0,0.4-0.2,0.8-0.5,1.1c-0.3,0.3-0.7,0.4-1.1,0.3l-25.6-4.5v8.6l26.1,4.6c0.7,0.1,1.1,0.7,1.1,1.4
	V161.8L132.6,161.8z"/>
<path class="st0" d="M70,168.8H1.4c-0.8,0-1.4-0.6-1.4-1.4V156c0-0.8,0.6-1.4,1.4-1.4H70c0.8,0,1.4,0.6,1.4,1.4v11.5
	C71.4,168.2,70.8,168.8,70,168.8L70,168.8z M2.8,166h65.8v-8.7H2.8V166L2.8,166z"/>
<path class="st0" d="M70,108c-0.2,0-0.3,0-0.5-0.1c-0.5-0.2-0.9-0.7-0.9-1.3V95.1c0-0.3,0.1-0.7,0.4-0.9l16.7-18.3V30.8
	c0-0.3,0.1-0.7,0.4-0.9l7.7-8.6c0.4-0.4,1-0.6,1.5-0.4c0.5,0.2,0.9,0.7,0.9,1.3v42l6.8-7.5c0.4-0.4,1-0.6,1.5-0.4
	c0.5,0.2,0.9,0.7,0.9,1.3v11.5c0,0.3-0.1,0.7-0.4,0.9l-34,37.5C70.7,107.8,70.4,108,70,108L70,108z M71.4,95.7v7.3l31.2-34.4v-7.3
	l-6.8,7.5c-0.4,0.4-1,0.6-1.5,0.4c-0.5-0.2-0.9-0.7-0.9-1.3v-42l-5,5.5v45.1c0,0.3-0.1,0.7-0.4,0.9L71.4,95.7L71.4,95.7z"/>
<path class="st0" d="M70,143.6H31c-0.8,0-1.4-0.6-1.4-1.4V108H1.4c-0.8,0-1.4-0.6-1.4-1.4V95.1c0-0.8,0.6-1.4,1.4-1.4h28.3V49.5
	c0-0.8,0.6-1.4,1.4-1.4h6.8c0.8,0,1.4,0.6,1.4,1.4v44.2H70c0.8,0,1.4,0.6,1.4,1.4v11.5c0,0.8-0.6,1.4-1.4,1.4H39.3v23H70
	c0.8,0,1.4,0.6,1.4,1.4v9.8C71.4,142.9,70.8,143.6,70,143.6L70,143.6z M32.4,140.8h36.2v-7H37.9c-0.8,0-1.4-0.6-1.4-1.4v-25.8
	c0-0.8,0.6-1.4,1.4-1.4h30.7v-8.7H37.9c-0.8,0-1.4-0.6-1.4-1.4V50.9h-4v44.2c0,0.8-0.6,1.4-1.4,1.4H2.8v8.7H31
	c0.8,0,1.4,0.6,1.4,1.4V140.8L32.4,140.8z"/>
<path class="st0" d="M87,178.3c-0.2,0-0.3,0-0.5-0.1c-0.5-0.2-0.9-0.7-0.9-1.3v-24.6L71,168.3c-0.4,0.4-1,0.6-1.5,0.4
	c-0.5-0.2-0.9-0.7-0.9-1.3V156c0-0.3,0.1-0.7,0.4-0.9l16.7-18.3V127L71,143.1c-0.4,0.4-1,0.6-1.5,0.4c-0.5-0.2-0.9-0.7-0.9-1.3v-9.8
	c0-0.3,0.1-0.7,0.4-0.9l21.1-23.3c0.5-0.6,1.4-0.6,2-0.1c0.6,0.5,0.6,1.4,0.1,2l-20.8,22.9v5.7L86,122.5c0.4-0.4,1-0.6,1.5-0.4
	c0.5,0.2,0.9,0.7,0.9,1.3v13.8c0,0.3-0.1,0.7-0.4,0.9l-16.7,18.3v7.3L86,147.8c0.4-0.4,1-0.6,1.5-0.4c0.5,0.2,0.9,0.7,0.9,1.3v24.6
	l1.3-1.5v-27.7c0-0.3,0.1-0.7,0.4-0.9l12.5-13.8v-7.3l-10.4,11.5c-0.5,0.6-1.4,0.6-2,0.1c-0.6-0.5-0.6-1.4-0.1-2l12.9-14.2
	c0.4-0.4,1-0.6,1.5-0.4c0.5,0.2,0.9,0.7,0.9,1.3V130c0,0.3-0.1,0.7-0.4,0.9l-12.5,13.8v27.7c0,0.3-0.1,0.7-0.4,0.9l-4.1,4.6
	C87.8,178.1,87.4,178.3,87,178.3L87,178.3z"/>
<path class="st0" d="M131.2,63.9c-0.1,0-0.2,0-0.2,0L103.8,59c-0.7-0.1-1.2-0.7-1.2-1.4V12c0-0.4,0.2-0.8,0.5-1.1
	c0.3-0.3,0.7-0.4,1.1-0.3l27.2,4.8c0.7,0.1,1.1,0.7,1.1,1.4v45.6c0,0.4-0.2,0.8-0.5,1.1C131.9,63.8,131.6,63.9,131.2,63.9
	L131.2,63.9z M105.4,56.5l24.4,4.3V18l-24.4-4.3V56.5L105.4,56.5z"/>
<path class="st0" d="M131.2,124.7c-0.1,0-0.2,0-0.2,0l-27.2-4.8c-0.7-0.1-1.2-0.7-1.2-1.4V69.1c0-0.4,0.2-0.8,0.5-1.1
	c0.3-0.3,0.7-0.4,1.1-0.3l27.2,4.8c0.7,0.1,1.1,0.7,1.1,1.4v49.4c0,0.4-0.2,0.8-0.5,1.1C131.9,124.6,131.6,124.7,131.2,124.7
	L131.2,124.7z M105.4,117.3l24.4,4.3V75.1l-24.4-4.3V117.3L105.4,117.3z"/>
<path class="st0" d="M70,133.8H37.9c-0.8,0-1.4-0.6-1.4-1.4v-25.8c0-0.8,0.6-1.4,1.4-1.4H70c0.8,0,1.4,0.6,1.4,1.4v25.8
	C71.4,133.1,70.8,133.8,70,133.8L70,133.8z M39.3,131h29.3v-23H39.3V131L39.3,131z"/>
<path class="st0" d="M94.8,69.2c-0.2,0-0.3,0-0.5-0.1c-0.5-0.2-0.9-0.7-0.9-1.3V22.2c0-0.3,0.1-0.7,0.4-0.9l9.2-10.2
	c0.4-0.4,1-0.6,1.5-0.4c0.5,0.2,0.9,0.7,0.9,1.3v45.6c0,0.3-0.1,0.7-0.4,0.9l-9.2,10.2C95.5,69.1,95.1,69.2,94.8,69.2L94.8,69.2z
	 M96.1,22.8v41.5l6.5-7.1V15.6L96.1,22.8L96.1,22.8z"/>
<path class="st0" d="M91.1,134c-0.2,0-0.3,0-0.5-0.1c-0.5-0.2-0.9-0.7-0.9-1.3v-20L71,133.3c-0.4,0.4-1,0.6-1.5,0.4
	c-0.5-0.2-0.9-0.7-0.9-1.3v-25.8c0-0.3,0.1-0.7,0.4-0.9l21.1-23.3c0,0,0,0,0,0L103,68.2c0.4-0.4,1-0.6,1.5-0.4
	c0.5,0.2,0.9,0.7,0.9,1.3v49.4c0,0.3-0.1,0.7-0.4,0.9l-12.9,14.2C91.9,133.9,91.5,134,91.1,134L91.1,134z M91.1,107.7
	c0.2,0,0.3,0,0.5,0.1c0.5,0.2,0.9,0.7,0.9,1.3v20l10.1-11.1V72.7L92.2,84.2l-20.8,22.9v21.6l18.7-20.6
	C90.4,107.8,90.7,107.7,91.1,107.7L91.1,107.7z"/>
<path class="st0" d="M70,197H1.4c-0.8,0-1.4-0.6-1.4-1.4v-28.2c0-0.8,0.6-1.4,1.4-1.4H70c0.8,0,1.4,0.6,1.4,1.4v28.2
	C71.4,196.4,70.8,197,70,197L70,197z M2.8,194.2h65.8v-25.4H2.8V194.2L2.8,194.2z"/>
<path class="st0" d="M31,96.5H1.4c-0.8,0-1.4-0.6-1.4-1.4V49.5c0-0.8,0.6-1.4,1.4-1.4H31c0.8,0,1.4,0.6,1.4,1.4v45.6
	C32.4,95.9,31.8,96.5,31,96.5L31,96.5z M2.8,93.7h26.9V50.9H2.8V93.7L2.8,93.7z"/>
<path class="st0" d="M70,197c-0.2,0-0.3,0-0.5-0.1c-0.5-0.2-0.9-0.7-0.9-1.3v-28.2c0-0.3,0.1-0.7,0.4-0.9l17-18.7
	c0.4-0.4,1-0.6,1.5-0.4c0.5,0.2,0.9,0.7,0.9,1.3v28.2c0,0.3-0.1,0.7-0.4,0.9l-17,18.7C70.7,196.9,70.4,197,70,197L70,197z
	 M71.4,167.9V192l14.2-15.7v-24.1L71.4,167.9L71.4,167.9z"/>
<path class="st0" d="M166.1,170.5c-0.1,0-0.2,0-0.2,0l-24-4.2c-0.7-0.1-1.1-0.7-1.1-1.4v-28.2c0-0.4,0.2-0.8,0.5-1.1
	c0.3-0.3,0.7-0.4,1.1-0.3l24,4.3c0.7,0.1,1.1,0.7,1.1,1.4v28.2c0,0.4-0.2,0.8-0.5,1.1C166.7,170.4,166.4,170.5,166.1,170.5
	L166.1,170.5z M143.4,163.7l21.2,3.7v-25.4l-21.2-3.8V163.7L143.4,163.7z"/>
<path class="st0" d="M14.9,48.7c-0.1,0-0.1,0-0.2-0.1L2.2,41.5C2,41.4,2,41.1,2.1,40.9c0.1-0.2,0.4-0.3,0.5-0.1L15.1,48
	c0.2,0.1,0.3,0.4,0.1,0.5C15.2,48.7,15.1,48.7,14.9,48.7L14.9,48.7z"/>
<path class="st0" d="M45.5,48.7c-0.1,0-0.1,0-0.2-0.1l-12.7-7.3c-0.2-0.1-0.3-0.3-0.1-0.5c0.1-0.2,0.3-0.3,0.5-0.1L45.7,48
	c0.2,0.1,0.3,0.4,0.1,0.5C45.8,48.7,45.6,48.7,45.5,48.7L45.5,48.7z"/>
<path class="st0" d="M71.8,46.3c-0.1,0-0.1,0-0.2-0.1l-8.3-4.8c-0.2-0.1-0.3-0.4-0.1-0.5c0.1-0.2,0.3-0.3,0.5-0.1l8.3,4.8
	c0.2,0.1,0.3,0.3,0.1,0.5C72.1,46.2,72,46.3,71.8,46.3L71.8,46.3z"/>
<path class="st0" d="M82.3,34.7c-0.1,0-0.1,0-0.2-0.1l-7.6-4.3c-0.2-0.1-0.3-0.3-0.1-0.5c0.1-0.2,0.3-0.3,0.5-0.1l7.6,4.3
	c0.2,0.1,0.3,0.3,0.1,0.5C82.6,34.6,82.5,34.7,82.3,34.7L82.3,34.7z"/>
<path class="st0" d="M92.8,23.1c-0.1,0-0.1,0-0.2-0.1L85,18.7c-0.2-0.1-0.3-0.3-0.1-0.5c0.1-0.2,0.3-0.3,0.5-0.1l7.6,4.4
	c0.2,0.1,0.3,0.3,0.1,0.5C93.1,23.1,93,23.1,92.8,23.1L92.8,23.1z"/>
<path class="st0" d="M103.4,11.6c-0.1,0-0.1,0-0.2-0.1l-7.7-4.4c-0.2-0.1-0.3-0.3-0.1-0.5c0.1-0.2,0.3-0.3,0.5-0.1l7.7,4.4
	c0.2,0.1,0.3,0.3,0.1,0.5C103.6,11.5,103.5,11.6,103.4,11.6L103.4,11.6z"/>
<path class="st0" d="M146.4,18.8c-0.1,0-0.1,0-0.2-0.1L127.6,8c-0.2-0.1-0.3-0.3-0.1-0.5c0.1-0.2,0.3-0.3,0.5-0.1L146.6,18
	c0.2,0.1,0.3,0.3,0.1,0.5C146.6,18.7,146.5,18.8,146.4,18.8L146.4,18.8z"/>
<path class="st0" d="M53.7,194.9c-0.1,0-0.3-0.1-0.3-0.2c-0.1-0.2,0-0.4,0.1-0.5l15.4-8.9c0.2-0.1,0.4,0,0.5,0.1
	c0.1,0.2,0,0.4-0.1,0.5l-15.4,8.9C53.8,194.9,53.7,194.9,53.7,194.9L53.7,194.9z"/>
<path class="st0" d="M37.9,195.2c-0.1,0-0.3-0.1-0.3-0.2c-0.1-0.2,0-0.4,0.1-0.5l31.8-18.4c0.2-0.1,0.4,0,0.5,0.1
	c0.1,0.2,0,0.4-0.1,0.5l-31.8,18.4C38,195.2,37.9,195.2,37.9,195.2L37.9,195.2z"/>
<path class="st0" d="M22.1,195.5c-0.1,0-0.3-0.1-0.3-0.2c-0.1-0.2,0-0.4,0.1-0.5L69,167.6c0.2-0.1,0.4,0,0.5,0.1
	c0.1,0.2,0,0.4-0.1,0.5l-47.2,27.2C22.2,195.5,22.1,195.5,22.1,195.5L22.1,195.5z"/>
<path class="st0" d="M6.8,195.5c-0.1,0-0.3-0.1-0.3-0.2c-0.1-0.2,0-0.4,0.1-0.5l47.1-27.2c0.2-0.1,0.4,0,0.5,0.1
	c0.1,0.2,0,0.4-0.1,0.5L7,195.5C6.9,195.5,6.9,195.5,6.8,195.5L6.8,195.5z"/>
<path class="st0" d="M1.6,189.7c-0.1,0-0.3-0.1-0.3-0.2c-0.1-0.2,0-0.4,0.1-0.5l36.7-21.2c0.2-0.1,0.4,0,0.5,0.1
	c0.1,0.2,0,0.4-0.1,0.5L1.8,189.6C1.8,189.7,1.7,189.7,1.6,189.7L1.6,189.7z"/>
<path class="st0" d="M2.2,180.5c-0.1,0-0.3-0.1-0.3-0.2c-0.1-0.2,0-0.4,0.1-0.5l20.3-11.7c0.2-0.1,0.4,0,0.5,0.1
	c0.1,0.2,0,0.4-0.1,0.5L2.4,180.5C2.3,180.5,2.3,180.5,2.2,180.5L2.2,180.5z"/>
<path class="st0" d="M2.7,171.4c-0.1,0-0.3-0.1-0.3-0.2c-0.1-0.2,0-0.4,0.1-0.5l4-2.3c0.2-0.1,0.4,0,0.5,0.1c0.1,0.2,0,0.4-0.1,0.5
	l-4,2.3C2.8,171.4,2.8,171.4,2.7,171.4L2.7,171.4z"/>
<path class="st0" d="M14.3,94.4c-0.1,0-0.3-0.1-0.3-0.2c-0.1-0.2,0-0.4,0.1-0.5L30,84.5c0.2-0.1,0.4,0,0.5,0.1
	c0.1,0.2,0,0.4-0.1,0.5l-15.9,9.2C14.5,94.4,14.4,94.4,14.3,94.4L14.3,94.4z"/>
<path class="st0" d="M1.9,92.8c-0.1,0-0.3-0.1-0.3-0.2c-0.1-0.2,0-0.4,0.1-0.5l28.7-16.6c0.2-0.1,0.4,0,0.5,0.1
	c0.1,0.2,0,0.4-0.1,0.5L2.1,92.7C2,92.8,2,92.8,1.9,92.8L1.9,92.8z"/>
<path class="st0" d="M1.9,84c-0.1,0-0.3-0.1-0.3-0.2c-0.1-0.2,0-0.4,0.1-0.5l28.7-16.6c0.2-0.1,0.4,0,0.5,0.1c0.1,0.2,0,0.4-0.1,0.5
	L2.1,83.9C2,84,2,84,1.9,84L1.9,84z"/>
<path class="st0" d="M1.9,75.1c-0.1,0-0.3-0.1-0.3-0.2c-0.1-0.2,0-0.4,0.1-0.5l28.7-16.6c0.2-0.1,0.4,0,0.5,0.1
	c0.1,0.2,0,0.4-0.1,0.5L2.1,75.1C2,75.1,2,75.1,1.9,75.1L1.9,75.1z"/>
<path class="st0" d="M1.9,66.3c-0.1,0-0.3-0.1-0.3-0.2c-0.1-0.2,0-0.4,0.1-0.5L28.6,50c0.2-0.1,0.4,0,0.5,0.1c0.1,0.2,0,0.4-0.1,0.5
	L2.1,66.2C2.1,66.3,2,66.3,1.9,66.3L1.9,66.3z"/>
<path class="st0" d="M2.5,57.1c-0.1,0-0.3-0.1-0.3-0.2c-0.1-0.2,0-0.4,0.1-0.5l10.4-6.1c0.2-0.1,0.4,0,0.5,0.1
	c0.1,0.2,0,0.4-0.1,0.5L2.7,57.1C2.6,57.1,2.6,57.1,2.5,57.1L2.5,57.1z"/>
<path class="st0" d="M152.9,166.1c-0.1,0-0.3-0.1-0.3-0.2c-0.1-0.2,0-0.4,0.1-0.5l12.3-7.1c0.2-0.1,0.4,0,0.5,0.1
	c0.1,0.2,0,0.4-0.1,0.5l-12.3,7.1C153,166.1,152.9,166.1,152.9,166.1L152.9,166.1z"/>
<path class="st0" d="M142.8,163.1c-0.1,0-0.3-0.1-0.3-0.2c-0.1-0.2,0-0.4,0.1-0.5l22.7-13.1c0.2-0.1,0.4,0,0.5,0.1
	c0.1,0.2,0,0.4-0.1,0.5L143,163.1C142.9,163.1,142.8,163.1,142.8,163.1L142.8,163.1z"/>
<path class="st0" d="M142.8,154.3c-0.1,0-0.3-0.1-0.3-0.2c-0.1-0.2,0-0.4,0.1-0.5l21.4-12.4c0.2-0.1,0.4,0,0.5,0.1
	c0.1,0.2,0,0.4-0.1,0.5L143,154.2C142.9,154.2,142.9,154.3,142.8,154.3L142.8,154.3z"/>
<path class="st0" d="M143.2,145.2c-0.1,0-0.3-0.1-0.3-0.2c-0.1-0.2,0-0.4,0.1-0.5l9-5.2c0.2-0.1,0.4,0,0.5,0.1
	c0.1,0.2,0,0.4-0.1,0.5l-9,5.2C143.3,145.2,143.3,145.2,143.2,145.2L143.2,145.2z"/>
<path class="st0" d="M92.2,167.4c-0.1,0-0.1,0-0.2-0.1c-0.2-0.1-0.3-0.3-0.1-0.5l10.8-18.7c0.1-0.2,0.3-0.3,0.5-0.1
	c0.2,0.1,0.3,0.3,0.1,0.5l-10.8,18.7C92.5,167.4,92.4,167.4,92.2,167.4L92.2,167.4z"/>
<path class="st0" d="M55.9,131.6c-0.1,0-0.3-0.1-0.3-0.2c-0.1-0.2,0-0.4,0.1-0.5l13.1-7.6c0.2-0.1,0.4,0,0.5,0.1
	c0.1,0.2,0,0.4-0.1,0.5l-13.1,7.6C56,131.6,56,131.6,55.9,131.6L55.9,131.6z"/>
<path class="st0" d="M40.1,131.9c-0.1,0-0.3-0.1-0.3-0.2c-0.1-0.2,0-0.4,0.1-0.5l29.5-17c0.2-0.1,0.4,0,0.5,0.1
	c0.1,0.2,0,0.4-0.1,0.5l-29.5,17C40.3,131.9,40.2,131.9,40.1,131.9L40.1,131.9z"/>
<path class="st0" d="M38.4,124.1c-0.1,0-0.3-0.1-0.3-0.2c-0.1-0.2,0-0.4,0.1-0.5l28.1-16.3c0.2-0.1,0.4,0,0.5,0.1
	c0.1,0.2,0,0.4-0.1,0.5L38.6,124C38.6,124.1,38.5,124.1,38.4,124.1L38.4,124.1z"/>
<path class="st0" d="M38.9,115c-0.1,0-0.3-0.1-0.3-0.2c-0.1-0.2,0-0.4,0.1-0.5l11.8-6.8c0.2-0.1,0.4,0,0.5,0.1
	c0.1,0.2,0,0.4-0.1,0.5l-11.8,6.8C39.1,114.9,39,115,38.9,115L38.9,115z"/>
<path class="st0" d="M70.9,74.7c-0.1,0-0.1,0-0.2-0.1c-0.2-0.1-0.3-0.4-0.1-0.5l15.2-26.4c0.1-0.2,0.3-0.3,0.5-0.1
	c0.2,0.1,0.3,0.3,0.1,0.5L71.3,74.5C71.2,74.6,71.1,74.7,70.9,74.7L70.9,74.7z"/>
<path class="st0" d="M117.9,59.4c-0.1,0-0.3-0.1-0.3-0.2c-0.1-0.2,0-0.4,0.1-0.5l12.4-7.2c0.2-0.1,0.4,0,0.5,0.1
	c0.1,0.2,0,0.4-0.1,0.5l-12.4,7.2C118,59.4,117.9,59.4,117.9,59.4L117.9,59.4z"/>
<path class="st0" d="M105.8,57.6c-0.1,0-0.3-0.1-0.3-0.2c-0.1-0.2,0-0.4,0.1-0.5l24.9-14.4c0.2-0.1,0.4,0,0.5,0.1
	c0.1,0.2,0,0.4-0.1,0.5L106,57.5C105.9,57.5,105.8,57.6,105.8,57.6L105.8,57.6z"/>
<path class="st0" d="M104.6,49.4c-0.1,0-0.3-0.1-0.3-0.2c-0.1-0.2,0-0.4,0.1-0.5l26.1-15.1c0.2-0.1,0.4,0,0.5,0.1
	c0.1,0.2,0,0.4-0.1,0.5l-26.1,15.1C104.7,49.4,104.6,49.4,104.6,49.4L104.6,49.4z"/>
<path class="st0" d="M104.6,40.6c-0.1,0-0.3-0.1-0.3-0.2c-0.1-0.2,0-0.4,0.1-0.5l26.1-15.1c0.2-0.1,0.4,0,0.5,0.1
	c0.1,0.2,0,0.4-0.1,0.5l-26.1,15.1C104.7,40.6,104.6,40.6,104.6,40.6L104.6,40.6z"/>
<path class="st0" d="M104.6,31.7c-0.1,0-0.3-0.1-0.3-0.2c-0.1-0.2,0-0.4,0.1-0.5l24.4-14.1c0.2-0.1,0.4,0,0.5,0.1
	c0.1,0.2,0,0.4-0.1,0.5l-24.4,14.1C104.8,31.7,104.7,31.7,104.6,31.7L104.6,31.7z"/>
<path class="st0" d="M105.1,22.7c-0.1,0-0.3-0.1-0.3-0.2c-0.1-0.2,0-0.4,0.1-0.5l11.8-6.8c0.2-0.1,0.4,0,0.5,0.1
	c0.1,0.2,0,0.4-0.1,0.5l-11.8,6.8C105.2,22.7,105.1,22.7,105.1,22.7L105.1,22.7z"/>
<path class="st0" d="M96,64.7c-0.1,0-0.1,0-0.2-0.1c-0.2-0.1-0.3-0.3-0.1-0.5l6.9-12c0.1-0.2,0.3-0.3,0.5-0.1
	c0.2,0.1,0.3,0.3,0.1,0.5l-6.9,12C96.2,64.7,96.1,64.7,96,64.7L96,64.7z"/>
<path class="st0" d="M96,49.4c-0.1,0-0.1,0-0.2-0.1c-0.2-0.1-0.3-0.3-0.1-0.5l6.9-12c0.1-0.2,0.3-0.3,0.5-0.1
	c0.2,0.1,0.3,0.4,0.1,0.5l-6.9,12C96.2,49.4,96.1,49.4,96,49.4L96,49.4z"/>
<path class="st0" d="M96,34.2c-0.1,0-0.1,0-0.2-0.1c-0.2-0.1-0.3-0.3-0.1-0.5l6.9-12c0.1-0.2,0.3-0.3,0.5-0.1
	c0.2,0.1,0.3,0.3,0.1,0.5l-6.9,12C96.2,34.1,96.1,34.2,96,34.2L96,34.2z"/>
<path class="st0" d="M71,152.1c-0.1,0-0.1,0-0.2-0.1c-0.2-0.1-0.3-0.4-0.1-0.5l14-24.3c0.1-0.2,0.3-0.3,0.5-0.1
	c0.2,0.1,0.3,0.3,0.1,0.5l-14,24.3C71.2,152.1,71.1,152.1,71,152.1L71,152.1z"/>
<path class="st0" d="M117.9,120.2c-0.1,0-0.3-0.1-0.3-0.2c-0.1-0.2,0-0.4,0.1-0.5l12.3-7.1c0.2-0.1,0.4,0,0.5,0.1
	c0.1,0.2,0,0.4-0.1,0.5l-12.3,7.1C118.1,120.2,118,120.2,117.9,120.2L117.9,120.2z"/>
<path class="st0" d="M105.9,118.4c-0.1,0-0.3-0.1-0.3-0.2c-0.1-0.2,0-0.4,0.1-0.5l24.8-14.3c0.2-0.1,0.4,0,0.5,0.1
	c0.1,0.2,0,0.4-0.1,0.5l-24.8,14.3C106,118.4,105.9,118.4,105.9,118.4L105.9,118.4z"/>
<path class="st0" d="M104.6,110.3c-0.1,0-0.3-0.1-0.3-0.2c-0.1-0.2,0-0.4,0.1-0.5l26.1-15.1c0.2-0.1,0.4,0,0.5,0.1
	c0.1,0.2,0,0.4-0.1,0.5l-26.1,15.1C104.7,110.3,104.6,110.3,104.6,110.3L104.6,110.3z"/>
<path class="st0" d="M104.6,101.5c-0.1,0-0.3-0.1-0.3-0.2c-0.1-0.2,0-0.4,0.1-0.5l26.1-15.1c0.2-0.1,0.4,0,0.5,0.1
	c0.1,0.2,0,0.4-0.1,0.5l-26.1,15.1C104.7,101.5,104.6,101.5,104.6,101.5L104.6,101.5z"/>
<path class="st0" d="M104.6,92.7c-0.1,0-0.3-0.1-0.3-0.2c-0.1-0.2,0-0.4,0.1-0.5l26.1-15.1c0.2-0.1,0.4,0,0.5,0.1
	c0.1,0.2,0,0.4-0.1,0.5l-26.1,15.1C104.7,92.7,104.6,92.7,104.6,92.7L104.6,92.7z"/>
<path class="st0" d="M104.9,83.7c-0.1,0-0.3-0.1-0.3-0.2c-0.1-0.2,0-0.4,0.1-0.5L122,73c0.2-0.1,0.4,0,0.5,0.1
	c0.1,0.2,0,0.4-0.1,0.5l-17.3,10C105,83.7,104.9,83.7,104.9,83.7L104.9,83.7z"/>
<path class="st0" d="M105.3,74.6c-0.1,0-0.3-0.1-0.3-0.2c-0.1-0.2,0-0.4,0.1-0.5l4.8-2.8c0.2-0.1,0.4,0,0.5,0.1
	c0.1,0.2,0,0.4-0.1,0.5l-4.8,2.8C105.4,74.6,105.4,74.6,105.3,74.6L105.3,74.6z"/>
<path class="st0" d="M92.2,126.3c-0.1,0-0.1,0-0.2-0.1c-0.2-0.1-0.3-0.3-0.1-0.5l10.8-18.7c0.1-0.2,0.3-0.3,0.5-0.1
	c0.2,0.1,0.3,0.3,0.1,0.5l-10.8,18.7C92.5,126.2,92.4,126.3,92.2,126.3L92.2,126.3z"/>
<path class="st0" d="M92.2,111c-0.1,0-0.1,0-0.2-0.1c-0.2-0.1-0.3-0.3-0.1-0.5l10.8-18.7c0.1-0.2,0.3-0.3,0.5-0.1
	c0.2,0.1,0.3,0.3,0.1,0.5l-10.8,18.7C92.5,110.9,92.4,111,92.2,111L92.2,111z"/>
<path class="st0" d="M74.7,126.2c-0.1,0-0.1,0-0.2-0.1c-0.2-0.1-0.3-0.3-0.1-0.5l28.9-50.1c0.1-0.2,0.3-0.3,0.5-0.1
	c0.2,0.1,0.3,0.3,0.1,0.5L75,126C74.9,126.1,74.8,126.2,74.7,126.2L74.7,126.2z"/>
<path class="st0" d="M70.9,117.4c-0.1,0-0.1,0-0.2-0.1c-0.2-0.1-0.3-0.3-0.1-0.5l15.3-26.4c0.1-0.2,0.3-0.3,0.5-0.1
	c0.2,0.1,0.3,0.3,0.1,0.5l-15.3,26.4C71.2,117.3,71.1,117.4,70.9,117.4L70.9,117.4z"/>
<path class="st0" d="M78.1,185.2c-0.1,0-0.1,0-0.2-0.1c-0.2-0.1-0.3-0.3-0.1-0.5l7.8-13.5c0.1-0.2,0.3-0.3,0.5-0.1
	c0.2,0.1,0.3,0.3,0.1,0.5L78.5,185C78.4,185.1,78.3,185.2,78.1,185.2L78.1,185.2z"/>
<path class="st0" d="M70.9,182.4c-0.1,0-0.1,0-0.2-0.1c-0.2-0.1-0.3-0.3-0.1-0.5l15.2-26.4c0.1-0.2,0.3-0.3,0.5-0.1
	c0.2,0.1,0.3,0.4,0.1,0.5l-15.2,26.4C71.2,182.3,71.1,182.4,70.9,182.4L70.9,182.4z"/>
</svg>
