<?xml version="1.0" encoding="utf-8"?>
<!-- Generator: Adobe Illustrator 24.1.2, SVG Export Plug-In . SVG Version: 6.00 Build 0)  -->
<svg version="1.1" id="Camada_1" xmlns="http://www.w3.org/2000/svg" xmlns:xlink="http://www.w3.org/1999/xlink" x="0px" y="0px"
	 viewBox="0 0 421.3 96" style="enable-background:new 0 0 421.3 96;" xml:space="preserve">
<style type="text/css">
	.st0{fill:#5A5C5D;}
	.st1{fill:#5F6062;}
	.st2{fill:#E31118;}
</style>
<path class="st0" d="M262.2,57.5c2.2,0.2,4.1,0.1,6-0.6c0.7-0.2,0.9-0.1,1,0.6c0.7,3.4-0.6,5-4,5.3c-2.7,0.2-5.4-0.1-7.9-1
	c-0.6-0.2-1.1-0.1-1.7,0c-6.9,1.9-13.3,1.4-18.7-4c-3-3.1-4.4-6.9-4.6-11.2c-0.3-5.4,1.1-10.3,4.7-14.4c5-5.6,14-7.3,21.2-4
	c4.6,2.1,7.6,5.6,8.7,10.5c1.4,6.4,0.1,12.4-3.9,17.7C262.9,56.8,262.6,57.1,262.2,57.5z M252.5,59.7c-0.5-0.3-0.8-0.6-1.2-0.8
	c-2.2-1.5-4.1-3.4-5.6-5.7c-0.2-0.3-0.8-0.8,0.1-0.9c1.1-0.1,2.2-0.1,3.2,0.6c2.1,1.5,4.4,2.6,6.8,3.4c0.9,0.3,1.4,0.1,1.9-0.7
	c1.7-2.5,2.6-5.4,3-8.4c0.6-4.8,0.1-9.4-2.8-13.4c-4.5-6.3-13-6-16.8,0.8c-2.8,4.9-3,10.2-1.6,15.6c0.8,3.1,2.3,5.9,5,7.8
	C246.9,59.9,249.5,60.4,252.5,59.7z"/>
<path class="st0" d="M320.3,40.1c2.9-3.2,6.4-3.7,10.3-3c2,0.4,3.5,1.3,4,3.5c2.8-3.5,6.4-4.3,10.5-3.6c3.1,0.5,4.6,2.3,4.7,5.6
	c0.1,3.8-0.1,7.7-0.1,11.5c0,1.2,0,2.3,0.2,3.5c0.4,2.2,1.7,2.9,3.7,1.9c0.1-0.1,0.3-0.1,0.5-0.2c0.1,0.6-0.2,0.9-0.5,1.2
	c-1.6,2-4.9,2.8-7.2,1.7c-1.5-0.7-2.2-1.9-2.2-3.5c0-4,0.1-7.9,0.1-11.9c0-1.1,0-2.2-0.1-3.3c-0.2-1.6-0.8-2.9-2.5-3.3
	c-1.8-0.5-3.4-0.2-4.6,1.4c-1.5,1.9-1.9,4.2-2,6.5c-0.1,3.2,0,6.4,0,9.6c0,1,0,2-0.5,2.9c-0.4,0.9-0.7,2-2.1,1.9
	c-1.7-0.1-2.6-1-2.9-2.5c-0.2-1.1-0.1-2.1-0.1-3.2c0-4.2,0.3-8.5,0.1-12.7c-0.1-1.7-0.6-3.3-2.5-3.9c-1.9-0.6-3.7,0-5.1,1.8
	c-0.7,0.9-1.1,1.9-1.3,3c-0.4,2.2-0.1,4.5-0.1,6.7c0,2.6,0.1,5.3,0.1,7.9c0,2.1-1.2,3.1-3.3,3c-1,0-2.2,0-2.9-0.5
	c-0.8-0.6,0.1-1.7,0.2-2.6c0.7-6.4,0.6-12.8,0.1-19.3c-0.1-0.7-0.1-1.4-0.4-2c-0.5-1.1,0.1-1.2,0.9-1.3c0.6-0.1,1.3-0.1,1.9-0.1
	C319,37,319.9,37.9,320.3,40.1z"/>
<path class="st0" d="M88.5,41.2c-0.3-4.6-0.3-9.1-0.9-13.6c-0.1-0.8,0.1-1.1,0.9-1.3c1.9-0.4,3.6-0.5,5.2,0.8
	c1.1,0.9,1.8,2.1,1.8,3.6c-0.1,5.6-0.1,11.2-0.2,16.8c0,2.3,0,4.5,0,6.8c0,3.9,2.1,5.9,6,5.9c4.3,0,6.9-2.3,7.6-6.6
	c0.3-1.8,0.1-3.7,0.1-5.5c0-4.3,0-8.6,0-12.8c0-2.9,2.5-4.9,5.3-4.2c0.4,0.1,0.8,0.1,0.8,0.8c-0.4,6.3,0,12.6-0.5,18.9
	c-0.7,8.4-8.5,13.6-17,11.6c-5.5-1.3-8.8-5.3-9.1-11.3C88.4,47.8,88.5,44.5,88.5,41.2z"/>
<path class="st0" d="M299.2,59.6c-1.1,2-2.9,2.9-5.1,3c-2.7,0.1-4.1-1-4.5-3.8c-1.4,2.1-3.2,3.4-5.6,3.9c-1.5,0.3-2.9,0.3-4.4,0.1
	c-3.3-0.5-5.1-2.5-5.6-5.8c-0.3-2.1-0.1-4.2,0-6.3c0.1-3.6,0-7.2-0.4-10.8c-0.1-0.5-0.1-1-0.3-1.4c-0.7-1.2,0.1-1.3,0.9-1.4
	c1-0.2,1.9-0.2,2.8,0.1c1.8,0.6,2.6,1.6,2.5,3.4c0,4.4-0.1,8.9-0.1,13.3c0,0.8,0.1,1.7,0.3,2.5c0.7,3.3,4.2,4.4,6.7,2.2
	c1.7-1.5,2.4-3.6,2.7-5.8c0.6-4.9,0.4-9.8-0.6-14.7c-0.1-0.7,0-0.9,0.6-1.1c1.2-0.3,2.4-0.3,3.5,0.1c1.7,0.6,2.4,1.5,2.4,3.3
	c-0.1,4.9-0.2,9.8-0.3,14.7c0,0.9,0,1.8,0.3,2.7c0.5,2,1.7,2.5,3.5,1.7c0.2-0.1,0.3-0.2,0.5-0.2C299.1,59.4,299.1,59.5,299.2,59.6z"
	/>
<path class="st0" d="M128.5,40.2c3.4-3.6,7.4-4.2,11.8-3.3c2.3,0.5,3.6,2.1,3.9,4.5c0.4,3.4,0,6.7,0,10.1c0,1.8-0.1,3.6,0.1,5.4
	c0.1,2.2,1.1,4,4.2,2.5c0.3,0.5-0.1,0.8-0.4,1.1c-1.6,2-5.1,2.8-7.4,1.6c-1.8-0.9-2-2.5-2-4.3c0.1-4.5,0.1-9,0.1-13.5
	c0-1.7-0.4-3.4-2.2-4.2c-2-0.8-3.8-0.4-5.4,1c-1.9,1.6-2.5,3.7-2.5,6c0,4,0.1,8.1,0.2,12.1c0,2.6-1.1,3.6-3.7,3.4
	c-0.9-0.1-2,0-2.5-0.4c-0.7-0.6,0.1-1.6,0.2-2.4c0.6-4.9,0.6-9.8,0.4-14.7c-0.1-2.4,0-4.9-0.8-7.2c-0.1-0.3-0.1-0.5,0.3-0.6
	c1.8-0.5,3.5-0.5,5,0.7C128.3,38.4,128.5,39.2,128.5,40.2z"/>
<path class="st0" d="M205,62.9c-11.5-0.1-15.3-11-11.3-19.4c4.3-9.1,16.5-8.3,21-3.3c3,3.3,3.6,7.1,2.9,11.3
	c-1,5.9-4.9,10.1-10.4,11.1C206.3,62.8,205.5,62.8,205,62.9z M198.4,49.4c0,0.6,0,1.1,0,1.7c0.3,2.9,0.9,5.6,3,7.8
	c2.4,2.4,5.8,2.2,7.9-0.5c1-1.3,1.6-2.8,1.9-4.4c0.9-4,0.9-8-1.2-11.7c-1.2-2.1-3-3.3-5.4-3.2s-3.8,1.6-4.8,3.6
	C198.7,44.7,198.3,47,198.4,49.4z"/>
<path class="st0" d="M395.2,42.8c-0.2-0.7,0.2-1.2,0.5-1.6c1.7-2.6,4.2-4,7.2-4.5c1.2-0.2,2.3-0.1,3.5,0c3.1,0.4,5,2.2,5.6,5.2
	c0.5,2.8,0.2,5.6,0.2,8.4c0,1.9,0,3.8,0,5.6c0,0.7,0.1,1.4,0.3,2c0.5,1.9,1.7,2.4,3.4,1.6c0.2-0.1,0.4-0.3,0.8-0.1
	c-0.3,0.9-0.9,1.5-1.6,2c-1.8,1.3-3.8,1.5-5.9,0.8c-1.3-0.4-1.8-1.2-2.3-3c-0.4,0.1-0.5,0.6-0.8,0.9c-2.2,2.4-4.8,3.2-7.9,2.4
	c-4.6-1.2-6.3-7.1-3.2-11.2c1.5-2,3.6-3,5.9-3.7c1.7-0.5,3.4-0.8,5.2-0.9c0.7,0,0.9-0.3,0.9-0.9c-0.1-0.8-0.1-1.7-0.3-2.5
	c-0.5-2.4-2.2-3.6-4.7-3.4c-2.1,0.1-3.9,1-5.6,2.2C396,42.4,395.8,42.8,395.2,42.8z M406.7,50.6c0.1,0,0.1,0,0.2,0
	c0-0.2,0-0.5,0-0.7c0.1-0.8-0.1-1.1-1-0.9c-1.3,0.3-2.6,0.7-3.8,1.4c-2.2,1.3-3.2,3.4-2.8,6c0.3,1.8,1.6,2.9,3.3,2.8
	c2.1-0.1,4.1-1.8,4.2-3.4C406.7,54.1,406.7,52.3,406.7,50.6z"/>
<path class="st0" d="M168.6,43.1c0.2-1.6,0.9-2.5,1.7-3.3c2.8-3,7.7-4.1,11.5-2.5c3.1,1.2,3.8,3.9,3.9,6.8c0.1,3.6,0,7.3-0.1,10.9
	c0,0.6,0,1.2,0.1,1.8c0.3,2.9,1.5,3.7,4.2,2.6c0.3,0.5-0.2,0.8-0.4,1.1c-1.6,2-4.9,2.7-7.2,1.7c-1.2-0.6-1.8-1.5-1.9-2.8
	c-0.3-0.1-0.4,0.2-0.5,0.4c-2,2.6-4.7,3.5-7.9,3c-4-0.7-6.2-5.1-4.6-9.3c0.7-1.9,2-3.3,3.7-4.3c2.5-1.5,5.3-2.2,8.2-2.3
	c1-0.1,1.3-0.4,1.1-1.3c-0.1-0.3-0.1-0.6-0.1-1c-0.4-3.8-2.6-5.4-6.4-4.4C171.9,40.6,170.3,41.7,168.6,43.1z M180.3,49.5
	c0-0.5-0.1-0.7-0.7-0.6c-1.6,0.3-3.1,0.7-4.5,1.6c-1.9,1.2-2.8,3-2.6,5.3c0.2,2.1,1.5,3.5,3.3,3.4c2.1-0.1,4.4-1.7,4.3-3.8
	C180.2,54.6,180.3,50.6,180.3,49.5z"/>
<path class="st0" d="M390,56c-0.7,2.4-2.2,4.2-4.4,5.4c-7.7,4.3-17.4-1.3-17.7-10.2c-0.3-6.8,3.5-12.4,9.6-14.1
	c3.3-0.9,6.5-0.7,9.6,0.6c3,1.2,2.8,3,0.7,5.5c-0.5,0.6-0.7,0-0.9-0.3c-1.1-1.4-2.3-2.6-3.9-3.3c-3-1.4-6.2-0.6-7.7,2.4
	c-2.3,4.4-2.3,8.9,0.2,13.3c1.9,3.3,5.3,4.4,9,3.3C386.5,58,388.2,57,390,56z"/>
<path class="st0" d="M163,59.1c-0.6,1.2-1.6,2.1-2.8,2.6c-1.7,0.7-3.5,0.7-5.3,0.2c-1.6-0.5-2.4-1.6-2.4-3.3c0-5.5,0-10.9-0.1-16.4
	c0-1.5-0.2-3-0.4-4.5c-0.1-0.5,0-0.8,0.6-1c1.2-0.3,2.4-0.4,3.7,0.1c1.6,0.6,2.4,1.6,2.4,3.3c-0.1,5.1-0.2,10.1-0.2,15.2
	c0,0.8,0.1,1.5,0.2,2.3c0.4,1.9,1.6,2.5,3.4,1.8C162.4,59.2,162.6,58.9,163,59.1z"/>
<path class="st0" d="M366.3,59.3c-1.2,3.6-6.9,4.2-8.9,2.2c-0.8-0.9-1.1-1.9-1.1-3.1c0-4.1,0.4-8.1,0.2-12.2
	c-0.1-2.8-0.1-5.6-0.9-8.3c-0.1-0.4-0.1-0.6,0.4-0.7c1.5-0.4,2.9-0.4,4.3,0.3c1.2,0.6,1.8,1.5,1.8,2.9c-0.1,4.4-0.2,8.9-0.2,13.3
	c0,1.3,0,2.6,0.2,3.9c0.4,2.3,1.6,2.9,3.7,2C365.9,59.4,366,59.4,366.3,59.3z"/>
<path class="st0" d="M312,59.4c0,0.5-0.4,0.9-0.8,1.3c-1.6,1.7-4.5,2.4-6.7,1.6c-1.6-0.6-2.5-1.9-2.5-3.7c0-3.3,0.2-6.5,0.2-9.8
	c0-3.7,0-7.4-1-10.9c-0.1-0.4,0-0.5,0.4-0.7c1.6-0.4,3.2-0.4,4.6,0.4c1,0.6,1.5,1.4,1.5,2.6c-0.1,4.6-0.1,9.2-0.2,13.8
	c0,1.2-0.1,2.5,0.2,3.7c0.4,2.3,1.6,2.9,3.7,1.9C311.6,59.4,311.8,59.2,312,59.4z"/>
<path class="st1" d="M123,83c0-1.4,0-2.9,0-4.3c0-0.6,0.2-1,0.8-1.1c2.4-0.6,4.8-1,7.1,0.4c0.4,0.3,0.7,0,1-0.1
	c1.4-0.8,2.9-0.9,4.4-0.6c1.9,0.4,2.8,1.5,2.8,3.4c0,2.2-0.1,4.5,0,6.7c0,1.2-0.7,0.9-1.3,0.9c-0.7,0-1.2,0-1.2-0.9
	c0.1-2.2,0-4.5,0-6.7c0-0.9-0.1-1.6-1.1-1.9c-1.1-0.3-2.1-0.2-3.1,0.5c-0.4,0.3-0.2,0.7-0.2,1.1c0,2.3,0,4.6,0,6.8
	c0,0.9-0.2,1.2-1.2,1.2c-0.9,0-1.3-0.1-1.2-1.2c0.1-2,0-4.1,0-6.1c0-2.1-2.2-3.3-4.1-2.4c-0.5,0.3-0.4,0.7-0.4,1c0,2.5-0.1,5,0,7.5
	c0,1.1-0.5,1-1.2,1c-0.8,0-1.3-0.1-1.2-1.1C123.1,85.8,123,84.4,123,83z"/>
<path class="st1" d="M415.8,88.3c-0.7,0-1.3,0-1.9,0c-0.4,0-0.6-0.1-0.7-0.5c0-0.2-0.1-0.3-0.2-0.4c-0.4-1-0.4-2.6-1.2-2.9
	c-1.4-0.4-3.1-0.2-4.6-0.2c-0.3,0-0.4,0.3-0.5,0.5c-0.2,0.6-0.4,1.1-0.6,1.7c-0.7,1.9-0.7,1.9-2.9,1.6c1-2.7,2.1-5.3,3.1-7.9
	c0.7-1.7,1.4-3.5,2-5.3c0.3-0.7,0.7-0.7,1.3-0.7c0.5,0,1.1-0.1,1.4,0.6c1.6,4.3,3.3,8.6,4.9,12.9C415.8,87.9,415.8,88.1,415.8,88.3z
	 M409.4,76.8c-0.4,1.2-0.7,2.2-1.1,3.1c-1.2,3.3-1.1,3.4,2.5,3c0.5-0.1,0.6-0.2,0.4-0.6C410.7,80.5,410.1,78.8,409.4,76.8z"/>
<path class="st1" d="M323.7,83c0-1.4,0-2.8,0-4.2c0-0.7,0.2-1,0.9-1.2c1.9-0.5,3.9-0.7,5.8-0.3c1.7,0.4,2.6,1.4,2.6,3.1
	c0,2.4,0,4.7,0,7.1c0,1.2-0.8,0.8-1.3,0.8c-0.6,0.1-1.2,0.1-1.1-0.9c0.1-2.2,0-4.3,0-6.5c0-2.1-2.3-3.3-4.1-2.2
	c-0.5,0.3-0.3,0.7-0.3,1.1c0,2.5-0.1,5,0,7.6c0,1-0.5,1-1.2,0.9c-0.7,0-1.4,0.2-1.3-1C323.8,85.9,323.7,84.4,323.7,83z"/>
<path class="st1" d="M196.2,82.5c0,1.4,0,2.9,0,4.3c0,0.6-0.2,1-0.8,1.1c-1.9,0.6-3.8,0.8-5.8,0.3c-1.7-0.4-2.5-1.4-2.6-3.1
	c0-2.3,0-4.6,0-6.9c0-1.1,0.6-0.9,1.3-0.9s1.2-0.1,1.2,0.9c-0.1,2.2,0,4.4,0,6.6c0,0.8,0.1,1.6,1,2c1,0.4,2,0.3,2.9,0
	c0.5-0.2,0.3-0.7,0.3-1.1c0-2.5,0.1-5,0-7.4c0-1.1,0.6-1,1.3-1s1.3,0,1.2,1C196.1,79.7,196.2,81.1,196.2,82.5z"/>
<path class="st1" d="M257.9,83c0-1.4,0-2.8,0-4.2c0-0.7,0.2-1,0.9-1.2c1.9-0.5,3.8-0.7,5.7-0.3c1.8,0.3,2.7,1.4,2.7,3.2
	c0,2.3-0.1,4.6,0,6.8c0,1.2-0.7,0.9-1.3,0.9c-0.8,0.1-1.1-0.1-1.1-1c0.1-2.1,0-4.2,0-6.3c0-0.9,0-1.7-1-2.1c-1.1-0.5-2.2-0.4-3.3,0
	c-0.4,0.1-0.3,0.6-0.3,1c0,2.5-0.1,5,0,7.5c0,1.1-0.6,1-1.3,1c-0.7,0-1.2,0-1.2-1C258,85.9,257.9,84.4,257.9,83z"/>
<path class="st1" d="M177.4,88.5c-2.7,0-4.5-1.1-5.3-3.1c-1-2.4-0.4-5.5,1.2-7c1.4-1.3,4-1.7,5.8-0.8c1.9,0.9,2.4,2.6,2.5,4.5
	c0,0.6-0.2,0.8-0.8,0.8c-2,0.1-3.9,0.4-5.8,0.5c-0.8,0-1,0.3-0.8,1.1c0.4,1.6,1.5,2.5,3.3,2.5c0.8,0,1.7-0.1,2.5-0.4
	c0.7-0.3,0.8,0,1,0.5c0.3,0.6-0.1,0.8-0.5,0.9C179.4,88.4,178.4,88.5,177.4,88.5z M174.6,82.2c1.3-0.1,2.5-0.2,3.8-0.4
	c0.3,0,0.8,0,0.7-0.6c-0.1-1-0.4-2-1.4-2.5c-1.1-0.5-2-0.3-2.9,0.6c-0.5,0.5-0.8,1.2-0.9,1.9C173.8,82,173.9,82.4,174.6,82.2z"/>
<path class="st1" d="M318.1,82.9c0,4.2-2.7,6.5-6.5,5.4c-2.2-0.6-3.5-2.8-3.4-5.6c0-0.5,0.1-1,0.2-1.5c0.4-2.6,2.4-4.1,5-4.1
	c2.7,0.1,4.4,1.7,4.7,4.5C318.1,82,318.1,82.4,318.1,82.9z M315.7,82.9c0-1,0-1.9-0.4-2.8s-1-1.5-2.1-1.6c-1.1,0-1.8,0.5-2.2,1.5
	c-0.6,1.8-0.7,3.7,0,5.5c0.3,1,1.1,1.6,2.2,1.6s1.8-0.7,2.1-1.6C315.7,84.6,315.8,83.7,315.7,82.9z"/>
<path class="st1" d="M106.8,83.8c0,1,0,2.1,0,3.1c0,0.6-0.2,0.9-0.8,1c-2,0.6-3.9,0.7-5.9,0.2c-1.4-0.4-2.4-1.2-2.5-2.7
	s0.6-2.5,1.9-3.2c1.1-0.6,2.3-0.8,3.6-1c0.5-0.1,1.3,0.2,1.3-0.6c0.1-0.8-0.3-1.5-1.1-1.8c-0.9-0.3-1.8-0.2-2.7-0.1
	c-0.4,0.1-0.7,0.2-1,0.3c-0.5,0.2-0.7-0.1-0.9-0.5c-0.2-0.5,0-0.7,0.4-0.9c1.8-0.6,3.6-0.8,5.4-0.2c1.3,0.4,2.1,1.3,2.2,2.7
	C106.7,81.4,106.7,82.6,106.8,83.8C106.7,83.8,106.7,83.8,106.8,83.8z M104.4,84.7c0-0.6,0-1.2,0-1.8c0-0.3,0-0.7-0.5-0.6
	c-0.9,0.2-1.9,0.3-2.8,0.7c-1.1,0.6-1.5,1.8-1.1,2.9c0.4,1,1.9,1.5,3.5,1.3c1.4-0.2,0.8-1.2,0.9-1.9
	C104.4,85.1,104.4,84.9,104.4,84.7z"/>
<path class="st1" d="M347.5,83.8c0,1,0,2,0,3c0,0.7-0.2,1.1-0.9,1.3c-1.8,0.5-3.7,0.6-5.6,0.2c-1.6-0.4-2.5-1.3-2.6-2.7
	c-0.2-1.4,0.5-2.6,1.9-3.3c1.1-0.6,2.3-0.8,3.5-1c0.5-0.1,1.3,0.2,1.3-0.6c0-0.8-0.3-1.5-1.1-1.8c-1-0.3-2-0.2-3,0
	c-0.3,0.1-0.5,0.1-0.8,0.3c-0.6,0.3-0.8-0.1-1-0.5c-0.2-0.5,0.1-0.6,0.4-0.8c1.9-0.6,3.7-0.8,5.6-0.2c1.4,0.5,2,1.5,2.1,2.9
	C347.5,81.5,347.5,82.7,347.5,83.8L347.5,83.8z M345.2,84.7c0-2.7-0.2-2.9-2.8-1.8c-0.1,0.1-0.3,0.1-0.4,0.2
	c-1.1,0.6-1.5,1.7-1.2,2.8c0.3,1,1.8,1.5,3.4,1.3c1.4-0.1,1-1.1,1-1.9C345.2,85.1,345.2,84.9,345.2,84.7z"/>
<path class="st1" d="M153.6,83.8c0,1,0,2.1,0,3.1c0,0.6-0.1,1-0.8,1.1c-1.9,0.6-3.9,0.7-5.8,0.2c-1.3-0.3-2.3-1.1-2.5-2.5
	c-0.2-1.5,0.4-2.7,1.8-3.5c1.1-0.6,2.4-0.8,3.7-1.1c0.5-0.1,1.3,0.3,1.3-0.6c0-0.8-0.3-1.5-1.1-1.8c-1.2-0.4-2.5-0.3-3.6,0.1
	c-0.5,0.2-0.8,0.2-1-0.4c-0.2-0.5-0.1-0.7,0.4-0.9c1.8-0.6,3.7-0.8,5.5-0.2c1.4,0.5,2.1,1.5,2.2,3C153.6,81.5,153.6,82.7,153.6,83.8
	L153.6,83.8z M151.4,84.6c0-2.7,0-2.7-2.6-1.9c-0.2,0.1-0.3,0.1-0.4,0.2c-1.2,0.5-1.8,1.7-1.4,2.8c0.3,1.1,1.6,1.6,3.3,1.5
	c1.5-0.1,1.2-1.1,1.2-2C151.4,85,151.4,84.8,151.4,84.6z"/>
<path class="st1" d="M382.7,88.5c-0.5,0-1.5-0.1-2.4-0.4c-0.4-0.2-1-0.3-0.6-1c0.3-0.5,0.3-1.1,1.2-0.6c0.9,0.5,1.9,0.5,2.9,0.3
	c0.9-0.1,1.6-0.5,1.9-1.5c0.2-0.9-0.1-1.6-0.8-2.1c-0.6-0.5-1.3-1-2-1.4c-1-0.6-1.9-1.2-2.6-2.1c-1.2-1.6-0.9-3.5,0.7-4.6
	c1.9-1.3,3.9-1.2,6-0.5c0.5,0.2,0.7,0.4,0.4,1c-0.2,0.6-0.5,0.7-1.1,0.4c-0.7-0.3-1.4-0.3-2.1-0.3c-0.9,0-1.7,0.3-2,1.2
	c-0.3,0.9,0,1.7,0.7,2.3c0.5,0.5,1.2,0.8,1.8,1.2c0.8,0.5,1.7,1,2.4,1.8c1.8,1.8,1.5,4.3-0.7,5.5C385.5,88.4,384.3,88.5,382.7,88.5z
	"/>
<path class="st1" d="M281.6,83.7c0,1-0.1,1.9,0,2.9c0.1,0.9-0.2,1.4-1.2,1.6c-1.9,0.4-3.7,0.6-5.6,0c-1.3-0.4-2.2-1.2-2.4-2.6
	c-0.2-1.5,0.5-2.5,1.7-3.3c1.2-0.7,2.5-0.9,3.8-1.1c0.4-0.1,1.2,0.2,1.3-0.6c0.1-0.8-0.2-1.4-1-1.8c-1-0.5-2.1-0.3-3.2-0.1
	c-0.3,0.1-0.5,0.1-0.8,0.2c-0.6,0.3-0.7-0.2-0.9-0.6c-0.2-0.5,0.1-0.6,0.5-0.7c1.8-0.6,3.6-0.8,5.4-0.2c1.5,0.4,2.2,1.5,2.2,3
	C281.6,81.5,281.6,82.6,281.6,83.7z M279.4,84.8c0-2.8-0.3-2.9-2.9-1.8h-0.1c-1.2,0.5-1.8,1.7-1.4,2.9c0.3,1.1,1.7,1.5,3.4,1.4
	c1.5-0.1,1-1.2,1.1-2C279.4,85.1,279.4,84.9,279.4,84.8z"/>
<path class="st1" d="M242.1,83.8c0,0.8-0.1,1.7,0,2.5c0.2,1.3-0.5,1.7-1.5,1.9c-1.6,0.3-3.3,0.4-4.9,0c-1.6-0.4-2.5-1.3-2.7-2.7
	c-0.2-1.5,0.6-2.7,2.1-3.4c1.1-0.5,2.2-0.7,3.3-0.9c0.5-0.1,1.3,0.2,1.3-0.6c0.1-0.9-0.3-1.6-1.2-1.9c-1.2-0.4-2.4-0.2-3.5,0.2
	c-0.4,0.1-0.7,0.3-1-0.3c-0.2-0.5-0.2-0.8,0.3-1c1.9-0.6,3.7-0.8,5.6-0.2c1.4,0.5,2,1.6,2,3C242.1,81.6,242.1,82.7,242.1,83.8
	L242.1,83.8z M239.8,84.7c0-2.7-0.2-2.9-2.8-1.9h-0.1c-1.3,0.5-1.9,1.6-1.5,2.9c0.3,1.1,1.6,1.6,3.3,1.5c1.6-0.1,1.1-1.2,1.2-2.1
	C239.8,85,239.8,84.9,239.8,84.7z"/>
<path class="st1" d="M186,27.6c-0.4,3.2-3.2,5.2-6.4,4.9c-1.4-0.2-2.7-0.5-3.9-1.2c-2.5-1.2-4.9-2-7.4,0.3c0.2-1.7,1-3,2.4-3.8
	c1.6-1,3.4-1,5.2-0.6c0.8,0.2,1.6,0.5,2.4,0.8C181,29.3,183.5,30.2,186,27.6z"/>
<path class="st1" d="M88.6,83.5c0-1.3,0-2.6,0-4c0-0.5,0-0.9-0.7-0.9c-0.5,0-0.6-0.3-0.6-0.7c0-0.4,0.1-0.7,0.6-0.7
	c1,0.1,0.7-0.7,0.7-1.2c0.1-2.4,1.5-3.8,3.9-3.8c0.4,0,0.8-0.1,0.7,0.5c0,0.4,0.1,0.7-0.5,0.9c-1.5,0.5-2.1,1.7-1.7,3.1
	c0.2,0.6,0.6,0.3,1,0.4c0.5,0.1,1.2-0.3,1.2,0.7s-0.7,0.8-1.2,0.7c-0.8,0.1-1,0.5-1,1.3c0,2.5,0,5,0,7.5c0,1.1-0.6,0.9-1.3,1
	c-0.7,0-1.2,0.1-1.2-0.9C88.7,86.1,88.6,84.8,88.6,83.5z"/>
<path class="st0" d="M299.4,33.6c3.3-2.1,5.4-4.8,6.8-8.1c0.2-0.4,0.5-0.6,1-0.4c0.3,0.1,0.5,0.1,0.8,0.2c2.4,0.9,2.9,2.3,1.2,4.3
	c-1.7,2.1-4,3.4-6.6,4.1C301.6,34,300.6,34,299.4,33.6z"/>
<path class="st0" d="M202.8,82.6c0-0.8,0-1.7,0-2.5c0-0.7,0.3-1.5-1-1.4c-0.4,0-0.3-0.4-0.3-0.6c0-0.3,0-0.7,0.4-0.7
	c1.1,0.1,0.8-0.6,0.9-1.3c0-0.5-0.2-1.1,0.5-1.4c1.6-0.6,1.9-0.5,1.8,1.2c-0.1,1.1,0.2,1.7,1.4,1.5c0.5-0.1,0.9,0,0.9,0.7
	c0,0.6-0.3,0.8-0.8,0.7c-1.2-0.2-1.5,0.3-1.4,1.5c0.1,1.7,0,3.3,0,5c0,1.1,0.4,1.9,1.6,1.8c0.4,0,0.6,0.1,0.6,0.5
	c0,0.3,0.1,0.7-0.4,0.8c-2,0.7-4-0.7-4.1-2.7C202.8,84.6,202.8,83.6,202.8,82.6z"/>
<path class="st1" d="M161.6,82.9c0,0.4,0.1,1.1,0.2,1.6c0.5,2.1,1.9,2.9,3.9,2.2c0.6-0.2,0.8-0.2,1.1,0.4c0.3,0.7-0.2,0.9-0.6,1
	c-2.7,0.9-6.1,0.3-6.9-3.6c-0.3-1.2-0.2-2.5,0.1-3.7c0.8-3.1,3.8-4.6,6.7-3.4c0.4,0.2,1,0.2,0.8,0.9c-0.2,0.7-0.6,0.6-1.2,0.4
	c-2.1-0.7-3.6,0.2-4,2.3C161.6,81.7,161.6,82.2,161.6,82.9z"/>
<path class="st1" d="M225.9,88.5c-3.3,0-5-1.8-5.3-5.2c-0.3-4.2,2.4-6.8,6.2-6c0.4,0.1,0.8,0.2,1.1,0.4c0.5,0.2,0.4,0.6,0.2,1
	s-0.4,0.4-0.8,0.3c-2.5-0.8-3.9,0.1-4.3,2.7c-0.1,1-0.1,1.9,0.1,2.9c0.5,2.1,1.9,2.9,3.9,2.3c0.6-0.2,0.8-0.2,1.1,0.4
	c0.3,0.7-0.1,0.9-0.6,1C227,88.4,226.3,88.5,225.9,88.5z"/>
<path class="st1" d="M289.5,82.8c0.1,0.6,0.1,1.2,0.3,1.8c0.5,2.1,1.9,2.9,4,2.2c0.6-0.2,0.8-0.1,1.1,0.4c0.3,0.6-0.1,0.8-0.5,1
	c-2.9,1.4-6.1-0.1-6.9-3.2c-0.4-1.4-0.4-2.8,0-4.3c0.8-3,4.3-4.5,7-3.1c0.4,0.2,0.7,0.4,0.4,0.9c-0.2,0.4-0.3,0.6-0.9,0.5
	c-2.7-0.8-4.1,0.2-4.3,3C289.6,82.2,289.6,82.5,289.5,82.8C289.6,82.8,289.6,82.8,289.5,82.8z"/>
<path class="st0" d="M362.5,29.4c0,1.8-1.7,3.5-3.5,3.4c-1.8,0-3.3-1.6-3.3-3.4s1.6-3.4,3.3-3.4C360.9,25.9,362.5,27.5,362.5,29.4z"
	/>
<path class="st0" d="M155.8,32.4c-1.8,0-3.4-1.5-3.4-3.3s1.6-3.5,3.4-3.4c1.9,0,3.4,1.6,3.4,3.5C159.2,30.9,157.6,32.4,155.8,32.4z"
	/>
<path class="st0" d="M355.9,80.4c0,2.3-0.1,4.6,0,7c0,1-0.5,1-1.2,0.9c-0.7,0-1.2,0.1-1.2-0.9c0.1-4.7,0.1-9.4,0-14c0-1,0.5-1,1.2-1
	s1.2-0.1,1.2,0.9C355.8,75.7,355.9,78,355.9,80.4z"/>
<path class="st1" d="M112.6,83c0-1.4,0-2.8,0-4.2c0-0.7,0.2-1,0.9-1.2c1.3-0.4,2.7-0.4,4-0.5c0.3,0,0.9-0.2,0.7,0.4
	c-0.1,0.4,0,1.2-0.8,1.1c-0.8,0-1.8-0.4-2.2,0.3c-0.3,0.6-0.1,1.5-0.1,2.3c0,2-0.1,4.1,0,6.1c0,1.1-0.7,0.8-1.3,0.9
	c-0.6,0-1.3,0.2-1.2-0.9C112.7,85.9,112.6,84.5,112.6,83z"/>
<path class="st1" d="M391.9,88.6c1.2-2.2,2.4-4.4,3.5-6.6c1.3-2.4,2.6-4.8,3.9-7.2c0.1-0.3,0.2-0.7,0.6-0.7c0.5-0.1,1.1-0.2,1.4,0
	c0.5,0.3-0.1,0.8-0.3,1.1c-2.2,4.1-4.5,8.2-6.7,12.3C393.8,88.6,393.2,89,391.9,88.6z"/>
<path class="st0" d="M214.9,82.8c0,1.5-0.1,3,0,4.6c0.1,1-0.4,1-1.1,1c-0.6-0.1-1.4,0.3-1.3-0.9c0.1-3,0.1-6.1,0-9.1
	c0-1.2,0.7-0.9,1.3-0.9c0.8-0.1,1.2,0.1,1.1,1C214.9,79.8,214.9,81.3,214.9,82.8z"/>
<path class="st0" d="M300.1,82.9c0-1.6,0-3.1,0-4.7c0-1.1,0.7-0.8,1.3-0.8c0.6,0,1.2-0.2,1.2,0.8c-0.1,3.1-0.1,6.2,0,9.3
	c0,0.9-0.6,0.8-1.1,0.8c-0.5-0.1-1.4,0.4-1.4-0.7C300.1,86,300.1,84.4,300.1,82.9z"/>
<path class="st1" d="M174.2,76.3c-0.1-0.1-0.3-0.2-0.4-0.3c-0.1-0.2,0.1-0.4,0.2-0.5c0.7-0.6,1.3-1.2,2-1.7c0.4-0.3,0.9-0.4,1.3-0.1
	c0.7,0.6,1.4,1.2,2.2,1.9c0.2,0.1,0.3,0.3,0.1,0.5s-0.4,0.4-0.6,0.2c-1.5-1.4-3-1.3-4.5,0C174.5,76.2,174.4,76.2,174.2,76.3z"/>
<path class="st1" d="M213.7,75.4c-0.7-0.1-1.3-0.3-1.3-1.1c0-0.8,0.7-1.1,1.3-1.1c0.7,0,1.4,0.2,1.4,1.1
	C215.1,75.1,214.4,75.3,213.7,75.4z"/>
<path class="st1" d="M301.3,75.3c-0.7-0.1-1.3-0.3-1.3-1.1c0-0.8,0.7-1,1.3-1c0.7,0,1.4,0.2,1.4,1.1C302.7,75.1,302,75.3,301.3,75.3
	z"/>
<path class="st2" d="M70.4,5C55.7,5.1,43.9,17,43.9,31.7c0,11.4,0,22.8,0,34.2c0,0.4,0,0.9,0.1,1.3c0,0.4-0.1,0.8-0.1,1.2
	c-0.2,3.7-0.7,7.3-2.5,10.5c-1.3,2.5-3.1,4.5-5.9,5.4c-0.8,0.6-1.8,0.8-2.7,1c1-0.1,1.9-0.4,2.7-1c0-5.3-0.1-10.6-0.1-15.9
	c0-0.9,0.1-1.8,0.1-2.7c0-4.2-0.1-8.4-0.1-12.6c0-0.4,0.1-0.8,0.1-1.2c0-6.8,0-13.7,0-20.5c-0.1-7-2.6-13.1-7.5-18.2
	C22.2,7.3,15.2,4.7,7.1,4.9C6,5,5.7,5.2,5.7,6.3c0,15.2,0,30.3,0,45.5c0,0.4,0,0.8,0.1,1.2c-0.1,0.8-0.1,1.6,0.1,2.4
	c0,0.6-0.3,1.3,0.3,1.8c0.1,4,1,7.8,2.7,11.4c1.5,3.9,3.8,7.2,6.7,10.2c2.3,2.4,4.9,4.6,7.9,6.2c2.7,1.7,5.7,2.8,8.7,3.5
	c2.2,0.5,7.6,1.1,10.6,0.8c2.8-0.3,5.5-0.9,8.1-1.9c3.7-1.4,7-3.4,10.1-5.9c3.4-2.8,6.1-6.1,8.1-10c0.2-0.3,0.4-0.7,0.6-1
	c2.4-4.9,3.6-10.1,3.6-15.5c0-15.7,0-31.4,0-47.1C73.3,4.9,73.3,4.9,70.4,5z"/>
</svg>
