<?xml version="1.0" encoding="utf-8"?>
<!-- Generator: Adobe Illustrator 24.1.2, SVG Export Plug-In . SVG Version: 6.00 Build 0)  -->
<svg version="1.1" id="Camada_1" xmlns="http://www.w3.org/2000/svg" xmlns:xlink="http://www.w3.org/1999/xlink" x="0px" y="0px"
	 viewBox="0 0 588.8 171.6" style="enable-background:new 0 0 588.8 171.6;" xml:space="preserve">
<style type="text/css">
	.st0{fill:#135F2C;}
	.st1{font-family:'MyriadPro-Semibold';}
	.st2{font-size:111.8015px;}
	.st3{letter-spacing:-2;}
</style>
<g>
	<text transform="matrix(1.006 0 0 1 149.2061 105.9289)" class="st0 st1 st2 st3">MaterDei</text>
</g>
<g>
	<path class="st0" d="M152.7,132.9c2-0.3,5-0.6,7.8-0.6c4.3,0,7.2,0.7,9.1,2.3c1.5,1.2,2.5,3.1,2.5,5.3c0,3.6-2.6,6.1-5.9,7.1v0.1
		c2.4,0.7,3.8,2.7,4.6,5.6c1,3.9,1.8,6.6,2.4,7.7H169c-0.5-0.8-1.2-3.2-2-6.7c-0.9-3.8-2.7-5.3-6.3-5.4h-3.8v12.1h-4.1V132.9z
		 M156.8,145.6h4.1c4.3,0,7.1-2.1,7.1-5.3c0-3.6-2.9-5.2-7.2-5.2c-2,0-3.3,0.1-4,0.3V145.6z"/>
	<path class="st0" d="M179.2,151.1c0.1,4.9,3.6,6.9,7.7,6.9c2.9,0,4.8-0.5,6.2-1l0.7,2.6c-1.4,0.6-4,1.3-7.5,1.3
		c-6.9,0-11.1-4.1-11.1-10.1s4-10.8,10.6-10.8c7.4,0,9.3,5.7,9.3,9.4c0,0.7,0,1.3-0.1,1.7H179.2z M191.2,148.5
		c0-2.3-1.1-5.9-5.7-5.9c-4.2,0-6,3.4-6.3,5.9H191.2z"/>
	<path class="st0" d="M218.8,131.1v24.2c0,1.8,0.1,3.8,0.2,5.2h-3.6l-0.2-3.5H215c-1.2,2.2-3.9,3.9-7.6,3.9c-5.5,0-9.7-4.1-9.7-10.2
		c0-6.7,4.7-10.7,10.1-10.7c3.5,0,5.8,1.4,6.8,3h0.1v-12H218.8z M214.7,148.6c0-0.5,0-1.1-0.2-1.5c-0.6-2.3-2.8-4.2-5.9-4.2
		c-4.2,0-6.8,3.3-6.8,7.7c0,4.1,2.3,7.4,6.7,7.4c2.7,0,5.3-1.7,6-4.3c0.1-0.5,0.2-1,0.2-1.6V148.6z"/>
	<path class="st0" d="M226.9,151.1c0.1,4.9,3.6,6.9,7.7,6.9c2.9,0,4.8-0.5,6.2-1l0.7,2.6c-1.4,0.6-4,1.3-7.5,1.3
		c-6.9,0-11.1-4.1-11.1-10.1s4-10.8,10.6-10.8c7.4,0,9.3,5.7,9.3,9.4c0,0.7,0,1.3-0.1,1.7H226.9z M239,148.5c0-2.3-1.1-5.9-5.7-5.9
		c-4.2,0-6,3.4-6.3,5.9H239z"/>
	<path class="st0" d="M275.4,131.1v24.2c0,1.8,0.1,3.8,0.2,5.2H272l-0.2-3.5h-0.1c-1.2,2.2-3.9,3.9-7.6,3.9c-5.5,0-9.7-4.1-9.7-10.2
		c0-6.7,4.7-10.7,10.1-10.7c3.5,0,5.8,1.4,6.8,3h0.1v-12H275.4z M271.4,148.6c0-0.5,0-1.1-0.2-1.5c-0.6-2.3-2.8-4.2-5.9-4.2
		c-4.2,0-6.8,3.3-6.8,7.7c0,4.1,2.3,7.4,6.7,7.4c2.7,0,5.3-1.7,6-4.3c0.1-0.5,0.2-1,0.2-1.6V148.6z"/>
	<path class="st0" d="M283.6,151.1c0.1,4.9,3.6,6.9,7.7,6.9c2.9,0,4.8-0.5,6.2-1l0.7,2.6c-1.4,0.6-4,1.3-7.5,1.3
		c-6.9,0-11.1-4.1-11.1-10.1s4-10.8,10.6-10.8c7.4,0,9.3,5.7,9.3,9.4c0,0.7,0,1.3-0.1,1.7H283.6z M295.7,148.5
		c0-2.3-1.1-5.9-5.7-5.9c-4.2,0-6,3.4-6.3,5.9H295.7z"/>
	<path class="st0" d="M312.3,156c1.8,1,4.4,1.8,7.2,1.8c4.1,0,6.6-1.9,6.6-4.8c0-2.6-1.7-4.1-5.9-5.5c-5.1-1.7-8.3-4.1-8.3-7.9
		c0-4.3,4.1-7.6,10.2-7.6c3.2,0,5.5,0.7,6.9,1.4l-1.1,2.9c-1-0.5-3.1-1.3-5.9-1.3c-4.3,0-5.9,2.3-5.9,4.2c0,2.6,1.9,3.9,6.2,5.4
		c5.3,1.8,8,4.1,8,8.2c0,4.3-3.5,8.1-10.9,8.1c-3,0-6.3-0.8-8-1.8L312.3,156z"/>
	<path class="st0" d="M350.7,155.6c0,1.7,0.1,3.4,0.3,4.8h-3.7l-0.3-2.5h-0.1c-1.3,1.6-3.7,3-6.9,3c-4.6,0-6.9-2.9-6.9-5.8
		c0-4.8,4.8-7.5,13.6-7.4v-0.4c0-1.6-0.5-4.6-5.1-4.6c-2.1,0-4.3,0.5-5.9,1.5l-0.9-2.4c1.9-1,4.6-1.7,7.5-1.7c6.9,0,8.6,4.2,8.6,8.1
		V155.6z M346.8,150.2c-4.5-0.1-9.6,0.6-9.6,4.5c0,2.4,1.8,3.5,3.8,3.5c3,0,4.9-1.7,5.5-3.4c0.1-0.4,0.2-0.8,0.2-1.2V150.2z"/>
	<path class="st0" d="M375.3,154.9c0,2.1,0,3.9,0.2,5.5h-3.6l-0.2-3.3h-0.1c-1,1.6-3.4,3.7-7.5,3.7c-3.5,0-7.8-1.8-7.8-8.8v-11.7
		h4.1v11c0,3.8,1.4,6.4,5,6.4c2.7,0,4.7-1.7,5.4-3.4c0.2-0.5,0.4-1.2,0.4-1.9v-12.2h4.1V154.9z M372.4,131.8l-5.7,5.9h-2.9l4.1-5.9
		H372.4z"/>
	<path class="st0" d="M400.5,131.1v24.2c0,1.8,0.1,3.8,0.2,5.2h-3.6l-0.2-3.5h-0.1c-1.2,2.2-3.9,3.9-7.6,3.9
		c-5.5,0-9.7-4.1-9.7-10.2c0-6.7,4.7-10.7,10.1-10.7c3.5,0,5.8,1.4,6.8,3h0.1v-12H400.5z M396.5,148.6c0-0.5,0-1.1-0.2-1.5
		c-0.6-2.3-2.8-4.2-5.9-4.2c-4.2,0-6.8,3.3-6.8,7.7c0,4.1,2.3,7.4,6.7,7.4c2.7,0,5.3-1.7,6-4.3c0.1-0.5,0.2-1,0.2-1.6V148.6z"/>
	<path class="st0" d="M408.7,151.1c0.1,4.9,3.6,6.9,7.7,6.9c2.9,0,4.8-0.5,6.2-1l0.7,2.6c-1.4,0.6-4,1.3-7.5,1.3
		c-6.9,0-11.1-4.1-11.1-10.1s4-10.8,10.6-10.8c7.4,0,9.3,5.7,9.3,9.4c0,0.7,0,1.3-0.1,1.7H408.7z M420.8,148.5
		c0-2.3-1.1-5.9-5.7-5.9c-4.2,0-6,3.4-6.3,5.9H420.8z"/>
</g>
<path class="st0" d="M94.7,46.1v-39H48.2v39h-39v46.4h39v39h46.4v-39h39V46.1H94.7z M121.1,81h-38v38H59.8V81h-38V57.7h38v-38h23.4
	v38h38V81z"/>
</svg>
