<?xml version="1.0" encoding="utf-8"?>
<!-- Generator: Adobe Illustrator 24.1.2, SVG Export Plug-In . SVG Version: 6.00 Build 0)  -->
<svg version="1.1" id="Camada_1" xmlns="http://www.w3.org/2000/svg" xmlns:xlink="http://www.w3.org/1999/xlink" x="0px" y="0px"
	 viewBox="0 0 520 147.6" style="enable-background:new 0 0 520 147.6;" xml:space="preserve">
<style type="text/css">
	.st0{fill:#115098;}
	.st1{fill:#057FC1;}
	.st2{fill:#59595C;}
	.st3{fill:#5ABCAD;}
	.st4{fill:#3CA6DE;}
</style>
<g>
	<g>
		<path class="st0" d="M14.1,106.1c-0.6-1.6-15.4-38.5-2-60.7C18.8,34,30.6,31,43.1,27.7c12.5-3.2,26.6-6.9,38.6-19.5l2.5,2.4
			C71.6,24,56.9,27.8,44,31.1c-12.3,3.2-22.9,5.9-29,16.1c-12.4,20.8,2.1,57.3,2.3,57.6L14.1,106.1z"/>
	</g>
</g>
<g>
	<g>
		<path class="st1" d="M14,105c-4.6-22.1,7.4-39.9,32.2-47.7C74.3,48.5,78.7,39,80.6,30.8c1.6-6.8,0.6-20.5,0.6-20.6l3.5-0.2
			c0,0.6,1,14.3-0.7,21.6c-2.1,9.2-6.8,19.7-36.7,29.1c-23.2,7.3-34,23.2-29.8,43.6L14,105z"/>
	</g>
</g>
<path class="st2" d="M86.1,95.5l9.7-68h1.1l27.6,55.8l27.4-55.8h1.1l9.8,68h-6.7l-6.7-48.6l-24,48.6h-1.7l-24.3-49l-6.7,49H86.1z"/>
<path class="st2" d="M182.2,25.8h6.5v28.4c2.6-3.5,5.5-6,8.6-7.7c3.1-1.7,6.5-2.6,10.2-2.6c3.8,0,7.1,1,10,2.9
	c2.9,1.9,5.1,4.5,6.4,7.7c1.4,3.2,2.1,8.3,2.1,15.1v25.9h-6.5v-24c0-5.8-0.2-9.7-0.7-11.6c-0.8-3.3-2.3-5.8-4.4-7.5
	c-2.1-1.7-4.9-2.5-8.3-2.5c-3.9,0-7.4,1.3-10.5,3.9c-3.1,2.6-5.1,5.8-6.1,9.6c-0.6,2.5-0.9,7-0.9,13.7v18.4h-6.5V25.8z"/>
<path class="st2" d="M284,77.1l5.5,2.9c-1.8,3.5-3.9,6.3-6.2,8.5c-2.3,2.2-5,3.8-7.9,4.9c-2.9,1.1-6.2,1.7-9.9,1.7
	c-8.2,0-14.6-2.7-19.2-8.1c-4.6-5.4-6.9-11.5-6.9-18.2c0-6.4,2-12.1,5.9-17.1c5-6.3,11.6-9.5,19.9-9.5c8.6,0,15.4,3.3,20.5,9.8
	c3.6,4.6,5.5,10.3,5.6,17.2h-45.3c0.1,5.8,2,10.6,5.6,14.4c3.6,3.7,8.1,5.6,13.4,5.6c2.6,0,5.1-0.4,7.5-1.3c2.4-0.9,4.5-2.1,6.2-3.5
	C280.2,82.8,282,80.4,284,77.1z M284,63.6c-0.9-3.5-2.1-6.2-3.8-8.3c-1.7-2.1-3.8-3.7-6.5-5c-2.7-1.3-5.6-1.9-8.6-1.9
	c-4.9,0-9.2,1.6-12.7,4.8c-2.6,2.3-4.6,5.8-5.9,10.4H284z M268.4,19.9h9.9l-13.6,14.2h-6.4L268.4,19.9z"/>
<path class="st2" d="M376.6,24.5c1.5,0,2.7,0.5,3.8,1.6c1,1,1.6,2.3,1.6,3.8c0,1.4-0.5,2.7-1.6,3.7c-1,1-2.3,1.6-3.8,1.6
	c-1.4,0-2.7-0.5-3.7-1.6c-1-1-1.6-2.3-1.6-3.7c0-1.5,0.5-2.7,1.6-3.8C373.9,25,375.1,24.5,376.6,24.5z M373.4,45.2h6.5v50.3h-6.5
	V45.2z"/>
<path class="st2" d="M445.7,55.7l-5.1,3.2c-4.4-5.9-10.5-8.8-18.1-8.8c-6.1,0-11.2,2-15.3,5.9c-4,3.9-6.1,8.7-6.1,14.4
	c0,3.7,0.9,7.1,2.8,10.3c1.9,3.2,4.4,5.7,7.7,7.5c3.2,1.8,6.9,2.7,10.9,2.7c7.4,0,13.4-2.9,18.1-8.8l5.1,3.4
	c-2.4,3.6-5.6,6.4-9.7,8.4c-4.1,2-8.7,3-13.8,3c-8,0-14.5-2.5-19.8-7.6c-5.2-5.1-7.9-11.2-7.9-18.4c0-4.9,1.2-9.4,3.7-13.6
	c2.5-4.2,5.8-7.4,10.1-9.8c4.3-2.3,9.1-3.5,14.4-3.5c3.3,0,6.5,0.5,9.6,1.5c3.1,1,5.7,2.3,7.9,4C442.3,51.1,444.2,53.1,445.7,55.7z"
	/>
<g>
	<g>
		<path class="st3" d="M15.8,106.9l-0.4-3.5l0.2,1.7l-0.2-1.7c0.1,0,9.8-1.3,19.5-8.5c13-9.6,20.1-24.6,20.9-44.6
			c0.8-19.9,9.6-33.5,26.9-41.8l1.5,3.2C68.2,19.3,60,32,59.2,50.5c-1.1,26.4-12.8,40.3-22.5,47.4C26.3,105.5,16.2,106.8,15.8,106.9
			z"/>
	</g>
</g>
<g>
	<g>
		<path class="st4" d="M15.9,107.5c-0.1,0-0.2,0-0.2,0l0-3.5c0.3,0,36.6,0.1,49.2-13.3c3-3.2,5-7.6,6.2-13.2
			c1.4-6.8,0.8-17.4,0.3-27.6c-0.5-9.5-1-18.5,0.2-24c1.9-9.1,5.7-15.2,11.2-18.1l1.6,3.1c-4.5,2.4-7.6,7.6-9.4,15.7
			c-1.1,5-0.6,13.8-0.1,23.1c0.6,10.4,1.1,21.2-0.4,28.5c-1.3,6.2-3.6,11.2-7,14.9C54.2,107.2,19.3,107.5,15.9,107.5z"/>
	</g>
</g>
<path class="st2" d="M344.6,62.5v1.4C344.6,63,344.6,62.5,344.6,62.5z"/>
<path class="st2" d="M360.3,63.9v-1.4V25.8h-6.4v28.7c-2.5-3.5-5.5-6.1-8.8-7.9c-3.3-1.8-7.1-2.6-11.2-2.6c-7.1,0-13.3,2.6-18.4,7.7
	c-5.1,5.1-7.6,11.3-7.6,18.6c0,7.4,2.5,13.7,7.6,18.8c5,5.2,11.1,7.7,18.2,7.7c4,0,8.7-1,12.1-2.6C362.4,86.6,360.2,68.5,360.3,63.9
	z M344.5,88.2c-3.2,1.8-6.5,2.7-10.1,2.7c-3.5,0-6.8-0.9-9.9-2.7c-3.1-1.8-5.5-4.3-7.3-7.5c-1.8-3.2-2.7-6.6-2.7-10.2
	c0-3.6,0.9-7,2.7-10.2c1.8-3.2,4.2-5.7,7.3-7.5c3-1.8,6.4-2.7,10-2.7c5.6,0,10.3,2,14.2,5.9c3.8,3.9,5.7,8.8,5.7,14.6
	c0,3.8-0.9,7.2-2.6,10.3S347.6,86.4,344.5,88.2z"/>
<path class="st2" d="M511.1,69.3c-0.5-14.1-11.8-25.4-25.6-25.4c-14.2,0-25.7,11.8-25.7,26.4c0,14.6,11.5,26.4,25.7,26.4
	c8.3,0,15.7-4.1,20.4-10.4v9.1h5.2L511.1,69.3L511.1,69.3z M485.7,90.6c-10.5,0-19.1-9-19.1-20.2c0-11.2,8.5-20.2,19.1-20.2
	c10.5,0,19.1,9,19.1,20.2C504.8,81.5,496.3,90.6,485.7,90.6z"/>
<g>
	<path class="st1" d="M157.8,117.4h1.8v5.3h2.9v1.6h-2.9V137h-1.8v-12.7h-2.5v-1.6h2.5V117.4z"/>
	<path class="st1" d="M177.4,132.3l1.6,0.8c-0.5,1-1.1,1.8-1.8,2.4c-0.7,0.6-1.4,1.1-2.3,1.4c-0.8,0.3-1.8,0.5-2.8,0.5
		c-2.3,0-4.2-0.8-5.5-2.3c-1.3-1.5-2-3.3-2-5.2c0-1.8,0.6-3.4,1.7-4.9c1.4-1.8,3.3-2.7,5.7-2.7c2.4,0,4.4,0.9,5.8,2.8
		c1,1.3,1.6,2.9,1.6,4.9h-12.9c0,1.7,0.6,3,1.6,4.1c1,1.1,2.3,1.6,3.8,1.6c0.7,0,1.4-0.1,2.1-0.4c0.7-0.3,1.3-0.6,1.8-1
		C176.3,133.9,176.9,133.2,177.4,132.3z M177.4,128.4c-0.2-1-0.6-1.8-1.1-2.4c-0.5-0.6-1.1-1.1-1.9-1.4c-0.8-0.4-1.6-0.5-2.4-0.5
		c-1.4,0-2.6,0.5-3.6,1.4c-0.7,0.7-1.3,1.6-1.7,3H177.4z"/>
	<path class="st1" d="M196.8,125.7l-1.5,0.9c-1.3-1.7-3-2.5-5.2-2.5c-1.7,0-3.2,0.6-4.3,1.7c-1.2,1.1-1.7,2.5-1.7,4.1
		c0,1,0.3,2,0.8,2.9c0.5,0.9,1.3,1.6,2.2,2.1s2,0.8,3.1,0.8c2.1,0,3.8-0.8,5.2-2.5l1.5,1c-0.7,1-1.6,1.8-2.8,2.4
		c-1.2,0.6-2.5,0.9-3.9,0.9c-2.3,0-4.1-0.7-5.6-2.2c-1.5-1.4-2.2-3.2-2.2-5.3c0-1.4,0.3-2.7,1-3.9c0.7-1.2,1.7-2.1,2.9-2.8
		c1.2-0.7,2.6-1,4.1-1c0.9,0,1.9,0.1,2.7,0.4c0.9,0.3,1.6,0.7,2.2,1.1C195.8,124.4,196.3,125,196.8,125.7z"/>
	<path class="st1" d="M200.3,122.7h1.8v2.6c0.7-1,1.6-1.7,2.4-2.2c0.9-0.5,1.9-0.7,2.9-0.7c1.1,0,2,0.3,2.8,0.8
		c0.8,0.5,1.4,1.3,1.8,2.2s0.6,2.4,0.6,4.3v7.4H211v-6.8c0-1.6-0.1-2.7-0.2-3.3c-0.2-0.9-0.6-1.7-1.2-2.1c-0.6-0.5-1.4-0.7-2.4-0.7
		c-1.1,0-2.1,0.4-3,1.1c-0.9,0.7-1.5,1.6-1.7,2.7c-0.2,0.7-0.3,2-0.3,3.9v5.3h-1.8V122.7z"/>
	<path class="st1" d="M223.5,122.3c2.2,0,4,0.8,5.5,2.4c1.3,1.5,2,3.2,2,5.2c0,2-0.7,3.7-2.1,5.2c-1.4,1.5-3.2,2.2-5.4,2.2
		c-2.2,0-4-0.7-5.4-2.2c-1.4-1.5-2.1-3.2-2.1-5.2c0-2,0.7-3.7,2-5.2C219.5,123.1,221.3,122.3,223.5,122.3z M223.5,124.1
		c-1.5,0-2.8,0.6-3.9,1.7c-1.1,1.1-1.7,2.5-1.7,4.1c0,1,0.3,2,0.8,2.9c0.5,0.9,1.2,1.6,2,2.1c0.9,0.5,1.8,0.7,2.8,0.7
		c1,0,2-0.2,2.8-0.7c0.9-0.5,1.5-1.2,2-2.1c0.5-0.9,0.8-1.9,0.8-2.9c0-1.6-0.6-3-1.7-4.1C226.4,124.7,225,124.1,223.5,124.1z"/>
	<path class="st1" d="M234.1,117.2h1.8V137h-1.8V117.2z"/>
	<path class="st1" d="M246.6,122.3c2.2,0,4,0.8,5.5,2.4c1.3,1.5,2,3.2,2,5.2c0,2-0.7,3.7-2.1,5.2c-1.4,1.5-3.2,2.2-5.4,2.2
		c-2.2,0-4-0.7-5.4-2.2c-1.4-1.5-2.1-3.2-2.1-5.2c0-2,0.7-3.7,2-5.2C242.5,123.1,244.4,122.3,246.6,122.3z M246.6,124.1
		c-1.5,0-2.8,0.6-3.9,1.7c-1.1,1.1-1.7,2.5-1.7,4.1c0,1,0.3,2,0.8,2.9c0.5,0.9,1.2,1.6,2,2.1c0.9,0.5,1.8,0.7,2.8,0.7
		c1,0,2-0.2,2.8-0.7c0.9-0.5,1.5-1.2,2-2.1c0.5-0.9,0.8-1.9,0.8-2.9c0-1.6-0.6-3-1.7-4.1C249.4,124.7,248.1,124.1,246.6,124.1z"/>
	<path class="st1" d="M269.8,122.7h1.8v11.4c0,2-0.2,3.5-0.5,4.4c-0.5,1.3-1.3,2.3-2.5,3c-1.2,0.7-2.6,1.1-4.3,1.1
		c-1.2,0-2.3-0.2-3.3-0.5c-1-0.3-1.8-0.8-2.4-1.4c-0.6-0.6-1.2-1.4-1.7-2.6h2c0.5,0.9,1.2,1.6,2.1,2.1s1.9,0.7,3.2,0.7
		c1.3,0,2.3-0.2,3.2-0.7c0.9-0.5,1.5-1.1,1.9-1.8c0.4-0.7,0.6-1.9,0.6-3.4v-0.7c-0.7,0.9-1.5,1.6-2.5,2c-1,0.5-2.1,0.7-3.2,0.7
		c-1.3,0-2.6-0.3-3.7-1c-1.2-0.7-2.1-1.5-2.7-2.6c-0.6-1.1-0.9-2.3-0.9-3.6c0-1.3,0.3-2.6,1-3.7c0.7-1.1,1.6-2.1,2.7-2.7
		c1.2-0.7,2.4-1,3.7-1c1.1,0,2.1,0.2,3,0.7c0.9,0.4,1.8,1.2,2.7,2.2V122.7z M264.4,124.1c-1,0-2,0.3-2.9,0.8
		c-0.9,0.5-1.6,1.2-2.1,2.1c-0.5,0.9-0.8,1.9-0.8,2.9c0,1.6,0.5,2.9,1.6,3.9c1.1,1,2.4,1.5,4.1,1.5c1.7,0,3.1-0.5,4.1-1.5
		c1-1,1.5-2.4,1.5-4c0-1.1-0.2-2-0.7-2.9c-0.5-0.8-1.1-1.5-2-2S265.4,124.1,264.4,124.1z"/>
	<path class="st1" d="M276.2,116.8c0.4,0,0.8,0.1,1.1,0.4c0.3,0.3,0.4,0.7,0.4,1.1c0,0.4-0.1,0.8-0.4,1.1c-0.3,0.3-0.7,0.4-1.1,0.4
		c-0.4,0-0.8-0.1-1.1-0.4c-0.3-0.3-0.4-0.7-0.4-1.1c0-0.4,0.1-0.8,0.4-1.1S275.8,116.8,276.2,116.8z M275.3,122.7h1.8V137h-1.8
		V122.7z"/>
	<path class="st1" d="M306.9,122.7h1.8v2.6c0.7-1,1.6-1.8,2.5-2.3c0.9-0.5,2-0.8,3.2-0.8c2,0,3.8,0.7,5.2,2.2
		c1.4,1.5,2.2,3.2,2.2,5.3c0,2.1-0.7,3.9-2.1,5.4c-1.4,1.5-3.2,2.2-5.2,2.2c-1.1,0-2.2-0.2-3.1-0.7c-1-0.5-1.8-1.2-2.6-2.1v7.7h-1.8
		V122.7z M314.2,124.1c-1.6,0-2.9,0.6-4,1.7c-1.1,1.1-1.6,2.5-1.6,4.2c0,1.1,0.2,2.1,0.7,2.9c0.5,0.9,1.2,1.6,2.1,2.1
		s1.9,0.8,2.9,0.8c1,0,1.9-0.3,2.8-0.8c0.9-0.5,1.6-1.2,2.1-2.1c0.5-0.9,0.8-1.9,0.8-2.9c0-1-0.3-2-0.8-2.9
		c-0.5-0.9-1.2-1.6-2.1-2.1C316.2,124.4,315.3,124.1,314.2,124.1z"/>
	<path class="st1" d="M337.3,132.3l1.6,0.8c-0.5,1-1.1,1.8-1.8,2.4c-0.7,0.6-1.4,1.1-2.3,1.4c-0.8,0.3-1.8,0.5-2.8,0.5
		c-2.3,0-4.2-0.8-5.5-2.3c-1.3-1.5-2-3.3-2-5.2c0-1.8,0.6-3.4,1.7-4.9c1.4-1.8,3.3-2.7,5.7-2.7c2.4,0,4.4,0.9,5.8,2.8
		c1,1.3,1.6,2.9,1.6,4.9h-12.9c0,1.7,0.6,3,1.6,4.1c1,1.1,2.3,1.6,3.8,1.6c0.7,0,1.4-0.1,2.1-0.4c0.7-0.3,1.3-0.6,1.8-1
		S336.7,133.2,337.3,132.3z M337.3,128.4c-0.2-1-0.6-1.8-1.1-2.4s-1.1-1.1-1.9-1.4c-0.8-0.4-1.6-0.5-2.4-0.5c-1.4,0-2.6,0.5-3.6,1.4
		c-0.7,0.7-1.3,1.6-1.7,3H337.3z"/>
	<path class="st1" d="M342.5,117.2h1.8V137h-1.8V117.2z"/>
	<path class="st1" d="M372.7,122.7h2l4.8,10.4l4.7-10.4h2l-6.6,14.3h-0.3L372.7,122.7z"/>
	<path class="st1" d="M389.6,116.8c0.4,0,0.8,0.1,1.1,0.4c0.3,0.3,0.4,0.7,0.4,1.1c0,0.4-0.1,0.8-0.4,1.1c-0.3,0.3-0.7,0.4-1.1,0.4
		c-0.4,0-0.8-0.1-1.1-0.4c-0.3-0.3-0.4-0.7-0.4-1.1c0-0.4,0.1-0.8,0.4-1.1S389.2,116.8,389.6,116.8z M388.7,122.7h1.8V137h-1.8
		V122.7z"/>
	<path class="st1" d="M408.6,117.2V137h-1.8v-2.5c-0.8,0.9-1.6,1.6-2.6,2.1c-1,0.5-2,0.7-3.2,0.7c-2,0-3.8-0.7-5.2-2.2
		c-1.4-1.5-2.2-3.3-2.2-5.4c0-2.1,0.7-3.8,2.2-5.3c1.4-1.5,3.2-2.2,5.2-2.2c1.2,0,2.2,0.3,3.2,0.8c1,0.5,1.8,1.2,2.5,2.3v-8.2H408.6
		z M401.3,124.1c-1,0-2,0.3-2.8,0.8c-0.9,0.5-1.6,1.2-2.1,2.1c-0.5,0.9-0.8,1.9-0.8,2.9c0,1,0.3,2,0.8,2.9c0.5,0.9,1.2,1.6,2.1,2.1
		c0.9,0.5,1.8,0.8,2.8,0.8c1,0,2-0.3,2.9-0.8c0.9-0.5,1.6-1.2,2.1-2.1c0.5-0.9,0.7-1.8,0.7-2.9c0-1.7-0.5-3-1.6-4.2
		C404.2,124.7,402.9,124.1,401.3,124.1z"/>
	<path class="st1" d="M293.4,125.2L293.4,125.2c-0.7-0.9-1.6-1.7-2.5-2.2c-1-0.5-2-0.8-3.2-0.8c-2,0-3.8,0.7-5.2,2.2
		c-1.4,1.5-2.2,3.2-2.2,5.3c0,2.1,0.7,3.9,2.2,5.4c1.4,1.5,3.2,2.2,5.2,2.2c1.1,0,2.2-0.2,3.2-0.7c1-0.5,1.8-1.2,2.6-2.1v2.5h1.8
		v-5.7C295.1,127.8,294,126,293.4,125.2z M292.8,132.9c-0.5,0.9-1.2,1.6-2.1,2.1s-1.9,0.8-2.9,0.8c-1,0-1.9-0.3-2.8-0.8
		c-0.9-0.5-1.6-1.2-2.1-2.1c-0.5-0.9-0.8-1.9-0.8-2.9c0-1,0.3-2,0.8-2.9c0.5-0.9,1.2-1.6,2.1-2.1c0.9-0.5,1.8-0.8,2.8-0.8
		c1.6,0,2.9,0.6,4,1.7c1.1,1.1,1.6,2.5,1.6,4.2C293.5,131,293.3,132,292.8,132.9z"/>
	<path class="st1" d="M358.7,125.2L358.7,125.2c-0.7-0.9-1.6-1.7-2.5-2.2c-1-0.5-2-0.8-3.2-0.8c-2,0-3.8,0.7-5.2,2.2
		c-1.4,1.5-2.2,3.2-2.2,5.3c0,2.1,0.7,3.9,2.2,5.4c1.4,1.5,3.2,2.2,5.2,2.2c1.1,0,2.2-0.2,3.2-0.7c1-0.5,1.8-1.2,2.6-2.1v2.5h1.8
		v-5.7C360.4,127.8,359.3,126,358.7,125.2z M358.1,132.9c-0.5,0.9-1.2,1.6-2.1,2.1c-0.9,0.5-1.9,0.8-2.9,0.8c-1,0-1.9-0.3-2.8-0.8
		c-0.9-0.5-1.6-1.2-2.1-2.1c-0.5-0.9-0.8-1.9-0.8-2.9c0-1,0.3-2,0.8-2.9c0.5-0.9,1.2-1.6,2.1-2.1c0.9-0.5,1.8-0.8,2.8-0.8
		c1.6,0,2.9,0.6,4,1.7c1.1,1.1,1.6,2.5,1.6,4.2C358.8,131,358.6,132,358.1,132.9z"/>
	<path class="st1" d="M423.5,125.2L423.5,125.2c-0.7-0.9-1.6-1.7-2.5-2.2c-1-0.5-2-0.8-3.2-0.8c-2,0-3.8,0.7-5.2,2.2
		c-1.4,1.5-2.2,3.2-2.2,5.3c0,2.1,0.7,3.9,2.2,5.4c1.4,1.5,3.2,2.2,5.2,2.2c1.1,0,2.2-0.2,3.2-0.7c1-0.5,1.8-1.2,2.6-2.1v2.5h1.8
		v-5.7C425.2,127.8,424.1,126,423.5,125.2z M422.9,132.9c-0.5,0.9-1.2,1.6-2.1,2.1c-0.9,0.5-1.9,0.8-2.9,0.8c-1,0-1.9-0.3-2.8-0.8
		c-0.9-0.5-1.6-1.2-2.1-2.1c-0.5-0.9-0.8-1.9-0.8-2.9c0-1,0.3-2,0.8-2.9c0.5-0.9,1.2-1.6,2.1-2.1c0.9-0.5,1.8-0.8,2.8-0.8
		c1.6,0,2.9,0.6,4,1.7c1.1,1.1,1.6,2.5,1.6,4.2C423.6,131,423.4,132,422.9,132.9z"/>
</g>
</svg>
