<?xml version="1.0" encoding="utf-8"?>
<!-- Generator: Adobe Illustrator 24.1.2, SVG Export Plug-In . SVG Version: 6.00 Build 0)  -->
<svg version="1.1" id="Camada_1" xmlns="http://www.w3.org/2000/svg" xmlns:xlink="http://www.w3.org/1999/xlink" x="0px" y="0px"
	 viewBox="0 0 3000.2 3000.2" style="enable-background:new 0 0 3000.2 3000.2;" xml:space="preserve">
<style type="text/css">
	.st0{fill:#FFFFFF;}
</style>
<path class="st0" d="M3000.2,3000.2c-1000.1,0-2000.2,0-3000.2,0C0,2000.2,0,1000.1,0,0c1000.1,0,2000.2,0,3000.2,0
	C3000.2,1000.1,3000.2,2000.2,3000.2,3000.2z M2126.2,2604.2c85.4,0,170.8,0,256.2,0c2.9,0,5.8,0,8.6,0c1.6,0,3.2,0,4.8-0.2
	c9.7-1.2,17-8.5,18.1-18.3c0.2-1.6,0.2-3.2,0.2-4.8c0-16.6,0-33.3,0-49.9c0-1.6,0-3.2-0.2-4.8c-1.3-10.2-9.1-17.4-19.4-17.9
	c-2.6-0.1-5.1-0.1-7.7-0.1c-14.4,0-28.8,0-43.2,0c-3.5,0-7-0.1-10.5-1.1c-8.1-2.3-13.9-8.8-14.8-17c-0.3-2.9-0.3-5.7-0.3-8.6
	c0-46.4,0-92.8,0-139.2c0-2.6,0.1-5.1,0.2-7.7c0.6-9.7,8.9-17.6,18-18.2c2.9-0.2,5.8-0.2,8.6-0.2c14.4,0,28.8,0,43.2,0
	c2.6,0,5.1,0.1,7.7-0.2c9.8-1.2,17-8.5,18.1-18.3c0.2-1.9,0.2-3.8,0.2-5.7c0-5.1,0-10.2,0-15.4c0-41.6,0-83.2,0-124.8
	c0-2.9,0.1-5.8-0.1-8.6c-0.9-10.7-8.8-18.3-19.4-18.8c-2.6-0.1-5.1-0.1-7.7-0.1c-14.4,0-28.8,0-43.2,0c-3.2,0-6.4-0.1-9.5-0.8
	c-8.5-1.8-15.4-9.4-15.8-18.2c-0.1-2.6-0.2-5.1-0.2-7.7c0-46.4,0-92.8,0-139.2c0-2.6,0.1-5.1,0.2-7.7c0.6-9.6,8.8-17.6,18-18.2
	c2.9-0.2,5.8-0.2,8.6-0.2c14.4,0,28.8,0,43.2,0c2.6,0,5.1,0.1,7.7-0.2c9.8-1.2,17-8.5,18.1-18.3c0.2-1.6,0.2-3.2,0.2-4.8
	c0-16.6,0-33.3,0-49.9c0-1.6,0-3.2-0.2-4.8c-1.3-10.2-9.1-17.4-19.4-17.9c-3.2-0.2-6.4-0.1-9.6-0.1c-107.5,0-215,0-322.5,0
	c-3.2,0-6.4,0.2-9.6-0.1c-2.9-0.2-5.8-0.4-8.5-1.3c-8-2.6-12.7-8.3-13.9-16.7c-0.3-2.5-0.3-5.1-0.3-7.7c0-15,0-30.1,0-45.1
	c0-2.2,0.1-4.5,0.2-6.7c0.6-9.6,8.8-17.6,18-18.2c2.9-0.2,5.8-0.2,8.6-0.2c14.4,0,28.8,0,43.2,0c2.6,0,5.1,0.1,7.7-0.2
	c9.8-1.2,17-8.5,18.1-18.3c0.3-2.5,0.2-5.1,0.2-7.7c0-14.4,0-28.8,0-43.2c0-2.9,0-5.8,0.3-8.6c0.7-9.3,8.7-16.9,17.4-17.7
	c2.5-0.2,5.1-0.3,7.7-0.3c15,0,30.1,0,45.1,0c2.2,0,4.5,0.1,6.7,0.2c7.7,0.4,16.3,6.4,18,16c0.6,3.1,0.8,6.3,0.8,9.5
	c0.1,15,0,30.1,0,45.1c0,2.6,0.1,5.1,0.2,7.7c0.1,2.3,0.9,4.4,2,6.4c3.6,6.8,9.4,10.3,16.9,11c2.2,0.2,4.5,0.1,6.7,0.1
	c14.7,0,29.4,0,44.1,0c1.9,0,3.8,0.1,5.8-0.1c11.6-0.7,19.5-8.7,20.2-20.4c0.2-2.9,0.1-5.8,0.1-8.6c0-44.8,0-89.6,0-134.4
	c0-3.5-0.1-7.1,0.3-10.5c0.9-9.4,8.1-16.6,17.4-17.7c2.9-0.3,5.7-0.3,8.6-0.3c14.4,0,28.8,0,43.2,0c2.6,0,5.1,0.1,7.7-0.2
	c10.2-1.1,17.7-8.7,18.7-18.8c0.2-1.6,0.1-3.2,0.1-4.8c0-16.3,0-32.6,0-48.9c0-1.9,0-3.9-0.3-5.7c-1.5-9.8-9-16.8-18.8-17.4
	c-2.2-0.1-4.5-0.1-6.7-0.1c-110.7,0-221.4,0-332,0c-2.6,0-5.1,0-7.7,0.1c-9.1,0.3-17.7,8.5-18.2,17.9c-0.1,2.6-0.1,5.1-0.1,7.7
	c0,15,0,30.1,0,45.1c0,3.5-0.1,7-1.2,10.4c-2.2,6.9-6.7,11.5-13.7,13.5c-2.4,0.7-5,1-7.6,1.2c-2.5,0.2-5.1,0.1-7.7,0.1
	c-44.8,0-89.6,0-134.4,0c-2.9,0-5.8,0-8.6,0.1c-9.6,0.1-18.4,8.8-18.7,18.4c-0.1,1.9-0.1,3.8-0.1,5.8c0,15.7,0,31.3,0,47
	c0,2.2,0.1,4.5,0.2,6.7c0.1,2.6,1,5,2.3,7.3c3.6,6.3,9.1,9.7,16.2,10.5c2.5,0.3,5.1,0.2,7.7,0.2c14.4,0,28.8,0,43.2,0
	c2.6,0,5.1,0,7.7,0.2c1.9,0.2,3.8,0.5,5.6,1.2c6.3,2.6,10.4,7.1,12.3,13.8c1.1,4.1,1,8.2,1,12.4c0,41.9,0,83.8,0,125.7
	c0,5.1,0.1,10.2-0.1,15.4c-0.1,2.9-0.4,5.8-1.2,8.5c-2,7-6.7,11.5-13.7,13.5c-2.4,0.7-5,1-7.6,1.2c-2.5,0.2-5.1,0.1-7.7,0.1
	c-44.8,0-89.6,0-134.4,0c-2.9,0-5.8,0-8.6,0.1c-9.6,0.1-18.4,8.8-18.7,18.4c-0.1,1.9-0.1,3.8-0.1,5.8c0,15.7,0,31.3,0,47
	c0,2.2,0.1,4.5,0.2,6.7c0.1,2.6,1,5,2.3,7.3c3.6,6.3,9.1,9.7,16.2,10.5c2.5,0.3,5.1,0.2,7.7,0.2c14.4,0,28.8,0,43.2,0
	c2.9,0,5.8-0.1,8.6,0.3c8.4,1.2,14,6,16.6,14c0.8,2.4,1,5,1.2,7.5c0.2,2.5,0.1,5.1,0.1,7.7c0,108.1,0,216.2,0,324.4
	c0,2.6,0.1,5.1-0.1,7.7c-0.1,2.2-0.4,4.5-0.9,6.6c-2,7.8-7.1,12.7-14.8,14.8c-3.1,0.8-6.3,0.9-9.5,0.9c-14.7,0-29.4,0-44.1,0
	c-2.6,0-5.1,0-7.7,0.1c-9.6,0.1-18.4,8.8-18.7,18.4c-0.1,1.9-0.1,3.8-0.1,5.8c0,15.7,0,31.3,0,47c0,2.2,0.1,4.5,0.2,6.7
	c0.1,2.6,1,5,2.3,7.3c3.6,6.3,9.1,9.7,16.2,10.5c2.2,0.3,4.5,0.2,6.7,0.2c47,0,94,0,141.1,0c2.2,0,4.5,0.1,6.7-0.2
	c10.2-1.1,17.7-8.7,18.6-18.8c0.2-2.2,0.1-4.5,0.1-6.7c0-14.4,0-28.8,0-43.2c0-2.9,0-5.8,0.2-8.6c0.6-9.6,8.8-17.6,18-18.2
	c2.5-0.2,5.1-0.2,7.7-0.2c14.7,0,29.4,0,44.1,0c2.2,0,4.5,0.1,6.7,0.1c8,0.3,16.8,6.3,18.6,16.5c0.5,3.1,0.7,6.4,0.7,9.5
	c0.1,14.7,0,29.4,0,44.1c0,2.6,0.1,5.1,0.2,7.7c0.1,2.6,1,5,2.3,7.3c3.6,6.3,9.1,9.7,16.2,10.5c1.9,0.2,3.8,0.1,5.8,0.1
	c15.7,0,31.3,0,47,0c1.9,0,3.9,0,5.8-0.2c10.2-1.1,17.6-8.7,18.6-18.9c0.2-2.2,0.1-4.5,0.1-6.7c0-14.4,0-28.8,0-43.2
	c0-2.9,0-5.8,0.2-8.6c0.6-9.6,8.8-17.5,18-18.2c2.5-0.2,5.1-0.2,7.7-0.2c14.7,0,29.4,0,44.1,0c2.6,0,5.1,0,7.7,0.3
	c1.9,0.2,3.8,0.7,5.5,1.4c6.3,2.6,10.2,7.4,11.9,14.1c1,3.8,0.8,7.6,0.8,11.4c0,45.7,0,91.5,0,137.2c0,1.9,0.1,3.9-0.1,5.8
	c-0.2,2.2-0.5,4.5-1.1,6.6c-2.1,7.4-6.9,12.1-14.3,14.1c-2.4,0.6-5,0.9-7.6,1c-2.9,0.2-5.8,0.1-8.6,0.1c-107.8,0-215.6,0-323.4,0
	c-3.5,0-7,0-10.6,0.1c-9,0.3-17.7,8.5-18.2,17.9c-0.1,1.9-0.1,3.8-0.1,5.8c0,16,0,32,0,48c0,1.9,0,3.8,0.1,5.8
	c0.3,4.7,2.3,8.6,5.4,12c3.7,3.9,8.3,5.9,13.6,6.3c3.2,0.2,6.4,0.1,9.6,0.1C1953.5,2604.2,2039.8,2604.2,2126.2,2604.2z
	 M782.4,1932.4c86.4,0,172.7,0,259.1,0c3.5,0,7,0,10.5,0.2c7.5,0.4,15.6,6.3,17.5,15.4c0.5,2.2,0.7,4.4,0.9,6.6
	c0.2,2.6,0.1,5.1,0.1,7.7c0,44.8,0,89.6,0,134.4c0,3.2,0.1,6.4,0.2,9.6c0.1,3,1.2,5.6,2.7,8.1c3.8,6.2,9.5,9.4,16.6,9.9
	c2.9,0.2,5.8,0.1,8.6,0.1c45.1,0,90.2,0,135.3,0c3.2,0,6.4,0,9.6,0.2c8,0.3,16.4,6.6,18.1,15.9c0.6,3.1,0.8,6.3,0.8,9.5
	c0.1,15,0,30.1,0,45.1c0,2.6,0.1,5.1,0.2,7.7c0.1,2.3,0.9,4.4,1.9,6.4c3.6,6.8,9.3,10.3,16.8,11.1c2.2,0.2,4.5,0.1,6.7,0.1
	c14.4,0,28.8,0,43.2,0c2.9,0,5.8,0,8.6,0.2c7.5,0.5,15.5,6.4,17.6,15.4c0.7,3.2,0.9,6.3,0.9,9.5c0,15,0,30.1,0,45.1
	c0,2.6,0.1,5.1,0.2,7.7c0.1,3,1.2,5.6,2.7,8.1c3.6,5.8,8.9,9,15.7,9.8c2.5,0.3,5.1,0.2,7.7,0.2c14.4,0,28.8,0,43.2,0
	c2.9,0,5.8-0.1,8.6,0.3c8.4,1.2,14,5.9,16.6,13.9c0.9,2.7,1.1,5.6,1.3,8.5c0.2,2.9,0.1,5.8,0.1,8.6c0,107.8,0,215.6,0,323.4
	c0,3.5,0,7,0.1,10.6c0.2,4.7,2.2,8.6,5.3,12c3.7,3.9,8.3,6,13.6,6.4c3.2,0.2,6.4,0.1,9.6,0.1c108.8,0,217.5,0,326.3,0
	c2.2,0,4.5,0,6.7,0c1.3,0,2.6,0,3.8-0.2c9.8-1.2,17-8.5,18.2-18.2c0.2-1.6,0.2-3.2,0.2-4.8c0-16.6,0-33.3,0-49.9
	c0-1.9,0-3.9-0.3-5.7c-1.6-9.8-9.2-16.5-19.1-17c-3.2-0.2-6.4-0.1-9.6-0.1c-76.1,0-152.3,0-228.4,0c-2.9,0-5.8,0.1-8.6-0.1
	c-2.5-0.2-5.1-0.5-7.5-1.3c-8-2.6-12.8-8.2-14-16.6c-0.4-2.8-0.3-5.7-0.3-8.6c0-14.4,0-28.8,0-43.2c0-2.6,0-5.1,0.2-7.7
	c0.2-1.9,0.5-3.9,1.2-5.6c3.1-7.3,8.6-11.9,16.6-12.7c3.5-0.4,7-0.3,10.5-0.3c45.1,0,90.2,0,135.3,0c3.2,0,6.4,0.1,9.6-0.2
	c9.8-1.1,17-8.4,18.2-18.2c0.2-1.6,0.2-3.2,0.2-4.8c0-16.6,0-33.3,0-49.9c0-1.9,0-3.9-0.3-5.7c-1.9-11.5-11.6-17.2-19.1-17.1
	c-2.9,0-5.8,0-8.6,0c-44.5,0-88.9,0-133.4,0c-2.6,0-5.1,0.1-7.7,0c-2.2-0.1-4.5-0.4-6.6-0.8c-8.8-1.6-15.5-9.5-15.9-18.1
	c-0.2-3.2-0.2-6.4-0.2-9.6c0-45.4,0-90.9,0-136.3c0-2.9,0.1-5.8-0.2-8.6c-0.7-6.8-3.9-12.1-9.7-15.7c-2.5-1.5-5.1-2.6-8.1-2.7
	c-2.6-0.1-5.1-0.1-7.7-0.1c-15,0-30.1,0-45.1,0c-3.5,0-7-0.2-10.4-1.1c-8.1-2.2-14-9.7-14.5-17.3c-0.2-2.2-0.2-4.5-0.2-6.7
	c0-15.4,0-30.7,0-46.1c0-2.2,0.1-4.5,0.2-6.7c0.7-9.2,8.7-17.3,18.3-17.9c3.2-0.2,6.4-0.2,9.6-0.2c45.4,0,90.9,0,136.3,0
	c2.9,0,5.8,0.1,8.6-0.2c10.2-1,17.7-8.6,18.8-18.7c0.2-1.6,0.1-3.2,0.1-4.8c0-16.3,0-32.6,0-48.9c0-1.3,0-2.6-0.1-3.8
	c-0.8-12.3-10.7-19.7-19.9-19.5c-3.2,0.1-6.4,0-9.6,0c-75.5,0-151,0-226.5,0c-2.9,0-5.8,0.1-8.6,0c-2.2-0.1-4.5-0.3-6.7-0.7
	c-9.5-1.7-16.1-9.9-16.5-18.7c-0.1-3.5-0.1-7-0.1-10.6c0-75.5,0-151,0-226.5c0-3.2,0-6.4,0-9.6c0-1.6-0.1-3.2-0.3-4.8
	c-1.6-9.8-9.2-16.5-19.1-17.1c-1.6-0.1-3.2-0.1-4.8-0.1c-16,0-32,0-48,0c-1.3,0-2.6,0.1-3.8,0c-10.4-0.3-20.3,8.8-19.9,20.3
	c0.1,2.2,0,4.5,0,6.7c0,14.4,0,28.8,0,43.2c0,3.5-0.1,7-1.1,10.5c-2.1,7.3-6.8,12.2-14.2,14.2c-2.7,0.7-5.7,1.1-8.5,1.1
	c-16.3,0.1-32.6,0.1-48.9,0c-2.8,0-5.7-0.5-8.5-1.1c-8.2-2.1-14-9.7-14.5-17.2c-0.2-2.9-0.2-5.8-0.2-8.6c0-14.4,0-28.8,0-43.2
	c0-2.6,0.1-5.1-0.2-7.7c-1.2-10.2-9-17.4-19.3-18c-1.6-0.1-3.2-0.1-4.8-0.1c-16,0-32,0-48,0c-1.9,0-3.8,0-5.8,0.1
	c-9.1,0.5-17.1,8.7-17.7,17.3c-0.2,2.5-0.2,5.1-0.2,7.7c0,15,0,30.1,0,45.1c0,3.9-0.1,7.7-1.3,11.4c-2.2,6.5-6.5,10.9-13.1,13
	c-2.4,0.8-5,1.1-7.5,1.3c-2.9,0.2-5.8,0.1-8.6,0.1c-89.6,0-179.1,0-268.7,0c-82.9,0-165.7,0-248.6,0c-3.2,0-6.4,0-9.6,0.1
	c-9.1,0.2-17.7,8.5-18.3,17.8c-0.1,1.6-0.1,3.2-0.1,4.8c0,16.6,0,33.3,0,49.9c0,1.6,0,3.2,0.1,4.8c0.3,4.7,2.2,8.6,5.4,12
	c3.7,3.9,8.3,6,13.6,6.4c3.2,0.2,6.4,0.1,9.6,0.1C609.6,1932.4,696,1932.4,782.4,1932.4z M302.7,1643.5c0,86.4,0,172.7,0,259.1
	c0,3.2,0.1,6.4,0,9.6c-0.2,9.9,7.7,19.2,19.3,20.1c2.2,0.2,4.5,0.1,6.7,0.1c12.2,0,24.3,0,36.5,0c4.2,0,8.3,0.1,12.5-0.1
	c12.2-0.5,20.3-8.5,20.9-20.6c0.1-2.9,0-5.8,0-8.6c0-76.5,0-152.9,0-229.4c0-3.5,0-7,0.2-10.6c0.5-9.9,9-18.1,18.7-18.6
	c3.5-0.1,7-0.2,10.6-0.2c107.8,0,215.6,0,323.4,0c3.2,0,6.4,0,9.6,0c12.2,0.1,21.4-9,21.5-21.1c0-2.9,0-5.8,0-8.6
	c0-76.5,0-152.9,0-229.4c0-3.5,0-7,0.2-10.5c0.6-9.6,8.9-17.5,18.1-18.1c3.2-0.2,6.4-0.2,9.6-0.2c45.1,0,90.2,0,135.3,0
	c2.9,0,5.8,0.1,8.6-0.1c11.2-0.7,19.1-8.5,20-19.6c0.1-1.3,0.1-2.6,0.1-3.8c0-16.3,0-32.6,0-48.9c0-1.6,0-3.2-0.1-4.8
	c-1.2-12.3-11.3-18.9-19.6-18.7c-2.9,0.1-5.8,0-8.6,0c-44.5,0-88.9,0-133.4,0c-2.6,0-5.1,0.1-7.7-0.1c-2.5-0.2-5.1-0.4-7.6-1.1
	c-8.1-2.2-13.8-8.8-14.6-17.1c-0.3-3.2-0.3-6.4-0.3-9.6c0-31,0-62.1,0-93.1c0-15,0-30.1,0-45.1c0-2.6,0.1-5.1-0.2-7.7
	c-1.1-10.2-8.9-17.6-19.1-18.2c-2.9-0.2-5.8-0.1-8.6-0.1c-54.7,0-109.4,0-164.1,0c-86.4,0-172.7,0-259.1,0c-3.5,0-7,0-10.6,0.1
	c-9,0.3-17.6,8.6-18.1,18c-0.1,2.6-0.1,5.1-0.1,7.7c0,46.7,0,93.4,0,140.1c0,2.6,0,5.1,0.1,7.7c0.2,4,1.8,7.4,4.2,10.5
	c3.6,4.5,8.3,6.9,13.9,7.6c1.6,0.2,3.2,0.2,4.8,0.2c16.6,0,33.3,0,49.9,0c1,0,1.9,0,2.9-0.1c11.5-0.8,19.4-8.8,20-20.5
	c0.1-2.2,0-4.5,0-6.7c0-14.1,0-28.2,0-42.2c0-2.9,0-5.8,0.3-8.6c1-9.3,8.3-16.5,17.6-17.5c2.5-0.3,5.1-0.3,7.7-0.3
	c47,0,94,0,141.1,0c2.6,0,5.1,0,7.7,0.3c8.4,1.3,13.9,6.1,16.5,14.1c1,3.1,1.2,6.3,1.2,9.5c0,16,0,32,0,48c0,1.6,0,3.2-0.2,4.8
	c-1.3,10.6-8,17.5-18.6,19c-2.5,0.4-5.1,0.3-7.7,0.3c-14.7,0-29.4,0-44.1,0c-2.6,0-5.1,0-7.7,0.2c-8.6,0.5-16.9,8.4-17.5,17.5
	c-0.2,2.2-0.2,4.5-0.2,6.7c0,15.7,0,31.3,0,47c0,2.2,0.1,4.5,0.2,6.7c0.1,2.3,0.8,4.4,1.9,6.4c3.5,6.8,9.2,10.4,16.7,11.3
	c2.5,0.3,5.1,0.1,7.7,0.1c14.4,0,28.8,0,43.2,0c2.6,0,5.1,0,7.7,0.2c7.8,0.5,15.6,6.5,17.7,15.2c0.8,3.5,0.9,7,0.9,10.5
	c0,14.7,0,29.4,0,44.1c0,2.6,0,5.1,0.1,7.7c0.2,4,1.8,7.4,4.3,10.5c3.8,4.8,8.9,7.2,14.9,7.7c2.2,0.2,4.5,0.1,6.7,0.1
	c14.4,0,28.8,0,43.2,0c2.9,0,5.8,0,8.6,0.3c8.3,0.9,15,6.6,17,14.7c0.7,2.8,1,5.7,1.1,8.5c0.1,16.3,0.1,32.6,0,48.9
	c0,2.8-0.4,5.8-1.1,8.5c-1.9,7-6.5,11.7-13.5,13.7c-2.7,0.8-5.7,1.2-8.5,1.2c-16.6,0.1-33.3,0-49.9,0.1c-3.2,0-6.4-0.4-9.4-1.6
	c-7.5-2.9-12-8.3-13.1-16.3c-0.4-2.8-0.3-5.7-0.3-8.6c0-14.4,0-28.8,0-43.2c0-2.6,0.1-5.1-0.1-7.7c-1.2-12.3-11.3-18.9-19.7-18.7
	c-2.9,0.1-5.8,0-8.6,0c-44.5,0-88.9,0-133.4,0c-2.6,0-5.1,0.1-7.7-0.1c-2.5-0.2-5.1-0.5-7.6-1.1c-8.1-2.2-13.7-8.8-14.6-17.1
	c-0.3-2.9-0.3-5.7-0.3-8.6c0-14.4,0-28.8,0-43.2c0-2.6,0.1-5.1-0.2-7.7c-1.2-10.2-8.9-17.5-19.1-18.1c-1.6-0.1-3.2-0.1-4.8-0.1
	c-16,0-32,0-48,0c-1.9,0-3.8,0-5.8,0.1c-8.9,0.4-17.6,8.5-18,18.1c-0.1,3.5-0.1,7-0.1,10.6C302.7,1471.4,302.7,1557.5,302.7,1643.5z
	 M302.7,636.6c0,102.7,0,205.3,0,308c0,3.2,0,6.4,0.1,9.6c0.1,2.6,0.7,5,2,7.3c3.7,6.7,9.3,10.4,16.9,11c2.5,0.2,5.1,0.1,7.7,0.1
	c206.3,0,412.6,0,618.8,0c2.2,0,4.5,0.1,6.7-0.1c11-0.7,19-8.8,19.6-19.8c0.2-3.2,0.1-6.4,0.1-9.6c0-204,0-408.1,0-612.1
	c0-2.6,0-5.1,0-7.7c0-1.3,0-2.6-0.1-3.8c-0.9-11.4-10.7-19-19.6-18.7c-3.2,0.1-6.4,0-9.6,0c-92.7,0-185.5,0-278.2,0
	c-112.3,0-224.5,0-336.8,0c-3.2,0-6.4,0-9.6,0.1c-8.8,0.2-17.6,8.6-17.9,18.1c-0.1,3.2-0.1,6.4-0.1,9.6
	C302.7,431.3,302.7,533.9,302.7,636.6z M2365.8,300.8c-102.3,0-204.7,0-307,0c-2.9,0-5.8,0.1-8.6,0c-10.2-0.5-20.4,8.9-19.9,20.2
	c0.1,2.9,0,5.8,0,8.6c0,80.6,0,161.2,0,241.8c0,124.4,0,248.8,0,373.2c0,3.2,0,6.4,0.1,9.6c0.1,3.3,1.2,6.3,3,9
	c3.6,5.4,8.6,8.5,15,9.2c2.5,0.3,5.1,0.2,7.7,0.2c206.6,0,413.2,0,619.8,0c2.2,0,4.5,0.1,6.7-0.1c11-0.7,18.9-8.8,19.5-19.9
	c0.1-2.9,0.1-5.8,0.1-8.6c0-205,0-410,0-615c0-2.2,0-4.5,0-6.7c0-1.3,0-2.6-0.2-3.8c-1.2-9.7-8.9-17.1-18.6-17.6
	c-3.2-0.2-6.4-0.1-9.6-0.1C2571.1,300.8,2468.4,300.8,2365.8,300.8z M302.7,2364c0,102.7,0,205.3,0,308c0,3.2,0,6.4,0.1,9.6
	c0.1,2.6,0.7,5,1.9,7.3c3.6,6.7,9.2,10.5,16.8,11.2c2.5,0.2,5.1,0.1,7.7,0.1c206.3,0,412.6,0,618.8,0c2.2,0,4.5,0.1,6.7-0.1
	c11-0.6,19.1-8.7,19.8-19.7c0.2-3.2,0.1-6.4,0.1-9.6c0-204.4,0-408.7,0-613.1c0-2.2,0-4.5,0-6.7c0-1.3,0-2.6-0.1-3.8
	c-0.8-11.6-10.7-19.1-19.4-18.9c-2.9,0.1-5.8,0-8.6,0c-56,0-111.9,0-167.9,0c-149.4,0-298.7,0-448.1,0c-3.2,0-6.4,0-9.6,0.1
	c-8.8,0.2-17.7,8.5-18.1,18c-0.1,3.5-0.1,7-0.1,10.6C302.7,2159.3,302.7,2261.7,302.7,2364z M1118.6,1068.6c-70.7,0-141.4,0-212.1,0
	c-3.2,0-6.4,0-9.6,0.1c-9.1,0.3-17.7,8.5-18.2,17.9c-0.1,1.9-0.1,3.8-0.1,5.8c0,16,0,32,0,48c0,1.9,0,3.8,0.1,5.8
	c0.2,4,1.7,7.4,4.1,10.5c3.8,4.8,8.8,7.3,14.8,7.8c3.2,0.3,6.4,0.1,9.6,0.1c76.8,0,153.5,0,230.3,0c3.5,0,7,0,10.5,0.2
	c6.9,0.4,15,5.7,17.2,14.5c0.7,2.8,1.1,5.7,1.1,8.5c0.1,16.3,0.1,32.6,0,48.9c0,2.5-0.3,5.1-0.8,7.6c-1.9,8.2-7.2,13.3-15.4,15.4
	c-3.1,0.8-6.3,0.8-9.5,0.8c-14.7,0-29.4,0-44.1,0c-2.6,0-5.1,0-7.7,0.1c-9.1,0.3-17.7,8.4-18.2,17.9c-0.1,2.2-0.1,4.5-0.1,6.7
	c0,47.3,0,94.7,0,142c0,2.6,0.1,5.1,0.2,7.7c0.1,2.3,0.9,4.4,2,6.4c3.6,6.8,9.4,10.3,16.9,11.1c2.2,0.2,4.5,0.1,6.7,0.1
	c14.4,0,28.8,0,43.2,0c2.9,0,5.8,0.1,8.6,0.2c6.7,0.4,14.8,5.6,17.3,14.5c0.9,3.4,1.1,6.9,1.1,10.5c0,15,0,30.1,0,45.1
	c0,2.6,0.1,5.1,0.2,7.7c0.1,3,1.2,5.6,2.7,8.1c3.6,5.8,9,9,15.7,9.8c1.9,0.2,3.8,0.1,5.8,0.1c15.7,0,31.3,0,47,0
	c1.9,0,3.9,0.1,5.8-0.2c10.2-1.1,17.7-8.6,18.7-18.8c0.2-2.2,0.1-4.5,0.1-6.7c0-14.4,0-28.8,0-43.2c0-2.9,0-5.8,0.2-8.6
	c0.6-9.7,8.8-17.6,17.9-18.2c2.5-0.2,5.1-0.2,7.7-0.2c14.7,0,29.4,0,44.1,0c2.2,0,4.5,0.1,6.7,0.1c8.2,0.3,16.9,6.5,18.6,16.5
	c0.5,3.1,0.7,6.4,0.7,9.5c0.1,14.7,0,29.4,0,44.1c0,2.6,0.1,5.1,0.2,7.7c0.1,2.6,1,5,2.3,7.3c3.6,6.3,9.1,9.7,16.2,10.6
	c2.2,0.3,4.5,0.2,6.7,0.2c15,0,30.1,0,45.1,0c1.9,0,3.8,0.1,5.8-0.1c11.1-0.8,18.9-8.7,19.7-19.9c0.2-2.9,0.1-5.8,0.1-8.6
	c0-44.8,0-89.6,0-134.4c0-3.2,0-6.4,0.1-9.6c0.4-11,9.5-19,19-19.3c2.6-0.1,5.1-0.1,7.7-0.1c14.4,0,28.8,0,43.2,0
	c2.6,0,5.1,0.1,7.7-0.2c9.8-1.2,17-8.5,18.2-18.3c0.2-1.6,0.2-3.2,0.2-4.8c0-16.6,0-33.3,0-49.9c0-1.6,0-3.2-0.2-4.8
	c-1.3-10.2-9.1-17.4-19.3-17.9c-1.6-0.1-3.2-0.1-4.8-0.1c-48,0-96,0-143.9,0c-1.9,0-3.8,0-5.8,0.1c-9.1,0.6-17.1,8.7-17.7,17.4
	c-0.2,2.5-0.2,5.1-0.2,7.7c0,15,0,30.1,0,45.1c0,3.5-0.1,7-1.1,10.5c-2.2,7.3-6.9,12.2-14.3,14.1c-2.8,0.7-5.7,1-8.5,1.1
	c-6.4,0.2-12.8,0.1-19.2,0.1c-9.6,0-19.2,0-28.8,0c-3.6,0-7.1-0.3-10.4-1.5c-7.5-2.8-12.1-8.2-13.3-16.1c-0.4-2.8-0.4-5.7-0.4-8.6
	c0-46.7,0-93.4,0-140.1c0-2.6,0.1-5.1,0.3-7.7c0.7-9.4,8.8-16.9,17.4-17.7c2.9-0.3,5.7-0.3,8.6-0.3c14.4,0,28.8,0,43.2,0
	c2.6,0,5.1,0.1,7.7-0.2c10.2-1.1,17.6-8.6,18.7-18.8c0.2-1.6,0.1-3.2,0.1-4.8c0-16.3,0-32.6,0-48.9c0-1.3,0-2.6-0.1-3.8
	c-0.8-12.2-10.7-19.6-20-19.4c-3.2,0.1-6.4,0-9.6,0C1258.7,1068.6,1188.7,1068.6,1118.6,1068.6z M1597.2,492.7c39,0,78.1,0,117.1,0
	c2.9,0,5.8,0.1,8.6-0.1c10.6-0.9,18.4-8.6,19.3-19.2c0.2-2.9,0.1-5.8,0.1-8.6c0-37.1,0-74.2,0-111.3c0-9.3,0-18.6,0-27.8
	c0-2.2,0.1-4.5-0.2-6.7c-1.3-10.2-9-17.4-19.3-18c-1.6-0.1-3.2-0.1-4.8-0.1c-16,0-32,0-48,0c-1.6,0-3.2,0-4.8,0.1
	c-9.7,0.1-18.5,8.8-18.8,18.3c-0.1,2.6-0.1,5.1-0.1,7.7c0,14.7,0,29.4,0,44.1c0,3.5-0.1,7-1.1,10.5c-2.1,7.4-6.8,12.2-14.2,14.2
	c-2.4,0.7-5,0.9-7.6,1.1c-2.5,0.2-5.1,0.1-7.7,0.1c-76.1,0-152.3,0-228.4,0c-3.2,0-6.4,0.1-9.6,0c-10.1-0.1-19.6,8.9-19.4,19.8
	c0,2.6,0,5.1,0,7.7c0,14.4,0,28.8,0,43.2c0,3.5-0.1,7-1.2,10.4c-2.1,6.9-6.7,11.6-13.6,13.6c-2.7,0.8-5.7,1.2-8.5,1.2
	c-16.6,0.1-33.3,0.1-49.9,0c-2.8,0-5.8-0.4-8.5-1.3c-8-2.6-12.8-8.2-13.9-16.6c-0.4-2.8-0.3-5.7-0.3-8.6c0-19.8,0-39.7,0-59.5
	c0-26.2,0-52.5,0-78.7c0-2.6,0.1-5.1-0.1-7.7c-0.7-12.3-10.7-19.7-19.8-19.5c-1.6,0-3.2,0-4.8,0c-15.7,0-31.3,0-47,0
	c-1.6,0-3.2,0.1-4.8,0c-10.1-0.1-19.6,8.9-19.4,19.8c0,2.6,0,5.1,0,7.7c0,14.4,0,28.8,0,43.2c0,3.2-0.1,6.4-0.9,9.5
	c-2.1,7.8-7,12.7-14.8,14.8c-3.4,1-7,1-10.5,1c-14.4,0-28.8,0-43.2,0c-2.6,0-5.1,0-7.7,0.1c-9.8,0.1-18.5,8.8-18.8,18.3
	c-0.1,1.6-0.1,3.2-0.1,4.8c0,16.3,0,32.6,0,48.9c0,1.9,0.1,3.8,0.2,5.8c0.1,3,1.2,5.6,2.7,8.1c3.6,5.8,8.9,9,15.7,9.8
	c2.5,0.3,5.1,0.2,7.7,0.2c14.4,0,28.8,0,43.2,0c2.9,0,5.8-0.1,8.6,0.3c8.4,1.2,14,5.9,16.6,13.9c0.9,2.7,1.2,5.7,1.3,8.5
	c0.1,16.6,0.1,33.3,0,49.9c0,2.5-0.3,5.1-0.9,7.6c-2,7.8-7,12.7-14.8,14.8c-3.4,0.9-7,1-10.5,1c-14.4,0-28.8,0-43.2,0
	c-2.6,0-5.1,0-7.7,0.1c-9.7,0.1-18.5,8.8-18.8,18.3c-0.1,1.6-0.1,3.2-0.1,4.8c0,16.3,0,32.6,0,48.9c0,1.9,0.1,3.8,0.2,5.8
	c0.1,3,1.2,5.6,2.7,8.1c3.6,5.8,9,9,15.7,9.8c2.2,0.3,4.5,0.2,6.7,0.2c47,0,94,0,141.1,0c2.2,0,4.5,0.1,6.7-0.2
	c10.2-1.1,17.7-8.6,18.7-18.8c0.2-2.2,0.1-4.5,0.1-6.7c0-14.4,0-28.8,0-43.2c0-2.9,0.1-5.8,0.2-8.6c0.5-9.5,8.7-18,18.8-18.4
	c1.9-0.1,3.8-0.1,5.8-0.1c15.4,0,30.7,0,46.1,0c2.2,0,4.5,0.1,6.7,0.2c7.3,0.5,15.5,6.3,17.5,15.4c0.7,3.2,0.9,6.3,0.9,9.5
	c0,15,0,30.1,0,45.1c0,2.6,0.1,5.1,0.2,7.7c0.1,3,1.2,5.6,2.7,8.1c3.6,5.8,9,9,15.7,9.8c2.2,0.3,4.5,0.2,6.7,0.2c15,0,30.1,0,45.1,0
	c1.9,0,3.8,0.1,5.8-0.1c11.1-0.8,19-8.7,19.7-19.8c0.2-2.9,0.1-5.8,0.1-8.6c0-45.1,0-90.2,0-135.3c0-3.2,0-6.4,0.2-9.6
	c0.5-9.4,8.6-18,18.8-18.4c3.2-0.1,6.4-0.1,9.6-0.1C1521.1,492.7,1559.2,492.7,1597.2,492.7z M1646.4,1260.3c0,23,0,46.1,0,69.1
	c0,2.9,0,5.8,0.1,8.6c0.2,4.7,2.2,8.6,5.3,12c3.7,3.9,8.3,6,13.5,6.4c2.2,0.2,4.5,0.1,6.7,0.1c46.7,0,93.4,0,140.1,0
	c2.2,0,4.5,0.1,6.7-0.1c10.6-0.9,18.4-8.6,19.3-19.2c0.2-2.2,0.1-4.5,0.1-6.7c0-14.7,0-29.4,0-44.1c0-2.9,0-5.8,0.4-8.6
	c1.1-8.8,8.3-15.8,17.1-16.9c2.5-0.3,5.1-0.3,7.7-0.3c15,0,30.1,0,45.1,0c2.6,0,5.1,0,7.7,0.3c8.2,0.9,14.9,6.7,17,14.8
	c0.6,2.5,1,5,1,7.6c0.1,16.9,0.1,33.9,0,50.8c0,2.2-0.4,4.5-0.9,6.6c-1.9,7.8-6.9,12.7-14.7,14.9c-3.4,1-6.9,1-10.5,1
	c-14.7,0-29.4,0-44.1,0c-2.6,0-5.1,0-7.7,0.1c-9,0.4-17.6,8.7-17.9,18.1c-0.1,2.2-0.1,4.5-0.1,6.7c0,15.4,0,30.7,0,46.1
	c0,2.2,0.1,4.5,0.1,6.7c0.1,3.3,1.3,6.3,3.1,8.9c3.6,5.4,8.8,8.3,15.1,9.1c2.2,0.3,4.5,0.2,6.7,0.2c47,0,94,0,141,0
	c1.9,0,3.8,0.1,5.8-0.1c11.2-0.7,19.1-8.5,19.9-19.6c0.2-2.2,0.1-4.5,0.1-6.7c0-14.4,0-28.8,0-43.2c0-2.9,0-5.8,0.3-8.6
	c1-9.3,8.3-16.5,17.6-17.5c2.9-0.3,5.7-0.3,8.6-0.3c14.4,0,28.8,0,43.2,0c2.2,0,4.5,0.1,6.7-0.1c11.1-0.9,18.8-8.8,19.5-20
	c0.1-1,0.1-1.9,0.1-2.9c0-16.6,0-33.3,0-49.9c0-1.9,0-3.9-0.3-5.7c-1.5-9.8-9.1-16.7-18.9-17.3c-2.6-0.1-5.1-0.1-7.7-0.1
	c-14.7,0-29.4,0-44.1,0c-3.2,0-6.4-0.2-9.5-0.9c-8-1.9-14.6-9.2-15.2-17.7c-0.2-2.2-0.2-4.5-0.2-6.7c0-7,0-14.1,0-21.1
	c0-39.3,0-78.7,0-118c0-2.9,0.1-5.8-0.1-8.6c-1.1-12.5-11.3-19-19.5-18.8c-1.3,0-2.6,0-3.8,0c-16.3,0-32.6,0-48.9,0
	c-1.9,0-3.8,0-5.8,0.1c-8.9,0.6-17,8.6-17.6,17.4c-0.2,2.5-0.2,5.1-0.2,7.7c0,15,0,30.1,0,45.1c0,3.2,0,6.4-0.8,9.5
	c-2.1,8.2-7.3,13.3-15.5,15.3c-2.2,0.5-4.4,0.8-6.6,0.8c-16.9,0.1-33.9,0.1-50.8,0c-2.2,0-4.4-0.5-6.6-0.9
	c-8.1-1.7-14.7-9.1-15.3-17.6c-0.2-2.9-0.2-5.8-0.2-8.6c0-14.4,0-28.8,0-43.2c0-2.6,0.1-5.1-0.2-7.7c-1.3-10.2-9.1-17.3-19.3-17.9
	c-1.3-0.1-2.6-0.1-3.8-0.1c-16.6,0-33.3,0-49.9,0c-1.6,0-3.2,0-4.8,0.1c-9.1,0.6-17.1,8.7-17.7,17.4c-0.2,2.5-0.2,5.1-0.2,7.7
	c0,15,0,30.1,0,45.1c0,3.2,0,6.4-0.8,9.5c-2.1,8.2-7.2,13.3-15.4,15.4c-3.1,0.8-6.3,0.8-9.5,0.8c-14.7,0-29.4,0-44.1,0
	c-2.6,0-5.1,0-7.7,0.1c-9.1,0.3-17.7,8.5-18.2,17.9c-0.2,2.9-0.1,5.8-0.1,8.6C1646.4,1214.2,1646.4,1237.2,1646.4,1260.3z
	 M2702.1,1884c0-61.4,0-122.8,0-184.3c0-9.9,0-19.8,0-29.8c0-2.2,0.1-4.5-0.1-6.7c-1.2-12.5-11.3-19-19.5-18.8c-1.6,0-3.2,0-4.8,0
	c-79.7,0-159.3,0-239,0c-2.2,0-4.5,0-6.7,0.1c-8.9,0.6-17,8.6-17.6,17.5c-0.2,2.2-0.2,4.5-0.2,6.7c0,15.7,0,31.3,0,47
	c0,2.2,0.1,4.5,0.2,6.7c0.1,2.6,1,5,2.3,7.2c3.6,6.3,9.1,9.7,16.3,10.5c2.5,0.3,5.1,0.2,7.7,0.2c14.1,0,28.2,0,42.2,0
	c2.6,0,5.1,0.1,7.7,0.1c8.2,0.2,17.3,6.1,19.1,17.1c0.4,2.8,0.5,5.7,0.6,8.6c0.1,14.7,0,29.4,0,44.1c0,2.6,0,5.1,0.1,7.7
	c0.2,4,1.8,7.4,4.2,10.5c3.8,4.8,8.9,7.2,14.9,7.7c2.2,0.2,4.5,0.1,6.7,0.1c14.4,0,28.8,0,43.2,0c2.9,0,5.8,0,8.6,0.3
	c1.9,0.2,3.8,0.7,5.5,1.4c6.3,2.7,10.2,7.4,11.9,14.1c0.9,3.8,0.8,7.6,0.8,11.4c0,45.7,0,91.5,0,137.2c0,1.9,0.1,3.9-0.1,5.8
	c-0.2,2.2-0.5,4.5-1.1,6.6c-2,7-6.5,11.6-13.4,13.8c-2.4,0.8-5,1-7.5,1.2c-2.5,0.2-5.1,0.1-7.7,0.1c-44.8,0-89.6,0-134.4,0
	c-3.2,0-6.4,0-9.6,0.1c-9,0.3-17.6,8.5-18.1,18c-0.1,1.9-0.1,3.8-0.1,5.8c0,16,0,32,0,48c0,1.9,0,3.8,0.1,5.8c0.2,4.3,2,8,4.8,11.2
	c3.8,4.3,8.6,6.6,14.3,7c2.5,0.2,5.1,0.1,7.7,0.1c78.1,0,156.1,0,234.2,0c2.2,0,4.5,0.1,6.7-0.1c11.6-0.7,19.5-8.8,20.1-20.5
	c0.1-2.9,0.1-5.8,0.1-8.6C2702.1,2024.8,2702.1,1954.4,2702.1,1884z M1070.5,2459.9c0,70.7,0,141.4,0,212c0,3.2,0,6.4,0.1,9.6
	c0.1,3.3,1.2,6.3,2.9,9c3.7,5.7,9.1,8.9,15.9,9.5c2.9,0.3,5.8,0.1,8.6,0.1c77.7,0,155.4,0,233.1,0c1.9,0,3.8,0,5.8,0
	c12.2,0.1,21.4-9,21.5-21.1c0-2.6,0-5.1,0-7.7c0-76.8,0-153.5,0-230.3c0-2.6,0.1-5.1-0.1-7.7c-0.1-1.9-0.3-3.8-0.7-5.7
	c-2.1-9.5-10.8-15.5-18.5-15.4c-1.6,0-3.2-0.1-4.8-0.1c-16,0-32,0-48,0c-1.9,0-3.8,0-5.8,0.1c-9,0.3-17.7,8.6-18.1,18
	c-0.2,3.2-0.1,6.4-0.1,9.6c0,44.8,0,89.5,0,134.3c0,2.6,0,5.1,0,7.7c-0.3,13.4-8.8,22.1-22.5,22.2c-16.9,0.1-33.9,0.1-50.9,0
	c-2.8,0-5.8-0.4-8.5-1.3c-8-2.7-12.7-8.3-13.8-16.7c-0.4-2.8-0.3-5.7-0.3-8.6c0-46.4,0-92.7,0-139.1c0-2.6,0.1-5.1,0.2-7.7
	c0.6-9.7,8.8-17.6,17.9-18.2c2.9-0.2,5.8-0.2,8.6-0.2c14.4,0,28.8,0,43.2,0c2.6,0,5.1,0.1,7.7-0.2c9.7-1.2,17-8.5,18.2-18.3
	c0.2-1.6,0.2-3.2,0.2-4.8c0-16.6,0-33.3,0-49.9c0-1.6,0-3.2-0.2-4.8c-1.3-10.2-9.1-17.4-19.3-17.9c-2.6-0.1-5.1-0.1-7.7-0.1
	c-14.7,0-29.4,0-44.1,0c-3.5,0-7.1-0.2-10.4-1.3c-8-2.8-12.7-8.3-13.9-16.7c-0.4-2.8-0.3-5.7-0.3-8.6c0-14.4,0-28.8,0-43.2
	c0-2.2,0.1-4.5-0.1-6.7c-0.8-12.4-10.8-19.7-19.9-19.4c-1.6,0-3.2,0-4.8,0c-15.7,0-31.3,0-47,0c-0.6,0-1.3,0.1-1.9,0
	c-12.7-1.1-23.4,8.8-22.3,22.7c0.2,2.9,0,5.8,0,8.6C1070.5,2321.1,1070.5,2390.5,1070.5,2459.9z M1839,588.7c-23,0-46,0-69.1,0
	c-2.6,0-5.1,0.1-7.7,0c-10.7-0.3-19.9,9-19.8,19.3c0,2.9,0,5.8,0,8.6c0,44.8,0,89.5,0,134.3c0,2.6,0.1,5.1-0.1,7.7
	c-0.2,2.5-0.5,5.1-1.2,7.5c-2,6.5-6.4,11-12.9,13.1c-2.4,0.8-5,1.1-7.5,1.3c-2.5,0.2-5.1,0.1-7.7,0.1c-45.1,0-90.2,0-135.3,0
	c-3.2,0-6.4,0-9.6,0.2c-8.4,0.5-16.8,8.3-17.5,17.6c-0.2,2.2-0.2,4.5-0.2,6.7c0,15.7,0,31.3,0,47c0,2.2,0.1,4.5,0.2,6.7
	c0.1,2.3,0.8,4.4,1.9,6.4c3.5,6.8,9.3,10.4,16.7,11.2c2.5,0.3,5.1,0.1,7.7,0.1c14.4,0,28.8,0,43.2,0c2.6,0,5.1,0,7.7,0.2
	c7.8,0.5,15.7,6.5,17.7,15.2c0.8,3.5,0.9,7,0.9,10.5c0,14.7,0,29.4,0,44.1c0,2.6,0.1,5.1,0.1,7.7c0.1,3,1.1,5.6,2.6,8.1
	c3.5,5.9,8.9,9.1,15.6,10c1.6,0.2,3.2,0.2,4.8,0.2c16.6,0,33.3,0,49.9,0c1.3,0,2.6,0,3.8-0.1c10.6-1,18.2-8.8,19-19.5
	c0.2-2.2,0.1-4.5,0.1-6.7c0-14.4,0-28.8,0-43.2c0-2.9,0-5.8,0.3-8.6c1-9.3,8.2-16.6,17.5-17.6c2.8-0.3,5.7-0.3,8.6-0.3
	c14.4,0,28.8,0,43.2,0c2.6,0,5.1,0.1,7.7-0.2c10.2-1.1,17.6-8.7,18.6-18.9c0.2-2.2,0.1-4.5,0.1-6.7c0-14.4,0-28.8,0-43.2
	c0-2.9,0-5.8,0.2-8.6c0.6-9.5,8.7-17.5,18-18.2c2.9-0.2,5.7-0.2,8.6-0.2c14.4,0,28.8,0,43.2,0c2.2,0,4.5,0.1,6.7-0.1
	c10.6-0.9,18.3-8.7,19.2-19.4c0.2-2.9,0.1-5.8,0.1-8.6c0-37.7,0-75.5,0-113.2c0-8.6,0-17.3,0-25.9c0-2.2,0.1-4.5-0.2-6.7
	c-1.3-10.2-9-17.4-19.3-17.9c-2.6-0.1-5.1-0.1-7.7-0.1C1884.4,588.7,1861.7,588.7,1839,588.7z M1454.4,1836c0,23.3,0,46.7,0,70
	c0,2.9,0.1,5.8,0.2,8.6c0.1,2.3,0.8,4.4,1.9,6.4c3.6,6.8,9.3,10.4,16.8,11.2c2.2,0.2,4.5,0.1,6.7,0.1c46.7,0,93.4,0,140,0
	c1.6,0,3.2,0,4.8,0c12,0.1,21.4-8.9,21.5-21.1c0-2.2,0-4.5,0-6.7c0-13.7,0-27.5,0-41.2c0-2.9,0-5.8,0.2-8.6
	c0.6-9.5,8.8-17.5,18.1-18.1c2.9-0.2,5.7-0.2,8.6-0.2c14.4,0,28.8,0,43.2,0c2.2,0,4.5,0.1,6.7-0.1c10.6-1,18.2-8.8,19.1-19.4
	c0.2-1.9,0.1-3.8,0.1-5.8c0-6.4,0-12.8,0-19.2c0-40,0-79.9,0-119.9c0-2.9,0.1-5.8-0.1-8.6c-1.1-12.5-11.3-19-19.4-18.8
	c-1.9,0-3.8,0-5.8,0c-47.3,0-94.6,0-142,0c-2.2,0-4.5,0-6.7,0.1c-9.1,0.5-17.1,8.7-17.7,17.3c-0.2,2.5-0.2,5.1-0.2,7.7
	c0,15,0,30.1-0.1,45.1c0,3.2-0.2,6.4-0.9,9.5c-1.8,8.3-7.1,13.3-15.3,15.4c-3.1,0.8-6.3,0.8-9.5,0.8c-14.7,0-29.4,0-44.1,0
	c-2.6,0-5.1,0-7.7,0.1c-9.2,0.2-18.2,8.7-18.4,18.7c0,2.6-0.1,5.1-0.1,7.7C1454.4,1790,1454.4,1813,1454.4,1836z M2557.5,2700.2
	c39,0,78,0,117,0c2.9,0,5.8,0.1,8.6-0.1c10.2-1,17.7-8.5,18.8-18.6c0.2-1.6,0.1-3.2,0.1-4.8c0-16.3,0-32.6,0-48.9
	c0-1.6,0-3.2-0.1-4.8c-1.3-12.2-11.3-18.9-19.7-18.6c-2.6,0.1-5.1,0-7.7,0c-14.4,0-28.8,0-43.2,0c-3.5,0-7-0.1-10.4-1.1
	c-8.1-2.3-13.7-8.9-14.6-17.2c-0.3-2.9-0.3-5.7-0.3-8.6c0-14.4,0-28.8,0-43.2c0-2.6,0.1-5.1-0.2-7.7c-1.1-10.2-8.9-17.6-19.1-18.2
	c-1.6-0.1-3.2-0.1-4.8-0.1c-16,0-32,0-48,0c-1.9,0-3.8,0-5.8,0.1c-9.1,0.4-17.6,8.7-18.1,18c-0.1,2.6-0.1,5.1-0.1,7.7
	c0,14.7,0,29.4,0,44.1c0,3.5,0,7-1,10.5c-2.2,7.8-7.1,12.6-14.9,14.7c-3.1,0.8-6.3,0.9-9.5,0.9c-14.7,0-29.4,0-44.1,0
	c-2.6,0-5.1,0-7.7,0.1c-9.6,0.1-18.4,8.8-18.7,18.4c-0.1,1.9-0.1,3.8-0.1,5.8c0,15.7,0,31.3,0,47c0,2.2,0.1,4.5,0.2,6.7
	c0.1,2.6,1,5,2.3,7.3c3.6,6.3,9.1,9.7,16.2,10.6c2.8,0.3,5.7,0.2,8.6,0.2C2480.1,2700.2,2518.8,2700.2,2557.5,2700.2z
	 M2126.3,1163.7c0,23.3,0,46.7,0,70c0,2.9,0.1,5.8,0.1,8.6c0.1,3.3,1.3,6.3,3.1,8.9c3.6,5.4,8.7,8.3,15.1,9.1
	c2.5,0.3,5.1,0.2,7.7,0.2c14.4,0,28.8,0,43.2,0c2.9,0,5.8,0,8.6,0.3c8.3,0.9,14.8,6.6,17.1,14.7c1,3.4,1.1,6.9,1.1,10.5
	c0,14.4,0,28.8,0,43.2c0,2.6,0.1,5.1,0,7.7c-0.2,8.5,6.6,18.4,18.7,19.6c1.6,0.2,3.2,0.1,4.8,0.1c16.3,0,32.6,0,48.9,0
	c1.6,0,3.2,0,4.8-0.2c10.1-1.2,17.6-8.7,18.6-18.9c0.2-2.5,0.1-5.1,0.1-7.7c0-24.9,0-49.9,0-74.8c0-21.1,0-42.2,0-63.3
	c0-2.6,0.1-5.1-0.1-7.7c-0.8-12.2-10.6-19.6-19.9-19.4c-2.6,0.1-5.1,0-7.7,0c-14.4,0-28.8,0-43.2,0c-3.5,0-7-0.2-10.4-1.2
	c-8-2.2-13.9-9.6-14.4-17.3c-0.2-2.9-0.2-5.7-0.2-8.6c0-14.4,0-28.8,0-43.2c0-2.6,0.1-5.1-0.2-7.7c-1.2-10.2-9-17.4-19.2-18
	c-1.6-0.1-3.2-0.1-4.8-0.1c-16,0-32,0-48,0c-1.9,0-3.8,0-5.8,0.1c-9,0.5-17.5,8.7-17.9,18.2c-0.1,2.9-0.1,5.8-0.1,8.6
	C2126.3,1118.3,2126.3,1141,2126.3,1163.7z M1454.4,1020.4c0,39,0,78.1,0,117.1c0,2.9-0.1,5.8,0.1,8.6c0.7,8.1,5.2,13.6,12.5,16.8
	c2.6,1.2,5.5,1.7,8.4,1.6c4.5,0,9,0,13.4,0c43.2,0,86.4,0,129.6,0c2.9,0,5.8,0.1,8.6-0.1c10.6-0.9,18.3-8.7,19.2-19.4
	c0.1-1.3,0.1-2.6,0.1-3.8c0-16.6,0-33.3,0-49.9c0-1.6,0-3.2-0.2-4.8c-1.3-10.2-9.1-17.3-19.4-17.9c-2.6-0.1-5.1-0.1-7.7-0.1
	c-14.4,0-28.8,0-43.2,0c-3.2,0-6.4-0.1-9.5-0.8c-8.5-1.8-15.4-9.5-15.8-18.2c-0.2-3.2-0.2-6.4-0.2-9.6c0-45.1,0-90.2,0-135.3
	c0-2.9,0.1-5.8-0.1-8.6c-0.8-12.1-10.6-19.6-20-19.3c-1.3,0-2.6,0-3.8,0c-16,0-32,0-48,0c-1.9,0-3.8,0-5.8,0.1
	c-9.1,0.3-17.7,8.6-18.2,17.9c-0.2,3.2-0.1,6.4-0.1,9.6C1454.4,943,1454.4,981.7,1454.4,1020.4z M1695,1548.5c38.4,0,76.8,0,115.2,0
	c2.6,0,5.1,0.1,7.7-0.1c11.7-0.6,19.7-8.6,20.5-20.1c0.1-1,0.1-1.9,0.1-2.9c0-16.6,0-33.3,0-49.9c0-1.9,0-3.9-0.3-5.7
	c-1.6-9.8-9.1-16.7-19-17.2c-2.9-0.2-5.8-0.1-8.6-0.1c-44.8,0-89.6,0-134.4,0c-2.6,0-5.1,0.2-7.7-0.1c-2.8-0.3-5.8-0.5-8.5-1.5
	c-7.5-2.7-12.1-8.2-13.2-16.2c-0.4-2.8-0.3-5.7-0.3-8.6c0-14.4,0-28.8,0-43.2c0-2.6,0.1-5.1-0.1-7.7c-1.2-12.3-11.3-18.9-19.6-18.7
	c-1.3,0-2.6,0-3.8,0c-16.3,0-32.6,0-48.9,0c-1.9,0-3.8,0-5.8,0.2c-8.5,0.5-16.8,8.3-17.5,17.6c-0.2,2.5-0.2,5.1-0.2,7.7
	c0,47,0,94,0,141.1c0,2.6,0.1,5.1,0.2,7.7c0.1,2.3,0.8,4.4,1.9,6.4c3.5,6.8,9.3,10.4,16.8,11.2c2.9,0.3,5.8,0.2,8.6,0.2
	C1616.9,1548.5,1655.9,1548.5,1695,1548.5z M2606.6,2316.3c-23.4,0-46.7,0-70.1,0c-2.9,0-5.8,0-8.6,0.2c-8.8,0.5-17,8.5-17.6,17.5
	c-0.2,2.2-0.2,4.5-0.2,6.7c0,15.7,0,31.3,0,47c0,2.2,0.1,4.5,0.2,6.7c0.1,2.6,1,5,2.3,7.2c3.6,6.3,9.1,9.7,16.3,10.5
	c2.5,0.3,5.1,0.2,7.7,0.2c14.1,0,28.1,0,42.2,0c2.6,0,5.1,0.1,7.7,0.1c8.2,0.2,17.3,6.1,19.1,17.1c0.4,2.8,0.5,5.7,0.6,8.6
	c0.1,14.7,0,29.4,0,44.1c0,2.6,0,5.1,0.1,7.7c0.1,2.9,1.1,5.6,2.6,8.1c3.5,5.9,8.8,9.1,15.5,10c1.9,0.3,3.8,0.2,5.7,0.2
	c16,0,32,0,48,0c1.6,0,3.2,0,4.8-0.1c10.6-1,18.2-8.8,19.1-19.5c0.2-2.2,0.1-4.5,0.1-6.7c0-9.9,0-19.8,0-29.7c0-36.1,0-72.3,0-108.4
	c0-2.9,0.1-5.8-0.1-8.6c-1.1-12.5-11.4-19-19.5-18.8c-2.6,0.1-5.1,0-7.7,0C2652,2316.3,2629.3,2316.3,2606.6,2316.3z M1262.5,829.3
	c0,38.7,0,77.4,0,116c0,2.9,0,5.8,0.1,8.6c0.1,2.9,1,5.6,2.4,8.2c3.7,6.3,9.2,9.6,16.3,10.4c1.9,0.2,3.8,0.1,5.7,0.1
	c15.3,0,30.7,0,46,0c1.6,0,3.2,0,4.8,0c11.7-0.7,19.7-8.6,20.4-20.1c0.1-1.6,0.1-3.2,0.1-4.8c0-79.3,0-158.6,0-237.8
	c0-1.9,0-3.8-0.1-5.8c-0.8-12.1-10.6-19.6-20-19.3c-1.3,0-2.6,0-3.8,0c-16.3,0-32.6,0-48.9,0c-1.6,0-3.2,0-4.8,0.1
	c-9.1,0.3-17.7,8.5-18.2,17.9c-0.2,3.2-0.1,6.4-0.1,9.6C1262.5,751.3,1262.5,790.3,1262.5,829.3z M2606.3,1452.5
	c-23.3,0-46.7,0-70,0c-2.6,0-5.1,0-7.7,0.1c-9.2,0.2-18.2,8.7-18.4,18.7c0,1.9-0.1,3.8-0.1,5.8c0,15.7,0,31.3,0,47
	c0,1.6,0.1,3.2,0,4.8c-0.1,8,6,17.7,17.9,19.4c1.9,0.3,3.8,0.2,5.7,0.2c47.9,0,95.9,0,143.8,0c1.9,0,3.8,0,5.7-0.2
	c10.1-1.1,17.6-8.7,18.6-18.9c0.1-1,0.1-1.9,0.1-2.9c0-17.6,0-35.2,0-52.7c0-2.2-0.4-4.5-0.9-6.6c-2.2-8.7-10.6-14.6-18.1-14.6
	c-2.6,0-5.1-0.1-7.7-0.1C2652.3,1452.5,2629.3,1452.5,2606.3,1452.5z M878.7,1644.5c-23.3,0-46.7,0-70,0c-2.6,0-5.1,0-7.7,0.1
	c-9.1,0.2-18.2,8.6-18.4,18.7c0,1.9-0.1,3.8-0.1,5.8c0,15.7,0,31.3,0,47c0,1.6,0.1,3.2,0,4.8c-0.1,7.9,6,17.7,17.9,19.4
	c1.9,0.3,3.8,0.2,5.7,0.2c47.9,0,95.9,0,143.8,0c1.9,0,3.8,0,5.7-0.2c10.1-1.1,17.6-8.7,18.6-18.9c0.1-1,0.1-1.9,0.1-2.9
	c0-17.6,0-35.2,0-52.7c0-2.2-0.4-4.5-0.9-6.6c-2.2-8.7-10.6-14.6-18.1-14.6c-2.6,0-5.1-0.1-7.7-0.1
	C924.7,1644.5,901.7,1644.5,878.7,1644.5z M1838.3,971.8c0,23.3,0,46.7,0,70c0,2.9,0.1,5.8,0.2,8.6c0.1,3.3,1.4,6.2,3.2,8.9
	c3.6,5.4,8.8,8.3,15.1,9.1c1.9,0.2,3.8,0.2,5.7,0.2c15.7,0,31.3,0,47,0c1.6,0,3.2,0,4.8-0.1c11.2-0.8,19.1-8.5,19.9-19.6
	c0.1-1.9,0.1-3.8,0.1-5.8c0-8.3,0-16.6,0-24.9c0-38.4,0-76.7,0-115.1c0-2.9,0.1-5.8-0.2-8.6c-1.3-10.2-9.1-17.3-19.4-17.8
	c-1.3-0.1-2.6-0.1-3.8-0.1c-16.3,0-32.6,0-48.9,0c-1.6,0-3.2,0-4.8,0.1c-9.7,0.1-18.4,8.9-18.7,18.4c-0.1,2.9-0.1,5.8-0.1,8.6
	C1838.3,926.4,1838.3,949.1,1838.3,971.8z M1070.5,875.7c0,23.3,0,46.7,0,70c0,2.9,0,5.8,0.1,8.6c0.2,4.3,2.1,8,4.8,11.2
	c3.5,4,8.1,6.2,13.3,6.9c1.6,0.2,3.2,0.2,4.8,0.2c16.6,0,33.2,0,49.9,0c1.3,0,2.6,0,3.8-0.1c10.6-1,18.2-8.8,19.1-19.4
	c0.2-2.9,0.1-5.7,0.1-8.6c0-45.1,0-90.1,0-135.2c0-2.2,0-4.5,0-6.7c0-1.6-0.1-3.2-0.3-4.8c-2-11.4-11.6-17.2-19.1-17
	c-1.6,0-3.2,0-4.8,0c-16,0-32,0-47.9,0c-1.9,0-3.8,0-5.7,0.1c-9,0.5-17.5,8.7-17.9,18.2c-0.1,2.9-0.1,5.8-0.1,8.6
	C1070.5,830.3,1070.5,853,1070.5,875.7z M1646.4,2220c0,23.3,0,46.7,0,70c0,2.9,0.1,5.8,0.2,8.6c0.1,2.3,0.9,4.4,1.9,6.4
	c3.4,6.4,8.8,10,15.9,11c2.2,0.3,4.5,0.2,6.7,0.2c15.3,0,30.7,0,46,0c1.6,0,3.2,0,4.8-0.1c11.6-0.7,19.7-8.6,20.4-20.1
	c0.2-2.5,0.1-5.1,0.1-7.7c0-28.1,0-56.3,0-84.4c0-17.6,0-35.2,0-52.7c0-2.6,0.1-5.1-0.1-7.7c-0.8-12-10.6-19.5-20-19.3
	c-1.3,0-2.6,0-3.8,0c-16,0-32,0-47.9,0c-1.9,0-3.8,0-5.8,0.1c-9.1,0.3-17.7,8.5-18.2,17.9c-0.2,2.9-0.1,5.8-0.1,8.6
	C1646.4,2174,1646.4,2197,1646.4,2220z M1886.5,300.8C1886.5,300.8,1886.5,300.8,1886.5,300.8c-7.7,0-15.3,0-23,0
	c-2.2,0-4.5,0-6.7,0.1c-9.3,0.2-18.2,8.8-18.4,18.7c0,2.2-0.1,4.5-0.1,6.7c0,15,0,30,0,45c0,1.9,0.1,3.8,0,5.7
	c-0.2,8.5,6.6,18.3,18.8,19.5c1.6,0.2,3.2,0.1,4.8,0.1c16.3,0,32.6,0,48.9,0c1.6,0,3.2,0,4.8-0.2c10.1-1.1,17.6-8.7,18.6-18.9
	c0.2-1.9,0.1-3.8,0.1-5.7c0-15.7,0-31.3,0-47c0-1.9,0.1-3.9-0.2-5.7c-1-7.9-5-13.6-12.4-17c-2.7-1.2-5.5-1.5-8.4-1.5
	C1904.4,300.8,1895.5,300.8,1886.5,300.8z M1550.4,636.3C1550.4,636.3,1550.4,636.3,1550.4,636.3c0,9.6,0.1,19.2,0,28.7
	c-0.1,7.9,5.9,17.7,17.9,19.4c1.6,0.2,3.2,0.2,4.8,0.2c16.6,0,33.2,0,49.8,0c1.6,0,3.2,0,4.8-0.2c10.1-1.2,17.5-8.8,18.5-18.9
	c0.1-1.3,0.1-2.6,0.1-3.8c0-16.9,0-33.9,0-50.8c0-1,0-1.9-0.1-2.9c-0.8-12.1-10.6-19.6-20-19.3c-1.3,0-2.6,0-3.8,0
	c-16.3,0-32.6,0-48.9,0c-1.6,0-3.2,0-4.8,0.1c-6.9,0.5-12,3.9-15.6,9.7c-2.1,3.4-2.8,7.1-2.7,11
	C1550.4,618.5,1550.4,627.4,1550.4,636.3z M927.1,1452.5C927.1,1452.5,927.1,1452.5,927.1,1452.5c-7.7,0-15.3,0-23,0
	c-2.2,0-4.5,0-6.7,0.1c-9.7,0.1-18.4,8.8-18.8,18.3c0,1.3-0.1,2.6-0.1,3.8c0,16.9,0,33.9,0,50.8c0,1.6,0.1,3.2,0.1,4.8
	c0.1,3.3,1.4,6.2,3.2,8.9c3.6,5.4,8.8,8.3,15.1,9.1c1.9,0.2,3.8,0.2,5.7,0.2c15.7,0,31.3,0,47,0c1.6,0,3.2,0,4.8-0.1
	c11.1-0.8,19.1-8.5,20-19.5c0.1-1.3,0.1-2.6,0.1-3.8c0-16.6,0-33.2,0-49.8c0-1.6,0-3.2-0.2-4.8c-1.1-7.5-5-12.9-11.9-16.2
	c-3-1.4-6.1-1.6-9.3-1.6C944.4,1452.5,935.8,1452.5,927.1,1452.5z M2414.2,1307.9c0,8,0,16,0,24c0,2.2,0.1,4.5,0.2,6.7
	c0.1,2.6,1,5,2.3,7.3c3.6,6.3,9.1,9.7,16.2,10.6c1.9,0.2,3.8,0.1,5.7,0.1c15.7,0,31.3,0,47,0c1.9,0,3.8,0.1,5.7-0.1
	c10.2-1.1,17.7-8.5,18.8-18.7c0.2-1.6,0.1-3.2,0.1-4.8c0-16.3,0-32.6,0-48.9c0-1.6,0-3.2-0.1-4.8c-1.3-12.3-11.3-18.9-19.6-18.6
	c-1.6,0-3.2,0-4.8,0c-15.7,0-31.3,0-47,0c-1.9,0-3.8,0-5.7,0.1c-9.5,0.2-18.3,8.8-18.6,18.5c-0.1,2.2-0.1,4.5-0.1,6.7
	C2414.2,1293.2,2414.2,1300.5,2414.2,1307.9z M1022.5,1548.5C1022.5,1548.5,1022.5,1548.5,1022.5,1548.5c-7.3,0-14.7,0-22,0
	c-0.3,0-0.6,0-1,0c-2.2,0-4.5,0-6.7,0.1c-9.1,0.3-17.6,8.6-18.1,17.9c-0.1,1.9-0.1,3.8-0.1,5.7c0,16,0,31.9,0,47.9
	c0,2.2,0.1,4.5,0.2,6.7c0.1,2.3,0.9,4.4,2,6.4c3.4,6.4,8.8,9.9,15.9,11c2.2,0.3,4.5,0.2,6.7,0.2c15.3,0,30.7,0,46,0
	c2.2,0,4.5,0.1,6.7-0.2c9.7-1.2,17-8.4,18.3-18.1c0.2-1.9,0.2-3.8,0.2-5.7c0-16,0-31.9,0-47.9c0-1.9,0.1-3.9-0.2-5.7
	c-1-7.5-4.8-13-11.7-16.4c-3-1.5-6.1-1.8-9.3-1.8C1040.4,1548.5,1031.4,1548.5,1022.5,1548.5z M1262.5,1595.4c0,2.2,0,4.5,0,6.7
	c0,7,0,14.1,0,21.1c0,2.9,0.2,5.7,1.4,8.4c3.2,7.4,8.9,11.5,16.8,12.6c1.9,0.3,3.8,0.2,5.7,0.2c16,0,31.9,0,47.9,0
	c1.9,0,3.8,0,5.7-0.2c9.7-1.2,17-8.4,18.2-18.2c0.2-1.6,0.2-3.2,0.2-4.8c0-16.6,0-33.2,0-49.8c0-1.9,0-3.8-0.3-5.7
	c-1.6-9.8-9.1-16.6-19-17.1c-1.6-0.1-3.2-0.1-4.8-0.1c-16,0-31.9,0-47.9,0c-1.9,0-3.8,0-5.7,0.1c-9,0.4-17.6,8.6-18.1,18
	c-0.1,2.2-0.1,4.5-0.1,6.7C1262.5,1580.7,1262.5,1588,1262.5,1595.4z M1454.5,1596.2C1454.4,1596.2,1454.4,1596.2,1454.5,1596.2
	c0,7.7,0,15.3,0,23c0,2.2,0,4.5,0.1,6.7c0.2,4.7,2.2,8.6,5.3,12c3.7,3.9,8.2,5.9,13.5,6.4c1.9,0.2,3.8,0.1,5.7,0.1
	c15.3,0,30.7,0,46,0c1.9,0,3.8,0.1,5.7-0.1c10.6-0.9,18.4-8.6,19.4-19.1c0.1-1.3,0.1-2.6,0.1-3.8c0-16.6,0-33.2,0-49.8
	c0-1.9,0-3.8-0.3-5.7c-1.5-9.8-9.1-16.7-18.9-17.3c-1.6-0.1-3.2-0.1-4.8-0.1c-16,0-31.9,0-47.9,0c-1.9,0-3.8,0-5.7,0.1
	c-6.5,0.4-11.4,3.7-15.1,8.9c-2.3,3.2-3.2,6.9-3.2,10.9C1454.5,1577.7,1454.5,1586.9,1454.5,1596.2z M1166.5,1692.1
	C1166.5,1692.1,1166.5,1692.1,1166.5,1692.1c0,9.6,0.1,19.2,0,28.7c-0.1,7.9,6,17.7,17.9,19.4c1.6,0.2,3.2,0.2,4.8,0.2
	c16.6,0,33.2,0,49.8,0c1.6,0,3.2,0,4.8-0.2c10.1-1.2,17.6-8.8,18.5-18.9c0.2-1.6,0.1-3.2,0.1-4.8c0-16.3,0-32.6,0-48.9
	c0-1.3,0-2.6-0.1-3.8c-0.8-12.1-10.6-19.6-20-19.3c-1.6,0-3.2,0-4.8,0c-15.7,0-31.3,0-47,0c-1.9,0-3.8,0-5.7,0.1
	c-6.6,0.4-11.5,3.6-15.1,8.8c-2.5,3.5-3.3,7.5-3.3,11.8C1166.5,1674.2,1166.5,1683.1,1166.5,1692.1z M2606.1,1211.8c0,8,0,16,0,24
	c0,2.2,0.1,4.5,0.2,6.7c0.1,3,1.2,5.6,2.7,8.1c3.6,5.8,8.9,9,15.6,9.8c1.9,0.2,3.8,0.2,5.7,0.2c15.7,0,31.3,0,47,0
	c1.9,0,3.8,0.1,5.7-0.1c10.2-1,17.7-8.5,18.9-18.6c0.2-1.6,0.2-3.2,0.2-4.8c0-16.3,0-32.6,0-48.9c0-1.6,0-3.2-0.1-4.8
	c-1.2-12.5-11.4-19-19.5-18.7c-1.6,0-3.2,0-4.8,0c-15.7,0-31.3,0-47,0c-1.9,0-3.8,0-5.7,0.1c-9.6,0.1-18.4,8.8-18.7,18.4
	c-0.1,2.2-0.1,4.5-0.1,6.7C2606.1,1197.1,2606.1,1204.5,2606.1,1211.8z M2558.7,1068.6C2558.7,1068.6,2558.7,1068.6,2558.7,1068.6
	c-7.7,0-15.3,0-23,0c-2.2,0-4.5,0-6.7,0.1c-9.6,0.1-18.4,8.8-18.7,18.4c-0.1,1.9-0.1,3.8-0.1,5.7c0,15.7,0,31.3,0,47
	c0,2.2,0.1,4.5,0.2,6.7c0.1,3,1.2,5.6,2.7,8.1c3.6,5.8,8.9,9,15.7,9.8c1.9,0.2,3.8,0.2,5.7,0.2c15.7,0,31.3,0,47,0
	c1.9,0,3.8,0.1,5.7-0.1c10.2-1,17.7-8.5,18.8-18.6c0.2-1.9,0.2-3.8,0.2-5.7c0-15.7,0-31.3,0-47c0-2.2,0.1-4.5-0.2-6.7
	c-1.1-7.5-5.1-12.9-12-16.2c-3-1.4-6.2-1.6-9.4-1.6C2575.9,1068.6,2567.3,1068.6,2558.7,1068.6z M2318.2,1116.1
	C2318.2,1116.1,2318.3,1116.1,2318.2,1116.1c0,9.6,0.1,19.2,0,28.7c-0.1,8.5,6.6,18.3,18.8,19.5c1.6,0.2,3.2,0.1,4.8,0.1
	c16.3,0,32.6,0,48.9,0c1.6,0,3.2,0,4.8-0.2c10.1-1.1,17.6-8.7,18.6-18.9c0.2-1.6,0.1-3.2,0.1-4.8c0-16.3,0-32.6,0-48.9
	c0-1.3,0-2.6-0.1-3.8c-0.8-12.3-10.8-19.7-19.9-19.4c-1.6,0-3.2,0-4.8,0c-15.7,0-31.3,0-47,0c-1.9,0-3.8,0-5.7,0.1
	c-6.9,0.4-12,3.9-15.7,9.6c-2.2,3.4-2.8,7.1-2.8,11C2318.2,1098.3,2318.2,1107.2,2318.2,1116.1z M1454.4,731.6c0,2.2,0,4.5,0,6.7
	c0,7,0,14.1,0,21.1c0,3.2,0.3,6.3,1.8,9.3c3.4,6.9,8.9,10.7,16.4,11.8c1.9,0.3,3.8,0.2,5.7,0.2c16,0,31.9,0,47.9,0
	c1.9,0,3.8,0,5.7-0.2c9.7-1.2,17-8.5,18.2-18.2c0.2-1.6,0.2-3.2,0.2-4.8c0-16.6,0-33.2,0-49.8c0-1.9,0-3.8-0.3-5.7
	c-1.6-9.8-9.1-16.6-19-17.2c-1.6-0.1-3.2-0.1-4.8-0.1c-16,0-31.9,0-47.9,0c-1.9,0-3.8,0-5.7,0.1c-9,0.4-17.6,8.5-18.1,18
	c-0.1,2.2-0.1,4.5-0.1,6.7C1454.4,716.9,1454.4,724.2,1454.4,731.6z M2414.2,2459.4c0,8,0,16,0,24c0,2.2,0.1,4.5,0.1,6.7
	c0.1,3.3,1.4,6.2,3.2,8.9c3.6,5.4,8.8,8.3,15.1,9.1c1.9,0.2,3.8,0.2,5.7,0.2c15.7,0,31.3,0,47,0c1.6,0,3.2,0,4.8-0.1
	c11.1-0.8,19.1-8.5,20-19.5c0.1-1,0.1-1.9,0.1-2.9c0-16.9,0-33.9,0-50.8c0-1.6,0-3.2-0.2-4.8c-1.4-10.2-9.1-17.3-19.4-17.8
	c-1.6-0.1-3.2-0.1-4.8-0.1c-16,0-31.9,0-47.9,0c-1.6,0-3.2,0-4.8,0.1c-9.7,0.1-18.4,8.8-18.8,18.3c-0.1,2.2-0.1,4.5-0.1,6.7
	C2414.2,2444.7,2414.2,2452.1,2414.2,2459.4z"/>
<path d="M2126.2,2604.2c-86.4,0-172.7,0-259.1,0c-3.2,0-6.4,0.1-9.6-0.1c-5.3-0.4-9.9-2.4-13.6-6.3c-3.2-3.4-5.2-7.3-5.4-12
	c-0.1-1.9-0.1-3.8-0.1-5.8c0-16,0-32,0-48c0-1.9,0-3.8,0.1-5.8c0.5-9.4,9.1-17.6,18.2-17.9c3.5-0.1,7-0.1,10.6-0.1
	c107.8,0,215.6,0,323.4,0c2.9,0,5.8,0.1,8.6-0.1c2.5-0.2,5.1-0.4,7.6-1c7.4-1.9,12.2-6.7,14.3-14.1c0.6-2.1,0.9-4.4,1.1-6.6
	c0.2-1.9,0.1-3.8,0.1-5.8c0-45.7,0-91.5,0-137.2c0-3.8,0.1-7.7-0.8-11.4c-1.7-6.7-5.6-11.4-11.9-14.1c-1.7-0.7-3.7-1.2-5.5-1.4
	c-2.5-0.3-5.1-0.3-7.7-0.3c-14.7,0-29.4,0-44.1,0c-2.6,0-5.1,0-7.7,0.2c-9.2,0.6-17.4,8.6-18,18.2c-0.2,2.9-0.2,5.8-0.2,8.6
	c0,14.4,0,28.8,0,43.2c0,2.2,0.1,4.5-0.1,6.7c-1,10.2-8.5,17.8-18.6,18.9c-1.9,0.2-3.8,0.2-5.8,0.2c-15.7,0-31.3,0-47,0
	c-1.9,0-3.9,0.1-5.8-0.1c-7.1-0.8-12.6-4.2-16.2-10.5c-1.3-2.3-2.2-4.6-2.3-7.3c-0.1-2.6-0.2-5.1-0.2-7.7c0-14.7,0-29.4,0-44.1
	c0-3.2-0.1-6.4-0.7-9.5c-1.7-10.2-10.5-16.3-18.6-16.5c-2.2-0.1-4.5-0.1-6.7-0.1c-14.7,0-29.4,0-44.1,0c-2.6,0-5.1,0-7.7,0.2
	c-9.2,0.6-17.4,8.6-18,18.2c-0.2,2.9-0.2,5.8-0.2,8.6c0,14.4,0,28.8,0,43.2c0,2.2,0.1,4.5-0.1,6.7c-1,10.2-8.5,17.8-18.6,18.8
	c-2.2,0.2-4.5,0.2-6.7,0.2c-47,0-94,0-141.1,0c-2.2,0-4.5,0.1-6.7-0.2c-7.1-0.8-12.6-4.2-16.2-10.5c-1.3-2.3-2.2-4.6-2.3-7.3
	c-0.1-2.2-0.2-4.5-0.2-6.7c0-15.7,0-31.3,0-47c0-1.9,0-3.8,0.1-5.8c0.3-9.6,9.1-18.3,18.7-18.4c2.6,0,5.1-0.1,7.7-0.1
	c14.7,0,29.4,0,44.1,0c3.2,0,6.4-0.1,9.5-0.9c7.8-2.1,12.8-7,14.8-14.8c0.6-2.1,0.8-4.4,0.9-6.6c0.2-2.5,0.1-5.1,0.1-7.7
	c0-108.1,0-216.2,0-324.4c0-2.6,0.1-5.1-0.1-7.7c-0.2-2.5-0.5-5.1-1.2-7.5c-2.6-8.1-8.2-12.8-16.6-14c-2.8-0.4-5.7-0.3-8.6-0.3
	c-14.4,0-28.8,0-43.2,0c-2.6,0-5.1,0.1-7.7-0.2c-7.1-0.8-12.6-4.2-16.2-10.5c-1.3-2.3-2.2-4.6-2.3-7.3c-0.1-2.2-0.2-4.5-0.2-6.7
	c0-15.7,0-31.3,0-47c0-1.9,0-3.8,0.1-5.8c0.3-9.6,9.1-18.3,18.7-18.4c2.9,0,5.8-0.1,8.6-0.1c44.8,0,89.6,0,134.4,0
	c2.6,0,5.1,0.1,7.7-0.1c2.5-0.2,5.1-0.5,7.6-1.2c7-2,11.6-6.6,13.7-13.5c0.8-2.7,1.1-5.7,1.2-8.5c0.2-5.1,0.1-10.2,0.1-15.4
	c0-41.9,0-83.8,0-125.7c0-4.2,0.1-8.3-1-12.4c-1.8-6.7-5.9-11.2-12.3-13.8c-1.7-0.7-3.7-1.1-5.6-1.2c-2.5-0.2-5.1-0.2-7.7-0.2
	c-14.4,0-28.8,0-43.2,0c-2.6,0-5.1,0.1-7.7-0.2c-7.1-0.8-12.6-4.2-16.2-10.5c-1.3-2.3-2.1-4.6-2.3-7.3c-0.1-2.2-0.2-4.5-0.2-6.7
	c0-15.7,0-31.3,0-47c0-1.9,0-3.8,0.1-5.8c0.3-9.6,9.1-18.3,18.7-18.4c2.9,0,5.8-0.1,8.6-0.1c44.8,0,89.6,0,134.4,0
	c2.6,0,5.1,0.1,7.7-0.1c2.5-0.2,5.1-0.5,7.6-1.2c7-2,11.5-6.6,13.7-13.5c1.1-3.4,1.2-6.9,1.2-10.4c0-15,0-30.1,0-45.1
	c0-2.6,0-5.1,0.1-7.7c0.5-9.4,9.1-17.6,18.2-17.9c2.6-0.1,5.1-0.1,7.7-0.1c110.7,0,221.4,0,332,0c2.2,0,4.5,0,6.7,0.1
	c9.8,0.6,17.3,7.6,18.8,17.4c0.3,1.9,0.3,3.8,0.3,5.7c0,16.3,0,32.6,0,48.9c0,1.6,0,3.2-0.1,4.8c-1,10.2-8.5,17.8-18.7,18.8
	c-2.5,0.3-5.1,0.2-7.7,0.2c-14.4,0-28.8,0-43.2,0c-2.9,0-5.8,0-8.6,0.3c-9.3,1-16.5,8.3-17.4,17.7c-0.4,3.5-0.3,7-0.3,10.5
	c0,44.8,0,89.6,0,134.4c0,2.9,0.1,5.8-0.1,8.6c-0.6,11.6-8.6,19.7-20.2,20.4c-1.9,0.1-3.8,0.1-5.8,0.1c-14.7,0-29.4,0-44.1,0
	c-2.2,0-4.5,0.1-6.7-0.1c-7.5-0.7-13.3-4.3-16.9-11c-1.1-2-1.9-4.1-2-6.4c-0.1-2.6-0.2-5.1-0.2-7.7c0-15,0-30.1,0-45.1
	c0-3.2-0.2-6.4-0.8-9.5c-1.7-9.6-10.3-15.6-18-16c-2.2-0.1-4.5-0.2-6.7-0.2c-15,0-30.1,0-45.1,0c-2.6,0-5.1,0-7.7,0.3
	c-8.7,0.8-16.7,8.4-17.4,17.7c-0.2,2.9-0.3,5.8-0.3,8.6c0,14.4,0,28.8,0,43.2c0,2.6,0.1,5.1-0.2,7.7c-1.1,9.8-8.4,17.1-18.1,18.3
	c-2.5,0.3-5.1,0.2-7.7,0.2c-14.4,0-28.8,0-43.2,0c-2.9,0-5.8,0-8.6,0.2c-9.2,0.7-17.4,8.6-18,18.2c-0.1,2.2-0.2,4.5-0.2,6.7
	c0,15,0,30.1,0,45.1c0,2.6,0,5.1,0.3,7.7c1.2,8.4,5.9,14,13.9,16.7c2.7,0.9,5.6,1.1,8.5,1.3c3.2,0.2,6.4,0.1,9.6,0.1
	c107.5,0,215,0,322.5,0c3.2,0,6.4-0.1,9.6,0.1c10.3,0.5,18,7.7,19.4,17.9c0.2,1.6,0.2,3.2,0.2,4.8c0,16.6,0,33.3,0,49.9
	c0,1.6,0,3.2-0.2,4.8c-1.2,9.8-8.4,17.1-18.1,18.3c-2.5,0.3-5.1,0.2-7.7,0.2c-14.4,0-28.8,0-43.2,0c-2.9,0-5.8,0-8.6,0.2
	c-9.2,0.7-17.4,8.6-18,18.2c-0.2,2.6-0.2,5.1-0.2,7.7c0,46.4,0,92.8,0,139.2c0,2.6,0,5.1,0.2,7.7c0.5,8.8,7.3,16.4,15.8,18.2
	c3.2,0.7,6.3,0.8,9.5,0.8c14.4,0,28.8,0,43.2,0c2.6,0,5.1-0.1,7.7,0.1c10.7,0.5,18.5,8.1,19.4,18.8c0.3,2.9,0.1,5.8,0.1,8.6
	c0,41.6,0,83.2,0,124.8c0,5.1,0,10.2,0,15.4c0,1.9,0,3.9-0.2,5.7c-1.1,9.8-8.4,17.1-18.1,18.3c-2.5,0.3-5.1,0.2-7.7,0.2
	c-14.4,0-28.8,0-43.2,0c-2.9,0-5.8,0-8.6,0.2c-9.1,0.6-17.4,8.5-18,18.2c-0.2,2.6-0.2,5.1-0.2,7.7c0,46.4,0,92.8,0,139.2
	c0,2.9,0,5.8,0.3,8.6c0.9,8.3,6.7,14.8,14.8,17c3.4,1,6.9,1.1,10.5,1.1c14.4,0,28.8,0,43.2,0c2.6,0,5.1-0.1,7.7,0.1
	c10.3,0.5,18,7.7,19.4,17.9c0.2,1.6,0.2,3.2,0.2,4.8c0,16.6,0,33.3,0,49.9c0,1.6,0,3.2-0.2,4.8c-1.2,9.8-8.4,17.1-18.1,18.3
	c-1.6,0.2-3.2,0.2-4.8,0.2c-2.9,0-5.8,0-8.6,0C2297,2604.2,2211.6,2604.2,2126.2,2604.2z M2077.9,1932.4c-38.7,0-77.4,0-116.1,0
	c-3.2,0-6.4-0.1-9.6,0.3c-9.3,0.9-16.6,8.1-17.7,17.4c-0.3,2.5-0.3,5.1-0.3,7.7c0,79,0,158,0,237c0,2.6,0.1,5.1,0.3,7.7
	c0.4,4.6,2.5,8.5,5.8,11.8c3.5,3.6,8,5.3,12.8,5.9c2.5,0.3,5.1,0.3,7.7,0.3c78,0,156,0,234.1,0c1.9,0,3.9,0.1,5.8-0.1
	c2.2-0.2,4.5-0.5,6.6-1.1c7-2,11.6-6.6,13.7-13.5c0.7-2.4,1-5,1.2-7.5c0.2-2.5,0.1-5.1,0.1-7.7c0-76.1,0-152.2,0-228.3
	c0-2.6,0.1-5.1-0.1-7.7c-0.1-2.2-0.4-4.5-0.9-6.6c-1.9-8.8-10-14.8-17.7-15.2c-3.2-0.2-6.4-0.2-9.6-0.2
	C2155.3,1932.4,2116.6,1932.4,2077.9,1932.4z"/>
<path d="M782.4,1932.4c-86.4,0-172.7,0-259.1,0c-3.2,0-6.4,0.1-9.6-0.1c-5.3-0.4-9.9-2.5-13.6-6.4c-3.2-3.4-5.1-7.3-5.4-12
	c-0.1-1.6-0.1-3.2-0.1-4.8c0-16.6,0-33.3,0-49.9c0-1.6,0-3.2,0.1-4.8c0.6-9.3,9.1-17.6,18.3-17.8c3.2-0.1,6.4-0.1,9.6-0.1
	c82.9,0,165.7,0,248.6,0c89.6,0,179.1,0,268.7,0c2.9,0,5.8,0.1,8.6-0.1c2.5-0.2,5.1-0.5,7.5-1.3c6.5-2.1,10.9-6.5,13.1-13
	c1.2-3.7,1.3-7.5,1.3-11.4c0-15,0-30.1,0-45.1c0-2.6,0-5.1,0.2-7.7c0.6-8.6,8.6-16.8,17.7-17.3c1.9-0.1,3.8-0.1,5.8-0.1
	c16,0,32,0,48,0c1.6,0,3.2,0,4.8,0.1c10.2,0.6,18,7.8,19.3,18c0.3,2.5,0.2,5.1,0.2,7.7c0,14.4,0,28.8,0,43.2c0,2.9,0,5.8,0.2,8.6
	c0.5,7.5,6.3,15.2,14.5,17.2c2.8,0.7,5.7,1.1,8.5,1.1c16.3,0.1,32.6,0.1,48.9,0c2.8,0,5.8-0.4,8.5-1.1c7.4-2,12.1-6.8,14.2-14.2
	c1-3.4,1.1-6.9,1.1-10.5c0-14.4,0-28.8,0-43.2c0-2.2,0.1-4.5,0-6.7c-0.4-11.4,9.5-20.6,19.9-20.3c1.3,0,2.6,0,3.8,0c16,0,32,0,48,0
	c1.6,0,3.2,0,4.8,0.1c9.9,0.6,17.5,7.3,19.1,17.1c0.3,1.6,0.3,3.2,0.3,4.8c0.1,3.2,0,6.4,0,9.6c0,75.5,0,151,0,226.5
	c0,3.5,0,7,0.1,10.6c0.3,8.8,6.9,17,16.5,18.7c2.2,0.4,4.4,0.6,6.7,0.7c2.9,0.1,5.8,0,8.6,0c75.5,0,151,0,226.5,0
	c3.2,0,6.4,0.1,9.6,0c9.1-0.2,19.1,7.1,19.9,19.5c0.1,1.3,0.1,2.6,0.1,3.8c0,16.3,0,32.6,0,48.9c0,1.6,0,3.2-0.1,4.8
	c-1.1,10.2-8.6,17.7-18.8,18.7c-2.9,0.3-5.8,0.2-8.6,0.2c-45.4,0-90.9,0-136.3,0c-3.2,0-6.4,0-9.6,0.2c-9.6,0.5-17.6,8.7-18.3,17.9
	c-0.2,2.2-0.2,4.5-0.2,6.7c0,15.4,0,30.7,0,46.1c0,2.2,0.1,4.5,0.2,6.7c0.5,7.6,6.4,15.1,14.5,17.3c3.4,0.9,6.9,1.1,10.4,1.1
	c15,0,30.1,0,45.1,0c2.6,0,5.1,0.1,7.7,0.1c3,0.1,5.6,1.2,8.1,2.7c5.9,3.6,9,9,9.7,15.7c0.3,2.9,0.2,5.8,0.2,8.6
	c0,45.4,0,90.9,0,136.3c0,3.2,0,6.4,0.2,9.6c0.5,8.6,7.2,16.4,15.9,18.1c2.2,0.4,4.4,0.7,6.6,0.8c2.6,0.1,5.1,0,7.7,0
	c44.5,0,88.9,0,133.4,0c2.9,0,5.8,0.1,8.6,0c7.5-0.1,17.2,5.6,19.1,17.1c0.3,1.9,0.3,3.8,0.3,5.7c0,16.6,0,33.3,0,49.9
	c0,1.6,0,3.2-0.2,4.8c-1.2,9.7-8.5,17.1-18.2,18.2c-3.2,0.4-6.4,0.2-9.6,0.2c-45.1,0-90.2,0-135.3,0c-3.5,0-7.1-0.1-10.5,0.3
	c-8.1,0.8-13.5,5.4-16.6,12.7c-0.7,1.7-1,3.7-1.2,5.6c-0.2,2.5-0.2,5.1-0.2,7.7c0,14.4,0,28.8,0,43.2c0,2.9-0.1,5.8,0.3,8.6
	c1.2,8.4,6,14,14,16.6c2.4,0.8,5,1.1,7.5,1.3c2.9,0.2,5.8,0.1,8.6,0.1c76.1,0,152.3,0,228.4,0c3.2,0,6.4-0.1,9.6,0.1
	c9.9,0.5,17.5,7.3,19.1,17c0.3,1.9,0.3,3.8,0.3,5.7c0,16.6,0,33.3,0,49.9c0,1.6,0,3.2-0.2,4.8c-1.2,9.7-8.5,17-18.2,18.2
	c-1.3,0.2-2.6,0.2-3.8,0.2c-2.2,0-4.5,0-6.7,0c-108.8,0-217.5,0-326.3,0c-3.2,0-6.4,0.1-9.6-0.1c-5.3-0.4-9.9-2.5-13.6-6.4
	c-3.2-3.4-5.1-7.3-5.3-12c-0.1-3.5-0.1-7-0.1-10.6c0-107.8,0-215.6,0-323.4c0-2.9,0.2-5.8-0.1-8.6c-0.2-2.9-0.4-5.8-1.3-8.5
	c-2.6-8-8.3-12.7-16.6-13.9c-2.8-0.4-5.7-0.3-8.6-0.3c-14.4,0-28.8,0-43.2,0c-2.6,0-5.1,0.1-7.7-0.2c-6.7-0.8-12.1-4-15.7-9.8
	c-1.5-2.5-2.6-5.1-2.7-8.1c-0.1-2.6-0.2-5.1-0.2-7.7c0-15,0-30.1,0-45.1c0-3.2-0.2-6.4-0.9-9.5c-2-9-10.1-14.9-17.6-15.4
	c-2.9-0.2-5.8-0.2-8.6-0.2c-14.4,0-28.8,0-43.2,0c-2.2,0-4.5,0.1-6.7-0.1c-7.5-0.8-13.2-4.3-16.8-11.1c-1.1-2-1.8-4.1-1.9-6.4
	c-0.1-2.6-0.2-5.1-0.2-7.7c0-15,0-30.1,0-45.1c0-3.2-0.2-6.4-0.8-9.5c-1.7-9.3-10.1-15.5-18.1-15.9c-3.2-0.1-6.4-0.2-9.6-0.2
	c-45.1,0-90.2,0-135.3,0c-2.9,0-5.8,0.1-8.6-0.1c-7.2-0.5-12.8-3.7-16.6-9.9c-1.5-2.5-2.6-5.1-2.7-8.1c-0.1-3.2-0.2-6.4-0.2-9.6
	c0-44.8,0-89.6,0-134.4c0-2.6,0.1-5.1-0.1-7.7c-0.1-2.2-0.4-4.5-0.9-6.6c-1.9-9-10.1-14.9-17.5-15.4c-3.5-0.2-7-0.2-10.5-0.2
	C955.1,1932.4,868.8,1932.4,782.4,1932.4z M1214.5,1932.4c-7.3,0-14.7,0-22,0c-0.3,0-0.6,0-1,0c-2.6,0.1-5.1,0-7.6,0.4
	c-8.8,1.1-15.9,8.2-17,17c-0.3,2.5-0.3,5.1-0.3,7.6c0,15.3,0,30.7,0,46c0,2.2,0.1,4.5,0.2,6.7c0.5,7.4,6.3,15,14.6,17.2
	c2.8,0.7,5.6,1.1,8.5,1.1c16.3,0,32.6,0,48.9-0.1c2.8,0,5.8-0.4,8.5-1.1c7.4-2,12.2-6.8,14.1-14.2c0.7-2.7,1.1-5.7,1.1-8.5
	c0.1-16.3,0.1-32.6,0-48.9c0-2.8-0.4-5.7-1.1-8.5c-2.3-9-10.5-14.2-17.1-14.5c-2.2-0.1-4.5-0.2-6.7-0.2
	C1229.8,1932.4,1222.1,1932.4,1214.5,1932.4z"/>
<path d="M302.7,1643.5c0-86.1,0-172.1,0-258.2c0-3.5,0-7,0.1-10.6c0.4-9.6,9.1-17.7,18-18.1c1.9-0.1,3.8-0.1,5.8-0.1c16,0,32,0,48,0
	c1.6,0,3.2,0,4.8,0.1c10.2,0.6,18,7.9,19.1,18.1c0.3,2.5,0.2,5.1,0.2,7.7c0,14.4,0,28.8,0,43.2c0,2.9,0,5.8,0.3,8.6
	c0.9,8.3,6.5,15,14.6,17.1c2.4,0.7,5,0.9,7.6,1.1c2.5,0.2,5.1,0.1,7.7,0.1c44.5,0,88.9,0,133.4,0c2.9,0,5.8,0.1,8.6,0
	c8.4-0.2,18.4,6.3,19.7,18.7c0.3,2.5,0.1,5.1,0.1,7.7c0,14.4,0,28.8,0,43.2c0,2.9,0,5.8,0.3,8.6c1.1,8,5.7,13.4,13.1,16.3
	c3,1.1,6.2,1.6,9.4,1.6c16.6,0,33.3,0,49.9-0.1c2.8,0,5.8-0.4,8.5-1.2c6.9-2.1,11.6-6.7,13.5-13.7c0.7-2.7,1.1-5.7,1.1-8.5
	c0.1-16.3,0.1-32.6,0-48.9c0-2.8-0.4-5.8-1.1-8.5c-2.1-8.1-8.7-13.8-17-14.7c-2.9-0.3-5.7-0.3-8.6-0.3c-14.4,0-28.8,0-43.2,0
	c-2.2,0-4.5,0.1-6.7-0.1c-6-0.5-11.1-2.9-14.9-7.7c-2.5-3.1-4.1-6.5-4.3-10.5c-0.1-2.6-0.1-5.1-0.1-7.7c0-14.7,0-29.4,0-44.1
	c0-3.5-0.1-7-0.9-10.5c-2.1-8.7-10-14.7-17.7-15.2c-2.6-0.2-5.1-0.2-7.7-0.2c-14.4,0-28.8,0-43.2,0c-2.6,0-5.1,0.1-7.7-0.1
	c-7.5-0.8-13.2-4.4-16.7-11.3c-1-2-1.8-4.1-1.9-6.4c-0.1-2.2-0.2-4.5-0.2-6.7c0-15.7,0-31.3,0-47c0-2.2,0-4.5,0.2-6.7
	c0.6-9.1,8.9-17,17.5-17.5c2.6-0.2,5.1-0.2,7.7-0.2c14.7,0,29.4,0,44.1,0c2.6,0,5.1,0,7.7-0.3c10.5-1.5,17.2-8.4,18.6-19
	c0.2-1.6,0.2-3.2,0.2-4.8c0-16,0-32,0-48c0-3.2-0.2-6.4-1.2-9.5c-2.6-8-8.1-12.8-16.5-14.1c-2.5-0.4-5.1-0.3-7.7-0.3
	c-47,0-94,0-141.1,0c-2.6,0-5.1,0-7.7,0.3c-9.3,1-16.5,8.2-17.6,17.5c-0.3,2.9-0.3,5.7-0.3,8.6c0,14.1,0,28.2,0,42.2
	c0,2.2,0.1,4.5,0,6.7c-0.6,11.7-8.5,19.7-20,20.5c-1,0.1-1.9,0.1-2.9,0.1c-16.6,0-33.3,0-49.9,0c-1.6,0-3.2,0.1-4.8-0.2
	c-5.6-0.8-10.4-3.1-13.9-7.6c-2.4-3.1-4-6.5-4.2-10.5c-0.1-2.6-0.1-5.1-0.1-7.7c0-46.7,0-93.4,0-140.1c0-2.6,0-5.1,0.1-7.7
	c0.4-9.4,9-17.7,18.1-18c3.5-0.1,7-0.1,10.6-0.1c86.4,0,172.7,0,259.1,0c54.7,0,109.4,0,164.1,0c2.9,0,5.8-0.1,8.6,0.1
	c10.2,0.6,17.9,7.9,19.1,18.2c0.3,2.5,0.2,5.1,0.2,7.7c0,15,0,30.1,0,45.1c0,31,0,62.1,0,93.1c0,3.2,0,6.4,0.3,9.6
	c0.8,8.3,6.5,14.9,14.6,17.1c2.4,0.7,5,0.9,7.6,1.1c2.5,0.2,5.1,0.1,7.7,0.1c44.5,0,88.9,0,133.4,0c2.9,0,5.8,0.1,8.6,0
	c8.3-0.2,18.4,6.4,19.6,18.7c0.2,1.6,0.1,3.2,0.1,4.8c0,16.3,0,32.6,0,48.9c0,1.3,0,2.6-0.1,3.8c-0.9,11.1-8.8,18.8-20,19.6
	c-2.9,0.2-5.8,0.1-8.6,0.1c-45.1,0-90.2,0-135.3,0c-3.2,0-6.4,0-9.6,0.2c-9.2,0.5-17.5,8.5-18.1,18.1c-0.2,3.5-0.2,7-0.2,10.5
	c0,76.5,0,152.9,0,229.4c0,2.9,0,5.8,0,8.6c-0.1,12.1-9.3,21.2-21.5,21.1c-3.2,0-6.4,0-9.6,0c-107.8,0-215.6,0-323.4,0
	c-3.5,0-7,0-10.6,0.2c-9.7,0.4-18.2,8.6-18.7,18.6c-0.2,3.5-0.2,7-0.2,10.6c0,76.5,0,152.9,0,229.4c0,2.9,0.1,5.8,0,8.6
	c-0.6,12.1-8.7,20.1-20.9,20.6c-4.2,0.2-8.3,0.1-12.5,0.1c-12.2,0-24.3,0-36.5,0c-2.2,0-4.5,0.1-6.7-0.1
	c-11.6-0.8-19.5-10.2-19.3-20.1c0.1-3.2,0-6.4,0-9.6C302.7,1816.3,302.7,1729.9,302.7,1643.5z"/>
<path d="M302.7,636.6c0-102.7,0-205.3,0-308c0-3.2,0-6.4,0.1-9.6c0.3-9.5,9.1-17.9,17.9-18.1c3.2-0.1,6.4-0.1,9.6-0.1
	c112.3,0,224.5,0,336.8,0c92.7,0,185.5,0,278.2,0c3.2,0,6.4,0.1,9.6,0c8.9-0.3,18.7,7.2,19.6,18.7c0.1,1.3,0.1,2.6,0.1,3.8
	c0,2.6,0,5.1,0,7.7c0,204,0,408.1,0,612.1c0,3.2,0.1,6.4-0.1,9.6c-0.6,11.1-8.6,19.2-19.6,19.8c-2.2,0.1-4.5,0.1-6.7,0.1
	c-206.3,0-412.6,0-618.8,0c-2.6,0-5.1,0.1-7.7-0.1c-7.6-0.6-13.2-4.3-16.9-11c-1.3-2.3-1.9-4.7-2-7.3c-0.1-3.2-0.1-6.4-0.1-9.6
	C302.7,841.9,302.7,739.2,302.7,636.6z M638.2,396.8c-72.9,0-145.8,0-218.8,0c-3.2,0-6.4-0.1-9.6,0.2c-6.4,0.5-10.6,4.7-11,11.1
	c-0.2,3.5-0.2,7-0.2,10.5c0,145.2,0,290.4,0,435.6c0,2.6,0,5.1,0,7.7c0,1.6,0.1,3.2,0.3,4.8c0.7,4.5,3.4,7.5,7.7,9
	c1.5,0.5,3.1,0.8,4.7,0.9c2.9,0.2,5.8,0.1,8.6,0.1c145.5,0,291.1,0,436.6,0c2.9,0,5.8,0.1,8.6-0.1c1.9-0.1,3.8-0.6,5.6-1.2
	c3.2-1.1,5.4-3.4,6.5-6.6c0.6-1.8,1-3.7,1.1-5.6c0.2-2.9,0.1-5.8,0.1-8.6c0-145.5,0-291.1,0-436.6c0-2.2,0-4.5,0-6.7
	c-0.1-1.6-0.2-3.2-0.5-4.8c-1.1-5.5-5-9.1-10.5-9.6c-3.5-0.3-7-0.2-10.5-0.2C784.1,396.8,711.1,396.8,638.2,396.8z"/>
<path d="M2365.8,300.8c102.7,0,205.3,0,308,0c3.2,0,6.4-0.1,9.6,0.1c9.6,0.5,17.4,7.9,18.6,17.6c0.2,1.3,0.2,2.6,0.2,3.8
	c0,2.2,0,4.5,0,6.7c0,205,0,410,0,615c0,2.9,0.1,5.8-0.1,8.6c-0.6,11.1-8.5,19.2-19.5,19.9c-2.2,0.1-4.5,0.1-6.7,0.1
	c-206.6,0-413.2,0-619.8,0c-2.6,0-5.1,0.1-7.7-0.2c-6.4-0.7-11.5-3.9-15-9.2c-1.8-2.7-2.9-5.7-3-9c-0.1-3.2-0.1-6.4-0.1-9.6
	c0-124.4,0-248.8,0-373.2c0-80.6,0-161.2,0-241.8c0-2.9,0.1-5.8,0-8.6c-0.5-11.4,9.7-20.7,19.9-20.2c2.9,0.1,5.8,0,8.6,0
	C2161.1,300.8,2263.4,300.8,2365.8,300.8z M2126.2,635.9c0,72.6,0,145.2,0,217.8c0,2.9,0,5.8,0,8.6c0,1.6,0.1,3.2,0.4,4.8
	c0.7,3.7,2.8,6.5,6.3,7.9c2,0.8,4.3,1.3,6.5,1.5c2.5,0.3,5.1,0.1,7.7,0.1c145.8,0,291.7,0,437.5,0c2.6,0,5.1,0.1,7.7-0.1
	c1.9-0.1,3.8-0.5,5.6-1c3.6-1.1,6-3.6,7.1-7.2c0.5-1.8,0.9-3.7,1-5.6c0.2-2.5,0.1-5.1,0.1-7.7c0-145.8,0-291.7,0-437.5
	c0-2.2,0-4.5,0-6.7c0-1.3-0.1-2.6-0.4-3.8c-1.2-6.6-5.9-9.9-11.1-10.1c-3.8-0.2-7.7-0.2-11.5-0.2c-144.9,0-289.8,0-434.7,0
	c-2.2,0-4.5,0-6.7,0c-1.6,0-3.2,0.1-4.8,0.2c-5.4,0.3-10.2,4.8-10.5,10.6c-0.2,3.5-0.2,7-0.2,10.5
	C2126.2,490.7,2126.2,563.3,2126.2,635.9z"/>
<path d="M302.7,2364c0-102.3,0-204.7,0-307c0-3.5,0-7,0.1-10.6c0.3-9.4,9.3-17.8,18.1-18c3.2-0.1,6.4-0.1,9.6-0.1
	c149.4,0,298.7,0,448.1,0c56,0,111.9,0,167.9,0c2.9,0,5.8,0.1,8.6,0c8.7-0.3,18.6,7.3,19.4,18.9c0.1,1.3,0.1,2.6,0.1,3.8
	c0,2.2,0,4.5,0,6.7c0,204.4,0,408.7,0,613.1c0,3.2,0.1,6.4-0.1,9.6c-0.6,11-8.7,19-19.8,19.7c-2.2,0.1-4.5,0.1-6.7,0.1
	c-206.3,0-412.6,0-618.8,0c-2.6,0-5.1,0.1-7.7-0.1c-7.6-0.7-13.2-4.4-16.8-11.2c-1.2-2.3-1.9-4.8-1.9-7.3c-0.1-3.2-0.1-6.4-0.1-9.6
	C302.7,2569.3,302.7,2466.7,302.7,2364z M398.7,2363.4c0,72.6,0,145.2,0,217.8c0,2.9,0,5.8,0,8.6c0,1.6,0.1,3.2,0.4,4.8
	c0.7,3.7,2.8,6.5,6.2,8c2,0.9,4.3,1.3,6.5,1.5c2.5,0.3,5.1,0.1,7.7,0.1c145.8,0,291.7,0,437.5,0c2.6,0,5.1,0.1,7.7-0.1
	c1.9-0.1,3.8-0.5,5.6-1c3.6-1.1,6.1-3.5,7.2-7.1c0.6-1.8,0.9-3.7,1-5.6c0.2-3.2,0.1-6.4,0.1-9.6c0-144.6,0-289.1,0-433.7
	c0-2.6,0-5.1,0-7.7c0-1.6-0.1-3.2-0.4-4.8c-1.2-6.8-5.9-9.9-11-10.2c-3.5-0.2-7-0.2-10.5-0.2c-139.8,0-279.5,0-419.3,0
	c-7,0-14.1,0-21.1,0c-2.2,0-4.5,0.1-6.7,0.2c-5.5,0.3-10.3,4.9-10.6,10.5c-0.2,3.5-0.2,7-0.2,10.5
	C398.7,2218.2,398.7,2290.8,398.7,2363.4z"/>
<path d="M1118.6,1068.6c70.1,0,140.1,0,210.2,0c3.2,0,6.4,0.1,9.6,0c9.3-0.2,19.1,7.2,20,19.4c0.1,1.3,0.1,2.6,0.1,3.8
	c0,16.3,0,32.6,0,48.9c0,1.6,0,3.2-0.1,4.8c-1,10.2-8.5,17.7-18.7,18.8c-2.5,0.3-5.1,0.2-7.7,0.2c-14.4,0-28.8,0-43.2,0
	c-2.9,0-5.8,0-8.6,0.3c-8.6,0.8-16.7,8.3-17.4,17.7c-0.2,2.5-0.3,5.1-0.3,7.7c0,46.7,0,93.4,0,140.1c0,2.9-0.1,5.8,0.4,8.6
	c1.2,8,5.8,13.3,13.3,16.1c3.3,1.2,6.8,1.5,10.4,1.5c9.6-0.1,19.2,0,28.8,0c6.4,0,12.8,0.1,19.2-0.1c2.9-0.1,5.8-0.4,8.5-1.1
	c7.4-1.9,12.1-6.8,14.3-14.1c1-3.4,1.1-6.9,1.1-10.5c0-15,0-30.1,0-45.1c0-2.6,0-5.1,0.2-7.7c0.6-8.7,8.6-16.8,17.7-17.4
	c1.9-0.1,3.8-0.1,5.8-0.1c48,0,96,0,143.9,0c1.6,0,3.2,0,4.8,0.1c10.3,0.5,18,7.7,19.3,17.9c0.2,1.6,0.2,3.2,0.2,4.8
	c0,16.6,0,33.3,0,49.9c0,1.6,0,3.2-0.2,4.8c-1.2,9.7-8.4,17.1-18.2,18.3c-2.5,0.3-5.1,0.2-7.7,0.2c-14.4,0-28.8,0-43.2,0
	c-2.6,0-5.1,0-7.7,0.1c-9.5,0.3-18.6,8.2-19,19.3c-0.1,3.2-0.1,6.4-0.1,9.6c0,44.8,0,89.6,0,134.4c0,2.9,0.1,5.8-0.1,8.6
	c-0.7,11.1-8.6,19-19.7,19.9c-1.9,0.1-3.8,0.1-5.8,0.1c-15,0-30.1,0-45.1,0c-2.2,0-4.5,0.1-6.7-0.2c-7.1-0.8-12.6-4.2-16.2-10.6
	c-1.3-2.3-2.1-4.7-2.3-7.3c-0.1-2.6-0.2-5.1-0.2-7.7c0-14.7,0-29.4,0-44.1c0-3.2-0.2-6.4-0.7-9.5c-1.7-10-10.3-16.2-18.6-16.5
	c-2.2-0.1-4.5-0.1-6.7-0.1c-14.7,0-29.4,0-44.1,0c-2.6,0-5.1,0-7.7,0.2c-9.1,0.7-17.4,8.5-17.9,18.2c-0.2,2.9-0.2,5.8-0.2,8.6
	c0,14.4,0,28.8,0,43.2c0,2.2,0.1,4.5-0.1,6.7c-1,10.2-8.5,17.7-18.7,18.8c-1.9,0.2-3.8,0.2-5.8,0.2c-15.7,0-31.3,0-47,0
	c-1.9,0-3.9,0.1-5.8-0.1c-6.7-0.8-12.1-3.9-15.7-9.8c-1.5-2.5-2.6-5.1-2.7-8.1c-0.1-2.6-0.2-5.1-0.2-7.7c0-15,0-30.1,0-45.1
	c0-3.5-0.2-7-1.1-10.5c-2.4-8.9-10.5-14.1-17.3-14.5c-2.9-0.2-5.8-0.2-8.6-0.2c-14.4,0-28.8,0-43.2,0c-2.2,0-4.5,0.1-6.7-0.1
	c-7.5-0.8-13.3-4.3-16.9-11.1c-1.1-2-1.8-4.1-2-6.4c-0.1-2.6-0.2-5.1-0.2-7.7c0-47.3,0-94.7,0-142c0-2.2,0-4.5,0.1-6.7
	c0.5-9.4,9.2-17.6,18.2-17.9c2.6-0.1,5.1-0.1,7.7-0.1c14.7,0,29.4,0,44.1,0c3.2,0,6.4,0,9.5-0.8c8.2-2.1,13.4-7.1,15.4-15.4
	c0.6-2.5,0.8-5.1,0.8-7.6c0.1-16.3,0.1-32.6,0-48.9c0-2.8-0.4-5.8-1.1-8.5c-2.2-8.8-10.3-14.1-17.2-14.5c-3.5-0.2-7-0.2-10.5-0.2
	c-76.8,0-153.5,0-230.3,0c-3.2,0-6.4,0.1-9.6-0.1c-6-0.5-11.1-3-14.8-7.8c-2.4-3.1-4-6.6-4.1-10.5c-0.1-1.9-0.1-3.8-0.1-5.8
	c0-16,0-32,0-48c0-1.9,0-3.8,0.1-5.8c0.5-9.4,9.2-17.6,18.2-17.9c3.2-0.1,6.4-0.1,9.6-0.1C977.2,1068.6,1047.9,1068.6,1118.6,1068.6
	z"/>
<path d="M1597.2,492.7c-38.1,0-76.1,0-114.2,0c-3.2,0-6.4,0-9.6,0.1c-10.2,0.4-18.4,8.9-18.8,18.4c-0.2,3.2-0.2,6.4-0.2,9.6
	c0,45.1,0,90.2,0,135.3c0,2.9,0.1,5.8-0.1,8.6c-0.7,11.1-8.6,19-19.7,19.8c-1.9,0.1-3.8,0.1-5.8,0.1c-15,0-30.1,0-45.1,0
	c-2.2,0-4.5,0.1-6.7-0.2c-6.7-0.8-12.1-3.9-15.7-9.8c-1.5-2.5-2.6-5.1-2.7-8.1c-0.1-2.6-0.2-5.1-0.2-7.7c0-15,0-30.1,0-45.1
	c0-3.2-0.2-6.4-0.9-9.5c-2.1-9.1-10.2-14.9-17.5-15.4c-2.2-0.1-4.5-0.2-6.7-0.2c-15.4,0-30.7,0-46.1,0c-1.9,0-3.8,0.1-5.8,0.1
	c-10.1,0.4-18.3,8.9-18.8,18.4c-0.1,2.9-0.2,5.8-0.2,8.6c0,14.4,0,28.8,0,43.2c0,2.2,0.1,4.5-0.1,6.7c-1,10.2-8.6,17.7-18.7,18.8
	c-2.2,0.2-4.5,0.2-6.7,0.2c-47,0-94,0-141.1,0c-2.2,0-4.5,0.1-6.7-0.2c-6.7-0.8-12.1-3.9-15.7-9.8c-1.5-2.5-2.6-5.1-2.7-8.1
	c-0.1-1.9-0.2-3.8-0.2-5.8c0-16.3,0-32.6,0-48.9c0-1.6,0-3.2,0.1-4.8c0.3-9.5,9.1-18.2,18.8-18.3c2.6,0,5.1-0.1,7.7-0.1
	c14.4,0,28.8,0,43.2,0c3.5,0,7,0,10.5-1c7.8-2.1,12.8-7,14.8-14.8c0.6-2.5,0.9-5,0.9-7.6c0.1-16.6,0.1-33.3,0-49.9
	c0-2.8-0.4-5.8-1.3-8.5c-2.6-8-8.3-12.7-16.6-13.9c-2.8-0.4-5.7-0.3-8.6-0.3c-14.4,0-28.8,0-43.2,0c-2.6,0-5.1,0.1-7.7-0.2
	c-6.7-0.8-12.1-4-15.7-9.8c-1.5-2.5-2.6-5.1-2.7-8.1c-0.1-1.9-0.2-3.8-0.2-5.8c0-16.3,0-32.6,0-48.9c0-1.6,0-3.2,0.1-4.8
	c0.3-9.5,9-18.2,18.8-18.3c2.6,0,5.1-0.1,7.7-0.1c14.4,0,28.8,0,43.2,0c3.5,0,7,0,10.5-1c7.8-2.1,12.7-7,14.8-14.8
	c0.8-3.1,0.9-6.3,0.9-9.5c0-14.4,0-28.8,0-43.2c0-2.6,0.1-5.1,0-7.7c-0.2-10.8,9.3-19.9,19.4-19.8c1.6,0,3.2,0,4.8,0
	c15.7,0,31.3,0,47,0c1.6,0,3.2,0.1,4.8,0c9.2-0.3,19.1,7.2,19.8,19.5c0.1,2.6,0.1,5.1,0.1,7.7c0,26.2,0,52.5,0,78.7
	c0,19.8,0,39.7,0,59.5c0,2.9-0.1,5.8,0.3,8.6c1.2,8.4,5.9,14,13.9,16.6c2.7,0.9,5.6,1.3,8.5,1.3c16.6,0.1,33.3,0.1,49.9,0
	c2.8,0,5.8-0.4,8.5-1.2c7-2,11.5-6.7,13.6-13.6c1.1-3.4,1.2-6.9,1.2-10.4c0-14.4,0-28.8,0-43.2c0-2.6,0.1-5.1,0-7.7
	c-0.2-10.8,9.3-19.9,19.4-19.8c3.2,0,6.4,0,9.6,0c76.1,0,152.3,0,228.4,0c2.6,0,5.1,0.1,7.7-0.1c2.5-0.2,5.1-0.4,7.6-1.1
	c7.4-2,12.1-6.8,14.2-14.2c1-3.4,1.1-6.9,1.1-10.5c0-14.7,0-29.4,0-44.1c0-2.6,0-5.1,0.1-7.7c0.3-9.5,9.1-18.2,18.8-18.3
	c1.6,0,3.2-0.1,4.8-0.1c16,0,32,0,48,0c1.6,0,3.2,0,4.8,0.1c10.2,0.6,18,7.8,19.3,18c0.3,2.2,0.2,4.5,0.2,6.7c0,9.3,0,18.6,0,27.8
	c0,37.1,0,74.2,0,111.3c0,2.9,0.1,5.8-0.1,8.6c-0.9,10.6-8.6,18.4-19.3,19.2c-2.9,0.2-5.8,0.1-8.6,0.1
	C1675.3,492.7,1636.3,492.7,1597.2,492.7z"/>
<path d="M1646.4,1260.3c0-23,0-46.1,0-69.1c0-2.9,0-5.8,0.1-8.6c0.5-9.3,9.1-17.6,18.2-17.9c2.6-0.1,5.1-0.1,7.7-0.1
	c14.7,0,29.4,0,44.1,0c3.2,0,6.4,0,9.5-0.8c8.2-2.1,13.3-7.1,15.4-15.4c0.8-3.1,0.8-6.3,0.8-9.5c0-15,0-30.1,0-45.1
	c0-2.6,0-5.1,0.2-7.7c0.6-8.6,8.6-16.8,17.7-17.4c1.6-0.1,3.2-0.1,4.8-0.1c16.6,0,33.3,0,49.9,0c1.3,0,2.6,0,3.8,0.1
	c10.3,0.6,18.1,7.7,19.3,17.9c0.3,2.5,0.2,5.1,0.2,7.7c0,14.4,0,28.8,0,43.2c0,2.9,0,5.8,0.2,8.6c0.6,8.4,7.2,15.9,15.3,17.6
	c2.2,0.5,4.4,0.9,6.6,0.9c16.9,0.1,33.9,0.1,50.8,0c2.2,0,4.5-0.3,6.6-0.8c8.2-1.9,13.4-7,15.5-15.3c0.8-3.1,0.9-6.3,0.8-9.5
	c0-15,0-30.1,0-45.1c0-2.6,0-5.1,0.2-7.7c0.6-8.8,8.7-16.9,17.6-17.4c1.9-0.1,3.8-0.1,5.8-0.1c16.3,0,32.6,0,48.9,0
	c1.3,0,2.6,0.1,3.8,0c8.2-0.2,18.4,6.3,19.5,18.8c0.3,2.9,0.1,5.8,0.1,8.6c0,39.3,0,78.7,0,118c0,7,0,14.1,0,21.1
	c0,2.2,0,4.5,0.2,6.7c0.6,8.5,7.2,15.8,15.2,17.7c3.2,0.7,6.3,0.9,9.5,0.9c14.7,0,29.4,0,44.1,0c2.6,0,5.1-0.1,7.7,0.1
	c9.8,0.6,17.4,7.4,18.9,17.3c0.3,1.9,0.3,3.8,0.3,5.7c0,16.6,0,33.3,0,49.9c0,1,0,1.9-0.1,2.9c-0.7,11.2-8.5,19.1-19.5,20
	c-2.2,0.2-4.5,0.1-6.7,0.1c-14.4,0-28.8,0-43.2,0c-2.9,0-5.8,0-8.6,0.3c-9.3,1-16.5,8.2-17.6,17.5c-0.3,2.9-0.3,5.7-0.3,8.6
	c0,14.4,0,28.8,0,43.2c0,2.2,0.1,4.5-0.1,6.7c-0.8,11.1-8.8,18.8-19.9,19.6c-1.9,0.1-3.8,0.1-5.8,0.1c-47,0-94,0-141,0
	c-2.2,0-4.5,0.1-6.7-0.2c-6.4-0.8-11.5-3.7-15.1-9.1c-1.8-2.7-3-5.6-3.1-8.9c-0.1-2.2-0.1-4.5-0.1-6.7c0-15.4,0-30.7,0-46.1
	c0-2.2,0-4.5,0.1-6.7c0.4-9.5,9-17.7,17.9-18.1c2.6-0.1,5.1-0.1,7.7-0.1c14.7,0,29.4,0,44.1,0c3.5,0,7,0,10.5-1
	c7.8-2.2,12.7-7.1,14.7-14.9c0.5-2.2,0.9-4.4,0.9-6.6c0.1-16.9,0.1-33.9,0-50.8c0-2.5-0.4-5.1-1-7.6c-2.1-8.1-8.7-13.9-17-14.8
	c-2.5-0.3-5.1-0.3-7.7-0.3c-15,0-30.1,0-45.1,0c-2.6,0-5.1,0-7.7,0.3c-8.9,1.1-16,8.1-17.1,16.9c-0.4,2.8-0.4,5.7-0.4,8.6
	c0,14.7,0,29.4,0,44.1c0,2.2,0.1,4.5-0.1,6.7c-0.9,10.6-8.7,18.3-19.3,19.2c-2.2,0.2-4.5,0.1-6.7,0.1c-46.7,0-93.4,0-140.1,0
	c-2.2,0-4.5,0.1-6.7-0.1c-5.3-0.5-9.9-2.5-13.5-6.4c-3.2-3.4-5.1-7.3-5.3-12c-0.1-2.9-0.1-5.8-0.1-8.6
	C1646.4,1306.3,1646.4,1283.3,1646.4,1260.3z"/>
<path d="M2702.1,1884c0,70.4,0,140.8,0,211.1c0,2.9,0.1,5.8-0.1,8.6c-0.6,11.7-8.5,19.7-20.1,20.5c-2.2,0.1-4.5,0.1-6.7,0.1
	c-78.1,0-156.1,0-234.2,0c-2.6,0-5.1,0.1-7.7-0.1c-5.7-0.4-10.5-2.7-14.3-7c-2.8-3.2-4.6-6.9-4.8-11.2c-0.1-1.9-0.1-3.8-0.1-5.8
	c0-16,0-32,0-48c0-1.9,0-3.8,0.1-5.8c0.5-9.5,9.1-17.7,18.1-18c3.2-0.1,6.4-0.1,9.6-0.1c44.8,0,89.6,0,134.4,0
	c2.6,0,5.1,0.1,7.7-0.1c2.5-0.2,5.1-0.5,7.5-1.2c6.9-2.2,11.5-6.8,13.4-13.8c0.6-2.1,0.9-4.4,1.1-6.6c0.2-1.9,0.1-3.8,0.1-5.8
	c0-45.7,0-91.5,0-137.2c0-3.8,0.1-7.7-0.8-11.4c-1.7-6.7-5.5-11.4-11.9-14.1c-1.7-0.7-3.7-1.2-5.5-1.4c-2.9-0.3-5.7-0.3-8.6-0.3
	c-14.4,0-28.8,0-43.2,0c-2.2,0-4.5,0.1-6.7-0.1c-6-0.5-11.1-2.9-14.9-7.7c-2.4-3.1-4-6.5-4.2-10.5c-0.1-2.6-0.1-5.1-0.1-7.7
	c0-14.7,0-29.4,0-44.1c0-2.9-0.1-5.8-0.6-8.6c-1.7-11-10.9-16.9-19.1-17.1c-2.6,0-5.1-0.1-7.7-0.1c-14.1,0-28.2,0-42.2,0
	c-2.6,0-5.1,0.1-7.7-0.2c-7.1-0.8-12.7-4.2-16.3-10.5c-1.3-2.2-2.2-4.6-2.3-7.2c-0.1-2.2-0.2-4.5-0.2-6.7c0-15.7,0-31.3,0-47
	c0-2.2,0-4.5,0.2-6.7c0.6-8.8,8.7-16.9,17.6-17.5c2.2-0.1,4.5-0.1,6.7-0.1c79.7,0,159.3,0,239,0c1.6,0,3.2,0.1,4.8,0
	c8.2-0.2,18.4,6.3,19.5,18.8c0.2,2.2,0.1,4.5,0.1,6.7c0,9.9,0,19.8,0,29.8C2702.1,1761.2,2702.1,1822.6,2702.1,1884z"/>
<path d="M1070.5,2459.9c0-69.4,0-138.8,0-208.2c0-2.9,0.2-5.8,0-8.6c-1.1-13.9,9.5-23.8,22.3-22.7c0.6,0.1,1.3,0,1.9,0
	c15.7,0,31.3,0,47,0c1.6,0,3.2,0.1,4.8,0c9.1-0.3,19.1,7.1,19.9,19.4c0.1,2.2,0.1,4.5,0.1,6.7c0,14.4,0,28.8,0,43.2
	c0,2.9-0.1,5.8,0.3,8.6c1.2,8.4,5.9,13.9,13.9,16.7c3.4,1.2,6.9,1.3,10.4,1.3c14.7,0,29.4,0,44.1,0c2.6,0,5.1-0.1,7.7,0.1
	c10.3,0.5,18,7.7,19.3,17.9c0.2,1.6,0.2,3.2,0.2,4.8c0,16.6,0,33.3,0,49.9c0,1.6,0,3.2-0.2,4.8c-1.2,9.7-8.4,17.1-18.2,18.3
	c-2.5,0.3-5.1,0.2-7.7,0.2c-14.4,0-28.8,0-43.2,0c-2.9,0-5.8,0-8.6,0.2c-9.1,0.6-17.4,8.6-17.9,18.2c-0.1,2.6-0.2,5.1-0.2,7.7
	c0,46.4,0,92.7,0,139.1c0,2.9-0.1,5.8,0.3,8.6c1.1,8.4,5.8,14,13.8,16.7c2.7,0.9,5.6,1.3,8.5,1.3c16.9,0.1,33.9,0.2,50.9,0
	c13.7-0.1,22.2-8.8,22.5-22.2c0.1-2.6,0-5.1,0-7.7c0-44.8,0-89.5,0-134.3c0-3.2,0-6.4,0.1-9.6c0.4-9.4,9.1-17.6,18.1-18
	c1.9-0.1,3.8-0.1,5.8-0.1c16,0,32,0,48,0c1.6,0,3.2,0.1,4.8,0.1c7.6,0,16.3,5.9,18.5,15.4c0.4,1.9,0.6,3.8,0.7,5.7
	c0.1,2.6,0.1,5.1,0.1,7.7c0,76.8,0,153.5,0,230.3c0,2.6,0,5.1,0,7.7c-0.1,12.1-9.3,21.2-21.5,21.1c-1.9,0-3.8,0-5.8,0
	c-77.7,0-155.4,0-233.1,0c-2.9,0-5.8,0.1-8.6-0.1c-6.8-0.6-12.1-3.8-15.9-9.5c-1.8-2.7-2.9-5.7-2.9-9c-0.1-3.2-0.1-6.4-0.1-9.6
	C1070.5,2601.3,1070.5,2530.6,1070.5,2459.9z"/>
<path d="M1839,588.7c22.7,0,45.4,0,68.1,0c2.6,0,5.1-0.1,7.7,0.1c10.3,0.5,18,7.7,19.3,17.9c0.3,2.2,0.2,4.5,0.2,6.7
	c0,8.6,0,17.3,0,25.9c0,37.7,0,75.5,0,113.2c0,2.9,0.1,5.8-0.1,8.6c-0.8,10.6-8.6,18.4-19.2,19.4c-2.2,0.2-4.5,0.1-6.7,0.1
	c-14.4,0-28.8,0-43.2,0c-2.9,0-5.8,0-8.6,0.2c-9.3,0.6-17.4,8.7-18,18.2c-0.2,2.9-0.2,5.8-0.2,8.6c0,14.4,0,28.8,0,43.2
	c0,2.2,0.1,4.5-0.1,6.7c-1,10.2-8.4,17.8-18.6,18.9c-2.5,0.3-5.1,0.2-7.7,0.2c-14.4,0-28.8,0-43.2,0c-2.9,0-5.8,0-8.6,0.3
	c-9.3,1-16.5,8.3-17.5,17.6c-0.3,2.9-0.3,5.7-0.3,8.6c0,14.4,0,28.8,0,43.2c0,2.2,0.1,4.5-0.1,6.7c-0.8,10.7-8.5,18.5-19,19.5
	c-1.3,0.1-2.6,0.1-3.8,0.1c-16.6,0-33.3,0-49.9,0c-1.6,0-3.2,0.1-4.8-0.2c-6.7-0.9-12-4.1-15.6-10c-1.5-2.5-2.5-5.2-2.6-8.1
	c-0.1-2.6-0.1-5.1-0.1-7.7c0-14.7,0-29.4,0-44.1c0-3.5-0.1-7-0.9-10.5c-2-8.6-9.9-14.7-17.7-15.2c-2.6-0.2-5.1-0.2-7.7-0.2
	c-14.4,0-28.8,0-43.2,0c-2.6,0-5.1,0.1-7.7-0.1c-7.5-0.8-13.2-4.4-16.7-11.2c-1-2-1.8-4.1-1.9-6.4c-0.1-2.2-0.2-4.5-0.2-6.7
	c0-15.7,0-31.3,0-47c0-2.2,0-4.5,0.2-6.7c0.6-9.3,9-17.1,17.5-17.6c3.2-0.2,6.4-0.2,9.6-0.2c45.1,0,90.2,0,135.3,0
	c2.6,0,5.1,0.1,7.7-0.1c2.5-0.2,5.1-0.5,7.5-1.3c6.5-2.1,10.9-6.5,12.9-13.1c0.7-2.4,1-5,1.2-7.5c0.2-2.5,0.1-5.1,0.1-7.7
	c0-44.8,0-89.5,0-134.3c0-2.9,0.1-5.8,0-8.6c0-10.3,9.2-19.5,19.8-19.3c2.6,0.1,5.1,0,7.7,0C1792.9,588.7,1816,588.7,1839,588.7z"/>
<path d="M1454.4,1836c0-23,0-46,0-69.1c0-2.6,0-5.1,0.1-7.7c0.2-10,9.2-18.5,18.4-18.7c2.6-0.1,5.1-0.1,7.7-0.1
	c14.7,0,29.4,0,44.1,0c3.2,0,6.4,0,9.5-0.8c8.2-2.1,13.5-7.2,15.3-15.4c0.7-3.1,0.8-6.3,0.9-9.5c0.1-15,0-30.1,0.1-45.1
	c0-2.6,0-5.1,0.2-7.7c0.6-8.6,8.6-16.8,17.7-17.3c2.2-0.1,4.5-0.1,6.7-0.1c47.3,0,94.6,0,142,0c1.9,0,3.8,0.1,5.8,0
	c8.1-0.2,18.3,6.3,19.4,18.8c0.3,2.9,0.1,5.8,0.1,8.6c0,40,0,79.9,0,119.9c0,6.4,0,12.8,0,19.2c0,1.9,0.1,3.8-0.1,5.8
	c-0.9,10.6-8.5,18.5-19.1,19.4c-2.2,0.2-4.5,0.1-6.7,0.1c-14.4,0-28.8,0-43.2,0c-2.9,0-5.8,0-8.6,0.2c-9.2,0.6-17.5,8.6-18.1,18.1
	c-0.2,2.9-0.2,5.7-0.2,8.6c0,13.7,0,27.5,0,41.2c0,2.2,0,4.5,0,6.7c-0.1,12.2-9.4,21.2-21.5,21.1c-1.6,0-3.2,0-4.8,0
	c-46.7,0-93.4,0-140,0c-2.2,0-4.5,0.1-6.7-0.1c-7.5-0.8-13.2-4.4-16.8-11.2c-1.1-2-1.8-4.1-1.9-6.4c-0.1-2.9-0.2-5.8-0.2-8.6
	C1454.4,1882.7,1454.4,1859.4,1454.4,1836z"/>
<path d="M2557.5,2700.2c-38.7,0-77.4,0-116.1,0c-2.9,0-5.8,0.2-8.6-0.2c-7.1-0.8-12.6-4.2-16.2-10.6c-1.3-2.3-2.1-4.6-2.3-7.3
	c-0.1-2.2-0.2-4.5-0.2-6.7c0-15.7,0-31.3,0-47c0-1.9,0-3.8,0.1-5.8c0.3-9.6,9.1-18.3,18.7-18.4c2.6,0,5.1-0.1,7.7-0.1
	c14.7,0,29.4,0,44.1,0c3.2,0,6.4-0.1,9.5-0.9c7.8-2.1,12.7-6.9,14.9-14.7c1-3.4,1-6.9,1-10.5c0-14.7,0-29.4,0-44.1
	c0-2.6,0-5.1,0.1-7.7c0.4-9.3,9-17.6,18.1-18c1.9-0.1,3.8-0.1,5.8-0.1c16,0,32,0,48,0c1.6,0,3.2,0,4.8,0.1
	c10.2,0.6,17.9,8,19.1,18.2c0.3,2.5,0.2,5.1,0.2,7.7c0,14.4,0,28.8,0,43.2c0,2.9,0,5.8,0.3,8.6c0.9,8.3,6.5,14.8,14.6,17.2
	c3.4,1,6.9,1.1,10.4,1.1c14.4,0,28.8,0,43.2,0c2.6,0,5.1,0.1,7.7,0c8.4-0.2,18.4,6.4,19.7,18.6c0.2,1.6,0.1,3.2,0.1,4.8
	c0,16.3,0,32.6,0,48.9c0,1.6,0,3.2-0.1,4.8c-1.1,10.1-8.6,17.7-18.8,18.6c-2.9,0.3-5.7,0.1-8.6,0.1
	C2635.5,2700.2,2596.5,2700.2,2557.5,2700.2z"/>
<path d="M2126.3,1163.7c0-22.7,0-45.4,0-68.1c0-2.9,0-5.8,0.1-8.6c0.3-9.5,8.9-17.7,17.9-18.2c1.9-0.1,3.8-0.1,5.8-0.1
	c16,0,32,0,48,0c1.6,0,3.2,0,4.8,0.1c10.2,0.6,18,7.8,19.2,18c0.3,2.5,0.2,5.1,0.2,7.7c0,14.4,0,28.8,0,43.2c0,2.9,0,5.8,0.2,8.6
	c0.5,7.7,6.4,15.1,14.4,17.3c3.4,1,6.9,1.2,10.4,1.2c14.4,0,28.8,0,43.2,0c2.6,0,5.1,0.1,7.7,0c9.3-0.3,19.2,7.2,19.9,19.4
	c0.2,2.5,0.1,5.1,0.1,7.7c0,21.1,0,42.2,0,63.3c0,24.9,0,49.9,0,74.8c0,2.6,0.1,5.1-0.1,7.7c-1,10.2-8.4,17.8-18.6,18.9
	c-1.6,0.2-3.2,0.2-4.8,0.2c-16.3,0-32.6,0-48.9,0c-1.6,0-3.2,0-4.8-0.1c-12.2-1.3-18.9-11.1-18.7-19.6c0-2.6,0-5.1,0-7.7
	c0-14.4,0-28.8,0-43.2c0-3.5-0.1-7-1.1-10.5c-2.3-8.1-8.8-13.8-17.1-14.7c-2.9-0.3-5.7-0.3-8.6-0.3c-14.4,0-28.8,0-43.2,0
	c-2.6,0-5.1,0.1-7.7-0.2c-6.4-0.8-11.5-3.7-15.1-9.1c-1.8-2.7-3-5.6-3.1-8.9c-0.1-2.9-0.1-5.8-0.1-8.6
	C2126.3,1210.4,2126.3,1187,2126.3,1163.7z"/>
<path d="M1454.4,1020.4c0-38.7,0-77.4,0-116.1c0-3.2,0-6.4,0.1-9.6c0.5-9.3,9-17.6,18.2-17.9c1.9-0.1,3.8-0.1,5.8-0.1
	c16,0,32,0,48,0c1.3,0,2.6,0.1,3.8,0c9.4-0.3,19.2,7.2,20,19.3c0.2,2.9,0.1,5.8,0.1,8.6c0,45.1,0,90.2,0,135.3c0,3.2,0,6.4,0.2,9.6
	c0.4,8.8,7.3,16.4,15.8,18.2c3.2,0.7,6.3,0.8,9.5,0.8c14.4,0,28.8,0,43.2,0c2.6,0,5.1-0.1,7.7,0.1c10.3,0.5,18,7.7,19.4,17.9
	c0.2,1.6,0.2,3.2,0.2,4.8c0,16.6,0,33.3,0,49.9c0,1.3,0,2.6-0.1,3.8c-0.9,10.6-8.6,18.4-19.2,19.4c-2.9,0.2-5.8,0.1-8.6,0.1
	c-43.2,0-86.4,0-129.6,0c-4.5,0-9,0-13.4,0c-2.9,0-5.8-0.5-8.4-1.6c-7.3-3.2-11.7-8.7-12.5-16.8c-0.3-2.9-0.1-5.8-0.1-8.6
	C1454.4,1098.5,1454.4,1059.4,1454.4,1020.4z"/>
<path d="M1695,1548.5c-39,0-78.1,0-117.1,0c-2.9,0-5.8,0.2-8.6-0.2c-7.5-0.8-13.2-4.4-16.8-11.2c-1.1-2-1.8-4.1-1.9-6.4
	c-0.1-2.6-0.2-5.1-0.2-7.7c0-47,0-94,0-141.1c0-2.6,0-5.1,0.2-7.7c0.6-9.2,9-17,17.5-17.6c1.9-0.1,3.8-0.2,5.8-0.2
	c16.3,0,32.6,0,48.9,0c1.3,0,2.6,0.1,3.8,0c8.4-0.2,18.4,6.4,19.6,18.7c0.2,2.5,0.1,5.1,0.1,7.7c0,14.4,0,28.8,0,43.2
	c0,2.9,0,5.8,0.3,8.6c1.1,8,5.6,13.5,13.2,16.2c2.7,1,5.6,1.2,8.5,1.5c2.5,0.2,5.1,0.1,7.7,0.1c44.8,0,89.6,0,134.4,0
	c2.9,0,5.8-0.1,8.6,0.1c9.9,0.5,17.4,7.4,19,17.2c0.3,1.9,0.3,3.8,0.3,5.7c0,16.6,0,33.3,0,49.9c0,1,0,1.9-0.1,2.9
	c-0.7,11.5-8.8,19.5-20.5,20.1c-2.6,0.1-5.1,0.1-7.7,0.1C1771.7,1548.5,1733.3,1548.5,1695,1548.5z"/>
<path d="M2606.6,2316.3c22.7,0,45.4,0,68.1,0c2.6,0,5.1,0.1,7.7,0c8.2-0.2,18.4,6.3,19.5,18.8c0.3,2.9,0.1,5.8,0.1,8.6
	c0,36.1,0,72.3,0,108.4c0,9.9,0,19.8,0,29.7c0,2.2,0.1,4.5-0.1,6.7c-0.8,10.6-8.5,18.5-19.1,19.5c-1.6,0.2-3.2,0.1-4.8,0.1
	c-16,0-32,0-48,0c-1.9,0-3.9,0.1-5.7-0.2c-6.7-0.9-12-4.1-15.5-10c-1.5-2.5-2.5-5.2-2.6-8.1c-0.1-2.6-0.1-5.1-0.1-7.7
	c0-14.7,0-29.4,0-44.1c0-2.9-0.1-5.8-0.6-8.6c-1.7-11-10.9-16.9-19.1-17.1c-2.6,0-5.1-0.1-7.7-0.1c-14.1,0-28.1,0-42.2,0
	c-2.6,0-5.1,0.1-7.7-0.2c-7.1-0.8-12.7-4.2-16.3-10.5c-1.3-2.2-2.2-4.6-2.3-7.2c-0.1-2.2-0.2-4.5-0.2-6.7c0-15.7,0-31.3,0-47
	c0-2.2,0-4.5,0.2-6.7c0.6-8.9,8.8-16.9,17.6-17.5c2.9-0.2,5.8-0.2,8.6-0.2C2559.9,2316.3,2583.3,2316.3,2606.6,2316.3z"/>
<path d="M1262.5,829.3c0-39,0-78,0-117c0-3.2,0-6.4,0.1-9.6c0.5-9.3,9.1-17.6,18.2-17.9c1.6-0.1,3.2-0.1,4.8-0.1
	c16.3,0,32.6,0,48.9,0c1.3,0,2.6,0.1,3.8,0c9.4-0.3,19.2,7.3,20,19.3c0.1,1.9,0.1,3.8,0.1,5.8c0,79.3,0,158.6,0,237.8
	c0,1.6,0,3.2-0.1,4.8c-0.7,11.5-8.8,19.4-20.4,20.1c-1.6,0.1-3.2,0-4.8,0c-15.3,0-30.7,0-46,0c-1.9,0-3.9,0.1-5.7-0.1
	c-7.1-0.8-12.7-4.1-16.3-10.4c-1.5-2.5-2.3-5.3-2.4-8.2c-0.1-2.9-0.1-5.8-0.1-8.6C1262.5,906.6,1262.5,868,1262.5,829.3z"/>
<path d="M2606.3,1452.5c23,0,46,0,69,0c2.6,0,5.1,0.1,7.7,0.1c7.6,0,15.9,5.9,18.1,14.6c0.6,2.1,0.9,4.4,0.9,6.6
	c0.1,17.6,0,35.2,0,52.7c0,1,0,1.9-0.1,2.9c-1,10.2-8.4,17.8-18.6,18.9c-1.9,0.2-3.8,0.2-5.7,0.2c-47.9,0-95.9,0-143.8,0
	c-1.9,0-3.9,0-5.7-0.2c-11.9-1.7-18-11.4-17.9-19.4c0-1.6,0-3.2,0-4.8c0-15.7,0-31.3,0-47c0-1.9,0-3.8,0.1-5.8
	c0.2-10,9.1-18.5,18.4-18.7c2.6-0.1,5.1-0.1,7.7-0.1C2559.6,1452.5,2583,1452.5,2606.3,1452.5z"/>
<path d="M878.7,1644.5c23,0,46,0,69,0c2.6,0,5.1,0.1,7.7,0.1c7.5,0,15.9,5.9,18.1,14.6c0.5,2.1,0.9,4.4,0.9,6.6
	c0.1,17.6,0,35.2,0,52.7c0,1,0,1.9-0.1,2.9c-1,10.2-8.4,17.8-18.6,18.9c-1.9,0.2-3.8,0.2-5.7,0.2c-47.9,0-95.9,0-143.8,0
	c-1.9,0-3.9,0-5.7-0.2c-11.9-1.7-18-11.4-17.9-19.4c0-1.6,0-3.2,0-4.8c0-15.7,0-31.3,0-47c0-1.9,0-3.8,0.1-5.8
	c0.2-10.1,9.2-18.5,18.4-18.7c2.6-0.1,5.1-0.1,7.7-0.1C832,1644.5,855.4,1644.5,878.7,1644.5z"/>
<path d="M1838.3,971.8c0-22.7,0-45.4,0-68.1c0-2.9,0-5.8,0.1-8.6c0.3-9.5,9-18.2,18.7-18.4c1.6,0,3.2-0.1,4.8-0.1
	c16.3,0,32.6,0,48.9,0c1.3,0,2.6,0,3.8,0.1c10.3,0.5,18.1,7.6,19.4,17.8c0.4,2.8,0.2,5.7,0.2,8.6c0,38.4,0,76.7,0,115.1
	c0,8.3,0,16.6,0,24.9c0,1.9,0.1,3.8-0.1,5.8c-0.8,11.1-8.8,18.8-19.9,19.6c-1.6,0.1-3.2,0.1-4.8,0.1c-15.7,0-31.3,0-47,0
	c-1.9,0-3.9,0.1-5.7-0.2c-6.4-0.8-11.5-3.7-15.1-9.1c-1.8-2.7-3.1-5.6-3.2-8.9c-0.1-2.9-0.2-5.7-0.2-8.6
	C1838.3,1018.5,1838.3,995.2,1838.3,971.8z"/>
<path d="M1070.5,875.7c0-22.7,0-45.4,0-68.1c0-2.9,0-5.8,0.1-8.6c0.3-9.5,8.9-17.7,17.9-18.2c1.9-0.1,3.8-0.1,5.7-0.1
	c16,0,32,0,47.9,0c1.6,0,3.2,0.1,4.8,0c7.5-0.2,17.2,5.6,19.1,17c0.3,1.6,0.3,3.2,0.3,4.8c0.1,2.2,0,4.5,0,6.7
	c0,45.1,0,90.1,0,135.2c0,2.9,0.1,5.8-0.1,8.6c-0.8,10.6-8.5,18.4-19.1,19.4c-1.3,0.1-2.6,0.1-3.8,0.1c-16.6,0-33.2,0-49.9,0
	c-1.6,0-3.2,0-4.8-0.2c-5.3-0.7-9.8-2.8-13.3-6.9c-2.8-3.2-4.6-6.9-4.8-11.2c-0.1-2.9-0.1-5.7-0.1-8.6
	C1070.5,922.4,1070.5,899.1,1070.5,875.7z"/>
<path d="M1646.4,2220c0-23,0-46,0-69c0-2.9,0-5.8,0.1-8.6c0.5-9.4,9.1-17.6,18.2-17.9c1.9-0.1,3.8-0.1,5.8-0.1c16,0,32,0,47.9,0
	c1.3,0,2.6,0.1,3.8,0c9.4-0.3,19.2,7.2,20,19.3c0.2,2.5,0.1,5.1,0.1,7.7c0,17.6,0,35.2,0,52.7c0,28.1,0,56.3,0,84.4
	c0,2.6,0.1,5.1-0.1,7.7c-0.7,11.5-8.7,19.5-20.4,20.1c-1.6,0.1-3.2,0.1-4.8,0.1c-15.3,0-30.7,0-46,0c-2.2,0-4.5,0.1-6.7-0.2
	c-7.1-1-12.5-4.6-15.9-11c-1.1-2-1.8-4.1-1.9-6.4c-0.1-2.9-0.2-5.7-0.2-8.6C1646.4,2266.7,1646.4,2243.4,1646.4,2220z"/>
<path d="M1886.5,300.8c8.9,0,17.9,0,26.8,0c2.9,0,5.7,0.2,8.4,1.5c7.3,3.3,11.3,9.1,12.4,17c0.2,1.9,0.2,3.8,0.2,5.7
	c0,15.7,0,31.3,0,47c0,1.9,0.1,3.8-0.1,5.7c-1,10.2-8.5,17.7-18.6,18.9c-1.6,0.2-3.2,0.2-4.8,0.2c-16.3,0-32.6,0-48.9,0
	c-1.6,0-3.2,0-4.8-0.1c-12.2-1.2-18.9-11.1-18.8-19.5c0-1.9,0-3.8,0-5.7c0-15,0-30,0-45c0-2.2,0-4.5,0.1-6.7
	c0.2-9.9,9.1-18.4,18.4-18.7c2.2-0.1,4.5-0.1,6.7-0.1C1871.2,300.8,1878.9,300.8,1886.5,300.8
	C1886.5,300.8,1886.5,300.8,1886.5,300.8z"/>
<path d="M1550.4,636.3c0-8.9,0-17.9,0-26.8c0-3.9,0.6-7.6,2.7-11c3.7-5.7,8.7-9.2,15.6-9.7c1.6-0.1,3.2-0.1,4.8-0.1
	c16.3,0,32.6,0,48.9,0c1.3,0,2.6,0.1,3.8,0c9.3-0.3,19.1,7.2,20,19.3c0.1,1,0.1,1.9,0.1,2.9c0,16.9,0,33.9,0,50.8
	c0,1.3,0,2.6-0.1,3.8c-1,10.2-8.4,17.8-18.5,18.9c-1.6,0.2-3.2,0.2-4.8,0.2c-16.6,0-33.2,0-49.8,0c-1.6,0-3.2,0-4.8-0.2
	c-12-1.7-18-11.5-17.9-19.4C1550.5,655.5,1550.5,645.9,1550.4,636.3C1550.4,636.3,1550.4,636.3,1550.4,636.3z"/>
<path d="M927.1,1452.5c8.6,0,17.2,0,25.9,0c3.2,0,6.4,0.2,9.3,1.6c6.9,3.3,10.8,8.8,11.9,16.2c0.2,1.6,0.2,3.2,0.2,4.8
	c0,16.6,0,33.2,0,49.8c0,1.3,0,2.6-0.1,3.8c-0.9,11-8.8,18.8-20,19.5c-1.6,0.1-3.2,0.1-4.8,0.1c-15.7,0-31.3,0-47,0
	c-1.9,0-3.9,0.1-5.7-0.2c-6.3-0.8-11.5-3.7-15.1-9.1c-1.8-2.7-3-5.6-3.2-8.9c-0.1-1.6-0.1-3.2-0.1-4.8c0-16.9,0-33.9,0-50.8
	c0-1.3,0.1-2.6,0.1-3.8c0.3-9.5,9.1-18.2,18.8-18.3c2.2,0,4.5-0.1,6.7-0.1C911.8,1452.5,919.5,1452.5,927.1,1452.5
	C927.1,1452.5,927.1,1452.5,927.1,1452.5z"/>
<path d="M2414.2,1307.9c0-7.3,0-14.7,0-22c0-2.2,0-4.5,0.1-6.7c0.2-9.7,9.1-18.3,18.6-18.5c1.9,0,3.8-0.1,5.7-0.1
	c15.7,0,31.3,0,47,0c1.6,0,3.2,0.1,4.8,0c8.3-0.2,18.4,6.3,19.6,18.6c0.2,1.6,0.1,3.2,0.1,4.8c0,16.3,0,32.6,0,48.9
	c0,1.6,0,3.2-0.1,4.8c-1.1,10.1-8.6,17.6-18.8,18.7c-1.9,0.2-3.8,0.1-5.7,0.1c-15.7,0-31.3,0-47,0c-1.9,0-3.9,0.1-5.7-0.1
	c-7.1-0.9-12.6-4.3-16.2-10.6c-1.3-2.3-2.1-4.6-2.3-7.3c-0.1-2.2-0.2-4.5-0.2-6.7C2414.2,1323.9,2414.2,1315.9,2414.2,1307.9z"/>
<path d="M1022.5,1548.5c8.9,0,17.9,0,26.8,0c3.2,0,6.3,0.3,9.3,1.8c6.9,3.4,10.6,9,11.7,16.4c0.3,1.9,0.2,3.8,0.2,5.7
	c0,16,0,31.9,0,47.9c0,1.9,0,3.8-0.2,5.7c-1.2,9.7-8.5,17-18.3,18.1c-2.2,0.3-4.5,0.2-6.7,0.2c-15.3,0-30.7,0-46,0
	c-2.2,0-4.5,0.1-6.7-0.2c-7.1-1-12.5-4.5-15.9-11c-1.1-2-1.8-4.1-2-6.4c-0.1-2.2-0.2-4.5-0.2-6.7c0-16,0-31.9,0-47.9
	c0-1.9,0-3.8,0.1-5.7c0.5-9.4,9.1-17.6,18.1-17.9c2.2-0.1,4.5-0.1,6.7-0.1c0.3,0,0.6,0,1,0
	C1007.8,1548.5,1015.2,1548.5,1022.5,1548.5C1022.5,1548.5,1022.5,1548.5,1022.5,1548.5z"/>
<path d="M1262.5,1595.4c0-7.3,0-14.7,0-22c0-2.2,0-4.5,0.1-6.7c0.5-9.4,9-17.6,18.1-18c1.9-0.1,3.8-0.1,5.7-0.1c16,0,31.9,0,47.9,0
	c1.6,0,3.2,0,4.8,0.1c9.9,0.6,17.4,7.4,19,17.1c0.3,1.9,0.3,3.8,0.3,5.7c0,16.6,0,33.2,0,49.8c0,1.6,0,3.2-0.2,4.8
	c-1.2,9.7-8.5,17-18.2,18.2c-1.9,0.2-3.8,0.2-5.7,0.2c-16,0-31.9,0-47.9,0c-1.9,0-3.9,0.1-5.7-0.2c-7.9-1.2-13.5-5.3-16.8-12.6
	c-1.2-2.7-1.4-5.6-1.4-8.4c0-7,0-14.1,0-21.1C1262.5,1599.8,1262.5,1597.6,1262.5,1595.4z"/>
<path d="M1454.5,1596.2c0-9.3,0-18.5,0-27.8c0-3.9,0.9-7.6,3.2-10.9c3.7-5.3,8.6-8.5,15.1-8.9c1.9-0.1,3.8-0.1,5.7-0.1
	c16,0,31.9,0,47.9,0c1.6,0,3.2,0,4.8,0.1c9.8,0.6,17.3,7.5,18.9,17.3c0.3,1.9,0.3,3.8,0.3,5.7c0,16.6,0,33.2,0,49.8
	c0,1.3,0,2.6-0.1,3.8c-1,10.5-8.8,18.2-19.4,19.1c-1.9,0.2-3.8,0.1-5.7,0.1c-15.3,0-30.7,0-46,0c-1.9,0-3.8,0.1-5.7-0.1
	c-5.3-0.5-9.9-2.5-13.5-6.4c-3.1-3.4-5.1-7.3-5.3-12c-0.1-2.2-0.1-4.5-0.1-6.7C1454.4,1611.5,1454.4,1603.9,1454.5,1596.2
	C1454.4,1596.2,1454.4,1596.2,1454.5,1596.2z"/>
<path d="M1166.5,1692.1c0-8.9,0-17.9,0-26.8c0-4.3,0.8-8.3,3.3-11.8c3.7-5.2,8.6-8.5,15.1-8.8c1.9-0.1,3.8-0.1,5.7-0.1
	c15.7,0,31.3,0,47,0c1.6,0,3.2,0.1,4.8,0c9.3-0.3,19.1,7.2,20,19.3c0.1,1.3,0.1,2.6,0.1,3.8c0,16.3,0,32.6,0,48.9
	c0,1.6,0,3.2-0.1,4.8c-1,10.2-8.4,17.8-18.5,18.9c-1.6,0.2-3.2,0.2-4.8,0.2c-16.6,0-33.2,0-49.8,0c-1.6,0-3.2,0-4.8-0.2
	c-11.9-1.7-17.9-11.5-17.9-19.4C1166.6,1711.2,1166.5,1701.7,1166.5,1692.1C1166.5,1692.1,1166.5,1692.1,1166.5,1692.1z"/>
<path d="M2606.1,1211.8c0-7.3,0-14.7,0-22c0-2.2,0-4.5,0.1-6.7c0.3-9.6,9.1-18.3,18.7-18.4c1.9,0,3.8-0.1,5.7-0.1
	c15.7,0,31.3,0,47,0c1.6,0,3.2,0.1,4.8,0c8.1-0.2,18.3,6.2,19.5,18.7c0.2,1.6,0.1,3.2,0.1,4.8c0,16.3,0,32.6,0,48.9
	c0,1.6,0,3.2-0.2,4.8c-1.1,10.1-8.7,17.6-18.9,18.6c-1.9,0.2-3.8,0.1-5.7,0.1c-15.7,0-31.3,0-47,0c-1.9,0-3.9,0.1-5.7-0.2
	c-6.7-0.8-12.1-4-15.6-9.8c-1.5-2.5-2.6-5.1-2.7-8.1c-0.1-2.2-0.1-4.5-0.2-6.7C2606.1,1227.8,2606.1,1219.8,2606.1,1211.8z"/>
<path d="M2558.7,1068.6c8.6,0,17.2,0,25.9,0c3.2,0,6.4,0.2,9.4,1.6c6.9,3.3,10.9,8.7,12,16.2c0.3,2.2,0.2,4.5,0.2,6.7
	c0,15.7,0,31.3,0,47c0,1.9,0.1,3.8-0.2,5.7c-1.1,10.1-8.7,17.6-18.8,18.6c-1.9,0.2-3.8,0.1-5.7,0.1c-15.7,0-31.3,0-47,0
	c-1.9,0-3.9,0.1-5.7-0.2c-6.7-0.8-12.1-4-15.7-9.8c-1.5-2.5-2.6-5.1-2.7-8.1c-0.1-2.2-0.2-4.5-0.2-6.7c0-15.7,0-31.3,0-47
	c0-1.9,0-3.8,0.1-5.7c0.3-9.6,9.1-18.3,18.7-18.4c2.2,0,4.5-0.1,6.7-0.1C2543.3,1068.6,2551,1068.6,2558.7,1068.6
	C2558.7,1068.6,2558.7,1068.6,2558.7,1068.6z"/>
<path d="M2318.2,1116.1c0-8.9,0-17.9,0-26.8c0-3.9,0.6-7.6,2.8-11c3.7-5.7,8.8-9.2,15.7-9.6c1.9-0.1,3.8-0.1,5.7-0.1
	c15.7,0,31.3,0,47,0c1.6,0,3.2,0.1,4.8,0c9.1-0.3,19.1,7.1,19.9,19.4c0.1,1.3,0.1,2.6,0.1,3.8c0,16.3,0,32.6,0,48.9
	c0,1.6,0,3.2-0.1,4.8c-1,10.2-8.5,17.7-18.6,18.9c-1.6,0.2-3.2,0.2-4.8,0.2c-16.3,0-32.6,0-48.9,0c-1.6,0-3.2,0-4.8-0.1
	c-12.2-1.2-18.8-11.1-18.8-19.5C2318.3,1135.3,2318.3,1125.7,2318.2,1116.1C2318.3,1116.1,2318.2,1116.1,2318.2,1116.1z"/>
<path d="M1454.4,731.6c0-7.3,0-14.7,0-22c0-2.2,0-4.5,0.1-6.7c0.5-9.5,9.1-17.6,18.1-18c1.9-0.1,3.8-0.1,5.7-0.1c16,0,31.9,0,47.9,0
	c1.6,0,3.2,0,4.8,0.1c9.8,0.6,17.4,7.4,19,17.2c0.3,1.9,0.3,3.8,0.3,5.7c0,16.6,0,33.2,0,49.8c0,1.6,0,3.2-0.2,4.8
	c-1.2,9.7-8.5,17-18.2,18.2c-1.9,0.2-3.8,0.2-5.7,0.2c-16,0-31.9,0-47.9,0c-1.9,0-3.9,0.1-5.7-0.2c-7.5-1.1-13-4.9-16.4-11.8
	c-1.5-3-1.7-6.1-1.8-9.3c0-7,0-14.1,0-21.1C1454.4,736,1454.4,733.8,1454.4,731.6z"/>
<path d="M2414.2,2459.4c0-7.3,0-14.7,0-22c0-2.2,0-4.5,0.1-6.7c0.3-9.5,9.1-18.2,18.8-18.3c1.6,0,3.2-0.1,4.8-0.1
	c16,0,31.9,0,47.9,0c1.6,0,3.2,0,4.8,0.1c10.3,0.5,18,7.6,19.4,17.8c0.2,1.6,0.2,3.2,0.2,4.8c0,16.9,0,33.9,0,50.8
	c0,1,0,1.9-0.1,2.9c-0.9,11-8.8,18.8-20,19.5c-1.6,0.1-3.2,0.1-4.8,0.1c-15.7,0-31.3,0-47,0c-1.9,0-3.9,0.1-5.7-0.2
	c-6.3-0.8-11.5-3.7-15.1-9.1c-1.8-2.7-3-5.6-3.2-8.9c-0.1-2.2-0.1-4.5-0.1-6.7C2414.2,2475.4,2414.2,2467.4,2414.2,2459.4z"/>
<path class="st0" d="M2077.9,1932.4c38.7,0,77.4,0,116.1,0c3.2,0,6.4,0,9.6,0.2c7.7,0.4,15.7,6.4,17.7,15.2c0.5,2.2,0.8,4.4,0.9,6.6
	c0.2,2.5,0.1,5.1,0.1,7.7c0,76.1,0,152.2,0,228.3c0,2.6,0.1,5.1-0.1,7.7c-0.2,2.5-0.5,5.1-1.2,7.5c-2.1,6.9-6.7,11.5-13.7,13.5
	c-2.1,0.6-4.4,0.9-6.6,1.1c-1.9,0.2-3.8,0.1-5.8,0.1c-78,0-156,0-234.1,0c-2.6,0-5.1,0-7.7-0.3c-4.9-0.6-9.3-2.3-12.8-5.9
	c-3.2-3.3-5.4-7.2-5.8-11.8c-0.2-2.5-0.3-5.1-0.3-7.7c0-79,0-158,0-237c0-2.6,0-5.1,0.3-7.7c1.1-9.3,8.3-16.5,17.7-17.4
	c3.2-0.3,6.4-0.3,9.6-0.3C2000.5,1932.4,2039.2,1932.4,2077.9,1932.4z M2030.3,2076C2030.3,2076,2030.3,2076,2030.3,2076
	c0,9.6,0.1,19.2,0,28.7c-0.1,7.9,6,17.7,17.9,19.4c1.6,0.2,3.2,0.2,4.8,0.2c16.6,0,33.2,0,49.8,0c1.6,0,3.2,0,4.8-0.2
	c10.1-1.2,17.5-8.8,18.5-18.9c0.1-1.3,0.1-2.6,0.1-3.8c0-16.9,0-33.9,0-50.8c0-1,0-1.9-0.1-2.9c-0.8-12.2-10.7-19.6-20-19.3
	c-1.6,0-3.2,0-4.8,0c-15.7,0-31.3,0-47,0c-1.9,0-3.8,0-5.7,0.1c-6.9,0.4-12,3.9-15.6,9.7c-2.1,3.4-2.8,7.1-2.8,11
	C2030.3,2058.1,2030.3,2067,2030.3,2076z"/>
<path class="st0" d="M1214.5,1932.4c7.7,0,15.3,0,23,0c2.2,0,4.5,0.1,6.7,0.2c6.6,0.4,14.9,5.5,17.1,14.5c0.7,2.8,1.1,5.7,1.1,8.5
	c0.1,16.3,0.1,32.6,0,48.9c0,2.8-0.3,5.8-1.1,8.5c-1.9,7.4-6.8,12.2-14.1,14.2c-2.7,0.7-5.7,1.1-8.5,1.1c-16.3,0.1-32.6,0-48.9,0.1
	c-2.9,0-5.7-0.4-8.5-1.1c-8.3-2.2-14-9.8-14.6-17.2c-0.2-2.2-0.2-4.5-0.2-6.7c0-15.3,0-30.7,0-46c0-2.6,0-5.1,0.3-7.6
	c1.1-8.8,8.2-15.9,17-17c2.5-0.3,5.1-0.2,7.6-0.4c0.3,0,0.6,0,1,0C1199.8,1932.4,1207.1,1932.4,1214.5,1932.4z"/>
<path class="st0" d="M638.2,396.8c72.9,0,145.8,0,218.8,0c3.5,0,7-0.1,10.5,0.2c5.5,0.4,9.4,4.1,10.5,9.6c0.3,1.6,0.4,3.2,0.5,4.8
	c0.1,2.2,0,4.5,0,6.7c0,145.5,0,291.1,0,436.6c0,2.9,0.1,5.8-0.1,8.6c-0.1,1.9-0.5,3.8-1.1,5.6c-1.1,3.2-3.3,5.5-6.5,6.6
	c-1.8,0.6-3.7,1-5.6,1.2c-2.9,0.2-5.8,0.1-8.6,0.1c-145.5,0-291.1,0-436.6,0c-2.9,0-5.8,0.1-8.6-0.1c-1.6-0.1-3.2-0.4-4.7-0.9
	c-4.3-1.5-6.9-4.4-7.7-9c-0.3-1.6-0.3-3.2-0.3-4.8c-0.1-2.6,0-5.1,0-7.7c0-145.2,0-290.4,0-435.6c0-3.5-0.1-7,0.2-10.5
	c0.5-6.4,4.6-10.6,11-11.1c3.2-0.2,6.4-0.2,9.6-0.2C492.4,396.8,565.3,396.8,638.2,396.8z M494.5,635.5c0,39,0,78.1,0,117.1
	c0,3.5,0.1,7,0.3,10.5c0.1,3,1.3,5.6,2.9,8c3.8,5.7,9.1,8.8,15.9,9.4c2.5,0.2,5.1,0.1,7.7,0.1c78.1,0,156.1,0,234.2,0
	c2.2,0,4.5,0.1,6.7-0.1c11.6-0.6,19.6-8.6,20.3-20.2c0.2-2.6,0.1-5.1,0.1-7.7c0-77.4,0-154.8,0-232.2c0-2.2,0-4.5,0-6.7
	c0-1.3-0.1-2.6-0.3-3.8c-1.8-10.9-10.8-17.3-19-17.3c-2.2,0-4.5-0.1-6.7-0.1c-78.7,0-157.4,0-236.1,0c-2.6,0-5.1,0.1-7.7,0.1
	c-8.8,0.3-17.6,8.2-18.1,18c-0.2,3.5-0.2,7-0.2,10.5C494.5,559.4,494.5,597.5,494.5,635.5z"/>
<path class="st0" d="M2126.2,635.9c0-72.6,0-145.2,0-217.8c0-3.5,0-7,0.2-10.5c0.3-5.8,5.1-10.3,10.5-10.6c1.6-0.1,3.2-0.2,4.8-0.2
	c2.2,0,4.5,0,6.7,0c144.9,0,289.8,0,434.7,0c3.8,0,7.7,0,11.5,0.2c5.2,0.2,9.9,3.5,11.1,10.1c0.2,1.3,0.3,2.5,0.4,3.8
	c0.1,2.2,0,4.5,0,6.7c0,145.8,0,291.7,0,437.5c0,2.6,0.1,5.1-0.1,7.7c-0.1,1.9-0.4,3.8-1,5.6c-1.1,3.6-3.5,6.1-7.1,7.2
	c-1.8,0.6-3.7,0.9-5.6,1c-2.5,0.2-5.1,0.1-7.7,0.1c-145.8,0-291.7,0-437.5,0c-2.6,0-5.1,0.2-7.7-0.1c-2.2-0.2-4.5-0.7-6.5-1.5
	c-3.4-1.4-5.6-4.2-6.3-7.9c-0.3-1.6-0.4-3.2-0.4-4.8c-0.1-2.9,0-5.8,0-8.6C2126.2,781.1,2126.2,708.5,2126.2,635.9z M2366.2,492.6
	c-39,0-78.1,0-117.1,0c-3.2,0-6.4-0.1-9.6,0.3c-8.8,0.9-16.1,8-17.1,16.8c-0.4,3.2-0.4,6.4-0.4,9.6c0,78.1,0,156.1,0,234.2
	c0,2.6,0.1,5.1,0.1,7.7c0.1,9.9,8.4,19.1,19.8,19.5c2.2,0.1,4.5,0.1,6.7,0.1c78.1,0,156.1,0,234.2,0c2.2,0,4.5,0.1,6.7-0.1
	c11.6-0.6,19.7-8.6,20.4-20.1c0.2-2.9,0.1-5.8,0.1-8.6c0-76.8,0-153.6,0-230.3c0-2.6,0-5.1,0-7.7c0-1.3-0.1-2.6-0.3-3.8
	c-1.8-11.2-11.1-17.4-18.9-17.4c-3.2,0-6.4-0.1-9.6-0.1C2443,492.6,2404.6,492.6,2366.2,492.6z"/>
<path class="st0" d="M398.7,2363.4c0-72.6,0-145.2,0-217.8c0-3.5,0-7,0.2-10.5c0.3-5.6,5.1-10.2,10.6-10.5c2.2-0.1,4.5-0.2,6.7-0.2
	c7,0,14.1,0,21.1,0c139.8,0,279.5,0,419.3,0c3.5,0,7,0,10.5,0.2c5.1,0.2,9.8,3.4,11,10.2c0.3,1.6,0.3,3.2,0.4,4.8
	c0.1,2.6,0,5.1,0,7.7c0,144.6,0,289.1,0,433.7c0,3.2,0.1,6.4-0.1,9.6c-0.1,1.9-0.4,3.8-1,5.6c-1.1,3.6-3.6,6.1-7.2,7.1
	c-1.8,0.5-3.7,0.9-5.6,1c-2.5,0.2-5.1,0.1-7.7,0.1c-145.8,0-291.7,0-437.5,0c-2.6,0-5.1,0.2-7.7-0.1c-2.2-0.2-4.5-0.7-6.5-1.5
	c-3.4-1.5-5.6-4.2-6.2-8c-0.3-1.6-0.4-3.2-0.4-4.8c-0.1-2.9,0-5.8,0-8.6C398.7,2508.6,398.7,2436,398.7,2363.4z M638.7,2220.2
	c-38.7,0-77.4,0-116.1,0c-3.2,0-6.4,0-9.6,0.1c-9,0.3-17.7,8.3-18.3,17.8c-0.2,2.9-0.2,5.8-0.2,8.6c0,78.1,0,156.1,0,234.2
	c0,2.6,0.1,5.1,0.1,7.7c0.1,10,8.4,19.1,19.8,19.6c2.2,0.1,4.5,0.1,6.7,0.1c78.1,0,156.1,0,234.2,0c2.2,0,4.5,0.1,6.7,0
	c11.6-0.6,19.8-8.5,20.5-20c0.2-2.9,0.1-5.8,0.1-8.6c0-76.8,0-153.6,0-230.3c0-2.6,0.1-5.1,0-7.7c-0.1-1.9-0.3-3.8-0.7-5.7
	c-1.9-9-10.2-15.5-18.4-15.6c-3.2,0-6.4-0.1-9.6-0.1C715.5,2220.2,677.1,2220.2,638.7,2220.2z"/>
<path d="M2030.3,2076c0-8.9,0-17.9,0-26.8c0-3.9,0.6-7.6,2.8-11c3.7-5.7,8.7-9.2,15.6-9.7c1.9-0.1,3.8-0.1,5.7-0.1
	c15.7,0,31.3,0,47,0c1.6,0,3.2,0.1,4.8,0c9.2-0.3,19.1,7.1,20,19.3c0.1,1,0.1,1.9,0.1,2.9c0,16.9,0,33.9,0,50.8c0,1.3,0,2.6-0.1,3.8
	c-1,10.2-8.4,17.8-18.5,18.9c-1.6,0.2-3.2,0.2-4.8,0.2c-16.6,0-33.2,0-49.8,0c-1.6,0-3.2,0-4.8-0.2c-11.9-1.7-18-11.5-17.9-19.4
	C2030.4,2095.1,2030.3,2085.6,2030.3,2076C2030.3,2076,2030.3,2076,2030.3,2076z"/>
<path d="M494.5,635.5c0-38.1,0-76.1,0-114.2c0-3.5,0-7,0.2-10.5c0.5-9.7,9.3-17.7,18.1-18c2.6-0.1,5.1-0.1,7.7-0.1
	c78.7,0,157.4,0,236.1,0c2.2,0,4.5,0.1,6.7,0.1c8.1,0,17.2,6.4,19,17.3c0.2,1.3,0.3,2.5,0.3,3.8c0,2.2,0,4.5,0,6.7
	c0,77.4,0,154.8,0,232.2c0,2.6,0.1,5.1-0.1,7.7c-0.7,11.6-8.8,19.6-20.3,20.2c-2.2,0.1-4.5,0.1-6.7,0.1c-78.1,0-156.1,0-234.2,0
	c-2.6,0-5.1,0.1-7.7-0.1c-6.8-0.6-12.2-3.7-15.9-9.4c-1.6-2.4-2.8-5.1-2.9-8c-0.2-3.5-0.3-7-0.3-10.5
	C494.5,713.6,494.5,674.6,494.5,635.5z"/>
<path d="M2366.2,492.6c38.4,0,76.8,0,115.2,0c3.2,0,6.4,0.1,9.6,0.1c7.8,0,17.1,6.2,18.9,17.4c0.2,1.3,0.2,2.5,0.3,3.8
	c0,2.6,0,5.1,0,7.7c0,76.8,0,153.6,0,230.3c0,2.9,0.1,5.8-0.1,8.6c-0.7,11.5-8.8,19.5-20.4,20.1c-2.2,0.1-4.5,0.1-6.7,0.1
	c-78.1,0-156.1,0-234.2,0c-2.2,0-4.5,0-6.7-0.1c-11.5-0.4-19.8-9.6-19.8-19.5c0-2.6-0.1-5.1-0.1-7.7c0-78.1,0-156.1,0-234.2
	c0-3.2,0-6.4,0.4-9.6c1-8.8,8.4-16,17.1-16.8c3.2-0.3,6.4-0.3,9.6-0.3C2288.2,492.6,2327.2,492.6,2366.2,492.6z"/>
<path d="M638.7,2220.2c38.4,0,76.8,0,115.2,0c3.2,0,6.4,0.1,9.6,0.1c8.2,0.1,16.5,6.6,18.4,15.6c0.4,1.9,0.6,3.8,0.7,5.7
	c0.1,2.6,0,5.1,0,7.7c0,76.8,0,153.6,0,230.3c0,2.9,0.1,5.8-0.1,8.6c-0.7,11.5-8.9,19.5-20.5,20c-2.2,0.1-4.5,0-6.7,0
	c-78.1,0-156.1,0-234.2,0c-2.2,0-4.5,0-6.7-0.1c-11.4-0.5-19.7-9.6-19.8-19.6c0-2.6-0.1-5.1-0.1-7.7c0-78.1,0-156.1,0-234.2
	c0-2.9,0.1-5.8,0.2-8.6c0.6-9.5,9.2-17.6,18.3-17.8c3.2-0.1,6.4-0.1,9.6-0.1C561.3,2220.2,600,2220.2,638.7,2220.2z"/>
</svg>
