<?xml version="1.0" encoding="utf-8"?>
<!-- Generator: Adobe Illustrator 24.1.2, SVG Export Plug-In . SVG Version: 6.00 Build 0)  -->
<svg version="1.1" id="Camada_1" xmlns="http://www.w3.org/2000/svg" xmlns:xlink="http://www.w3.org/1999/xlink" x="0px" y="0px"
	 viewBox="0 0 346.9 384.5" style="enable-background:new 0 0 346.9 384.5;" xml:space="preserve">
<style type="text/css">
	.st0{fill:#FFFFFF;}
</style>
<g>
	<path class="st0" d="M172.3,201.2c9.7-9.7,19.3-19.3,29.1-29.1c-39-39-77.9-77.9-116.6-116.6c-9.7,9.8-19.3,19.3-28.9,29
		c0.7,1.3,42.8,43.6,45.7,45.9c1.3-0.5,2.6-1,3.9-1.5c6.5-2.6,13.2-3.3,20-1.9c14.7,3.1,24.6,11.7,29.6,25.9
		c2.2,6.3,2.5,12.7,1.1,19.1c-2.3,10.4-7.9,18.7-16.9,24.5c-6.9,4.4-14.5,6.4-22.7,5.8c-14.2-1-24.6-8-31.5-20.3
		c-4.1-7.3-5-15.3-3.9-23.5c0.4-2.8,1.4-5.6,2.3-8.3c0.4-1.1,0.2-1.8-0.5-2.6c-6.7-6.6-13.3-13.3-20-19.9c-0.1-0.1-0.3-0.1-0.6-0.2
		c-0.3,0.3-0.8,0.6-1.1,1c-8.9,10.9-16.1,22.8-21.5,35.7c-2.9,6.9-5.2,13.9-6.8,21.1c-1.7,7.4-3.1,14.8-3.3,22.5
		c0,2.1-0.4,4.1-0.5,6.2c-0.1,2.8-0.1,5.6,0,8.4c0.3,5.2,0.7,10.4,1.3,15.5c0.4,3.5,1.2,6.9,2,10.3c0.7,3.2,1.6,6.3,2.4,9.5
		c2,7.7,5,15,8.4,22.1c4.9,10.2,11.1,19.7,18.4,28.5c9.1,11,19.8,20.4,31.7,28.2c7.2,4.7,14.8,8.8,22.8,12c6,2.4,12.3,4.3,18.6,6.1
		c3.8,1.1,7.8,1.5,11.7,2.5c4.1,1,8.4,1,12.6,1.6c5.8,0.9,11.6,0.6,17.5,0.5c3.7,0,7.5-0.6,11.2-1.1c5.1-0.8,10.3-1.5,15.3-2.7
		c4.6-1,9.1-2.5,13.5-4c9.6-3.3,18.7-7.7,27.4-13c12.4-7.6,23.3-16.9,32.9-27.9c6.8-7.9,12.7-16.4,17.7-25.5
		c3.8-7,6.9-14.2,9.4-21.7c2.3-6.8,4.1-13.7,5.3-20.8c1.4-8,2.2-16.1,2.2-24.3c0-4.8,2.2-8.6,6.4-11c6.8-4,14.8-0.4,17.5,5.4
		c0.8,1.7,1.2,3.4,1.2,5.3c0.1,7.4-0.5,14.7-1.4,22c-1.6,12.6-4.7,24.9-9.2,36.8c-5.8,15.4-13.8,29.6-23.8,42.7
		c-10.7,13.9-23.3,25.7-37.6,35.8c-1.5,1.1-3.1,2-4.6,3c-0.3,0.2-0.5,0.5-1.1,1c1.2,0.1,1.9,0.1,2.7,0.1c8,0,16,0,24,0
		c5.2,0,9.2,2.2,11.5,6.8c3.1,6.2,1.1,14.1-6.4,17.4c-2,0.9-4,0.9-6.1,0.9c-37.7,0-75.3,0-113,0c-50,0-100,0-149.9,0
		c-3.4,0-6.4-0.8-9.1-2.9c-3.3-2.6-6.1-8.4-3.7-14.3c1.6-4.1,6.4-8,11.5-8c19.5,0.1,39,0,58.5,0c0.9,0,1.7,0,2.6,0
		C39.5,331,13.2,292.7,5.7,242.6c-7.4-50,6.1-94.4,38.5-133.4c-0.5-0.5-0.9-1.2-1.5-1.7c-4.5-4.5-9-9-13.5-13.5
		c-2.5-2.4-4.2-5.2-4.4-8.8c-0.3-4.1,1.3-7.5,4.2-10.3c4.6-4.6,9.2-9.1,13.7-13.7c10.5-10.5,21-21,31.5-31.4
		c1.2-1.2,2.5-2.5,4.1-3.3c5.3-2.9,11-2,15.4,2.2c3.1,2.9,6,6,9,9c15.7,15.8,31.5,31.5,47.2,47.3c18.7,18.7,37.4,37.4,56.1,56
		c6.7,6.7,13.4,13.4,20.2,20.1c0.8,0.8,1.6,1.6,2.3,2.4c4.6,4.9,4.5,12.6-0.3,17.5c-3.9,3.9-7.8,7.8-11.7,11.7
		c-11.5,11.4-22.9,22.9-34.4,34.3c-1.1,1.1-2.4,2.2-3.7,3c-4,2.5-10.7,2.2-14.7-1.7c-4.5-4.4-9-8.8-13.4-13.4
		c-5.5-5.6-4.5-15.8,3.1-19.8c4.8-2.5,9.5-2.1,13.8,1.3C169,197.8,170.4,199.4,172.3,201.2z M118.8,177.1
		c6.4,0.5,12.9-5.2,12.9-12.7c0-7.3-6.2-12.7-12.7-12.8c-7.1-0.1-13,6.4-13,12.9C106,171.1,112,177.6,118.8,177.1z"/>
	<path class="st0" d="M170.2,305.1c-6,0.1-11.9-0.7-17.6-1.9c-7.2-1.5-14.1-3.9-20.7-7.2c-8.2-4-15.5-9.2-22-15.5
		c-8.3-8-14.8-17.4-19.4-28c-2.1-4.8-3.7-9.8-4.9-15c-1.8-7.7-2.5-15.4-2.2-23.3c0.3-7.2,6.7-13.2,14.2-12.1c5.6,0.8,9,4.1,10.7,9.3
		c0.3,1,0.2,2.2,0.3,3.3c0.2,4.1,0.1,8.2,0.7,12.2c0.8,6,2.6,11.8,5.3,17.3c5.4,11.3,13.4,20.1,24,26.6c4.4,2.7,9.2,4.8,14.2,6.2
		c7.3,2.1,14.7,3.1,22.3,2.4c8.7-0.7,17-3.1,24.8-7.3c6.3-3.4,11.7-8,16.7-13.1c15.7-15.7,31.3-31.4,47-47.1
		c15.9-15.9,31.8-31.8,47.7-47.7c4.6-4.6,9.1-9.2,13.7-13.7c7.1-7.1,16.2-4.4,20.1,1.9c3.1,5,2.6,10.7-1.5,15
		c-4.1,4.4-8.5,8.7-12.8,12.9c-17.5,17.5-35.1,35-52.6,52.6c-15.3,15.3-30.6,30.6-45.8,45.9c-8.8,8.9-19.1,15.7-30.7,20.2
		c-6.4,2.5-13,4.2-19.9,5C177.8,304.6,174,304.8,170.2,305.1z"/>
	<path class="st0" d="M59.8,0C64.5-0.3,70,3.6,71.6,8.4c1.8,5.5,0.1,9.9-3.6,13.7c-4.2,4.3-8.6,8.6-12.9,12.9c-11,11-22,21.9-33,33
		c-3.8,3.8-8.3,5.1-13.3,3.6c-3.8-1.1-6.5-3.8-7.9-7.5c-2-5.3-0.7-9.8,3.2-13.8c12.5-12.5,25-25,37.5-37.4c2.9-2.9,5.7-5.8,8.5-8.7
		C52.9,1.6,55.9-0.2,59.8,0z"/>
	<path class="st0" d="M250.2,175.6c9,0.2,16.9,6.9,16.9,16.9c0,9.8-7.3,17.1-17,17.1c-9.7,0-16.9-7.7-16.9-16.9
		C233.1,182.9,241.1,175.6,250.2,175.6z"/>
	<path class="st0" d="M221.8,237.5c-9.6-0.1-16.9-7.7-16.7-17.1c0.3-10.4,8.3-16.9,17.3-16.7c9.3,0.1,17.3,8.2,16.6,18.3
		C238.5,229.5,231.8,237.9,221.8,237.5z"/>
	<path class="st0" d="M211.1,248.8c-0.6,10.4-7.8,16.8-17,16.8c-9.6,0-16.9-7-16.9-17.1c0-9.3,7.1-16.7,17.1-16.6
		C204.7,232.1,210.9,240,211.1,248.8z"/>
	<path class="st0" d="M187.1,331.8c0,9.1-7,17.1-17.1,17c-9.8-0.1-16.9-7.4-16.9-16.9c0-9.2,6.6-16.6,16.9-16.7
		C180.4,315.1,187.2,323.1,187.1,331.8z"/>
	<path class="st0" d="M278.2,181.3c-10,0.2-17.1-7.9-16.9-17c0.2-10,8-16.7,17.5-16.5c9.6,0.2,16.8,8.2,16.5,17.5
		C294.9,172.5,288.7,181.6,278.2,181.3z"/>
</g>
</svg>
