<?xml version="1.0" encoding="utf-8"?>
<!-- Generator: Adobe Illustrator 24.1.2, SVG Export Plug-In . SVG Version: 6.00 Build 0)  -->
<svg version="1.1" id="Camada_1" xmlns="http://www.w3.org/2000/svg" xmlns:xlink="http://www.w3.org/1999/xlink" x="0px" y="0px"
	 viewBox="0 0 595.3 282.7" style="enable-background:new 0 0 595.3 282.7;" xml:space="preserve">
<style type="text/css">
	.st0{fill:#0F8171;}
	.st1{fill:#F0E512;}
	.st2{fill:#31368C;}
</style>
<path class="st0" d="M123.6,132.7c4.9-2.9,9.8-5.8,14.8-8.5c5.7-3.1,11.2-6.3,17-9.3c7.7-4,15.5-8,23.4-11.8c6.1-3,12.1-6,18.4-8.5
	c8-3.2,16.2-5.7,24.7-7.5c6.5-1.3,13-2.3,19.5-3.2c0.2,0.1,0.4,0.1,0.6,0c0.6,0,1.2,0.1,1.8-0.2c0.5,0.1,1,0.1,1.5-0.1
	c0.7,0,1.4,0,2-0.2c0.4,0.1,0.8,0.2,1.2-0.1c1-0.1,2-0.1,2.9-0.2c0.5,0.1,1,0.2,1.5-0.1c1.7-0.1,3.3-0.1,5-0.2
	c0.9,0.1,1.8,0.2,2.7-0.1c4.3,0,8.7,0,13,0c0.9,0.3,1.8,0.2,2.6,0.1c1.6,0.1,3.1,0.1,4.7,0.2c0.5,0.3,1,0.2,1.5,0.1
	c1.1,0.2,2.1,0.2,3.2,0.2c0.3,0.2,0.6,0.2,0.9,0.1c2.1-0.1,3.2,1.6,4.5,2.7c3.3,2.7,6.5,5.5,9.8,8.2c4.9,4.1,9.8,8.2,14.7,12.3
	c4,3.4,8.1,6.7,12.1,10.1c2,1.7,4.1,3.3,6.1,4.9c0.1,0.1,0.3,0.3,0.2,0.5c-0.2,0.1-0.4,0.2-0.7,0.2c-0.4-0.1-0.8-0.1-1.2-0.2
	c-0.2-0.1-0.4-0.2-0.6-0.1c-0.5-0.1-1-0.1-1.5-0.2c-0.2-0.1-0.4-0.2-0.6-0.1c-6.2-1.1-12.5-1.8-18.8-2.5c-4.7-0.6-9.4-1.2-14.2-0.9
	c-8.6,0.5-16.9,2.8-25,5.7c-16.5,5.9-31.9,14.1-46.8,23.1c-6.6,4-13,8.2-19.4,12.5c-10.7,7.3-22.6,11.8-35.1,14.4
	c-14.6,3-29.3,3.7-44.2,2.5c-2.6-0.2-4.6-0.9-5.7-3.3c-1.1-13.5,0.3-26.8,2.8-40.1C123.1,133,123.4,132.8,123.6,132.7z"/>
<path class="st0" d="M121.7,188.4c9.4,1.1,18.8,1.6,28.2,1.2c15.1-0.5,30-2.3,44-8.2c10-4.2,20.2-7.8,29.9-12.6
	c12.5-6.1,24.2-13.5,35.7-21.3c5.1-3.5,10.3-6.9,15.6-10c7.5-4.3,15.8-6.4,24.2-7.8c6.1-1,12.2-1.7,18.4-1.7c8.3,0,16.4,1,24.3,4
	c6.7,2.5,12.6,6.2,17.5,11.5c1.5,1.6,2.7,3.3,3.8,5.1c0.5,0.8,0.3,1-0.5,1.1c-0.2-0.2-0.2-0.6-0.6-0.3c-0.3-0.1-0.6-0.1-0.9-0.2
	c-0.2-0.2-0.4-0.2-0.6-0.1c-0.4-0.1-0.8-0.1-1.2-0.2c-0.3-0.2-0.6-0.3-0.9-0.2c-0.4,0-0.8-0.1-1.2-0.1c-0.3-0.2-0.6-0.3-0.9-0.1
	c-0.6-0.2-1.2-0.2-1.7-0.2c-0.3-0.2-0.6-0.2-0.9-0.1c-1.1-0.3-2.1-0.3-3.2-0.2c-0.2-0.1-0.4-0.2-0.6,0c-4.1-0.3-8.2-0.2-12.4,0.3
	c-0.4-0.1-0.8-0.1-1.2,0.1c-0.5,0-1,0.1-1.5,0.1c-0.4-0.1-0.8-0.1-1.2,0.2c-0.6,0-1.2-0.1-1.7,0.3c-0.4-0.3-0.4,0.1-0.6,0.3
	c-2.3,0.1-4.4,0.6-6.7,0.9c-3.3,0.4-6.5,1.4-9.6,2.4c-3.4,1-6.7,2.2-10,3.6c-4.4,1.8-8.8,3.8-13,6.1c-2.9,1.6-5.7,3.4-8.6,5.1
	c-3,1.8-6,3.6-9,5.5c-4.9,3.1-9.8,6.2-14.7,9.3c-5.4,3.4-10.8,6.9-16.2,10.3c-3.2,2-6.3,4.2-9.5,6.3c-2.9,1.9-6,3.7-8.9,5.7
	c-4.1,2.8-8.2,5.5-12.3,8.2c-3.5,2.3-7.1,4.6-10.6,6.9c-6.9,4.6-13.8,9.2-20.6,13.9c-5.4,3.7-11.1,6.9-17.3,9.4
	c-3.9,1.6-7.9,2.8-12,3.2c-3.9,0.4-7.8,0.1-11.4-1.8c-1.6-0.8-2.6-2.2-3.8-3.3c-0.5-0.6-0.9-1.2-1.4-1.9c-4.5-10.3-8-20.9-10.8-31.8
	C123.8,200.9,122.5,194.7,121.7,188.4z"/>
<path class="st1" d="M121.7,188.4c0.7,6.3,2.1,12.5,3.6,18.6c2.7,10.9,6.3,21.5,10.8,31.8c0.4,0.9,0.6,1.8,1.2,2.5
	c1.1,3.2,2.7,6.2,4.5,9.1c-0.3,0-0.6,0-0.9-0.1c-3-3.8-5.9-7.7-8.9-11.5c-3.7-4.7-7.4-9.4-11.1-14.1c-4.9-6.2-9.8-12.5-14.7-18.8
	c-7.2-9.3-14.5-18.6-21.7-27.9c-0.4-0.5-0.9-0.9-1-1.6c0.6-0.1,1.1-0.5,1.6-0.8c15.2-9.3,22.6-26.5,19.1-44
	c-5.8-29.1-40.4-42.7-64.6-25.6c-2,1.4-3.8,3.2-5.8,4.7c-2.5-3.3-5-6.7-7.4-10.1c-3.7-5.2-7.4-10.5-11-15.7c-2.5-3.7-4.9-7.4-7-11.3
	c-1.7-3.2-0.5-4.6,2.1-6.1c3.3-1.8,7.1-2.3,10.8-2.6c0.3,0,0.7-0.1,1-0.1c0.2,0.2,0.4,0.2,0.6,0c2.1,0,4.1,0,6.2,0
	c0.5,0.1,1,0.1,1.4,0.2c3.4,0.3,6.8,0.7,10.1,1.3c5.4,1,10.6,2.6,15.7,4.8c2.7,1.2,5.6,2.1,8.7,2.3c1.4,0.7,3,0.8,4.6,1
	c7.4,1.3,14.9,2,22.4,2.6c5.3,0.4,10.5,0.9,15.8,0.9c0.1,0,0.2,0,0.3,0l0,0c1.3,0.4,2.7,0.3,4,0.3c0.6,0.3,1.1,0.2,1.7,0.1
	c2.2,0.2,4.3,0.3,6.5,0.2c0.8,0.3,1.6,0.2,2.3,0c2.7,0.4,5.4,0.3,8.1,0.3c0.9,0,1.2,0.2,1,1.2c-1,4.8-1.9,9.6-2.7,14.4
	c-1.1,6.4-2.1,12.7-3.1,19.1c-0.7,2.4-0.9,4.9-1.3,7.3c-0.6,3.8-1.1,7.7-1.6,11.6c-0.2,0.2-0.2,0.3-0.1,0.5
	c-2.4,13.2-3.9,26.6-2.8,40.1C120.3,178.3,120.8,183.4,121.7,188.4z"/>
<path class="st0" d="M125.9,113.8c1-6.4,2-12.7,3.1-19.1c0.8-4.8,1.8-9.6,2.7-14.4c0.2-1-0.1-1.2-1-1.2c-2.7,0-5.4,0-8.1-0.3
	c0-0.1,0-0.2,0-0.3c4.8-6.5,10-12.7,15.8-18.4c7.9-7.8,16.4-14.9,26-20.7c5.7-3.4,11.7-6.3,17.9-8.5c4.5-1.5,9.1-2.7,13.9-3.3
	c0.4,0.1,0.8,0.1,1.2-0.1c6.4-0.3,12.7,0.4,18.9,2c6.6,1.7,12.8,4.5,18.8,7.7c2.7,1.4,5.3,3,7.8,4.7c2.6,1.7,5,3.7,7.5,5.6
	c4,3,7.6,6.5,11.2,9.9c3.1,2.9,5.9,6,8.8,9.2c2.2,2.5,4.3,5.1,6.4,7.7c0.3,0.3,0.8,0.7,0.6,1.2c-0.2,0.4-0.8,0.4-1.3,0.3
	c-6.1-0.6-12.1-0.8-18.2-0.8c-2.7,0-5.4,0.1-8.1,0.2c-4.8,0.2-9.5,0.5-14.3,0.7c-0.3,0-0.7,0.1-1,0.2c-0.3-0.1-0.6-0.1-0.9,0
	c-0.7,0-1.4-0.1-2.1,0.2c-0.4-0.2-0.8-0.1-1.2,0.1c-0.7,0-1.4-0.1-2.1,0.2c-0.3-0.2-0.6-0.1-0.9,0.1c-0.6,0.1-1.2,0.1-1.8,0.2
	c-0.4-0.1-0.8-0.1-1.2,0.1c-0.6,0-1.2,0-1.8,0.2c-0.2-0.1-0.4-0.1-0.6,0.1c-0.6,0-1.3-0.1-1.8,0.4c-0.4-0.6-0.3,0.1-0.5,0.1
	c-2.6-0.1-5,0.7-7.5,0.9c-3.1,0.3-6.2,1.1-9.3,1.8c-4.3,1-8.6,1.8-12.8,3.3c-3.3,1.2-6.7,1.9-10,3.1c-5.6,2-11.2,4.1-16.6,6.5
	c-5.7,2.5-11.3,5.2-16.8,8.1c-6.8,3.6-13.6,7.4-20,11.7C126.5,113.5,126.2,113.6,125.9,113.8z"/>
<path class="st2" d="M33.9,110.9c2-1.4,3.8-3.2,5.8-4.7c24.2-17.2,58.7-3.5,64.6,25.6c3.5,17.5-3.9,34.6-19.1,44
	c-0.5,0.3-1,0.7-1.6,0.8c-1.7-1.6-3-3.7-4.4-5.5c-5-6.5-10.1-13.1-15.1-19.6c-5.6-7.3-11.1-14.6-16.6-22
	c-4.5-5.9-8.9-11.9-13.3-17.8C34,111.4,34,111.1,33.9,110.9z"/>
<path class="st0" d="M107.8,78.2c-5.3,0-10.6-0.5-15.8-0.9c-7.5-0.6-15-1.3-22.4-2.6c-1.5-0.3-3.1-0.4-4.6-1
	c5.1-2.4,10.4-4.5,15.6-6.7c5.3-2.3,10.6-4.5,15.9-6.8c6.4-2.7,12.9-5.3,19.3-7.9c5.2-2.2,10.4-4.4,15.7-6.6c4.9-2,9.8-3.9,14.6-5.9
	c-2.6,2.7-5.2,5.3-7.7,8c-2,2.2-4.3,4.1-6.4,6.3c-1.7,1.8-3.6,3.5-5.4,5.3c-6,5.9-11.9,11.8-17.8,17.7c-0.3,0.3-0.8,0.6-0.8,1.2
	c0,0,0,0,0,0C108,78.1,107.9,78.2,107.8,78.2z"/>
<g>
	<path d="M376.1,186.1v-23.9h4.8l5.7,16.9c0.5,1.6,0.9,2.8,1.1,3.5c0.3-0.9,0.7-2.1,1.3-3.8l5.7-16.6h4.3v23.9h-3v-20l-6.9,20h-2.9
		l-6.9-20.3v20.3H376.1z"/>
	<path d="M403,165.6v-3.4h2.9v3.4H403z M403,186.1v-17.3h2.9v17.3H403z"/>
	<path d="M409.7,186.1v-17.3h2.6v2.5c1.3-1.9,3.1-2.9,5.5-2.9c1,0,2,0.2,2.9,0.6s1.5,0.9,2,1.5s0.7,1.3,0.9,2.2
		c0.1,0.5,0.2,1.5,0.2,2.9v10.6h-2.9v-10.5c0-1.2-0.1-2.1-0.3-2.7c-0.2-0.6-0.6-1.1-1.2-1.4c-0.6-0.4-1.3-0.5-2-0.5
		c-1.3,0-2.3,0.4-3.2,1.2s-1.4,2.3-1.4,4.5v9.4H409.7z"/>
	<path d="M427.6,165.6v-3.4h2.9v3.4H427.6z M427.6,186.1v-17.3h2.9v17.3H427.6z"/>
	<path d="M433.2,181l2.9-0.5c0.2,1.2,0.6,2.1,1.4,2.7c0.7,0.6,1.8,0.9,3.1,0.9c1.3,0,2.3-0.3,3-0.8s1-1.2,1-1.9
		c0-0.7-0.3-1.2-0.9-1.6c-0.4-0.3-1.4-0.6-3-1c-2.2-0.5-3.6-1-4.5-1.4c-0.8-0.4-1.5-0.9-1.9-1.6c-0.4-0.7-0.6-1.5-0.6-2.3
		c0-0.8,0.2-1.5,0.5-2.1c0.4-0.7,0.8-1.2,1.4-1.6c0.5-0.3,1.1-0.6,1.9-0.9c0.8-0.2,1.6-0.3,2.5-0.3c1.4,0,2.5,0.2,3.6,0.6
		c1,0.4,1.8,0.9,2.3,1.6c0.5,0.7,0.8,1.6,1,2.7l-2.9,0.4c-0.1-0.9-0.5-1.6-1.1-2.1c-0.6-0.5-1.5-0.7-2.6-0.7c-1.3,0-2.3,0.2-2.9,0.7
		c-0.6,0.4-0.9,1-0.9,1.6c0,0.4,0.1,0.7,0.4,1c0.2,0.3,0.6,0.6,1.1,0.8c0.3,0.1,1.2,0.4,2.6,0.7c2.1,0.6,3.5,1,4.3,1.4
		c0.8,0.4,1.5,0.9,1.9,1.5c0.5,0.7,0.7,1.5,0.7,2.5c0,1-0.3,1.9-0.9,2.8s-1.4,1.5-2.5,2c-1.1,0.5-2.3,0.7-3.6,0.7
		c-2.2,0-4-0.5-5.1-1.4C434.3,184.2,433.5,182.8,433.2,181z"/>
	<path d="M456.8,183.5l0.4,2.6c-0.8,0.2-1.6,0.3-2.2,0.3c-1.1,0-1.9-0.2-2.5-0.5c-0.6-0.3-1-0.8-1.2-1.3c-0.2-0.5-0.4-1.7-0.4-3.5
		v-10h-2.2v-2.3h2.2v-4.3l2.9-1.8v6h2.9v2.3h-2.9v10.1c0,0.8,0.1,1.4,0.2,1.6c0.1,0.2,0.3,0.4,0.5,0.6c0.2,0.1,0.6,0.2,1,0.2
		C455.8,183.6,456.2,183.6,456.8,183.5z"/>
	<path d="M470.8,180.6l3,0.4c-0.5,1.8-1.4,3.1-2.7,4.1c-1.3,1-2.9,1.5-5,1.5c-2.5,0-4.5-0.8-6-2.3c-1.5-1.6-2.2-3.7-2.2-6.6
		c0-2.9,0.8-5.2,2.2-6.8c1.5-1.6,3.4-2.4,5.8-2.4c2.3,0,4.2,0.8,5.7,2.4c1.5,1.6,2.2,3.8,2.2,6.6c0,0.2,0,0.4,0,0.8H461
		c0.1,1.9,0.6,3.4,1.6,4.4s2.2,1.5,3.6,1.5c1.1,0,2-0.3,2.8-0.8C469.8,182.7,470.4,181.8,470.8,180.6z M461.2,175.8h9.7
		c-0.1-1.5-0.5-2.5-1.1-3.3c-0.9-1.1-2.1-1.7-3.6-1.7c-1.3,0-2.5,0.5-3.4,1.4C461.8,173.1,461.3,174.3,461.2,175.8z M464.4,166.7
		l2.2-4.6h3.8l-3.6,4.6H464.4z"/>
	<path d="M476.8,186.1v-17.3h2.6v2.6c0.7-1.2,1.3-2,1.9-2.4c0.6-0.4,1.2-0.6,1.9-0.6c1,0,2,0.3,3,0.9l-1,2.7
		c-0.7-0.4-1.4-0.6-2.2-0.6c-0.6,0-1.2,0.2-1.7,0.6s-0.9,0.9-1.1,1.6c-0.3,1-0.5,2.2-0.5,3.4v9.1H476.8z"/>
	<path d="M487.3,165.6v-3.4h2.9v3.4H487.3z M487.3,186.1v-17.3h2.9v17.3H487.3z"/>
	<path d="M493,177.5c0-3.2,0.9-5.6,2.7-7.1c1.5-1.3,3.3-1.9,5.4-1.9c2.4,0,4.3,0.8,5.8,2.3s2.3,3.7,2.3,6.5c0,2.2-0.3,4-1,5.3
		c-0.7,1.3-1.6,2.3-2.9,3c-1.3,0.7-2.7,1.1-4.2,1.1c-2.4,0-4.4-0.8-5.9-2.3C493.7,182.6,493,180.4,493,177.5z M496,177.5
		c0,2.2,0.5,3.9,1.4,5s2.2,1.7,3.6,1.7c1.5,0,2.7-0.6,3.6-1.7c1-1.1,1.4-2.8,1.4-5.1c0-2.1-0.5-3.8-1.5-4.9c-1-1.1-2.2-1.7-3.6-1.7
		c-1.5,0-2.7,0.5-3.6,1.6C496.5,173.6,496,175.3,496,177.5z"/>
</g>
<g>
	<path d="M351.4,218.3v-2.2c-1.1,1.7-2.7,2.6-4.8,2.6c-1.4,0-2.6-0.4-3.8-1.1c-1.2-0.8-2.1-1.8-2.7-3.2c-0.6-1.4-1-2.9-1-4.7
		c0-1.7,0.3-3.3,0.9-4.7c0.6-1.4,1.4-2.5,2.6-3.2c1.2-0.8,2.4-1.1,3.9-1.1c1,0,2,0.2,2.8,0.7c0.8,0.4,1.5,1,2,1.7v-8.6h2.9v23.9
		H351.4z M342.1,209.7c0,2.2,0.5,3.9,1.4,5c0.9,1.1,2,1.6,3.3,1.6c1.3,0,2.4-0.5,3.3-1.6c0.9-1,1.3-2.6,1.3-4.8
		c0-2.4-0.5-4.1-1.4-5.2s-2-1.7-3.4-1.7c-1.3,0-2.4,0.5-3.3,1.6S342.1,207.4,342.1,209.7z"/>
	<path d="M369.3,216.2c-1.1,0.9-2.1,1.6-3.1,2c-1,0.4-2.1,0.6-3.2,0.6c-1.9,0-3.4-0.5-4.4-1.4c-1-0.9-1.5-2.1-1.5-3.6
		c0-0.8,0.2-1.6,0.6-2.3c0.4-0.7,0.9-1.3,1.5-1.7c0.6-0.4,1.3-0.7,2.1-1c0.6-0.2,1.4-0.3,2.6-0.4c2.4-0.3,4.1-0.6,5.2-1
		c0-0.4,0-0.7,0-0.8c0-1.2-0.3-2-0.8-2.5c-0.8-0.7-1.9-1-3.3-1c-1.4,0-2.4,0.2-3.1,0.7s-1.1,1.3-1.5,2.6l-2.9-0.4
		c0.3-1.2,0.7-2.2,1.3-3c0.6-0.8,1.5-1.3,2.6-1.7s2.4-0.6,3.9-0.6c1.5,0,2.7,0.2,3.6,0.5c0.9,0.3,1.6,0.8,2,1.3
		c0.4,0.5,0.7,1.2,0.9,2c0.1,0.5,0.1,1.4,0.1,2.7v3.9c0,2.7,0.1,4.5,0.2,5.2s0.4,1.4,0.7,2.1h-3.1
		C369.6,217.7,369.4,217,369.3,216.2z M369.1,209.6c-1.1,0.4-2.7,0.8-4.8,1.1c-1.2,0.2-2.1,0.4-2.6,0.6c-0.5,0.2-0.9,0.5-1.2,1
		s-0.4,0.9-0.4,1.4c0,0.8,0.3,1.4,0.9,2c0.6,0.5,1.5,0.8,2.6,0.8c1.1,0,2.1-0.2,3-0.7s1.5-1.2,1.9-2c0.3-0.7,0.5-1.6,0.5-2.9V209.6z
		"/>
	<path d="M380.4,218.3l9.2-23.9h3.4l9.8,23.9h-3.6l-2.8-7.2h-10l-2.6,7.2H380.4z M387.3,208.5h8.1l-2.5-6.6c-0.8-2-1.3-3.7-1.7-5
		c-0.3,1.5-0.7,3.1-1.3,4.6L387.3,208.5z"/>
	<path d="M403.7,219.7l2.9,0.4c0.1,0.9,0.5,1.5,1,1.9c0.7,0.5,1.7,0.8,3,0.8c1.4,0,2.4-0.3,3.1-0.8c0.7-0.5,1.2-1.3,1.5-2.3
		c0.2-0.6,0.2-1.9,0.2-3.8c-1.3,1.5-2.9,2.3-4.8,2.3c-2.4,0-4.2-0.9-5.5-2.6c-1.3-1.7-2-3.8-2-6.2c0-1.7,0.3-3.2,0.9-4.6
		c0.6-1.4,1.5-2.5,2.6-3.2c1.1-0.8,2.5-1.1,4-1.1c2,0,3.7,0.8,5.1,2.5V201h2.7v15c0,2.7-0.3,4.6-0.8,5.7c-0.5,1.1-1.4,2-2.6,2.7
		c-1.2,0.7-2.7,1-4.4,1c-2.1,0-3.7-0.5-5-1.4S403.7,221.6,403.7,219.7z M406.2,209.3c0,2.3,0.5,3.9,1.4,5c0.9,1,2,1.6,3.4,1.6
		c1.3,0,2.5-0.5,3.4-1.6s1.4-2.7,1.4-4.9c0-2.1-0.5-3.7-1.4-4.8s-2.1-1.6-3.4-1.6c-1.3,0-2.4,0.5-3.3,1.6
		C406.6,205.7,406.2,207.3,406.2,209.3z"/>
	<path d="M422.1,218.3V201h2.6v2.6c0.7-1.2,1.3-2,1.9-2.4c0.6-0.4,1.2-0.6,1.9-0.6c1,0,2,0.3,3,0.9l-1,2.7c-0.7-0.4-1.4-0.6-2.2-0.6
		c-0.6,0-1.2,0.2-1.7,0.6s-0.9,0.9-1.1,1.6c-0.3,1-0.5,2.2-0.5,3.4v9.1H422.1z"/>
	<path d="M432.6,197.8v-3.4h2.9v3.4H432.6z M432.6,218.3V201h2.9v17.3H432.6z"/>
	<path d="M450.6,212l2.9,0.4c-0.3,2-1.1,3.5-2.4,4.7s-2.9,1.7-4.8,1.7c-2.4,0-4.3-0.8-5.7-2.3s-2.2-3.8-2.2-6.7
		c0-1.9,0.3-3.5,0.9-4.9c0.6-1.4,1.6-2.5,2.8-3.2c1.3-0.7,2.6-1.1,4.1-1.1c1.9,0,3.4,0.5,4.6,1.4c1.2,1,2,2.3,2.3,4l-2.9,0.4
		c-0.3-1.2-0.8-2-1.4-2.6c-0.7-0.6-1.5-0.9-2.5-0.9c-1.5,0-2.7,0.5-3.6,1.6c-0.9,1.1-1.4,2.7-1.4,5c0,2.3,0.4,4,1.3,5.1
		s2.1,1.6,3.5,1.6c1.2,0,2.1-0.4,2.9-1.1C449.9,214.5,450.4,213.4,450.6,212z"/>
	<path d="M466.7,218.3v-2.5c-1.3,2-3.2,2.9-5.5,2.9c-1,0-2-0.2-2.9-0.6c-0.9-0.4-1.5-0.9-2-1.5c-0.4-0.6-0.7-1.3-0.9-2.2
		c-0.1-0.6-0.2-1.5-0.2-2.7V201h2.9v9.6c0,1.5,0.1,2.6,0.2,3.1c0.2,0.8,0.6,1.4,1.2,1.8c0.6,0.4,1.3,0.7,2.2,0.7s1.7-0.2,2.5-0.7
		c0.8-0.5,1.3-1.1,1.6-1.8s0.5-1.9,0.5-3.4V201h2.9v17.3H466.7z"/>
	<path d="M473.2,218.3v-23.9h2.9v23.9H473.2z"/>
	<path d="M486.4,215.7l0.4,2.6c-0.8,0.2-1.6,0.3-2.2,0.3c-1.1,0-1.9-0.2-2.5-0.5c-0.6-0.3-1-0.8-1.2-1.3c-0.2-0.5-0.4-1.7-0.4-3.5
		v-10h-2.2V201h2.2v-4.3l2.9-1.8v6h2.9v2.3h-2.9v10.1c0,0.8,0.1,1.4,0.2,1.6c0.1,0.2,0.3,0.4,0.5,0.6c0.2,0.1,0.6,0.2,1,0.2
		C485.4,215.8,485.9,215.8,486.4,215.7z"/>
	<path d="M499.9,218.3v-2.5c-1.3,2-3.2,2.9-5.5,2.9c-1,0-2-0.2-2.9-0.6c-0.9-0.4-1.5-0.9-2-1.5c-0.4-0.6-0.7-1.3-0.9-2.2
		c-0.1-0.6-0.2-1.5-0.2-2.7V201h2.9v9.6c0,1.5,0.1,2.6,0.2,3.1c0.2,0.8,0.6,1.4,1.2,1.8c0.6,0.4,1.3,0.7,2.2,0.7s1.7-0.2,2.5-0.7
		c0.8-0.5,1.3-1.1,1.6-1.8s0.5-1.9,0.5-3.4V201h2.9v17.3H499.9z"/>
	<path d="M506.5,218.3V201h2.6v2.6c0.7-1.2,1.3-2,1.9-2.4c0.6-0.4,1.2-0.6,1.9-0.6c1,0,2,0.3,3,0.9l-1,2.7c-0.7-0.4-1.4-0.6-2.2-0.6
		c-0.6,0-1.2,0.2-1.7,0.6s-0.9,0.9-1.1,1.6c-0.3,1-0.5,2.2-0.5,3.4v9.1H506.5z"/>
	<path d="M528.2,216.2c-1.1,0.9-2.1,1.6-3.1,2c-1,0.4-2.1,0.6-3.2,0.6c-1.9,0-3.4-0.5-4.4-1.4c-1-0.9-1.5-2.1-1.5-3.6
		c0-0.8,0.2-1.6,0.6-2.3c0.4-0.7,0.9-1.3,1.5-1.7c0.6-0.4,1.3-0.7,2.1-1c0.6-0.2,1.4-0.3,2.6-0.4c2.4-0.3,4.1-0.6,5.2-1
		c0-0.4,0-0.7,0-0.8c0-1.2-0.3-2-0.8-2.5c-0.8-0.7-1.9-1-3.3-1c-1.4,0-2.4,0.2-3.1,0.7s-1.1,1.3-1.5,2.6l-2.9-0.4
		c0.3-1.2,0.7-2.2,1.3-3c0.6-0.8,1.5-1.3,2.6-1.7s2.4-0.6,3.9-0.6c1.5,0,2.7,0.2,3.6,0.5c0.9,0.3,1.6,0.8,2,1.3
		c0.4,0.5,0.7,1.2,0.9,2c0.1,0.5,0.1,1.4,0.1,2.7v3.9c0,2.7,0.1,4.5,0.2,5.2s0.4,1.4,0.7,2.1h-3.1
		C528.5,217.7,528.3,217,528.2,216.2z M528,209.6c-1.1,0.4-2.7,0.8-4.8,1.1c-1.2,0.2-2.1,0.4-2.6,0.6c-0.5,0.2-0.9,0.5-1.2,1
		s-0.4,0.9-0.4,1.4c0,0.8,0.3,1.4,0.9,2c0.6,0.5,1.5,0.8,2.6,0.8c1.1,0,2.1-0.2,3-0.7s1.5-1.2,1.9-2c0.3-0.7,0.5-1.6,0.5-2.9V209.6z
		"/>
</g>
<g>
	<path d="M235.8,252v-23.9h9c1.6,0,2.8,0.1,3.6,0.2c1.2,0.2,2.2,0.6,2.9,1.1c0.8,0.5,1.4,1.3,1.9,2.3c0.5,1,0.7,2.1,0.7,3.3
		c0,2-0.6,3.8-1.9,5.2s-3.6,2.1-7,2.1H239v9.7H235.8z M239,239.5h6.2c2,0,3.5-0.4,4.4-1.1c0.9-0.8,1.3-1.8,1.3-3.2
		c0-1-0.3-1.9-0.8-2.6c-0.5-0.7-1.2-1.2-2-1.4c-0.5-0.1-1.5-0.2-2.9-0.2H239V239.5z"/>
	<path d="M268.9,246.5l3,0.4c-0.5,1.8-1.4,3.1-2.7,4.1s-2.9,1.5-5,1.5c-2.5,0-4.5-0.8-6-2.3c-1.5-1.6-2.2-3.7-2.2-6.6
		c0-2.9,0.7-5.2,2.2-6.8c1.5-1.6,3.4-2.4,5.8-2.4c2.3,0,4.2,0.8,5.7,2.4c1.5,1.6,2.2,3.8,2.2,6.6c0,0.2,0,0.4,0,0.8h-12.9
		c0.1,1.9,0.6,3.4,1.6,4.4c1,1,2.2,1.5,3.6,1.5c1.1,0,2-0.3,2.8-0.8S268.5,247.7,268.9,246.5z M259.3,241.7h9.7
		c-0.1-1.5-0.5-2.5-1.1-3.3c-0.9-1.1-2.1-1.7-3.6-1.7c-1.3,0-2.5,0.5-3.4,1.4C259.9,239,259.4,240.2,259.3,241.7z"/>
	<path d="M286.2,245.7l2.9,0.4c-0.3,2-1.1,3.5-2.4,4.7s-2.9,1.7-4.8,1.7c-2.4,0-4.3-0.8-5.7-2.3s-2.2-3.8-2.2-6.7
		c0-1.9,0.3-3.5,0.9-4.9c0.6-1.4,1.6-2.5,2.8-3.2c1.3-0.7,2.6-1.1,4.1-1.1c1.9,0,3.4,0.5,4.6,1.4c1.2,1,2,2.3,2.3,4l-2.9,0.4
		c-0.3-1.2-0.8-2-1.4-2.6c-0.7-0.6-1.5-0.9-2.5-0.9c-1.5,0-2.7,0.5-3.6,1.6c-0.9,1.1-1.4,2.7-1.4,5c0,2.3,0.4,4,1.3,5.1
		c0.9,1.1,2.1,1.6,3.5,1.6c1.2,0,2.1-0.4,2.9-1.1C285.5,248.3,286,247.2,286.2,245.7z"/>
	<path d="M302.3,252v-2.5c-1.3,2-3.2,2.9-5.5,2.9c-1,0-2-0.2-2.9-0.6c-0.9-0.4-1.5-0.9-2-1.5c-0.4-0.6-0.7-1.3-0.9-2.2
		c-0.1-0.6-0.2-1.5-0.2-2.7v-10.7h2.9v9.6c0,1.5,0.1,2.6,0.2,3.1c0.2,0.8,0.6,1.4,1.2,1.8c0.6,0.4,1.3,0.7,2.2,0.7s1.7-0.2,2.5-0.7
		c0.8-0.5,1.3-1.1,1.6-1.8s0.5-1.9,0.5-3.4v-9.3h2.9V252H302.3z"/>
	<path d="M320.1,249.9c-1.1,0.9-2.1,1.6-3.1,2c-1,0.4-2.1,0.6-3.2,0.6c-1.9,0-3.4-0.5-4.4-1.4c-1-0.9-1.5-2.1-1.5-3.6
		c0-0.8,0.2-1.6,0.6-2.3c0.4-0.7,0.9-1.3,1.5-1.7c0.6-0.4,1.3-0.7,2.1-1c0.6-0.2,1.4-0.3,2.6-0.4c2.4-0.3,4.1-0.6,5.2-1
		c0-0.4,0-0.7,0-0.8c0-1.2-0.3-2-0.8-2.5c-0.8-0.7-1.9-1-3.3-1c-1.4,0-2.4,0.2-3.1,0.7s-1.1,1.3-1.5,2.6l-2.9-0.4
		c0.3-1.2,0.7-2.2,1.3-3c0.6-0.8,1.5-1.3,2.6-1.7s2.4-0.6,3.9-0.6c1.5,0,2.7,0.2,3.6,0.5c0.9,0.3,1.6,0.8,2,1.3
		c0.4,0.5,0.7,1.2,0.9,2c0.1,0.5,0.1,1.4,0.1,2.7v3.9c0,2.7,0.1,4.5,0.2,5.2s0.4,1.4,0.7,2.1h-3.1
		C320.4,251.4,320.2,250.7,320.1,249.9z M319.9,243.4c-1.1,0.4-2.7,0.8-4.8,1.1c-1.2,0.2-2.1,0.4-2.6,0.6c-0.5,0.2-0.9,0.5-1.2,1
		s-0.4,0.9-0.4,1.4c0,0.8,0.3,1.4,0.9,2c0.6,0.5,1.5,0.8,2.6,0.8c1.1,0,2.1-0.2,3-0.7s1.5-1.2,1.9-2c0.3-0.7,0.5-1.6,0.5-2.9V243.4z
		 M314.2,232.6l2.2-4.6h3.8l-3.6,4.6H314.2z"/>
	<path d="M326.7,252v-17.3h2.6v2.6c0.7-1.2,1.3-2,1.9-2.4c0.6-0.4,1.2-0.6,1.9-0.6c1,0,2,0.3,3,0.9l-1,2.7c-0.7-0.4-1.4-0.6-2.2-0.6
		c-0.6,0-1.2,0.2-1.7,0.6s-0.9,0.9-1.1,1.6c-0.3,1-0.5,2.2-0.5,3.4v9.1H326.7z"/>
	<path d="M337.2,231.5v-3.4h2.9v3.4H337.2z M337.2,252v-17.3h2.9V252H337.2z"/>
	<path d="M355.2,249.9c-1.1,0.9-2.1,1.6-3.1,2c-1,0.4-2.1,0.6-3.2,0.6c-1.9,0-3.4-0.5-4.4-1.4c-1-0.9-1.5-2.1-1.5-3.6
		c0-0.8,0.2-1.6,0.6-2.3c0.4-0.7,0.9-1.3,1.5-1.7c0.6-0.4,1.3-0.7,2.1-1c0.6-0.2,1.4-0.3,2.6-0.4c2.4-0.3,4.1-0.6,5.2-1
		c0-0.4,0-0.7,0-0.8c0-1.2-0.3-2-0.8-2.5c-0.8-0.7-1.9-1-3.3-1c-1.4,0-2.4,0.2-3.1,0.7s-1.1,1.3-1.5,2.6l-2.9-0.4
		c0.3-1.2,0.7-2.2,1.3-3c0.6-0.8,1.5-1.3,2.6-1.7s2.4-0.6,3.9-0.6c1.5,0,2.7,0.2,3.6,0.5c0.9,0.3,1.6,0.8,2,1.3
		c0.4,0.5,0.7,1.2,0.9,2c0.1,0.5,0.1,1.4,0.1,2.7v3.9c0,2.7,0.1,4.5,0.2,5.2s0.4,1.4,0.7,2.1h-3.1
		C355.5,251.4,355.3,250.7,355.2,249.9z M355,243.4c-1.1,0.4-2.7,0.8-4.8,1.1c-1.2,0.2-2.1,0.4-2.6,0.6c-0.5,0.2-0.9,0.5-1.2,1
		s-0.4,0.9-0.4,1.4c0,0.8,0.3,1.4,0.9,2c0.6,0.5,1.5,0.8,2.6,0.8c1.1,0,2.1-0.2,3-0.7s1.5-1.2,1.9-2c0.3-0.7,0.5-1.6,0.5-2.9V243.4z
		"/>
	<path d="M366.3,252l9.2-23.9h3.4l9.8,23.9h-3.6l-2.8-7.2h-10l-2.6,7.2H366.3z M373.2,242.2h8.1l-2.5-6.6c-0.8-2-1.3-3.7-1.7-5
		c-0.3,1.5-0.7,3.1-1.3,4.6L373.2,242.2z"/>
	<path d="M392.9,252h-2.7v-23.9h2.9v8.5c1.2-1.6,2.8-2.3,4.7-2.3c1.1,0,2.1,0.2,3,0.6c1,0.4,1.7,1,2.3,1.8c0.6,0.8,1.1,1.7,1.4,2.8
		c0.3,1.1,0.5,2.3,0.5,3.5c0,3-0.7,5.3-2.2,6.9c-1.5,1.6-3.2,2.4-5.3,2.4c-2,0-3.6-0.9-4.8-2.6V252z M392.8,243.3
		c0,2.1,0.3,3.6,0.8,4.5c0.9,1.5,2.2,2.3,3.7,2.3c1.3,0,2.4-0.6,3.3-1.7c0.9-1.1,1.4-2.8,1.4-5c0-2.3-0.4-3.9-1.3-5
		c-0.9-1.1-2-1.6-3.3-1.6c-1.3,0-2.4,0.6-3.3,1.7C393.3,239.6,392.8,241.2,392.8,243.3z"/>
	<path d="M419.3,249.9c-1.1,0.9-2.1,1.6-3.1,2c-1,0.4-2.1,0.6-3.2,0.6c-1.9,0-3.4-0.5-4.4-1.4c-1-0.9-1.5-2.1-1.5-3.6
		c0-0.8,0.2-1.6,0.6-2.3c0.4-0.7,0.9-1.3,1.5-1.7c0.6-0.4,1.3-0.7,2.1-1c0.6-0.2,1.4-0.3,2.6-0.4c2.4-0.3,4.1-0.6,5.2-1
		c0-0.4,0-0.7,0-0.8c0-1.2-0.3-2-0.8-2.5c-0.8-0.7-1.9-1-3.3-1c-1.4,0-2.4,0.2-3.1,0.7s-1.1,1.3-1.5,2.6l-2.9-0.4
		c0.3-1.2,0.7-2.2,1.3-3c0.6-0.8,1.5-1.3,2.6-1.7s2.4-0.6,3.9-0.6c1.5,0,2.7,0.2,3.6,0.5c0.9,0.3,1.6,0.8,2,1.3
		c0.4,0.5,0.7,1.2,0.9,2c0.1,0.5,0.1,1.4,0.1,2.7v3.9c0,2.7,0.1,4.5,0.2,5.2s0.4,1.4,0.7,2.1h-3.1
		C419.6,251.4,419.4,250.7,419.3,249.9z M419.1,243.4c-1.1,0.4-2.7,0.8-4.8,1.1c-1.2,0.2-2.1,0.4-2.6,0.6c-0.5,0.2-0.9,0.5-1.2,1
		s-0.4,0.9-0.4,1.4c0,0.8,0.3,1.4,0.9,2c0.6,0.5,1.5,0.8,2.6,0.8c1.1,0,2.1-0.2,3-0.7s1.5-1.2,1.9-2c0.3-0.7,0.5-1.6,0.5-2.9V243.4z
		"/>
	<path d="M424.8,246.9l2.9-0.5c0.2,1.2,0.6,2.1,1.4,2.7c0.7,0.6,1.8,0.9,3.1,0.9c1.3,0,2.3-0.3,3-0.8s1-1.2,1-1.9
		c0-0.7-0.3-1.2-0.9-1.6c-0.4-0.3-1.4-0.6-3-1c-2.2-0.5-3.6-1-4.5-1.4c-0.8-0.4-1.5-0.9-1.9-1.6c-0.4-0.7-0.6-1.5-0.6-2.3
		c0-0.8,0.2-1.5,0.5-2.1c0.4-0.7,0.8-1.2,1.4-1.6c0.5-0.3,1.1-0.6,1.9-0.9c0.8-0.2,1.6-0.3,2.5-0.3c1.4,0,2.5,0.2,3.6,0.6
		c1,0.4,1.8,0.9,2.3,1.6c0.5,0.7,0.8,1.6,1,2.7l-2.9,0.4c-0.1-0.9-0.5-1.6-1.1-2.1c-0.6-0.5-1.5-0.7-2.6-0.7c-1.3,0-2.3,0.2-2.9,0.7
		c-0.6,0.4-0.9,1-0.9,1.6c0,0.4,0.1,0.7,0.4,1c0.2,0.3,0.6,0.6,1.1,0.8c0.3,0.1,1.2,0.4,2.6,0.7c2.1,0.6,3.5,1,4.3,1.4
		c0.8,0.4,1.5,0.9,1.9,1.5c0.5,0.7,0.7,1.5,0.7,2.5c0,1-0.3,1.9-0.9,2.8s-1.4,1.5-2.5,2c-1.1,0.5-2.3,0.7-3.6,0.7
		c-2.2,0-4-0.5-5.1-1.4C425.8,250.1,425.1,248.7,424.8,246.9z"/>
	<path d="M448.4,249.4l0.4,2.6c-0.8,0.2-1.6,0.3-2.2,0.3c-1.1,0-1.9-0.2-2.5-0.5c-0.6-0.3-1-0.8-1.2-1.3c-0.2-0.5-0.4-1.7-0.4-3.5
		v-10h-2.2v-2.3h2.2v-4.3l2.9-1.8v6h2.9v2.3h-2.9v10.1c0,0.8,0.1,1.4,0.2,1.6c0.1,0.2,0.3,0.4,0.5,0.6c0.2,0.1,0.6,0.2,1,0.2
		C447.4,249.5,447.8,249.5,448.4,249.4z"/>
	<path d="M462.4,246.5l3,0.4c-0.5,1.8-1.4,3.1-2.7,4.1c-1.3,1-2.9,1.5-5,1.5c-2.5,0-4.5-0.8-6-2.3c-1.5-1.6-2.2-3.7-2.2-6.6
		c0-2.9,0.8-5.2,2.2-6.8c1.5-1.6,3.4-2.4,5.8-2.4c2.3,0,4.2,0.8,5.7,2.4c1.5,1.6,2.2,3.8,2.2,6.6c0,0.2,0,0.4,0,0.8h-12.9
		c0.1,1.9,0.6,3.4,1.6,4.4s2.2,1.5,3.6,1.5c1.1,0,2-0.3,2.8-0.8C461.4,248.6,462,247.7,462.4,246.5z M452.8,241.7h9.7
		c-0.1-1.5-0.5-2.5-1.1-3.3c-0.9-1.1-2.1-1.7-3.6-1.7c-1.3,0-2.5,0.5-3.4,1.4C453.4,239,452.9,240.2,452.8,241.7z"/>
	<path d="M479.7,245.7l2.9,0.4c-0.3,2-1.1,3.5-2.4,4.7s-2.9,1.7-4.8,1.7c-2.4,0-4.3-0.8-5.7-2.3s-2.2-3.8-2.2-6.7
		c0-1.9,0.3-3.5,0.9-4.9c0.6-1.4,1.6-2.5,2.8-3.2c1.3-0.7,2.6-1.1,4.1-1.1c1.9,0,3.4,0.5,4.6,1.4c1.2,1,2,2.3,2.3,4l-2.9,0.4
		c-0.3-1.2-0.8-2-1.4-2.6c-0.7-0.6-1.5-0.9-2.5-0.9c-1.5,0-2.7,0.5-3.6,1.6c-0.9,1.1-1.4,2.7-1.4,5c0,2.3,0.4,4,1.3,5.1
		s2.1,1.6,3.5,1.6c1.2,0,2.1-0.4,2.9-1.1C479,248.3,479.5,247.2,479.7,245.7z"/>
	<path d="M484.5,231.5v-3.4h2.9v3.4H484.5z M484.5,252v-17.3h2.9V252H484.5z"/>
	<path d="M491.2,252v-17.3h2.6v2.4c0.5-0.8,1.3-1.5,2.2-2s1.9-0.8,3.1-0.8c1.3,0,2.3,0.3,3.2,0.8s1.4,1.3,1.7,2.2c1.4-2,3.1-3,5.3-3
		c1.7,0,3,0.5,4,1.4c0.9,1,1.4,2.4,1.4,4.4V252h-2.9v-10.9c0-1.2-0.1-2-0.3-2.5c-0.2-0.5-0.5-0.9-1-1.2c-0.5-0.3-1.1-0.5-1.8-0.5
		c-1.2,0-2.2,0.4-3,1.2c-0.8,0.8-1.2,2.1-1.2,3.9V252h-2.9v-11.2c0-1.3-0.2-2.3-0.7-2.9c-0.5-0.7-1.3-1-2.3-1
		c-0.8,0-1.6,0.2-2.3,0.7c-0.7,0.4-1.2,1.1-1.5,1.9c-0.3,0.8-0.5,2-0.5,3.6v9H491.2z"/>
	<path d="M530.2,246.5l3,0.4c-0.5,1.8-1.4,3.1-2.7,4.1c-1.3,1-2.9,1.5-5,1.5c-2.5,0-4.5-0.8-6-2.3c-1.5-1.6-2.2-3.7-2.2-6.6
		c0-2.9,0.8-5.2,2.2-6.8c1.5-1.6,3.4-2.4,5.8-2.4c2.3,0,4.2,0.8,5.7,2.4c1.5,1.6,2.2,3.8,2.2,6.6c0,0.2,0,0.4,0,0.8h-12.9
		c0.1,1.9,0.6,3.4,1.6,4.4s2.2,1.5,3.6,1.5c1.1,0,2-0.3,2.8-0.8C529.1,248.6,529.7,247.7,530.2,246.5z M520.5,241.7h9.7
		c-0.1-1.5-0.5-2.5-1.1-3.3c-0.9-1.1-2.1-1.7-3.6-1.7c-1.3,0-2.5,0.5-3.4,1.4C521.2,239,520.6,240.2,520.5,241.7z"/>
	<path d="M536.2,252v-17.3h2.6v2.5c1.3-1.9,3.1-2.9,5.5-2.9c1,0,2,0.2,2.9,0.6s1.5,0.9,2,1.5s0.7,1.3,0.9,2.2
		c0.1,0.5,0.2,1.5,0.2,2.9V252h-2.9v-10.5c0-1.2-0.1-2.1-0.3-2.7c-0.2-0.6-0.6-1.1-1.2-1.4c-0.6-0.4-1.3-0.5-2-0.5
		c-1.3,0-2.3,0.4-3.2,1.2s-1.4,2.3-1.4,4.5v9.4H536.2z"/>
	<path d="M560.5,249.4l0.4,2.6c-0.8,0.2-1.6,0.3-2.2,0.3c-1.1,0-1.9-0.2-2.5-0.5c-0.6-0.3-1-0.8-1.2-1.3c-0.2-0.5-0.4-1.7-0.4-3.5
		v-10h-2.2v-2.3h2.2v-4.3l2.9-1.8v6h2.9v2.3h-2.9v10.1c0,0.8,0.1,1.4,0.2,1.6c0.1,0.2,0.3,0.4,0.5,0.6c0.2,0.1,0.6,0.2,1,0.2
		C559.6,249.5,560,249.5,560.5,249.4z"/>
	<path d="M561.6,243.4c0-3.2,0.9-5.6,2.7-7.1c1.5-1.3,3.3-1.9,5.4-1.9c2.4,0,4.3,0.8,5.8,2.3s2.3,3.7,2.3,6.5c0,2.2-0.3,4-1,5.3
		c-0.7,1.3-1.6,2.3-2.9,3c-1.3,0.7-2.7,1.1-4.2,1.1c-2.4,0-4.4-0.8-5.9-2.3C562.4,248.6,561.6,246.3,561.6,243.4z M564.6,243.4
		c0,2.2,0.5,3.9,1.4,5s2.2,1.7,3.6,1.7c1.5,0,2.7-0.6,3.6-1.7c1-1.1,1.4-2.8,1.4-5.1c0-2.1-0.5-3.8-1.5-4.9c-1-1.1-2.2-1.7-3.6-1.7
		c-1.5,0-2.7,0.5-3.6,1.6C565.1,239.5,564.6,241.2,564.6,243.4z"/>
</g>
</svg>
