<?xml version="1.0" encoding="utf-8"?>
<!-- Generator: Adobe Illustrator 24.1.2, SVG Export Plug-In . SVG Version: 6.00 Build 0)  -->
<svg version="1.1" id="Camada_1" xmlns="http://www.w3.org/2000/svg" xmlns:xlink="http://www.w3.org/1999/xlink" x="0px" y="0px"
	 viewBox="0 0 162.9 192.6" style="enable-background:new 0 0 162.9 192.6;" xml:space="preserve">
<style type="text/css">
	.st0{fill:#007AC0;}
</style>
<path class="st0" d="M21.5,174.4c-0.3,0-0.5-0.1-0.7-0.2C7.4,166.1,0.2,151,0,130.4C-0.2,110.7,6.3,87,18,65.2
	c12.2-22.9,29.1-41.9,47.4-53.5c31.8-20.2,47.4-10.8,69.1,2.1c2.5,1.5,5.1,3,7.8,4.6c0.7,0.4,0.9,1.3,0.5,2c-0.4,0.7-1.3,0.9-2,0.5
	c-2.7-1.6-5.3-3.1-7.8-4.6C111.5,3.5,97.2-5.1,67,14.2C49,25.6,32.5,44.2,20.5,66.6C9.1,87.9,2.7,111.2,2.9,130.4
	C3,144,6.5,162.2,22.3,171.7c0.7,0.4,0.9,1.3,0.5,2C22.5,174.1,22,174.4,21.5,174.4L21.5,174.4z"/>
<path class="st0" d="M45.2,188c-0.3,0-0.5-0.1-0.8-0.2c-10.5-6.7-17.1-16.9-19.7-30.5c-3.4-18.2,1.3-38.4,5.9-52.1
	c5.6-16.6,14.1-33.5,23.5-46.2c17.1-23.2,55-58,88.1-40.6c0.7,0.4,1,1.2,0.6,2c-0.4,0.7-1.2,1-2,0.6C109.4,4.6,73,38.3,56.4,60.8
	C38.3,85.4,22,127.4,27.6,156.8c2.4,12.7,8.6,22.3,18.4,28.5c0.7,0.4,0.9,1.3,0.4,2C46.1,187.8,45.6,188,45.2,188L45.2,188z"/>
<path class="st0" d="M62.7,178c-3.4,0-6.7-0.5-9.8-1.4c-0.8-0.2-1.2-1-1-1.8c0.2-0.8,1-1.2,1.8-1c9.9,3,21.7,0.7,34.2-6.5
	c15.4-8.9,29.8-24.2,40.7-43c10.9-18.7,16.9-38.9,16.9-56.7c0-17.5-5.8-30.4-16.3-36.5c-0.1-0.1-0.3-0.1-0.4-0.2
	c-0.2-0.1-0.4-0.2-0.6-0.3c-0.7-0.3-1-1.2-0.7-1.9c0.3-0.7,1.2-1,1.9-0.7c0.3,0.1,0.5,0.3,0.8,0.4c0.1,0.1,0.2,0.1,0.4,0.2
	c11.5,6.6,17.8,20.5,17.8,39c0,18.3-6.1,39-17.3,58.1c-11.1,19.3-25.9,34.9-41.7,44C80,175.2,71,178,62.7,178L62.7,178z"/>
<path class="st0" d="M62.9,192.6c-6.7,0-13-1.6-18.5-4.8c-13.3-7.7-20.7-23.8-20.7-45.4c0-43.8,30.9-97.3,68.9-119.3c0,0,0,0,0,0
	c18.7-10.8,36.3-12.5,49.6-4.8c13.3,7.7,20.7,23.8,20.7,45.4c0,43.8-30.9,97.3-68.9,119.3C83.1,189.4,72.5,192.6,62.9,192.6
	L62.9,192.6z M94.1,25.7C56.9,47.2,26.6,99.6,26.6,142.5c0,20.5,6.8,35.7,19.2,42.9c12.4,7.2,29,5.5,46.7-4.8
	c37.2-21.5,67.4-73.8,67.4-116.8c0-20.5-6.8-35.7-19.2-42.8C128.4,13.8,111.8,15.5,94.1,25.7L94.1,25.7L94.1,25.7z"/>
<path class="st0" d="M67.3,179.9c-5.8,0-11.2-1.4-15.9-4.1c-11.5-6.6-17.8-20.5-17.8-39c0-18.2,6.1-38.9,17.2-58.1
	c11.1-19.3,25.9-34.9,41.7-44c16-9.3,31.2-10.7,42.7-4.1c11.5,6.6,17.8,20.4,17.8,39c0,18.3-6.1,38.9-17.2,58.2
	c-11.1,19.3-26,34.9-41.7,44C84.7,177.1,75.5,179.9,67.3,179.9L67.3,179.9z M119.4,29.3c-7.7,0-16.3,2.6-25.3,7.8
	c-15.4,8.9-29.8,24.1-40.7,43c-10.9,18.9-16.9,39-16.9,56.7c0,17.4,5.8,30.4,16.3,36.5c10.6,6.1,24.7,4.6,39.8-4.1h0
	c15.3-8.8,29.8-24.1,40.7-43c10.9-18.8,16.9-38.9,16.9-56.7c0-17.5-5.8-30.4-16.3-36.5C129.5,30.6,124.7,29.3,119.4,29.3L119.4,29.3
	z"/>
<path class="st0" d="M98.5,143.7c-0.5,0-1-0.2-1.2-0.7c-0.4-0.7-0.2-1.6,0.5-2c6.5-4.1,11.7-8.1,15.4-12c3.7-3.9,6.5-8.3,8.3-13.1
	c1.7-4.9,2.6-10.9,2.6-17.8c0-6.5-1.1-10.7-3.2-12.5c-2.2-1.8-5-2.1-8.6-1c-4,1.2-9.2,3.6-15.7,7c-0.7,0.4-1.6,0.1-2-0.6
	c-0.4-0.7-0.1-1.6,0.6-2c6.6-3.5,12-6,16.2-7.2c4.5-1.4,8.3-0.9,11.3,1.6c2.9,2.4,4.3,7.2,4.3,14.8c0,7.3-0.9,13.6-2.8,18.8
	c-1.9,5.2-4.9,10-8.9,14.2c-3.9,4.1-9.3,8.3-16,12.5C99.1,143.7,98.8,143.7,98.5,143.7L98.5,143.7z"/>
<path class="st0" d="M87.3,159.8c-0.3,0-0.5-0.1-0.7-0.2c-0.4-0.3-0.7-0.7-0.7-1.3v-9.6c0-0.8,0.6-1.4,1.4-1.4
	c0.8,0,1.4,0.6,1.4,1.4v7.1l5.7-3.3v-8.7c0-0.5,0.3-1,0.7-1.3l2.6-1.5c0.7-0.4,1.6-0.2,2,0.5c0.4,0.7,0.2,1.6-0.5,2l-1.9,1.1v8.7
	c0,0.5-0.3,1-0.7,1.3l-8.6,4.9C87.8,159.7,87.5,159.8,87.3,159.8L87.3,159.8z"/>
<path class="st0" d="M68.2,157.4c-0.8,0-1.7-0.1-2.5-0.2c-3.1-0.6-5.4-2.4-7.1-5.5c-1.5-2.9-2.3-7.2-2.3-12.6c0-0.8,0.6-1.4,1.4-1.4
	c0.8,0,1.4,0.6,1.4,1.4c0,5,0.7,8.7,2,11.2c1.2,2.3,2.9,3.6,5,4c2.4,0.4,5.2,0,8.5-1.1c3.4-1.2,7.4-3.1,11.8-5.7
	c0.7-0.4,1.6-0.2,2,0.5c0.4,0.7,0.2,1.6-0.5,2c-4.5,2.6-8.7,4.6-12.3,5.9C73,156.9,70.5,157.4,68.2,157.4L68.2,157.4z"/>
<path class="st0" d="M57.8,140.6c-0.8,0-1.4-0.6-1.4-1.4l-0.1-3.2c0-0.5,0.3-1,0.7-1.3l13.6-7.9c0.7-0.4,1.6-0.2,2,0.5
	c0.4,0.7,0.2,1.6-0.5,2l-12.8,7.4l0.1,2.3C59.3,139.9,58.6,140.5,57.8,140.6C57.8,140.6,57.8,140.6,57.8,140.6L57.8,140.6z"/>
<path class="st0" d="M76,141.4c-0.5,0-1-0.1-1.5-0.2c-1.8-0.4-3-1.8-3.7-4.1c-0.6-2-0.9-4.9-0.9-9.1c0-0.8,0.6-1.4,1.4-1.4
	c0.8,0,1.4,0.6,1.4,1.4c0,3.8,0.3,6.5,0.8,8.2c0.6,1.9,1.4,2.1,1.6,2.1c0.9,0.2,2,0.1,3.3-0.5c1.5-0.6,4.3-1.9,8.2-3.9
	c0.7-0.4,1.6-0.1,1.9,0.6c0.4,0.7,0.1,1.6-0.6,1.9c-4,2-6.8,3.4-8.4,4C78.3,141.1,77.1,141.4,76,141.4L76,141.4z"/>
<path class="st0" d="M67.8,116.9c-0.5,0-1,0-1.5-0.1c-3-0.3-5.3-2-6.9-5c-1.5-2.8-2.2-7.1-2.2-13c0-7.2,1.2-13.5,3.7-18.7
	c2.5-5.3,5.8-9.9,10.1-13.7c4.1-3.7,9.4-7.4,15.6-11c0.7-0.4,1.6-0.2,2,0.5c0.4,0.7,0.2,1.6-0.5,2c-6.1,3.5-11.2,7.1-15.2,10.7
	c-3.9,3.5-7.1,7.8-9.4,12.7c-2.3,4.9-3.4,10.7-3.4,17.5c0,5.4,0.6,9.4,1.8,11.7c1.2,2.1,2.7,3.3,4.7,3.5c2.2,0.2,4.8-0.2,7.7-1.3
	c3.2-1.2,7.3-3.1,12.4-5.6c0.7-0.4,1.6-0.1,1.9,0.6c0.4,0.7,0.1,1.6-0.6,1.9c-5.1,2.6-9.4,4.5-12.6,5.8
	C72.6,116.4,70.1,116.9,67.8,116.9L67.8,116.9z"/>
<path class="st0" d="M87.3,58.1c-0.8,0-1.4-0.6-1.4-1.4v-8.4c0-0.5,0.3-1,0.7-1.3l8.6-5c0.4-0.3,1-0.3,1.4,0
	c0.4,0.3,0.7,0.7,0.7,1.3v8.4c0,0.8-0.6,1.4-1.4,1.4c-0.8,0-1.4-0.6-1.4-1.4v-5.9L88.7,49v7.6C88.7,57.4,88.1,58.1,87.3,58.1
	L87.3,58.1z"/>
<path class="st0" d="M123.5,64c-0.8,0-1.4-0.6-1.4-1.4c0-9-1.5-12.7-2.7-14.3c-1.6-2.1-4-2.8-7.1-2c-3.7,0.9-8.8,3.1-15.7,6.7
	c-0.7,0.4-1.6,0.1-2-0.6c-0.4-0.7-0.1-1.6,0.6-2c7.1-3.7,12.4-6,16.3-6.9c5.4-1.4,8.5,0.9,10.1,3c2.2,2.9,3.3,8.2,3.3,16.1
	C125,63.4,124.3,64,123.5,64L123.5,64z"/>
<path class="st0" d="M110.2,71.7c-0.7,0-1.3-0.5-1.4-1.2c-0.1-0.6-0.1-1.2-0.1-2c0-5.2-1.2-6-1.6-6.1c-0.6-0.2-2.4-0.4-7.1,2.4
	c-0.7,0.4-1.6,0.2-2-0.5c-0.4-0.7-0.2-1.6,0.5-2c4.3-2.5,7.5-3.4,9.6-2.7c2.4,0.8,3.5,3.7,3.5,8.9c0,0.6,0,1.2,0.1,1.6
	c0.1,0.8-0.4,1.5-1.2,1.6C110.4,71.7,110.3,71.7,110.2,71.7L110.2,71.7z"/>
<path class="st0" d="M95.9,131.7c-0.2,0-0.5-0.1-0.7-0.2c-0.4-0.3-0.7-0.7-0.7-1.3v-27c0-0.8,0.6-1.4,1.4-1.4c0.8,0,1.4,0.6,1.4,1.4
	v24.5l0.4-0.3c0.7-0.4,1.6-0.2,2,0.5c0.4,0.7,0.2,1.6-0.5,2l-2.6,1.5C96.4,131.7,96.2,131.7,95.9,131.7L95.9,131.7z"/>
<path class="st0" d="M98.5,130.2c-0.5,0-1-0.3-1.3-0.7c-0.4-0.7-0.2-1.6,0.5-2c4.3-2.5,7.5-5.2,9.6-8.2c2-2.9,3-6.8,3-11.5
	c0-4.6-0.9-6.1-1.4-6.6c-0.5-0.5-1.4-1.1-3.3-0.5c-1.9,0.6-5,1.9-9.1,3.9c-0.7,0.4-1.6,0.1-1.9-0.7c-0.3-0.7,0-1.6,0.7-1.9
	c4.4-2.1,7.5-3.5,9.5-4.1c3-1,5,0.1,6.1,1.1c1.6,1.4,2.3,4.2,2.3,8.7c0,5.4-1.2,9.8-3.5,13.2c-2.4,3.4-5.8,6.3-10.5,9.1
	C99,130.2,98.8,130.2,98.5,130.2L98.5,130.2z"/>
<path class="st0" d="M76.9,100.2c-0.4,0-0.8,0-1.1-0.1c-3.3-0.6-5-3.8-5-9.5c0-3.7,0.6-6.8,1.7-9.2c1.1-2.4,2.6-4.4,4.6-6
	c1.8-1.5,4.3-3.2,7.4-5c0.7-0.4,1.6-0.2,2,0.5c0.4,0.7,0.2,1.6-0.5,2c-2.9,1.7-5.2,3.3-7,4.8c-1.6,1.3-2.9,3-3.8,5
	c-1,2-1.5,4.7-1.5,8c0,2.8,0.4,6.2,2.6,6.6c1.5,0.2,4.5-0.2,10.3-3.6c0.7-0.4,1.6-0.2,2,0.5c0.4,0.7,0.2,1.6-0.5,2
	C83.3,98.8,79.7,100.2,76.9,100.2L76.9,100.2z"/>
<path class="st0" d="M45.2,188c-0.2,0-0.5-0.1-0.7-0.2l-23.6-13.7c-0.7-0.4-0.9-1.3-0.5-2c0.4-0.7,1.3-0.9,2-0.5l23.6,13.7
	c0.7,0.4,0.9,1.3,0.5,2C46.1,187.8,45.7,188,45.2,188L45.2,188z"/>
<path class="st0" d="M121.7,16.7c-0.2,0-0.5-0.1-0.7-0.2L97.4,2.8c-0.7-0.4-0.9-1.3-0.5-2c0.4-0.7,1.3-0.9,2-0.5L122.4,14
	c0.7,0.4,0.9,1.3,0.5,2C122.7,16.4,122.2,16.7,121.7,16.7L121.7,16.7z"/>
<path class="st0" d="M105.7,20c-0.2,0-0.5-0.1-0.7-0.2L81.2,6.1c-0.7-0.4-0.9-1.3-0.5-2c0.4-0.7,1.3-0.9,2-0.5l23.8,13.7
	c0.7,0.4,0.9,1.3,0.5,2C106.7,19.7,106.2,20,105.7,20L105.7,20z"/>
<path class="st0" d="M91.6,26.9c-0.2,0-0.5-0.1-0.7-0.2l-22.6-13c-0.7-0.4-0.9-1.3-0.5-2c0.4-0.7,1.3-0.9,2-0.5l22.6,13
	c0.7,0.4,0.9,1.3,0.5,2C92.6,26.7,92.1,26.9,91.6,26.9L91.6,26.9z"/>
<path class="st0" d="M79.5,35.5c-0.2,0-0.5-0.1-0.7-0.2L55.6,21.9c-0.7-0.4-0.9-1.3-0.5-2c0.4-0.7,1.3-0.9,2-0.5l23.2,13.4
	c0.7,0.4,0.9,1.3,0.5,2C80.5,35.2,80,35.5,79.5,35.5L79.5,35.5z"/>
<path class="st0" d="M68.7,45.5c-0.2,0-0.5-0.1-0.7-0.2L44.5,31.7c-0.7-0.4-0.9-1.3-0.5-2c0.4-0.7,1.3-0.9,2-0.5l23.5,13.5
	c0.7,0.4,0.9,1.3,0.5,2C69.7,45.2,69.2,45.5,68.7,45.5L68.7,45.5z"/>
<path class="st0" d="M60,55.3c-0.2,0-0.5-0.1-0.7-0.2L36,41.6c-0.7-0.4-0.9-1.3-0.5-2c0.4-0.7,1.3-0.9,2-0.5l23.3,13.5
	c0.7,0.4,0.9,1.3,0.5,2C61,55,60.5,55.3,60,55.3L60,55.3z"/>
<path class="st0" d="M52.2,65.6c-0.2,0-0.5-0.1-0.7-0.2L28.1,51.9c-0.7-0.4-0.9-1.3-0.5-2c0.4-0.7,1.3-0.9,2-0.5l23.4,13.5
	c0.7,0.4,0.9,1.3,0.5,2C53.2,65.4,52.7,65.6,52.2,65.6L52.2,65.6z"/>
<path class="st0" d="M45.2,76.8c-0.3,0-0.5-0.1-0.7-0.2L21,62.7c-0.7-0.4-0.9-1.3-0.5-2c0.4-0.7,1.3-0.9,2-0.5l23.4,13.9
	c0.7,0.4,0.9,1.3,0.5,2C46.1,76.5,45.7,76.8,45.2,76.8L45.2,76.8z"/>
<path class="st0" d="M39.3,87.9c-0.2,0-0.5-0.1-0.7-0.2L15,74.1c-0.7-0.4-0.9-1.3-0.5-2c0.4-0.7,1.3-0.9,2-0.5L40,85.2
	c0.7,0.4,0.9,1.3,0.5,2C40.3,87.6,39.8,87.9,39.3,87.9L39.3,87.9z"/>
<path class="st0" d="M34.2,99.8c-0.2,0-0.5-0.1-0.7-0.2L9.9,86c-0.7-0.4-0.9-1.3-0.5-2c0.4-0.7,1.3-0.9,2-0.5l23.5,13.6
	c0.7,0.4,0.9,1.3,0.5,2C35.2,99.5,34.7,99.8,34.2,99.8L34.2,99.8z"/>
<path class="st0" d="M29.8,112.8c-0.2,0-0.5-0.1-0.7-0.2L5.5,99c-0.7-0.4-0.9-1.3-0.5-2c0.4-0.7,1.3-0.9,2-0.5l23.5,13.6
	c0.7,0.4,0.9,1.3,0.5,2C30.8,112.5,30.3,112.8,29.8,112.8L29.8,112.8z"/>
<path class="st0" d="M26.8,126.1c-0.2,0-0.5-0.1-0.7-0.2L2.4,112.3c-0.7-0.4-0.9-1.3-0.5-2c0.4-0.7,1.3-0.9,2-0.5l23.6,13.6
	c0.7,0.4,0.9,1.3,0.5,2C27.8,125.9,27.3,126.1,26.8,126.1L26.8,126.1z"/>
<path class="st0" d="M25.3,140.5c-0.2,0-0.5-0.1-0.7-0.2L0.8,126.6c-0.7-0.4-0.9-1.3-0.5-2c0.4-0.7,1.3-0.9,2-0.5L26,137.8
	c0.7,0.4,0.9,1.3,0.5,2C26.3,140.2,25.8,140.5,25.3,140.5L25.3,140.5z"/>
<path class="st0" d="M25.8,155.5c-0.2,0-0.5-0.1-0.7-0.2L1.4,141.6c-0.7-0.4-0.9-1.3-0.5-2c0.4-0.7,1.3-0.9,2-0.5l23.6,13.7
	c0.7,0.4,0.9,1.3,0.5,2C26.8,155.2,26.3,155.5,25.8,155.5L25.8,155.5z"/>
<path class="st0" d="M29.8,171.4c-0.2,0-0.5-0.1-0.7-0.2L6.3,158.1c-0.7-0.4-0.9-1.3-0.5-2c0.4-0.7,1.3-0.9,2-0.5l22.8,13.1
	c0.7,0.4,0.9,1.3,0.5,2C30.8,171.2,30.3,171.4,29.8,171.4L29.8,171.4z"/>
<path class="st0" d="M95.9,91.7c-0.8,0-1.4-0.6-1.4-1.4V65.5c0-0.8,0.6-1.4,1.4-1.4c0.8,0,1.4,0.6,1.4,1.4v24.8
	C97.4,91,96.7,91.7,95.9,91.7L95.9,91.7z"/>
<path class="st0" d="M87.3,136.7c-0.8,0-1.4-0.6-1.4-1.4v-27c0-0.8,0.6-1.4,1.4-1.4c0.8,0,1.4,0.6,1.4,1.4v27
	C88.7,136,88.1,136.7,87.3,136.7L87.3,136.7z"/>
<path class="st0" d="M110.2,71.7c-0.5,0-1-0.3-1.3-0.7c-0.4-0.7-0.2-1.6,0.5-2l13.3-7.7c0.7-0.4,1.6-0.2,2,0.5
	c0.4,0.7,0.2,1.6-0.5,2L111,71.5C110.7,71.6,110.5,71.7,110.2,71.7L110.2,71.7z"/>
<path class="st0" d="M95.9,66.9c-0.5,0-1-0.3-1.3-0.7c-0.4-0.7-0.2-1.6,0.5-2l3.3-1.9c0.7-0.4,1.6-0.2,2,0.5c0.4,0.7,0.2,1.6-0.5,2
	l-3.3,1.9C96.4,66.8,96.2,66.9,95.9,66.9L95.9,66.9z"/>
<path class="st0" d="M85.2,73.1c-0.5,0-1-0.3-1.3-0.7c-0.4-0.7-0.2-1.6,0.5-2l2.1-1.2c0.7-0.4,1.6-0.2,2,0.5c0.4,0.7,0.2,1.6-0.5,2
	l-2.1,1.2C85.7,73,85.5,73.1,85.2,73.1L85.2,73.1z"/>
<path class="st0" d="M87.3,96.3c-0.8,0-1.4-0.6-1.4-1.4V70.4c0-0.8,0.6-1.4,1.4-1.4c0.8,0,1.4,0.6,1.4,1.4v24.4
	C88.7,95.7,88.1,96.3,87.3,96.3L87.3,96.3z"/>
<path class="st0" d="M111.2,131.8c-0.1,0-0.1,0-0.2-0.1c-0.2-0.1-0.3-0.4-0.1-0.6l12-20.8c0.1-0.2,0.4-0.3,0.6-0.1
	c0.2,0.1,0.3,0.4,0.1,0.6l-12,20.8C111.5,131.7,111.3,131.8,111.2,131.8L111.2,131.8z"/>
<path class="st0" d="M112.6,113.5c-0.1,0-0.1,0-0.2-0.1c-0.2-0.1-0.3-0.4-0.1-0.6l11.7-20.2c0.1-0.2,0.4-0.3,0.6-0.1
	c0.2,0.1,0.3,0.4,0.1,0.6L113,113.3C112.9,113.4,112.7,113.5,112.6,113.5L112.6,113.5z"/>
<path class="st0" d="M95.4,143.2c-0.1,0-0.1,0-0.2-0.1c-0.2-0.1-0.3-0.4-0.1-0.6l10.1-17.5c0.1-0.2,0.4-0.3,0.6-0.2
	c0.2,0.1,0.3,0.4,0.1,0.6L95.8,143C95.7,143.2,95.6,143.2,95.4,143.2L95.4,143.2z"/>
<path class="st0" d="M88.6,155c-0.1,0-0.1,0-0.2-0.1c-0.2-0.1-0.3-0.4-0.1-0.6l6.1-10.6c0.1-0.2,0.4-0.3,0.6-0.1
	c0.2,0.1,0.3,0.4,0.1,0.6L89,154.8C88.9,155,88.7,155,88.6,155L88.6,155z"/>
<path class="st0" d="M111.1,100.3c-0.1,0-0.1,0-0.2-0.1c-0.2-0.1-0.3-0.4-0.1-0.6l9-15.6c0.1-0.2,0.4-0.3,0.6-0.1
	c0.2,0.1,0.3,0.4,0.1,0.6l-9,15.6C111.3,100.2,111.2,100.3,111.1,100.3L111.1,100.3z"/>
<path class="st0" d="M81.7,151.1c-0.1,0-0.1,0-0.2-0.1c-0.2-0.1-0.3-0.4-0.1-0.6l13.2-22.9c0.1-0.2,0.4-0.3,0.6-0.1
	c0.2,0.1,0.3,0.4,0.1,0.6l-13.2,22.9C82,151.1,81.8,151.1,81.7,151.1L81.7,151.1z"/>
<path class="st0" d="M102.3,99.6c-0.1,0-0.1,0-0.2-0.1c-0.2-0.1-0.3-0.4-0.1-0.6l8.4-14.5c0.1-0.2,0.4-0.3,0.6-0.1
	c0.2,0.1,0.3,0.4,0.1,0.6l-8.4,14.5C102.6,99.5,102.4,99.6,102.3,99.6L102.3,99.6z"/>
<path class="st0" d="M88.6,123.3c-0.1,0-0.1,0-0.2-0.1c-0.2-0.1-0.3-0.4-0.1-0.6l6.1-10.6c0.1-0.2,0.4-0.3,0.6-0.1
	c0.2,0.1,0.3,0.4,0.1,0.6L89,123.1C88.9,123.2,88.7,123.3,88.6,123.3L88.6,123.3z"/>
<path class="st0" d="M70.2,155.2c-0.1,0-0.1,0-0.2-0.1c-0.2-0.1-0.3-0.4-0.1-0.6l8.2-14.1c0.1-0.2,0.4-0.3,0.6-0.1
	c0.2,0.1,0.3,0.4,0.1,0.6L70.5,155C70.5,155.1,70.3,155.2,70.2,155.2L70.2,155.2z"/>
<path class="st0" d="M111.3,68.2c-0.1,0-0.1,0-0.2-0.1c-0.2-0.1-0.3-0.4-0.2-0.6l9.9-17.1c0.1-0.2,0.4-0.3,0.6-0.1
	c0.2,0.1,0.3,0.4,0.1,0.6L111.6,68C111.5,68.1,111.4,68.2,111.3,68.2L111.3,68.2z"/>
<path class="st0" d="M88.1,108.3c-0.1,0-0.1,0-0.2-0.1c-0.2-0.1-0.3-0.4-0.1-0.6L97.9,90c0.1-0.2,0.4-0.3,0.6-0.1
	c0.2,0.1,0.3,0.4,0.1,0.6l-10.2,17.6C88.4,108.2,88.3,108.3,88.1,108.3L88.1,108.3z"/>
<path class="st0" d="M62.2,153.1c-0.1,0-0.1,0-0.2-0.1c-0.2-0.1-0.3-0.4-0.1-0.6l9-15.6c0.1-0.2,0.4-0.3,0.6-0.1
	c0.2,0.1,0.3,0.4,0.1,0.6l-9,15.6C62.5,153,62.4,153.1,62.2,153.1L62.2,153.1z"/>
<path class="st0" d="M106.7,60.3c-0.1,0-0.1,0-0.2-0.1c-0.2-0.1-0.3-0.4-0.2-0.6l8.3-14.4c0.1-0.2,0.4-0.3,0.6-0.2
	c0.2,0.1,0.3,0.4,0.1,0.6l-8.3,14.4C107,60.2,106.8,60.3,106.7,60.3L106.7,60.3z"/>
<path class="st0" d="M76.1,113.1c-0.1,0-0.1,0-0.2-0.1c-0.2-0.1-0.3-0.4-0.1-0.6l19-32.8c0.1-0.2,0.4-0.3,0.6-0.1
	c0.2,0.1,0.3,0.4,0.1,0.6l-19,32.8C76.4,113,76.3,113.1,76.1,113.1L76.1,113.1z"/>
<path class="st0" d="M59.2,142.5c-0.1,0-0.1,0-0.2-0.1c-0.2-0.1-0.3-0.4-0.2-0.6l4.8-8.3c0.1-0.2,0.4-0.3,0.6-0.1
	c0.2,0.1,0.3,0.4,0.2,0.6l-4.8,8.3C59.5,142.4,59.4,142.5,59.2,142.5L59.2,142.5z"/>
<path class="st0" d="M85.3,81.4c-0.1,0-0.1,0-0.2-0.1c-0.2-0.1-0.3-0.4-0.1-0.6l18.8-32.5c0.1-0.2,0.4-0.3,0.6-0.1
	c0.2,0.1,0.3,0.4,0.1,0.6L85.7,81.2C85.6,81.3,85.4,81.4,85.3,81.4L85.3,81.4z"/>
<path class="st0" d="M66,114.9c-0.1,0-0.1,0-0.2-0.1c-0.2-0.1-0.3-0.4-0.1-0.6L76,96.4c0.1-0.2,0.4-0.3,0.6-0.1
	c0.2,0.1,0.3,0.4,0.1,0.6l-10.3,17.9C66.3,114.8,66.1,114.9,66,114.9L66,114.9z"/>
<path class="st0" d="M75.9,81.8c-0.1,0-0.1,0-0.2-0.1c-0.2-0.1-0.3-0.4-0.1-0.6l19.2-33.3c0.1-0.2,0.4-0.3,0.6-0.1
	c0.2,0.1,0.3,0.4,0.1,0.6L76.3,81.6C76.2,81.8,76,81.8,75.9,81.8L75.9,81.8z"/>
<path class="st0" d="M60.4,108.7c-0.1,0-0.1,0-0.2-0.1c-0.2-0.1-0.3-0.4-0.1-0.6l15.3-26.4c0.1-0.2,0.4-0.3,0.6-0.1
	c0.2,0.1,0.3,0.4,0.1,0.6l-15.3,26.4C60.7,108.6,60.5,108.7,60.4,108.7L60.4,108.7z"/>
<path class="st0" d="M60,93.5c-0.1,0-0.1,0-0.2-0.1c-0.2-0.1-0.3-0.4-0.1-0.6l15.9-27.5c0.1-0.2,0.4-0.3,0.6-0.1
	c0.2,0.1,0.3,0.4,0.1,0.6L60.3,93.3C60.3,93.4,60.1,93.5,60,93.5L60,93.5z"/>
<path class="st0" d="M147.3,102.4c-0.1,0-0.1,0-0.2-0.1c-0.2-0.1-0.3-0.4-0.1-0.6l11.3-19.5c0.1-0.2,0.4-0.3,0.6-0.1
	c0.2,0.1,0.3,0.4,0.1,0.6l-11.3,19.5C147.6,102.3,147.5,102.4,147.3,102.4L147.3,102.4z"/>
<path class="st0" d="M108,170.4c-0.1,0-0.1,0-0.2-0.1c-0.2-0.1-0.3-0.4-0.1-0.6l11.3-19.5c0.1-0.2,0.4-0.3,0.6-0.1
	c0.2,0.1,0.3,0.4,0.1,0.6l-11.3,19.5C108.3,170.3,108.2,170.4,108,170.4L108,170.4z"/>
<path class="st0" d="M152.4,61.8c-0.1,0-0.1,0-0.2-0.1c-0.2-0.1-0.3-0.4-0.1-0.6l6.7-11.7c0.1-0.2,0.4-0.3,0.6-0.1
	c0.2,0.1,0.3,0.4,0.1,0.6l-6.7,11.7C152.7,61.7,152.6,61.8,152.4,61.8L152.4,61.8z"/>
<path class="st0" d="M80,187.2c-0.1,0-0.1,0-0.2-0.1c-0.2-0.1-0.3-0.4-0.1-0.6l6.7-11.7c0.1-0.2,0.4-0.3,0.6-0.1
	c0.2,0.1,0.3,0.4,0.1,0.6L80.3,187C80.3,187.2,80.1,187.2,80,187.2L80,187.2z"/>
<path class="st0" d="M145.8,41.6c-0.1,0-0.1,0-0.2-0.1c-0.2-0.1-0.3-0.4-0.1-0.6l6-10.4c0.1-0.2,0.4-0.3,0.6-0.1
	c0.2,0.1,0.3,0.4,0.1,0.6l-6,10.4C146,41.5,145.9,41.6,145.8,41.6L145.8,41.6z"/>
<path class="st0" d="M59.9,190.3c-0.1,0-0.1,0-0.2-0.1c-0.2-0.1-0.3-0.4-0.1-0.6l6-10.4c0.1-0.2,0.4-0.3,0.6-0.1
	c0.2,0.1,0.3,0.4,0.1,0.6l-6,10.4C60.1,190.3,60,190.3,59.9,190.3L59.9,190.3z"/>
<path class="st0" d="M133.8,30.5c-0.1,0-0.1,0-0.2-0.1c-0.2-0.1-0.3-0.4-0.1-0.6l5.9-10.2c0.1-0.2,0.4-0.3,0.6-0.1
	c0.2,0.1,0.3,0.4,0.2,0.6l-5.9,10.2C134.1,30.5,133.9,30.5,133.8,30.5L133.8,30.5z"/>
<path class="st0" d="M44.5,185.2c-0.1,0-0.1,0-0.2-0.1c-0.2-0.1-0.3-0.4-0.1-0.6l5.9-10.2c0.1-0.2,0.4-0.3,0.6-0.1
	c0.2,0.1,0.3,0.4,0.1,0.6L44.8,185C44.8,185.2,44.6,185.2,44.5,185.2L44.5,185.2z"/>
<path class="st0" d="M117.3,27.3c-0.1,0-0.1,0-0.2-0.1c-0.2-0.1-0.3-0.4-0.1-0.6l6.1-10.6c0.1-0.2,0.4-0.3,0.6-0.1
	c0.2,0.1,0.3,0.4,0.1,0.6l-6.1,10.6C117.6,27.2,117.5,27.3,117.3,27.3L117.3,27.3z"/>
<path class="st0" d="M33.2,173c-0.1,0-0.1,0-0.2-0.1c-0.2-0.1-0.3-0.4-0.1-0.6l6-10.5c0.1-0.2,0.4-0.3,0.6-0.1
	c0.2,0.1,0.3,0.4,0.1,0.6l-6,10.5C33.5,172.9,33.4,173,33.2,173L33.2,173z"/>
<path class="st0" d="M95.2,33.9c-0.1,0-0.1,0-0.2-0.1c-0.2-0.1-0.3-0.4-0.1-0.6l7.1-12.2c0.1-0.2,0.4-0.3,0.6-0.1
	c0.2,0.1,0.3,0.4,0.1,0.6l-7.1,12.2C95.5,33.8,95.3,33.9,95.2,33.9L95.2,33.9z"/>
<path class="st0" d="M27,152.1c-0.1,0-0.1,0-0.2-0.1c-0.2-0.1-0.3-0.4-0.1-0.6l7-12.2c0.1-0.2,0.4-0.3,0.6-0.1
	c0.2,0.1,0.3,0.4,0.1,0.6l-7,12.2C27.2,152.1,27.1,152.1,27,152.1L27,152.1z"/>
<path class="st0" d="M30.3,114.5c-0.1,0-0.1,0-0.2-0.1c-0.2-0.1-0.3-0.4-0.1-0.6l41.6-72c0.1-0.2,0.4-0.3,0.6-0.1
	c0.2,0.1,0.3,0.4,0.1,0.6l-41.6,72C30.6,114.4,30.5,114.5,30.3,114.5L30.3,114.5z"/>
<path class="st0" d="M148,76c-0.1,0-0.1,0-0.2-0.1c-0.2-0.1-0.3-0.4-0.2-0.6l2.2-3.9c0.1-0.2,0.4-0.3,0.6-0.2
	c0.2,0.1,0.3,0.4,0.2,0.6l-2.2,3.9C148.3,75.9,148.1,76,148,76L148,76z"/>
<path class="st0" d="M94.5,168.5c-0.1,0-0.1,0-0.2-0.1c-0.2-0.1-0.3-0.4-0.1-0.6l1.5-2.6c0.1-0.2,0.4-0.3,0.6-0.1
	c0.2,0.1,0.3,0.4,0.1,0.6l-1.5,2.6C94.8,168.5,94.7,168.5,94.5,168.5L94.5,168.5z"/>
<path class="st0" d="M145.5,48.5c-0.1,0-0.1,0-0.2-0.1c-0.2-0.1-0.3-0.4-0.1-0.6l0.6-0.9c0.1-0.2,0.4-0.3,0.6-0.1
	c0.2,0.1,0.3,0.4,0.1,0.6l-0.6,0.9C145.8,48.5,145.6,48.5,145.5,48.5L145.5,48.5z"/>
</svg>
