<?xml version="1.0" encoding="utf-8"?>
<!-- Generator: Adobe Illustrator 24.1.2, SVG Export Plug-In . SVG Version: 6.00 Build 0)  -->
<svg version="1.1" id="Camada_1" xmlns="http://www.w3.org/2000/svg" xmlns:xlink="http://www.w3.org/1999/xlink" x="0px" y="0px"
	 viewBox="0 0 325 269.3" style="enable-background:new 0 0 325 269.3;" xml:space="preserve">
<style type="text/css">
	.st0{fill:#007AC0;}
</style>
<path class="st0" d="M51.8,132.1c-0.4,0-0.8-0.1-1.2-0.3l-22.9-13c-0.7-0.4-1.2-1.2-1.2-2.1c0-0.8,0.5-1.6,1.2-2l5.3-3
	c1.1-0.6,2.6-0.2,3.2,0.9c0.6,1.1,0.2,2.6-0.9,3.2l-1.7,0.9l19.3,11c1.1,0.6,1.5,2.1,0.9,3.2C53.4,131.7,52.6,132.1,51.8,132.1
	L51.8,132.1z"/>
<path class="st0" d="M176,204.1c-0.4,0-0.8-0.1-1.2-0.3L73.8,145.5c-0.1-0.1-0.2-0.1-0.3-0.2l-0.1-0.1l-19.1-11
	c-1.1-0.6-1.5-2.1-0.9-3.2c0.6-1.1,2.1-1.5,3.2-0.9l19.3,11.1c0.1,0.1,0.2,0.1,0.3,0.2l0.1,0.1l100.9,58.2c1.1,0.7,1.5,2.1,0.9,3.2
	C177.6,203.7,176.9,204.1,176,204.1L176,204.1z"/>
<path class="st0" d="M196.4,202.8c-0.8,0-1.6-0.4-2-1.2c-0.6-1.1-0.3-2.6,0.9-3.2l32.1-18.5l14-8l13.4-7.8l4.5-2.5l20.9-12
	c1.1-0.7,2.6-0.3,3.2,0.9c0.7,1.1,0.3,2.6-0.9,3.2l-9.5,5.5l-11.5,6.6l-4.5,2.5l-13.3,7.8l-14,8l-32.1,18.5
	C197.2,202.7,196.8,202.8,196.4,202.8L196.4,202.8z"/>
<path class="st0" d="M51.8,132.1c-0.4,0-0.8-0.1-1.2-0.3l-22.9-13l-10.6-6.2c-0.7-0.4-1.2-1.2-1.2-2c0-0.8,0.5-1.6,1.2-2L33,99.4
	c1.1-0.6,2.6-0.3,3.2,0.9c0.7,1.1,0.3,2.6-0.9,3.2L23,110.6l7.1,4.1l22.9,13c1.1,0.6,1.5,2.1,0.9,3.2
	C53.4,131.7,52.6,132.1,51.8,132.1L51.8,132.1z"/>
<path class="st0" d="M176,213.3c-0.4,0-0.8-0.1-1.2-0.3L1.2,112.6c-0.7-0.4-1.2-1.2-1.2-2c0-0.8,0.5-1.6,1.2-2L33,90.3
	c1.1-0.6,2.6-0.3,3.2,0.9c0.7,1.1,0.3,2.6-0.9,3.2L7.1,110.6l170.2,98.3c1.1,0.7,1.5,2.1,0.9,3.2C177.6,212.8,176.9,213.3,176,213.3
	L176,213.3z"/>
<path class="st0" d="M310.1,212.2c-0.5,0-1-0.2-1.4-0.4c-0.2,0.1-0.5,0.2-0.8,0.3c-1.3,0.2-2.5-0.6-2.7-1.9l-8.1-47.7
	c0-0.1,0-0.3,0-0.4v-14.5c0-1.2,0.9-2.2,2.2-2.3c1.2-0.1,2.3,0.7,2.5,1.9l10.6,62.3c0.2,1.3-0.6,2.5-1.9,2.7
	C310.3,212.2,310.2,212.2,310.1,212.2L310.1,212.2z"/>
<path class="st0" d="M299.5,164.3c-0.4,0-0.8-0.1-1.2-0.3l-18.1-10.4c-0.7-0.4-1.2-1.2-1.2-2V137c0-0.8,0.5-1.6,1.2-2
	c0.7-0.4,1.6-0.4,2.4,0l18.1,10.5c0.7,0.4,1.2,1.2,1.2,2v14.4c0,0.8-0.4,1.6-1.2,2C300.3,164.2,299.9,164.3,299.5,164.3L299.5,164.3
	z M283.7,150.2l13.5,7.7v-9l-13.5-7.8V150.2L283.7,150.2z"/>
<path class="st0" d="M197,269.3c-0.4,0-0.8-0.1-1.2-0.3L10.1,161.7c-0.6-0.3-1-0.9-1.1-1.6L0,111c-0.2-0.9,0.2-1.8,1-2.3
	c0.7-0.5,1.7-0.6,2.5-0.1l170.2,98.3v-9.1c0-0.8,0.4-1.6,1.2-2c0.7-0.4,1.6-0.4,2.3,0l20.9,12.1c0.7,0.4,1.2,1.2,1.2,2V267
	c0,0.8-0.4,1.6-1.2,2C197.8,269.2,197.4,269.3,197,269.3L197,269.3z M13.4,158.2l181.2,104.7v-51.7l-16.2-9.4v9.1
	c0,0.8-0.4,1.6-1.2,2c-0.7,0.4-1.6,0.4-2.3,0L5.6,115.2L13.4,158.2L13.4,158.2z"/>
<path class="st0" d="M322.6,219.4c0,0-0.1,0-0.1,0l-125.7-7.2c-0.4,0-0.7-0.1-1-0.3l-20.9-12.1c-0.7-0.4-1.2-1.2-1.2-2
	c0-0.8,0.5-1.6,1.2-2l8.1-4.6c0.7-0.4,1.6-0.4,2.3,0l17.7,10.1l104.3,6l-9.9-58.3l-17.2-9.9c-0.7-0.4-1.2-1.2-1.2-2
	c0-0.8,0.4-1.6,1.2-2l7.8-4.6c0.7-0.4,1.6-0.4,2.4,0l20.9,12.1c0.6,0.3,1,0.9,1.1,1.6l12.6,72.6c0.1,0.7-0.1,1.4-0.6,2
	C324,219.2,323.3,219.4,322.6,219.4L322.6,219.4z M197.7,207.5l122.1,7L307.9,146l-18.8-10.9L286,137l14.7,8.5c0.6,0.4,1,1,1.1,1.6
	l10.6,62.3c0.1,0.7-0.1,1.4-0.6,2c-0.5,0.5-1.2,0.8-1.9,0.8L202.2,206c-0.4,0-0.7-0.1-1-0.3l-17-9.7l-3.3,1.9L197.7,207.5
	L197.7,207.5z"/>
<path class="st0" d="M269.3,186.3c-0.4,0-0.8-0.1-1.2-0.3c-0.7-0.4-1.2-1.2-1.2-2v-10.2c0-0.8,0.4-1.6,1.2-2l13.7-7.9
	c0.7-0.4,1.6-0.4,2.3,0c0.7,0.4,1.2,1.2,1.2,2V176c0,0.8-0.4,1.6-1.2,2l-13.7,7.9C270.1,186.2,269.7,186.3,269.3,186.3L269.3,186.3z
	 M271.7,175.1v4.8l9-5.2v-4.8L271.7,175.1L271.7,175.1z"/>
<path class="st0" d="M269.3,176c-0.4,0-0.8-0.1-1.2-0.3l-13.4-7.7c-0.7-0.4-1.2-1.2-1.2-2c0-0.8,0.4-1.6,1.2-2l14-8
	c0.7-0.4,1.6-0.4,2.4,0l13.1,7.8c0.7,0.4,1.2,1.2,1.1,2c0,0.8-0.5,1.6-1.2,2l-13.7,7.9C270.1,175.9,269.7,176,269.3,176L269.3,176z
	 M260.6,166l8.7,4.9l9-5.2l-8.5-5L260.6,166L260.6,166z"/>
<path class="st0" d="M269.3,186.3c-0.4,0-0.8-0.1-1.2-0.3l-13.4-7.7c-0.7-0.4-1.2-1.2-1.2-2V166c0-0.8,0.4-1.6,1.2-2
	c0.7-0.4,1.6-0.4,2.3,0l13.4,7.7c0.7,0.4,1.2,1.2,1.2,2v10.2c0,0.8-0.4,1.6-1.2,2C270.1,186.2,269.7,186.3,269.3,186.3L269.3,186.3z
	 M258.3,174.9l8.7,5v-4.8l-8.7-5V174.9L258.3,174.9z"/>
<path class="st0" d="M241.9,202.1c-0.4,0-0.8-0.1-1.2-0.3c-0.7-0.4-1.2-1.2-1.2-2v-10.2c0-0.8,0.4-1.6,1.2-2l13.7-8
	c0.7-0.4,1.6-0.4,2.4,0c0.7,0.4,1.2,1.2,1.2,2v10.3c0,0.8-0.4,1.6-1.2,2l-13.7,7.9C242.8,202,242.4,202.1,241.9,202.1L241.9,202.1z
	 M244.3,190.9v4.8l9-5.2v-4.8L244.3,190.9L244.3,190.9z"/>
<path class="st0" d="M241.9,191.9c-0.4,0-0.8-0.1-1.2-0.3l-13.4-7.7c-0.7-0.4-1.2-1.2-1.2-2c0-0.8,0.5-1.6,1.2-2l14-8
	c0.7-0.4,1.6-0.4,2.4,0l13.1,7.7c0.7,0.4,1.2,1.2,1.2,2c0,0.8-0.4,1.6-1.2,2l-13.7,8C242.8,191.8,242.4,191.9,241.9,191.9
	L241.9,191.9z M233.3,181.9l8.7,4.9l9-5.3l-8.5-5L233.3,181.9L233.3,181.9z"/>
<path class="st0" d="M241.9,202.1c-0.4,0-0.8-0.1-1.2-0.3l-13.4-7.6c-0.7-0.4-1.2-1.2-1.2-2v-10.3c0-0.8,0.4-1.6,1.2-2
	c0.7-0.4,1.6-0.4,2.3,0l13.4,7.7c0.7,0.4,1.2,1.2,1.2,2v10.2c0,0.8-0.4,1.6-1.2,2C242.8,202,242.4,202.1,241.9,202.1L241.9,202.1z
	 M230.9,190.8l8.7,4.9v-4.8l-8.7-5V190.8L230.9,190.8z"/>
<path class="st0" d="M197,269.3c-1.2,0-2.3-0.9-2.3-2.2c-0.1-1.3,0.9-2.4,2.2-2.5l99-7.3l22.8-38.1l-121.8-7
	c-1.3-0.1-2.3-1.2-2.2-2.5c0.1-1.3,1.2-2.3,2.5-2.2l125.7,7.2c0.8,0,1.6,0.5,1.9,1.2c0.4,0.7,0.4,1.6-0.1,2.3l-25.4,42.4
	c-0.4,0.7-1.1,1.1-1.8,1.1l-100.2,7.4C197.1,269.3,197,269.3,197,269.3L197,269.3z"/>
<path class="st0" d="M197,269.3c-0.6,0-1.2-0.2-1.6-0.6c-0.5-0.4-0.8-1.1-0.8-1.7v-21.3c0-1.3,1-2.3,2.3-2.4l110.3-2.6
	c0.9,0,1.7,0.4,2.1,1.2c0.4,0.7,0.4,1.7,0,2.4l-10,16.5c-0.4,0.7-1.1,1.1-1.8,1.1l-100.2,7.4C197.1,269.3,197,269.3,197,269.3
	L197,269.3z M199.3,248v16.5l96.5-7.2l7.2-11.8L199.3,248L199.3,248z M297.2,259.5L297.2,259.5L297.2,259.5L297.2,259.5z"/>
<path class="st0" d="M197,269.3c-0.4,0-0.8-0.1-1.2-0.3L10.1,161.7c-0.6-0.3-1-0.9-1.1-1.6l-4.5-24.6c-0.2-0.9,0.2-1.8,1-2.3
	c0.8-0.5,1.7-0.6,2.5-0.1l190.2,110.6c0.7,0.4,1.2,1.2,1.2,2V267c0,0.8-0.4,1.6-1.2,2C197.8,269.2,197.4,269.3,197,269.3L197,269.3z
	 M13.4,158.2l181.2,104.7V247L10,139.7L13.4,158.2L13.4,158.2z"/>
<path class="st0" d="M187.1,234.5c-3.5,0-7.5-2.8-10.5-7.6c0-0.1-0.1-0.1-0.1-0.2c-1-2-2.2-5.1-2.2-8.1c0-1.8,1.1-2.6,1.5-2.8
	c0.4-0.2,1.6-0.7,3,0.3c1.1,0.7,1.3,2.2,0.6,3.3c-0.1,0.1-0.2,0.3-0.3,0.4c0.2,1.4,0.7,3.1,1.6,4.8c2.6,4.2,5.9,5.8,7.1,5.1
	c0.8-0.5,1-1.6,1.1-2.5c0,0,0-0.1,0-0.1c-1.1-0.7-1.4-2.1-0.7-3.2c0.7-1.1,2.1-1.5,3.2-0.8c1.1,0.7,2.3,2.2,2.3,3.9
	c0,3.1-1.2,5.5-3.4,6.7C189.1,234.3,188.1,234.5,187.1,234.5L187.1,234.5z M188.8,227.2L188.8,227.2L188.8,227.2z M188.7,227.1
	L188.7,227.1L188.7,227.1z"/>
<path class="st0" d="M28.9,119.1c-0.4,0-0.8-0.1-1.2-0.3l-10.6-6.2c-0.7-0.4-1.2-1.2-1.2-2c0-0.8,0.5-1.6,1.2-2L33,99.4
	c1.1-0.6,2.6-0.3,3.2,0.9c0.6,1.1,0.3,2.6-0.9,3.2L23,110.6l5.9,3.5l4.1-2.3c1.1-0.6,2.6-0.2,3.2,0.9c0.6,1.1,0.2,2.6-0.9,3.2
	l-5.3,3C29.7,119,29.3,119.1,28.9,119.1L28.9,119.1z"/>
<path class="st0" d="M74.7,85.6c-0.4,0-0.8-0.1-1.2-0.3l-11.8-6.9c-0.3,0-0.5-0.1-0.8-0.3L33,61.9c-0.7-0.4-1.2-1.2-1.2-2
	s0.5-1.7,1.2-2.1l35.5-20.5c1.1-0.6,2.6-0.3,3.2,0.9c0.6,1.1,0.3,2.6-0.9,3.2l-32,18.5l24,13.9c0.3,0,0.5,0.1,0.8,0.3l11.1,6.5
	l44.1-25.5l8.1-4.6l18.8-10.8l-36-20.7L91.8,29.4c-1.1,0.7-2.6,0.3-3.2-0.9c-0.7-1.1-0.3-2.6,0.9-3.2l19-11c0.7-0.4,1.6-0.4,2.3,0
	l40.8,23.4c0.7,0.4,1.2,1.2,1.2,2c0,0.8-0.4,1.6-1.2,2l-22.3,12.9l-8.1,4.6l-4.4,2.6L75.9,85.3C75.5,85.5,75.1,85.6,74.7,85.6
	L74.7,85.6z"/>
<path class="st0" d="M85.6,57.1c-0.4,0-0.8-0.1-1.2-0.3l-15.9-9.2c-1.1-0.7-1.5-2.1-0.9-3.2c0.7-1.1,2.1-1.5,3.2-0.9l14.7,8.6
	l15.3-8.9c1.1-0.7,2.6-0.3,3.2,0.9c0.7,1.1,0.3,2.6-0.9,3.2l-16.5,9.5C86.4,57,86,57.1,85.6,57.1L85.6,57.1z"/>
<path class="st0" d="M85.6,57.1c-0.4,0-0.8-0.1-1.2-0.3c-0.7-0.4-1.2-1.2-1.2-2V43.7c0-0.8,0.4-1.6,1.2-2l16.5-9.6
	c0.7-0.4,1.6-0.4,2.4,0c0.7,0.4,1.2,1.2,1.2,2v11.2c0,0.8-0.4,1.6-1.2,2l-16.5,9.5C86.4,57,86,57.1,85.6,57.1L85.6,57.1z M87.9,45
	v5.7l11.8-6.8v-5.7L87.9,45L87.9,45z"/>
<path class="st0" d="M85.6,46c-0.4,0-0.8-0.1-1.2-0.3l-6.7-3.8l-9.3-5.5c-0.7-0.4-1.2-1.2-1.2-2c0-0.8,0.5-1.6,1.2-2L84.7,23
	c0,0,0.1,0,0.1-0.1l0.6-0.3c0.7-0.4,1.6-0.3,2.3,0.1l9.2,5.5l6.4,3.7c0.7,0.4,1.2,1.2,1.2,2c0,0.8-0.4,1.6-1.2,2l-16.5,9.6
	C86.4,45.9,86,46,85.6,46L85.6,46z M74.3,34.4l5.7,3.4l5.5,3.1l11.8-6.9l-2.9-1.7l-8.1-4.8L74.3,34.4L74.3,34.4z"/>
<path class="st0" d="M69.7,47.7c-1.3,0-2.4-1.1-2.4-2.4V34.4c0-0.8,0.5-1.6,1.2-2c0.7-0.4,1.6-0.4,2.4,0l9.2,5.4
	c1.1,0.7,1.5,2.1,0.8,3.2c-0.7,1.1-2.1,1.5-3.2,0.8L72,38.5v6.8C72,46.6,71,47.7,69.7,47.7L69.7,47.7z"/>
<path class="st0" d="M85.6,8.9c-2.4,0-4.3-1.9-4.3-4.4C81.3,2,83.2,0,85.6,0c2.4,0,4.3,2,4.3,4.5C89.9,7,88,8.9,85.6,8.9L85.6,8.9z
	 M85.6,4.2c-0.2,0-0.4,0.2-0.4,0.3c0,0.1,0.2,0.2,0.4,0.2c0.2,0,0.4-0.2,0.4-0.3C86,4.4,85.8,4.2,85.6,4.2L85.6,4.2z"/>
<path class="st0" d="M150.3,80.2c-1.3,0-2.3-1.1-2.3-2.4V39.7c0-1.3,1.1-2.4,2.3-2.4s2.4,1.1,2.4,2.4v38.2
	C152.7,79.1,151.6,80.2,150.3,80.2L150.3,80.2z"/>
<path class="st0" d="M74.7,146c-1,0-1.9-0.7-2.2-1.7c-0.3-1,0.1-2.1,1-2.7c0.1-0.1,0.2-0.2,0.3-0.2c12.3-7,24.6-14.4,36.5-21.5
	l0.6-0.4c1.1-0.7,2.6-0.3,3.2,0.8c0.7,1.1,0.3,2.6-0.8,3.2l-0.6,0.4c-11.8,7.1-23.9,14.4-36.2,21.4c-0.3,0.3-0.7,0.5-1.2,0.6
	C75.1,145.9,74.9,146,74.7,146L74.7,146z M72.6,143.4C72.6,143.4,72.6,143.4,72.6,143.4C72.6,143.4,72.6,143.4,72.6,143.4
	L72.6,143.4z M72.6,143.4L72.6,143.4L72.6,143.4L72.6,143.4z"/>
<path class="st0" d="M116,90.2c-0.4,0-0.8-0.1-1.2-0.3c-0.7-0.4-1.2-1.2-1.2-2V67.8c0-0.8,0.5-1.6,1.2-2l26.8-15.4
	c0.7-0.4,1.6-0.4,2.3,0c0.7,0.4,1.2,1.2,1.2,2v20.1c0,0.8-0.5,1.6-1.2,2l-26.8,15.4C116.8,90.1,116.4,90.2,116,90.2L116,90.2z
	 M118.4,69.1v14.7l22.1-12.7V56.4L118.4,69.1L118.4,69.1z"/>
<path class="st0" d="M82.2,109.8c-0.4,0-0.8-0.1-1.2-0.3c-0.7-0.4-1.2-1.2-1.2-2V87.4c0-0.8,0.4-1.6,1.2-2L107.6,70
	c0.7-0.4,1.6-0.4,2.4,0c0.7,0.4,1.2,1.2,1.2,2v20.2c0,0.8-0.4,1.6-1.2,2l-26.5,15.3C83,109.7,82.6,109.8,82.2,109.8L82.2,109.8z
	 M84.6,88.7v14.7l21.8-12.6V76.1L84.6,88.7L84.6,88.7z"/>
<path class="st0" d="M74.7,145.9c-0.4,0-0.8-0.1-1.2-0.3c-13.4-7.7-17.2-10.1-21.3-12.7c-3.8-2.4-7.7-4.9-19.2-11.6
	c-0.7-0.4-1.2-1.2-1.2-2V59.8c0-1.3,1.1-2.3,2.4-2.3s2.3,1.1,2.3,2.3v58c10.7,6.3,14.5,8.7,18.2,11c4,2.6,7.9,5,21.1,12.6
	c1.1,0.6,1.5,2.1,0.9,3.2C76.3,145.5,75.5,145.9,74.7,145.9L74.7,145.9z"/>
<path class="st0" d="M67.1,109.8c-0.4,0-0.8-0.1-1.2-0.3l-26-15c-0.7-0.4-1.2-1.2-1.2-2V72.4c0-0.8,0.4-1.6,1.2-2
	c0.7-0.4,1.6-0.4,2.3,0l26,15c0.7,0.4,1.2,1.2,1.2,2v20.1c0,0.8-0.4,1.6-1.2,2C67.9,109.7,67.5,109.8,67.1,109.8L67.1,109.8z
	 M43.5,91.1l21.3,12.3V88.7L43.5,76.5V91.1L43.5,91.1z"/>
<path class="st0" d="M143.1,173.8c-0.4,0-0.8-0.1-1.2-0.3l-31-17.8c-0.7-0.4-1.2-1.2-1.2-2v-36.5c0-0.9,0.5-1.6,1.2-2.1l2.2-1.3
	c0.7-0.4,1.6-0.4,2.3,0l3.2-1.9c0-0.9,0.5-1.6,1.2-2l2.2-1.2c0.7-0.4,1.6-0.4,2.3,0l2.1-1.2c1.1-0.7,2.6-0.3,3.2,0.9
	c0.7,1.1,0.3,2.6-0.9,3.2l-3.3,1.9c-0.7,0.4-1.5,0.4-2.2,0.1c-0.1,0.7-0.5,1.4-1.1,1.8l-5.6,3.3c-0.7,0.4-1.5,0.4-2.2,0.1v33.6
	l29.8,17.2c1.1,0.6,1.5,2.1,0.9,3.2C144.7,173.4,143.9,173.8,143.1,173.8L143.1,173.8z"/>
<path class="st0" d="M143.1,173.8c-0.4,0-0.8-0.1-1.2-0.3l-31-17.9c-0.7-0.4-1.2-1.2-1.2-2v-36.5c0-0.8,0.4-1.6,1.2-2
	c0.7-0.4,1.6-0.4,2.3,0l31,17.9c0.7,0.4,1.2,1.2,1.2,2v36.5c0,0.8-0.5,1.6-1.2,2C143.9,173.7,143.5,173.8,143.1,173.8L143.1,173.8z
	 M114.4,152.2l26.3,15.2v-31.1l-26.3-15.2V152.2L114.4,152.2z"/>
<path class="st0" d="M127.7,116c-0.4,0-0.8-0.1-1.2-0.3l-1.1-0.7l-3.3-1.9c-1.1-0.6-1.5-2.1-0.9-3.2c0.6-1.1,2.1-1.5,3.2-0.9
	l4.5,2.6c1.1,0.7,1.5,2.1,0.8,3.2C129.3,115.6,128.5,116,127.7,116L127.7,116z"/>
<path class="st0" d="M174.1,191.7c-0.4,0-0.8-0.1-1.2-0.3l-31-17.9c-0.7-0.4-1.2-1.2-1.2-2V135c0-0.8,0.5-1.6,1.2-2
	c0.7-0.4,1.6-0.4,2.3,0l31,17.9c0.7,0.4,1.2,1.2,1.2,2v36.4c0,0.8-0.4,1.6-1.2,2C174.9,191.6,174.5,191.7,174.1,191.7L174.1,191.7z
	 M145.4,170.1l26.3,15.2v-31l-26.3-15.2V170.1L145.4,170.1z"/>
<path class="st0" d="M185.3,149.2c-0.3,0-0.6-0.1-0.9-0.2l-0.3-0.1c-0.1,0-0.2-0.1-0.3-0.2l-15.6-9c-1.1-0.6-1.5-2.1-0.9-3.2
	c0.6-1.1,2.1-1.5,3.2-0.9l15.6,9c1.2,0.5,1.8,1.8,1.3,3C187.1,148.6,186.2,149.2,185.3,149.2L185.3,149.2z"/>
<path class="st0" d="M202.8,138.6c-0.4,0-0.8-0.1-1.2-0.3l-15.4-9c-1.1-0.7-1.5-2.1-0.8-3.2c0.7-1.1,2.1-1.5,3.2-0.8l15.4,9
	c1.1,0.7,1.5,2.1,0.8,3.2C204.4,138.2,203.7,138.6,202.8,138.6L202.8,138.6z"/>
<path class="st0" d="M220.7,128.3c-0.4,0-0.8-0.1-1.2-0.3l-14.9-8.7c-1.1-0.2-1.9-1.2-1.9-2.3c0-1.3,1.1-2.4,2.3-2.4h0.3
	c0.4,0,0.8,0.1,1.2,0.3l15.4,9c1.1,0.7,1.5,2.1,0.8,3.2C222.3,127.9,221.5,128.3,220.7,128.3L220.7,128.3z"/>
<path class="st0" d="M158.7,146.3c-0.4,0-0.8-0.1-1.2-0.3l-31-17.9c-0.7-0.4-1.2-1.2-1.2-2l-0.3-36.4c0-0.8,0.4-1.6,1.2-2.1
	c0.7-0.4,1.6-0.4,2.4,0l31,17.8c0.7,0.4,1.2,1.2,1.2,2l0.3,36.5c0,0.8-0.4,1.6-1.2,2.1C159.5,146.2,159.1,146.3,158.7,146.3
	L158.7,146.3z M130.1,124.7l26.3,15.2l-0.2-31.1l-26.3-15.1L130.1,124.7L130.1,124.7z"/>
<path class="st0" d="M197,216.2c-1.3,0-2.4-1-2.4-2.3v-0.1c0-1.3,1.1-2.3,2.4-2.3s2.3,1.1,2.3,2.3S198.3,216.2,197,216.2L197,216.2z
	"/>
<path class="st0" d="M173.5,102.6h-0.3c-1.3,0-2.3-1.1-2.3-2.4s1.1-2.3,2.3-2.3h0.3c1.3,0,2.4,1.1,2.4,2.3S174.8,102.6,173.5,102.6
	L173.5,102.6z"/>
<path class="st0" d="M271.8,159.4c-0.4,0-0.8-0.1-1.2-0.3l-42.2-24.3c-1.1-0.7-1.5-2.1-0.9-3.2c0.7-1.1,2.1-1.5,3.2-0.9L273,155
	c1.1,0.6,1.5,2.1,0.9,3.2C273.4,159,272.6,159.4,271.8,159.4L271.8,159.4z"/>
<path class="st0" d="M281.3,143.5c-0.4,0-0.8-0.1-1.2-0.3l-67.3-38.8c-1.1-0.6-1.5-2.1-0.9-3.2c0.6-1.1,2.1-1.5,3.2-0.9l67.3,38.8
	c1.1,0.7,1.5,2.1,0.9,3.2C282.9,143,282.1,143.5,281.3,143.5L281.3,143.5z"/>
<path class="st0" d="M161,74c-0.4,0-0.8-0.1-1.2-0.3l-10.6-6.3c-1.1-0.7-1.5-2.1-0.8-3.2c0.7-1.1,2.1-1.5,3.2-0.8l10.6,6.3
	c1.1,0.7,1.5,2.1,0.8,3.2C162.5,73.6,161.8,74,161,74L161,74z"/>
<path class="st0" d="M281.3,152.6c-0.4,0-0.8-0.1-1.2-0.3l-67.3-38.8c-1.1-0.6-1.5-2.1-0.9-3.2c0.6-1.1,2.1-1.5,3.2-0.9l67.3,38.8
	c1.1,0.7,1.5,2.1,0.9,3.2C282.9,152.2,282.1,152.6,281.3,152.6L281.3,152.6z"/>
<path class="st0" d="M197,269.3c-1.3,0-2.4-1.1-2.4-2.4v-57.1c0-1.3,1.1-2.4,2.4-2.4s2.3,1.1,2.3,2.4V267
	C199.3,268.3,198.3,269.3,197,269.3L197,269.3z"/>
<path class="st0" d="M183.9,233.3c-1.3,0-2.3-1.1-2.3-2.3v-19.7c0-1.3,1.1-2.4,2.3-2.4s2.4,1.1,2.4,2.4v19.7
	C186.2,232.2,185.2,233.3,183.9,233.3L183.9,233.3z"/>
<path class="st0" d="M85.8,36.6c-1.3,0-2.4-1.1-2.4-2.4V6.5c0-1.3,1.1-2.4,2.4-2.4s2.3,1.1,2.3,2.4v27.7
	C88.2,35.5,87.1,36.6,85.8,36.6L85.8,36.6z"/>
<path class="st0" d="M74.7,144.4c-1.3,0-2.3-1.1-2.3-2.3V83.3c0-1.3,1.1-2.3,2.3-2.3c1.3,0,2.4,1.1,2.4,2.3V142
	C77,143.3,76,144.4,74.7,144.4L74.7,144.4z"/>
<path class="st0" d="M74.7,146c-1.3,0-2.3-1.1-2.3-2.4V142c0-1.3,1.1-2.4,2.3-2.4c1.3,0,2.4,1.1,2.4,2.4v1.6
	C77,144.9,76,146,74.7,146L74.7,146z"/>
<path class="st0" d="M116,80.2c-0.8,0-1.6-0.4-2-1.2c-0.7-1.1-0.3-2.6,0.9-3.2l26.8-15.5c1.1-0.6,2.6-0.3,3.2,0.9
	c0.6,1.1,0.3,2.6-0.9,3.2l-26.8,15.5C116.8,80.1,116.4,80.2,116,80.2L116,80.2z"/>
<path class="st0" d="M82.2,99.8c-0.8,0-1.6-0.4-2-1.2c-0.6-1.1-0.3-2.6,0.9-3.2L107.6,80c1.1-0.6,2.6-0.3,3.2,0.9
	c0.6,1.1,0.3,2.6-0.9,3.2L83.4,99.4C83,99.7,82.6,99.8,82.2,99.8L82.2,99.8z"/>
<path class="st0" d="M67.1,99.8c-0.4,0-0.8-0.1-1.2-0.3l-26-15c-1.1-0.7-1.5-2.1-0.9-3.2c0.7-1.1,2.1-1.5,3.2-0.9l26,15
	c1.1,0.7,1.5,2.1,0.9,3.2C68.7,99.3,67.9,99.8,67.1,99.8L67.1,99.8z"/>
<path class="st0" d="M185.3,185.7c-1.3,0-2.4-1.1-2.4-2.4v-36.4c0-1.3,1.1-2.4,2.4-2.4c1.3,0,2.3,1.1,2.3,2.4v36.4
	C187.6,184.6,186.6,185.7,185.3,185.7L185.3,185.7z"/>
<path class="st0" d="M193.9,143.8c-0.4,0-0.8-0.1-1.2-0.3l-15.4-9c-1.1-0.7-1.5-2.1-0.8-3.2c0.7-1.1,2.1-1.5,3.2-0.8l15.4,9
	c1.1,0.7,1.5,2.1,0.8,3.2C195.5,143.3,194.7,143.8,193.9,143.8L193.9,143.8z"/>
<path class="st0" d="M193.9,180.2c-1.3,0-2.4-1.1-2.4-2.3v-36.5c0-1.3,1.1-2.3,2.4-2.3s2.3,1.1,2.3,2.3v36.5
	C196.3,179.2,195.2,180.2,193.9,180.2L193.9,180.2z"/>
<path class="st0" d="M202.8,175c-1.3,0-2.3-1.1-2.3-2.4v-36.4c0-1.3,1.1-2.3,2.3-2.3c1.3,0,2.4,1.1,2.4,2.3v36.4
	C205.2,174,204.1,175,202.8,175L202.8,175z"/>
<path class="st0" d="M211.8,133.5c-0.4,0-0.8-0.1-1.2-0.3l-15.4-9c-1.1-0.7-1.5-2.1-0.8-3.2c0.7-1.1,2.1-1.5,3.2-0.8l15.4,9
	c1.1,0.7,1.5,2.1,0.8,3.2C213.4,133.1,212.6,133.5,211.8,133.5L211.8,133.5z"/>
<path class="st0" d="M211.8,169.9c-1.3,0-2.4-1.1-2.4-2.4v-36.5c0-1.3,1.1-2.4,2.4-2.4c1.3,0,2.3,1.1,2.3,2.4v36.5
	C214.1,168.9,213.1,169.9,211.8,169.9L211.8,169.9z"/>
<path class="st0" d="M220.7,164.7c-1.3,0-2.3-1.1-2.3-2.3v-36.4c0-1.3,1.1-2.3,2.3-2.3c1.3,0,2.4,1.1,2.4,2.3v36.4
	C223.1,163.7,222,164.7,220.7,164.7L220.7,164.7z"/>
<path class="st0" d="M169.6,103.8c-0.4,0-0.8-0.1-1.2-0.3l-31-17.9c-1.1-0.7-1.5-2.1-0.9-3.2c0.7-1.1,2.1-1.5,3.2-0.9l31,17.9
	c1.1,0.6,1.5,2.1,0.9,3.2C171.2,103.3,170.4,103.8,169.6,103.8L169.6,103.8z"/>
<path class="st0" d="M169.6,140.2c-1.3,0-2.4-1.1-2.4-2.4v-36.5c0-1.3,1.1-2.4,2.4-2.4c1.3,0,2.3,1.1,2.3,2.4v36.5
	C172,139.2,170.9,140.2,169.6,140.2L169.6,140.2z"/>
<path class="st0" d="M178.6,98.3c-0.4,0-0.8-0.1-1.2-0.3l-31-17.9c-1.1-0.7-1.5-2.1-0.9-3.2c0.7-1.1,2.1-1.5,3.2-0.9l31,17.9
	c1.1,0.7,1.5,2.1,0.9,3.2C180.2,97.9,179.4,98.3,178.6,98.3L178.6,98.3z"/>
<path class="st0" d="M178.6,134.7c-1.3,0-2.4-1.1-2.4-2.4V96c0-1.3,1.1-2.3,2.4-2.3c1.3,0,2.3,1.1,2.3,2.3v36.4
	C180.9,133.7,179.9,134.7,178.6,134.7L178.6,134.7z"/>
<path class="st0" d="M187.5,93.1c-0.4,0-0.8-0.1-1.2-0.3l-31-17.9c-1.1-0.7-1.5-2.1-0.9-3.2c0.7-1.1,2.1-1.5,3.2-0.9l31,17.9
	c1.1,0.6,1.5,2.1,0.9,3.2C189.1,92.7,188.3,93.1,187.5,93.1L187.5,93.1z"/>
<path class="st0" d="M187.5,129.6c-1.3,0-2.4-1.1-2.4-2.4V90.8c0-1.3,1.1-2.4,2.4-2.4c1.3,0,2.3,1.1,2.3,2.4v36.5
	C189.8,128.6,188.8,129.6,187.5,129.6L187.5,129.6z"/>
<path class="st0" d="M196.4,88c-0.4,0-0.8-0.1-1.2-0.3l-31-17.9c-1.1-0.7-1.5-2.1-0.9-3.2c0.6-1.1,2.1-1.5,3.2-0.9l31,17.9
	c1.1,0.7,1.5,2.1,0.9,3.2C198,87.6,197.2,88,196.4,88L196.4,88z"/>
<path class="st0" d="M196.4,124.4c-1.3,0-2.3-1.1-2.3-2.3V85.6c0-1.3,1.1-2.3,2.3-2.3c1.3,0,2.4,1.1,2.4,2.3v36.4
	C198.8,123.4,197.7,124.4,196.4,124.4L196.4,124.4z"/>
<path class="st0" d="M205.1,82.8c-0.4,0-0.8-0.1-1.2-0.3l-31-17.9c-1.1-0.6-1.5-2.1-0.9-3.2c0.6-1.1,2.1-1.5,3.2-0.9l31,17.9
	c1.1,0.6,1.5,2.1,0.9,3.2C206.7,82.4,205.9,82.8,205.1,82.8L205.1,82.8z"/>
<path class="st0" d="M205.1,119.3c-1.3,0-2.3-1.1-2.3-2.3V80.5c0-1.3,1.1-2.3,2.3-2.3s2.4,1.1,2.4,2.3V117
	C207.4,118.3,206.4,119.3,205.1,119.3L205.1,119.3z"/>
<path class="st0" d="M174,191.8c-0.4,0-0.8-0.1-1.1-0.3l-31-17.9c-0.7-0.4-1.2-1.2-1.2-2V135c0-1.3,1.1-2.3,2.4-2.3s2.4,1.1,2.4,2.3
	v35.1l28.5,16.5c0.1-0.7,0.5-1.4,1.1-1.8l5.6-3.3c0.7-0.4,1.5-0.4,2.2-0.1c0.1-0.7,0.5-1.4,1.2-1.8l5.6-3.2c0.7-0.4,1.5-0.4,2.2-0.1
	c0.1-0.7,0.5-1.4,1.1-1.8l5.6-3.3c0.7-0.4,1.5-0.4,2.2-0.1c0.1-0.7,0.5-1.3,1.1-1.7l5.6-3.3c0.6-0.4,1.3-0.4,2-0.2
	c0.1-0.7,0.5-1.3,1.2-1.7l5.9-3.3c0.6-0.3,1.3-0.4,1.9-0.2c0.1-0.7,0.5-1.3,1.1-1.6l5.6-3.3c0.7-0.4,1.5-0.4,2.2-0.1v-33.6
	l-14.5-8.3c-1.1-0.6-1.5-2.1-0.9-3.2c0.6-1.1,2.1-1.5,3.2-0.9l15.6,9c0.7,0.4,1.2,1.2,1.2,2v36.5c0,0.9-0.5,1.7-1.3,2.1l-2.2,1.2
	c-0.7,0.4-1.5,0.4-2.1,0l-3.3,1.9c0,0.7-0.4,1.4-1.1,1.8l-2,1.3c-0.7,0.5-1.7,0.5-2.4,0.1l-3.5,2c0,0.8-0.4,1.5-1.1,1.9l-2,1.3
	c-0.7,0.5-1.6,0.5-2.4,0.1l-3.2,1.9c0,0.9-0.5,1.6-1.3,2L202,176c-0.7,0.4-1.5,0.4-2.2,0l-3.2,1.9c0,0.8-0.5,1.5-1.2,2l-2.2,1.3
	c-0.7,0.4-1.6,0.4-2.3,0l-3.2,1.9c0,0.8-0.5,1.6-1.2,2l-2.2,1.2c-0.7,0.4-1.5,0.4-2.2,0l-3.3,1.9c0,0.8-0.5,1.6-1.2,2l-2,1.1
	c-0.1,0.1-0.1,0.1-0.2,0.1C174.9,191.6,174.5,191.8,174,191.8L174,191.8z"/>
<path class="st0" d="M174.1,191.7c-0.4,0-0.8-0.1-1.2-0.3c-0.7-0.4-1.2-1.2-1.2-2v-36.4c0-0.8,0.4-1.5,1.1-2l2-1.3
	c0.7-0.5,1.6-0.5,2.3-0.2l0.3,0.1l3.3-1.9c0-0.9,0.5-1.6,1.2-2.1l2.2-1.2c0.7-0.4,1.6-0.4,2.3,0l3.2-1.9c0-0.8,0.4-1.5,1.1-2l2-1.3
	c0.7-0.5,1.7-0.5,2.5,0l3.4-1.9c0-0.8,0.4-1.4,1.1-1.9l2-1.3c0.7-0.5,1.7-0.5,2.4-0.1l3.5-1.9c0-0.8,0.4-1.6,1.1-2l2-1.2
	c0.7-0.4,1.6-0.4,2.3-0.1l3.2-1.9c0-0.8,0.5-1.6,1.2-2l2.2-1.3c0.7-0.4,1.6-0.4,2.3,0l3.2-1.9c0-0.8,0.5-1.6,1.2-2l2.2-1.3
	c0.7-0.4,1.6-0.4,2.3,0c0.7,0.4,1.2,1.2,1.2,2v36.4c0,0.9-0.5,1.6-1.2,2.1l-2.2,1.3c-0.7,0.4-1.6,0.4-2.3,0l-3.2,1.9
	c0,0.8-0.4,1.4-1.1,1.9l-2,1.3c-0.7,0.5-1.7,0.5-2.5,0.1l-3.5,1.9c0,0.8-0.4,1.5-1.1,2l-2,1.2c-0.7,0.4-1.6,0.5-2.4,0.1l-3.5,2.1
	l-0.1,0.3c-0.1,0.6-0.5,1.1-1,1.5l-2,1.3c-0.7,0.5-1.6,0.5-2.4,0.1l-3.5,2.1l-0.1,0.3c-0.1,0.6-0.5,1.2-1.1,1.5l-2,1.2
	c-0.7,0.4-1.6,0.5-2.3,0.1l-3.2,1.9c0,0.8-0.5,1.6-1.2,2l-2.2,1.2c-0.7,0.4-1.5,0.4-2.2,0l-3.2,1.9c0,0.8-0.5,1.5-1.2,1.9l-2.2,1.3
	C174.9,191.6,174.5,191.7,174.1,191.7L174.1,191.7z M176.4,154.4V184l4.3-2.5c0.7-0.4,1.5-0.4,2.2-0.1c0.1-0.7,0.5-1.4,1.1-1.8
	l5.6-3.3c0.7-0.4,1.5-0.4,2.2-0.1l0-0.2c0.1-0.6,0.5-1.2,1.1-1.5l5.6-3.3c0.7-0.4,1.5-0.4,2.2-0.1l0.1-0.2c0.1-0.6,0.5-1.2,1.1-1.5
	l5.6-3.3c0.6-0.4,1.3-0.4,1.9-0.2c0.1-0.7,0.5-1.3,1.2-1.7l5.9-3.2c0.6-0.3,1.3-0.4,1.9-0.2c0.1-0.7,0.5-1.3,1.1-1.6l5.6-3.4
	c0.7-0.4,1.5-0.4,2.2-0.1v-29.6l-4.3,2.5c-0.7,0.4-1.5,0.4-2.2,0.1c-0.1,0.7-0.5,1.4-1.1,1.8l-5.6,3.3c-0.6,0.4-1.3,0.4-2,0.2
	c-0.1,0.7-0.5,1.3-1.2,1.7l-5.9,3.3c-0.6,0.3-1.3,0.4-1.9,0.2c-0.1,0.7-0.5,1.3-1.2,1.7l-5.9,3.3c-0.6,0.3-1.3,0.4-1.9,0.2
	c-0.1,0.7-0.5,1.3-1.1,1.7l-5.6,3.2c-0.7,0.4-1.5,0.4-2.2,0.1c-0.1,0.7-0.5,1.4-1.2,1.8l-5.6,3.2
	C177.9,154.7,177.1,154.8,176.4,154.4L176.4,154.4z"/>
<path class="st0" d="M174.1,155.3c-0.8,0-1.5-0.4-2-1.1c-0.7-1.1-0.4-2.5,0.7-3.3l2-1.3c0.7-0.5,1.6-0.5,2.3-0.2l0.3,0.1l3.3-1.9
	c0-0.9,0.5-1.6,1.2-2.1l2.2-1.2c0.7-0.4,1.5-0.4,2.2,0l3.2-1.9c0-0.8,0.4-1.5,1.1-1.9l2-1.3c0.7-0.5,1.7-0.5,2.4-0.1l3.5-1.9
	c0-0.8,0.4-1.5,1.1-1.9l1.9-1.2c0.7-0.4,1.6-0.5,2.4-0.1l3.5-2c0-0.8,0.4-1.5,1.1-1.9l2-1.2c0.7-0.5,1.6-0.5,2.4-0.1l3.2-1.9
	c0-0.9,0.5-1.7,1.2-2.1l2.2-1.2c0.7-0.4,1.5-0.4,2.2,0l3.2-1.9c0-0.8,0.5-1.6,1.2-2l2.2-1.3c1.1-0.6,2.6-0.2,3.2,0.9
	c0.6,1.1,0.2,2.6-0.9,3.2l-1,0.6c0,0.8-0.5,1.5-1.1,1.9l-5.6,3.3c-0.7,0.4-1.5,0.4-2.2,0.1c-0.1,0.7-0.5,1.4-1.2,1.8l-5.6,3.2
	c-0.6,0.3-1.3,0.4-1.9,0.2c-0.1,0.7-0.5,1.3-1.2,1.7l-5.9,3.3c-0.6,0.3-1.3,0.4-1.9,0.2c-0.1,0.7-0.5,1.3-1.2,1.7l-5.9,3.3
	c-0.6,0.3-1.3,0.4-1.9,0.2c-0.1,0.7-0.5,1.3-1.1,1.6l-5.6,3.3c-0.7,0.4-1.5,0.4-2.2,0.1c-0.1,0.7-0.5,1.4-1.2,1.8l-5.6,3.2
	c-0.7,0.4-1.5,0.4-2.2,0.1l-0.2-0.1l-0.8,0.6C175,155.1,174.5,155.3,174.1,155.3L174.1,155.3z"/>
<path class="st0" d="M158.7,146.3c-0.4,0-0.8-0.1-1.2-0.3l-31-17.9c-0.7-0.4-1.2-1.2-1.2-2l-0.3-36.4c0-0.9,0.4-1.6,1.2-2.1l2.2-1.3
	c0.7-0.4,1.6-0.4,2.3,0l3.2-1.9c0-0.9,0.5-1.7,1.3-2.1l2.2-1.2c0.7-0.4,1.5-0.4,2.2,0l3.3-1.9c0-0.8,0.5-1.6,1.2-2l2.2-1.3
	c0.7-0.4,1.6-0.4,2.3,0l3.2-1.9c0-0.8,0.5-1.6,1.2-2l2.2-1.3c0.7-0.4,1.6-0.4,2.3,0l3.2-1.9c0-0.8,0.5-1.6,1.2-2l2.2-1.3
	c0.7-0.4,1.6-0.4,2.3,0l3.2-1.9c0-0.8,0.4-1.6,1.1-2l2-1.2c0.7-0.4,1.6-0.5,2.4,0l3.5-2c0-0.8,0.4-1.5,1.1-1.9l2-1.3
	c0.7-0.5,1.7-0.5,2.4-0.1l31,17.9c0.7,0.4,1.2,1.2,1.2,2v36.4c0,0.8-0.4,1.5-1.1,2l-2,1.3c-0.7,0.5-1.7,0.5-2.4,0.1l-3.5,1.9
	c0,0.8-0.4,1.5-1.1,1.9l-2,1.2c-0.7,0.4-1.6,0.5-2.4,0.1l-3.2,1.9c0,0.8-0.5,1.6-1.2,2l-2.2,1.3c-0.7,0.4-1.6,0.4-2.3,0l-3.2,1.9
	c0,0.8-0.5,1.6-1.2,2l-2.2,1.2c-0.7,0.4-1.5,0.4-2.2,0l-3.3,1.9c0,0.8-0.5,1.6-1.2,2l-2.2,1.3c-0.7,0.4-1.6,0.4-2.3,0l-3.2,1.9
	c0,0.8-0.4,1.5-1.1,2l-2,1.2c-0.7,0.4-1.6,0.5-2.4,0.1l-3.5,2c0,0.8-0.4,1.5-1.1,1.9l-2,1.3C159.6,146.2,159.2,146.3,158.7,146.3
	L158.7,146.3z M130.1,124.7l28.3,16.4c0.1-0.7,0.5-1.3,1.2-1.7l5.9-3.3c0.6-0.3,1.3-0.4,1.9-0.2c0.1-0.7,0.5-1.3,1.1-1.7l5.6-3.3
	c0.7-0.4,1.5-0.4,2.2-0.1c0.1-0.7,0.5-1.4,1.2-1.8l5.6-3.2c0.7-0.4,1.5-0.4,2.2-0.1c0.1-0.7,0.5-1.4,1.1-1.8l5.6-3.3
	c0.7-0.4,1.5-0.4,2.2-0.1c0.1-0.7,0.5-1.4,1.1-1.8l5.6-3.3c0.6-0.4,1.3-0.4,2-0.2c0.1-0.7,0.5-1.3,1.2-1.7l5.9-3.2
	c0.6-0.3,1.2-0.4,1.9-0.2V76.7l-28.3-16.4c-0.1,0.7-0.5,1.3-1.2,1.6l-5.9,3.3c-0.6,0.3-1.3,0.4-1.9,0.2c-0.1,0.7-0.5,1.3-1.1,1.7
	l-5.6,3.2c-0.7,0.4-1.5,0.4-2.2,0.1c-0.1,0.8-0.5,1.4-1.2,1.8l-5.6,3.3c-0.7,0.4-1.5,0.4-2.2,0.1c-0.1,0.7-0.5,1.4-1.1,1.8l-5.6,3.3
	c-0.7,0.4-1.5,0.4-2.2,0.1c-0.1,0.7-0.5,1.4-1.1,1.7l-5.6,3.3c-0.7,0.4-1.5,0.4-2.2,0.1c-0.1,0.7-0.5,1.4-1.2,1.8L132,91
	c-0.7,0.4-1.5,0.4-2.2,0.1L130.1,124.7L130.1,124.7z"/>
<path class="st0" d="M158.7,146.3c-0.4,0-0.8-0.1-1.1-0.3c-0.8-0.4-1.2-1.2-1.2-2.1l-0.3-36.5c0-0.9,0.5-1.7,1.2-2.1l2.2-1.2
	c0.7-0.4,1.5-0.4,2.2,0l3.2-1.9c0-0.8,0.5-1.6,1.2-2l2.2-1.3c0.7-0.4,1.6-0.4,2.3,0l3.2-1.9c0-0.8,0.5-1.6,1.2-2l2.2-1.3
	c0.7-0.4,1.6-0.4,2.3,0l3.2-1.9c0-0.9,0.5-1.6,1.2-2l2.2-1.2c0.7-0.4,1.5-0.4,2.2,0l3.2-1.9c0-0.8,0.5-1.6,1.2-2l2.2-1.3
	c0.7-0.4,1.6-0.4,2.3,0l3.2-1.9c0-0.8,0.4-1.6,1.1-2l2-1.2c0.7-0.4,1.6-0.5,2.3-0.1l3.5-2c0-0.8,0.4-1.5,1.1-1.9l2-1.2
	c0.7-0.4,1.6-0.5,2.4,0c0.7,0.4,1.2,1.2,1.2,2.1v36.4c0,0.8-0.4,1.5-1.1,2l-2,1.3c-0.7,0.5-1.7,0.5-2.4,0.1l-3.5,1.9
	c0,0.8-0.4,1.5-1.1,1.9l-2,1.2c-0.7,0.4-1.6,0.5-2.4,0.1l-3.2,1.9c0,0.8-0.5,1.6-1.2,2l-2.2,1.3c-0.7,0.4-1.6,0.4-2.3,0l-3.2,1.9
	c0,0.8-0.5,1.6-1.2,2l-2.2,1.2c-0.7,0.4-1.5,0.4-2.2,0l-3.3,1.9c0,0.8-0.5,1.6-1.2,2l-2.2,1.3c-0.7,0.4-1.6,0.4-2.3,0l-3.2,1.9
	c0,0.8-0.4,1.5-1.1,2l-2,1.2c-0.7,0.4-1.6,0.5-2.4,0.1l-3.5,2c0,0.8-0.4,1.5-1.1,1.9l-2,1.3C159.6,146.2,159.2,146.3,158.7,146.3
	L158.7,146.3z M160.8,109l0.2,29.5l4.4-2.4c0.6-0.3,1.3-0.4,1.9-0.2c0.1-0.7,0.5-1.3,1.1-1.7l5.6-3.3c0.7-0.4,1.5-0.4,2.2-0.1
	c0.1-0.7,0.5-1.4,1.2-1.8l5.6-3.2c0.7-0.4,1.5-0.4,2.2-0.1c0.1-0.7,0.5-1.4,1.1-1.8l5.6-3.3c0.7-0.4,1.5-0.4,2.2-0.1
	c0.1-0.7,0.5-1.4,1.1-1.8l5.6-3.3c0.6-0.4,1.3-0.4,2-0.2c0.1-0.7,0.5-1.3,1.2-1.7l5.9-3.2c0.6-0.3,1.2-0.4,1.9-0.2V80.8l-4.3,2.4
	c-0.6,0.3-1.3,0.4-1.9,0.2c-0.1,0.7-0.5,1.4-1.2,1.7l-5.6,3.2c-0.7,0.4-1.5,0.4-2.2,0.1c-0.1,0.7-0.5,1.4-1.1,1.8l-5.6,3.3
	c-0.7,0.4-1.5,0.4-2.2,0.1c-0.1,0.7-0.5,1.4-1.1,1.8l-5.6,3.3c-0.7,0.4-1.5,0.4-2.2,0.1c-0.1,0.7-0.5,1.4-1.1,1.7l-5.6,3.3
	c-0.7,0.4-1.5,0.4-2.2,0.1c-0.1,0.7-0.5,1.4-1.2,1.8l-5.6,3.2C162.3,109.3,161.5,109.4,160.8,109L160.8,109z"/>
<path class="st0" d="M158.4,109.8c-0.8,0-1.7-0.5-2.1-1.3c-0.6-1.1-0.2-2.6,1-3.2l2.2-1.2c0.7-0.4,1.5-0.4,2.2,0l3.3-1.9
	c0-0.8,0.5-1.6,1.2-2l2.2-1.3c0.7-0.4,1.6-0.4,2.3,0l3.2-1.9c0-0.9,0.5-1.6,1.2-2l2.2-1.2c0.7-0.4,1.5-0.4,2.2,0l3.2-1.9
	c0-0.8,0.5-1.6,1.2-2l2.2-1.3c0.7-0.4,1.6-0.4,2.3,0l3.2-1.9c0-0.8,0.5-1.5,1.2-1.9l2.2-1.3c0.7-0.4,1.6-0.4,2.3,0l3.2-1.9
	c0-0.8,0.4-1.5,1.1-1.9l2-1.3c0.7-0.5,1.7-0.5,2.4-0.1l3.5-1.9c0-0.8,0.4-1.5,1.1-1.9l2-1.2c1.1-0.7,2.6-0.3,3.2,0.8
	c0.7,1.1,0.3,2.6-0.8,3.2l-0.8,0.5c0,0.9-0.5,1.6-1.2,2.1l-5.9,3.3c-0.6,0.3-1.3,0.4-1.9,0.2c-0.1,0.7-0.5,1.3-1.1,1.6l-5.6,3.3
	c-0.7,0.4-1.5,0.4-2.2,0.1c-0.1,0.7-0.5,1.4-1.2,1.8l-5.6,3.2c-0.7,0.4-1.5,0.4-2.2,0.1c-0.1,0.7-0.5,1.4-1.1,1.8l-5.6,3.3
	c-0.7,0.4-1.5,0.4-2.2,0.1c-0.1,0.7-0.5,1.4-1.1,1.7l-5.6,3.3c-0.7,0.4-1.5,0.4-2.2,0.1c-0.1,0.7-0.5,1.4-1.1,1.7l-5.6,3.3
	c-0.7,0.4-1.6,0.4-2.4,0h0l-1.1,0.6C159.2,109.7,158.8,109.8,158.4,109.8L158.4,109.8z"/>
<path class="st0" d="M95.1,88c-0.2,0-0.4-0.1-0.6-0.3l-2.2-3.6c-0.2-0.3-0.1-0.7,0.2-0.9c0.3-0.2,0.7-0.1,0.9,0.2l2.2,3.6
	c0.2,0.3,0.1,0.7-0.2,0.9C95.3,88,95.2,88,95.1,88L95.1,88z"/>
<path class="st0" d="M106.2,81.6c-0.2,0-0.5-0.1-0.6-0.4l-2-3.7c-0.2-0.3,0-0.7,0.3-0.9c0.3-0.2,0.7,0,0.9,0.3l2,3.7
	c0.2,0.3,0,0.7-0.3,0.9C106.4,81.6,106.3,81.6,106.2,81.6L106.2,81.6z"/>
<path class="st0" d="M95.1,98.1c-0.2,0-0.4-0.1-0.6-0.3l-2.2-3.7c-0.2-0.3-0.1-0.7,0.2-0.9c0.3-0.2,0.7-0.1,0.9,0.2l2.2,3.7
	c0.2,0.3,0.1,0.7-0.2,0.9C95.3,98.1,95.2,98.1,95.1,98.1L95.1,98.1z"/>
<path class="st0" d="M106.2,91.6c-0.2,0-0.5-0.1-0.6-0.4l-2-3.7c-0.2-0.3,0-0.7,0.3-0.9c0.3-0.2,0.7,0,0.9,0.3l2,3.7
	c0.2,0.3,0,0.7-0.3,0.9C106.4,91.6,106.3,91.6,106.2,91.6L106.2,91.6z"/>
<path class="st0" d="M129.4,68.3c-0.2,0-0.4-0.1-0.6-0.3l-2.2-3.7c-0.2-0.3-0.1-0.7,0.2-0.9c0.3-0.2,0.7-0.1,0.9,0.2l2.2,3.7
	c0.2,0.3,0.1,0.7-0.2,0.9C129.6,68.2,129.5,68.3,129.4,68.3L129.4,68.3z"/>
<path class="st0" d="M140.6,61.7c-0.2,0-0.4-0.1-0.6-0.3l-2.2-3.6c-0.2-0.3-0.1-0.7,0.2-0.9c0.3-0.2,0.7-0.1,0.9,0.2l2.2,3.6
	c0.2,0.3,0.1,0.7-0.2,0.9C140.8,61.7,140.7,61.7,140.6,61.7L140.6,61.7z"/>
<path class="st0" d="M129.4,78.3c-0.2,0-0.5-0.1-0.6-0.4l-2-3.7c-0.2-0.3,0-0.7,0.3-0.9c0.3-0.2,0.7,0,0.9,0.3l2,3.7
	c0.2,0.3,0,0.7-0.3,0.9C129.6,78.3,129.5,78.3,129.4,78.3L129.4,78.3z"/>
<path class="st0" d="M140.6,71.7c-0.2,0-0.4-0.1-0.6-0.3l-2.2-3.5c-0.2-0.3-0.1-0.7,0.2-0.9c0.3-0.2,0.7-0.1,0.9,0.2l2.2,3.5
	c0.2,0.3,0.1,0.7-0.2,0.9C140.8,71.6,140.7,71.7,140.6,71.7L140.6,71.7z"/>
<path class="st0" d="M272.1,260.1c-0.2,0-0.5-0.1-0.6-0.3c-0.2-0.3-0.1-0.7,0.2-0.9l24.9-14.3c0.3-0.2,0.7-0.1,0.9,0.2
	c0.2,0.3,0.1,0.7-0.2,0.9L272.4,260C272.3,260.1,272.2,260.1,272.1,260.1L272.1,260.1z"/>
<path class="st0" d="M242.5,262.4c-0.2,0-0.5-0.1-0.6-0.3c-0.2-0.3-0.1-0.7,0.2-0.9l27.6-16c0.3-0.2,0.7-0.1,0.9,0.2
	c0.2,0.3,0.1,0.7-0.2,0.9l-27.6,16C242.7,262.3,242.6,262.4,242.5,262.4L242.5,262.4z"/>
<path class="st0" d="M212.9,264.6c-0.2,0-0.5-0.1-0.6-0.3c-0.2-0.3-0.1-0.7,0.2-0.9l30.4-17.6c0.3-0.2,0.7-0.1,0.9,0.2
	c0.2,0.3,0.1,0.7-0.2,0.9l-30.4,17.6C213.1,264.6,213,264.6,212.9,264.6L212.9,264.6z"/>
<path class="st0" d="M198.9,257.7c-0.2,0-0.5-0.1-0.6-0.3c-0.2-0.3-0.1-0.7,0.2-0.9l17-9.8c0.3-0.2,0.7-0.1,0.9,0.2
	c0.2,0.3,0.1,0.7-0.2,0.9l-17,9.8C199.2,257.7,199.1,257.7,198.9,257.7L198.9,257.7z"/>
<path class="st0" d="M193.4,262.8c-0.2,0-0.5-0.1-0.6-0.3c-0.2-0.3-0.1-0.7,0.3-0.9l1.4-0.8c0.3-0.2,0.7-0.1,0.9,0.3
	c0.2,0.3,0.1,0.7-0.3,0.9l-1.4,0.8C193.6,262.8,193.5,262.8,193.4,262.8L193.4,262.8z"/>
<path class="st0" d="M180,255.7c-0.2,0-0.5-0.1-0.6-0.3c-0.2-0.3-0.1-0.7,0.2-0.9l14.8-8.6c0.3-0.2,0.7-0.1,0.9,0.2
	c0.2,0.3,0.1,0.7-0.2,0.9l-14.8,8.6C180.2,255.6,180.1,255.7,180,255.7L180,255.7z"/>
<path class="st0" d="M167.1,248.2c-0.2,0-0.5-0.1-0.6-0.3c-0.2-0.3-0.1-0.7,0.2-0.9l14.8-8.5c0.3-0.2,0.7-0.1,0.9,0.2
	c0.2,0.3,0.1,0.7-0.2,0.9l-14.8,8.5C167.3,248.1,167.2,248.2,167.1,248.2L167.1,248.2z"/>
<path class="st0" d="M154.3,240.7c-0.2,0-0.5-0.1-0.6-0.3c-0.2-0.3-0.1-0.7,0.2-0.9l14.8-8.6c0.3-0.2,0.7-0.1,0.9,0.2
	c0.2,0.3,0.1,0.7-0.2,0.9l-14.8,8.6C154.5,240.7,154.4,240.7,154.3,240.7L154.3,240.7z"/>
<path class="st0" d="M141.4,233.3c-0.2,0-0.5-0.1-0.6-0.3c-0.2-0.3-0.1-0.7,0.2-0.9l14.8-8.6c0.3-0.2,0.7-0.1,0.9,0.2
	c0.2,0.3,0.1,0.7-0.2,0.9l-14.8,8.6C141.6,233.3,141.5,233.3,141.4,233.3L141.4,233.3z"/>
<path class="st0" d="M128.3,225.9c-0.2,0-0.5-0.1-0.6-0.3c-0.2-0.3-0.1-0.7,0.2-0.9L143,216c0.3-0.2,0.7-0.1,0.9,0.2
	c0.2,0.3,0.1,0.7-0.2,0.9l-15.1,8.6C128.5,225.8,128.4,225.9,128.3,225.9L128.3,225.9z"/>
<path class="st0" d="M115.4,218.4c-0.2,0-0.5-0.1-0.6-0.3c-0.2-0.3-0.1-0.7,0.2-0.9l15.1-8.6c0.3-0.2,0.7-0.1,0.9,0.2
	c0.2,0.3,0.1,0.7-0.2,0.9l-15.1,8.6C115.7,218.3,115.6,218.4,115.4,218.4L115.4,218.4z"/>
<path class="st0" d="M102.6,210.9c-0.2,0-0.5-0.1-0.6-0.3c-0.2-0.3-0.1-0.7,0.2-0.9l15.1-8.6c0.3-0.2,0.7-0.1,0.9,0.2
	c0.2,0.3,0.1,0.7-0.2,0.9l-15.1,8.6C102.8,210.9,102.7,210.9,102.6,210.9L102.6,210.9z"/>
<path class="st0" d="M89.8,203.5c-0.2,0-0.5-0.1-0.6-0.3c-0.2-0.3-0.1-0.7,0.2-0.9l15.1-8.7c0.3-0.2,0.7-0.1,0.9,0.2
	c0.2,0.3,0.1,0.7-0.2,0.9l-15.1,8.7C90,203.5,89.9,203.5,89.8,203.5L89.8,203.5z"/>
<path class="st0" d="M76.9,196.1c-0.2,0-0.5-0.1-0.6-0.3c-0.2-0.3-0.1-0.7,0.2-0.9l15.1-8.7c0.3-0.2,0.7-0.1,0.9,0.2
	c0.2,0.3,0.1,0.7-0.2,0.9L77.2,196C77.1,196,77,196.1,76.9,196.1L76.9,196.1z"/>
<path class="st0" d="M64.1,188.6c-0.2,0-0.5-0.1-0.6-0.3c-0.2-0.3-0.1-0.7,0.2-0.9l15.1-8.8c0.3-0.2,0.7-0.1,0.9,0.2
	c0.2,0.3,0.1,0.7-0.2,0.9l-15.1,8.8C64.3,188.6,64.2,188.6,64.1,188.6L64.1,188.6z"/>
<path class="st0" d="M50.9,181.1c-0.2,0-0.5-0.1-0.6-0.3c-0.2-0.3-0.1-0.7,0.3-0.9l15.4-8.8c0.3-0.2,0.7-0.1,0.9,0.2
	c0.2,0.3,0.1,0.7-0.2,0.9L51.3,181C51.2,181.1,51.1,181.1,50.9,181.1L50.9,181.1z"/>
<path class="st0" d="M38.1,173.7c-0.2,0-0.5-0.1-0.6-0.3c-0.2-0.3-0.1-0.7,0.2-0.9l15.1-8.8c0.3-0.2,0.7-0.1,0.9,0.2
	c0.2,0.3,0.1,0.7-0.2,0.9l-15.1,8.8C38.3,173.7,38.2,173.7,38.1,173.7L38.1,173.7z"/>
<path class="st0" d="M25.3,166.3c-0.2,0-0.5-0.1-0.6-0.3c-0.2-0.3-0.1-0.7,0.2-0.9l15.4-8.9c0.3-0.2,0.7-0.1,0.9,0.2
	c0.2,0.3,0.1,0.7-0.2,0.9l-15.4,8.9C25.5,166.2,25.4,166.3,25.3,166.3L25.3,166.3z"/>
<path class="st0" d="M12.7,158.6c-0.2,0-0.5-0.1-0.6-0.3c-0.2-0.3-0.1-0.7,0.2-0.9l14.8-8.6c0.3-0.2,0.7-0.1,0.9,0.2
	c0.2,0.3,0.1,0.7-0.2,0.9L13,158.5C12.9,158.5,12.8,158.6,12.7,158.6L12.7,158.6z"/>
<path class="st0" d="M10.7,144.7c-0.2,0-0.5-0.1-0.6-0.3c-0.2-0.3-0.1-0.7,0.3-0.9l3.6-2c0.3-0.2,0.7-0.1,0.9,0.3
	c0.2,0.3,0.1,0.7-0.3,0.9l-3.6,2C10.9,144.7,10.8,144.7,10.7,144.7L10.7,144.7z"/>
<path class="st0" d="M180.5,234.6c-0.2,0-0.5-0.1-0.6-0.3c-0.2-0.3-0.1-0.7,0.2-0.9l14.5-8.4c0.3-0.2,0.7-0.1,0.9,0.2
	c0.2,0.3,0.1,0.7-0.2,0.9l-14.5,8.4C180.7,234.5,180.6,234.6,180.5,234.6L180.5,234.6z"/>
<path class="st0" d="M178.3,206.1c-0.2,0-0.5-0.1-0.6-0.3c-0.2-0.3-0.1-0.7,0.2-0.9l3.4-1.9c0.3-0.2,0.7-0.1,0.9,0.2
	c0.2,0.3,0.1,0.7-0.2,0.9l-3.4,1.9C178.5,206.1,178.4,206.1,178.3,206.1L178.3,206.1z"/>
<path class="st0" d="M154.8,219.6c-0.2,0-0.5-0.1-0.6-0.3c-0.2-0.3-0.1-0.7,0.2-0.9l15.6-9.1c0.3-0.2,0.7-0.1,0.9,0.2
	c0.2,0.3,0.1,0.7-0.2,0.9l-15.6,9.1C155,219.6,154.9,219.6,154.8,219.6L154.8,219.6z"/>
<path class="st0" d="M129.1,204.7c-0.2,0-0.5-0.1-0.6-0.3c-0.2-0.3-0.1-0.7,0.2-0.9l15.6-9.1c0.3-0.2,0.7-0.1,0.9,0.2
	c0.2,0.3,0.1,0.7-0.2,0.9l-15.6,9.1C129.4,204.7,129.2,204.7,129.1,204.7L129.1,204.7z"/>
<path class="st0" d="M103.4,189.7c-0.2,0-0.5-0.1-0.6-0.3c-0.2-0.3-0.1-0.7,0.2-0.9l15.4-9c0.3-0.2,0.7-0.1,0.9,0.2
	c0.2,0.3,0.1,0.7-0.2,0.9l-15.4,9C103.7,189.7,103.6,189.7,103.4,189.7L103.4,189.7z"/>
<path class="st0" d="M77.5,174.7c-0.2,0-0.5-0.1-0.6-0.3c-0.2-0.3-0.1-0.7,0.2-0.9l15.6-9c0.3-0.2,0.7-0.1,0.9,0.2
	c0.2,0.3,0.1,0.7-0.2,0.9l-15.6,9C77.7,174.7,77.6,174.7,77.5,174.7L77.5,174.7z"/>
<path class="st0" d="M51.8,159.8c-0.2,0-0.5-0.1-0.6-0.3c-0.2-0.3-0.1-0.7,0.2-0.9l15.4-8.9c0.3-0.2,0.7-0.1,0.9,0.2
	c0.2,0.3,0.1,0.7-0.2,0.9l-15.4,8.9C52,159.8,51.9,159.8,51.8,159.8L51.8,159.8z"/>
<path class="st0" d="M26.1,144.9c-0.2,0-0.5-0.1-0.6-0.3c-0.2-0.3-0.1-0.7,0.2-0.9l15.4-8.9c0.3-0.2,0.7-0.1,0.9,0.2
	c0.2,0.3,0.1,0.7-0.2,0.9l-15.4,8.9C26.3,144.8,26.2,144.9,26.1,144.9L26.1,144.9z"/>
<path class="st0" d="M7.1,126c-0.2,0-0.5-0.1-0.6-0.3c-0.2-0.3-0.1-0.7,0.2-0.9l8.4-4.8c0.3-0.2,0.7-0.1,0.9,0.3
	c0.2,0.3,0.1,0.7-0.2,0.9l-8.4,4.8C7.3,126,7.2,126,7.1,126L7.1,126z"/>
<path class="st0" d="M46.2,125.3c-0.2,0-0.5-0.1-0.6-0.3c-0.2-0.3-0.1-0.7,0.2-0.9L73,108.5c0.3-0.2,0.7-0.1,0.9,0.2
	c0.2,0.3,0.1,0.7-0.2,0.9l-27.1,15.6C46.4,125.3,46.3,125.3,46.2,125.3L46.2,125.3z"/>
<path class="st0" d="M65.5,84.3c-0.2,0-0.5-0.1-0.6-0.3c-0.2-0.3-0.1-0.7,0.2-0.9l2.8-1.6c0.3-0.2,0.7-0.1,0.9,0.2
	c0.2,0.3,0.1,0.7-0.2,0.9l-2.8,1.6C65.7,84.3,65.6,84.3,65.5,84.3L65.5,84.3z"/>
<path class="st0" d="M36.1,101.3c-0.2,0-0.5-0.1-0.6-0.3c-0.2-0.3-0.1-0.7,0.3-0.9l7.5-4.2c0.3-0.2,0.7-0.1,0.9,0.3
	c0.2,0.3,0.1,0.7-0.3,0.9l-7.5,4.2C36.4,101.2,36.3,101.3,36.1,101.3L36.1,101.3z"/>
<path class="st0" d="M36.1,71.4c-0.2,0-0.5-0.1-0.6-0.3c-0.2-0.3-0.1-0.7,0.3-0.9l6.4-3.6c0.3-0.2,0.7-0.1,0.9,0.3
	c0.2,0.3,0.1,0.7-0.3,0.9l-6.4,3.6C36.4,71.4,36.3,71.4,36.1,71.4L36.1,71.4z"/>
<path class="st0" d="M75.5,80.2c-0.2,0-0.5-0.1-0.6-0.3L56.3,47.4c-0.2-0.3-0.1-0.7,0.2-0.9c0.3-0.2,0.7-0.1,0.9,0.2l18.7,32.5
	c0.2,0.3,0.1,0.7-0.2,0.9C75.7,80.2,75.6,80.2,75.5,80.2L75.5,80.2z"/>
<path class="st0" d="M99.1,69.6c-0.2,0-0.5-0.1-0.6-0.3l-8.5-15c-0.2-0.3-0.1-0.7,0.3-0.9c0.3-0.2,0.7-0.1,0.9,0.2l8.5,15
	c0.2,0.3,0.1,0.7-0.2,0.9C99.4,69.6,99.3,69.6,99.1,69.6L99.1,69.6z"/>
<path class="st0" d="M120.2,54.4c-0.2,0-0.5-0.1-0.6-0.3l-18.8-32.6c-0.2-0.3-0.1-0.7,0.2-0.9c0.3-0.2,0.7-0.1,0.9,0.2l18.8,32.6
	c0.2,0.3,0.1,0.7-0.2,0.9C120.4,54.4,120.3,54.4,120.2,54.4L120.2,54.4z"/>
<path class="st0" d="M158.7,178.9c-0.2,0-0.5-0.1-0.6-0.3c-0.2-0.3-0.1-0.7,0.2-0.9l13.4-7.8c0.3-0.2,0.7-0.1,0.9,0.2
	c0.2,0.3,0.1,0.7-0.2,0.9l-13.4,7.8C159,178.8,158.8,178.9,158.7,178.9L158.7,178.9z"/>
<path class="st0" d="M145.3,171.7c-0.2,0-0.5-0.1-0.6-0.3c-0.2-0.3-0.1-0.7,0.2-0.9l27.4-15.7c0.3-0.2,0.7-0.1,0.9,0.2
	c0.2,0.3,0.1,0.7-0.2,0.9l-27.4,15.7C145.5,171.7,145.4,171.7,145.3,171.7L145.3,171.7z"/>
<path class="st0" d="M145,157c-0.2,0-0.5-0.1-0.6-0.3c-0.2-0.3-0.1-0.7,0.2-0.9l15.6-9.1c0.3-0.2,0.7-0.1,0.9,0.2
	c0.2,0.3,0.1,0.7-0.2,0.9l-15.6,9.1C145.3,157,145.2,157,145,157L145,157z"/>
<path class="st0" d="M145.3,141.9c-0.2,0-0.5-0.1-0.6-0.3c-0.2-0.3-0.1-0.7,0.2-0.9l2-1.1c0.3-0.2,0.7-0.1,0.9,0.2
	c0.2,0.3,0.1,0.7-0.2,0.9l-1.9,1.1C145.5,141.9,145.4,141.9,145.3,141.9L145.3,141.9z"/>
<path class="st0" d="M143.4,133.5c-0.2,0-0.5-0.1-0.6-0.3c-0.2-0.3-0.1-0.7,0.2-0.9l13.4-7.7c0.3-0.2,0.7-0.1,0.9,0.2
	c0.2,0.3,0.1,0.7-0.2,0.9l-13.4,7.7C143.6,133.5,143.5,133.5,143.4,133.5L143.4,133.5z"/>
<path class="st0" d="M130,126.3c-0.2,0-0.5-0.1-0.6-0.3c-0.2-0.3-0.1-0.7,0.2-0.9l27.1-15.7c0.3-0.2,0.7-0.1,0.9,0.2
	c0.2,0.3,0.1,0.7-0.2,0.9l-27.1,15.7C130.2,126.3,130.1,126.3,130,126.3L130,126.3z"/>
<path class="st0" d="M129.4,111.7c-0.2,0-0.5-0.1-0.6-0.3c-0.2-0.3-0.1-0.7,0.2-0.9l15.9-9.1c0.3-0.2,0.7-0.1,0.9,0.2
	c0.2,0.3,0.1,0.7-0.2,0.9l-15.9,9.1C129.6,111.7,129.5,111.7,129.4,111.7L129.4,111.7z"/>
<path class="st0" d="M130,96.6c-0.2,0-0.4-0.1-0.6-0.3c-0.2-0.3-0.1-0.7,0.2-0.9l2-1.3c0.3-0.2,0.7-0.1,0.9,0.2
	c0.2,0.3,0.1,0.7-0.2,0.9l-2,1.3C130.2,96.6,130.1,96.6,130,96.6L130,96.6z"/>
<path class="st0" d="M127.7,161.1c-0.2,0-0.5-0.1-0.6-0.3c-0.2-0.3-0.1-0.7,0.2-0.9l13.7-7.8c0.3-0.2,0.7-0.1,0.9,0.3
	c0.2,0.3,0.1,0.7-0.2,0.9l-13.7,7.8C128,161,127.8,161.1,127.7,161.1L127.7,161.1z"/>
<path class="st0" d="M114.6,153.9c-0.2,0-0.5-0.1-0.6-0.3c-0.2-0.3-0.1-0.7,0.2-0.9l27.1-15.7c0.3-0.2,0.7-0.1,0.9,0.2
	c0.2,0.3,0.1,0.7-0.2,0.9l-27.1,15.7C114.8,153.9,114.7,153.9,114.6,153.9L114.6,153.9z"/>
<path class="st0" d="M113.8,139.4c-0.2,0-0.5-0.1-0.6-0.3c-0.2-0.3-0.1-0.7,0.3-0.9l16.2-9.2c0.3-0.2,0.7-0.1,0.9,0.2
	c0.2,0.3,0.1,0.7-0.2,0.9l-16.2,9.2C114,139.3,113.9,139.4,113.8,139.4L113.8,139.4z"/>
<path class="st0" d="M114.3,124.2c-0.2,0-0.5-0.1-0.6-0.3c-0.2-0.3-0.1-0.7,0.3-0.9l2.2-1.3c0.3-0.2,0.7-0.1,0.9,0.3
	c0.2,0.3,0.1,0.7-0.3,0.9l-2.2,1.3C114.6,124.1,114.4,124.2,114.3,124.2L114.3,124.2z"/>
<path class="st0" d="M264.8,151.2c-0.2,0-0.5-0.1-0.6-0.3c-0.2-0.3-0.1-0.7,0.3-0.9l6.4-3.6c0.3-0.2,0.7-0.1,0.9,0.3
	c0.2,0.3,0.1,0.7-0.3,0.9l-6.4,3.6C265.1,151.2,265,151.2,264.8,151.2L264.8,151.2z"/>
<path class="st0" d="M252,143.8c-0.2,0-0.5-0.1-0.6-0.3c-0.2-0.3-0.1-0.7,0.2-0.9l6.4-3.7c0.3-0.2,0.7-0.1,0.9,0.2
	c0.2,0.3,0.1,0.7-0.2,0.9l-6.4,3.7C252.2,143.8,252.1,143.8,252,143.8L252,143.8z"/>
<path class="st0" d="M239.2,136.4c-0.2,0-0.4-0.1-0.6-0.3c-0.2-0.3-0.1-0.7,0.2-0.9l6.1-3.7c0.3-0.2,0.7-0.1,0.9,0.2
	c0.2,0.3,0.1,0.7-0.2,0.9l-6.1,3.7C239.4,136.4,239.3,136.4,239.2,136.4L239.2,136.4z"/>
<path class="st0" d="M231.9,125.6c-0.2,0-0.5-0.1-0.6-0.4c-0.2-0.3,0-0.7,0.3-0.9l0.6-0.3c0.3-0.2,0.7,0,0.9,0.3
	c0.2,0.3,0,0.7-0.3,0.9l-0.6,0.3C232.1,125.6,232,125.6,231.9,125.6L231.9,125.6z"/>
<path class="st0" d="M284.4,151.5c-0.2,0-0.5-0.1-0.6-0.3c-0.2-0.3-0.1-0.7,0.2-0.9l8.4-4.8c0.3-0.2,0.7-0.1,0.9,0.2
	c0.2,0.3,0.1,0.7-0.3,0.9l-8.4,4.8C284.6,151.5,284.5,151.5,284.4,151.5L284.4,151.5z"/>
<path class="st0" d="M228.5,203.9c-0.2,0-0.5-0.1-0.6-0.3l-8.4-14.4c-0.2-0.3-0.1-0.7,0.2-0.9c0.3-0.2,0.7-0.1,0.9,0.2l8.4,14.4
	c0.2,0.3,0.1,0.7-0.2,0.9C228.8,203.9,228.7,203.9,228.5,203.9L228.5,203.9z"/>
<path class="st0" d="M259.3,205.5c-0.2,0-0.5-0.1-0.6-0.3l-5.6-9.6c-0.2-0.3-0.1-0.7,0.2-0.9c0.3-0.2,0.7-0.1,0.9,0.2l5.6,9.6
	c0.2,0.3,0.1,0.7-0.2,0.9C259.5,205.5,259.4,205.5,259.3,205.5L259.3,205.5z"/>
<path class="st0" d="M290.2,207.8c-0.2,0-0.5-0.1-0.6-0.3l-14.5-25.2c-0.2-0.3-0.1-0.7,0.2-0.9c0.3-0.2,0.7-0.1,0.9,0.2l14.5,25.2
	c0.2,0.3,0.1,0.7-0.2,0.9C290.5,207.8,290.4,207.8,290.2,207.8L290.2,207.8z"/>
<path class="st0" d="M298.9,170.8c-0.2,0-0.5-0.1-0.6-0.3l-5.3-9.1c-0.2-0.3-0.1-0.7,0.2-0.9c0.3-0.2,0.7-0.1,0.9,0.2l5.3,9.1
	c0.2,0.3,0.1,0.7-0.2,0.9C299.1,170.8,299,170.8,298.9,170.8L298.9,170.8z"/>
<path class="st0" d="M53.2,87.3c-0.2,0-0.5-0.1-0.6-0.3c-0.2-0.3-0.1-0.7,0.2-0.9l4.2-2.5c0.3-0.2,0.7-0.1,0.9,0.2
	c0.2,0.3,0.1,0.7-0.2,0.9l-4.2,2.5C53.4,87.3,53.3,87.3,53.2,87.3L53.2,87.3z"/>
<path class="st0" d="M43.7,77.8c-0.2,0-0.4-0.1-0.5-0.3c-0.2-0.3-0.1-0.7,0.2-0.9l0.6-0.4c0.3-0.2,0.7-0.1,0.9,0.2
	c0.2,0.3,0.1,0.7-0.2,0.9l-0.6,0.4C43.9,77.8,43.8,77.8,43.7,77.8L43.7,77.8z"/>
<path class="st0" d="M52.9,97.3c-0.2,0-0.5-0.1-0.6-0.3c-0.2-0.3-0.1-0.7,0.3-0.9l4.5-2.5c0.3-0.2,0.7-0.1,0.9,0.3
	c0.2,0.3,0.1,0.7-0.3,0.9l-4.5,2.5C53.1,97.3,53,97.3,52.9,97.3L52.9,97.3z"/>
<path class="st0" d="M43.7,87.8c-0.2,0-0.4-0.1-0.5-0.3c-0.2-0.3-0.1-0.7,0.2-0.9l0.6-0.4c0.3-0.2,0.7-0.1,0.9,0.2
	c0.2,0.3,0.1,0.7-0.2,0.9l-0.6,0.4C43.9,87.8,43.8,87.8,43.7,87.8L43.7,87.8z"/>
</svg>
