<?xml version="1.0" encoding="utf-8"?>
<!-- Generator: Adobe Illustrator 24.1.2, SVG Export Plug-In . SVG Version: 6.00 Build 0)  -->
<svg version="1.1" id="Camada_1" xmlns="http://www.w3.org/2000/svg" xmlns:xlink="http://www.w3.org/1999/xlink" x="0px" y="0px"
	 viewBox="0 0 595.3 304.7" style="enable-background:new 0 0 595.3 304.7;" xml:space="preserve">
<style type="text/css">
	.st0{fill:#B9242D;}
	.st1{fill:#808685;}
</style>
<g>
	<path class="st0" d="M118.4,35.6c28.2,1.2,53.1,10.2,73.7,29.7c21.1,20,32.5,44.7,33.6,73.7c2.3,64.4-48.5,109.6-102.4,111.8
		c-63,2.5-114-48-112.2-110.7c0.7-27.2,10.9-51.1,29.9-70.9C62.1,47.2,88.3,36.9,118.4,35.6z M169.3,162.1c0,0.1,0.1,0.3,0.1,0.4
		c2.1-0.6,4.3-1,6.2-2c7-3.6,9.9-10.5,8.6-17.6c-0.9-4.7-3.8-8.2-8.2-10.5c-4.3-2.2-9.1-1.9-13.6-3c-2.7-0.6-5.5-1-8-2
		c-5-1.9-9.1-5.2-12.6-9.2c-2-2.3-4-4.7-5.3-7.3c-2.7-5.4-4.1-11.3-5-17.2c-1.3-8.3-8.6-15-17.7-14c-7.5,0.8-14.7,8.8-13.7,17.1
		c0.9,7.1,5.1,11.4,11.8,13.4c3.3,1,6.7,1.5,10.1,2.2c4.6,1,9,2.5,12.7,5.6c2.6,2.2,5.2,4.4,7.5,6.9c2,2.1,3.9,4.4,5.4,7
		c3.1,5.5,4.8,11.6,6.2,17.7C155.5,156.6,162,162.1,169.3,162.1z M56,201.2c-0.5,7.5,6.2,14.3,13,15.4c6.9,1.2,12.8-2.1,16.1-8.2
		c1.8-3.4,2-7.2,2.9-10.8c0.9-3.4,1.7-6.9,3-10.1c2.3-5.6,6.6-9.7,11-13.7c2.1-1.9,4.3-3.9,6.9-5c5.5-2.3,11.1-4.2,16.8-5.8
		c4.8-1.3,8.3-3.9,10.7-8c3.3-5.8,2.7-13.2-2.9-18.3c-8.8-8-21.6-5-25.4,5.9c-1.1,3.1-1.2,6.5-1.9,9.7c-0.8,3.7-1.2,7.6-2.8,11
		c-5.2,11-14,17.8-25.9,20.4c-3.5,0.8-7,1.3-10.4,2.3C61,188.1,55.6,194.2,56,201.2z M70.4,129.3c-0.9,0.2-2.5,0.3-4,0.8
		c-8,2.4-11.7,9.6-10.3,17.4c1.4,7.6,6.1,12.4,13.7,14.2c3.1,0.8,6.2,0.5,9.1-0.6c9.1-3.7,11.8-13,8.1-21.3
		C84,133.1,78.5,129.6,70.4,129.3z M151.5,96.9c0.3,1.4,0.5,2.8,0.8,4.2c2.1,7.5,8.9,11.3,15.7,10.8c5.4-0.4,9.8-2.9,13.2-7.1
		c4-5.1,4.4-14.1,0.7-19.1c-4-5.3-10.7-7.3-17.4-5.6C157.4,82,151.4,89.5,151.5,96.9z M55.9,97c-0.1,5.8,2.2,10,6.9,12.8
		c4,2.4,8.3,2.4,12.7,1.1c7.9-2.3,13.6-11.1,12.4-19.2c-0.6-3.6-2-6.8-5-9.1c-4.3-3.3-8.9-3.8-14.1-2.5C62.2,81.8,55.4,89.5,55.9,97
		z"/>
</g>
<g>
	<path class="st0" d="M541.3,183.8c0.1-0.3,0.1-0.6,0.1-1c0-11.5,0-23.1,0-34.6c0-0.1,0-0.2,0-0.3c-0.2-1.9,0.1-1.7,1.8-1.7
		c2.8,0,5.6,0,8.3,0c1.2,0,1.3,0.1,1.3,1.3c0,5.7,0,11.4,0,17c0,12.1,0,24.1,0,36.2c0,1.9,0.4,2.1-2.1,2.1c-2.7,0-5.4-0.1-8.1,0
		c-1.3,0.1-1.9-0.5-2.5-1.5c-1.4-2.4-2.9-4.7-4.4-7c-1.6-2.5-3.1-5-4.7-7.5c-2.2-3.4-4.3-6.9-6.5-10.3c-2.5-3.9-4.9-7.9-7.4-11.8
		c-0.3-0.5-0.7-0.9-1-1.3c-0.1,0-0.2,0-0.3,0c-0.1,0.3-0.2,0.6-0.2,0.9c0,12.1,0,24.2,0,36.3c0,2.4,0,2.1-2.1,2.1
		c-2.6,0-5.2,0-7.8,0c-1.1,0-1.3-0.2-1.2-1.3c0-0.5,0-0.9,0-1.4c0-17.3,0-34.6,0-51.9c0-1.9-0.4-2,2.1-2c3.1,0,6.2,0,9.4,0
		c0.6,0,1.1,0.2,1.4,0.7c1.4,2.2,2.9,4.5,4.3,6.7c1.9,3,3.7,5.9,5.6,8.9c2.2,3.5,4.4,7,6.6,10.5c1.7,2.6,3.4,5.2,5,7.9
		c0.4,0.6,0.7,1.2,1,1.7c0.3,0.5,0.7,0.9,1,1.3C541.1,183.8,541.2,183.8,541.3,183.8z"/>
	<path class="st0" d="M360.9,174.3c0-8.7,0-17.5,0-26.2c0-1.9-0.4-2,2-2c7.7,0,15.4,0,23.1,0c3.3,0,6.5,0.4,9.6,1.6
		c4.7,1.8,8,5,9.3,9.9c1,3.7,1.1,7.5-0.2,11.1c-1,2.7-2.7,4.9-5.1,6.4c-1.3,0.8-2.6,1.4-4,2.1c-0.7,0.4-0.8,0.8-0.4,1.5
		c2,3.6,3.9,7.3,5.9,10.9c1.6,3,3.3,6.1,5,9.1c0.5,1,1.1,2,1.6,3c0.3,0.5,0.1,1-0.6,1c-3.9,0-7.7,0-11.6,0c-0.4,0-1-0.4-1.2-0.8
		c-0.9-1.5-1.6-3.1-2.4-4.7c-1.1-2.2-2.3-4.5-3.4-6.7c-1.2-2.3-2.3-4.7-3.5-7c-0.4-0.9-0.9-1.8-1.4-2.6c-0.4-0.8-1.1-1.2-2-1.2
		c-2.6,0-5.2,0-7.8,0c-0.7,0-1,0.3-1,1c0,6.7,0,13.3,0,20c0,2.2,0.1,2.1-2.1,2c-2.9,0-5.8,0-8.7,0c-0.9,0-1.2-0.2-1.2-1.1
		c0-8.9,0-17.8,0-26.7C361,174.7,361,174.5,360.9,174.3z M372.8,162.9C372.8,162.9,372.8,162.9,372.8,162.9c0,2.2,0,4.5,0,6.7
		c0,1.1,0.2,1.4,1.4,1.4c2.5,0,4.9,0.1,7.4,0c2.5-0.1,5.1-0.1,7.5-1c3.7-1.4,4.7-4,4.6-7.4c0-1-0.3-2.1-0.8-3
		c-1.3-2.7-3.7-4-6.6-4.1c-4.1-0.2-8.3-0.2-12.4-0.2c-0.9,0-1.2,0.3-1.2,1.2C372.8,158.5,372.8,160.7,372.8,162.9z"/>
	<path class="st0" d="M417.8,174.4c0-9.1,0-18.2,0-27.3c0-0.6,0.2-0.9,0.9-0.9c6.9,0,13.8-0.1,20.7,0c3.5,0,7,0.5,10.3,1.6
		c3.1,1,5.9,2.5,8.4,4.7c2.3,2,4.1,4.4,5.3,7.2c0.8,1.9,1.3,3.9,1.9,5.9c0.9,3.2,1.1,6.4,1,9.7c-0.1,2.5-0.4,5.1-0.9,7.6
		c-0.4,2.2-1,4.3-1.9,6.3c-0.8,1.8-2,3.5-3.2,5.2c-1.5,2.1-3.6,3.7-5.9,4.9c-1.6,0.8-3.3,1.6-5.1,2.1c-2,0.6-4.1,1-6.1,1.3
		c-1.4,0.2-2.9,0.2-4.3,0.2c-6.6,0-13.3,0-19.9,0c-0.8,0-1.1-0.3-1.1-1.1C417.8,192.6,417.8,183.5,417.8,174.4
		C417.8,174.4,417.8,174.4,417.8,174.4z M435.5,193.5c3.4,0.1,6.7,0,9.9-1.4c3.6-1.5,5.9-4.3,7.3-7.8c1.1-2.7,1.4-5.7,1.5-8.6
		c0.1-4.1-0.3-8.1-1.9-12c-1-2.3-2.5-4.1-4.4-5.6c-2.7-2-5.9-2.6-9.2-2.8c-2.5-0.1-5.1,0-7.7,0c-0.9,0-1.2,0.2-1.2,1.1
		c0,0.3,0,0.5,0,0.8c0,11.7,0,23.5,0,35.2c0,0.8,0.3,1.1,1.1,1C432.4,193.4,434,193.5,435.5,193.5z"/>
	<path class="st0" d="M328,146.1c2.1,0,4.2,0,6.3,0c0.8,0,1.3,0.3,1.5,1.1c0.6,2.1,1.2,4.2,1.9,6.3c0.8,2.6,1.7,5.3,2.6,7.9
		c0.4,1.3,0.8,2.7,1.2,4.1c0.3,1,0.6,2.1,0.9,3.1c1,3.2,2,6.4,3,9.6c1.2,3.6,2.3,7.3,3.5,10.9c0.9,2.8,1.7,5.6,2.6,8.4
		c0.4,1.3,0.8,2.5,1.3,3.8c0.4,1.2,0.2,1.5-1,1.5c-3.1,0-6.2,0-9.3,0c-1.3,0-1.4-0.2-1.7-1.4c-0.6-2.2-1.2-4.5-1.8-6.7
		c-0.3-1.1-0.6-2.2-1-3.3c-0.2-0.7-0.7-0.9-1.4-0.9c-5.6,0-11.2,0-16.8,0c-1.2,0-1.6,0.3-1.9,1.5c-1,3.4-2,6.7-3,10.1
		c-0.2,0.5-0.5,0.7-1,0.7c-3.2,0-6.5,0-9.7,0c-1.3,0-1.4-0.2-1-1.4c0.9-2.8,1.7-5.6,2.6-8.3c0.6-1.9,1.2-3.8,1.8-5.6
		c0.6-2,1.2-3.9,1.8-5.9c0.9-2.8,1.8-5.6,2.6-8.4c0.7-2.1,1.3-4.2,2-6.2c0.6-1.9,1.2-3.8,1.8-5.7c0.9-3,1.9-6,2.8-9
		c0.5-1.7,1.1-3.4,1.6-5.2c0.2-0.7,0.7-0.8,1.3-0.8C323.7,146.1,325.9,146.1,328,146.1C328,146.1,328,146.1,328,146.1z M328.3,157.8
		c-0.1,0-0.3,0-0.4,0.1c-0.1,0.3-0.2,0.6-0.3,0.8c-0.3,1.2-0.7,2.5-1,3.7c-0.9,2.9-1.8,5.8-2.7,8.7c-0.6,2.1-1.2,4.1-1.8,6.2
		c-0.3,1-0.6,2-0.9,2.9c-0.3,0.9-0.2,1.2,0.8,1.2c3.9,0,7.9,0,11.8,0c0.9,0,1.1-0.3,0.8-1.2c-0.6-1.9-1.1-3.8-1.6-5.7
		c-0.6-2.2-1.2-4.5-1.8-6.7c-0.7-2.3-1.3-4.7-2-7C328.9,159.8,328.6,158.8,328.3,157.8z"/>
	<path class="st0" d="M259.1,174.4c0-8.8,0-17.5,0-26.3c0-1.9,0-1.9,1.9-1.9c7.1,0,14.2,0,21.3,0c3.7,0,7.4,0.5,11,1.7
		c3.2,1.1,6,2.9,8,5.7c1.7,2.4,2.4,5.2,2.6,8.1c0.2,2.5,0,5-0.8,7.4c-0.9,2.8-2.6,5.2-5,6.9c-3.5,2.5-7.5,3.6-11.7,3.8
		c-3.9,0.2-7.9,0.1-11.8,0.2c-0.6,0-1.3,0.2-1.9,0.4c-1,0.4-1.5,1.2-1.5,2.3c0,6.4,0,12.8,0,19.2c0,0.8-0.3,1.1-1.1,1.1
		c-3.3,0-6.5,0-9.8,0c-1.2,0-1.3-0.1-1.3-1.4C259.1,192.3,259.1,183.3,259.1,174.4C259.1,174.4,259.1,174.4,259.1,174.4z
		 M271.2,162.9C271.2,162.9,271.3,162.9,271.2,162.9c0,2.2,0,4.4,0,6.6c0,1.2,0.2,1.5,1.5,1.5c3.1,0,6.3,0.1,9.4,0
		c1.4,0,2.9-0.2,4.3-0.5c1.4-0.3,2.7-1,3.7-2.1c2.1-2.1,2.1-6.4,1.2-8.8c-0.7-1.8-2.1-2.8-3.8-3.5c-1.8-0.8-3.8-0.9-5.7-1
		c-3.2-0.1-6.4,0-9.5,0c-0.8,0-1.1,0.3-1.1,1.1C271.3,158.5,271.2,160.7,271.2,162.9z"/>
	<path class="st1" d="M409.2,116.7c0.3-1,0.6-1.9,0.9-2.9c0.7-2.2,1.3-4.5,2-6.7c0.7-2.3,1.4-4.6,2.1-6.8c0.6-2.1,1.3-4.1,2-6.2
		c0.6-1.9,1.2-3.8,1.7-5.8c0.2-0.8,0.6-1.2,1.4-1.2c3.7,0,7.4,0,11.2,0c0.9,0,1.1,0.2,1.1,1.1c0,13.6,0,27.3,0,40.9
		c0,1.5,0,1.5-1.5,1.5c-1.9,0-3.8,0-5.7,0c-0.8,0-1-0.3-1-1c0-10.1,0.1-20.2,0.1-30.3c0-0.5-0.1-0.9-0.2-1.4c-0.1,0-0.1,0-0.2,0
		c-0.1,0.1-0.3,0.3-0.3,0.4c-0.6,2-1.1,4-1.7,6c-0.8,2.7-1.8,5.4-2.6,8.1c-0.4,1.3-0.8,2.7-1.2,4.1c-0.6,1.9-1.2,3.7-1.8,5.6
		c-0.4,1.3-0.8,2.7-1.2,4c-0.4,1.3-0.8,2.6-1.2,3.9c-0.2,0.5-0.5,0.8-1.1,0.8c-1.8,0-3.5,0-5.3,0c-0.7,0-1.1-0.3-1.2-0.9
		c-0.9-2.9-1.7-5.9-2.6-8.8c-0.9-2.9-1.8-5.7-2.7-8.6c-0.8-2.7-1.7-5.4-2.5-8c-0.6-1.9-1.1-3.8-1.6-5.7c-0.1-0.2-0.2-0.3-0.5-0.5
		c-0.1,0.4-0.3,0.9-0.3,1.3c0,1.4,0,2.7,0,4.1c0,8.7,0,17.5,0,26.2c0,0.6-0.2,0.9-0.9,0.9c-2.1,0-4.2,0-6.3,0
		c-0.9,0-1.1-0.2-1.1-1.1c0-1.9,0-3.7,0-5.6c0-11.3,0-22.7,0-34c0-0.6,0-1.1,0-1.7c0-0.9,0.2-1.1,1.1-1.1c3.7,0,7.3,0,11,0
		c0.8,0,1.2,0.4,1.4,1.2c0.6,2.3,1.3,4.6,2,6.8c0.7,2.3,1.3,4.5,2,6.7c0.6,2.1,1.3,4.1,1.9,6.1c0.6,2.1,1.2,4.2,1.8,6.3
		c0.2,0.8,0.6,1.6,0.9,2.4C408.9,116.8,409,116.7,409.2,116.7z"/>
	<path class="st1" d="M344.1,108.7c0-6.8,0-13.6,0-20.4c0-1,0.3-1.3,1.3-1.3c5.6,0,11.1,0,16.7,0c2.8,0,5.6,0.1,8.3,1.1
		c3.3,1.2,5.7,3.2,7,6.5c1.1,2.9,1.3,5.9,0.6,8.8c-0.6,2.5-2.1,4.5-4.4,5.9c-0.8,0.5-1.7,0.9-2.5,1.3c-0.9,0.5-1,0.8-0.5,1.7
		c0.6,1.1,1.2,2.1,1.8,3.2c1.2,2.1,2.3,4.3,3.4,6.4c1.2,2.2,2.3,4.3,3.5,6.5c0.1,0.1,0.2,0.2,0.2,0.4c0.6,1.2,0.4,1.5-0.9,1.5
		c-2.3,0-4.5-0.1-6.8,0c-1.5,0.1-2.2-0.6-2.8-1.8c-2-3.9-4-7.8-5.9-11.6c-0.5-1-1-2.1-1.6-3.1c-0.4-0.8-1.1-1.1-2-1.1
		c-1.7,0-3.3,0-5,0c-1,0-1.3,0.3-1.3,1.3c0,5,0,10,0,15c0,1-0.3,1.3-1.2,1.3c-2.2,0-4.4,0-6.6,0c-1,0-1.2-0.3-1.2-1.3
		C344.1,122.3,344.1,115.5,344.1,108.7z M353.2,99.9C353.2,99.9,353.2,99.9,353.2,99.9c0,1.6,0,3.2,0,4.8c0,1.1,0.3,1.4,1.4,1.4
		c0.9,0,1.8,0,2.6,0c2.3-0.1,4.7-0.2,7-0.4c1.7-0.2,3.2-1,4.2-2.5c0.7-1,0.6-2.2,0.6-3.4c0.2-3.1-2.3-5.3-5-5.5
		c-3.3-0.2-6.6-0.1-9.9-0.2c-0.7,0-1,0.4-1,1.2C353.2,96.7,353.2,98.3,353.2,99.9z"/>
	<path class="st1" d="M296.2,109.1c0,6.6,0,13.2,0,19.8c0,1.9,0,1.9-1.9,1.9c-2.1,0-4.1,0-6.2,0c-0.8,0-1-0.3-1-1.1
		c0-5.5,0-11,0-16.5c0-1-0.3-1.2-1.4-1.2c-4.9,0-9.8,0-14.7,0c-2.3,0-2.3,0-2.3,2.3c0,5.2,0,10.4,0,15.6c0,0.6-0.3,0.9-0.8,0.9
		c-2.6,0-5.2,0-7.7,0c-0.6,0-0.9-0.3-0.9-0.9c0-7.7,0-15.3,0-23c0-6.2,0-12.4,0-18.6c0-0.7,0.3-1.1,1-1.1c2.5,0,4.9,0,7.4,0
		c0.7,0,1,0.3,1,1c0,5,0,9.9,0,14.9c0,1.2,0.2,1.5,1.5,1.5c5.1,0,10.2,0,15.3,0c1.5,0,1.6-0.2,1.6-1.7c0-4.9,0-9.8,0-14.7
		c0-0.7,0.3-1,1-1c2.4,0,4.7,0,7.1,0c0.9,0,1.1,0.3,1.1,1.1C296.2,95.2,296.2,102.2,296.2,109.1
		C296.2,109.1,296.2,109.1,296.2,109.1z"/>
	<path class="st1" d="M440.3,109.1c0-7,0-13.9,0-20.9c0-0.7,0.3-1,1-1c0.4,0,0.7,0,1.1,0c9.5,0,19.1,0,28.6,0c0.9,0,1.1,0.2,1.1,1.2
		c0,1.6,0,3.2,0,4.9c0,0.9-0.2,1.1-1.1,1.1c-6.8,0-13.5,0-20.3-0.1c-0.7,0-1.1,0.3-1.1,1c0,2.8,0,5.5,0,8.3c0,0.8,0.4,1.1,1.3,1.1
		c4.7,0,9.4,0,14-0.1c0.6,0,1,0.3,1,0.9c0,1.8,0,3.6,0,5.4c0,0.6-0.4,0.8-1,0.8c-4.7,0-9.4,0-14,0c-1.1,0-1.3,0.2-1.3,1.3
		c0,3.1,0,6.2,0,9.3c0,1.3,0.2,1.5,1.5,1.5c6.3,0,12.7,0,19,0c0.5,0,1.1,0,1.6,0c0.7-0.1,1.1,0.3,1.1,1c0,1.8,0.1,3.6,0,5.4
		c0,0.3-0.4,0.5-0.7,0.8c-0.1,0.1-0.4,0-0.6,0c-9.9,0-19.8,0-29.7,0c-0.3,0-0.6,0-0.8,0c-0.5-0.1-0.7-0.3-0.7-0.9
		C440.3,123,440.3,116,440.3,109.1C440.3,109.1,440.3,109.1,440.3,109.1z"/>
	<path class="st1" d="M305.6,109c0-7,0-13.9,0-20.9c0-0.7,0.3-1,1-1c9.8,0,19.5,0,29.3,0c1.5,0,1.6,0.1,1.6,1.6c0,1.4,0,2.8,0,4.3
		c0,1.1-0.2,1.3-1.3,1.3c-5.7,0-11.4,0-17,0c-1.1,0-2.2,0-3.2,0c-0.7,0-1.1,0.3-1.1,1.1c0,2.7,0,5.4,0,8.1c0,0.9,0.3,1.1,1.3,1.1
		c4.5,0,9,0,13.5,0c1.5,0,1.7,0.1,1.6,1.6c0,1.3,0,2.7,0,4c0,1.3-0.2,1.4-1.4,1.4c-4.5,0-8.9,0-13.4,0c-1.7,0-1.7,0-1.7,1.7
		c0,3,0,5.9,0,8.9c0,1.3,0.2,1.5,1.5,1.5c6.8,0,13.6,0,20.3,0c1.4,0,1.5,0.1,1.5,1.6c0,1.5,0,3.1,0,4.6c0,0.7-0.2,1-0.9,1
		c-0.2,0-0.5,0-0.7,0c-10,0-20,0-30.1,0c-0.6,0-1-0.1-1-0.9c0-5.2,0-10.5,0.1-15.7C305.6,112.5,305.6,110.7,305.6,109
		C305.6,109,305.6,109,305.6,109z"/>
	<path class="st1" d="M493,86.5c3.5-0.1,6.8,0.7,9.9,2.3c2.4,1.3,4.4,3.1,5.8,5.4c0.3,0.4,0.6,0.8,0.8,1.3c0.1,0.3-0.1,0.8-0.3,0.9
		c-0.3,0.3-0.8,0.4-1.2,0.5c-1.8,0.5-3.5,1-5.3,1.5c-1,0.3-1.2,0.2-1.7-0.7c-1.7-2.9-4.1-4.6-7.5-4.6c-1.6,0-3.1,0.1-4.6,0.7
		c-2.4,1-4,4.4-1.1,6.7c1,0.8,2.2,1.5,3.4,2c2.4,1,4.9,1.8,7.4,2.8c1.9,0.8,3.9,1.6,5.7,2.5c3,1.6,5.3,3.8,6.2,7.2
		c0.6,2.1,0.4,4.3-0.1,6.4c-0.7,3.3-2.6,5.8-5.5,7.5c-2.3,1.3-4.9,1.9-7.5,2.1c-2,0.1-4.1,0.2-6.1,0c-2.8-0.2-5.3-1.1-7.8-2.4
		c-2.7-1.4-4.9-3.4-6.5-6c-0.1-0.2-0.2-0.3-0.3-0.5c-0.6-1.2-0.6-1.4,0.7-1.9c1.8-0.7,3.7-1.5,5.5-2.2c0.6-0.2,1-0.1,1.3,0.5
		c2.8,5.2,8.1,7.1,13.5,5.6c1.6-0.4,2.8-1.3,3.7-2.6c0.9-1.3,0.8-3.8-0.2-5c-1-1.2-2.2-2.2-3.7-2.7c-3.2-1.2-6.3-2.5-9.4-3.8
		c-2.8-1.2-5.6-2.4-7.8-4.6c-2.7-2.8-3.4-6.1-2.3-9.8c1.4-4.7,4.9-7.1,9.3-8.3c1.9-0.5,3.8-0.7,5.8-1C493,86.4,493,86.5,493,86.5z"
		/>
	<path class="st0" d="M568.1,174.3c0-8.7,0-17.5,0-26.2c0-2-0.4-2,2-2c2.9,0,5.7,0,8.6,0c0.4,0,0.8,0.1,1.2,0.3
		c0.2,0.1,0.4,0.5,0.4,0.8c0,0.4-0.1,0.9-0.1,1.4c0,17.2,0,34.3,0,51.5c0,0.4,0,0.8,0,1.2c0.1,0.8-0.4,1.4-1.2,1.4
		c-3.4,0-6.8,0-10.2,0c-0.7,0-0.8-0.5-0.8-1.1c0-4.7,0-9.5,0-14.2C568.1,183.1,568.1,178.7,568.1,174.3z M580.1,147.6
		C580.1,147.6,580.1,147.6,580.1,147.6c0,17.8,0,35.6,0,53.4c0,0,0,0,0,0C580.1,183.2,580.1,165.4,580.1,147.6z"/>
	<path class="st0" d="M477,174.4c0-8.7,0-17.5,0-26.2c0-2,0-2,2.1-2c2.9,0,5.8,0,8.8,0c1,0,1.1,0.2,1.1,1.2c0,0.5,0,0.9,0,1.4
		c0,17.3,0,34.7,0,52c0,2.4,0,2.1-2.1,2.1c-2.9,0-5.7,0-8.6,0c-1.2,0-1.3-0.2-1.3-1.4c0-1.4,0-2.9,0-4.3
		C477,189.5,477,181.9,477,174.4z"/>
	<path class="st1" d="M282.1,226.2c-0.3,0.7-0.6,1.5-0.9,2.2c-0.3,0.8-0.5,1.7-0.8,2.5c-1.2,3.5-2.5,7-3.8,10.5
		c-0.8,2.3-1.6,4.5-2.4,6.8c-0.4,1-0.6,1.1-2.2,1.1c-0.8,0-1.3-0.4-1.5-1.2c-1.1-3.3-2.2-6.6-3.3-9.9c-1-3.1-2-6.3-3-9.4
		c-0.2-0.6-0.6-1.2-1-2c-0.1,1.1-0.3,2-0.3,2.9c-0.1,2,0,4.1-0.1,6.1c-0.1,2.5-0.4,4.9-0.6,7.4c-0.1,1.6-0.1,3.1-0.2,4.7
		c0,1.4-0.2,1.6-1.6,1.6c-0.4,0-0.8,0-1.2,0c-0.8,0.1-1-0.3-1-1c0.2-3,0.5-6,0.7-9c0.1-1.4,0.1-2.8,0.2-4.2c0.1-1,0.2-2,0.3-3
		c0.2-2.6,0.3-5.2,0.5-7.8c0.1-1,0.2-2,0.3-3c0.1-0.6,0.5-0.8,1-0.8c1,0,2.1-0.1,3.1,0c0.3,0,0.7,0.3,0.8,0.6c0.6,1.4,1,2.8,1.5,4.1
		c0.6,1.6,1.2,3.3,1.8,5c1,2.8,1.9,5.6,2.8,8.5c0.3,1,0.6,2.1,0.9,3.1c0.1,0.3,0.4,0.5,0.6,0.7c0.2-0.2,0.5-0.5,0.6-0.7
		c0.3-1,0.6-2,0.9-2.9c0.7-2.1,1.5-4.2,2.2-6.2c1.3-3.7,2.7-7.4,4-11.1c0.2-0.6,0.6-1,1.2-1c1,0,2,0,3,0c0.6,0,1,0.3,1,0.9
		c0,0.5,0.1,1,0.1,1.5c0.2,2.7,0.4,5.3,0.5,8c0.1,2.4,0.2,4.8,0.4,7.1c0.1,1.7,0.3,3.4,0.4,5.1c0.1,1.7,0.2,3.5,0.2,5.2
		c0,0.7-0.3,1-1,0.9c-0.6-0.1-1.1,0-1.7,0c-0.7,0-1-0.3-1-0.9c0-1-0.1-2-0.1-3.1c-0.1-1.8-0.2-3.6-0.3-5.4c-0.2-3.1-0.4-6.2-0.5-9.2
		c-0.1-1.2,0-2.3,0-3.5c0-0.4-0.1-0.8-0.1-1.3C282.3,226.2,282.2,226.2,282.1,226.2z"/>
	<path class="st1" d="M293.9,276.6c0-4.3,0-8.6,0-12.8c0-1,0.7-1.2,1.4-1.3c2.6-0.4,5.2-0.6,7.8-0.3c2,0.2,3.9,0.7,5.6,2.1
		c1.1,0.9,1.9,2.1,2.1,3.4c0.5,3.2-0.4,5.5-3.3,7.2c-0.2,0.1-0.4,0.3-0.6,0.5c0.2,0.2,0.4,0.4,0.7,0.5c4.9,2.1,5.7,7.9,2.9,11.5
		c-1.2,1.5-2.8,2.4-4.7,2.9c-3.5,1-7.1,0.7-10.7,0.5c-0.9,0-1-0.7-1-1.4c0-2.1,0-4.3,0-6.4C294,280.9,294,278.7,293.9,276.6
		C294,276.6,294,276.6,293.9,276.6z M297.7,282.5C297.7,282.5,297.7,282.5,297.7,282.5c0,1.4,0,2.8,0,4.3c0,1,0.3,1.3,1.3,1.3
		c1.9,0,3.8,0,5.7-0.7c3.2-1.1,4-4.9,2.7-7.1c-1.1-2-3-2.7-5.2-2.9c-1.2-0.1-2.3,0-3.5,0c-0.7,0-1,0.3-1,1
		C297.7,279.7,297.7,281.1,297.7,282.5z M297.7,269.8C297.7,269.8,297.7,269.8,297.7,269.8c0,1.1,0,2.3,0,3.4c0,0.7,0.3,1,1,1
		c1,0,2,0,3,0c2.2-0.1,4-0.9,5-3c1-2,0-4.7-2.1-5.6c-1.9-0.8-3.8-0.6-5.8-0.6c-0.7,0-1,0.5-1,1.2
		C297.7,267.4,297.7,268.6,297.7,269.8z"/>
	<path class="st1" d="M346.6,273.2c0.4-0.5,0.6-1,1.1-1.4c2.7-2.6,7.7-3,10.3,1c0.6,0.9,0.7,0.9,1.3,0c1.5-2.3,5.5-3.6,8.1-2.6
		c3,1.1,4.3,3.5,4.5,6.3c0.3,4.4,0.2,8.9,0.2,13.3c0,0.8-0.4,1.1-1.1,1c-0.5,0-0.9,0-1.4,0c-1.1,0-1.3-0.2-1.3-1.3
		c0-3.4,0-6.8,0-10.1c0-1.4-0.1-2.8-0.7-4.1c-1.4-3-5-3-7-0.6c-0.9,1.1-1.3,2.4-1.3,3.9c0,3.7,0,7.3,0,11c0,1.1-0.2,1.3-1.3,1.3
		c-2.4,0-2.5,0.3-2.4-2.5c0-3.4,0.1-6.8,0-10.2c0-1.5-0.4-3-1.6-4.2c-1-1-3.4-1.4-4.9-0.2c-1.7,1.3-2.5,3-2.5,5.2
		c0,3.4,0,6.9,0,10.3c0,1.4-0.1,1.6-1.5,1.6c-2.2,0-2.2,0.4-2.2-2.3c0-5.8,0-11.5,0-17.3c0-0.7,0.3-1.1,1-1c0.1,0,0.1,0,0.2,0
		c2,0,2,0,2.1,2c0,0.2,0.1,0.5,0.2,0.7C346.4,273,346.5,273.1,346.6,273.2z"/>
	<path class="st1" d="M332.8,231.1c0.1-0.6,0.1-1,0.1-1.4c0-3,0-6.1,0-9.1c0-1.1,0.2-1.3,1.3-1.3c0.5,0,1.1,0,1.6,0
		c0.5,0,0.8,0.3,0.8,0.9c0,0.3,0,0.6,0,0.9c0,8.7,0,17.4,0,26.1c0,0.5,0.1,1,0.1,1.4c0,0.6-0.2,0.9-0.9,0.9c-0.1,0-0.3,0-0.4,0
		c-2-0.1-2-0.1-2.3-2.1c0-0.2-0.2-0.5-0.3-0.5c-0.2,0-0.5,0.1-0.6,0.3c-0.8,0.9-1.6,1.6-2.8,2.1c-2.1,0.8-4.2,0.9-6.2,0
		c-3.9-1.6-5.6-4.8-5.7-9c0-1.1-0.1-2.3,0.1-3.4c0.5-3.4,2.1-6.1,5.3-7.6c2.9-1.3,6.3-1.3,8.9,1.1
		C332.1,230.7,332.4,230.8,332.8,231.1z M333.1,239.2c-0.1,0-0.1,0-0.2,0c0-0.5,0-1,0-1.5c-0.1-1.5-0.5-2.9-1.5-4.1
		c-2.5-2.8-6.5-2.4-8.4,0.5c-2.1,3.2-2.1,6.5-0.5,9.9c0.6,1.3,1.8,2.3,3.2,2.6c3,0.7,5.6-0.4,6.7-3.5
		C332.8,241.9,332.9,240.5,333.1,239.2z"/>
	<path class="st1" d="M551.7,232c0,3.8,0,7.7,0,11.5c0,1.4,0.2,2.8,0.2,4.1c0,1.2-0.2,1.3-1.3,1.4c-0.1,0-0.2,0-0.3,0
		c-1.8,0-1.8,0-1.9-1.8c0-0.3-0.3-0.6-0.4-0.9c-0.2,0.2-0.5,0.3-0.7,0.5c-1.4,1.7-3.2,2.4-5.4,2.5c-3.5,0.2-6-1.4-7.8-4.2
		c-1.1-1.6-1.4-3.5-1.5-5.3c0-1.5,0-3,0.4-4.4c0.9-3.3,2.7-5.8,6.2-7c2.1-0.7,4.1-0.4,6.1,0.3c0.6,0.2,1,0.7,1.5,1
		c0.2,0.1,0.6,0.2,0.8,0.3c0.1-0.3,0.2-0.5,0.2-0.8c0-3,0-5.9,0-8.9c0-1.4,0.2-1.5,1.5-1.5c2.3,0,2.3,0,2.2,2.3
		C551.8,224.8,551.8,228.4,551.7,232C551.8,232,551.8,232,551.7,232z M548.2,238.7c0-3.3-0.3-4-1.1-5.2c-2.2-3.2-6.4-3.2-8.6-0.3
		c-2.3,3.1-2.3,6.5-0.8,9.9c1.1,2.4,3,3.4,5.8,3.1c1.7-0.2,3.8-1.6,4.3-3.9C548,241.1,548,239.9,548.2,238.7z"/>
	<path class="st1" d="M471.1,220.1c1.9-0.1,3.5,0.1,5.1,0.8c0.8,0.3,1,0.7,0.7,1.5c0,0.1-0.1,0.3-0.2,0.4c-0.6,1.6-0.7,1.7-2.2,1
		c-1.4-0.6-2.9-0.7-4.3-0.6c-2.3,0.1-4.3,1.4-4.6,3.9c-0.2,1.5,0.5,2.9,1.8,3.7c1.5,0.9,3.2,1.6,4.8,2.4c2.3,1,4.5,2.1,5.5,4.6
		c1.4,3.5,0.7,7.7-2.7,9.9c-2.5,1.7-5.3,1.8-8.2,1.6c-1.7-0.1-3.4-0.5-5-1.4c-0.6-0.3-0.8-0.7-0.5-1.3c0.2-0.4,0.3-0.9,0.5-1.4
		c0.3-0.7,0.7-0.8,1.4-0.4c2.1,1.2,4.4,1.6,6.7,1.3c2.9-0.4,5.2-2.6,4.5-5.9c-0.3-1.5-1.5-2.4-2.7-3.1c-1.1-0.6-2.4-1.1-3.6-1.6
		c-2.3-1-4.5-2.1-5.7-4.5c-0.7-1.3-0.8-2.8-0.6-4.2c0.3-2.6,1.7-4.4,3.9-5.6C467.4,220.2,469.3,219.9,471.1,220.1z"/>
	<path class="st1" d="M268.2,281.2c-2,0-4,0-6,0c-0.9,0-1.1,0.2-1,1c0.1,2.9,2.5,5.5,5.4,5.8c2,0.2,4,0.2,5.9-0.6
		c0.6-0.3,1.1-0.1,1.3,0.6c0.1,0.3,0.2,0.5,0.2,0.8c0.2,1,0.1,1.2-0.9,1.5c-2.6,0.9-5.3,1.1-8,0.6c-2.8-0.4-5-1.8-6.3-4.3
		c-2.3-4.6-2-9.1,0.9-13.3c1.6-2.3,4-3.4,6.8-3.5c2.5-0.2,4.7,0.5,6.4,2.3c1.5,1.5,2.2,3.6,2.4,5.7c0.1,0.7,0.2,1.3,0.2,2
		c0,1.1-0.4,1.4-1.5,1.4C272.1,281.2,270.1,281.2,268.2,281.2C268.2,281.2,268.2,281.2,268.2,281.2z M266.4,278.5
		C266.4,278.5,266.4,278.5,266.4,278.5c1.5,0,2.9,0,4.4,0c0.9,0,1.2-0.4,0.9-1.3c-0.2-0.5-0.3-1.1-0.5-1.6c-1.3-2.6-3.6-3.5-6.1-2.7
		c-2.1,0.7-3.1,2.5-3.8,4.4c-0.3,0.8,0.1,1.2,1,1.2C263.7,278.5,265,278.5,266.4,278.5z"/>
	<path class="st1" d="M328.6,281.2c-2,0-4.1,0-6.1,0c-0.7,0-1.1,0.3-1,1c0.4,2.2,1.2,4.2,3.4,5.2c2.6,1.2,5.2,1,7.8,0.1
		c1.1-0.4,1.5-0.2,1.7,0.9c0.1,0.3,0.2,0.6,0.1,0.9c-0.1,0.3-0.3,0.8-0.6,0.9c-2.8,1-5.7,1.3-8.6,0.8c-3.6-0.7-5.9-2.8-7-6.3
		c-1-2.9-0.8-5.8,0.2-8.6c1.7-4.8,6.5-7.3,11.4-5.8c3,0.9,4.7,2.9,5.4,5.8c0.3,1.3,0.4,2.7,0.5,4.1c0.1,0.9-0.2,1.1-1.1,1.1
		C332.8,281.2,330.7,281.2,328.6,281.2C328.6,281.2,328.6,281.2,328.6,281.2z M326.8,278.5C326.8,278.5,326.8,278.5,326.8,278.5
		c1.4,0,2.8,0,4.3,0c0.9,0,1.3-0.3,1.1-1.3c-0.1-0.7-0.4-1.4-0.7-2c-1.1-2.4-4.3-3.2-6.5-2.1c-1.7,0.8-2.6,2.4-3.3,4.1
		c-0.4,0.9,0,1.3,1,1.3C324.1,278.5,325.4,278.5,326.8,278.5z"/>
	<path class="st1" d="M406.1,281.2c-2,0-3.9,0-5.9,0c-1.3,0-1.6,0.4-1.3,1.6c1,4.2,4.1,5.6,8,5.3c1.2-0.1,2.4-0.5,3.6-0.8
		c0.7-0.2,1,0,1.1,0.7c0.4,2.1,0.5,1.9-1.4,2.5c-2.6,0.8-5.2,1-7.8,0.4c-3.6-0.8-5.9-3.1-6.9-6.7c-0.8-3.2-0.5-6.2,0.8-9.1
		c1.1-2.3,2.8-3.9,5.3-4.7c2.1-0.7,4.2-0.7,6.2,0c1.7,0.6,2.9,1.7,3.7,3.2c1.2,2,1.6,4.3,1.6,6.6c0,0.7-0.2,1.1-1,1.1
		C410.1,281.2,408.1,281.2,406.1,281.2C406.1,281.2,406.1,281.2,406.1,281.2z M404.2,278.5C404.2,278.5,404.2,278.5,404.2,278.5
		c1.4,0,2.8,0,4.2,0c0.7,0,1.1-0.3,1-1c-0.1-0.7-0.3-1.4-0.6-2.1c-0.7-1.6-1.9-2.5-3.6-2.7c-2.1-0.3-3.8,0.4-5,2.2
		c-0.5,0.7-0.8,1.5-1.1,2.3c-0.4,0.9-0.1,1.3,0.9,1.4C401.4,278.5,402.8,278.5,404.2,278.5z"/>
	<path class="st1" d="M569.8,239.4c-2,0-3.9,0-5.9,0c-1,0-1.3,0.3-1.2,1.3c0.6,4.1,3.6,6,7.6,5.6c1.3-0.1,2.6-0.5,4-0.8
		c0.3,0,0.8,0,0.9,0.2c0.3,0.7,0.4,1.4,0.5,2.1c0,0.2-0.3,0.5-0.5,0.5c-2.6,0.9-5.4,1.1-8.1,0.8c-4.5-0.5-7.4-3.9-8-8.2
		c-0.3-2.3-0.2-4.6,0.7-6.9c1.1-2.8,2.9-4.8,5.9-5.8c2.2-0.7,4.4-0.5,6.5,0.3c1.6,0.6,2.8,1.9,3.6,3.4c1.1,2,1.3,4.2,1.2,6.4
		c0,0.8-0.6,0.9-1.2,0.9C573.8,239.4,571.8,239.4,569.8,239.4C569.8,239.4,569.8,239.4,569.8,239.4z M567.9,236.7
		C567.9,236.7,567.9,236.7,567.9,236.7c1.4,0,2.7,0,4.1,0c1.1,0,1.5-0.5,1.2-1.6c-0.1-0.4-0.2-0.9-0.4-1.3c-0.6-1.4-1.6-2.4-3.1-2.8
		c-2.9-0.8-6.4,1.5-6.9,4.5c-0.1,0.8,0.1,1.2,1,1.2C565.2,236.7,566.5,236.7,567.9,236.7z"/>
	<path class="st1" d="M304.8,239.9c-2,0-4,0-6,0c-0.9,0-1.2,0.3-1.1,1.2c0.3,3,2.5,5.3,5.5,5.6c2.1,0.2,4.1,0.1,6-0.7
		c0.6-0.2,0.9,0,1.1,0.5c0.1,0.3,0.2,0.6,0.3,1c0.2,0.9,0,1.1-0.9,1.4c-2.6,0.9-5.4,1.1-8.1,0.7c-2.5-0.4-4.7-1.6-6.1-3.9
		c-1.9-3-2-6.2-1.3-9.5c0.4-2.3,1.6-4.4,3.6-5.9c2.4-1.7,5-2.3,7.9-1.6c3.7,0.9,5.4,3.5,6,7c0.2,0.9,0.2,1.9,0.3,2.8
		c0.1,1.1-0.2,1.3-1.2,1.3C308.8,240,306.8,240,304.8,239.9C304.8,240,304.8,239.9,304.8,239.9z M302.9,237.3c1.4,0,2.8,0,4.2,0
		c0.9,0,1.3-0.4,1.2-1.2c-0.4-2.7-2.2-4.8-5.4-4.6c-2.8,0.2-4.5,2.6-5,4.7c-0.2,0.8,0.2,1.1,1,1.1
		C300.2,237.2,301.6,237.3,302.9,237.3z"/>
	<path class="st1" d="M500.4,241c0,2.3,0,4.6,0,6.9c0,0.9-0.2,1.2-1.2,1.2c-0.2,0-0.3,0-0.5,0c-1.4,0-1.4,0-1.7-1.4
		c-0.2-0.7-0.5-0.9-1.1-0.3c-2,1.9-4.3,2.2-6.9,1.9c-2.4-0.3-4.6-2.7-4.7-5.1c-0.1-2.5,0.5-4.7,2.6-6.1c1.7-1.1,3.6-1.9,5.6-1.9
		c1,0,2.1-0.1,3.1-0.2c0.7,0,0.8-0.5,0.8-1.1c0-1.9-1.5-3.6-3.3-3.9c-2-0.4-3.9,0.1-5.7,1c-0.7,0.3-1,0.2-1.2-0.4
		c-0.1-0.3-0.3-0.7-0.4-1c-0.2-0.6,0-0.9,0.6-1.2c2.2-1,4.5-1.5,6.9-1.3c3.7,0.4,6,1.8,6.7,5.9C500.4,236.2,500.2,238.6,500.4,241
		C500.3,241,500.4,241,500.4,241z M496.5,241c0-0.5,0-1,0-1.4c0-0.7-0.2-1.2-1-1.1c-1.6,0.3-3.2,0.4-4.7,0.9
		c-1.4,0.4-2.5,1.5-2.7,3.1c-0.2,1.5,0.3,2.7,1.5,3.5c1.4,0.9,3,0.7,4.3-0.1C495.7,244.8,496.9,243.2,496.5,241z"/>
	<path class="st1" d="M431.6,241.5c0,2.2,0,4.3,0,6.5c0,0.8-0.2,1.1-1,1.1c-0.3,0-0.6,0-0.9,0c-1.2,0-1.4-0.1-1.6-1.3
		c-0.1-0.8-0.5-1-1.1-0.4c-2,1.8-4.3,2.2-6.9,1.9c-2.2-0.2-4.7-2.8-4.8-5.1c-0.1-2.5,0.6-4.6,2.7-6.1c1.7-1.1,3.6-1.8,5.6-1.9
		c1-0.1,2.1-0.1,3.1-0.2c0.8,0,0.8-0.6,0.8-1.2c-0.1-1.9-1.6-3.5-3.4-3.8c-2-0.3-3.8,0.2-5.6,1c-0.6,0.3-0.9,0.2-1.2-0.4
		c-0.1-0.3-0.3-0.6-0.4-0.9c-0.2-0.6,0-1,0.6-1.3c2.2-1,4.5-1.6,6.9-1.3c3.9,0.4,6.2,1.9,6.7,6.5c0.3,2.3,0.1,4.6,0.1,7
		C431.5,241.5,431.6,241.5,431.6,241.5z M427.8,240.9c0-0.5,0.1-1.1,0-1.6c-0.1-0.3-0.4-0.7-0.6-0.7c-2.3,0-4.7,0.2-6.6,1.7
		c-1.5,1.2-1.8,3.8-0.4,5.2c1.2,1.2,3.3,1.4,4.9,0.4C427,244.7,428,243.1,427.8,240.9z"/>
	<path class="st1" d="M470,281.8c0.1,2.7,0.2,5.3,0.4,8c0,1-0.1,1.1-1.1,1.1c-0.2,0-0.5,0-0.7,0c-1.5,0-1.5,0-1.8-1.4
		c-0.1-0.2-0.2-0.5-0.4-0.6c-0.1-0.1-0.4,0.2-0.6,0.3c-2.3,2.4-7.2,2.9-9.9,0.4c-1.5-1.4-2-3.2-1.7-5.2c0.4-3,2.3-4.7,5.1-5.7
		c1.9-0.7,3.8-0.9,5.8-1c1,0,1.4-0.6,1.2-1.5c-0.6-2.7-2.5-3.6-4.6-3.5c-1.6,0-3,0.4-4.4,1.1c-0.8,0.4-1.1,0.3-1.3-0.6
		c-0.1-0.3-0.3-0.7-0.2-1c0-0.3,0.2-0.9,0.4-1c3.2-1.5,6.6-2.1,9.9-0.7c2.8,1.2,3.8,3.7,3.9,6.5c0.1,1.6,0,3.1,0,4.7
		C470,281.8,470,281.8,470,281.8z M466.5,282.5c0-0.3,0-0.6,0-0.8c0-1.3-0.2-1.5-1.5-1.4c-1.3,0.1-2.6,0.3-3.8,0.7
		c-2.7,0.8-3.6,2.4-3.1,5c0.2,1,0.8,1.6,1.7,2c1.7,0.7,4.2,0.1,5.4-1.3C466.3,285.4,466.7,284,466.5,282.5z"/>
	<path class="st1" d="M391.3,240.2c0-2.4,0-4.7,0-7.1c0-1.2-0.1-2.4-0.2-3.6c0-0.7,0.2-1.1,1-1.1c0.3,0,0.5,0,0.8,0
		c1.4,0,1.4,0,1.6,1.4c0,0.3,0.3,0.6,0.5,0.9c0.3-0.2,0.6-0.2,0.8-0.5c2.5-2.8,7.3-3.1,10.1-0.8c1.8,1.5,2.6,3.6,2.7,5.9
		c0.1,4.1,0,8.2,0,12.3c0,1.2-0.1,1.3-1.3,1.3c-0.5,0-1,0-1.5,0c-0.6,0-0.9-0.3-0.9-0.8c0-0.4,0-0.9,0-1.3c0-3.3,0.1-6.6,0-9.9
		c0-1.2-0.4-2.5-0.8-3.6c-0.7-1.7-3-2.6-4.8-2.2c-2.5,0.6-4.2,3.2-4.2,5.5c0,3.5,0,7.1,0,10.6c0,1.5-0.1,1.6-1.6,1.6
		c-2.3,0-2.2,0.1-2.2-2.3C391.3,244.6,391.3,242.4,391.3,240.2C391.3,240.2,391.3,240.2,391.3,240.2z"/>
	<path class="st1" d="M525.6,237.3c0,2.4,0,4.8,0,7.1c0,1.1,0.2,2.3,0.2,3.4c0,1-0.3,1.2-1.3,1.2c-0.1,0-0.1,0-0.2,0
		c-1.8,0-1.8,0-2-1.8c0-0.3-0.2-0.5-0.3-0.7c-0.2,0.1-0.5,0.2-0.7,0.4c-2.1,2.3-4.8,2.9-7.8,2.3c-1.9-0.4-3.2-1.7-4.1-3.4
		c-0.7-1.4-0.9-2.9-0.9-4.4c0-3.9,0-7.9,0-11.8c0-0.7,0.3-1.1,1-1c0.6,0,1.1,0,1.7,0c0.8,0,1.1,0.3,1.1,1.1c0,3.5-0.1,7.1,0,10.6
		c0,1.1,0.2,2.3,0.7,3.4c1.3,3.2,4.8,3.1,6.9,1.4c1.4-1.2,2-2.6,1.9-4.4c-0.1-3.7,0-7.4-0.1-11.1c0-0.7,0.3-1,1-1c0.6,0,1.2,0,1.8,0
		c0.8,0,1.1,0.3,1.1,1.1C525.6,232.1,525.6,234.7,525.6,237.3C525.6,237.3,525.6,237.3,525.6,237.3z"/>
	<path class="st1" d="M367.2,246.4c1.1-0.3,2.1-0.5,3.2-0.8c0.8-0.2,1.2,0,1.4,0.7c0.5,1.8,0.5,1.9-1.3,2.4
		c-2.7,0.8-5.5,0.9-8.3-0.1c-2.6-0.9-4.3-2.6-5.3-5c-1-2.3-1.2-4.8-0.6-7.2c0.6-2.8,2-5,4.3-6.6c0.7-0.5,1.4-0.8,2.2-1.1
		c2.8-0.9,5.6-0.9,8.4-0.1c0.7,0.2,1,0.6,0.8,1.3c-0.1,0.3-0.1,0.7-0.2,1c-0.2,0.7-0.6,1-1.4,0.7c-1.4-0.4-2.8-0.9-4.3-0.6
		c-4.9,0.8-6.9,5.7-5.9,9.5c0.4,1.8,1.2,3.3,2.7,4.4c1.3,1,2.8,1.4,4.4,1.2C367.2,246.2,367.2,246.3,367.2,246.4z"/>
	<path class="st1" d="M424.6,291.2c-1.7,0.1-3.4-0.3-5-1c-0.7-0.3-0.8-0.7-0.6-1.4c0.1-0.2,0.2-0.4,0.2-0.6c0.4-1.4,0.5-1.5,1.8-0.9
		c1.4,0.7,2.9,0.8,4.4,0.7c1.5-0.1,2.8-1,3.1-2.4c0.3-1.1-0.5-2.4-1.7-3.1c-1-0.5-2-1-3.1-1.4c-1.8-0.7-3.2-1.8-4-3.6
		c-0.5-1.2-0.5-2.5,0-3.7c1-2.7,3.2-3.7,5.9-4.1c1.6-0.2,3.2,0.2,4.8,0.6c0.9,0.3,1.2,0.9,0.8,1.8c-0.7,1.6-0.7,1.6-2.3,0.9
		c-1.5-0.6-3.1-0.8-4.5,0.1c-1.4,0.9-1.7,2.8-0.3,3.8c0.9,0.7,2,1.1,3,1.7c1.2,0.7,2.5,1.2,3.5,2.1c2.5,2.1,2.3,6,0.1,8.2
		c-1.4,1.4-3.2,1.9-5.2,2C425.1,291.2,424.8,291.2,424.6,291.2z"/>
	<path class="st1" d="M440.2,280c0-1.9,0-3.7,0-5.6c0-0.8-0.3-1.1-1.1-1.1c-0.1,0-0.2,0-0.3,0c-1.8,0-2.3-0.6-1.8-2.4
		c0.1-0.3,0.5-0.5,0.8-0.6c0.5-0.1,1,0,1.4,0c0.6,0,1-0.3,1-0.9c0-0.6,0-1.1,0-1.7c-0.1-0.7,0.2-1.2,0.8-1.4
		c0.7-0.3,1.4-0.5,2.2-0.7c0.6-0.1,0.8,0.4,0.8,0.9c0,0.8,0,1.6,0,2.5c0,1.2,0.2,1.3,1.3,1.3c1,0,2,0,3.1,0c0.7,0,1,0.3,1,1
		c0,0,0,0.1,0,0.1c0,1.9,0,1.9-1.9,1.9c-0.8,0-1.6,0-2.5,0c-0.7,0-1.1,0.3-1.1,1.1c0,3.4,0,6.9,0,10.3c0,1.8,1.1,3.8,3.6,3.3
		c0.6-0.1,1.4-0.4,1.5,0.6c0.1,1.8,0.1,2.2-1.1,2.4c-1.9,0.2-3.8,0.6-5.4-0.7c-0.7-0.6-1.4-1.3-1.6-2.2c-0.4-1.2-0.5-2.5-0.6-3.7
		C440.1,282.9,440.1,281.5,440.2,280C440.1,280,440.1,280,440.2,280z"/>
	<path class="st1" d="M478.5,281.6c0-2.4,0-4.9,0-7.3c0-1-0.2-1.9-0.2-2.9c0-0.9,0.2-1.1,1.1-1.2c0.1,0,0.3,0,0.4,0
		c1.9,0,1.8,0,1.9,1.8c0,0.3,0.2,0.6,0.4,0.9c0.2-0.2,0.5-0.4,0.7-0.6c1.2-1.7,2.8-2.6,4.8-2.6c0.7,0,1.1,0.3,1,1c0,0.1,0,0.3,0,0.4
		c0,0.6,0.2,1.4-0.2,1.8c-0.3,0.4-1.1,0.3-1.7,0.4c-1.8,0.3-3.7,2-4.1,3.8c-0.2,1.1-0.4,2.2-0.4,3.4c0,3,0,6,0,9
		c0,1-0.2,1.3-1.2,1.3c-2.5,0-2.5,0.3-2.5-2.5C478.6,286.1,478.5,283.9,478.5,281.6C478.5,281.6,478.5,281.6,478.5,281.6z"/>
	<path class="st1" d="M349.1,238.7c0,3,0,6,0,8.9c0,1.3-0.1,1.4-1.4,1.4c-0.5,0-1,0-1.5,0c-0.6,0-1-0.3-1-0.9c0-0.5,0-1,0-1.5
		c0-5.7,0-11.4,0-17.1c0-0.8,0.3-1.1,1.1-1c0.6,0,1.2,0,1.8,0c0.9,0,1.1,0.2,1.1,1.1C349.1,232.6,349.1,235.7,349.1,238.7
		C349.1,238.7,349.1,238.7,349.1,238.7z"/>
	<path class="st1" d="M378.9,238.7c0-3.1,0-6.1,0-9.2c0-1,0.1-1.1,1.1-1.1c0.5,0,1.1,0,1.6,0c1,0,1.1,0.1,1.1,1.1c0,1.7,0,3.4,0,5.1
		c0,4.3,0,8.6,0,12.9c0,1.4-0.1,1.4-1.4,1.4c-0.4,0-0.7,0-1.1,0c-1.1,0-1.2-0.1-1.2-1.2C378.9,244.8,378.9,241.8,378.9,238.7
		C378.9,238.7,378.9,238.7,378.9,238.7z"/>
	<path class="st1" d="M437.6,253.4c0.1-0.3,0.1-0.5,0.2-0.7c0.7-2.7,1.4-5.4,2.1-8.1c0.1-0.3,0.5-0.7,0.8-0.8
		c0.8-0.2,1.7-0.2,2.5-0.3c0.7,0,0.9,0.5,0.7,1c-0.4,1.2-0.7,2.4-1.2,3.6c-0.6,1.5-1.3,3.1-2,4.6c-0.4,0.8-1.9,1.5-2.7,1.2
		C437.8,253.9,437.7,253.6,437.6,253.4z"/>
	<path class="st1" d="M383.9,277.9c1.3,0,2.7,0,4,0c1,0,1.3,0.3,1.2,1.2c0,1.3-0.2,1.6-1.3,1.6c-2.7,0-5.4,0-8.1,0
		c-0.7,0-1-0.3-1.1-0.9c0-0.3,0-0.6,0-0.8c0-0.7,0.3-1,1-1C381.1,277.9,382.5,277.9,383.9,277.9
		C383.9,277.9,383.9,277.9,383.9,277.9z"/>
	<path class="st1" d="M521,219.6c0.2,0,0.5,0,0.7,0c0.4,0,0.7,0.1,1.1,0.2c-0.2,0.3-0.3,0.7-0.5,1c-1.3,1.5-2.6,3.1-3.9,4.6
		c-0.4,0.5-1.9,0.7-2.5,0.5c-0.5-0.3-0.4-0.7-0.2-1.1c1-1.5,1.9-3.1,2.9-4.6c0.2-0.3,0.6-0.5,1-0.6
		C520.1,219.5,520.6,219.6,521,219.6C521,219.6,521,219.6,521,219.6z"/>
	<path class="st1" d="M347.1,220.4c1.3,0,2.3,1.1,2.3,2.4c0,1.4-1,2.4-2.4,2.3c-1.3,0-2.3-1.1-2.3-2.3
		C344.7,221.6,345.9,220.3,347.1,220.4z"/>
	<path class="st1" d="M383,222.7c0,1.6-0.9,2.4-2.4,2.4c-1.3,0-2.2-1-2.1-2.5c0-1.3,1-2.2,2.3-2.2
		C382.1,220.4,383.1,221.4,383,222.7z"/>
</g>
<g>
	<path class="st1" d="M268.7,23.6h8.7v24.5c0,11-5.3,14.9-13.8,14.9c-2,0-4.7-0.3-6.4-0.9l1-7.1c1.2,0.4,2.8,0.7,4.5,0.7
		c3.7,0,6-1.7,6-7.7V23.6z"/>
	<path class="st1" d="M312,61.3c-1.6,0.8-5.2,1.7-9.9,1.7c-13.4,0-20.3-8.3-20.3-19.4c0-13.2,9.4-20.6,21.2-20.6
		c4.5,0,8,0.9,9.5,1.7l-1.8,7c-1.8-0.7-4.3-1.4-7.4-1.4c-7,0-12.4,4.2-12.4,12.8c0,7.8,4.6,12.6,12.4,12.6c2.6,0,5.6-0.6,7.3-1.3
		L312,61.3z"/>
	<path class="st1" d="M316.6,24.1c2.7-0.5,6.5-0.8,11.8-0.8c5.4,0,9.3,1,11.8,3.1c2.5,2,4.1,5.2,4.1,9c0,3.8-1.3,7-3.6,9.2
		c-3,2.8-7.4,4.1-12.6,4.1c-1.1,0-2.2-0.1-3-0.2v13.9h-8.7V24.1z M325.3,41.7c0.7,0.2,1.7,0.2,2.9,0.2c4.7,0,7.5-2.4,7.5-6.3
		c0-3.6-2.5-5.7-6.8-5.7c-1.8,0-3,0.2-3.6,0.3V41.7z"/>
</g>
</svg>
