<?xml version="1.0" encoding="utf-8"?>
<!-- Generator: Adobe Illustrator 24.1.2, SVG Export Plug-In . SVG Version: 6.00 Build 0)  -->
<svg version="1.1" id="Camada_1" xmlns="http://www.w3.org/2000/svg" xmlns:xlink="http://www.w3.org/1999/xlink" x="0px" y="0px"
	 viewBox="0 0 595.3 180.7" style="enable-background:new 0 0 595.3 180.7;" xml:space="preserve">
<style type="text/css">
	.st0{fill:#222C53;}
	.st1{fill:#53B685;}
</style>
<g>
	<circle class="st0" cx="86.9" cy="89.6" r="80.1"/>
</g>
<g>
	<path class="st0" d="M307.9,61.4v-4.8c0-26-21-47-47-47h-68.4v82.8v16.1v62.1h11.2c0.8-9.8,9.5-17.1,11.8-19
		c2.2-1.8,22.7-11.4,39.8,3.9c14.4,12.9,27.8,14.3,27.8,14.3h23.1l-62.1-61.3h16.8C286.9,108.4,307.9,87.3,307.9,61.4z"/>
</g>
<g>
	<path class="st1" d="M98.9,101.6c0,0,31.3-3.8,46.2,15.6c14.9,19.4,5.1,38.4,22.9,53.3c0,0-38.3,4.8-55.8-21.3
		S98.9,101.6,98.9,101.6z"/>
</g>
<g>
	<path class="st0" d="M362,101.1c-2.6,0-4.6-0.8-6.1-2.3c-1.5-1.6-2.3-3.7-2.3-6.6c0-2.7,0.8-4.9,2.3-6.5c1.5-1.6,3.6-2.4,6.1-2.4
		c0.7,0,1.3,0,1.8,0.1c0.5,0.1,1.1,0.2,1.6,0.3c0.4,0.1,0.8,0.3,1.3,0.5c0.5,0.2,0.8,0.4,1.1,0.5v4.1h-0.4c-0.2-0.2-0.5-0.4-0.8-0.7
		c-0.3-0.3-0.7-0.5-1.1-0.8c-0.4-0.2-0.8-0.5-1.3-0.6c-0.5-0.2-1-0.3-1.5-0.3c-0.6,0-1.2,0.1-1.7,0.3c-0.5,0.2-1,0.5-1.5,1
		c-0.4,0.4-0.8,1-1.1,1.8c-0.3,0.7-0.4,1.6-0.4,2.6c0,1.1,0.1,2,0.4,2.7s0.7,1.3,1.1,1.8c0.4,0.4,0.9,0.7,1.5,0.9
		c0.5,0.2,1.1,0.3,1.6,0.3c0.6,0,1.1-0.1,1.6-0.3c0.5-0.2,1-0.4,1.3-0.6c0.4-0.2,0.7-0.5,1-0.7c0.3-0.2,0.5-0.5,0.8-0.7h0.4v4
		c-0.3,0.1-0.7,0.3-1.1,0.5c-0.4,0.2-0.8,0.3-1.3,0.5c-0.5,0.2-1,0.3-1.5,0.4S362.8,101.1,362,101.1z"/>
	<path class="st0" d="M393.5,92.2c0,2.8-0.7,5-2.2,6.6c-1.5,1.6-3.5,2.4-6.1,2.4c-2.6,0-4.6-0.8-6.1-2.4c-1.5-1.6-2.2-3.8-2.2-6.5
		c0-2.8,0.7-4.9,2.2-6.5c1.5-1.6,3.5-2.4,6.1-2.4c2.6,0,4.6,0.8,6.1,2.4C392.8,87.2,393.5,89.4,393.5,92.2z M389.1,92.2
		c0-1-0.1-1.9-0.3-2.6s-0.5-1.3-0.8-1.8c-0.4-0.5-0.8-0.8-1.3-1c-0.5-0.2-0.9-0.3-1.4-0.3c-0.5,0-1,0.1-1.4,0.3s-0.8,0.5-1.2,1
		c-0.4,0.4-0.6,1-0.9,1.8c-0.2,0.7-0.3,1.6-0.3,2.6c0,1.1,0.1,1.9,0.3,2.6c0.2,0.7,0.5,1.3,0.9,1.7c0.4,0.5,0.8,0.8,1.3,1
		c0.5,0.2,1,0.3,1.5,0.3c0.5,0,1-0.1,1.5-0.3c0.5-0.2,0.9-0.6,1.2-1c0.4-0.5,0.7-1.1,0.9-1.7C389,94.1,389.1,93.3,389.1,92.2z"/>
	<path class="st0" d="M418.4,100.8h-4.2l-6.6-12v12h-3.9V83.6h5.3l5.5,9.8v-9.8h3.9V100.8z"/>
	<path class="st0" d="M434.7,101.1c-1.3,0-2.5-0.1-3.5-0.4c-1-0.3-1.9-0.6-2.8-0.9v-4.1h0.4c0.9,0.7,1.8,1.3,2.8,1.7
		c1,0.4,2,0.6,3,0.6c0.2,0,0.6,0,1-0.1c0.4-0.1,0.7-0.1,1-0.3c0.3-0.1,0.6-0.3,0.8-0.5c0.2-0.2,0.3-0.5,0.3-0.9c0-0.4-0.2-0.8-0.5-1
		c-0.3-0.3-0.7-0.5-1.2-0.6c-0.6-0.2-1.2-0.3-1.9-0.4c-0.7-0.1-1.3-0.3-1.9-0.5c-1.3-0.5-2.3-1.1-2.9-1.9c-0.6-0.8-0.9-1.8-0.9-3
		c0-1.6,0.7-2.9,2-3.9c1.4-1,3.1-1.5,5.1-1.5c1,0,2,0.1,3.1,0.3c1,0.2,1.9,0.5,2.7,0.8v3.9h-0.4c-0.6-0.5-1.4-1-2.3-1.4
		c-0.9-0.4-1.9-0.6-2.8-0.6c-0.4,0-0.7,0-1,0.1s-0.6,0.2-0.9,0.3c-0.3,0.1-0.5,0.3-0.7,0.5s-0.3,0.5-0.3,0.8c0,0.4,0.2,0.8,0.5,1
		c0.3,0.3,0.9,0.5,1.8,0.7c0.6,0.1,1.1,0.3,1.7,0.4c0.5,0.1,1.1,0.3,1.7,0.5c1.2,0.4,2.1,1,2.7,1.7c0.6,0.7,0.9,1.7,0.9,2.9
		c0,1.7-0.7,3.1-2,4.1C438.8,100.6,437,101.1,434.7,101.1z"/>
	<path class="st0" d="M458.9,101.1c-2.3,0-4.1-0.6-5.3-1.7c-1.2-1.1-1.9-2.7-1.9-4.9v-11h4.3v10.7c0,1.2,0.2,2.1,0.7,2.7
		c0.4,0.6,1.2,0.9,2.2,0.9c1,0,1.7-0.3,2.2-0.8c0.5-0.6,0.7-1.5,0.7-2.7V83.6h4.3v11c0,2.1-0.6,3.7-1.8,4.9
		C463.1,100.6,461.3,101.1,458.9,101.1z"/>
	<path class="st0" d="M488.4,100.8H477V83.6h4.3v13.9h7.2V100.8z"/>
	<path class="st0" d="M501.3,100.8V86.9h-5.1v-3.3h14.5v3.3h-5.1v13.9H501.3z"/>
	<path class="st0" d="M528.6,100.8h-9.3v-3h2.5V86.6h-2.5v-3h9.3v3h-2.5v11.2h2.5V100.8z"/>
	<path class="st0" d="M553.8,100.8h-4.2l-6.6-12v12H539V83.6h5.3l5.5,9.8v-9.8h3.9V100.8z"/>
	<path class="st0" d="M579.1,99.8c-0.8,0.3-1.7,0.6-2.9,0.9c-1.2,0.3-2.4,0.4-3.6,0.4c-2.7,0-4.9-0.8-6.5-2.3
		c-1.6-1.6-2.4-3.8-2.4-6.6c0-2.7,0.8-4.8,2.4-6.5s3.8-2.4,6.6-2.4c1.4,0,2.6,0.1,3.5,0.4s1.8,0.6,2.8,1.1v4h-0.4
		c-0.2-0.2-0.5-0.4-0.9-0.7c-0.4-0.3-0.8-0.5-1.1-0.8c-0.4-0.2-0.9-0.5-1.5-0.6c-0.6-0.2-1.2-0.3-1.8-0.3c-0.7,0-1.4,0.1-2,0.3
		c-0.6,0.2-1.1,0.6-1.6,1.1c-0.5,0.5-0.8,1-1.1,1.8c-0.3,0.7-0.4,1.5-0.4,2.5c0,2,0.5,3.5,1.5,4.4c1,1,2.4,1.4,4.1,1.4
		c0.2,0,0.3,0,0.5,0c0.2,0,0.4,0,0.5,0v-3.4h-3.3v-3.2h7.5V99.8z"/>
</g>
</svg>
