<?xml version="1.0" encoding="utf-8"?>
<!-- Generator: Adobe Illustrator 24.1.2, SVG Export Plug-In . SVG Version: 6.00 Build 0)  -->
<svg version="1.1" id="Camada_1" xmlns="http://www.w3.org/2000/svg" xmlns:xlink="http://www.w3.org/1999/xlink" x="0px" y="0px"
	 viewBox="0 0 201 194.2" style="enable-background:new 0 0 201 194.2;" xml:space="preserve">
<style type="text/css">
	.st0{fill:#007AC0;}
</style>
<path class="st0" d="M152,108.5c-0.8,0-1.5-0.7-1.5-1.5V89.4l-22.5-13c-0.7-0.4-1-1.4-0.6-2.1c0.4-0.7,1.4-1,2.1-0.6l23.2,13.4
	c0.5,0.3,0.8,0.8,0.8,1.3v18.4C153.5,107.8,152.9,108.5,152,108.5L152,108.5z"/>
<path class="st0" d="M150.2,111.6c-0.5,0-1-0.3-1.3-0.7c-0.5-0.7-0.2-1.7,0.5-2.1c0.1,0,0.2-0.1,0.3-0.2c0.1-0.1,0.1-0.1,0.2-0.2
	c0.1-0.1,0.2-0.2,0.2-0.3c0-0.1,0.1-0.2,0.1-0.2c0.1-0.1,0.1-0.2,0.1-0.3c0-0.1,0-0.1,0.1-0.2c0,0,0,0,0-0.1l0-0.1
	c0-0.1,0-0.1,0-0.2c0-0.8,0.7-1.5,1.5-1.5s1.5,0.7,1.5,1.5c0,0.3,0,0.5-0.1,0.7l0,0.1c0,0.1,0,0.1,0,0.2c0,0.1-0.1,0.2-0.1,0.4
	c-0.1,0.3-0.2,0.7-0.5,1.1c-0.2,0.3-0.4,0.7-0.7,1c-0.3,0.5-0.8,0.8-1.1,0.9C150.8,111.5,150.5,111.6,150.2,111.6L150.2,111.6z
	 M150.5,107.1C150.5,107.1,150.5,107.1,150.5,107.1C150.5,107.1,150.5,107.1,150.5,107.1L150.5,107.1z"/>
<path class="st0" d="M199.5,99.6c-0.3,0-0.5-0.1-0.8-0.2l-30.9-17.8l-35.6-7.1c-0.8-0.2-1.4-1-1.2-1.8c0.2-0.8,1-1.4,1.8-1.2
	l35.8,7.1c0.2,0,0.3,0.1,0.5,0.2l31.1,18c0.7,0.4,1,1.4,0.6,2.1C200.6,99.3,200,99.6,199.5,99.6L199.5,99.6z M152,90.1
	c-0.3,0-0.5-0.1-0.8-0.2L128,76.4c-0.7-0.4-1-1.4-0.6-2.1c0.4-0.7,1.4-1,2.1-0.6l23.2,13.4c0.7,0.4,1,1.4,0.6,2.1
	C153.1,89.8,152.5,90.1,152,90.1L152,90.1z"/>
<path class="st0" d="M80.1,116.1c-0.5,0-1-0.3-1.3-0.8c-0.4-0.7-0.2-1.7,0.6-2.1l38.9-22.4c0.5-0.3,1.1-0.3,1.5,0l31.2,18
	c0.7,0.4,1,1.4,0.6,2.1c-0.4,0.7-1.4,1-2.1,0.6l-30.4-17.5l-38.2,22C80.7,116,80.4,116.1,80.1,116.1L80.1,116.1z"/>
<path class="st0" d="M60.5,165.8c-0.3,0-0.5-0.1-0.8-0.2c-0.7-0.4-1-1.4-0.5-2.1c0.9-1.5,2-2.9,3.1-4c0.4-0.4,0.8-0.7,1.3-1.1
	c0.3-0.3,0.7-0.6,1.2-0.9c0.8-0.4,1.7-0.1,2.1,0.6c0.4,0.8,0.1,1.7-0.6,2.1c-0.2,0.1-0.4,0.3-0.5,0.4c-0.1,0.1-0.1,0.1-0.2,0.2
	c-0.5,0.3-0.8,0.6-1.2,0.9c-0.9,0.9-1.9,2-2.6,3.3C61.5,165.6,61,165.8,60.5,165.8L60.5,165.8z"/>
<path class="st0" d="M172.1,21.8c-0.3,0-0.5-0.1-0.7-0.2l0,0c-0.2-0.1-0.3-0.2-0.4-0.3c0,0-0.1,0-0.1,0c-0.6-0.2-1-0.8-1-1.4
	c0-0.6,0.3-1.1,0.8-1.4c0.3-0.2,0.8-0.2,1.2-0.1c0.2,0,0.3,0.1,0.4,0.2c0.2,0.1,0.4,0.2,0.6,0.3c0,0,0.1,0.1,0.1,0.1
	c0.7,0.5,1,1.4,0.5,2.1C173.1,21.6,172.6,21.8,172.1,21.8L172.1,21.8z M171.2,21.6C171.2,21.6,171.2,21.6,171.2,21.6L171.2,21.6
	L171.2,21.6z M171.4,21.4C171.4,21.4,171.4,21.4,171.4,21.4S171.4,21.4,171.4,21.4L171.4,21.4z M171.4,21.4L171.4,21.4L171.4,21.4
	L171.4,21.4z M171.4,21.4L171.4,21.4L171.4,21.4L171.4,21.4z"/>
<path class="st0" d="M171.3,21.4c-0.4,0-0.7-0.1-1-0.4L139.8,3.4c-0.7-0.4-1-1.4-0.6-2.1c0.4-0.7,1.4-1,2.1-0.6l30.8,17.8
	c0.5,0.3,0.8,0.8,0.8,1.3C172.9,20.7,172.2,21.4,171.3,21.4L171.3,21.4z"/>
<path class="st0" d="M166.5,22c-0.6,0-1.1-0.3-1.4-0.9c-0.4-0.8,0-1.7,0.7-2c0.1,0,0.2-0.1,0.3-0.1c0.2-0.1,0.5-0.2,0.8-0.4
	c0.2-0.1,0.4-0.2,0.7-0.2c1.1-0.4,2.1-0.5,3-0.3c0.2,0,0.4,0.1,0.5,0.1c0,0,0.1,0,0.2,0.1c0.1,0,0.3,0.1,0.4,0.1
	c0.2,0,0.4,0.1,0.6,0.2c0,0,0.1,0,0.1,0.1c0,0,0.1,0.1,0.1,0.1l0.1,0c0.2,0.1,0.3,0.1,0.4,0.2c0.7,0.5,1,1.4,0.5,2.1
	c-0.4,0.7-1.3,1-2.1,0.5l0,0c-0.1,0-0.1,0-0.2-0.1l-0.1,0c-0.1-0.1-0.2-0.1-0.4-0.2c0,0,0,0-0.1,0c-0.1,0-0.2-0.1-0.3-0.1l-0.1,0
	c-0.1,0-0.2,0-0.3,0c-0.4-0.1-0.9,0-1.5,0.2c-0.1,0-0.1,0-0.2,0.1c-0.1,0-0.2,0-0.2,0.1c0,0-0.1,0-0.1,0c-0.2,0.1-0.3,0.1-0.5,0.2
	c-0.1,0.1-0.3,0.1-0.4,0.2C167,22,166.7,22,166.5,22L166.5,22z M171.9,21.8C171.9,21.8,171.9,21.8,171.9,21.8
	C171.9,21.8,171.9,21.8,171.9,21.8L171.9,21.8z M171.9,21.8L171.9,21.8L171.9,21.8z M171.2,21.6C171.2,21.6,171.2,21.6,171.2,21.6
	L171.2,21.6L171.2,21.6z"/>
<path class="st0" d="M32.7,115.8c-0.3,0-0.5-0.1-0.8-0.2l-31.1-18c-0.4-0.2-0.6-0.6-0.7-1c-0.1-0.4,0-0.9,0.3-1.2L47.8,31
	c0.5-0.6,1.3-0.8,2-0.4l31.1,18c0.7,0.4,1,1.4,0.6,2.1c-0.4,0.7-1.4,1-2.1,0.6L49.5,33.9L3.8,95.8l29.6,17.1c0.7,0.4,1,1.4,0.6,2.1
	C33.7,115.5,33.2,115.8,32.7,115.8L32.7,115.8z"/>
<path class="st0" d="M80.1,125.3c-0.1,0-0.2,0-0.3,0l-47.5-9.5c-0.5-0.1-0.9-0.5-1.1-1c-0.2-0.5-0.1-1,0.2-1.5L78.9,49
	c0.4-0.5,1.1-0.8,1.7-0.5c0.6,0.2,1.1,0.8,1.1,1.5v18.4c0,0.9-0.7,1.5-1.5,1.5c-0.8,0-1.5-0.7-1.5-1.5V54.6l-43.3,58.6l43.3,8.7
	v-16.6c0-0.8,0.7-1.5,1.5-1.5c0.8,0,1.5,0.7,1.5,1.5v18.4c0,0.5-0.2,0.9-0.6,1.2C80.8,125.1,80.5,125.3,80.1,125.3L80.1,125.3z"/>
<path class="st0" d="M152,163.9c-0.2,0-0.3,0-0.5-0.1c-0.6-0.2-1.1-0.8-1.1-1.5v-18.5c0-0.8,0.7-1.5,1.5-1.5s1.5,0.7,1.5,1.5v13.8
	l43.3-58.6l-43.3-8.7v16.5c0,0.8-0.7,1.5-1.5,1.5s-1.5-0.7-1.5-1.5V88.5c0-0.5,0.2-0.9,0.6-1.2c0.4-0.3,0.8-0.4,1.3-0.3l47.5,9.5
	c0.5,0.1,0.9,0.5,1.1,1c0.2,0.5,0.1,1-0.2,1.5l-47.5,64.3C153,163.7,152.5,163.9,152,163.9L152,163.9z"/>
<path class="st0" d="M62.4,194.2c-1,0-1.9-0.2-2.7-0.7c-1.9-1.1-2.9-3.3-2.9-6c0-0.8,0.7-1.5,1.5-1.5s1.5,0.7,1.5,1.5
	c0,1.6,0.5,2.9,1.4,3.4c0.9,0.5,2.2,0.3,3.6-0.5c0.7-0.4,1.7-0.2,2.1,0.6c0.4,0.7,0.2,1.7-0.6,2.1C65,193.8,63.7,194.2,62.4,194.2
	L62.4,194.2z"/>
<path class="st0" d="M150.2,111.6c-0.3,0-0.5-0.1-0.8-0.2l-31.2-18c-0.7-0.4-1-1.4-0.6-2.1c0.4-0.7,1.4-1,2.1-0.6l31.2,18
	c0.7,0.4,1,1.4,0.6,2.1C151.3,111.3,150.8,111.6,150.2,111.6L150.2,111.6z"/>
<path class="st0" d="M119.1,93.6c-0.5,0-1-0.2-1.3-0.7c-0.5-0.7-0.3-1.7,0.4-2.1c0.8-0.5,1.1-1.1,1.2-2c0.1-0.8,0.8-1.5,1.6-1.4
	c0.8,0.1,1.5,0.8,1.4,1.6c-0.1,1.8-1,3.3-2.5,4.3C119.7,93.5,119.4,93.6,119.1,93.6L119.1,93.6z"/>
<path class="st0" d="M120.9,90.5c-0.8,0-1.5-0.7-1.5-1.5v-9.3c0-0.8,0.7-1.5,1.5-1.5c0.8,0,1.5,0.7,1.5,1.5v9.3
	C122.4,89.8,121.7,90.5,120.9,90.5L120.9,90.5z"/>
<path class="st0" d="M152,145.5c-0.7,0-1.3-0.5-1.5-1.1c-0.7,0.2-1.4-0.1-1.7-0.8c-0.4-0.7-0.1-1.7,0.6-2.1c1-0.5,2-0.6,2.8-0.1
	c0.8,0.5,1.3,1.4,1.3,2.5C153.5,144.8,152.9,145.5,152,145.5L152,145.5z M150.5,143.8"/>
<path class="st0" d="M152,163.9c-0.3,0-0.5-0.1-0.8-0.2l-17.8-10.3c-0.7-0.4-1-1.4-0.6-2.1c0.4-0.7,1.4-1,2.1-0.6l17.8,10.3
	c0.7,0.4,1,1.4,0.6,2.1C153.1,163.6,152.5,163.9,152,163.9L152,163.9z"/>
<path class="st0" d="M60.5,165.8c-0.3,0-0.5-0.1-0.8-0.2l-31.1-17.9c-0.7-0.4-1-1.4-0.6-2.1c0.4-0.7,1.4-1,2.1-0.6L61.3,163
	c0.7,0.4,1,1.4,0.6,2.1C61.6,165.6,61,165.8,60.5,165.8L60.5,165.8z"/>
<path class="st0" d="M29.4,147.9c-0.3,0-0.5-0.1-0.8-0.2c-0.7-0.4-1-1.4-0.5-2.1c1.4-2.4,2.9-4.2,5.6-6c0.7-0.5,1.7-0.3,2.1,0.5
	c0.5,0.7,0.3,1.7-0.5,2.1c-2.3,1.4-3.4,2.9-4.6,5C30.4,147.6,29.9,147.9,29.4,147.9L29.4,147.9z"/>
<path class="st0" d="M34.5,142.4c-0.5,0-1-0.3-1.3-0.8c-0.4-0.7-0.2-1.7,0.6-2.1l33.8-19.5c0.7-0.4,1.7-0.2,2.1,0.6
	c0.4,0.7,0.2,1.7-0.6,2.1l-33.8,19.5C35,142.3,34.8,142.4,34.5,142.4L34.5,142.4z"/>
<path class="st0" d="M27.2,155C27.2,155,27.2,155,27.2,155c-0.9,0-1.6-0.8-1.5-1.6c0.1-3.3,1-5.4,2.3-7.8c0.4-0.7,1.3-1,2.1-0.6
	c0.7,0.4,1,1.3,0.6,2.1c-1.3,2.5-1.8,4.1-1.9,6.5C28.7,154.4,28.1,155,27.2,155L27.2,155z"/>
<path class="st0" d="M27.2,171c-0.9,0-1.5-0.7-1.5-1.5v-16c0-0.8,0.7-1.5,1.5-1.5c0.8,0,1.5,0.7,1.5,1.5v16
	C28.8,170.4,28.1,171,27.2,171L27.2,171z"/>
<path class="st0" d="M28.9,175.4c-0.4,0-0.8-0.1-1.1-0.4c-1.8-1.7-2-3.5-2.1-5.4c0-0.8,0.6-1.6,1.5-1.6c0.8,0,1.6,0.6,1.6,1.5
	c0.1,1.7,0.3,2.5,1.2,3.3c0.6,0.6,0.6,1.6,0,2.2C29.7,175.3,29.3,175.4,28.9,175.4L28.9,175.4z"/>
<path class="st0" d="M60,193.4c-0.3,0-0.5-0.1-0.8-0.2l-31.2-18c-0.7-0.4-1-1.4-0.6-2.1c0.4-0.7,1.4-1,2.1-0.6l31.2,18
	c0.7,0.4,1,1.4,0.6,2.1C61.1,193.1,60.6,193.4,60,193.4L60,193.4z"/>
<path class="st0" d="M60,193.4c-0.4,0-0.8-0.1-1.1-0.4c-1.9-1.8-2.1-3.6-2.2-5.4c0-0.8,0.6-1.6,1.5-1.6c0,0,0,0,0.1,0
	c0.8,0,1.5,0.7,1.5,1.5c0.1,1.7,0.2,2.4,1.2,3.3c0.6,0.6,0.6,1.6,0.1,2.2C60.9,193.2,60.4,193.4,60,193.4L60,193.4z"/>
<path class="st0" d="M58.4,189c-0.8,0-1.5-0.7-1.5-1.5v-16c0-0.8,0.7-1.5,1.5-1.5s1.5,0.7,1.5,1.5v16C59.9,188.3,59.2,189,58.4,189
	L58.4,189z"/>
<path class="st0" d="M58.4,173C58.3,173,58.3,173,58.4,173c-0.9,0-1.6-0.8-1.5-1.6c0.1-3.2,0.9-5.3,2.3-7.8c0.4-0.8,1.3-1,2.1-0.6
	c0.8,0.4,1,1.3,0.6,2.1c-1.2,2.2-1.8,3.9-1.9,6.5C59.9,172.4,59.2,173,58.4,173L58.4,173z"/>
<path class="st0" d="M135.4,4.1c-0.5,0-1.1-0.3-1.4-0.8c-0.4-0.7-0.1-1.7,0.6-2.1c1.8-0.9,3.8-1.8,6.5-0.5c0.8,0.4,1.1,1.3,0.7,2.1
	c-0.4,0.8-1.3,1.1-2.1,0.7c-1.2-0.6-2-0.4-3.8,0.5C135.9,4,135.7,4.1,135.4,4.1L135.4,4.1z"/>
<path class="st0" d="M66.8,43.7c-0.5,0-1-0.3-1.3-0.8c-0.4-0.7-0.2-1.7,0.6-2.1l68.7-39.6c0.7-0.4,1.7-0.2,2.1,0.6
	c0.4,0.7,0.2,1.7-0.6,2.1L67.5,43.5C67.3,43.6,67,43.7,66.8,43.7L66.8,43.7z"/>
<path class="st0" d="M81.2,71.1c-0.4,0-0.8-0.1-1.1-0.3c-0.8-0.4-1-1.3-0.6-2.1c0.4-0.7,1.1-1,1.8-0.7c0,0,0,0,0,0
	c0.7-0.4,1.7-0.1,2.1,0.6c0.4,0.7,0.1,1.7-0.6,2.1C82.2,71,81.7,71.1,81.2,71.1L81.2,71.1z"/>
<path class="st0" d="M82,70.9c-0.5,0-1-0.3-1.3-0.8c-0.4-0.7-0.2-1.7,0.6-2.1l84.6-48.9c0.7-0.4,1.7-0.2,2.1,0.6
	c0.4,0.7,0.2,1.7-0.6,2.1L82.7,70.7C82.5,70.8,82.2,70.9,82,70.9L82,70.9z"/>
<path class="st0" d="M82,103.7c-0.5,0-1-0.3-1.3-0.8c-0.4-0.7-0.2-1.7,0.6-2.1L165.8,52c0.7-0.4,1.7-0.2,2.1,0.6
	c0.4,0.7,0.2,1.7-0.6,2.1l-84.6,48.8C82.5,103.6,82.2,103.7,82,103.7L82,103.7z"/>
<path class="st0" d="M166.5,54.8c-0.5,0-1-0.3-1.3-0.8c-0.4-0.7-0.2-1.7,0.6-2.1c1.7-1,3.4-2.7,4.6-4.8c0.4-0.7,1.4-1,2.1-0.6
	c0.7,0.4,1,1.4,0.6,2.1c-1.5,2.6-3.5,4.7-5.7,6C167,54.8,166.8,54.8,166.5,54.8L166.5,54.8z"/>
<path class="st0" d="M171.7,49.4c-0.6,0-1.1-0.3-1.4-0.8c-0.4-0.7-0.1-1.7,0.6-2.1l0,0c0.7-0.4,1.7-0.1,2.1,0.6
	c0.4,0.7,0.1,1.7-0.6,2.1C172.2,49.3,171.9,49.4,171.7,49.4L171.7,49.4z"/>
<path class="st0" d="M171.7,49.4c-0.3,0-0.5-0.1-0.8-0.2c-0.7-0.4-1-1.4-0.6-2.1c1.2-2.2,1.9-4.5,1.9-6.4c0-0.8,0.7-1.5,1.5-1.5
	c0.8,0,1.5,0.7,1.5,1.5c0,2.4-0.8,5.3-2.3,7.9C172.7,49.1,172.2,49.4,171.7,49.4L171.7,49.4z"/>
<path class="st0" d="M173.8,42.2c-0.9,0-1.5-0.7-1.5-1.5v-16c0-0.8,0.7-1.5,1.5-1.5c0.8,0,1.5,0.7,1.5,1.5v16
	C175.4,41.6,174.7,42.2,173.8,42.2L173.8,42.2z"/>
<path class="st0" d="M173.8,26.2c-0.9,0-1.5-0.7-1.5-1.5c0-1.6-0.5-2.9-1.4-3.4c-0.9-0.5-2.2-0.3-3.6,0.5c-0.7,0.4-1.7,0.2-2.1-0.6
	c-0.4-0.7-0.2-1.7,0.6-2.1c2.4-1.4,4.8-1.6,6.7-0.5c1.9,1.1,2.9,3.3,2.9,6C175.4,25.5,174.7,26.2,173.8,26.2L173.8,26.2z"/>
<path class="st0" d="M81.2,71.1c-0.4,0-0.9-0.1-1.2-0.3c-0.8-0.5-1.3-1.4-1.3-2.5c0-0.8,0.7-1.5,1.5-1.5c0.7,0,1.3,0.5,1.5,1.1
	c0.6-0.1,1.3,0.1,1.7,0.7c0.4,0.7,0.2,1.7-0.5,2.1C82.2,70.9,81.7,71.1,81.2,71.1L81.2,71.1z M81.7,68.4L81.7,68.4L81.7,68.4z"/>
<path class="st0" d="M80.1,106.8c-0.8,0-1.5-0.7-1.5-1.5c0-1.7,1.1-3.6,2.6-4.5c0.7-0.4,1.7-0.2,2.1,0.5c0.4,0.7,0.2,1.7-0.5,2.1
	c-0.5,0.3-1.1,1.2-1.1,1.8C81.7,106.1,81,106.8,80.1,106.8L80.1,106.8z"/>
<path class="st0" d="M65.6,193.2c-0.5,0-1-0.3-1.3-0.8c-0.4-0.7-0.2-1.7,0.6-2.1l84.6-48.8c0.7-0.4,1.7-0.2,2.1,0.6
	c0.4,0.7,0.2,1.7-0.6,2.1L66.4,193C66.2,193.2,65.9,193.2,65.6,193.2L65.6,193.2z"/>
<path class="st0" d="M65.6,160.4c-0.5,0-1-0.3-1.3-0.8c-0.4-0.7-0.2-1.7,0.6-2.1l84.6-48.8c0.7-0.4,1.7-0.2,2.1,0.6
	c0.4,0.7,0.2,1.7-0.6,2.1l-84.6,48.8C66.2,160.3,65.9,160.4,65.6,160.4L65.6,160.4z"/>
<path class="st0" d="M14.7,102.8c-0.1,0-0.3-0.1-0.4-0.2L7.2,90.2c-0.1-0.2,0-0.5,0.2-0.6c0.2-0.1,0.5,0,0.6,0.2l7.1,12.4
	c0.1,0.2,0.1,0.5-0.2,0.6C14.9,102.7,14.8,102.8,14.7,102.8L14.7,102.8z"/>
<path class="st0" d="M37.2,107.9c-0.1,0-0.3-0.1-0.4-0.2l-19.1-33c-0.1-0.2,0-0.5,0.2-0.6c0.2-0.1,0.5,0,0.6,0.2l19.1,33
	c0.1,0.2,0,0.5-0.2,0.6C37.3,107.9,37.2,107.9,37.2,107.9L37.2,107.9z"/>
<path class="st0" d="M48.1,93.2c-0.2,0-0.3-0.1-0.4-0.2l-19.1-33c-0.1-0.2-0.1-0.5,0.2-0.6c0.2-0.1,0.5,0,0.6,0.2l19.1,33
	c0.1,0.2,0,0.5-0.2,0.6C48.2,93.1,48.2,93.2,48.1,93.2L48.1,93.2z"/>
<path class="st0" d="M59,78.4c-0.1,0-0.3-0.1-0.4-0.2l-19.1-33c-0.1-0.2,0-0.5,0.2-0.6c0.2-0.1,0.5,0,0.6,0.2l19.1,33
	c0.1,0.2,0,0.5-0.2,0.6C59.1,78.4,59.1,78.4,59,78.4L59,78.4z"/>
<path class="st0" d="M69.8,63.4c-0.2,0-0.3-0.1-0.4-0.2L53.9,36.3c-0.1-0.2,0-0.5,0.2-0.6c0.2-0.1,0.5,0,0.6,0.2l15.5,26.8
	c0.1,0.2,0,0.5-0.2,0.6C69.9,63.4,69.9,63.4,69.8,63.4L69.8,63.4z"/>
<path class="st0" d="M87.3,65.4c-0.1,0-0.3-0.1-0.4-0.2l-5.7-9.9c-0.1-0.2,0-0.5,0.2-0.6c0.2-0.1,0.5,0,0.6,0.2l5.7,9.9
	c0.1,0.2,0,0.5-0.2,0.6C87.4,65.3,87.3,65.4,87.3,65.4L87.3,65.4z"/>
<path class="st0" d="M76.3,46.5c-0.2,0-0.3-0.1-0.4-0.2l-3.4-5.9c-0.1-0.2,0-0.5,0.2-0.6c0.2-0.1,0.5,0,0.6,0.2l3.4,5.9
	c0.1,0.2,0,0.5-0.2,0.6C76.5,46.4,76.4,46.5,76.3,46.5L76.3,46.5z"/>
<path class="st0" d="M102.2,57.5c-0.1,0-0.3-0.1-0.4-0.2l-15-26c-0.1-0.2,0-0.5,0.2-0.6c0.2-0.1,0.5,0,0.6,0.2l15,26
	c0.1,0.2,0,0.5-0.2,0.6C102.3,57.4,102.2,57.5,102.2,57.5L102.2,57.5z"/>
<path class="st0" d="M116.8,49c-0.1,0-0.3-0.1-0.4-0.2l-15-26c-0.1-0.2,0-0.5,0.2-0.6c0.2-0.1,0.5,0,0.6,0.2l15,26
	c0.1,0.2,0,0.5-0.2,0.6C116.9,49,116.8,49,116.8,49L116.8,49z"/>
<path class="st0" d="M131.3,40.6c-0.2,0-0.3-0.1-0.4-0.2l-15-26c-0.1-0.2,0-0.5,0.2-0.6c0.2-0.1,0.5,0,0.6,0.2l15,26
	c0.1,0.2,0,0.5-0.2,0.6C131.5,40.6,131.4,40.6,131.3,40.6L131.3,40.6z"/>
<path class="st0" d="M145.9,32.2c-0.1,0-0.3-0.1-0.4-0.2l-15-26c-0.1-0.2,0-0.5,0.2-0.6c0.2-0.1,0.5,0,0.6,0.2l15,26
	c0.1,0.2,0,0.5-0.2,0.6C146.1,32.2,146,32.2,145.9,32.2L145.9,32.2z"/>
<path class="st0" d="M160.3,23.3c-0.1,0-0.3-0.1-0.4-0.2L153,11.2c-0.1-0.2,0-0.5,0.2-0.6c0.2-0.1,0.5,0,0.6,0.2l6.9,11.9
	c0.1,0.2,0.1,0.5-0.2,0.6C160.4,23.3,160.4,23.3,160.3,23.3L160.3,23.3z"/>
<path class="st0" d="M75.2,185.8c-0.1,0-0.3-0.1-0.4-0.2l-12.9-22.4c-0.1-0.2,0-0.5,0.2-0.6c0.2-0.1,0.5,0,0.6,0.2l12.9,22.4
	c0.1,0.2,0.1,0.5-0.2,0.6C75.4,185.8,75.3,185.8,75.2,185.8L75.2,185.8z"/>
<path class="st0" d="M89.8,177.4c-0.2,0-0.3-0.1-0.4-0.2l-13.5-23.5c-0.1-0.2,0-0.5,0.2-0.6c0.2-0.1,0.5,0,0.6,0.2l13.5,23.5
	c0.1,0.2,0,0.5-0.2,0.6C90,177.4,89.9,177.4,89.8,177.4L89.8,177.4z"/>
<path class="st0" d="M104.4,169c-0.1,0-0.3-0.1-0.4-0.2l-13.6-23.5c-0.1-0.2-0.1-0.5,0.2-0.6c0.2-0.1,0.5,0,0.6,0.2l13.6,23.5
	c0.1,0.2,0.1,0.5-0.2,0.6C104.6,169,104.5,169,104.4,169L104.4,169z"/>
<path class="st0" d="M119,160.6c-0.2,0-0.3-0.1-0.4-0.2l-13.6-23.5c-0.1-0.2,0-0.5,0.2-0.6c0.2-0.1,0.5,0,0.6,0.2l13.6,23.5
	c0.1,0.2,0,0.5-0.2,0.6C119.2,160.5,119.1,160.6,119,160.6L119,160.6z"/>
<path class="st0" d="M133.6,152.1c-0.2,0-0.3-0.1-0.4-0.2l-13.5-23.5c-0.1-0.2,0-0.5,0.2-0.6c0.2-0.1,0.5,0,0.6,0.2l13.5,23.5
	c0.1,0.2,0,0.5-0.2,0.6C133.8,152.1,133.7,152.1,133.6,152.1L133.6,152.1z"/>
<path class="st0" d="M155.3,156c-0.1,0-0.3-0.1-0.4-0.2l-3.5-6c-0.1-0.2-0.1-0.5,0.2-0.6c0.2-0.1,0.5-0.1,0.6,0.2l3.5,6
	c0.1,0.2,0.1,0.5-0.2,0.6C155.5,156,155.4,156,155.3,156L155.3,156z"/>
<path class="st0" d="M148.2,143.7c-0.2,0-0.3-0.1-0.4-0.2L134.3,120c-0.1-0.2-0.1-0.5,0.2-0.6c0.2-0.1,0.5,0,0.6,0.2l13.6,23.5
	c0.1,0.2,0,0.5-0.2,0.6C148.4,143.7,148.3,143.7,148.2,143.7L148.2,143.7z"/>
<path class="st0" d="M166.7,142.1c-0.2,0-0.3-0.1-0.4-0.2l-17.6-30.5c-0.1-0.2,0-0.5,0.2-0.6c0.2-0.1,0.5,0,0.6,0.2l17.6,30.5
	c0.1,0.2,0,0.5-0.2,0.6C166.9,142.1,166.8,142.1,166.7,142.1L166.7,142.1z"/>
<path class="st0" d="M177.8,127.5c-0.2,0-0.3-0.1-0.4-0.2l-21.5-37.2c-0.1-0.2-0.1-0.5,0.2-0.6c0.2-0.1,0.5,0,0.6,0.2l21.5,37.2
	c0.1,0.2,0,0.5-0.2,0.6C177.9,127.5,177.8,127.5,177.8,127.5L177.8,127.5z"/>
<path class="st0" d="M188.3,112.1c-0.1,0-0.3-0.1-0.4-0.2l-9.7-16.7c-0.1-0.2,0-0.5,0.2-0.6c0.2-0.1,0.5,0,0.6,0.2l9.7,16.7
	c0.1,0.2,0,0.5-0.2,0.6C188.4,112,188.4,112.1,188.3,112.1L188.3,112.1z"/>
<path class="st0" d="M52.6,186.6c-0.1,0-0.1,0-0.2-0.1c-0.2-0.1-0.3-0.4-0.2-0.6l4.4-7.6c0.1-0.2,0.4-0.3,0.6-0.2
	c0.2,0.1,0.3,0.4,0.2,0.6l-4.4,7.6C52.9,186.5,52.8,186.6,52.6,186.6L52.6,186.6z"/>
<path class="st0" d="M45.1,182.8c-0.1,0-0.1,0-0.2-0.1c-0.2-0.1-0.3-0.4-0.2-0.6L56,162.6c0.1-0.2,0.4-0.3,0.6-0.2
	c0.2,0.1,0.3,0.4,0.2,0.6l-11.2,19.5C45.4,182.7,45.3,182.8,45.1,182.8L45.1,182.8z"/>
<path class="st0" d="M37.8,178.5c-0.1,0-0.1,0-0.2-0.1c-0.2-0.1-0.3-0.4-0.2-0.6l11.3-19.5c0.1-0.2,0.4-0.3,0.6-0.2
	c0.2,0.1,0.3,0.4,0.2,0.6l-11.3,19.5C38.1,178.5,38,178.5,37.8,178.5L37.8,178.5z"/>
<path class="st0" d="M30.5,174.3c-0.1,0-0.1,0-0.2-0.1c-0.2-0.1-0.3-0.4-0.2-0.6l11.3-19.5c0.1-0.2,0.4-0.3,0.6-0.2
	c0.2,0.1,0.3,0.4,0.2,0.6l-11.3,19.5C30.8,174.2,30.7,174.3,30.5,174.3L30.5,174.3z"/>
<path class="st0" d="M28.6,160.7c-0.1,0-0.1,0-0.2-0.1c-0.2-0.1-0.3-0.4-0.2-0.6l5.7-9.8c0.1-0.2,0.4-0.3,0.6-0.2
	c0.2,0.1,0.3,0.4,0.2,0.6l-5.7,9.8C28.9,160.7,28.8,160.7,28.6,160.7L28.6,160.7z"/>
<path class="st0" d="M143.7,105.5c-0.1,0-0.1,0-0.2-0.1c-0.2-0.1-0.3-0.4-0.2-0.6l7-12.1c0.1-0.2,0.4-0.3,0.6-0.2
	c0.2,0.1,0.3,0.4,0.2,0.6l-7,12.1C144,105.4,143.9,105.5,143.7,105.5L143.7,105.5z"/>
<path class="st0" d="M136.4,101.4c-0.1,0-0.2,0-0.2-0.1c-0.2-0.1-0.3-0.4-0.2-0.6l14.6-25.2c0.1-0.2,0.4-0.3,0.6-0.2
	c0.2,0.1,0.3,0.4,0.2,0.6l-14.6,25.2C136.6,101.3,136.5,101.4,136.4,101.4L136.4,101.4z"/>
<path class="st0" d="M129.1,97.2c-0.1,0-0.1,0-0.2-0.1c-0.2-0.1-0.3-0.4-0.2-0.6l9.6-16.6c0.1-0.2,0.4-0.3,0.6-0.2
	c0.2,0.1,0.3,0.4,0.2,0.6L129.5,97C129.4,97.1,129.2,97.2,129.1,97.2L129.1,97.2z"/>
<path class="st0" d="M121.8,93c-0.1,0-0.1,0-0.2-0.1c-0.2-0.1-0.3-0.4-0.2-0.6l11.3-19.7c0.1-0.2,0.4-0.3,0.6-0.2
	c0.2,0.1,0.3,0.4,0.2,0.6l-11.3,19.7C122.1,92.9,122,93,121.8,93L121.8,93z"/>
<path class="st0" d="M134.4,118.2c-0.1,0-0.1,0-0.2-0.1c-0.2-0.1-0.3-0.4-0.2-0.6l6.7-11.7c0.1-0.2,0.4-0.3,0.6-0.2
	c0.2,0.1,0.3,0.4,0.2,0.6l-6.7,11.7C134.7,118.1,134.5,118.2,134.4,118.2L134.4,118.2z"/>
<path class="st0" d="M119.5,127c-0.1,0-0.1,0-0.2-0.1c-0.2-0.1-0.3-0.4-0.2-0.6l14.6-25.2c0.1-0.2,0.4-0.3,0.6-0.2
	c0.2,0.1,0.3,0.4,0.2,0.6l-14.6,25.2C119.8,126.9,119.7,127,119.5,127L119.5,127z"/>
<path class="st0" d="M104.7,135.9c-0.1,0-0.1,0-0.2-0.1c-0.2-0.1-0.3-0.4-0.2-0.6l22.3-38.7c0.1-0.2,0.4-0.3,0.6-0.2
	c0.2,0.1,0.3,0.4,0.2,0.6l-22.3,38.7C105,135.8,104.8,135.9,104.7,135.9L104.7,135.9z"/>
<path class="st0" d="M89.8,144.7c-0.1,0-0.1,0-0.2-0.1c-0.2-0.1-0.3-0.4-0.2-0.6l30-52c0.1-0.2,0.4-0.3,0.6-0.2
	c0.2,0.1,0.3,0.4,0.2,0.6l-30,52C90.1,144.6,90,144.7,89.8,144.7L89.8,144.7z"/>
<path class="st0" d="M75.3,153.1c-0.1,0-0.1,0-0.2-0.1c-0.2-0.1-0.3-0.4-0.2-0.6l30-52c0.1-0.2,0.4-0.3,0.6-0.2
	c0.2,0.1,0.3,0.4,0.2,0.6l-30,52C75.6,153.1,75.4,153.1,75.3,153.1L75.3,153.1z"/>
<path class="st0" d="M59,164.4c-0.1,0-0.1,0-0.2-0.1c-0.2-0.1-0.3-0.4-0.2-0.6l31.7-55c0.1-0.2,0.4-0.3,0.6-0.2
	c0.2,0.1,0.3,0.4,0.2,0.6l-31.7,55C59.3,164.3,59.1,164.4,59,164.4L59,164.4z"/>
<path class="st0" d="M52,159.6c-0.1,0-0.1,0-0.2-0.1c-0.2-0.1-0.3-0.4-0.2-0.6l21.1-36.7c0.1-0.2,0.4-0.3,0.6-0.2
	c0.2,0.1,0.3,0.4,0.2,0.6l-21.1,36.7C52.3,159.6,52.2,159.6,52,159.6L52,159.6z"/>
<path class="st0" d="M44.9,155.1c-0.1,0-0.1,0-0.2-0.1c-0.2-0.1-0.3-0.4-0.2-0.6l16.1-27.9c0.1-0.2,0.4-0.3,0.6-0.2
	c0.2,0.1,0.3,0.4,0.2,0.6l-16.1,27.9C45.2,155.1,45.1,155.1,44.9,155.1L44.9,155.1z"/>
<path class="st0" d="M37.9,150.5c-0.1,0-0.1,0-0.2-0.1c-0.2-0.1-0.3-0.4-0.2-0.6l8.3-14.4c0.1-0.2,0.4-0.3,0.6-0.2
	c0.2,0.1,0.3,0.4,0.2,0.6l-8.3,14.4C38.1,150.4,38,150.5,37.9,150.5L37.9,150.5z"/>
<path class="st0" d="M146.5,160.5c-0.1,0-0.1,0-0.2-0.1c-0.2-0.1-0.3-0.4-0.2-0.6l5.6-9.6c0.1-0.2,0.4-0.3,0.6-0.2
	c0.2,0.1,0.3,0.4,0.2,0.6l-5.6,9.6C146.8,160.4,146.7,160.5,146.5,160.5L146.5,160.5z"/>
<path class="st0" d="M139.1,156.4c-0.1,0-0.1,0-0.2-0.1c-0.2-0.1-0.3-0.4-0.2-0.6l6.3-10.9c0.1-0.2,0.4-0.3,0.6-0.2
	c0.2,0.1,0.3,0.4,0.2,0.6l-6.3,10.9C139.4,156.3,139.3,156.4,139.1,156.4L139.1,156.4z"/>
<path class="st0" d="M161.5,91.7c-0.1,0-0.1,0-0.2-0.1c-0.2-0.1-0.3-0.4-0.2-0.6l6.7-11.6c0.1-0.2,0.4-0.3,0.6-0.2
	c0.2,0.1,0.3,0.4,0.2,0.6l-6.7,11.6C161.8,91.6,161.7,91.7,161.5,91.7L161.5,91.7z"/>
<path class="st0" d="M179.7,93.9c-0.1,0-0.1,0-0.2-0.1c-0.2-0.1-0.3-0.4-0.2-0.6l3-5.2c0.1-0.2,0.4-0.3,0.6-0.2
	c0.2,0.1,0.3,0.4,0.2,0.6l-3,5.2C180,93.8,179.8,93.9,179.7,93.9L179.7,93.9z"/>
</svg>
