<?xml version="1.0" encoding="utf-8"?>
<!-- Generator: Adobe Illustrator 24.1.2, SVG Export Plug-In . SVG Version: 6.00 Build 0)  -->
<svg version="1.1" id="Camada_1" xmlns="http://www.w3.org/2000/svg" xmlns:xlink="http://www.w3.org/1999/xlink" x="0px" y="0px"
	 viewBox="0 0 183 185.9" style="enable-background:new 0 0 183 185.9;" xml:space="preserve">
<style type="text/css">
	.st0{fill:#007AC0;}
</style>
<path class="st0" d="M82,84.6c-0.5,0-1-0.3-1.2-0.7c-0.4-0.7-0.2-1.5,0.5-1.9l12.9-7.4l1.1-0.7c0.4-0.3,0.9-0.3,1.3-0.1l0.3,0.1
	c0.7,0.3,1.1,1.1,0.8,1.8c-0.2,0.6-0.8,0.9-1.4,0.9l-0.6,0.4c0,0,0,0-0.1,0l-12.9,7.4C82.4,84.5,82.2,84.6,82,84.6L82,84.6z"/>
<path class="st0" d="M86.8,161.1c-0.5,0-1-0.3-1.2-0.7c-0.4-0.7-0.2-1.5,0.5-1.9l76-43.8l-43.7-25.2c-0.7-0.4-0.9-1.2-0.5-1.9
	c0.4-0.7,1.2-0.9,1.9-0.5l45.8,26.4c0.4,0.2,0.7,0.7,0.7,1.2s-0.3,1-0.7,1.2l-78.1,45C87.3,161,87,161.1,86.8,161.1L86.8,161.1z"/>
<path class="st0" d="M175.8,94.2c-0.5,0-0.9-0.2-1.2-0.7c-0.4-0.7-0.2-1.5,0.5-1.9c0.4-0.2,0.8-0.4,1.2-0.6c0.4-0.1,0.8-0.2,1.1-0.3
	c0.1,0,0.2,0,0.4,0l0.1,0c0.2,0,0.5,0,0.8,0c0.2,0,0.4,0.1,0.6,0.1l0.1,0c0.4,0.1,0.7,0.2,0.9,0.3c0.1,0,0.1,0.1,0.2,0.1
	c0.7,0.3,1.1,1.1,0.9,1.8c-0.3,0.7-1.1,1.1-1.8,0.9c-0.1,0-0.2-0.1-0.3-0.1c-0.1-0.1-0.1-0.1-0.2-0.1c0,0-0.1,0-0.1,0l-0.2,0
	c0,0-0.1,0-0.1,0c-0.1,0-0.1,0-0.1,0c-0.1,0-0.3,0-0.4,0c0,0,0,0-0.1,0c-0.3,0.1-0.5,0.1-0.7,0.2c-0.3,0.1-0.5,0.2-0.7,0.4
	C176.3,94.1,176,94.2,175.8,94.2L175.8,94.2z"/>
<path class="st0" d="M168,100.7c-0.2,0-0.5-0.1-0.7-0.2c-0.7-0.4-0.9-1.2-0.5-1.9c0.6-1,1.1-1.9,2.1-2.7c0.8-0.9,1.6-1.5,2.6-2.1
	c0.7-0.4,1.5-0.2,1.9,0.4c0.4,0.6,0.2,1.5-0.4,1.9c-0.8,0.5-1.4,1-2,1.7c0,0-0.1,0.1-0.1,0.1c-0.7,0.6-1.1,1.2-1.6,2.1
	C169,100.4,168.5,100.7,168,100.7L168,100.7z"/>
<path class="st0" d="M168,100.7c-0.2,0-0.5-0.1-0.7-0.2l-42.9-24.8c-0.7-0.4-0.9-1.2-0.5-1.9c0.4-0.7,1.2-0.9,1.9-0.5L168.5,98
	c0.5,0.2,0.9,0.7,0.9,1.3v0c0,0.5-0.3,1-0.7,1.2C168.5,100.7,168.2,100.7,168,100.7L168,100.7z"/>
<path class="st0" d="M166.2,106.5c-0.8,0-1.4-0.6-1.4-1.4c0-0.7,0.2-1.3,0.3-1.9c0-0.3,0.1-0.5,0.1-0.7c0-0.1,0.1-0.3,0.1-0.4
	c0-0.2,0-0.3,0.1-0.5c0.3-0.8,0.6-1.4,1-2.2c0.1-0.2,0.3-0.5,0.4-0.7c0.3-0.7,1.2-1,1.9-0.6c0.7,0.3,1,1.2,0.6,1.9
	c-0.1,0.3-0.3,0.5-0.4,0.8c-0.3,0.6-0.6,1.1-0.8,1.7c0,0.2-0.1,0.4-0.1,0.6c0,0.2-0.1,0.3-0.1,0.4c0,0.1,0,0.3-0.1,0.4
	c-0.1,0.4-0.3,0.9-0.3,1.2C167.6,105.9,167,106.5,166.2,106.5L166.2,106.5z"/>
<path class="st0" d="M164.9,116c-0.4,0-0.8-0.2-1-0.5c-0.5-0.6-0.5-1.5,0.1-2c0.2-0.1,0.3-0.3,0.4-0.4c0-0.1,0.1-0.1,0.1-0.2
	c0.1,0,0.1-0.1,0.3-0.3l0-0.1c0-0.1,0-0.1,0.1-0.2v-0.4c0-0.8,0.6-1.4,1.4-1.4c0.8,0,1.4,0.6,1.4,1.4v0.7c0,0.3-0.1,0.5-0.2,0.8
	l0,0.1c-0.1,0.2-0.2,0.4-0.4,0.7c-0.2,0.3-0.4,0.5-0.6,0.7c-0.2,0.3-0.4,0.5-0.6,0.6C165.5,115.9,165.2,116,164.9,116L164.9,116z
	 M167.3,113.7L167.3,113.7L167.3,113.7L167.3,113.7z"/>
<path class="st0" d="M181.6,97.6c-0.8,0-1.4-0.6-1.4-1.4c0-1.5-0.5-2.3-1-2.6c-0.9-0.5-2.1-0.1-2.9,0.4c-0.7,0.4-1.5,0.1-1.9-0.5
	c-0.4-0.7-0.1-1.5,0.5-1.9c2-1.2,4-1.3,5.7-0.4c1.5,0.9,2.4,2.7,2.4,5C183,97,182.4,97.6,181.6,97.6L181.6,97.6z"/>
<path class="st0" d="M166.2,106.5c-0.8,0-1.4-0.6-1.4-1.4c0-2,0.7-4.3,2-6.5c1.1-2.1,2.8-3.9,4.7-4.9c0.7-0.4,1.5-0.1,1.9,0.5
	c0.4,0.7,0.1,1.5-0.6,1.9c-1.4,0.8-2.7,2.2-3.6,3.8c0,0,0,0,0,0.1c-1,1.7-1.6,3.5-1.6,5.1C167.6,105.9,167,106.5,166.2,106.5
	L166.2,106.5z"/>
<path class="st0" d="M121.3,62.5c-0.5,0-0.9-0.2-1.2-0.7c-0.4-0.7-0.2-1.5,0.5-1.9l2.2-1.3l8.7-5l-12.2-7.1
	c-0.7-0.4-0.9-1.2-0.5-1.9c0.4-0.7,1.2-0.9,1.9-0.5l14.3,8.3c0.4,0.3,0.7,0.7,0.7,1.2c0,0.5-0.3,1-0.7,1.2L122,62.3
	C121.7,62.5,121.5,62.5,121.3,62.5L121.3,62.5z"/>
<path class="st0" d="M120.7,62.7c-0.4,0-0.7-0.1-0.9-0.2c-0.7-0.3-1.1-1.1-0.8-1.8c0.3-0.7,1-1,1.7-0.8c0.2-0.1,0.4-0.1,0.6-0.1
	c0.8,0,1.4,0.6,1.4,1.4c0,0.3-0.1,1.1-1.2,1.4l0,0C121.1,62.7,120.9,62.7,120.7,62.7L120.7,62.7z M119.9,61.1L119.9,61.1L119.9,61.1
	L119.9,61.1z M119.9,61.1L119.9,61.1L119.9,61.1L119.9,61.1z M119.9,61.1C119.9,61.1,119.9,61.1,119.9,61.1
	C119.9,61.1,119.9,61.1,119.9,61.1L119.9,61.1z M119.9,61.1L119.9,61.1L119.9,61.1L119.9,61.1z M119.9,61.1L119.9,61.1L119.9,61.1
	L119.9,61.1z"/>
<path class="st0" d="M96.9,35.1c-0.8,0-1.4-0.6-1.4-1.4c0-0.6,0-1.2,0.2-1.8c0-0.3,0.1-0.5,0.1-0.6c0,0,0-0.1,0-0.1
	c0-0.1,0-0.3,0.1-0.4c0.1-0.4,0.3-0.8,0.4-1.2c0.1-0.5,0.3-0.9,0.4-1.2c0.2-0.4,0.3-0.8,0.5-1.1c0.4-0.7,1.2-0.9,1.9-0.6
	c0.7,0.4,0.9,1.2,0.6,1.9c-0.2,0.3-0.3,0.6-0.4,1c0,0,0,0.1,0,0.1c0,0.1-0.1,0.3-0.2,0.4c0,0.1,0,0.3-0.1,0.4
	c-0.1,0.4-0.3,0.8-0.4,1.2c0,0.2-0.1,0.4-0.1,0.5c0,0,0,0.1,0,0.1c0,0.2,0,0.3-0.1,0.4c-0.1,0.2-0.1,0.7-0.1,1.1
	C98.3,34.5,97.7,35.1,96.9,35.1L96.9,35.1z M95.8,31.3L95.8,31.3L95.8,31.3L95.8,31.3z M95.8,31.2L95.8,31.2L95.8,31.2L95.8,31.2z
	 M99.1,29.9C99.1,30,99.1,30,99.1,29.9C99.1,30,99.1,30,99.1,29.9L99.1,29.9z"/>
<path class="st0" d="M82.5,84.9c-0.3,0-0.5-0.1-0.7-0.2l-0.5-0.3L56.1,69.8c-0.4-0.3-0.7-0.7-0.7-1.2c0-0.5,0.3-1,0.7-1.2L69,60
	c0.4-0.2,1-0.2,1.4,0l25.2,14.6c0.7,0.4,0.9,1.2,0.5,1.9c-0.4,0.7-1.2,0.9-1.9,0.5L69.7,62.8l-10.1,5.8L82.7,82l0.5,0.3
	c0.7,0.4,0.8,1.3,0.4,1.9C83.4,84.7,82.9,84.9,82.5,84.9L82.5,84.9z"/>
<path class="st0" d="M108.3,114.3c-0.2,0-0.5-0.1-0.7-0.2L81.8,99.2c-0.1-0.1-0.3-0.2-0.4-0.3L55.7,69.5c-0.4-0.5-0.5-1.3,0-1.8
	c0.4-0.5,1.2-0.7,1.8-0.3l25.7,14.9c0.1,0.1,0.2,0.2,0.3,0.3l25.9,29.4c0.4,0.5,0.5,1.3,0,1.8C109.1,114.1,108.7,114.3,108.3,114.3
	L108.3,114.3z M83.4,96.9l18.3,10.6L81.6,84.6L63.4,74L83.4,96.9L83.4,96.9z"/>
<path class="st0" d="M96.9,35.1c-0.8,0-1.4-0.6-1.4-1.4c0-0.6,0-1.2,0.2-1.8c0-0.3,0.1-0.5,0.1-0.6c0,0,0-0.1,0-0.1
	c0-0.1,0-0.2,0.1-0.4c0.2-0.5,0.3-0.9,0.5-1.4c0,0,0-0.1,0-0.1c0,0,0-0.1,0.1-0.2c0.1-0.2,0.1-0.4,0.3-0.7c0.2-0.4,0.3-0.8,0.5-1.1
	c0-0.1,0.1-0.1,0.1-0.2c0.2-0.3,0.4-0.6,0.7-0.9l0.3-0.4c0.3-0.5,0.7-1,1-1.3l0.2-0.2c0.8-0.8,1.5-1.5,2.4-2
	c0.7-0.4,1.5-0.2,1.9,0.5c0.4,0.7,0.2,1.5-0.5,1.9c-0.6,0.4-1.2,0.9-1.9,1.6l-0.2,0.1c-0.1,0.1-0.4,0.5-0.5,0.6
	c0,0.1-0.1,0.2-0.2,0.3l-0.4,0.5c-0.2,0.3-0.4,0.5-0.6,0.8c-0.1,0.3-0.3,0.5-0.4,0.9c0,0.1,0,0.1-0.1,0.2c0,0,0,0.1,0,0.1
	c0,0.2-0.1,0.4-0.2,0.7c-0.2,0.4-0.3,0.7-0.4,1.1c0,0.2-0.1,0.4-0.1,0.5c0,0,0,0.1,0,0.1c0,0.2,0,0.3-0.1,0.4
	c-0.1,0.2-0.1,0.7-0.1,1.1C98.3,34.5,97.7,35.1,96.9,35.1L96.9,35.1z M95.8,31.3L95.8,31.3L95.8,31.3L95.8,31.3z"/>
<path class="st0" d="M119.9,21.9c-0.8,0-1.4-0.6-1.4-1.4c0-0.9-0.2-2-1-2.6c-0.1,0-0.2-0.1-0.2-0.1c-0.1-0.1-0.1-0.1-0.2-0.1
	c-0.1,0-0.1,0-0.2,0c-0.3-0.1-0.6-0.1-0.7,0c-0.1,0-0.1,0-0.2,0c0,0-0.1,0-0.1,0c-0.1,0.1-0.3,0.1-0.4,0.1l-0.1,0
	c-0.1,0-0.2,0.1-0.3,0.1c0,0,0,0,0,0c-0.2,0.1-0.3,0.2-0.6,0.3c-0.7,0.3-1.5,0-1.8-0.7c-0.3-0.7,0-1.5,0.7-1.8
	c0.2-0.1,0.3-0.1,0.4-0.2c0.1-0.1,0.2-0.1,0.3-0.1c0.1,0,0.2-0.1,0.3-0.1c0.1,0,0.2-0.1,0.3-0.1c0.1,0,0.1,0,0.2-0.1
	c0.3-0.1,0.5-0.2,0.7-0.2l0.1,0c0,0,0.1,0,0.1,0c0.5-0.1,1.2-0.1,1.8,0c0.4,0.1,0.6,0.2,0.9,0.2c0.1,0,0.1,0.1,0.2,0.1
	c0.1,0,0.1,0.1,0.2,0.1c1.6,0.9,2.6,2.7,2.6,5.1C121.3,21.3,120.7,21.9,119.9,21.9L119.9,21.9z M116.1,17.7
	C116.1,17.7,116.1,17.7,116.1,17.7S116.1,17.7,116.1,17.7L116.1,17.7z"/>
<path class="st0" d="M108.3,114.3c-0.4,0-0.8-0.2-1-0.5L81.4,84.4c-0.5-0.6-0.5-1.5,0.1-2c0.6-0.5,1.5-0.5,2,0.1l24.4,27.7l9.9-22.6
	L131.2,57l-9.2,5.3c-0.7,0.4-1.5,0.2-1.9-0.5c-0.4-0.7-0.2-1.5,0.5-1.9l2.2-1.3l10.8-6.2c0.5-0.3,1.2-0.2,1.6,0.2
	c0.4,0.4,0.6,1,0.3,1.6l-25.9,59.2c-0.2,0.4-0.6,0.7-1.1,0.8C108.5,114.3,108.4,114.3,108.3,114.3L108.3,114.3z"/>
<path class="st0" d="M26.8,116.5c-0.5,0-1-0.3-1.2-0.7c-0.4-0.7-0.2-1.5,0.5-1.9L73,86.8c0.7-0.4,1.5-0.2,1.9,0.5
	c0.4,0.7,0.2,1.5-0.5,1.9l-46.9,27.2C27.2,116.5,27,116.5,26.8,116.5L26.8,116.5z"/>
<path class="st0" d="M179.9,93.8c-0.2,0-0.5-0.1-0.7-0.2l-50.1-28.9c-0.7-0.4-0.9-1.2-0.5-1.9c0.4-0.7,1.2-0.9,1.9-0.5l50.1,28.9
	c0.7,0.4,0.9,1.2,0.5,1.9C180.9,93.6,180.4,93.8,179.9,93.8L179.9,93.8z"/>
<path class="st0" d="M172.2,96.3c-0.5,0-1-0.3-1.2-0.7c-0.4-0.7-0.2-1.5,0.5-1.9l3.6-2.1c0.7-0.4,1.5-0.2,1.9,0.5
	c0.4,0.7,0.2,1.5-0.5,1.9l-3.6,2.1C172.6,96.2,172.4,96.3,172.2,96.3L172.2,96.3z"/>
<path class="st0" d="M166.2,113.5c-0.8,0-1.4-0.6-1.4-1.4v-7c0-0.8,0.6-1.4,1.4-1.4c0.8,0,1.4,0.6,1.4,1.4v7
	C167.6,112.9,167,113.5,166.2,113.5L166.2,113.5z"/>
<path class="st0" d="M164.9,116c-0.2,0-0.5-0.1-0.7-0.2l-45.8-26.4c-0.7-0.4-0.9-1.2-0.5-1.9c0.4-0.7,1.2-0.9,1.9-0.5l45.8,26.4
	c0.7,0.4,0.9,1.2,0.5,1.9C165.8,115.8,165.3,116,164.9,116L164.9,116z"/>
<path class="st0" d="M96.4,76.5c-0.2,0-0.3,0-0.5-0.1l-0.3-0.1c-0.7-0.3-1.1-1.1-0.8-1.8c0.3-0.7,1.1-1.1,1.8-0.8l0.3,0.1
	c0.7,0.3,1.1,1.1,0.8,1.8C97.5,76.2,96.9,76.5,96.4,76.5L96.4,76.5z"/>
<path class="st0" d="M75.8,151.9c-0.5,0-1-0.3-1.2-0.7c-0.4-0.7-0.2-1.5,0.5-1.9l3.6-2.1c0.7-0.4,1.5-0.2,1.9,0.5
	c0.4,0.7,0.2,1.5-0.5,1.9l-3.6,2.1C76.3,151.8,76.1,151.9,75.8,151.9L75.8,151.9z"/>
<path class="st0" d="M79.5,149.8c-0.5,0-1-0.3-1.2-0.8c-0.3-0.7-0.1-1.5,0.6-1.9c1.9-0.9,3.5-1.5,5.8-0.1c0.7,0.4,0.9,1.3,0.4,1.9
	c-0.4,0.7-1.3,0.9-1.9,0.4c-1-0.6-1.5-0.6-3.1,0.2C79.9,149.7,79.7,149.8,79.5,149.8L79.5,149.8z"/>
<path class="st0" d="M84,149.6c-0.2,0-0.5-0.1-0.7-0.2l-69-39.9c-0.7-0.4-0.9-1.2-0.5-1.9c0.4-0.7,1.2-0.9,1.9-0.5l69,39.9
	c0.7,0.4,0.9,1.2,0.5,1.9C84.9,149.4,84.4,149.6,84,149.6L84,149.6z"/>
<path class="st0" d="M10.8,110.1c-0.5,0-1-0.3-1.2-0.8c-0.4-0.7-0.1-1.5,0.6-1.9c1.7-0.8,3.1-1.4,5.3-0.5c0.7,0.3,1,1.1,0.7,1.8
	c-0.3,0.7-1.1,1-1.8,0.7c-1.1-0.4-1.6-0.3-3,0.4C11.3,110.1,11.1,110.1,10.8,110.1L10.8,110.1z"/>
<path class="st0" d="M7.2,112.2c-0.5,0-1-0.3-1.2-0.7c-0.4-0.7-0.1-1.5,0.5-1.9l3.6-2c0.7-0.4,1.5-0.1,1.9,0.5
	c0.4,0.7,0.1,1.5-0.5,1.9l-3.6,2C7.7,112.1,7.4,112.2,7.2,112.2L7.2,112.2z"/>
<path class="st0" d="M3,116.6c-0.2,0-0.5-0.1-0.7-0.2c-0.7-0.4-0.9-1.3-0.5-1.9c1.3-2.1,2.6-3.5,4.6-4.8c0.6-0.4,1.5-0.3,1.9,0.4
	c0.4,0.6,0.3,1.5-0.4,1.9c-1.6,1.1-2.7,2.2-3.7,4C4,116.4,3.5,116.6,3,116.6L3,116.6z"/>
<path class="st0" d="M71.7,156.2c-0.2,0-0.5-0.1-0.7-0.2L2.4,116.4c-0.7-0.4-0.9-1.2-0.5-1.9c0.4-0.7,1.2-0.9,1.9-0.5l68.6,39.7
	c0.7,0.4,0.9,1.2,0.5,1.9C72.6,156,72.2,156.2,71.7,156.2L71.7,156.2z"/>
<path class="st0" d="M71.7,156.2c-0.3,0-0.5-0.1-0.7-0.2c-0.7-0.4-0.9-1.3-0.4-1.9c1.4-2.3,3-3.9,4.6-4.8l0,0c0,0,0,0,0,0
	c0.6-0.4,1.5-0.3,1.9,0.3c0.4,0.6,0.3,1.5-0.3,1.9c0,0-0.1,0.1-0.2,0.1c-1.5,0.8-2.8,2.6-3.6,3.8C72.6,156,72.2,156.2,71.7,156.2
	L71.7,156.2z"/>
<path class="st0" d="M1.4,122.3c-0.8,0-1.4-0.6-1.4-1.4c0-2.6,0.8-4.3,1.8-6.4c0.3-0.7,1.2-1,1.9-0.6c0.7,0.3,1,1.2,0.6,1.9
	c-0.9,1.8-1.5,3.1-1.5,5.1C2.8,121.7,2.2,122.3,1.4,122.3L1.4,122.3z"/>
<path class="st0" d="M1.4,142.1c-0.8,0-1.4-0.6-1.4-1.4V121c0-0.8,0.6-1.4,1.4-1.4c0.8,0,1.4,0.6,1.4,1.4v19.7
	C2.8,141.4,2.2,142.1,1.4,142.1L1.4,142.1z"/>
<path class="st0" d="M2.7,145.6c-0.3,0-0.7-0.1-0.9-0.3c-1.7-1.5-1.8-3.1-1.8-4.6c0-0.8,0.6-1.4,1.4-1.4c0.8,0,1.4,0.6,1.4,1.4
	c0,1.3,0.1,1.8,0.9,2.5c0.6,0.5,0.6,1.4,0.1,2C3.5,145.4,3.1,145.6,2.7,145.6L2.7,145.6z"/>
<path class="st0" d="M71.4,185.2c-0.2,0-0.5-0.1-0.7-0.2L2,145.4c-0.7-0.4-0.9-1.2-0.5-1.9c0.4-0.7,1.2-0.9,1.9-0.5l68.6,39.6
	c0.7,0.4,0.9,1.2,0.5,1.9C72.3,185,71.8,185.2,71.4,185.2L71.4,185.2z"/>
<path class="st0" d="M71.4,185.2c-0.3,0-0.7-0.1-0.9-0.4c-1.7-1.5-1.8-3.1-1.8-4.6c0-0.8,0.6-1.4,1.4-1.4c0.8,0,1.4,0.6,1.4,1.4
	c0,1.3,0.1,1.8,0.9,2.5c0.6,0.5,0.6,1.4,0.1,2C72.1,185.1,71.7,185.2,71.4,185.2L71.4,185.2z"/>
<path class="st0" d="M70,181.7c-0.8,0-1.4-0.6-1.4-1.4v-19.6c0-0.8,0.6-1.4,1.4-1.4c0.8,0,1.4,0.6,1.4,1.4v19.6
	C71.4,181.1,70.8,181.7,70,181.7L70,181.7z"/>
<path class="st0" d="M70,162.1c0,0-0.1,0-0.1,0c-0.8-0.1-1.3-0.7-1.3-1.5c0.2-2.3,0.7-4.1,1.8-6.3c0.3-0.7,1.2-1,1.9-0.6
	c0.7,0.3,1,1.2,0.6,1.9c-1,1.9-1.4,3.3-1.5,5.3C71.4,161.5,70.8,162.1,70,162.1L70,162.1z"/>
<path class="st0" d="M75.8,185.1c-0.5,0-1-0.3-1.2-0.7c-0.4-0.7-0.2-1.5,0.5-1.9l99.8-57.7c0.7-0.4,1.5-0.2,1.9,0.5
	c0.4,0.7,0.2,1.5-0.5,1.9l-99.8,57.7C76.3,185,76.1,185.1,75.8,185.1L75.8,185.1z"/>
<path class="st0" d="M175.6,127.4c-0.5,0-1-0.3-1.2-0.7c-0.4-0.7-0.1-1.5,0.5-1.9c2.8-1.6,5.3-5.7,5.3-8.9c0-0.8,0.6-1.4,1.4-1.4
	c0.8,0,1.4,0.6,1.4,1.4c0,4.3-2.9,9.3-6.7,11.4C176.1,127.4,175.9,127.4,175.6,127.4L175.6,127.4z"/>
<path class="st0" d="M181.6,117.3c-0.8,0-1.4-0.6-1.4-1.4V96.2c0-0.8,0.6-1.4,1.4-1.4c0.8,0,1.4,0.6,1.4,1.4v19.7
	C183,116.6,182.4,117.3,181.6,117.3L181.6,117.3z"/>
<path class="st0" d="M86.8,161.1c-0.5,0-1-0.3-1.2-0.7c-0.4-0.7-0.2-1.5,0.5-1.9l78.1-45c0.7-0.4,1.5-0.2,1.9,0.5
	c0.4,0.7,0.2,1.5-0.5,1.9l-78.1,45C87.3,161,87,161.1,86.8,161.1L86.8,161.1z"/>
<path class="st0" d="M86.1,161.3c-0.4,0-0.8-0.1-1-0.3c-0.4-0.2-1.1-0.8-1.1-2.2c0-0.8,0.6-1.4,1.4-1.4c0.6,0,1.1,0.4,1.3,0.9
	c0.5,0,1,0.2,1.2,0.7c0.4,0.7,0.2,1.5-0.5,1.9C87,161.2,86.5,161.3,86.1,161.3L86.1,161.3z"/>
<path class="st0" d="M85.4,160.2c-0.8,0-1.4-0.6-1.4-1.4v-7c0-0.8,0.6-1.4,1.4-1.4c0.8,0,1.4,0.6,1.4,1.4v7
	C86.8,159.6,86.2,160.2,85.4,160.2L85.4,160.2z"/>
<path class="st0" d="M85.4,153.2c-0.8,0-1.4-0.6-1.4-1.4c0-1.3-0.4-2.2-1-2.6c-0.7-0.4-1.7-0.2-2.9,0.4c-0.7,0.4-1.5,0.1-1.9-0.5
	c-0.4-0.7-0.1-1.5,0.5-1.9c2.1-1.2,4.1-1.3,5.6-0.4c1.6,0.9,2.4,2.7,2.4,5C86.8,152.5,86.2,153.2,85.4,153.2L85.4,153.2z"/>
<path class="st0" d="M70,162.1c-0.8,0-1.4-0.6-1.4-1.4c0-4.2,2.8-9.2,6.5-11.4c0.7-0.4,1.5-0.2,1.9,0.5c0.4,0.7,0.2,1.5-0.5,1.9
	c-2.8,1.6-5.1,5.7-5.1,9C71.4,161.4,70.8,162.1,70,162.1L70,162.1z"/>
<path class="st0" d="M73.3,185.9c-0.8,0-1.5-0.2-2.2-0.6c-1.6-0.9-2.4-2.7-2.4-5c0-0.8,0.6-1.4,1.4-1.4c0.8,0,1.4,0.6,1.4,1.4
	c0,1.3,0.4,2.2,1,2.6c0.6,0.4,1.6,0.2,2.7-0.4c0.7-0.4,1.5-0.2,1.9,0.5c0.4,0.7,0.2,1.5-0.5,1.9C75.4,185.6,74.3,185.9,73.3,185.9
	L73.3,185.9z"/>
<path class="st0" d="M96.9,74.9c-0.8,0-1.4-0.6-1.4-1.4V33.7c0-0.8,0.6-1.4,1.4-1.4c0.8,0,1.4,0.6,1.4,1.4v39.8
	C98.3,74.3,97.7,74.9,96.9,74.9L96.9,74.9z"/>
<path class="st0" d="M98.5,29.3c-0.2,0-0.5-0.1-0.7-0.2L72.1,14.2c-0.7-0.4-0.9-1.2-0.5-1.9c0.4-0.7,1.2-0.9,1.9-0.5l25.7,14.9
	c0.7,0.4,0.9,1.2,0.5,1.9C99.5,29.1,99,29.3,98.5,29.3L98.5,29.3z"/>
<path class="st0" d="M71.2,20.2c-0.8,0-1.4-0.6-1.4-1.4c0-2.4,0.5-4.2,1.8-6.5c0.4-0.7,1.2-0.9,1.9-0.5c0.7,0.4,0.9,1.2,0.5,1.9
	c-1.1,1.9-1.5,3.2-1.5,5.1C72.6,19.6,72,20.2,71.2,20.2L71.2,20.2z"/>
<path class="st0" d="M71.2,60c-0.8,0-1.4-0.6-1.4-1.4V18.8c0-0.8,0.6-1.4,1.4-1.4c0.8,0,1.4,0.6,1.4,1.4v39.8
	C72.6,59.4,72,60,71.2,60L71.2,60z"/>
<path class="st0" d="M69.7,62.6c-0.4,0-0.8-0.2-1.1-0.5c-0.5-0.6-0.3-1.5,0.3-2c0.5-0.4,0.8-0.9,1-1.7c0.1-0.8,0.8-1.3,1.6-1.2
	c0.8,0.1,1.3,0.8,1.2,1.6c-0.2,1.4-0.9,2.6-2,3.5C70.3,62.5,70,62.6,69.7,62.6L69.7,62.6z"/>
<path class="st0" d="M94.9,77.2c-0.2,0-0.5-0.1-0.7-0.2L69,62.4c-0.7-0.4-0.9-1.2-0.5-1.9c0.4-0.7,1.2-0.9,1.9-0.5l25.2,14.6
	c0.7,0.4,0.9,1.2,0.5,1.9C95.8,76.9,95.4,77.2,94.9,77.2L94.9,77.2z"/>
<path class="st0" d="M118.1,18.1c-0.2,0-0.5-0.1-0.7-0.2L91.5,3c-0.7-0.4-0.9-1.2-0.5-1.9c0.4-0.7,1.2-0.9,1.9-0.5l25.9,14.9
	c0.7,0.4,0.9,1.2,0.5,1.9C119.1,17.8,118.6,18.1,118.1,18.1L118.1,18.1z"/>
<path class="st0" d="M88.1,3.6c-0.5,0-1-0.3-1.2-0.8c-0.4-0.7-0.1-1.5,0.6-1.9c1.5-0.7,3.2-1.5,5.4-0.4c0.7,0.3,1,1.2,0.7,1.9
	c-0.3,0.7-1.2,1-1.9,0.7c-0.9-0.4-1.5-0.3-2.9,0.4C88.5,3.5,88.3,3.6,88.1,3.6L88.1,3.6z"/>
<path class="st0" d="M77,10c-0.5,0-0.9-0.2-1.2-0.7c-0.4-0.7-0.2-1.5,0.5-1.9L87.4,1c0.7-0.4,1.5-0.2,1.9,0.5
	c0.4,0.7,0.2,1.5-0.5,1.9L77.7,9.8C77.5,10,77.2,10,77,10L77,10z"/>
<path class="st0" d="M72.8,14.4c-0.2,0-0.5-0.1-0.7-0.2c-0.7-0.4-0.9-1.3-0.5-1.9c1.2-2.1,2.4-3.5,4.6-4.9c0.7-0.4,1.5-0.2,1.9,0.5
	c0.4,0.7,0.2,1.5-0.5,1.9C76,10.9,75.1,12,74,13.8C73.8,14.2,73.3,14.4,72.8,14.4L72.8,14.4z"/>
<path class="st0" d="M98.5,29.3c-0.3,0-0.6-0.1-0.8-0.3c-0.6-0.4-0.8-1.3-0.3-1.9c1.3-1.8,2.4-3.3,4.5-4.7c0.6-0.4,1.5-0.3,1.9,0.4
	c0.4,0.6,0.3,1.5-0.4,1.9c-1.6,1.1-2.4,2.1-3.8,4C99.4,29.1,99,29.3,98.5,29.3L98.5,29.3z"/>
<path class="st0" d="M102.7,24.9c-0.5,0-1-0.3-1.2-0.7c-0.4-0.7-0.2-1.5,0.5-1.9l11.3-6.5c0.7-0.4,1.5-0.2,1.9,0.5
	c0.4,0.7,0.2,1.5-0.5,1.9l-11.3,6.5C103.2,24.9,102.9,24.9,102.7,24.9L102.7,24.9z"/>
<path class="st0" d="M114,18.5c-0.5,0-1-0.3-1.2-0.8c-0.3-0.7-0.1-1.5,0.6-1.9c1.6-0.8,3.3-1.5,5.4-0.4c0.7,0.3,1,1.2,0.6,1.9
	c-0.3,0.7-1.2,1-1.9,0.6c-0.8-0.4-1.4-0.3-2.9,0.4C114.4,18.4,114.2,18.5,114,18.5L114,18.5z"/>
<path class="st0" d="M119.9,61.7c-0.8,0-1.4-0.6-1.4-1.4V20.5c0-0.8,0.6-1.4,1.4-1.4c0.8,0,1.4,0.6,1.4,1.4v39.8
	C121.3,61,120.7,61.7,119.9,61.7L119.9,61.7z"/>
<path class="st0" d="M146.8,124c-0.1,0-0.1,0-0.2-0.1c-0.2-0.1-0.3-0.4-0.1-0.5l8-13.7c0.1-0.2,0.4-0.3,0.5-0.1
	c0.2,0.1,0.3,0.4,0.1,0.5l-8,13.7C147.1,123.9,146.9,124,146.8,124L146.8,124z"/>
<path class="st0" d="M119.8,140.2c-0.1,0-0.1,0-0.2-0.1c-0.2-0.1-0.3-0.4-0.1-0.5l22.2-38.4c0.1-0.2,0.4-0.3,0.5-0.1
	c0.2,0.1,0.3,0.4,0.1,0.5L120.1,140C120,140.1,119.9,140.2,119.8,140.2L119.8,140.2z"/>
<path class="st0" d="M92.7,156.3c-0.1,0-0.1,0-0.2-0.1c-0.2-0.1-0.3-0.4-0.1-0.5l36.5-63c0.1-0.2,0.4-0.3,0.5-0.1
	c0.2,0.1,0.3,0.4,0.1,0.5l-36.5,63C93,156.3,92.9,156.3,92.7,156.3L92.7,156.3z"/>
<path class="st0" d="M80.6,146.7c-0.1,0-0.1,0-0.2-0.1c-0.2-0.1-0.3-0.4-0.1-0.5l21.4-37c0.1-0.2,0.4-0.3,0.5-0.1
	c0.2,0.1,0.3,0.4,0.1,0.5l-21.4,37C80.9,146.6,80.8,146.7,80.6,146.7L80.6,146.7z"/>
<path class="st0" d="M67.4,139c-0.1,0-0.1,0-0.2-0.1c-0.2-0.1-0.3-0.3-0.1-0.5l21.4-37c0.1-0.2,0.4-0.3,0.5-0.1
	c0.2,0.1,0.3,0.4,0.1,0.5l-21.4,37C67.6,138.9,67.5,139,67.4,139L67.4,139z"/>
<path class="st0" d="M54.1,131.4c-0.1,0-0.1,0-0.2-0.1c-0.2-0.1-0.3-0.4-0.1-0.5l22.7-39.5c0.1-0.2,0.3-0.3,0.5-0.1
	c0.2,0.1,0.3,0.4,0.1,0.5l-22.7,39.5C54.4,131.4,54.3,131.4,54.1,131.4L54.1,131.4z"/>
<path class="st0" d="M41.2,123.2c-0.1,0-0.1,0-0.2-0.1c-0.2-0.1-0.3-0.3-0.1-0.5l12.9-22.4c0.1-0.2,0.4-0.3,0.5-0.1
	c0.2,0.1,0.3,0.4,0.1,0.5L41.5,123C41.5,123.1,41.3,123.2,41.2,123.2L41.2,123.2z"/>
<path class="st0" d="M76.2,13.7c-0.1,0-0.3-0.1-0.3-0.2L75,12.1c-0.1-0.2,0-0.4,0.1-0.5c0.2-0.1,0.4,0,0.5,0.1l0.8,1.5
	c0.1,0.2,0,0.4-0.1,0.5C76.3,13.7,76.2,13.7,76.2,13.7L76.2,13.7z"/>
<path class="st0" d="M89.6,21.7c-0.1,0-0.3-0.1-0.3-0.2L81,7.3c-0.1-0.2,0-0.4,0.1-0.5c0.2-0.1,0.4,0,0.5,0.1l8.3,14.2
	c0.1,0.2,0,0.4-0.1,0.5C89.7,21.7,89.7,21.7,89.6,21.7L89.6,21.7z"/>
<path class="st0" d="M100.4,25.1c-0.1,0-0.3-0.1-0.3-0.2L87.4,3.2c-0.1-0.2,0-0.4,0.1-0.5c0.2-0.1,0.4,0,0.5,0.1l12.6,21.6
	c0.1,0.2,0,0.4-0.1,0.5C100.5,25.1,100.4,25.1,100.4,25.1L100.4,25.1z"/>
<path class="st0" d="M106.5,20.7c-0.1,0-0.3-0.1-0.3-0.2L98.4,7c-0.1-0.2,0-0.4,0.1-0.5c0.2-0.1,0.4,0,0.5,0.1l7.8,13.5
	c0.1,0.2,0,0.4-0.1,0.5C106.6,20.7,106.6,20.7,106.5,20.7L106.5,20.7z"/>
<path class="st0" d="M113,16.4c-0.1,0-0.3-0.1-0.3-0.2l-0.7-1.1c-0.1-0.2-0.1-0.4,0.1-0.5c0.2-0.1,0.4-0.1,0.5,0.1l0.7,1.1
	c0.1,0.2,0.1,0.4-0.1,0.5C113.1,16.4,113,16.4,113,16.4L113,16.4z"/>
<path class="st0" d="M127.4,56.6c-0.1,0-0.3-0.1-0.3-0.2l-4.3-7.6c-0.1-0.2,0-0.4,0.1-0.5c0.2-0.1,0.4,0,0.5,0.1l4.3,7.6
	c0.1,0.2,0,0.4-0.1,0.5C127.5,56.6,127.5,56.6,127.4,56.6L127.4,56.6z"/>
<path class="st0" d="M160,93.9c-0.1,0-0.1,0-0.2-0.1c-0.2-0.1-0.3-0.4-0.1-0.5l5-8.5c0.1-0.2,0.4-0.3,0.5-0.1
	c0.2,0.1,0.3,0.4,0.1,0.5l-5,8.5C160.3,93.8,160.2,93.9,160,93.9L160,93.9z"/>
<path class="st0" d="M146.8,86.2c-0.1,0-0.1,0-0.2-0.1c-0.2-0.1-0.3-0.4-0.1-0.5l5-8.5c0.1-0.2,0.4-0.3,0.5-0.1
	c0.2,0.1,0.3,0.4,0.1,0.5l-5,8.5C147.1,86.2,146.9,86.2,146.8,86.2L146.8,86.2z"/>
<path class="st0" d="M133.7,78.6c-0.1,0-0.1,0-0.2-0.1c-0.2-0.1-0.3-0.4-0.1-0.5l4.8-8.5c0.1-0.2,0.3-0.3,0.5-0.1
	c0.2,0.1,0.3,0.3,0.2,0.5l-4.8,8.5C134,78.5,133.8,78.6,133.7,78.6L133.7,78.6z"/>
<path class="st0" d="M124.6,90.3c-0.1,0-0.3-0.1-0.3-0.2l-2.8-4.9c-0.1-0.2,0-0.4,0.1-0.5c0.2-0.1,0.4,0,0.5,0.1l2.8,4.9
	c0.1,0.2,0,0.4-0.1,0.5C124.7,90.3,124.6,90.3,124.6,90.3L124.6,90.3z"/>
<path class="st0" d="M138.2,98.5c-0.1,0-0.3-0.1-0.3-0.2l-12.9-22.2c-0.1-0.2,0-0.4,0.1-0.5c0.2-0.1,0.4,0,0.5,0.1l12.9,22.2
	c0.1,0.2,0,0.4-0.1,0.5C138.3,98.5,138.2,98.5,138.2,98.5L138.2,98.5z"/>
<path class="st0" d="M151.4,106.2c-0.1,0-0.3-0.1-0.3-0.2l-12.9-22.4c-0.1-0.2,0-0.4,0.1-0.5c0.2-0.1,0.4,0,0.5,0.1l12.9,22.4
	c0.1,0.2,0,0.4-0.1,0.5C151.6,106.2,151.5,106.2,151.4,106.2L151.4,106.2z"/>
<path class="st0" d="M164.9,113.9c-0.1,0-0.3-0.1-0.3-0.2l-13.1-22.5c-0.1-0.2,0-0.4,0.1-0.5c0.2-0.1,0.4,0,0.5,0.1l13.1,22.5
	c0.1,0.2,0,0.4-0.1,0.5C165,113.9,164.9,113.9,164.9,113.9L164.9,113.9z"/>
<path class="st0" d="M166,100.7c-0.1,0-0.2-0.1-0.3-0.2l-0.7-0.9c-0.1-0.2-0.1-0.4,0.1-0.5c0.2-0.1,0.4-0.1,0.5,0.1l0.7,0.9
	c0.1,0.2,0.1,0.4-0.1,0.5C166.2,100.7,166.1,100.7,166,100.7L166,100.7z"/>
<path class="st0" d="M75.2,63.2c-0.1,0-0.3-0.1-0.3-0.2l-2.7-4.7c-0.1-0.2,0-0.4,0.1-0.5c0.2-0.1,0.4,0,0.5,0.1l2.7,4.7
	c0.1,0.2,0,0.4-0.1,0.5C75.3,63.2,75.2,63.2,75.2,63.2L75.2,63.2z"/>
<path class="st0" d="M88.9,71.8c-0.1,0-0.3-0.1-0.3-0.2L71.7,42.1c-0.1-0.2,0-0.4,0.1-0.5c0.2-0.1,0.4,0,0.5,0.1l16.9,29.5
	c0.1,0.2,0,0.4-0.1,0.5C89.1,71.8,89,71.8,88.9,71.8L88.9,71.8z"/>
<path class="st0" d="M96.2,69c-0.1,0-0.3-0.1-0.3-0.2L71.3,26.5c-0.1-0.2,0-0.4,0.1-0.5c0.2-0.1,0.4,0,0.5,0.1l24.5,42.3
	c0.1,0.2,0,0.4-0.1,0.5C96.4,69,96.3,69,96.2,69L96.2,69z"/>
<path class="st0" d="M96.2,53.6c-0.1,0-0.3-0.1-0.3-0.2L73.3,14.5c-0.1-0.2,0-0.4,0.1-0.5c0.2-0.1,0.4,0,0.5,0.1L96.6,53
	c0.1,0.2,0,0.4-0.1,0.5C96.4,53.6,96.3,53.6,96.2,53.6L96.2,53.6z"/>
<path class="st0" d="M95.7,37.4c-0.1,0-0.3-0.1-0.3-0.2L87.3,23c-0.1-0.2,0-0.4,0.1-0.5c0.2-0.1,0.4,0,0.5,0.1l8.1,14.2
	c0.1,0.2,0,0.4-0.1,0.5C95.9,37.4,95.8,37.4,95.7,37.4L95.7,37.4z"/>
<path class="st0" d="M61.4,70.2c-0.1,0-0.3-0.1-0.3-0.2l-1-1.8c-0.1-0.2,0-0.4,0.2-0.5c0.2-0.1,0.4,0,0.5,0.2l1,1.8
	c0.1,0.2,0,0.4-0.2,0.5C61.5,70.1,61.5,70.2,61.4,70.2L61.4,70.2z"/>
<path class="st0" d="M74.8,78.1c-0.1,0-0.3-0.1-0.3-0.2L66.4,64c-0.1-0.2,0-0.4,0.1-0.5c0.2-0.1,0.4,0,0.5,0.1l8.1,13.9
	c0.1,0.2,0,0.4-0.1,0.5C75,78.1,74.9,78.1,74.8,78.1L74.8,78.1z"/>
<path class="st0" d="M85.1,80.7c-0.1,0-0.3-0.1-0.3-0.2l-7.6-13.3c-0.1-0.2,0-0.4,0.1-0.5c0.2-0.1,0.4,0,0.5,0.1l7.6,13.3
	c0.1,0.2,0,0.4-0.1,0.5C85.3,80.7,85.2,80.7,85.1,80.7L85.1,80.7z"/>
<path class="st0" d="M91.6,76.5c-0.1,0-0.3-0.1-0.4-0.2l-0.5-1c-0.1-0.2,0-0.4,0.2-0.5c0.2-0.1,0.4,0,0.5,0.2l0.5,1
	c0.1,0.2,0,0.4-0.2,0.5C91.7,76.5,91.6,76.5,91.6,76.5L91.6,76.5z"/>
<path class="st0" d="M83.1,97c-0.1,0-0.3-0.1-0.3-0.2L72.7,79.5c-0.1-0.2,0-0.4,0.1-0.5c0.2-0.1,0.4,0,0.5,0.1l10.1,17.3
	c0.1,0.2,0,0.4-0.1,0.5C83.3,97,83.2,97,83.1,97L83.1,97z"/>
<path class="st0" d="M96.6,105c-0.1,0-0.3-0.1-0.3-0.2l-5.3-9.4c-0.1-0.2,0-0.4,0.2-0.5c0.2-0.1,0.4,0,0.5,0.1l5.3,9.4
	c0.1,0.2,0,0.4-0.2,0.5C96.7,105,96.6,105,96.6,105L96.6,105z"/>
<path class="st0" d="M7.5,146c-0.1,0-0.3-0.1-0.3-0.2l-5-8.6c-0.1-0.2,0-0.4,0.1-0.5c0.2-0.1,0.4,0,0.5,0.1l5,8.6
	c0.1,0.2,0,0.4-0.1,0.5C7.7,146,7.6,146,7.5,146L7.5,146z"/>
<path class="st0" d="M21.1,154.3c-0.1,0-0.3-0.1-0.3-0.2L1.7,121.2c-0.1-0.2,0-0.4,0.1-0.5c0.2-0.1,0.4,0,0.5,0.1l19.1,32.9
	c0.1,0.2,0,0.4-0.1,0.5C21.3,154.3,21.2,154.3,21.1,154.3L21.1,154.3z"/>
<path class="st0" d="M34.6,162.3c-0.1,0-0.3-0.1-0.3-0.2l-24-41.8c-0.1-0.2,0-0.4,0.1-0.5c0.2-0.1,0.4,0,0.5,0.1l24,41.8
	c0.1,0.2,0,0.4-0.1,0.5C34.7,162.3,34.6,162.3,34.6,162.3L34.6,162.3z"/>
<path class="st0" d="M48,170c-0.1,0-0.3-0.1-0.3-0.2L23.4,128c-0.1-0.2,0-0.4,0.1-0.5c0.2-0.1,0.4,0,0.5,0.1l24.2,41.8
	c0.1,0.2,0,0.4-0.1,0.5C48.1,170,48,170,48,170L48,170z"/>
<path class="st0" d="M61.1,177.6c-0.1,0-0.3-0.1-0.3-0.2l-24.2-41.8c-0.1-0.2,0-0.4,0.1-0.5c0.2-0.1,0.4,0,0.5,0.1L61.4,177
	c0.1,0.2,0,0.4-0.1,0.5C61.2,177.6,61.1,177.6,61.1,177.6L61.1,177.6z"/>
<path class="st0" d="M69.2,176.3c-0.1,0-0.3-0.1-0.3-0.2l-18.7-32.5c-0.1-0.2,0-0.4,0.1-0.5c0.2-0.1,0.4,0,0.5,0.1l18.7,32.5
	c0.1,0.2,0,0.4-0.1,0.5C69.3,176.3,69.3,176.3,69.2,176.3L69.2,176.3z"/>
<path class="st0" d="M68.9,160.2c-0.1,0-0.3-0.1-0.3-0.2l-4.6-7.9c-0.1-0.2,0-0.4,0.1-0.5c0.2-0.1,0.4,0,0.5,0.1l4.6,7.9
	c0.1,0.2,0,0.4-0.1,0.5C69,160.2,68.9,160.2,68.9,160.2L68.9,160.2z"/>
<path class="st0" d="M63.9,149.4c-0.1,0-0.1,0-0.2-0.1c-0.2-0.1-0.3-0.4-0.1-0.5l4.8-8.4c0.1-0.2,0.4-0.3,0.5-0.1
	c0.2,0.1,0.3,0.4,0.1,0.5l-4.8,8.4C64.2,149.4,64,149.4,63.9,149.4L63.9,149.4z"/>
<path class="st0" d="M50.6,141.8c-0.1,0-0.1,0-0.2-0.1c-0.2-0.1-0.3-0.4-0.1-0.5l5-8.4c0.1-0.2,0.4-0.3,0.5-0.1
	c0.2,0.1,0.3,0.4,0.1,0.5l-5,8.4C50.9,141.7,50.8,141.8,50.6,141.8L50.6,141.8z"/>
<path class="st0" d="M37.4,134.1c-0.1,0-0.1,0-0.2-0.1c-0.2-0.1-0.3-0.3-0.1-0.5l4.8-8.4c0.1-0.2,0.3-0.3,0.5-0.1
	c0.2,0.1,0.3,0.4,0.1,0.5l-4.8,8.4C37.6,134.1,37.5,134.1,37.4,134.1L37.4,134.1z"/>
<path class="st0" d="M24.1,126.5c-0.1,0-0.1,0-0.2-0.1c-0.2-0.1-0.3-0.3-0.1-0.5l4.8-8.4c0.1-0.2,0.3-0.3,0.5-0.1
	c0.2,0.1,0.3,0.3,0.1,0.5l-4.8,8.4C24.4,126.4,24.2,126.5,24.1,126.5L24.1,126.5z"/>
<path class="st0" d="M10.8,118.8c-0.1,0-0.1,0-0.2-0.1c-0.2-0.1-0.3-0.4-0.1-0.5l5-8.5c0.1-0.2,0.4-0.3,0.5-0.1
	c0.2,0.1,0.3,0.4,0.1,0.5l-5,8.5C11.1,118.8,11,118.8,10.8,118.8L10.8,118.8z"/>
</svg>
