<?xml version="1.0" encoding="utf-8"?>
<!-- Generator: Adobe Illustrator 24.1.2, SVG Export Plug-In . SVG Version: 6.00 Build 0)  -->
<svg version="1.1" id="Camada_1" xmlns="http://www.w3.org/2000/svg" xmlns:xlink="http://www.w3.org/1999/xlink" x="0px" y="0px"
	 viewBox="0 0 340 350.9" style="enable-background:new 0 0 340 350.9;" xml:space="preserve">
<style type="text/css">
	.st0{fill:#029EDA;}
	.st1{fill:#FFFFFF;}
</style>
<circle class="st0" cx="169.2" cy="176.3" r="160.2"/>
<path class="st1" d="M127.8,100.5l86.7,73c1,0.9,1.6,2.1,1.6,3.5l0,0c0,1.3-0.6,2.6-1.6,3.5l-85.8,71.6c-1.6,1.3-4,1-5.3-0.7l0,0
	c-1-1.4-0.9-3.4,0.3-4.6l64.9-65c2.2-2.3,2.2-6-0.1-8.3l-65.6-67.9c-1.2-1.2-1.3-3.2-0.2-4.5l0,0C124.1,99.5,126.3,99.3,127.8,100.5
	z"/>
</svg>
