<?xml version="1.0" encoding="utf-8"?>
<!-- Generator: Adobe Illustrator 24.1.2, SVG Export Plug-In . SVG Version: 6.00 Build 0)  -->
<svg version="1.1" id="Camada_1" xmlns="http://www.w3.org/2000/svg" xmlns:xlink="http://www.w3.org/1999/xlink" x="0px" y="0px"
	 viewBox="0 0 401.4 414.4" style="enable-background:new 0 0 401.4 414.4;" xml:space="preserve">
<style type="text/css">
	.st0{fill:#FFFFFF;}
</style>
<g>
	<path class="st0" d="M200.7,70.4c48.9,0,97.7,0,146.6,0c3,0,6.1,0.2,9.1,0.7c5.4,0.9,10.3,3.2,14.7,6.6c4.7,3.6,8.2,8.2,10.7,13.6
		c2.4,5.2,3,10.7,3,16.3c0,22.3,0,44.6-0.1,66.9c0,2.9,0.7,5.1,2.8,7.2c5.5,5.5,9,12.2,11.3,19.4c1,3.1,1.2,6.6,2,9.8
		c0.9,3.6,0.8,7.3,0.7,11c-0.1,5-0.8,10-2.2,14.9c-2.3,8.1-4.6,16.2-7,24.3c-1.9,6.5-4,12.9-5.9,19.4c-2.5,8.5-5,16.9-7.5,25.4
		c-2.4,7.9-4.8,15.8-7.2,23.7c-2.5,8.1-5.1,16.3-7.6,24.4c-1.3,4.2-2.4,8.4-3.8,12.6c-1.4,4.3-4,7.9-8.5,9.4
		c-2.3,0.8-4.7,1.2-7.4,0.6c-4.8-1.1-7.9-3.8-9.9-8.1c-1.6-3.5-1.2-7-0.1-10.5c2.1-6.9,4.2-13.9,6.3-20.8c2.6-8.3,5.3-16.5,7.8-24.8
		c2.6-8.4,5-16.9,7.5-25.4c1.7-5.8,3.6-11.5,5.4-17.3c1.7-5.7,3.4-11.4,5.1-17.2c1.7-5.7,3.6-11.4,5.2-17.1c0.9-3.2,1.5-6.5,2.1-9.8
		c0.3-1.6,0.3-3.2,0.5-4.8c0.6-5.1-0.5-10-2.6-14.6c-2.7-5.8-7.2-9.8-12.9-12.6c-4-1.9-8.2-3.1-12.4-4c-4.7-1-9.5-2.1-14.2-3.1
		c-4.6-0.9-9.2-1.7-13.8-2.6c-3.4-0.7-6.7-1.5-10-2.1c-4.9-0.9-9.9-1.8-14.8-2.7c-3.3-0.6-6.6-1.3-9.8-1.9c-2.6-0.5-5.2-0.9-7.7-1.4
		c-3.4-0.7-6.8-1.5-10.3-2.1c-3.4-0.6-6.8-1.1-10.1-1.8c-2.6-0.5-5.1-1.1-7.7-1.6c-1.5-0.3-3-0.4-4.5-0.7c-5-0.9-10-1.7-15-2.6
		c-5.1-0.9-10.1-2-15.2-3c-3.3-0.6-6.6-1.3-9.9-1.8c-1.3-0.2-2.7-0.3-4,0c-5.1,0.9-10.2,1.9-15.3,2.8c-5.3,1-10.7,1.8-16,2.7
		c-3.2,0.6-6.4,1.3-9.6,1.9c-5.6,1-11.1,1.9-16.7,3c-5,0.9-10,2.1-15,3c-5,0.9-10,1.7-15.1,2.7c-3.1,0.6-6.1,1.3-9.1,1.8
		c-5.3,1-10.6,1.9-15.9,3c-3.1,0.6-6.2,1.4-9.3,2c-4.8,1-9.5,1.8-14.3,2.8c-6.7,1.5-13.4,2.5-19.7,5.6c-6.6,3.2-11.5,8-14,14.9
		c-1.4,3.9-2.1,7.9-1.6,12c0.1,0.6,0.2,1.1,0.2,1.7c0,5.4,1.6,10.5,3.1,15.7c1.7,5.9,3.5,11.7,5.3,17.6c1.8,5.8,3.6,11.5,5.3,17.3
		c1.7,5.6,3.4,11.3,5.1,16.9c1.5,5,3,9.9,4.5,14.8c2.9,9.5,5.8,19,8.6,28.6c2.4,7.9,4.9,15.8,7.3,23.7c0.6,1.8,1.2,3.7,1.4,5.5
		c0.6,5-2.2,10.5-6.9,13c-2.2,1.2-4.7,2.2-7.3,1.8c-5.7-0.8-10.1-3.5-12.1-9.1c-1.3-3.8-2.5-7.6-3.6-11.4c-1.5-4.9-3-9.9-4.5-14.8
		c-2.8-9.1-5.6-18.1-8.4-27.1c-1.8-5.9-3.4-11.8-5.2-17.6c-2.6-8.5-5.3-17-7.9-25.5c-2.5-8.4-5-16.8-7.5-25.2c-1-3.5-2.3-7-3-10.6
		c-1.6-7.9-2.3-15.9-1.3-24c0.9-6.8,2.7-13.2,5.9-19.3c2.2-4.4,5.1-8.3,8.6-11.7c1.4-1.4,1.9-2.9,1.9-4.9c-0.1-22.2,0-44.3,0-66.5
		c0-1.8,0-3.5,0.1-5.3C17,96,20,89,25.1,82.9c4-4.8,9-8.3,14.9-10.4c3.3-1.2,6.7-2,10.3-2c1.5,0,3,0,4.6,0
		C103.4,70.4,152,70.4,200.7,70.4z M357.3,164.1c0.1-1.1,0.1-2,0.1-2.9c0-17.9,0-35.8,0-53.7c0-0.8,0-1.6-0.1-2.4
		c-0.2-3.1-2.9-6.9-6.3-7.2c-1.4-0.1-2.9-0.3-4.3-0.3c-97.5,0-194.9,0-292.4,0c-0.9,0-1.8,0-2.6,0C47,98,44,101.2,44,105.9
		c0,18.8,0,37.6,0,56.4c0,0.6,0.2,1.2,0.3,1.7c4.3-0.8,8.3-1.6,12.4-2.4c5-1,10-2.1,14.9-3.1c3-0.6,6.1-1.1,9.2-1.7
		c3.3-0.7,6.5-1.5,9.8-2.1c2.6-0.5,5.2-0.9,7.7-1.4c3.3-0.6,6.5-1.3,9.8-1.9c4.9-0.9,9.9-1.7,14.8-2.6c5.3-1,10.6-2.1,15.9-3.1
		c5-0.9,10-1.8,15-2.8c3.9-0.7,7.8-1.4,11.7-2.1c3.1-0.5,6.3-1,9.4-1.6c2.6-0.5,5.1-1.1,7.7-1.6c3.8-0.7,7.7-1.4,11.5-2.1
		c3.8-0.7,7.5-1.4,11.4-0.3c2.8,0.8,5.7,1.2,8.6,1.7c5.2,0.9,10.5,1.7,15.8,2.7c5.2,0.9,10.5,2,15.7,3c5.2,1,10.3,1.9,15.5,2.8
		c3.4,0.6,6.7,1.4,10.1,2c5.3,1,10.6,1.9,16,2.9c3.2,0.6,6.4,1.3,9.6,1.9c5.1,0.9,10.2,1.8,15.3,2.7c4.8,0.9,9.7,2,14.5,3
		c3.1,0.6,6.3,1.1,9.4,1.8c3.3,0.7,6.5,1.4,9.8,2.1c3.4,0.7,6.8,1.5,10.3,2.2C356.3,164,356.6,164,357.3,164.1z"/>
	<path class="st0" d="M336,414.3c-6.1,0.1-11.6-0.9-17-2c-10.1-2.2-19-7.1-28.1-11.7c-3.6-1.8-7.2-3.7-11-5.2
		c-5.4-2.2-11-2.5-16.7-1.9c-5.8,0.5-11.4,2-16.7,4.6c-5.4,2.6-10.6,5.6-16,8.1c-4.5,2.1-9.2,4.1-13.9,5.6
		c-6.1,1.9-12.5,2.7-18.9,2.2c-3.7-0.2-7.4-0.4-10.9-1.2c-3.9-0.9-7.6-2.3-11.3-3.6c-6.5-2.4-12.3-6-18.4-9.1
		c-4.2-2.1-8.5-3.8-13.1-5.1c-5.1-1.4-10.2-1.7-15.4-1.5c-5.4,0.2-10.2,2.2-14.9,4.7c-4.7,2.5-9.3,5.1-14.1,7.5
		c-5.4,2.6-11,4.9-16.8,6.7c-8.7,2.6-17.5,2.6-26.3,2c-5.2-0.4-10.4-1.7-15.4-3.1c-5.9-1.7-11.6-3.9-17.2-6.2
		c-3.3-1.4-5.8-3.6-7.3-6.9c-2.8-6.4-0.8-14.6,6.5-18c3.3-1.5,6.6-1.8,10-0.6c4,1.5,8,3.2,12.1,4.5c7,2.3,14.1,3.9,21.6,3.4
		c4.6-0.3,8.9-1.2,13.3-2.8c6.2-2.2,11.8-5.6,17.5-8.6c5.3-2.8,10.6-5.5,16.3-7.2c7-2.2,14.1-3.3,21.5-2.5c3.7,0.4,7.4,0.5,10.9,1.2
		c5.5,1.1,11,2.6,16.1,5.1c7.1,3.5,14.2,7.2,21.4,10.5c7.1,3.3,14.5,4.6,22.3,3.2c6-1.1,11.3-3.6,16.6-6.5
		c6.7-3.7,13.6-7.1,20.7-9.7c2.4-0.9,5-1.2,7.4-1.9c4.6-1.4,9.4-1.5,14.2-2c4.6-0.5,9.1,0.1,13.6,0.8c8.5,1.4,16.2,5,23.8,8.9
		c4.8,2.5,9.5,5.2,14.5,7.3c3.1,1.3,6.3,2.4,9.7,3c4.6,0.9,9.2,0.9,13.8,0.7c3.9-0.2,7.7-1.2,11.5-2.1c5-1.2,9.6-3.2,14.4-5
		c6.2-2.4,12-0.1,15.5,3.8c5.4,6,3.9,16.5-3.2,20.3c-3.5,1.9-7.4,3.4-11.2,4.6c-5,1.7-10.2,3.2-15.4,4.4
		C346.4,413.8,341,414.5,336,414.3z"/>
	<path class="st0" d="M200.8,35c40.5,0,80.9,0,121.4,0c2.9,0,5.7,0.2,8.4,1.5c5.4,2.5,8.9,9.8,7.3,15.4c-1.7,5.6-6.3,10.2-14,10.5
		c-0.8,0-1.6,0-2.4,0c-80.6,0-161.2,0-241.8,0c-3.5,0-6.9-0.3-9.9-2.2c-4.5-2.8-6.9-7-6.6-12.2c0.3-5.3,2.9-9.3,7.9-11.6
		c2.5-1.1,5-1.4,7.7-1.4c15.5,0,31,0,46.5,0C150.4,35,175.6,35,200.8,35z"/>
	<path class="st0" d="M186.9,275.3c0-28.1,0-56.1,0-84.2c0-3.1,0.4-6.2,2.1-9c2.5-4.3,6.2-6.6,11.3-6.7c6.3-0.1,10.6,2.8,12.9,8.4
		c0.9,2.2,1.1,4.8,1.1,7.3c0.1,16.1,0,32.1,0,48.2c0,40,0,80.1,0,120.1c0,3-0.1,5.9-1.5,8.6c-2.8,5.2-7.1,7.8-13.1,7.4
		c-5.5-0.3-9.2-3.3-11.5-8.1c-1.1-2.3-1.4-4.9-1.4-7.5c0-21.3,0-42.5,0-63.8C186.9,289.2,186.9,282.3,186.9,275.3z"/>
	<path class="st0" d="M200.8,0c18.8,0,37.6,0,56.4,0c6.2,0,10.4,3,12.7,8.4c2.9,7.1-0.6,15.2-8.2,17.8c-2.1,0.7-4.2,0.8-6.3,0.8
		c-36.7,0-73.4,0-110.1,0c-3.6,0-6.9-0.9-9.7-3.3c-7.6-6.2-6.4-18.4,3.3-22.9c1.8-0.8,3.7-1,5.6-1C163.2,0,182,0,200.8,0z"/>
	<path class="st0" d="M237.9,234.5c0.3-8.7,0.4-17.4,0.8-26.1c0.2-4,1-7.9,4-11c6.5-6.8,18.9-5.3,22.6,4.9c0.7,2,0.8,4.4,0.8,6.6
		c-0.4,11.3-0.8,22.5-1.4,33.8c-0.3,5.5-4.5,10.2-9.9,11.6c-7.5,2-15.2-2.5-17-11c-0.1-0.6-0.1-1.3-0.1-1.9c0-2.3,0-4.6,0-7
		C237.8,234.5,237.8,234.5,237.9,234.5z"/>
	<path class="st0" d="M163.5,235.4c0,2.2,0,4.5,0,6.7c-0.2,5.6-4.6,11-10.8,12.4c-6.5,1.4-12.7-2.6-14.9-7.5c-0.6-1.4-1-2.9-1.1-4.3
		c-0.4-6.4-0.6-12.8-0.9-19.2c-0.2-4.7-0.4-9.4-0.6-14.1c-0.2-3,0.2-5.9,1.6-8.6c2.5-4.9,6.5-7.3,12.1-7.5
		c5.4-0.2,11.1,3.7,12.7,8.8c0.7,2.1,1,4.3,1.2,6.6c0.2,2.9,0.1,5.9,0.2,8.9C163.1,223.4,163.3,229.4,163.5,235.4
		C163.5,235.4,163.5,235.4,163.5,235.4z"/>
</g>
</svg>
