<?xml version="1.0" encoding="utf-8"?>
<!-- Generator: Adobe Illustrator 24.1.2, SVG Export Plug-In . SVG Version: 6.00 Build 0)  -->
<svg version="1.1" id="Camada_1" xmlns="http://www.w3.org/2000/svg" xmlns:xlink="http://www.w3.org/1999/xlink" x="0px" y="0px"
	 viewBox="0 0 414.8 295.9" style="enable-background:new 0 0 414.8 295.9;" xml:space="preserve">
<style type="text/css">
	.st0{fill:#FFFFFF;}
</style>
<g>
	<path class="st0" d="M57.3,268c2.4-0.5,4.5-0.8,6.5-1.5c3.3-1.2,6.5-2.6,9.6-4.2c8.2-3.9,15.9-8.7,24.5-11.8
		c4.1-1.5,8.3-2.6,12.7-3.2c3.7-0.5,7.5-0.9,11.2-0.6c6.1,0.5,12.2,1.3,18.1,3c6.8,1.9,13.2,4.7,19.4,8c5.4,2.8,10.7,5.5,16.3,7.9
		c5,2.2,10.4,2.6,15.9,2.3c6.6-0.3,12.4-2.7,18.1-5.6c7.3-3.8,14.5-7.9,22.4-10.7c3.4-1.2,7-2.3,10.6-3c6.4-1.3,12.9-2.3,19.5-1.8
		c5,0.3,10,1.2,14.8,2.7c6.5,2.1,12.7,5,18.8,8.3c4.7,2.6,9.6,5.1,14.6,7.1c3.6,1.5,7.4,3.1,11.5,3c0.3,0,0.6,0.1,1,0.1
		c3.1,0.5,3.2,0.5,4.3-2.4c2.6-6.6,5-13.2,7.6-19.8c2.5-6.5,5.2-13,7.7-19.5c1.7-4.3,3.3-8.6,5-12.9c1.7-4.5,3.5-9.1,5.2-13.6
		c2.7-7,5.3-14,8.1-20.9c3.4-8.6,6.8-17.2,10.2-25.7c3.5-8.9,6.9-17.8,10.3-26.7c0.1-0.3,0.2-0.6,0.3-1.1c-0.6-0.1-1.1-0.3-1.6-0.4
		c-0.6-0.1-1.3,0-1.9,0c-43,0-85.9,0-128.9,0c-1.1,0-2.2,0-3.5,0c-0.7,1.4-1.4,2.7-2,4.1c-3,7.2-6,14.4-9,21.6
		c-1.3,3.2-2.5,6.6-4,9.7c-1,2-2.3,4-3.8,5.7c-2,2.3-4.8,3.4-7.9,3.5c-1.4,0.1-2.7,0.2-4.1,0.2c-62.9,0-125.8,0-188.6,0
		c-2.8,0-5.6,0.1-8.2-1.2c-3.4-1.6-5.7-4.1-7.1-7.7c-2.6-6.8,1-14.3,7.3-17.1c2-0.9,4.1-1.2,6.3-1.2c7.9,0,15.8,0,23.8,0
		c11.6,0,23.2,0,34.8,0c0.9,0,1.9,0,3.1,0c0.1-1.3,0.2-2.3,0.2-3.3c0-15.7,0-31.3,0-47c0-3.9,1-7.4,3.7-10.3c2.3-2.5,5.1-4,8.5-4.3
		c3.6-0.2,6.9,0.3,9.7,2.6c3,2.4,4.9,5.4,5.2,9.3c0.1,1.8,0.3,3.7,0.3,5.5c0,14.6,0,29.1,0,43.7c0,1.1,0,2.2,0,3.5
		c1.1,0.1,1.8,0.2,2.6,0.2c30,0,60,0,90,0c1.7,0,2.5-0.5,3.1-2.1c3.6-9,7.5-17.9,11.2-26.8c1.2-2.9,2.4-5.9,3.8-8.7
		c2.2-4.2,5.7-6.8,10.6-7c2.2-0.1,4.5-0.3,6.7-0.3c17.5,0,35,0,52.6,0c3.6,0,3.6,0,3.6-3.6c0-8.3,0-16.6,0-24.9
		c0-0.9-0.1-1.9-0.2-3.1c-1.3,0-2.4,0-3.5,0c-64.1,0-128.2,0-192.2,0c-2.1,0-4.2-0.2-6.3-0.8c-7.4-2-12.5-12.2-7.2-20
		c2.9-4.3,6.9-6.3,12.1-6.3c46.2,0.1,92.3,0,138.5,0c1,0,2.1,0,3.1,0c0.2-0.5,0.4-0.9,0.4-1.2c0-2.7,0.1-5.4,0-8.2
		c0-1.6-0.3-1.8-1.8-1.9c-0.8-0.1-1.6,0-2.4,0c-27.2,0-54.4,0-81.6,0c-2.2,0-4.5-0.1-6.7-0.5c-3.4-0.7-6-2.9-7.9-5.8
		c-4.4-6.9-1.8-16.8,7-20c2-0.7,4.4-1,6.6-1C188.4,0,221.2,0,254,0c3.2,0,6.2,0.6,8.9,2.2c3.2,1.8,5.2,4.5,6.2,8.1
		c0.7,2.5,0.7,5,0.7,7.6c0,5.9,0,11.8,0,17.8c0,0.9,0.1,1.9,0.2,3.1c1.1,0,2.1,0,3,0c12.6,0,25.1,0.1,37.7,0c6.2,0,10.5,2.9,13,8.4
		c0.8,1.9,1,4.2,1.1,6.3c0.1,13.4,0,26.9,0,40.3c0,0.6,0,1.3,0,1.9c-0.1,1.2,0.5,1.8,1.7,1.8c0.8,0,1.6,0,2.4,0c23,0,45.9,0,68.9,0
		c2.2,0,4.5,0,6.7,0.5c3.7,0.8,6.6,3.1,8.5,6.4c2.3,4,2.3,8.2,0.7,12.4c-3.7,9.7-7.4,19.3-11.2,28.9c-2.9,7.6-6,15.1-8.9,22.6
		c-2.4,6.2-4.8,12.5-7.2,18.7c-2.7,7-5.4,13.9-8.2,20.9c-2.6,6.8-5.2,13.5-7.8,20.3c-4,10.3-8,20.6-12,30.9c-0.2,0.6-0.3,1.2-0.5,2
		c1.4-0.3,2.6-0.4,3.6-0.8c2.2-0.9,4.2-0.6,6.5,0c2.9,0.8,5.2,2.2,7.1,4.5c4.9,5.6,4.1,16.1-3.8,20.3c-2.5,1.3-5.2,2.5-7.9,3.4
		c-5.4,1.8-10.9,3.6-16.4,5c-8.3,2.1-16.8,2.7-25.4,2.1c-2.7-0.2-5.3-1-8-1.5c-1.1-0.2-2.2-0.3-3.3-0.6c-5-1.1-9.8-2.9-14.3-5.1
		c-6.4-3.1-12.6-6.4-18.9-9.6c-3.5-1.8-7.1-3.4-10.9-4c-3.3-0.5-6.7-1.1-10.2-0.7c-4,0.5-8,0.7-11.8,1.9c-3.2,1-6.4,2.3-9.5,3.8
		c-4.8,2.3-9.4,5-14.2,7.3c-5.2,2.5-10.5,5.1-16.2,6.3c-4,0.9-8.1,1.6-12.2,1.9c-5.4,0.5-10.8-0.5-16.1-1.4
		c-8.6-1.5-16-5.5-23.7-9.3c-4.8-2.4-9.4-4.9-14.4-7c-4.3-1.8-8.8-3.1-13.6-3.3c-1.6,0-3.2-0.3-4.8-0.5c-0.3,0-0.6-0.2-0.9-0.1
		c-3.2,0.5-6.5,0.9-9.6,1.7c-5.1,1.3-9.7,3.9-14.3,6.5c-6.7,3.8-13.7,7.1-20.9,10c-2.1,0.8-4.4,1.2-6.7,1.8c-1.5,0.4-2.9,0.8-4.4,1
		c-3.5,0.5-7,1.2-10.4,1.2c-4.7,0.1-9.4,0-14-1.1c-2.7-0.6-5.5-0.8-8.2-1.5c-6.4-1.6-12.6-3.7-18.7-6.3c-1.5-0.6-3-1.2-4.4-1.9
		c-5.6-3.1-8-8.5-6.8-14.5c1-5.2,4.3-8.6,9.5-10.3c3.5-1.2,6.5-0.4,9.7,0.8c2.4,0.9,4.7,1.8,7.1,2.7c0.5,0.2,1,0.3,1.8,0.5
		c0-1.1,0.1-2.1,0-3c-0.6-3.7-1.3-7.4-2-11.1c-0.7-3.8-1.2-7.5-1.9-11.3c-1-6-2.1-12.1-3.1-18.1c-0.6-3.8-1.1-7.6-1.8-11.3
		c-0.4-2.7-1-5.3-1.5-8c-0.4-2.1-0.6-4.3-0.9-6.4c-0.1-0.8-0.2-1.6-0.4-2.4c-1.8-6.7,2.7-14.8,10.5-16.5c6.5-1.4,13.6,2.7,15.6,8.9
		c0.4,1.3,0.7,2.6,0.9,4c0.9,5.3,1.7,10.7,2.6,16c0.5,2.7,1,5.5,1.5,8.2c0.3,1.6,0.4,3.2,0.6,4.7c0.7,4.3,1.3,8.7,2.1,13
		c0.7,3.8,1.4,7.7,2.1,11.5c0.6,3.8,1.2,7.5,1.8,11.3c0.6,3.9,1.3,7.9,1.9,11.8C56.7,266.3,57,266.9,57.3,268z"/>
	<path class="st0" d="M165.6,111.8c-9,0-17.9-0.2-26.9,0.1c-5.6,0.1-11.8-3.5-13.6-10.3c-1.7-6.6,2.5-14.3,8.8-16
		c1.5-0.4,2.9-0.9,4.4-0.9c18.1,0,36.3,0,54.4,0c5,0,8.9,2.3,11.5,6.4c2.7,4.2,2.8,8.9,0.6,13.3c-2.3,4.5-6.2,7.3-11.5,7.3
		C184.1,111.9,174.8,111.8,165.6,111.8C165.6,111.8,165.6,111.8,165.6,111.8z"/>
	<path class="st0" d="M120.6,205.9c0.3-10.2,8.1-18.2,18.3-18.3c10.1-0.1,18.4,7.8,18.4,18.3c-0.1,10.5-8.4,18.2-18.3,18.2
		C129,224.1,120.9,216.1,120.6,205.9z"/>
	<path class="st0" d="M213.4,205.7c0.2,10.4-8.6,18.5-18.3,18.4c-9.7-0.1-18.2-7.9-18.2-18.3c0.1-10.8,8.5-18.2,18.2-18.2
		C205,187.5,213.4,195.5,213.4,205.7z"/>
	<path class="st0" d="M233.2,205.7c-0.2-10.3,8.7-18.5,18.5-18.1c9.9,0.4,17.7,7.5,17.8,18.2c0.1,10.7-8.2,18.4-18.4,18.4
		C241.5,224.1,232.8,215.9,233.2,205.7z"/>
	<path class="st0" d="M315.5,157.4c0-10,7.7-18.2,18.2-18.1c10.6,0.1,18,7.6,18.2,17.9c0.2,10.4-8,18.3-18.2,18.4
		C324,175.7,315.3,167.6,315.5,157.4z"/>
	<path class="st0" d="M325.7,205.9c-0.3,6.3-2.8,11.5-8,15c-5.8,3.8-12,4.4-18.5,1.2c-7.3-3.6-11.7-12.5-9.5-20.7
		c1.6-6.2,6.7-12.1,14.3-13c1.3-0.2,2.5-0.8,3.7-0.7c7,0.7,12.8,3.5,16.2,10.1C324.9,199.9,325.7,203.4,325.7,205.9z"/>
	<path class="st0" d="M275.9,175.7c-10.4,0-18.3-8-18.3-18.1c0-9.9,7.1-18.1,18.2-18.1c11,0,18.1,7.7,18.2,17.9
		C294,167.6,286.2,175.5,275.9,175.7z"/>
	<path class="st0" d="M64.7,205.6c0.3-11.3,8.6-17.9,18.2-17.8c10,0.1,17.8,6.4,18,18c0.2,10.5-8.2,18.4-18.3,18.3
		C72.7,224,64.4,215.7,64.7,205.6z"/>
</g>
</svg>
