<?xml version="1.0" encoding="utf-8"?>
<!-- Generator: Adobe Illustrator 24.1.2, SVG Export Plug-In . SVG Version: 6.00 Build 0)  -->
<svg version="1.1" id="Camada_1" xmlns="http://www.w3.org/2000/svg" xmlns:xlink="http://www.w3.org/1999/xlink" x="0px" y="0px"
	 viewBox="0 0 245 245" style="enable-background:new 0 0 245 245;" xml:space="preserve">
<style type="text/css">
	.st0{fill:#FFFFFF;}
</style>
<path class="st0" d="M19.1,231c5.9-17.4,11.6-34.6,17.6-51.7c1.1-3.1,1.1-5.5-0.5-8.5c-5.3-9.7-8.9-20.2-10.9-31.1
	c-1.5-8.1-2.1-16.3-1.7-24.5c0.8-17.6,5.7-34.1,14.4-49.4C44.1,54.8,52,45.2,61.5,37c9.7-8.5,20.6-14.9,32.7-19.3
	c8.5-3.1,17.3-4.8,26.4-5.4c8.4-0.6,16.8-0.3,25.1,1c12.5,1.9,24.4,5.9,35.5,12c8.6,4.7,16.4,10.6,23.3,17.5
	c12.1,12.2,20.7,26.6,25.7,43c2.2,7.3,3.7,14.8,4.4,22.4c0.6,6.2,0.7,12.4,0.2,18.5c-0.7,8.3-2.2,16.4-4.8,24.4
	c-3.8,12.1-9.6,23.2-17.3,33.3c-11.4,14.9-25.7,26.3-43.1,33.7c-9.2,3.9-18.8,6.4-28.7,7.5c-7.6,0.8-15.3,0.8-23-0.1
	c-7.1-0.8-14-2.2-20.7-4.5c-3.2-1.1-6-2.9-9.1-4.2c-2.7-1.2-5.4-2.5-8.2-3.3c-3.6-1-7.3-0.4-10.8,0.8c-5.6,1.9-11.1,4.3-16.7,6.1
	c-10.7,3.6-21.5,7-32.3,10.5C20,231,19.8,231,19.1,231z M47.9,203.1c0.9-0.3,1.5-0.4,2-0.6c9.6-3,19.2-6.1,28.7-9.2
	c1-0.3,1.8-0.2,2.7,0.3c3.7,2,7.3,4,11.2,5.7c14.4,6.3,29.4,8.6,45.1,6.8c12.3-1.4,23.8-5.2,34.6-11.3c13.7-7.8,24.8-18.5,32.9-32.1
	c6.3-10.4,10.1-21.7,11.4-33.8c0.7-7,0.6-14-0.2-21c-1.3-10.2-4.1-19.9-8.6-29c-5.2-10.5-12.2-19.7-21.1-27.5
	c-8-7-17.1-12.4-27.1-16.1c-12.8-4.6-25.9-6.1-39.4-4.8C107.2,32,95.3,36,84.4,42.9c-16.7,10.5-28.5,25.2-36,43.5
	c-3.7,9.1-5.8,18.5-6.5,28.3c-0.6,8.1-0.1,16,1.5,23.9c2.4,11.9,7.1,22.9,13.8,33c0.3,0.5,0.4,1.4,0.2,2.1c-2.7,8.4-5.5,16.7-8.2,25
	C48.8,200,48.4,201.4,47.9,203.1z"/>
<path class="st0" d="M103.4,109.6c8,17.3,21.4,29.2,38.7,37.1c3.8-2.4,6.6-5.8,9.5-9.1c1.4-1.6,2.8-3.1,4.2-4.7
	c0.5-0.6,0.9-0.7,1.7-0.4c8.9,3.6,17.5,7.8,25.4,13.4c0.8,0.6,1.1,1.2,1.1,2.1c0.3,10.7-6.4,19.8-16.7,22.9
	c-8,2.4-15.9,1.8-23.7-0.8c-12.4-4.1-23-11.2-32.8-19.6c-9.5-8.1-17.9-17.2-24.8-27.7c-3.7-5.6-7.1-11.4-8.7-18
	c-2.4-9.8-1.6-19.4,3.2-28.4c4.4-8.1,12.9-11.5,21.7-8.8c0.4,0.1,1,0.5,1.2,0.8c3.6,7.3,7.1,14.7,8.2,22.8
	c0.7,5.2,0.2,10.2-3.6,14.2C106.8,107,105.1,108.2,103.4,109.6z"/>
</svg>
